<svg xmlns="http://www.w3.org/2000/svg" xmlns:xlink="http://www.w3.org/1999/xlink" width="514" height="132" viewBox="0 0 514 132">
  <defs>
    <polygon id="logo-a" points=".706 .555 47.152 .555 47.152 47 .706 47"/>
    <polygon id="logo-c" points=".093 .637 63.522 .637 63.522 26.637 .093 26.637"/>
  </defs>
  <g fill="none" fill-rule="evenodd" transform="translate(0 -.395)">
    <path fill="#CE1E55" d="M20.0712,27.602 C20.0712,12.581 32.2532,0.395 47.2782,0.395 C54.7892,0.395 61.5912,3.442 66.5122,8.364 L28.0362,46.845 C23.1132,41.917 20.0712,35.113 20.0712,27.602"/>
    <path fill="#E2215B" d="M47.2162,27.6371 C52.1402,32.5631 55.1862,39.3661 55.1862,46.8741 C55.1862,61.8991 43.0032,74.0791 27.9762,74.0791 C20.4672,74.0791 13.6642,71.0381 8.7422,66.1121 L47.2162,27.6371 Z"/>
    <path fill="#079B7F" d="M27.9418,112.5219 C12.9228,112.5219 0.7368,100.3379 0.7368,85.3139 C0.7368,77.8039 3.7848,70.9999 8.7078,66.0809 L47.1868,104.5559 C42.2618,109.4779 35.4538,112.5219 27.9418,112.5219"/>
    <path fill="#00C8A1" d="M28.2104,85.558 C33.1344,80.636 39.9374,77.589 47.4484,77.589 C62.4744,77.589 74.6574,89.773 74.6574,104.8 C74.6574,112.31 71.6114,119.113 66.6864,124.035 L28.2104,85.558 Z"/>
    <path fill="#F2B600" d="M78.0077,85.5736 C78.0077,70.5496 90.1917,58.3666 105.2127,58.3666 C112.7247,58.3666 119.5267,61.4136 124.4467,66.3356 L85.9727,104.8136 C81.0487,99.8906 78.0077,93.0806 78.0077,85.5736"/>
    <g transform="translate(66 85)">
      <mask id="logo-b" fill="#fff">
        <use xlink:href="#logo-a"/>
      </mask>
      <path fill="#DAA727" d="M39.1811,0.5551 C44.1051,5.4801 47.1521,12.2831 47.1521,19.7951 C47.1521,34.8171 34.9681,47.0001 19.9441,47.0001 C12.4321,47.0001 5.6291,43.9531 0.7061,39.0291 L39.1811,0.5551 Z" mask="url(#logo-b)"/>
    </g>
    <path fill="#0FA3D0" d="M105.1864,19.9037 C120.2074,19.9037 132.3944,32.0867 132.3944,47.1127 C132.3944,54.6247 129.3454,61.4277 124.4254,66.3477 L85.9444,27.8727 C90.8694,22.9457 97.6744,19.9037 105.1864,19.9037"/>
    <path fill="#13B3E2" d="M104.9828,46.8422 C100.0608,51.7682 93.2548,54.8112 85.7468,54.8112 C70.7218,54.8112 58.5378,42.6272 58.5378,27.6042 C58.5378,20.0962 61.5848,13.2932 66.5078,8.3652 L104.9828,46.8422 Z"/>
    <path fill="#15142A" d="M151.0028 83.0678C151.0028 83.9328 150.2818 84.6528 149.4458 84.6528 148.5518 84.6528 147.8598 83.9328 147.8598 83.0678L147.8598 66.3178 147.8598 66.2898C147.8318 65.7978 148.0628 65.2788 148.4938 64.9628 149.2148 64.4718 150.1958 64.6168 150.6858 65.3078L159.9978 78.1958 159.9978 66.3178C159.9978 65.4818 160.6888 64.7598 161.5538 64.7598 162.4188 64.7598 163.1398 65.4818 163.1398 66.3178L163.1398 83.0678C163.1398 83.9328 162.4188 84.6528 161.5538 84.6528 161.0928 84.6528 160.6608 84.4218 160.3718 84.0768 160.3148 84.0178 160.2568 83.9618 160.2278 83.9038L151.0028 71.1028 151.0028 83.0678zM179.8031 76.0326L187.9611 76.0326C187.6731 74.8806 186.2031 73.1786 183.6951 72.9766 181.2441 73.0916 180.0341 74.8506 179.8031 76.0326M176.6611 77.4446C176.6891 73.5236 179.7451 70.2376 183.6951 70.2376 187.4431 70.2376 190.4121 73.0336 190.6431 76.9276L190.6431 77.0706C190.6431 77.1276 190.6431 77.2726 190.6141 77.3306 190.5271 78.0216 189.9221 78.4826 189.1151 78.4826L179.9481 78.4826C180.0911 79.1466 180.4081 79.8956 180.9281 80.3866 181.5321 81.0786 182.6861 81.5966 183.6951 81.6826 184.7331 81.7696 185.9721 81.5116 186.6931 80.9626 187.2991 80.3286 188.4801 80.4136 188.8561 80.8756 189.2301 81.2786 189.5181 82.1436 188.8561 82.7516 187.4431 84.0476 185.7421 84.6526 183.6951 84.6526 179.7451 84.6236 176.6891 81.3666 176.6611 77.4446M208.4887 71.8227C208.4887 72.6877 207.7387 73.4097 206.8737 73.4097L206.1537 73.4097 206.1537 81.4537C207.0477 81.4537 207.7387 82.1737 207.7387 83.0677 207.7387 83.9617 207.0477 84.6527 206.1537 84.6527 204.3947 84.6527 202.9537 83.2117 202.9537 81.4537L202.9537 73.4097 202.1177 73.4097C201.2227 73.4097 200.5317 72.6877 200.5317 71.8227 200.5317 70.9297 201.2227 70.2377 202.1177 70.2377L202.9537 70.2377 202.9537 66.0567C202.9537 65.1647 203.6747 64.4717 204.5677 64.4717 205.4617 64.4717 206.1537 65.1647 206.1537 66.0567L206.1537 70.2377 206.8737 70.2377C207.7387 70.2377 208.4887 70.9297 208.4887 71.8227M239.9989 72.5443L235.2419 83.7303C235.2129 83.7873 235.1849 83.8743 235.1269 83.9613 235.1269 83.9893 235.0979 83.9893 235.0979 83.9893 235.0689 84.0473 235.0119 84.1043 234.9539 84.1623 234.9249 84.1903 234.8959 84.1903 234.8959 84.1903 234.8379 84.2493 234.7809 84.3073 234.7229 84.3363 234.7229 84.3653 234.6939 84.3653 234.6939 84.3943 234.6079 84.4503 234.5499 84.5073 234.4349 84.5363 234.4349 84.5363 234.4059 84.5363 234.4059 84.5653 234.3479 84.5653 234.2619 84.5953 234.1749 84.6233L234.1179 84.6233C234.0309 84.6523 233.9449 84.6523 233.8289 84.6523 233.7429 84.6523 233.6569 84.6523 233.5699 84.6233L233.5119 84.6233C233.4549 84.5953 233.3959 84.5653 233.3109 84.5653L233.2819 84.5363 233.2529 84.5363C233.1659 84.5073 233.0799 84.4503 232.9929 84.3653L232.9929 84.3363C232.9069 84.3073 232.8779 84.2493 232.8199 84.1903 232.8199 84.1903 232.7629 84.1903 232.7629 84.1623 232.7049 84.1043 232.6469 84.0473 232.6189 83.9893 232.6189 83.9893 232.5899 83.9893 232.5899 83.9613 232.5319 83.8743 232.5029 83.7873 232.4739 83.7303L230.3699 78.7423 228.3229 83.7303C228.2939 83.7873 228.2369 83.8743 228.1789 83.9613L228.1789 83.9893C228.1209 84.0473 228.0629 84.1043 228.0059 84.1623 228.0059 84.1903 227.9769 84.1903 227.9769 84.1903 227.9189 84.2493 227.8609 84.3073 227.8039 84.3653 227.6889 84.4503 227.6309 84.5073 227.5439 84.5363L227.4869 84.5363C227.4869 84.5363 227.4579 84.5363 227.4579 84.5653 227.3999 84.5653 227.3139 84.5953 227.2849 84.6233L227.2279 84.6233C227.1119 84.6523 227.0259 84.6523 226.9389 84.6523 226.8239 84.6523 226.7369 84.6523 226.6509 84.6233L226.5639 84.6233C226.5069 84.5953 226.4489 84.5653 226.3919 84.5653 226.3629 84.5363 226.3629 84.5363 226.3329 84.5363 226.2469 84.5073 226.1319 84.4503 226.0739 84.3653 226.0449 84.3653 226.0449 84.3653 226.0449 84.3363 226.0169 84.3073 225.9589 84.2493 225.8729 84.1903L225.8139 84.1623C225.7859 84.1043 225.7279 84.0473 225.6989 83.9893 225.6709 83.9893 225.6709 83.9893 225.6709 83.9613 225.6129 83.8743 225.5839 83.7873 225.5259 83.7303L220.7979 72.5443C220.4529 71.7663 220.8279 70.9003 221.6349 70.5553 222.3259 70.2373 223.2209 70.5833 223.5379 71.4193L226.9389 79.1743 228.9569 74.3603C229.2169 73.7833 229.7649 73.4373 230.3699 73.4373 231.0039 73.4373 231.5519 73.7833 231.7819 74.3603L233.8289 79.1743 237.2309 71.4193C237.5199 70.5833 238.4419 70.2373 239.1629 70.5553 239.9409 70.9003 240.3449 71.7663 239.9989 72.5443M255.9706 77.474C255.9706 78.714 256.3456 79.723 257.0086 80.53 257.7286 81.221 258.6806 81.597 259.7766 81.597 260.7846 81.597 261.7076 81.221 262.4286 80.53 263.1496 79.723 263.5526 78.714 263.5526 77.474 263.5526 76.292 263.1496 75.254 262.4286 74.476 261.7076 73.841 260.7846 73.38 259.7766 73.38 258.6806 73.38 257.7286 73.841 257.0086 74.476 256.3456 75.254 255.9706 76.292 255.9706 77.474M254.8176 82.548C253.5776 81.279 252.8276 79.492 252.8276 77.474 252.8276 75.513 253.5776 73.813 254.8176 72.429 256.1146 71.074 257.7866 70.238 259.7766 70.238 261.6786 70.238 263.4086 71.074 264.5906 72.429 265.8876 73.813 266.6086 75.513 266.6086 77.474 266.6086 79.492 265.8876 81.279 264.5906 82.548 263.4086 83.904 261.6786 84.74 259.7766 84.74 257.7866 84.74 256.1146 83.904 254.8176 82.548M287.7406 71.766C287.7406 72.574 287.0776 73.294 286.2126 73.294 285.5506 73.294 284.9726 73.466 284.4826 73.841 283.9346 74.188 283.5036 74.677 283.1576 75.226 282.4656 76.149 282.1186 77.244 281.9746 77.647L281.9746 83.125C281.9746 83.961 281.2546 84.653 280.3886 84.653 279.5526 84.653 278.8616 83.961 278.8616 83.125L278.8616 71.766C278.8616 70.93 279.5526 70.267 280.3886 70.267 281.2546 70.267 281.9746 70.93 281.9746 71.766L281.9746 71.968C282.1476 71.766 282.3786 71.536 282.5806 71.39 283.5316 70.757 284.7716 70.238 286.2126 70.267 287.0776 70.267 287.7406 70.93 287.7406 71.766M299.4452 83.0678L299.4452 66.0568C299.4452 65.1928 300.1372 64.4718 301.0302 64.4718 301.9242 64.4718 302.6452 65.1928 302.6452 66.0568L302.6452 76.0328 308.5552 70.1228C309.1602 69.5178 310.1982 69.5178 310.8042 70.1228 311.4382 70.7568 311.4382 71.7658 310.8042 72.3718L306.4792 76.6958 310.9192 82.0298C311.4672 82.7218 311.3802 83.7298 310.6882 84.2778 310.4002 84.5368 310.0262 84.6528 309.6792 84.6528 309.2182 84.6528 308.7572 84.4508 308.4692 84.0768L304.2312 78.9448 302.6452 80.5298 302.6452 83.0678C302.6452 83.9328 301.9242 84.6528 301.0302 84.6528 300.1372 84.6528 299.4452 83.9328 299.4452 83.0678M339.5185 74.2729C339.5465 68.5659 344.3315 63.9239 350.0975 63.8949 352.6355 63.8949 354.9405 64.7319 356.7575 66.1439 357.4495 66.7219 357.5655 67.7289 357.0455 68.4509 356.4695 69.1719 355.4025 69.2869 354.7405 68.7679 353.4715 67.7289 351.8865 67.1819 350.0975 67.1819 348.1095 67.1819 346.2635 67.9909 344.9095 69.2569 343.6125 70.5839 342.8045 72.3139 342.8045 74.2729 342.8045 76.2349 343.6125 78.0219 344.9095 79.2909 346.2635 80.5589 348.1095 81.3669 350.0975 81.3669 351.8865 81.3669 353.4425 80.8179 354.7405 79.7809 355.4025 79.2909 356.4695 79.4069 357.0455 80.0969 357.5655 80.8179 357.4495 81.8569 356.7575 82.4039 354.9405 83.8169 352.6355 84.6529 350.0975 84.6529 344.3315 84.6529 339.5465 80.0099 339.5185 74.2729M379.3896 77.474C379.3896 76.263 378.9566 75.226 378.2646 74.505 377.5726 73.727 376.5926 73.324 375.5826 73.324 374.5456 73.324 373.5656 73.727 372.9026 74.505 372.2096 75.226 371.8066 76.263 371.8066 77.474 371.8066 78.656 372.2096 79.694 372.9026 80.443 373.5656 81.164 374.5456 81.568 375.5826 81.568 376.5926 81.568 377.5726 81.164 378.2646 80.443 378.9566 79.694 379.3896 78.656 379.3896 77.474L379.3896 77.474zM382.4446 77.474L382.4446 83.125C382.4446 83.961 381.7526 84.653 380.9166 84.653 380.1676 84.653 379.5896 84.104 379.4166 83.412 378.3216 84.191 377.0256 84.653 375.5826 84.653 373.6236 84.653 371.9216 83.845 370.6826 82.548 369.4436 81.221 368.7226 79.435 368.7226 77.474 368.7226 75.484 369.4436 73.699 370.6826 72.401 371.9216 71.074 373.6236 70.238 375.5826 70.238 377.0256 70.238 378.3216 70.728 379.4166 71.506 379.5896 70.787 380.1676 70.238 380.9166 70.238 381.7526 70.238 382.4446 70.93 382.4446 71.794L382.4446 77.474zM407.7577 76.2348L407.7577 83.1258C407.7577 83.9618 407.0937 84.6528 406.2567 84.6528 405.4497 84.6528 404.7307 83.9618 404.7307 83.1258L404.7307 76.2348C404.7307 74.6208 403.3737 73.3238 401.7317 73.3238 400.1167 73.3238 398.8477 74.6208 398.8477 76.2348L398.8477 83.1258C398.8477 83.2118 398.8477 83.2968 398.7907 83.4128 398.6477 84.1038 398.0127 84.6528 397.2627 84.6528 396.3977 84.6528 395.7357 83.9618 395.7357 83.1258L395.7357 76.2348 395.7357 71.7658C395.7357 70.9298 396.3977 70.2378 397.2627 70.2378 397.8687 70.2378 398.4167 70.5838 398.6767 71.1318 399.5417 70.5838 400.6077 70.2378 401.7317 70.2378 405.0747 70.2378 407.7577 72.9768 407.7577 76.2348M432.1469 72.5443L427.4179 83.7303C427.3899 83.8163 427.3339 83.9033 427.3039 83.9333 427.3039 83.9613 427.2749 83.9613 427.2749 83.9613 427.2169 84.0183 427.1589 84.1043 427.1009 84.1623 427.1009 84.1903 427.0719 84.1903 427.0719 84.1903 427.0149 84.2773 426.9579 84.3073 426.9009 84.3653 426.9009 84.3653 426.8719 84.3653 426.8719 84.3943 426.8129 84.4503 426.7549 84.5073 426.6679 84.5363L426.6119 84.5363 426.6119 84.5653C426.5259 84.5653 426.4389 84.5953 426.3799 84.6233L426.3229 84.6233C426.2089 84.6523 426.1229 84.6523 426.0359 84.6523 425.9769 84.6523 425.8899 84.6523 425.7759 84.6233L425.7169 84.6233C425.6309 84.5953 425.5739 84.5653 425.4869 84.5653L425.4869 84.5363 425.4279 84.5363C425.3429 84.5073 425.2869 84.4503 425.1699 84.3943 425.1699 84.3653 425.1409 84.3653 425.1409 84.3653 425.0839 84.3073 425.0249 84.2773 424.9679 84.1903 424.9389 84.1903 424.9389 84.1903 424.9109 84.1623 424.8819 84.1043 424.8249 84.0183 424.7659 83.9613 424.7379 83.9613 424.7379 83.9613 424.7379 83.9333 424.6789 83.9033 424.6509 83.8163 424.6219 83.7303L419.9529 72.5443C419.6059 71.7663 419.9799 70.9303 420.7889 70.5833 421.4799 70.2373 422.3749 70.6413 422.7189 71.4193L426.0359 79.2613 429.3799 71.4193C429.6969 70.6413 430.5619 70.2373 431.3109 70.5833 432.1179 70.9303 432.4929 71.7663 432.1469 72.5443M453.8842 77.474C453.8842 76.263 453.4512 75.226 452.7602 74.505 452.0672 73.727 451.0882 73.324 450.0772 73.324 449.0412 73.324 448.0602 73.727 447.3982 74.505 446.7052 75.226 446.3022 76.263 446.3022 77.474 446.3022 78.656 446.7052 79.694 447.3982 80.443 448.0602 81.164 449.0412 81.568 450.0772 81.568 451.0882 81.568 452.0672 81.164 452.7602 80.443 453.4512 79.694 453.8842 78.656 453.8842 77.474L453.8842 77.474zM456.9402 77.474L456.9402 83.125C456.9402 83.961 456.2472 84.653 455.4112 84.653 454.6622 84.653 454.0862 84.104 453.9132 83.412 452.8172 84.191 451.5212 84.653 450.0772 84.653 448.1172 84.653 446.4162 83.845 445.1772 82.548 443.9372 81.221 443.2172 79.435 443.2172 77.474 443.2172 75.484 443.9372 73.699 445.1772 72.401 446.4162 71.074 448.1172 70.238 450.0772 70.238 451.5212 70.238 452.8172 70.728 453.9132 71.506 454.0862 70.787 454.6622 70.238 455.4112 70.238 456.2472 70.238 456.9402 70.93 456.9402 71.794L456.9402 77.474zM469.8266 80.5297C470.3466 79.8397 471.3546 79.7517 471.9896 80.2997 472.7386 80.9337 474.0366 81.5967 475.1596 81.5677 475.9376 81.5677 476.6596 81.3077 477.1196 81.0207 477.5226 80.6757 477.6386 80.3857 477.6386 80.1557 477.6386 80.0097 477.6096 79.9537 477.5526 79.8677 477.5226 79.7807 477.4096 79.6647 477.1786 79.5207 476.7736 79.2317 475.9086 78.9157 474.8726 78.7147L474.8436 78.7147C473.9486 78.5417 473.0846 78.3097 472.3346 77.9637 471.5566 77.5897 470.8646 77.0707 470.3466 76.2927 470.0296 75.7737 469.8556 75.1377 469.8556 74.4757 469.8556 73.1497 470.6046 72.0257 471.5566 71.3037 472.5656 70.6117 473.7766 70.2377 475.1016 70.2377 477.0926 70.2377 478.5046 71.1897 479.4276 71.8227 480.1186 72.2847 480.3206 73.2367 479.8886 73.9567 479.4276 74.6487 478.4746 74.8507 477.7556 74.3607 476.8326 73.7557 476.0246 73.2947 475.1016 73.2947 474.3816 73.2947 473.7476 73.5237 473.3726 73.8127 472.9986 74.0727 472.9126 74.3317 472.9126 74.4757 472.9126 74.5917 472.9126 74.6207 472.9696 74.7057 472.9986 74.7637 473.0846 74.8807 473.2876 74.9947 473.6616 75.2547 474.4106 75.5127 475.3906 75.6867L475.4196 75.7167 475.4486 75.7167C476.3996 75.8887 477.2936 76.1487 478.1306 76.5517 478.9076 76.8977 479.6856 77.4447 480.1776 78.2527 480.5216 78.8287 480.7236 79.4917 480.7236 80.1557 480.7236 81.5677 479.9456 82.7517 478.9076 83.5007 477.8696 84.2197 476.5736 84.6527 475.1596 84.6527 472.9126 84.6237 471.1816 83.5857 470.0296 82.6637 469.3936 82.1437 469.3076 81.1647 469.8266 80.5297"/>
    <g transform="translate(450 27)">
      <mask id="logo-d" fill="#fff">
        <use xlink:href="#logo-c"/>
      </mask>
      <path fill="#5D64E9" d="M51.574,26.6368 L12.041,26.6368 C5.442,26.6368 0.093,21.2868 0.093,14.6888 L0.093,12.5848 C0.093,5.9858 5.442,0.6368 12.041,0.6368 L51.574,0.6368 C58.174,0.6368 63.522,5.9858 63.522,12.5848 L63.522,14.6888 C63.522,21.2868 58.174,26.6368 51.574,26.6368" mask="url(#logo-d)"/>
    </g>
    <text fill="#F2F5F5" font-family="Quicksand-Bold, Quicksand" font-size="12" font-weight="bold">
      <tspan x="468.156" y="44.976">BE</tspan> <tspan x="482.88" y="44.976" letter-spacing="-.599">T</tspan> <tspan x="489.193" y="44.976">A</tspan>
    </text>
  </g>
</svg>
