<?xml version="1.0" encoding="utf-8"?>
<!-- Generator: Adobe Illustrator 23.0.2, SVG Export Plug-In . SVG Version: 6.00 Build 0)  -->
<svg version="1.1" id="Layer_1" xmlns="http://www.w3.org/2000/svg" xmlns:xlink="http://www.w3.org/1999/xlink" x="0px" y="0px"
	 viewBox="0 0 1922 3000" style="enable-background:new 0 0 1922 3000;" xml:space="preserve">
<style type="text/css">
	.st0{opacity:0.71;}
	.st1{fill:#D1395D;}
	.st2{fill:#EAB93F;}
	.st3{fill:#F2F6F6;}
	.st4{fill:#57C6A4;}
	.st5{fill:#57C6A4;fill-opacity:0;}
	.st6{opacity:0.15;}
	.st7{fill:#FFFFFF;stroke:#FFFFFF;stroke-width:0.5;}
	.st8{fill:#FFFFFF;stroke:#FFFFFF;stroke-width:6;}
	.st9{fill:none;stroke:#FFFFFF;stroke-width:6;}
</style>
<g transform="translate(-1255 -781)" class="st0">
	<path class="st1" d="M29,884.3c128.8,173.7,619.3,720.4,712,771.2c37,20.2,72.4,37.8,110.6,52.7c112.2,43.6,167.6-91.7,271.4,10.3
		c133.4,131,205.9-45,303.3-31.6c179.1,24.7,259.8,200.3,349.5,166.1c58.7-22.4-156-494.1-259.9-545.5
		c-311.3-154.1-35.8-229.4-461.7-316.1C615.1,901.9-158.6,631.2,29,884.3z"/>
	<path class="st1" d="M1473.3,1795.9c-3.7-8.9-11.3-16-20.1-20.1c-12.3-5.8-26.1-6.2-39.6-5.5c-13.8,0.7-27.6,1.5-41.4,2.2
		c-4.4,0.2-8.9,0.5-13.3,0.8c-5.3-1-10.6-1.9-15.9-2.9c-8.5-1.5-16.8-2.7-25.4-1.3c-8.9,1.4-16.5,6.1-21.1,12.8
		c-7.1,4.7-14.2,9.4-21.2,14.3c-8.6,6-16.5,13.1-20.4,22.9c-3.7,9.4-2.8,20.5,3.7,28.5c6.2,7.5,16.3,10.3,25.9,9.5
		c9.8-0.8,18.2-4.6,27.3-7.6c6.1-2,16.5-5.5,21.5,0.3c4.8,5.6,2.9,15.7,3.1,22.4c0.4,9.9,2.9,18.8,9.1,26.9
		c12.1,15.8,33.4,21.7,52.2,14.4c9-3.5,17-10,22-18.1c5.6-9.2,5-20,9.7-29.4c4.1-8,12.3-13.5,19.4-18.8c8.1-6.1,16.2-12.7,21.4-21.4
		C1475.8,1816.7,1477.5,1805.9,1473.3,1795.9z"/>
	<g transform="translate(1871)">
		<path class="st2" d="M17.6,1369.3c7.7-40.4,14.9-76.3,47-135.8c49.2-91.4,133.8-196.1,170.8-241.5c86.5-106.4,143-160.7,131-177.4
			c-10.7-14.9-61.2,20.8-94,15.5c-47.7-7.6-11.2-93.7,60.8-176.4C394.6,583,435,569,501.1,495.8c67.1-74.2,60-97.9,107.2-189.4
			c25.5-49.5,110.6-214.6,204.4-276.8c82.2-54.5,160-22.5,192.7,17.5c15.9,19.5,68.1,98.2-124,449.9
			c-164.2,300.8-260,348.6-325.7,531.5c-54.3,150.9-18.4,199.8-138.1,317.3c-93.4,91.7-241.9,186.3-326.9,210.1
			C-24,1588-4.6,1486,17.6,1369.3z"/>
		<path class="st2" d="M305.4,866.7c1.3-5.5,0.2-10.6-2.3-13.9c-2.5-3.2-6.9-4-10.6-1.8c-0.3,0.2-0.6,0.4-0.9,0.6
			c-0.2,0-0.5,0.1-0.7,0.2l-58.8,15.7c-17.8,4.8-36,10.7-53.6,12.2c-8.5,0.7-16.8,0.2-24.6-2.4c-7.6-2.5-14.8-6.4-22.5-8.6
			c-15.6-4.5-33.1-0.1-47.3,18.2c-13.2,17.1-19.9,40.4-18.1,61.5c1.8,20.8,11,37,24.5,45c13.9,8.2,30.2,8.9,46.9,4
			c17.1-5.1,34-15.8,50.3-27.3c20-14.1,39.9-28.9,59.9-43.4c18-13.1,35.6-27,50.1-47.7C301.2,876.2,304.1,872.1,305.4,866.7z
			 M119.2,1091.2c-0.1-11.1-0.1-22.3-0.4-33.4c-0.3-9.9-0.2-21.7-6.8-29.2c-7.1-8.1-18.8-5.9-28.2-5.9c-10,0-20.3-0.7-30.2,1.7
			c-8.9,2.2-16.8,7.7-23.4,14.6c-6.6,7-11.3,16.6-10.7,26.9c0.6,9.4,5.1,18.3,12,23.6c3.4,2.6,7.2,4.1,11.2,5.4
			c1,0.3,2.1,0.6,3.2,0.8c1.7,1.7,2.8,3.9,2.8,6.3c0,2.7-0.6,5.4-1.6,8c-2.5,3.6-5.4,6.8-8.6,9.5c-3.5,1.7-7.4,2.5-11.1,4
			c-4.9,2-9.6,5.7-12.4,10.7c-2.6,1.9-4.9,4.5-6.4,8.2c-4.9,11.8,2.6,23.9,11.7,29.4c8.9,5.3,19.9,5.4,29.5,1.9
			c10-3.6,18.4-10.9,26.2-18.6c3.1-3.1,6.1-6.4,8.9-9.8c2-1.2,4-2.3,6-3.5c8.1-4.7,17.5-9.2,23.1-17.7
			C120.5,1114.4,119.3,1102.4,119.2,1091.2z"/>
	</g>
	<g transform="translate(1252 3665)">
		<path class="st3" d="M68,453.9c-2.1-0.7-4.2-0.7-6.1-0.2c-1.1-0.1-2.3-0.1-3.4,0.1c-22.6,3.8-41.5,16.7-50.3,33.4
			c-3.7,4.4-6.5,9.2-7.7,14.2c-2.5,10.5,6.4,20.9,20.7,19.4c14.5-1.6,20.7-13.2,26.9-22.3c7-10.1,14-20.2,20.9-30.4
			c0.8-0.8,1.4-1.7,1.8-2.7c0.6-0.8,1.1-1.6,1.6-2.4C74.8,459.7,72,455.2,68,453.9z"/>
	</g>
	<g transform="translate(651 1856)">
		<path class="st4" d="M1085.8,7.6c168.1-34.2,173.5,67.6,89.6,133.7c-30.1,23.7-71.3,42.1-84.9,62.1c-20,29.4,55.7,9,62.5,35.4
			c8.3,32.6-93.4,117.5-198.1,174.3c-62.2,33.7-82.5,34.3-125.9,62.7c-67,44-94.6,92.5-75.5,113.4c18.8,20.6,68.5-1.9,101.6,11.7
			c48.7,20.1,12,97.8-88.4,168.5c-82.2,58-158.8,77.2-224.3,133.7c-28.2,24.2-28.2,32.9-54.1,72.2c-51.3,78-108.7,107.3-102.8,129.1
			c6.7,24.8,69.5-0.4,81.9,20.8c19.3,33-104.2,142.1-201.7,181.5c-110.2,44.5-170.9-6.6-212.7-41.7c-24.7-20.7-63.7-55.4-49-132.6
			c7.4-38.8,26.7-78.9,213.8-316.1c211.2-267.8,263.6-314.2,261.7-377.1c-1.3-43.2-27-50,11.9-96.2
			C572.7,246.4,890.1,47.3,1085.8,7.6z"/>
		<path class="st4" d="M1210.4,211.1c-1.8-2.6-5.2-4.4-6.7-7c-1-1.8,0.2-4.4,0.5-6.3c0.7-3.6,0.9-7.4-0.2-10.9
			c-2.3-7-9-11.2-16.2-12.8c-15.5-3.4-30.5,6.2-29.5,21.8c0.8,13.4,11.4,20.7,23.1,25.4c2.9,5.9,7.7,11,14.9,12
			c7.7,1,15.3-3.3,16.9-10.7C1214.1,218.6,1212.6,214.4,1210.4,211.1z"/>
		<path class="st5" d="M1021.9,525.2c-8-4-17.1-6.1-25.7-8.7c-9.3-2.8-18.5-5.6-27.8-8.4c-18-5.4-36.2-10.2-55-12.5
			c-19-2.3-40.1-2-55.9,9.4c-13.3,9.6-19.6,28.7-10.8,42.9c1.4,2.3,4,4.4,6.9,4.6c0.7,0.2,1.5,0.3,2.3,0.3c10.3-0.2,20.3,0.9,30,3.2
			c1.4,0.4,2.7,0.8,4.1,1c5.3,1.5,10.6,3.3,15.8,5.5c0.8,0.7,1.6,1.4,2.3,2.2c10.7,10.2,16.8,22.2,23.8,34.8
			c7.2,13.1,17.4,24.5,33.8,26.8c17.5,2.5,34.2-6.8,45.5-18.7c11.1-11.8,23-26.8,26.8-42.5C1041.5,550.3,1037,532.9,1021.9,525.2z
			 M1055.8,458c-4.7-10.5-16-18.7-28.1-19.8c-9.3-0.9-18,1.2-26.3,4.6c-0.8-0.1-1.5-0.1-2.3-0.2c-15.4-1.4-35.2-4.5-45.2,9.9
			c-1.9,2.8-2.9,5.9-2.8,9c-0.2,0.5-0.2,1-0.3,1.5l0.2,2.9c0,0.1,0.1,0.2,0.1,0.3c0,0.1,0.2,0.5,0.3,1.1c0.3,1.1,0.8,2.2,1.3,3
			c1.4,2.3,2.3,3.4,4.5,5c1,0.8,2.2,1.3,3.5,1.8c1.8,1.3,3.8,2.2,6.2,2.3c8.1,0.4,16.2,0.7,24.3,1.1c4.3,1.8,8.6,3.7,12.9,5.4
			c13,5.2,27.5,8.3,40.5,1.5C1055.9,481.6,1060.8,469.2,1055.8,458z"/>
	</g>
	<g transform="translate(1225 701)" class="st6">
		<g transform="translate(38 92)">
			<ellipse transform="matrix(0.9138 -0.4062 0.4062 0.9138 81.6697 434.747)" class="st7" cx="1065" cy="25" rx="19" ry="18.4"/>
			<ellipse class="st7" cx="115.7" cy="519" rx="15" ry="14.5"/>
			<ellipse class="st7" cx="310.4" cy="788.2" rx="17.5" ry="16.9"/>
			<ellipse class="st7" cx="300.4" cy="1207.7" rx="28.5" ry="27.6"/>
			<ellipse class="st7" cx="333.4" cy="1406.1" rx="15" ry="14.5"/>
			<ellipse class="st7" cx="447.6" cy="1207.8" rx="28.5" ry="27.6"/>
			<ellipse class="st7" cx="116.2" cy="1330.9" rx="19" ry="18.4"/>
			<ellipse class="st7" cx="78.6" cy="1777.4" rx="15" ry="14.5"/>
			<ellipse class="st7" cx="20.1" cy="1597" rx="20" ry="19.3"/>
			<ellipse class="st7" cx="206.3" cy="713.3" rx="20" ry="19.3"/>
			<ellipse class="st7" cx="51.1" cy="823" rx="15" ry="14.5"/>

				<ellipse transform="matrix(0.9138 -0.4062 0.4062 0.9138 -18.0047 376.3946)" class="st7" cx="877.7" cy="230.6" rx="15" ry="14.5"/>

				<ellipse transform="matrix(0.9138 -0.4062 0.4062 0.9138 13.4508 466.3274)" class="st7" cx="1105.3" cy="201.5" rx="15" ry="14.5"/>

				<ellipse transform="matrix(0.9138 -0.4062 0.4062 0.9138 4.2223 309.5215)" class="st7" cx="731.3" cy="144.8" rx="13" ry="12.6"/>

				<ellipse transform="matrix(0.9138 -0.4062 0.4062 0.9138 -150.1421 423.011)" class="st7" cx="921.4" cy="565.2" rx="28.5" ry="27.6"/>

				<ellipse transform="matrix(0.919 -0.3943 0.3943 0.919 -163.8945 350.3558)" class="st7" cx="770.6" cy="574" rx="28" ry="27.6"/>
			<ellipse class="st7" cx="132.7" cy="1034.4" rx="15" ry="14.5"/>

				<ellipse transform="matrix(0.9138 -0.4062 0.4062 0.9138 95.1509 495.8139)" class="st7" cx="1215.6" cy="23.8" rx="15" ry="14.5"/>
		</g>
		<g>
			<path class="st8" d="M1143.5,293l-184,364"/>
			<path class="st9" d="M1253.5,116L915.6,323 M1253.5,116l-110,177 M1102.5,117l41,176 M1102.5,117l-333,120 M485.5,1300l-114,198
				 M371.5,1498l-217.3-75.1 M371.5,1498L58.1,1689 M338.5,1300l33,198 M118.1,1870.9L58.1,1689 M170.7,1124l-16.5,298.9 M244.8,805
				L89.1,915 M89.1,915L6.5,824.5 M153.7,611L7,547.4 M244.8,805l-91.1-194 M609.6,956.6l-261.3-76.4 M609.6,956.6L244.8,805
				 M1281.5,0l-28,116 M915.5,323L808.3,665 M154.2,1422.9L0,1567.1 M959.5,657l-44-334 M348.4,880.2L170.7,1124 M89.1,915l81.6,209
				"/>
		</g>
	</g>
</g>
</svg>
