<?xml version="1.0" encoding="utf-8"?>
<!-- Generator: Adobe Illustrator 23.1.1, SVG Export Plug-In . SVG Version: 6.00 Build 0)  -->
<svg version="1.1" id="Layer_1" xmlns="http://www.w3.org/2000/svg" xmlns:xlink="http://www.w3.org/1999/xlink" x="0px" y="0px"
	 viewBox="0 0 1922 3000" style="enable-background:new 0 0 1922 3000;" xml:space="preserve">
<style type="text/css">
	.st0{opacity:0.53;}
	.st1{fill:#D1395D;}
	.st2{fill:#EAB93F;}
	.st3{fill:#57C6A4;}
	.st4{display:none;opacity:5.000000e-02;}
	.st5{display:inline;}
	.st6{fill:#FFFFFF;stroke:#FFFFFF;stroke-width:0.5;stroke-miterlimit:4.0001;}
	.st7{fill:#FFFFFF;stroke:#FFFFFF;stroke-width:0.5;}
	.st8{fill:#FFFFFF;stroke:#FFFFFF;stroke-width:6;}
	.st9{fill:none;stroke:#FFFFFF;stroke-width:6;}
</style>
<g transform="translate(-1255 -781)" class="st0">
	<path class="st1" d="M1721.8,1314"/>
	<path class="st1" d="M912.2,867.1c1.7,0.6,3.4,1,5.1,1.5c-3.5-1.6-6.9-3.2-10.4-4.7c-0.9-0.4-1.9-0.7-2.8-1.1
		C906.7,864.3,909.4,865.7,912.2,867.1z"/>
	<path class="st1" d="M1746.8,1358.7c-2.6-9.9-6.8-19.3-12.6-27.7l-22.4-29.6c-16.2-19.8-33.4-38.7-50.6-57.6
		c-15.5-17.1-31-33.9-47.5-50.1c-34.4-33.9-70.6-68.7-88.7-114.4c-3.8-9.6,1.8-21.5,9.3-27.3c7.9-6.1,20.1-7.6,28.9-2
		c19.6,12.6,37.3,27.8,58.4,38.2c1.1,0.5,2.3,1.1,3.4,1.6c0.1,0.1,0.3,0.1,0.4,0.2c2.1,0.8,4.2,1.5,6.4,2.2c1.9,0.6,4,0.9,5.9,1.4
		c0.3,0.1,0.7,0.1,1,0.1c0.5,0,1,0,1.5,0c0.6,0,1.1,0,1.7,0c0.4,0,0.7-0.1,1.1-0.2c0.1,0,0.2,0,0.3-0.1c0.4-0.1,0.8-0.3,1.2-0.5l0,0
		c0.5-0.2,0.9-0.6,1.3-0.9c0.5-0.5,0.9-0.9,1.2-1.1c0.4-0.5,0.8-0.9,1.2-1.4c0.2-0.2,0.3-0.5,0.5-0.7c0.5-0.9,1-1.7,1.5-2.6
		c0.4-0.8,0.6-1.7,0.6-2.6v-0.1c0-2.6-0.3-5.1-0.5-7.7c0-0.4-0.1-0.7-0.1-1.1c-0.1-1-0.3-2-0.5-3c-0.5-2.9-1-5.8-1.5-8.7
		c-0.4-2.5-0.9-5-1.3-7.5c-0.1-0.4-0.2-0.8-0.3-1.2c-30.4-74.4-60.5-131.5-83.8-149.3c-257.5-196.3-29.6-292.2-381.8-402.6
		c-34.6-10.9-66.5-18.3-95.8-22.7c-10.7-1.6-21.3-5.2-31.6-10c-3.7-1.7-7.7-2.7-11.9-2.9c-25.1-1-50.2-2.1-75.2-6.4
		c-20.1-4.3-40-11.1-59.1-21.8c-0.2-0.1-0.3-0.2-0.5-0.3c-10.7-7.2-20.9-15.8-30.6-26c-0.1-0.1-0.2-0.3-0.3-0.4
		c-8.1-9.9-15.5-20.9-22.2-32.9c-0.1-0.1-0.2-0.3-0.2-0.4c-4.5-9.7-8.5-19.9-11.9-30.6c0-0.2-0.1-0.3-0.1-0.5
		c-2-8.5-3.5-17.1-4.7-25.9c0-0.2,0-0.3,0-0.5c-1.6-34,3.1-68.9-5.4-101.6c-4.9-18.6-8.8-29.5-17.4-44.8c-5-8.9-11.5-15.8-17.7-22.2
		c-9.7-10-21.6-16.4-32.9-20.5c-11.8-4.3-24-6.2-36.1-8c-12.5-1.9-25-3.7-37.5-5.5c-25-3.7-50.1-7.3-75.1-11
		c-19-2.8-38-5.2-56.9-8.3c-1.2-0.2-2.3-0.7-3.1-1.6c-2.2-2.2-4.3-4.5-6.4-6.8c-6.9-8.5-13.5-17.4-20.4-25.9
		c-8.6-10.6-17.6-20.2-26.4-30.3c-4.7-5.9-9.1-12.3-13.1-19.5c-0.1-0.2-0.2-0.3-0.3-0.5C485.3,8.3,483,1.9,481-4.9
		c0-0.1-0.1-0.3-0.1-0.5c-0.8-3.4-1.5-6.9-2.1-10.5c-1.6-9.7-5.9-18.2-11.3-23.7c-0.5-0.5-0.9-1.1-1.2-1.7c-0.1-0.3-0.3-0.6-0.4-0.9
		c-4.6-9.9-9.6-20.4-15.7-28.6c-15.7-21-33.5-32.6-54.2-34.5c-0.6-0.1-1.1,0-1.7,0.1l-9.6,2c-0.3,0.1-0.6,0.1-0.9,0.3
		c-5.5,2.1-10.4,6.1-14.5,12c-7.4,9-12.4,20.2-15,34.4c-4.9,26.8-5.2,53.8-2,79.8c0,0.3,0,0.6,0,0.8c-0.6,17-0.8,34.1-0.8,51.2
		c0,44.2,2,88.5,5.7,132.3c2,24,4.6,48,7.7,71.7c0.4,3.3,1.3,6.5,2.5,9.3c0.2,0.4,0.3,0.9,0.4,1.3c3.2,21.7,8.9,42.6,16.5,60.8
		c3.9,9.3,8.2,18,12.8,26.1c21.7,4.3,42.6,13.6,62.7,24c22.9,11.9,45.9,23.6,67.1,38.5c12.5,8.8,24.8,18.2,36,28.7
		c11.8,11,22,23.3,31.7,36.2c34.2,45.4,50.5,101.2,84.2,146.9c18.2,22.5,38.8,42.6,60,62.1c20.1,9.4,39.8,19.7,60.1,28.5
		c33.6,13.5,68.6,23.6,102.7,35.9c34.3,12.3,68.8,26.3,99.1,46.7c34.2,23,62.9,52.4,83.3,88.3c19.7,34.8,32.3,73.5,42.6,112
		c10.3,38.5,21.1,76.6,36.1,113.5c8.1,19,17.1,37.8,27.7,55.5c10.4,17.3,21.9,33.9,34.1,50c19.8,25,41.3,48.7,63.9,71.2
		c21.6,21.5,44.1,42.5,68.1,61.3c21.7,16.1,45,30.2,69.8,40.9c17,6.8,35.1,10.1,53,13.4c8.6,0.3,17.1,0.9,25.6,1.8
		c24.4,3.8,48.2,10.3,71.1,19.3c16.2,7.2,31.8,15.7,46.5,25.5c63.7,70.1,107.7,149.9,154.8,122.3
		C1797.1,1588.2,1779.9,1483.7,1746.8,1358.7z"/>
	<path class="st1" d="M1608.2,1537.9c-2.4-11.9-10.1-22.6-20-29.8c-0.7-0.5-1.5-1-2.2-1.5c-2.6-1.8-5.4-3.2-8.3-4.5
		c-4.6-1.9-9.2-3.7-13.8-5.4c-1.9-0.6-3.8-1.2-5.6-1.7c-0.3-0.1-0.7-0.2-1-0.2c-0.1,0-0.2-0.1-0.3-0.1c-15.3-4.4-30.9-7.4-46.6-10.6
		c-19.6-4-39.2-8.2-58.8-12.2c-21.7-4.4-43.4-7.4-64.3-14.8c-18.2-6.4-34.7-17.2-50.7-27.9c-7.8-5.2-15.5-10.6-22.8-16.4
		c-0.6-0.7-1.2-1.3-1.9-2c-14.3-13.4-30.3-25.3-47.5-34.9c-12-6.7-28.7-4.4-37.5,6.3c-0.8,1-1.6,2-2.4,3.1c-4,6-4.7,11.4-5.1,18.6
		c-1,17.2,7.2,35.2,17.8,48.3c10.5,13,23.3,23.1,35.1,34.7c1.1,1.1,2.2,2.2,3.3,3.4l0,0c0.8,1,1.5,2,2.3,3c2,3.8,3.9,7.5,5.9,11.3
		c0,0,0,0,0,0.1c1.4,3.7,2.6,7.5,3.8,11.3c5.6,16.8,13.7,34.4,28.5,45c15.1,10.8,33.4,14.2,49.7,9.1c3.5-1.1,7-1.9,10.6-2.3
		c6.3-0.7,12.6-1.8,19-2.6c8-1,21.8-2.8,26.6,5.6c4.6,8.1-0.2,20.2-1.6,28.5c-1.9,12.4-0.9,24,4.8,35.5c11.2,22.5,36.1,35,61.2,30.5
		c12-2.2,23.5-8.3,31.6-17.1c9.2-10,11-23.6,19.1-34.1c7-8.9,18.5-13.8,28.6-18.6c11.5-5.6,23.1-11.8,31.7-21.3
		C1606.3,1564.2,1611,1551.3,1608.2,1537.9z"/>
	<g transform="translate(1871)">
		<path class="st2" d="M17.6,1369.3c7.7-40.4,14.9-76.3,47-135.8c49.2-91.4,133.8-196.1,170.8-241.5c86.5-106.4,143-160.7,131-177.4
			c-10.7-14.9-61.2,20.8-94,15.5c-47.7-7.6-11.2-93.7,60.8-176.4C394.6,583,435,569,501.1,495.8c67.1-74.2,60-97.9,107.2-189.4
			c25.5-49.5,110.6-214.6,204.4-276.8c82.2-54.5,160-22.5,192.7,17.5c15.9,19.5,68.1,98.2-124,449.9
			c-164.2,300.8-260,348.6-325.7,531.5c-54.3,150.9-18.4,199.8-138.1,317.3c-93.4,91.7-241.9,186.3-326.9,210.1
			C-24,1588-4.6,1486,17.6,1369.3z"/>
		<path class="st2" d="M305.4,866.7c1.3-5.5,0.2-10.6-2.3-13.9c-2.5-3.2-6.9-4-10.6-1.8c-0.3,0.2-0.6,0.4-0.9,0.6
			c-0.2,0-0.5,0.1-0.7,0.2l-58.8,15.7c-17.8,4.8-36,10.7-53.6,12.2c-8.5,0.7-16.8,0.2-24.6-2.4c-7.6-2.5-14.8-6.4-22.5-8.6
			c-15.6-4.5-33.1-0.1-47.3,18.2C70.9,904,64.2,927.3,66,948.4c1.8,20.8,11,37,24.5,45c13.9,8.2,30.2,8.9,46.9,4
			c17.1-5.1,34-15.8,50.3-27.3c20-14.1,39.9-28.9,59.9-43.4c18-13.1,35.6-27,50.1-47.7C301.2,876.2,304.1,872.1,305.4,866.7z
			 M119.2,1091.2c-0.1-11.1-0.1-22.3-0.4-33.4c-0.3-9.9-0.2-21.7-6.8-29.2c-7.1-8.1-18.8-5.9-28.2-5.9c-10,0-20.3-0.7-30.2,1.7
			c-8.9,2.2-16.8,7.7-23.4,14.6c-6.6,7-11.3,16.6-10.7,26.9c0.6,9.4,5.1,18.3,12,23.6c3.4,2.6,7.2,4.1,11.2,5.4
			c1,0.3,2.1,0.6,3.2,0.8c1.7,1.7,2.8,3.9,2.8,6.3c0,2.7-0.6,5.4-1.6,8c-2.5,3.6-5.4,6.8-8.6,9.5c-3.5,1.7-7.4,2.5-11.1,4
			c-4.9,2-9.6,5.7-12.4,10.7c-2.6,1.9-4.9,4.5-6.4,8.2c-4.9,11.8,2.6,23.9,11.7,29.4c8.9,5.3,19.9,5.4,29.5,1.9
			c10-3.6,18.4-10.9,26.2-18.6c3.1-3.1,6.1-6.4,8.9-9.8c2-1.2,4-2.3,6-3.5c8.1-4.7,17.5-9.2,23.1-17.7
			C120.5,1114.4,119.3,1102.4,119.2,1091.2z"/>
	</g>
	<g transform="translate(651 1856)">
		<path class="st3" d="M993.6-115c217.5-30.3,224.4,59.9,115.9,118.4c-38.9,21-92.2,37.3-109.8,55c-25.9,26,72.1,8,80.9,31.4
			c10.7,28.9-120.8,104.1-256.3,154.4c-80.5,29.9-106.7,30.4-162.9,55.5c-86.7,39-122.4,81.9-97.7,100.5
			c24.3,18.2,88.6-1.7,131.4,10.4c63,17.8,15.5,86.6-114.4,149.3c-106.3,51.4-205.4,68.4-290.2,118.4c-36.5,21.4-36.5,29.1-70,64
			c-66.4,69.1-140.6,95.1-133,114.4c8.7,22,89.9-0.4,105.9,18.4c25,29.2-134.8,125.9-260.9,160.8c-142.6,39.4-221.1-5.8-275.2-36.9
			c-32-18.3-82.4-49.1-63.4-117.5c9.6-34.4,34.5-69.9,276.6-280c273.2-237.2,341-278.3,338.5-334.1c-1.7-38.3-34.9-44.3,15.4-85.2
			C329.9,96.5,740.5-79.8,993.6-115z"/>
		<path class="st3" d="M1173.4,155.5c-2.9-2.3-8.3-3.9-10.7-6.2c-1.6-1.6,0.3-3.9,0.8-5.6c1.1-3.2,1.4-6.6-0.3-9.7
			c-3.7-6.2-14.4-9.9-25.9-11.3c-24.8-3-48.8,5.5-47.2,19.3c1.3,11.9,18.2,18.3,36.9,22.5c4.6,5.2,12.3,9.7,23.8,10.6
			c12.3,0.9,24.5-2.9,27-9.5C1179.3,162.1,1176.9,158.4,1173.4,155.5z"/>
		<path class="st3" d="M976,350.1c-12.8-3.5-27.3-5.4-41.1-7.7c-14.9-2.5-29.6-5-44.5-7.4c-28.8-4.8-57.9-9-88-11.1
			c-30.4-2-64.1-1.8-89.4,8.3c-21.3,8.5-31.3,25.4-17.3,38c2.2,2,6.4,3.9,11,4.1c1.1,0.2,2.4,0.3,3.7,0.3c16.5-0.2,32.5,0.8,48,2.8
			c2.2,0.4,4.3,0.7,6.6,0.9c8.5,1.3,17,2.9,25.3,4.9c1.3,0.6,2.6,1.2,3.7,1.9c17.1,9,26.9,19.7,38.1,30.8
			c11.5,11.6,27.8,21.7,54.1,23.7c28,2.2,54.7-6,72.8-16.6c17.8-10.5,36.8-23.7,42.9-37.6C1007.4,372.4,1000.2,357,976,350.1z
			 M1030.2,290.6c-7.5-9.3-25.6-16.6-44.9-17.5c-14.9-0.8-28.8,1.1-42.1,4.1c-1.3-0.1-2.4-0.1-3.7-0.2c-24.6-1.2-56.3-4-72.3,8.8
			c-3,2.5-4.6,5.2-4.5,8c-0.3,0.4-0.3,0.9-0.5,1.3l0.3,2.6c0,0.1,0.2,0.2,0.2,0.3c0,0.1,0.3,0.4,0.5,1c0.5,1,1.3,1.9,2.1,2.7
			c2.2,2,3.7,3,7.2,4.4c1.6,0.7,3.5,1.2,5.6,1.6c2.9,1.2,6.1,1.9,9.9,2c13,0.4,25.9,0.6,38.9,1c6.9,1.6,13.8,3.3,20.6,4.8
			c20.8,4.6,44,7.4,64.8,1.3C1030.4,311.5,1038.2,300.5,1030.2,290.6z"/>
	</g>
	<g transform="translate(1225 701)" class="st4">
		<g transform="translate(38 92)" class="st5">
			<ellipse transform="matrix(0.9138 -0.4062 0.4062 0.9138 81.6632 434.7606)" class="st6" cx="1065" cy="25" rx="19" ry="18.4"/>
			
				<ellipse transform="matrix(0.9138 -0.4062 0.4062 0.9138 166.9456 433.7658)" class="st6" cx="1105.3" cy="-176.4" rx="19" ry="18.4"/>
			
				<ellipse transform="matrix(0.9138 -0.4062 0.4062 0.9138 201.8056 523.9586)" class="st6" cx="1335.2" cy="-213.4" rx="19" ry="18.4"/>
			<ellipse class="st7" cx="-293.3" cy="415.9" rx="15" ry="14.5"/>
			<ellipse class="st7" cx="-278.3" cy="679.5" rx="15" ry="14.5"/>
			<ellipse class="st7" cx="-798.3" cy="333.8" rx="15" ry="14.5"/>
			<ellipse class="st7" cx="-611.2" cy="537.5" rx="15" ry="14.5"/>
			<ellipse class="st7" cx="-172.2" cy="1702.4" rx="15" ry="14.5"/>
			<ellipse class="st7" cx="-233.4" cy="2013.9" rx="15" ry="14.5"/>
			<ellipse class="st7" cx="-409" cy="2085.7" rx="15" ry="14.5"/>
			<ellipse class="st7" cx="-424" cy="1984.9" rx="15" ry="14.5"/>
			<ellipse class="st7" cx="-248.4" cy="2232" rx="15" ry="14.5"/>
			<ellipse class="st7" cx="-476.4" cy="2289.1" rx="15" ry="14.5"/>
			<ellipse class="st7" cx="-142.2" cy="1856.9" rx="32.5" ry="31.4"/>
			<ellipse class="st7" cx="-520" cy="259.7" rx="27.3" ry="26.3"/>
			<ellipse class="st7" cx="-370" cy="444.9" rx="28.7" ry="27.8"/>
			<ellipse class="st7" cx="-674" cy="377.3" rx="15" ry="14.5"/>
			<ellipse class="st7" cx="-505" cy="768" rx="25.8" ry="24.9"/>
			<ellipse class="st7" cx="-195.4" cy="274.2" rx="15" ry="14.5"/>
			<ellipse class="st7" cx="-53" cy="573" rx="24.4" ry="23.6"/>
			<ellipse class="st7" cx="116.2" cy="519" rx="15" ry="14.5"/>
			<ellipse class="st7" cx="-10.9" cy="306.3" rx="15" ry="14.5"/>
			<ellipse class="st7" cx="-1162.4" cy="38.4" rx="15" ry="14.5"/>
			<ellipse class="st7" cx="-1132.4" cy="144.8" rx="15" ry="14.5"/>
			<ellipse class="st7" cx="-914.1" cy="112.5" rx="15" ry="14.5"/>
			<ellipse class="st7" cx="-929.1" cy="319.3" rx="15" ry="14.5"/>
			<ellipse class="st7" cx="334.2" cy="734.6" rx="17.5" ry="16.9"/>
			<ellipse class="st7" cx="456.7" cy="1011.6" rx="17.5" ry="16.9"/>
			<ellipse class="st7" cx="300.4" cy="1207.7" rx="28.5" ry="27.6"/>
			<ellipse class="st7" cx="333.4" cy="1406.1" rx="15" ry="14.5"/>
			<ellipse class="st7" cx="447.6" cy="1207.8" rx="28.5" ry="27.6"/>
			<ellipse class="st7" cx="116.2" cy="1330.9" rx="19" ry="18.4"/>
			<ellipse class="st7" cx="78.6" cy="1777.4" rx="15" ry="14.5"/>
			<ellipse class="st7" cx="20.1" cy="1597" rx="20" ry="19.3"/>
			<ellipse class="st7" cx="206.3" cy="713.3" rx="20" ry="19.3"/>
			<ellipse class="st7" cx="51.1" cy="823" rx="31.7" ry="30.6"/>
			
				<ellipse transform="matrix(0.9138 -0.4062 0.4062 0.9138 -17.9979 376.4037)" class="st6" cx="877.7" cy="230.6" rx="15" ry="14.5"/>
			
				<ellipse transform="matrix(0.9138 -0.4062 0.4062 0.9138 13.4436 466.3484)" class="st6" cx="1105.3" cy="201.5" rx="15" ry="14.5"/>
			
				<ellipse transform="matrix(0.9138 -0.4062 0.4062 0.9138 4.2334 309.5399)" class="st6" cx="731.3" cy="144.8" rx="13" ry="12.6"/>
			
				<ellipse transform="matrix(0.9138 -0.4062 0.4062 0.9138 -150.1476 422.9998)" class="st6" cx="921.4" cy="565.2" rx="28.5" ry="27.6"/>
			
				<ellipse transform="matrix(0.919 -0.3943 0.3943 0.919 -163.8973 350.3507)" class="st6" cx="770.6" cy="574" rx="28" ry="27.6"/>
			<ellipse class="st7" cx="132.7" cy="1034.4" rx="15" ry="14.5"/>
			
				<ellipse transform="matrix(0.9138 -0.4062 0.4062 0.9138 95.1332 495.8321)" class="st6" cx="1215.6" cy="23.8" rx="15" ry="14.5"/>
		</g>
		<g class="st5">
			<path class="st8" d="M1143.5,293l-184,364"/>
			<path class="st9" d="M1253.5,116L915.6,323 M1253.5,116l-110,177 M1102.5,117l41,176 M1102.5,117l-333,120 M485.5,1300l-114,198
				 M371.5,1498l-217.3-75.1 M371.5,1498L58.1,1689 M338.5,1300l33,198 M118.1,1870.9l-60-181.9 M-386,2076.9l251.8-282.4
				 M-386,2076.9l281.8-128 M-195.4,2105.9l91.2-157 M-104.2,1948.9L58.1,1689 M-371,2177.7l266.8-228.8 M-438.4,2381.1l67.5-203.4
				 M-210.4,2324L-371,2177.7 M170.7,1124l-16.5,298.9 M244.8,805L89.1,915 M371.5,824.6L92,914.8 M244.8,805L-15,666 M89.1,915
				l-329.4-143.5 M153.7,611L30,398.3 M153.7,611l-409-103.1 M-332,536.9l-241.2,92.5 M-332,536.9l-304-67.6 M-636,469.3
				l-124.3-43.5 M-15,666l-240.3-158.1 M-255.3,507.9l-76.7,29 M-255.3,507.9L-482,351.7 M92,914.8L-467,860 M244.8,805l-91.1-194
				 M494.7,1103.6l-123.2-279 M494.7,1103.6L244.8,805 M1281.5,0l-28,116 M915.5,323L808.3,665 M808.3,665L371.5,824.6
				 M154.2,1422.9l-288.4,371.5 M959.5,657l-44-334 M371.5,824.6L170.7,1124 M89.1,915l81.6,209 M-760.3,425.8l-130.7-13
				 M-760.3,425.8L-876,204.5 M-891.1,412.8l15-208.3 M-1094.4,236.8l-30-106.4 M808.3,665l-322.8,635 M959.5,657l-464.8,446.6"/>
		</g>
	</g>
</g>
</svg>
