<svg enable-background="new 0 0 1922 3000" viewBox="0 0 1922 3000" xmlns="http://www.w3.org/2000/svg"><g opacity=".53" transform="translate(-1255 -781)"><g fill="#d1395d"><path d="m912.2 867.1c1.7.6 3.4 1 5.1 1.5-3.5-1.6-6.9-3.2-10.4-4.7-.9-.4-1.9-.7-2.8-1.1 2.6 1.5 5.3 2.9 8.1 4.3z"/><path d="m1746.8 1358.7c-2.6-9.9-6.8-19.3-12.6-27.7l-22.4-29.6c-16.2-19.8-33.4-38.7-50.6-57.6-15.5-17.1-31-33.9-47.5-50.1-34.4-33.9-70.6-68.7-88.7-114.4-3.8-9.6 1.8-21.5 9.3-27.3 7.9-6.1 20.1-7.6 28.9-2 19.6 12.6 37.3 27.8 58.4 38.2 1.1.5 2.3 1.1 3.4 1.6.1.1.3.1.4.2 2.1.8 4.2 1.5 6.4 2.2 1.9.6 4 .9 5.9 1.4.3.1.7.1 1 .1h1.5 1.7c.4 0 .7-.1 1.1-.2.1 0 .2 0 .3-.1.4-.1.8-.3 1.2-.5.5-.2.9-.6 1.3-.9.5-.5.9-.9 1.2-1.1.4-.5.8-.9 1.2-1.4.2-.2.3-.5.5-.7.5-.9 1-1.7 1.5-2.6.4-.8.6-1.7.6-2.6v-.1c0-2.6-.3-5.1-.5-7.7 0-.4-.1-.7-.1-1.1-.1-1-.3-2-.5-3-.5-2.9-1-5.8-1.5-8.7-.4-2.5-.9-5-1.3-7.5-.1-.4-.2-.8-.3-1.2-30.4-74.4-60.5-131.5-83.8-149.3-257.5-196.3-29.6-292.2-381.8-402.6-34.6-10.9-66.5-18.3-95.8-22.7-10.7-1.6-21.3-5.2-31.6-10-3.7-1.7-7.7-2.7-11.9-2.9-25.1-1-50.2-2.1-75.2-6.4-20.1-4.3-40-11.1-59.1-21.8-.2-.1-.3-.2-.5-.3-10.7-7.2-20.9-15.8-30.6-26-.1-.1-.2-.3-.3-.4-8.1-9.9-15.5-20.9-22.2-32.9-.1-.1-.2-.3-.2-.4-4.5-9.7-8.5-19.9-11.9-30.6 0-.2-.1-.3-.1-.5-2-8.5-3.5-17.1-4.7-25.9 0-.2 0-.3 0-.5-1.6-34 3.1-68.9-5.4-101.6-4.9-18.6-8.8-29.5-17.4-44.8-5-8.9-11.5-15.8-17.7-22.2-9.7-10-21.6-16.4-32.9-20.5-11.8-4.3-24-6.2-36.1-8-12.5-1.9-25-3.7-37.5-5.5-25-3.7-50.1-7.3-75.1-11-19-2.8-38-5.2-56.9-8.3-1.2-.2-2.3-.7-3.1-1.6-2.2-2.2-4.3-4.5-6.4-6.8-6.9-8.5-13.5-17.4-20.4-25.9-8.6-10.6-17.6-20.2-26.4-30.3-4.7-5.9-9.1-12.3-13.1-19.5-.1-.2-.2-.3-.3-.5-2.9-6.3-5.2-12.7-7.2-19.5 0-.1-.1-.3-.1-.5-.8-3.4-1.5-6.9-2.1-10.5-1.6-9.7-5.9-18.2-11.3-23.7-.5-.5-.9-1.1-1.2-1.7-.1-.3-.3-.6-.4-.9-4.6-9.9-9.6-20.4-15.7-28.6-15.7-21-33.5-32.6-54.2-34.5-.6-.1-1.1 0-1.7.1l-9.6 2c-.3.1-.6.1-.9.3-5.5 2.1-10.4 6.1-14.5 12-7.4 9-12.4 20.2-15 34.4-4.9 26.8-5.2 53.8-2 79.8v.8c-.6 17-.8 34.1-.8 51.2 0 44.2 2 88.5 5.7 132.3 2 24 4.6 48 7.7 71.7.4 3.3 1.3 6.5 2.5 9.3.2.4.3.9.4 1.3 3.2 21.7 8.9 42.6 16.5 60.8 3.9 9.3 8.2 18 12.8 26.1 21.7 4.3 42.6 13.6 62.7 24 22.9 11.9 45.9 23.6 67.1 38.5 12.5 8.8 24.8 18.2 36 28.7 11.8 11 22 23.3 31.7 36.2 34.2 45.4 50.5 101.2 84.2 146.9 18.2 22.5 38.8 42.6 60 62.1 20.1 9.4 39.8 19.7 60.1 28.5 33.6 13.5 68.6 23.6 102.7 35.9 34.3 12.3 68.8 26.3 99.1 46.7 34.2 23 62.9 52.4 83.3 88.3 19.7 34.8 32.3 73.5 42.6 112s21.1 76.6 36.1 113.5c8.1 19 17.1 37.8 27.7 55.5 10.4 17.3 21.9 33.9 34.1 50 19.8 25 41.3 48.7 63.9 71.2 21.6 21.5 44.1 42.5 68.1 61.3 21.7 16.1 45 30.2 69.8 40.9 17 6.8 35.1 10.1 53 13.4 8.6.3 17.1.9 25.6 1.8 24.4 3.8 48.2 10.3 71.1 19.3 16.2 7.2 31.8 15.7 46.5 25.5 63.7 70.1 107.7 149.9 154.8 122.3 19.8-11.1 2.6-115.6-30.5-240.6z"/><path d="m1608.2 1537.9c-2.4-11.9-10.1-22.6-20-29.8-.7-.5-1.5-1-2.2-1.5-2.6-1.8-5.4-3.2-8.3-4.5-4.6-1.9-9.2-3.7-13.8-5.4-1.9-.6-3.8-1.2-5.6-1.7-.3-.1-.7-.2-1-.2-.1 0-.2-.1-.3-.1-15.3-4.4-30.9-7.4-46.6-10.6-19.6-4-39.2-8.2-58.8-12.2-21.7-4.4-43.4-7.4-64.3-14.8-18.2-6.4-34.7-17.2-50.7-27.9-7.8-5.2-15.5-10.6-22.8-16.4-.6-.7-1.2-1.3-1.9-2-14.3-13.4-30.3-25.3-47.5-34.9-12-6.7-28.7-4.4-37.5 6.3-.8 1-1.6 2-2.4 3.1-4 6-4.7 11.4-5.1 18.6-1 17.2 7.2 35.2 17.8 48.3 10.5 13 23.3 23.1 35.1 34.7 1.1 1.1 2.2 2.2 3.3 3.4.8 1 1.5 2 2.3 3 2 3.8 3.9 7.5 5.9 11.3v.1c1.4 3.7 2.6 7.5 3.8 11.3 5.6 16.8 13.7 34.4 28.5 45 15.1 10.8 33.4 14.2 49.7 9.1 3.5-1.1 7-1.9 10.6-2.3 6.3-.7 12.6-1.8 19-2.6 8-1 21.8-2.8 26.6 5.6 4.6 8.1-.2 20.2-1.6 28.5-1.9 12.4-.9 24 4.8 35.5 11.2 22.5 36.1 35 61.2 30.5 12-2.2 23.5-8.3 31.6-17.1 9.2-10 11-23.6 19.1-34.1 7-8.9 18.5-13.8 28.6-18.6 11.5-5.6 23.1-11.8 31.7-21.3 8.9-10 13.6-22.9 10.8-36.3z"/></g><g fill="#eab93f" transform="translate(1871)"><path d="m17.6 1369.3c7.7-40.4 14.9-76.3 47-135.8 49.2-91.4 133.8-196.1 170.8-241.5 86.5-106.4 143-160.7 131-177.4-10.7-14.9-61.2 20.8-94 15.5-47.7-7.6-11.2-93.7 60.8-176.4 61.4-70.7 101.8-84.7 167.9-157.9 67.1-74.2 60-97.9 107.2-189.4 25.5-49.5 110.6-214.6 204.4-276.8 82.2-54.5 160-22.5 192.7 17.5 15.9 19.5 68.1 98.2-124 449.9-164.2 300.8-260 348.6-325.7 531.5-54.3 150.9-18.4 199.8-138.1 317.3-93.4 91.7-241.9 186.3-326.9 210.1-114.7 32.1-95.3-69.9-73.1-186.6z"/><path d="m305.4 866.7c1.3-5.5.2-10.6-2.3-13.9-2.5-3.2-6.9-4-10.6-1.8-.3.2-.6.4-.9.6-.2 0-.5.1-.7.2l-58.8 15.7c-17.8 4.8-36 10.7-53.6 12.2-8.5.7-16.8.2-24.6-2.4-7.6-2.5-14.8-6.4-22.5-8.6-15.6-4.5-33.1-.1-47.3 18.2-13.2 17.1-19.9 40.4-18.1 61.5 1.8 20.8 11 37 24.5 45 13.9 8.2 30.2 8.9 46.9 4 17.1-5.1 34-15.8 50.3-27.3 20-14.1 39.9-28.9 59.9-43.4 18-13.1 35.6-27 50.1-47.7 3.5-2.8 6.4-6.9 7.7-12.3zm-186.2 224.5c-.1-11.1-.1-22.3-.4-33.4-.3-9.9-.2-21.7-6.8-29.2-7.1-8.1-18.8-5.9-28.2-5.9-10 0-20.3-.7-30.2 1.7-8.9 2.2-16.8 7.7-23.4 14.6-6.6 7-11.3 16.6-10.7 26.9.6 9.4 5.1 18.3 12 23.6 3.4 2.6 7.2 4.1 11.2 5.4 1 .3 2.1.6 3.2.8 1.7 1.7 2.8 3.9 2.8 6.3 0 2.7-.6 5.4-1.6 8-2.5 3.6-5.4 6.8-8.6 9.5-3.5 1.7-7.4 2.5-11.1 4-4.9 2-9.6 5.7-12.4 10.7-2.6 1.9-4.9 4.5-6.4 8.2-4.9 11.8 2.6 23.9 11.7 29.4 8.9 5.3 19.9 5.4 29.5 1.9 10-3.6 18.4-10.9 26.2-18.6 3.1-3.1 6.1-6.4 8.9-9.8 2-1.2 4-2.3 6-3.5 8.1-4.7 17.5-9.2 23.1-17.7 6.5-9.7 5.3-21.7 5.2-32.9z"/></g><g fill="#57c6a4" transform="translate(651 1856)"><path d="m993.6-115c217.5-30.3 224.4 59.9 115.9 118.4-38.9 21-92.2 37.3-109.8 55-25.9 26 72.1 8 80.9 31.4 10.7 28.9-120.8 104.1-256.3 154.4-80.5 29.9-106.7 30.4-162.9 55.5-86.7 39-122.4 81.9-97.7 100.5 24.3 18.2 88.6-1.7 131.4 10.4 63 17.8 15.5 86.6-114.4 149.3-106.3 51.4-205.4 68.4-290.2 118.4-36.5 21.4-36.5 29.1-70 64-66.4 69.1-140.6 95.1-133 114.4 8.7 22 89.9-.4 105.9 18.4 25 29.2-134.8 125.9-260.9 160.8-142.6 39.4-221.1-5.8-275.2-36.9-32-18.3-82.4-49.1-63.4-117.5 9.6-34.4 34.5-69.9 276.6-280 273.2-237.2 341-278.3 338.5-334.1-1.7-38.3-34.9-44.3 15.4-85.2 105.5-85.7 516.1-262 769.2-297.2z"/><path d="m1173.4 155.5c-2.9-2.3-8.3-3.9-10.7-6.2-1.6-1.6.3-3.9.8-5.6 1.1-3.2 1.4-6.6-.3-9.7-3.7-6.2-14.4-9.9-25.9-11.3-24.8-3-48.8 5.5-47.2 19.3 1.3 11.9 18.2 18.3 36.9 22.5 4.6 5.2 12.3 9.7 23.8 10.6 12.3.9 24.5-2.9 27-9.5 1.5-3.5-.9-7.2-4.4-10.1z"/><path d="m976 350.1c-12.8-3.5-27.3-5.4-41.1-7.7-14.9-2.5-29.6-5-44.5-7.4-28.8-4.8-57.9-9-88-11.1-30.4-2-64.1-1.8-89.4 8.3-21.3 8.5-31.3 25.4-17.3 38 2.2 2 6.4 3.9 11 4.1 1.1.2 2.4.3 3.7.3 16.5-.2 32.5.8 48 2.8 2.2.4 4.3.7 6.6.9 8.5 1.3 17 2.9 25.3 4.9 1.3.6 2.6 1.2 3.7 1.9 17.1 9 26.9 19.7 38.1 30.8 11.5 11.6 27.8 21.7 54.1 23.7 28 2.2 54.7-6 72.8-16.6 17.8-10.5 36.8-23.7 42.9-37.6 5.5-13-1.7-28.4-25.9-35.3zm54.2-59.5c-7.5-9.3-25.6-16.6-44.9-17.5-14.9-.8-28.8 1.1-42.1 4.1-1.3-.1-2.4-.1-3.7-.2-24.6-1.2-56.3-4-72.3 8.8-3 2.5-4.6 5.2-4.5 8-.3.4-.3.9-.5 1.3l.3 2.6c0 .1.2.2.2.3s.3.4.5 1c.5 1 1.3 1.9 2.1 2.7 2.2 2 3.7 3 7.2 4.4 1.6.7 3.5 1.2 5.6 1.6 2.9 1.2 6.1 1.9 9.9 2 13 .4 25.9.6 38.9 1 6.9 1.6 13.8 3.3 20.6 4.8 20.8 4.6 44 7.4 64.8 1.3 18.1-5.3 25.9-16.3 17.9-26.2z"/></g></g></svg>