<svg enable-background="new 0 0 2229.2 946.6" viewBox="0 0 2229.2 946.6" xmlns="http://www.w3.org/2000/svg"><g fill="#5e65ea" opacity=".12"><path d="m1960.2 240.8c-104-109.4-888.9-4.7-970.1 27.4-32.3 12.8-62.1 25.7-91.5 41-86.2 44.8-117.4 83.6-139.4 116.3-75.6 112.4-10.8 106.9-69.1 154-107.3 86.7-334.6 111.9-357 170.9-14.7 38.6 67.1 69 155.4 78.2 91.1 9.5 552.7-459.8 616.5-234.2 47 165.9 211.8 100.6 314 175.4 143 104.7 579.2-61.7 549-155.6-33.8-105.7 156.5-200.7-7.8-373.4z"/><path d="m939.4 208c-6.8-20.9-30.3-35.7-55.9-40.3-30.4-5.4-62.4.8-91.8 7.2-32 7-63.1 16.4-93 27.9-57.8 22.3-109.7 53-159.1 85.5-12.7 8.3-25.2 16.8-37.6 25.2-11 7.5-22.5 14.8-32.5 23.1-9.3 7.7-17.4 16.6-21.6 26.8-4.3 10.4-2.5 21.2 3.8 30.8 6.4 9.8 16.9 17.3 23.7 26.8 5.9 8.2 7.8 18.2 5.9 27.5-4.2 20.1-25.6 34.5-50.9 35-2.6.1-5.2 0-7.9-.3-4.7-.6-8.9-1.7-12.8 1.3-4.2 3.2-7.7 7.6-10.3 11.8-5.3 8.6-7.5 18.3-6.9 27.8 1.2 19.7 13.6 38.3 33.7 49.6 5.6 3.1 11.6 5.7 17.8 7.8 5.6 4 13 6.4 21.1 6.7 4.2.2 8.6-.1 13-.5 8.3.4 16.7.1 24.9-.9 29.2-3.5 55.6-14.9 78.4-29.6 23.4-15.1 43.9-33 62.7-51.6 18.7-18.6 35.7-38.3 51.3-58.6 30.3-39.6 55.3-81.7 78.8-124.1 13.6-15.8 28-31 47.4-42.7 8.6-5.2 18.2-9.2 28.4-11.8 6.4-.4 12.9-.8 19.3-1.4 13.6-1.4 26.6-4 38.8-9 23.6-9.6 38.2-28.9 31.3-50z"/><path d="m450.7 614.3c-2.7-4.3-7.8-7.1-13.5-7.8-.3-.2-.6-.3-.9-.5-12.8-6.7-28-8.1-42.8-9.5-17-1.5-33.9-3.2-50.9-4.6-15-1.3-30.2.2-42.5 7.7-11.5 7.1-19.9 16.9-23.5 28.2-7.2 22.8 3.6 50.9 25.9 66.4 10.4 7.2 23.9 12 37.8 10.6 15.3-1.5 28.3-8.8 37.6-18.5 10.4-10.8 16-23.7 25-35.2 3.3-4.2 8.1-8.7 12.9-11.3 3.6-2 4.6-2.5 8.3-3.4.8-.2 1.7-.4 2.5-.5.2 0 .5-.1.8-.1 2.2-.1 4.3-.1 6.4.1s4.2-.3 5.9-1.2c1.5-.1 3-.5 4.3-1.3 7.7-4.2 10.9-12.2 6.7-19.1z"/><path d="m280.9 551.7c-.4-2.2-1.7-4.2-4.2-5.2-12.3-4.8-25.6-9.4-39.3-5.2-11.1 3.4-19.7 12.6-16.7 22.3 2.9 9.5 15.1 15.5 26.9 15.5 14.2 0 25.5-7.8 35-15.3 5.1-4 2.8-9.6-1.7-12.1z"/><path d="m244.2 618.6c-2.1-.7-4.2-.7-6.1-.2-1.1-.1-2.3-.1-3.4.1-22.6 3.8-41.5 16.7-50.3 33.4-3.7 4.4-6.5 9.2-7.7 14.2-2.5 10.5 6.4 20.9 20.7 19.4 14.5-1.6 20.7-13.2 26.9-22.3 7-10.1 14-20.2 20.9-30.4.8-.8 1.4-1.7 1.8-2.7.5-.8 1.1-1.6 1.6-2.4 2.4-3.3-.4-7.8-4.4-9.1z"/></g></svg>