<?xml version="1.0" encoding="utf-8"?>
<!-- Generator: Adobe Illustrator 23.0.4, SVG Export Plug-In . SVG Version: 6.00 Build 0)  -->
<svg version="1.1" id="Layer_1" xmlns="http://www.w3.org/2000/svg" xmlns:xlink="http://www.w3.org/1999/xlink" x="0px" y="0px"
	 viewBox="0 0 1943.3 1916.7" style="enable-background:new 0 0 1943.3 1916.7;" xml:space="preserve">
<style type="text/css">
	.st0{fill:#F2F6F6;}
</style>
<g>
	<g>
		<path class="st0" d="M413.6,1882.9c62.8-25,273.3-86.2,358.8-143.1c131.2-87.4,75.2-204.4,145-244.8
			c227.4-131.6,229.1-194.4,318.9-302.1c91.6-110,237.6-117.9,410.9-287.5c64.5-63.1-68.2-296.1,41.2-402
			c93.5-90.4,224.4,27.7,320.3-68.3c97.4-97.4,97.4-242.8,59.2-192.9c-40.9-126.6-79.8,50.4-139.7-6.8c-3.4-3.3-7-6.4-10.7-9.3
			c-114-89.5-57.7-281-145.3-208.5c-141.8,117.3-146.9,393.9-384.8,584.6C978.6,929.9,964.8,977.5,858.1,1042
			c-222.5,134.6-320.1,110-469.8,277.3C271.6,1450,140.8,1688.6,131,1781.6C117.8,1907.1,232.4,1955,413.6,1882.9z"/>
	</g>
	<path class="st0" d="M1716.1,785.7c1.3-11.3,3.1-22.9,4.6-34.3c2.6-19.6,3.8-44.1,39.9-63.7c16.8-9.1,36.1-14.2,49.7-12
		c11.9,1.9,18.9,8.7,18.5,18c2.6,15.3-4.4,33.8-18.7,52.6c-7.2,9.4-16.4,18.8-27,27.7c-11,9.2-26.4,20.8-41.3,25.4
		C1721.2,805.7,1714.9,796.5,1716.1,785.7z"/>
	<path class="st0" d="M1779.2,601.1c-3.5-3.1-10.8-3.6-19.3-1.3c-23.1,6.2-37.8,25.2-37.2,37.2c0.3,6.1,4.2,11.4,13,12.1
		c7.9,0.6,18.6-3,26.8-8.8c3.1-2.2,5.8-4.6,7.9-7.1c9.2-7.7,16.5-17.5,15.9-25.2C1786.1,603.9,1783.7,601.4,1779.2,601.1z"/>
</g>
</svg>
