<?xml version="1.0" encoding="utf-8"?>
<!-- Generator: Adobe Illustrator 23.1.1, SVG Export Plug-In . SVG Version: 6.00 Build 0)  -->
<svg version="1.1" id="Layer_1" xmlns="http://www.w3.org/2000/svg" xmlns:xlink="http://www.w3.org/1999/xlink" x="0px" y="0px"
	 viewBox="0 0 1945.7 663.1" style="enable-background:new 0 0 1945.7 663.1;" xml:space="preserve">
<style type="text/css">
	.st0{opacity:0.12;}
	.st1{fill:#5E65EA;}
</style>
<g class="st0">
	<g>
		<g>
			<path class="st1" d="M1783.9,75.2c-104-109.4-888.9-4.7-970.1,27.4c-32.3,12.8-62.1,25.7-91.5,41
				c-86.2,44.8-117.4,83.6-139.4,116.3c-75.6,112.4-10.8,106.9-69.1,154c-107.3,86.7-334.6,111.9-357,170.9
				c-14.7,38.6,67.1,69,155.4,78.2c91.1,9.5,552.7-459.8,616.5-234.2c47,165.9,211.8,100.6,314,175.4
				c143,104.7,579.2-61.7,549-155.6C1757.9,342.9,1948.2,247.9,1783.9,75.2z"/>
		</g>
		<path class="st1" d="M763.1,42.4c-6.8-20.9-30.3-35.7-55.9-40.3c-30.4-5.4-62.4,0.8-91.8,7.2c-32,7-63.1,16.4-93,27.9
			c-57.8,22.3-109.7,53-159.1,85.5c-12.7,8.3-25.2,16.8-37.6,25.2c-11,7.5-22.5,14.8-32.5,23.1c-9.3,7.7-17.4,16.6-21.6,26.8
			c-4.3,10.4-2.5,21.2,3.8,30.8c6.4,9.8,16.9,17.3,23.7,26.8c5.9,8.2,7.8,18.2,5.9,27.5c-4.2,20.1-25.6,34.5-50.9,35
			c-2.6,0.1-5.2,0-7.9-0.3c-4.7-0.6-8.9-1.7-12.8,1.3c-4.2,3.2-7.7,7.6-10.3,11.8c-5.3,8.6-7.5,18.3-6.9,27.8
			c1.2,19.7,13.6,38.3,33.7,49.6c5.6,3.1,11.6,5.7,17.8,7.8c5.6,4,13,6.4,21.1,6.7c4.2,0.2,8.6-0.1,13-0.5
			c8.3,0.4,16.7,0.1,24.9-0.9c29.2-3.5,55.6-14.9,78.4-29.6c23.4-15.1,43.9-33,62.7-51.6c18.7-18.6,35.7-38.3,51.3-58.6
			c30.3-39.6,55.3-81.7,78.8-124.1c13.6-15.8,28-31,47.4-42.7c8.6-5.2,18.2-9.2,28.4-11.8c6.4-0.4,12.9-0.8,19.3-1.4
			c13.6-1.4,26.6-4,38.8-9C755.4,82.8,770,63.5,763.1,42.4z"/>
		<path class="st1" d="M274.4,448.7c-2.7-4.3-7.8-7.1-13.5-7.8c-0.3-0.2-0.6-0.3-0.9-0.5c-12.8-6.7-28-8.1-42.8-9.5
			c-17-1.5-33.9-3.2-50.9-4.6c-15-1.3-30.2,0.2-42.5,7.7c-11.5,7.1-19.9,16.9-23.5,28.2c-7.2,22.8,3.6,50.9,25.9,66.4
			c10.4,7.2,23.9,12,37.8,10.6c15.3-1.5,28.3-8.8,37.6-18.5c10.4-10.8,16-23.7,25-35.2c3.3-4.2,8.1-8.7,12.9-11.3
			c3.6-2,4.6-2.5,8.3-3.4c0.8-0.2,1.7-0.4,2.5-0.5c0.2,0,0.5-0.1,0.8-0.1c2.2-0.1,4.3-0.1,6.4,0.1c2.1,0.2,4.2-0.3,5.9-1.2
			c1.5-0.1,3-0.5,4.3-1.3C275.4,463.6,278.6,455.6,274.4,448.7z"/>
		<path class="st1" d="M104.6,386.1c-0.4-2.2-1.7-4.2-4.2-5.2c-12.3-4.8-25.6-9.4-39.3-5.2C50,379.1,41.4,388.3,44.4,398
			c2.9,9.5,15.1,15.5,26.9,15.5c14.2,0,25.5-7.8,35-15.3C111.4,394.2,109.1,388.6,104.6,386.1z"/>
	</g>
	<path class="st1" d="M67.9,453c-2.1-0.7-4.2-0.7-6.1-0.2c-1.1-0.1-2.3-0.1-3.4,0.1c-22.6,3.8-41.5,16.7-50.3,33.4
		c-3.7,4.4-6.5,9.2-7.7,14.2c-2.5,10.5,6.4,20.9,20.7,19.4c14.5-1.6,20.7-13.2,26.9-22.3c7-10.1,14-20.2,20.9-30.4
		c0.8-0.8,1.4-1.7,1.8-2.7c0.5-0.8,1.1-1.6,1.6-2.4C74.7,458.8,71.9,454.3,67.9,453z"/>
</g>
</svg>
