<svg enable-background="new 0 0 1943.3 1916.7" viewBox="0 0 1943.3 1916.7" xmlns="http://www.w3.org/2000/svg"><g fill="#f2f6f6"><path d="m413.6 1882.9c62.8-25 273.3-86.2 358.8-143.1 131.2-87.4 75.2-204.4 145-244.8 227.4-131.6 229.1-194.4 318.9-302.1 91.6-110 237.6-117.9 410.9-287.5 64.5-63.1-68.2-296.1 41.2-402 93.5-90.4 224.4 27.7 320.3-68.3 97.4-97.4 97.4-242.8 59.2-192.9-40.9-126.6-79.8 50.4-139.7-6.8-3.4-3.3-7-6.4-10.7-9.3-114-89.5-57.7-281-145.3-208.5-141.8 117.3-146.9 393.9-384.8 584.6-408.8 327.7-422.6 375.3-529.3 439.8-222.5 134.6-320.1 110-469.8 277.3-116.7 130.7-247.5 369.3-257.3 462.3-13.2 125.5 101.4 173.4 282.6 101.3z"/><path d="m1716.1 785.7c1.3-11.3 3.1-22.9 4.6-34.3 2.6-19.6 3.8-44.1 39.9-63.7 16.8-9.1 36.1-14.2 49.7-12 11.9 1.9 18.9 8.7 18.5 18 2.6 15.3-4.4 33.8-18.7 52.6-7.2 9.4-16.4 18.8-27 27.7-11 9.2-26.4 20.8-41.3 25.4-20.6 6.3-26.9-2.9-25.7-13.7z"/><path d="m1779.2 601.1c-3.5-3.1-10.8-3.6-19.3-1.3-23.1 6.2-37.8 25.2-37.2 37.2.3 6.1 4.2 11.4 13 12.1 7.9.6 18.6-3 26.8-8.8 3.1-2.2 5.8-4.6 7.9-7.1 9.2-7.7 16.5-17.5 15.9-25.2-.2-4.1-2.6-6.6-7.1-6.9z"/></g></svg>