<svg viewBox="0 0 180 180" xmlns="http://www.w3.org/2000/svg"><circle cx="90" cy="155.78" fill="#f22f66" r="24"/><path d="m106.77 138.62-33.93 33.93a24 24 0 1 0 33.93-33.93z" fill="#e2205c"/><circle cx="90" cy="81.8" fill="#f9f9f9" r="49.45"/><path d="m90 103.4v48.16h-24.12c-2.93-16.78-13-33.86-19-45.53-.47-.9-.92-1.77-1.38-2.6a0 0 0 0 0 0 0z" fill="#f9f9f9"/><path d="m134.49 103.4c-.5.93-1 1.91-1.54 2.92a.41.41 0 0 1 -.05.09c-6 11.66-15.88 28.56-18.78 45.15h-24.12v-48.16z" fill="#f9f9f9"/><path d="m90 103.4v48.16h-24.12c-2.93-16.78-13-33.86-19-45.53-.47-.9-.92-1.77-1.38-2.6a0 0 0 0 0 0 0z" fill="#f9f9f9"/><path d="m131.65 55.17-48.22 48.23h51.06c-.47.88-1 1.81-1.46 2.77a49.4 49.4 0 0 0 -1.37-51z" fill="#ededed"/><path d="m90 131.25v20.31h24.12c2.9-16.59 12.8-33.49 18.78-45.15a.41.41 0 0 0 .05-.09l.08-.15a49.42 49.42 0 0 1 -43.03 25.08z" fill="#ededed"/><path d="m90 103.4v27.85a49.42 49.42 0 0 0 43-25.09c.49-1 1-1.88 1.46-2.77z" fill="#ededed"/><path d="m63.37 123.46-5.07 5.07a98.57 98.57 0 0 1 7.58 23h24.12v-20.28a49.2 49.2 0 0 1 -26.63-7.79z" fill="#ededed"/><path d="m90 131.25v-27.85h-6.57l-20.06 20.06a49.2 49.2 0 0 0 26.63 7.79z" fill="#ededed"/><path d="m64 147.56h52v8h-52z" fill="#f22f66"/><circle cx="116" cy="151.56" fill="#e2205c" r="4"/><circle cx="64" cy="151.56" fill="#f22f66" r="4"/><path d="m116 155.56h-26.17l8-8h18.17z" fill="#e2205c"/><path d="m107.59 79.24a11 11 0 0 0 -11 11v6h-13.13v-6a11 11 0 1 0 -11 11h6v46.24h5v-46.16h13.09v46.24h5v-46.24h6a11 11 0 1 0 0-22.08zm-29.15 17h-6a6 6 0 1 1 6-6zm29.15 0h-6v-6a6 6 0 1 1 6 6z" fill="#f22f66"/><path d="m46.89 106c-.42-.8-.82-1.57-1.23-2.32q.59 1.2 1.23 2.32z" fill="#f9f9f9"/><path d="m45.51 103.4a0 0 0 0 1 0 0l.15.28-.16-.31z" fill="#f9f9f9"/><g fill="#00c9a2"><circle cx="90" cy="4" r="4"/><circle cx="90" cy="16" r="4"/><path d="m86 4h8v12h-8z"/><circle cx="47" cy="15.52" r="4" transform="matrix(.8660254 -.5 .5 .8660254 -1.46 25.58)"/><circle cx="53" cy="25.91" r="4" transform="matrix(.8660254 -.5 .5 .8660254 -5.86 29.97)"/><path d="m46 14.72h8v12h-8z" transform="matrix(.8660254 -.5 .5 .8660254 -3.66 27.78)"/><circle cx="15.52" cy="47" r="4" transform="matrix(.5 -.8660254 .8660254 .5 -32.94 36.94)"/><circle cx="25.91" cy="53" r="4" transform="matrix(.5 -.8660254 .8660254 .5 -32.94 48.94)"/><path d="m16.72 44h8v12h-8z" transform="matrix(.5 -.8660254 .8660254 .5 -32.94 42.94)"/><circle cx="4" cy="90" r="4"/><circle cx="16" cy="90" r="4"/><path d="m6 84h8v12h-8z" transform="matrix(0 -1 1 0 -80 100)"/><circle cx="15.52" cy="133" r="4" transform="matrix(.8660254 -.5 .5 .8660254 -64.42 25.58)"/><circle cx="25.91" cy="127" r="4" transform="matrix(.8660254 -.5 .5 .8660254 -60.03 29.97)"/><path d="m16.72 124h8v12h-8z" transform="matrix(-.5 -.8660254 .8660254 -.5 -81.51 212.94)"/><circle cx="164.48" cy="133" r="4" transform="matrix(.5 -.8660254 .8660254 .5 -32.94 208.94)"/><circle cx="154.09" cy="127" r="4" transform="matrix(.5 -.8660254 .8660254 .5 -32.94 196.94)"/><path d="m155.28 124h8v12h-8z" transform="matrix(-.5 .8660254 -.8660254 -.5 351.51 57.06)"/><circle cx="176" cy="90" r="4"/><circle cx="164" cy="90" r="4"/><path d="m166 84h8v12h-8z" transform="matrix(0 1 -1 0 260 -80)"/><circle cx="164.48" cy="47" r="4" transform="matrix(.8660254 -.5 .5 .8660254 -1.46 88.54)"/><circle cx="154.09" cy="53" r="4" transform="matrix(.8660254 -.5 .5 .8660254 -5.86 84.14)"/><path d="m155.28 44h8v12h-8z" transform="matrix(.5 .8660254 -.8660254 .5 122.94 -112.94)"/><circle cx="133" cy="15.52" r="4" transform="matrix(.5 -.87 .87 .5 53.06 122.94)"/><circle cx="127" cy="25.91" r="4" transform="matrix(.5 -.8660254 .8660254 .5 41.06 122.94)"/><path d="m126 14.72h8v12h-8z" transform="matrix(.87 .5 -.5 .87 27.78 -62.22)"/></g></svg>