<svg enable-background="new 0 0 172.4 142.5" viewBox="0 0 172.4 142.5" xmlns="http://www.w3.org/2000/svg" xmlns:xlink="http://www.w3.org/1999/xlink"><clipPath id="a"><path d="m109 0h63.4v26h-63.4z"/></clipPath><clipPath id="b"><path d="m109 0h63.4v26h-63.4z"/></clipPath><path d="m19.4 38c0-15 12.2-27.2 27.2-27.2 7.2 0 14.1 2.9 19.2 8l-38.5 38.5c-5.1-5.1-8-12-7.9-19.3" fill="#ce1e55"/><path d="m46.5 38.1c10.6 10.7 10.5 27.9-.2 38.5-10.6 10.4-27.7 10.4-38.3 0z" fill="#e2215b"/><path d="m27.2 123c-15 0-27.2-12.2-27.2-27.2 0-7.2 2.9-14.2 8-19.3l38.5 38.5c-5.1 5.1-12.1 8-19.3 8" fill="#079b7f"/><path d="m27.5 96c10.6-10.7 27.8-10.8 38.5-.2s10.8 27.8.2 38.5c-.1.1-.2.2-.2.2z" fill="#00c9a2"/><path d="m77.3 96c0-15 12.2-27.2 27.2-27.2 7.2 0 14.1 2.9 19.3 8l-38.5 38.5c-5.1-5.2-8-12.1-8-19.3" fill="#f2b700"/><path d="m104.5 96c10.6 10.6 10.6 27.8 0 38.5s-27.8 10.6-38.5 0z" fill="#daa727"/><path d="m104.5 30.3c15 0 27.2 12.2 27.2 27.2 0 7.2-2.9 14.1-8 19.3l-38.5-38.5c5.1-5.1 12.1-8 19.3-8" fill="#0fa3cf"/><path d="m104.3 57.3c-10.6 10.7-27.8 10.8-38.5.2s-10.8-27.8-.2-38.5c.1-.1.2-.2.2-.2z" fill="#13b3e2"/><g clip-path="url(#a)"><g clip-path="url(#b)"><path d="m160.5 26h-39.5c-6.6 0-11.9-5.4-11.9-11.9v-2.1c0-6.6 5.3-12 11.9-12h39.5c6.6 0 11.9 5.3 11.9 11.9v.1 2.1c.1 6.6-5.2 12-11.9 11.9v.1" fill="#5e65ea"/></g><g fill="#f2f5f5"><g enable-background="new"><path d="m133.1 13.5c.3.3.4.8.4 1.3 0 1-.3 1.6-.8 2s-1.2.6-1.9.6h-3c-.2 0-.4-.1-.5-.2s-.2-.3-.2-.5v-7c0-.2.1-.4.2-.5s.3-.2.5-.2h3c1.5 0 2.3.7 2.3 2.1 0 .4-.1.7-.3 1s-.4.5-.7.7c.4.1.7.3 1 .7zm-1.9-2.9c-.2-.2-.4-.2-.7-.2h-2v1.9h2c.2 0 .5-.1.6-.2.2-.2.3-.4.3-.6.1-.5 0-.7-.2-.9zm.4 5.1c.2-.2.3-.5.3-.9 0-.5-.1-.8-.4-.9-.2-.1-.6-.2-.9-.2h-2.1v2.3h2.2c.4 0 .7-.1.9-.3z"/><path d="m140.1 16.2c.1.1.2.3.2.5s-.1.4-.2.5-.3.2-.5.2h-4c-.2 0-.4-.1-.5-.2s-.2-.3-.2-.5v-7c0-.2.1-.4.2-.5s.3-.2.5-.2h4c.2 0 .4.1.5.2s.2.3.2.5-.1.4-.2.5-.3.2-.5.2h-3.3v2h2.7c.2 0 .4.1.5.2s.2.3.2.5-.1.4-.2.5-.3.2-.5.2h-2.7v2.2h3.3c.2 0 .4 0 .5.2z"/></g><path d="m147.8 9.1c.1.1.2.3.2.5s-.1.4-.2.5-.3.2-.5.2h-1.9v6.3c0 .2-.1.4-.2.5-.2.1-.3.2-.6.2s-.4-.1-.6-.2c-.1-.1-.2-.3-.2-.5v-6.3h-1.9c-.2 0-.4-.1-.5-.2s-.2-.3-.2-.5.1-.4.2-.5.3-.2.5-.2h5.3c.3 0 .4.1.6.2z"/><path d="m155.3 16.7c0 .2-.1.4-.2.5s-.3.2-.5.2c-.1 0-.3 0-.4-.1s-.2-.2-.3-.4l-.6-1.5h-3.6l-.6 1.5c-.1.2-.1.3-.3.4-.1.1-.2.1-.4.1s-.4-.1-.5-.2-.2-.3-.2-.5c0-.1 0-.1 0-.2l3-7.2c.1-.2.2-.3.3-.4s.3-.1.4-.1.3 0 .4.1.2.2.3.4l3 7c.2.2.2.3.2.4zm-4.9-2.6h2.4l-1.2-2.8z"/></g></g></svg>