<?xml version="1.0" encoding="utf-8"?>
<!-- Generator: Adobe Illustrator 23.0.4, SVG Export Plug-In . SVG Version: 6.00 Build 0)  -->
<svg version="1.1" id="Layer_1" xmlns="http://www.w3.org/2000/svg" xmlns:xlink="http://www.w3.org/1999/xlink" x="0px" y="0px"
	 viewBox="0 0 514 132" style="enable-background:new 0 0 514 132;" xml:space="preserve">
<style type="text/css">
	.st0{fill-rule:evenodd;clip-rule:evenodd;fill:#CE1E55;}
	.st1{fill-rule:evenodd;clip-rule:evenodd;fill:#E2215B;}
	.st2{fill-rule:evenodd;clip-rule:evenodd;fill:#079B7F;}
	.st3{fill-rule:evenodd;clip-rule:evenodd;fill:#00C8A1;}
	.st4{fill-rule:evenodd;clip-rule:evenodd;fill:#F2B600;}
	.st5{filter:url(#Adobe_OpacityMaskFilter);}
	.st6{fill-rule:evenodd;clip-rule:evenodd;fill:#FFFFFF;}
	.st7{mask:url(#logo-b_1_);fill-rule:evenodd;clip-rule:evenodd;fill:#DAA727;}
	.st8{fill-rule:evenodd;clip-rule:evenodd;fill:#0FA3D0;}
	.st9{fill-rule:evenodd;clip-rule:evenodd;fill:#13B3E2;}
	.st10{fill-rule:evenodd;clip-rule:evenodd;fill:#15142A;}
	.st11{filter:url(#Adobe_OpacityMaskFilter_1_);}
	.st12{mask:url(#logo-d_1_);fill-rule:evenodd;clip-rule:evenodd;fill:#5D64E9;}
	.st13{enable-background:new    ;}
	.st14{fill:#F2F5F5;}
</style>
<g transform="translate(0 -.395)">
	<path class="st0" d="M20.1,27.6c0-15,12.2-27.2,27.2-27.2c7.5,0,14.3,3,19.2,8L28,46.8C23.1,41.9,20.1,35.1,20.1,27.6"/>
	<path class="st1" d="M47.2,27.6c4.9,4.9,8,11.7,8,19.2c0,15-12.2,27.2-27.2,27.2c-7.5,0-14.3-3-19.2-8L47.2,27.6z"/>
	<path class="st2" d="M27.9,112.5c-15,0-27.2-12.2-27.2-27.2c0-7.5,3-14.3,8-19.2l38.5,38.5C42.3,109.5,35.5,112.5,27.9,112.5"/>
	<path class="st3" d="M28.2,85.6c4.9-4.9,11.7-8,19.2-8c15,0,27.2,12.2,27.2,27.2c0,7.5-3,14.3-8,19.2L28.2,85.6z"/>
	<path class="st4" d="M78,85.6c0-15,12.2-27.2,27.2-27.2c7.5,0,14.3,3,19.2,8L86,104.8C81,99.9,78,93.1,78,85.6"/>
	<g transform="translate(66 85)">
		<defs>
			<filter id="Adobe_OpacityMaskFilter" filterUnits="userSpaceOnUse" x="0.7" y="0.6" width="46.4" height="46.4">
				<feColorMatrix  type="matrix" values="1 0 0 0 0  0 1 0 0 0  0 0 1 0 0  0 0 0 1 0"/>
			</filter>
		</defs>
		<mask maskUnits="userSpaceOnUse" x="0.7" y="0.6" width="46.4" height="46.4" id="logo-b_1_">
			<g class="st5">
				<polygon id="logo-a_1_" class="st6" points="0.7,0.6 47.2,0.6 47.2,47 0.7,47 				"/>
			</g>
		</mask>
		<path class="st7" d="M39.2,0.6c4.9,4.9,8,11.7,8,19.2C47.2,34.8,35,47,19.9,47c-7.5,0-14.3-3-19.2-8L39.2,0.6z"/>
	</g>
	<path class="st8" d="M105.2,19.9c15,0,27.2,12.2,27.2,27.2c0,7.5-3,14.3-8,19.2L85.9,27.9C90.9,22.9,97.7,19.9,105.2,19.9"/>
	<path class="st9" d="M105,46.8c-4.9,4.9-11.7,8-19.2,8c-15,0-27.2-12.2-27.2-27.2c0-7.5,3-14.3,8-19.2L105,46.8z"/>
	<path class="st10" d="M151,83.1c0,0.9-0.7,1.6-1.6,1.6c-0.9,0-1.6-0.7-1.6-1.6V66.3v0c0-0.5,0.2-1,0.6-1.3c0.7-0.5,1.7-0.3,2.2,0.3
		l9.3,12.9V66.3c0-0.8,0.7-1.6,1.6-1.6c0.9,0,1.6,0.7,1.6,1.6v16.8c0,0.9-0.7,1.6-1.6,1.6c-0.5,0-0.9-0.2-1.2-0.6
		c-0.1-0.1-0.1-0.1-0.1-0.2L151,71.1V83.1z M179.8,76h8.2c-0.3-1.2-1.8-2.9-4.3-3.1C181.2,73.1,180,74.9,179.8,76 M176.7,77.4
		c0-3.9,3.1-7.2,7-7.2c3.7,0,6.7,2.8,6.9,6.7v0.1c0,0.1,0,0.2,0,0.3c-0.1,0.7-0.7,1.2-1.5,1.2h-9.2c0.1,0.7,0.5,1.4,1,1.9
		c0.6,0.7,1.8,1.2,2.8,1.3c1,0.1,2.3-0.2,3-0.7c0.6-0.6,1.8-0.5,2.2-0.1c0.4,0.4,0.7,1.3,0,1.9c-1.4,1.3-3.1,1.9-5.2,1.9
		C179.7,84.6,176.7,81.4,176.7,77.4 M208.5,71.8c0,0.9-0.8,1.6-1.6,1.6h-0.7v8c0.9,0,1.6,0.7,1.6,1.6c0,0.9-0.7,1.6-1.6,1.6
		c-1.8,0-3.2-1.4-3.2-3.2v-8h-0.8c-0.9,0-1.6-0.7-1.6-1.6c0-0.9,0.7-1.6,1.6-1.6h0.8v-4.2c0-0.9,0.7-1.6,1.6-1.6
		c0.9,0,1.6,0.7,1.6,1.6v4.2h0.7C207.7,70.2,208.5,70.9,208.5,71.8 M240,72.5l-4.8,11.2c0,0.1-0.1,0.1-0.1,0.2c0,0,0,0,0,0
		c0,0.1-0.1,0.1-0.1,0.2c0,0-0.1,0-0.1,0c-0.1,0.1-0.1,0.1-0.2,0.1c0,0,0,0,0,0.1c-0.1,0.1-0.1,0.1-0.3,0.1c0,0,0,0,0,0
		c-0.1,0-0.1,0-0.2,0.1h-0.1c-0.1,0-0.2,0-0.3,0c-0.1,0-0.2,0-0.3,0h-0.1c-0.1,0-0.1-0.1-0.2-0.1l0,0h0c-0.1,0-0.2-0.1-0.3-0.2v0
		c-0.1,0-0.1-0.1-0.2-0.1c0,0-0.1,0-0.1,0c-0.1-0.1-0.1-0.1-0.1-0.2c0,0,0,0,0,0c-0.1-0.1-0.1-0.2-0.1-0.2l-2.1-5l-2,5
		c0,0.1-0.1,0.1-0.1,0.2v0c-0.1,0.1-0.1,0.1-0.2,0.2c0,0,0,0,0,0c-0.1,0.1-0.1,0.1-0.2,0.2c-0.1,0.1-0.2,0.1-0.3,0.2h-0.1
		c0,0,0,0,0,0c-0.1,0-0.1,0-0.2,0.1h-0.1c-0.1,0-0.2,0-0.3,0c-0.1,0-0.2,0-0.3,0h-0.1c-0.1,0-0.1-0.1-0.2-0.1c0,0,0,0-0.1,0
		c-0.1,0-0.2-0.1-0.3-0.2c0,0,0,0,0,0c0,0-0.1-0.1-0.2-0.1l-0.1,0c0-0.1-0.1-0.1-0.1-0.2c0,0,0,0,0,0c-0.1-0.1-0.1-0.2-0.1-0.2
		l-4.7-11.2c-0.3-0.8,0-1.6,0.8-2c0.7-0.3,1.6,0,1.9,0.9l3.4,7.8l2-4.8c0.3-0.6,0.8-0.9,1.4-0.9c0.6,0,1.2,0.3,1.4,0.9l2,4.8
		l3.4-7.8c0.3-0.8,1.2-1.2,1.9-0.9C239.9,70.9,240.3,71.8,240,72.5 M256,77.5c0,1.2,0.4,2.2,1,3.1c0.7,0.7,1.7,1.1,2.8,1.1
		c1,0,1.9-0.4,2.7-1.1c0.7-0.8,1.1-1.8,1.1-3.1c0-1.2-0.4-2.2-1.1-3c-0.7-0.6-1.6-1.1-2.7-1.1c-1.1,0-2,0.5-2.8,1.1
		C256.3,75.3,256,76.3,256,77.5 M254.8,82.5c-1.2-1.3-2-3.1-2-5.1c0-2,0.8-3.7,2-5c1.3-1.4,3-2.2,5-2.2c1.9,0,3.6,0.8,4.8,2.2
		c1.3,1.4,2,3.1,2,5c0,2-0.7,3.8-2,5.1c-1.2,1.4-2.9,2.2-4.8,2.2C257.8,84.7,256.1,83.9,254.8,82.5 M287.7,71.8
		c0,0.8-0.7,1.5-1.5,1.5c-0.7,0-1.2,0.2-1.7,0.5c-0.5,0.3-1,0.8-1.3,1.4c-0.7,0.9-1,2-1.2,2.4v5.5c0,0.8-0.7,1.5-1.6,1.5
		c-0.8,0-1.5-0.7-1.5-1.5V71.8c0-0.8,0.7-1.5,1.5-1.5c0.9,0,1.6,0.7,1.6,1.5V72c0.2-0.2,0.4-0.4,0.6-0.6c1-0.6,2.2-1.2,3.6-1.1
		C287.1,70.3,287.7,70.9,287.7,71.8 M299.4,83.1v-17c0-0.9,0.7-1.6,1.6-1.6c0.9,0,1.6,0.7,1.6,1.6v10l5.9-5.9c0.6-0.6,1.6-0.6,2.2,0
		c0.6,0.6,0.6,1.6,0,2.2l-4.3,4.3l4.4,5.3c0.5,0.7,0.5,1.7-0.2,2.2c-0.3,0.3-0.7,0.4-1,0.4c-0.5,0-0.9-0.2-1.2-0.6l-4.2-5.1
		l-1.6,1.6v2.5c0,0.9-0.7,1.6-1.6,1.6C300.1,84.7,299.4,83.9,299.4,83.1 M339.5,74.3c0-5.7,4.8-10.3,10.6-10.4
		c2.5,0,4.8,0.8,6.7,2.2c0.7,0.6,0.8,1.6,0.3,2.3c-0.6,0.7-1.6,0.8-2.3,0.3c-1.3-1-2.9-1.6-4.6-1.6c-2,0-3.8,0.8-5.2,2.1
		c-1.3,1.3-2.1,3.1-2.1,5c0,2,0.8,3.7,2.1,5c1.4,1.3,3.2,2.1,5.2,2.1c1.8,0,3.3-0.5,4.6-1.6c0.7-0.5,1.7-0.4,2.3,0.3
		c0.5,0.7,0.4,1.8-0.3,2.3c-1.8,1.4-4.1,2.2-6.7,2.2C344.3,84.7,339.5,80,339.5,74.3 M379.4,77.5c0-1.2-0.4-2.2-1.1-3
		c-0.7-0.8-1.7-1.2-2.7-1.2c-1,0-2,0.4-2.7,1.2c-0.7,0.7-1.1,1.8-1.1,3c0,1.2,0.4,2.2,1.1,3c0.7,0.7,1.6,1.1,2.7,1.1
		c1,0,2-0.4,2.7-1.1C379,79.7,379.4,78.7,379.4,77.5L379.4,77.5z M382.4,77.5v5.7c0,0.8-0.7,1.5-1.5,1.5c-0.7,0-1.3-0.5-1.5-1.2
		c-1.1,0.8-2.4,1.2-3.8,1.2c-2,0-3.7-0.8-4.9-2.1c-1.2-1.3-2-3.1-2-5.1c0-2,0.7-3.8,2-5.1c1.2-1.3,2.9-2.2,4.9-2.2
		c1.4,0,2.7,0.5,3.8,1.3c0.2-0.7,0.8-1.3,1.5-1.3c0.8,0,1.5,0.7,1.5,1.6V77.5z M407.8,76.2v6.9c0,0.8-0.7,1.5-1.5,1.5
		c-0.8,0-1.5-0.7-1.5-1.5v-6.9c0-1.6-1.4-2.9-3-2.9c-1.6,0-2.9,1.3-2.9,2.9v6.9c0,0.1,0,0.2-0.1,0.3c-0.1,0.7-0.8,1.2-1.5,1.2
		c-0.9,0-1.5-0.7-1.5-1.5v-6.9v-4.5c0-0.8,0.7-1.5,1.5-1.5c0.6,0,1.2,0.3,1.4,0.9c0.9-0.5,1.9-0.9,3.1-0.9
		C405.1,70.2,407.8,73,407.8,76.2 M432.1,72.5l-4.7,11.2c0,0.1-0.1,0.2-0.1,0.2c0,0,0,0,0,0c-0.1,0.1-0.1,0.1-0.2,0.2c0,0,0,0,0,0
		c-0.1,0.1-0.1,0.1-0.2,0.2c0,0,0,0,0,0c-0.1,0.1-0.1,0.1-0.2,0.1h-0.1v0c-0.1,0-0.2,0-0.2,0.1h-0.1c-0.1,0-0.2,0-0.3,0
		c-0.1,0-0.1,0-0.3,0h-0.1c-0.1,0-0.1-0.1-0.2-0.1v0h-0.1c-0.1,0-0.1-0.1-0.3-0.1c0,0,0,0,0,0c-0.1-0.1-0.1-0.1-0.2-0.2
		c0,0,0,0-0.1,0c0-0.1-0.1-0.1-0.1-0.2c0,0,0,0,0,0c-0.1,0-0.1-0.1-0.1-0.2L420,72.5c-0.3-0.8,0-1.6,0.8-2c0.7-0.3,1.6,0.1,1.9,0.8
		l3.3,7.8l3.3-7.8c0.3-0.8,1.2-1.2,1.9-0.8C432.1,70.9,432.5,71.8,432.1,72.5 M453.9,77.5c0-1.2-0.4-2.2-1.1-3
		c-0.7-0.8-1.7-1.2-2.7-1.2c-1,0-2,0.4-2.7,1.2c-0.7,0.7-1.1,1.8-1.1,3c0,1.2,0.4,2.2,1.1,3c0.7,0.7,1.6,1.1,2.7,1.1
		c1,0,2-0.4,2.7-1.1C453.5,79.7,453.9,78.7,453.9,77.5L453.9,77.5z M456.9,77.5v5.7c0,0.8-0.7,1.5-1.5,1.5c-0.7,0-1.3-0.5-1.5-1.2
		c-1.1,0.8-2.4,1.2-3.8,1.2c-2,0-3.7-0.8-4.9-2.1c-1.2-1.3-2-3.1-2-5.1c0-2,0.7-3.8,2-5.1c1.2-1.3,2.9-2.2,4.9-2.2
		c1.4,0,2.7,0.5,3.8,1.3c0.2-0.7,0.7-1.3,1.5-1.3c0.8,0,1.5,0.7,1.5,1.6V77.5z M469.8,80.5c0.5-0.7,1.5-0.8,2.2-0.2
		c0.7,0.6,2,1.3,3.2,1.3c0.8,0,1.5-0.3,2-0.5c0.4-0.3,0.5-0.6,0.5-0.9c0-0.1,0-0.2-0.1-0.3c0-0.1-0.1-0.2-0.4-0.3
		c-0.4-0.3-1.3-0.6-2.3-0.8h0c-0.9-0.2-1.8-0.4-2.5-0.8c-0.8-0.4-1.5-0.9-2-1.7c-0.3-0.5-0.5-1.2-0.5-1.8c0-1.3,0.7-2.4,1.7-3.2
		c1-0.7,2.2-1.1,3.5-1.1c2,0,3.4,1,4.3,1.6c0.7,0.5,0.9,1.4,0.5,2.1c-0.5,0.7-1.4,0.9-2.1,0.4c-0.9-0.6-1.7-1.1-2.7-1.1
		c-0.7,0-1.4,0.2-1.7,0.5c-0.4,0.3-0.5,0.5-0.5,0.7c0,0.1,0,0.1,0.1,0.2c0,0.1,0.1,0.2,0.3,0.3c0.4,0.3,1.1,0.5,2.1,0.7l0,0h0
		c1,0.2,1.8,0.4,2.7,0.8c0.8,0.3,1.6,0.9,2,1.7c0.3,0.6,0.5,1.2,0.5,1.9c0,1.4-0.8,2.6-1.8,3.3c-1,0.7-2.3,1.2-3.7,1.2
		c-2.2,0-4-1.1-5.1-2C469.4,82.1,469.3,81.2,469.8,80.5"/>
	<g transform="translate(450 27)">
		<defs>
			<filter id="Adobe_OpacityMaskFilter_1_" filterUnits="userSpaceOnUse" x="0.1" y="0.6" width="63.4" height="26">
				<feColorMatrix  type="matrix" values="1 0 0 0 0  0 1 0 0 0  0 0 1 0 0  0 0 0 1 0"/>
			</filter>
		</defs>
		<mask maskUnits="userSpaceOnUse" x="0.1" y="0.6" width="63.4" height="26" id="logo-d_1_">
			<g class="st11">
				<polygon id="logo-c_1_" class="st6" points="0.1,0.6 63.5,0.6 63.5,26.6 0.1,26.6 				"/>
			</g>
		</mask>
		<path class="st12" d="M51.6,26.6H12c-6.6,0-11.9-5.4-11.9-11.9v-2.1C0.1,6,5.4,0.6,12,0.6h39.5c6.6,0,11.9,5.3,11.9,11.9v2.1
			C63.5,21.3,58.2,26.6,51.6,26.6"/>
	</g>
	<g class="st13">
		<path class="st14" d="M475.1,41.1c0.3,0.3,0.4,0.8,0.4,1.3c0,1-0.3,1.6-0.8,2c-0.5,0.4-1.2,0.6-1.9,0.6h-3c-0.2,0-0.4-0.1-0.5-0.2
			c-0.1-0.1-0.2-0.3-0.2-0.5v-6.9c0-0.2,0.1-0.4,0.2-0.5c0.1-0.1,0.3-0.2,0.5-0.2h3c1.5,0,2.3,0.7,2.3,2.1c0,0.4-0.1,0.7-0.3,1
			c-0.2,0.3-0.4,0.5-0.7,0.7C474.5,40.5,474.9,40.7,475.1,41.1z M473.3,38.2c-0.2-0.2-0.4-0.2-0.7-0.2h-2v1.9h2
			c0.2,0,0.5-0.1,0.6-0.2c0.2-0.2,0.3-0.4,0.3-0.6C473.5,38.6,473.5,38.4,473.3,38.2z M473.7,43.3c0.2-0.2,0.3-0.5,0.3-0.9
			c0-0.5-0.1-0.8-0.4-0.9c-0.2-0.1-0.6-0.2-0.9-0.2h-2.1v2.3h2.2C473.2,43.6,473.4,43.5,473.7,43.3z"/>
		<path class="st14" d="M482.2,43.8c0.1,0.1,0.2,0.3,0.2,0.5c0,0.2-0.1,0.4-0.2,0.5c-0.1,0.1-0.3,0.2-0.5,0.2h-4
			c-0.2,0-0.4-0.1-0.5-0.2c-0.1-0.1-0.2-0.3-0.2-0.5v-6.9c0-0.2,0.1-0.4,0.2-0.5c0.1-0.1,0.3-0.2,0.5-0.2h4c0.2,0,0.4,0.1,0.5,0.2
			c0.1,0.1,0.2,0.3,0.2,0.5c0,0.2-0.1,0.4-0.2,0.5c-0.1,0.1-0.3,0.2-0.5,0.2h-3.3v2h2.7c0.2,0,0.4,0.1,0.5,0.2
			c0.1,0.1,0.2,0.3,0.2,0.5c0,0.2-0.1,0.4-0.2,0.5c-0.1,0.1-0.3,0.2-0.5,0.2h-2.7v2.2h3.3C481.9,43.6,482,43.7,482.2,43.8z"/>
	</g>
	<g class="st13">
		<path class="st14" d="M489.8,36.8c0.1,0.1,0.2,0.3,0.2,0.5s-0.1,0.4-0.2,0.5s-0.3,0.2-0.5,0.2h-1.9v6.3c0,0.2-0.1,0.4-0.2,0.5
			c-0.2,0.1-0.3,0.2-0.6,0.2s-0.4-0.1-0.6-0.2c-0.1-0.1-0.2-0.3-0.2-0.5V38H484c-0.2,0-0.4-0.1-0.5-0.2c-0.1-0.1-0.2-0.3-0.2-0.5
			c0-0.2,0.1-0.4,0.2-0.5s0.3-0.2,0.5-0.2h5.3C489.5,36.6,489.7,36.6,489.8,36.8z"/>
	</g>
	<g class="st13">
		<path class="st14" d="M496.7,44.3c0,0.2-0.1,0.4-0.2,0.5s-0.3,0.2-0.5,0.2c-0.1,0-0.3,0-0.4-0.1c-0.1-0.1-0.2-0.2-0.3-0.4
			l-0.6-1.5h-3.6l-0.6,1.5c-0.1,0.2-0.1,0.3-0.3,0.4s-0.2,0.1-0.4,0.1c-0.2,0-0.4-0.1-0.5-0.2c-0.1-0.1-0.2-0.3-0.2-0.5
			c0-0.1,0-0.1,0-0.2l3-7.2c0.1-0.2,0.2-0.3,0.3-0.4s0.3-0.1,0.4-0.1c0.1,0,0.3,0,0.4,0.1s0.2,0.2,0.3,0.4l3,7
			C496.7,44.1,496.7,44.2,496.7,44.3z M491.8,41.7h2.4l-1.2-2.8L491.8,41.7z"/>
	</g>
</g>
</svg>
