<svg id="Layer_1" data-name="Layer 1" xmlns="http://www.w3.org/2000/svg" viewBox="0 0 545.52 131.61"><defs><style>.cls-1{fill:#ce1e55;}.cls-2{fill:#e2215b;}.cls-3{fill:#079b7f;}.cls-4{fill:#00c9a2;}.cls-5{fill:#f2b700;}.cls-6{fill:#daa727;}.cls-7{fill:#0fa3cf;}.cls-8{fill:#13b3e2;}.cls-9{fill:#fff;}.cls-10{fill:none;}</style></defs><path class="cls-1" d="M52.07,27.32A27.21,27.21,0,0,1,98.51,8.08L60,46.57a27.14,27.14,0,0,1-8-19.25"/><path class="cls-2" d="M79.22,27.36A27.21,27.21,0,0,1,40.74,65.83Z"/><path class="cls-3" d="M59.94,112.24A27.2,27.2,0,0,1,40.71,65.8l38.48,38.48a27.17,27.17,0,0,1-19.25,8"/><path class="cls-4" d="M60.21,85.28a27.21,27.21,0,1,1,38.48,38.48Z"/><path class="cls-5" d="M110,85.3a27.2,27.2,0,0,1,46.44-19.24L118,104.54a27.17,27.17,0,0,1-8-19.24"/><path class="cls-6" d="M137.18,85.28a27.2,27.2,0,1,1-38.47,38.47Z"/><path class="cls-7" d="M137.19,19.63a27.21,27.21,0,0,1,19.24,46.44L117.94,27.59a27.16,27.16,0,0,1,19.25-8"/><path class="cls-8" d="M137,46.56A27.2,27.2,0,1,1,98.51,8.09Z"/><path class="cls-9" d="M183,82.79a1.57,1.57,0,1,1-3.14,0V66a1.57,1.57,0,0,1,.63-1.33,1.6,1.6,0,0,1,2.2.35L192,77.92V66a1.57,1.57,0,0,1,1.55-1.56A1.59,1.59,0,0,1,195.14,66V82.79a1.6,1.6,0,0,1-1.59,1.58,1.58,1.58,0,0,1-1.18-.57,1,1,0,0,1-.14-.17L183,70.82Z"/><path class="cls-9" d="M208.66,77.17a7.15,7.15,0,0,1,7-7.21,6.9,6.9,0,0,1,6.94,6.69v.14a.77.77,0,0,1,0,.26,1.38,1.38,0,0,1-1.5,1.15H212a3.73,3.73,0,0,0,1,1.91,4.42,4.42,0,0,0,2.77,1.29,4.66,4.66,0,0,0,3-.72,1.65,1.65,0,0,1,2.17-.08,1.32,1.32,0,0,1,0,1.87,7.29,7.29,0,0,1-5.16,1.9A7.15,7.15,0,0,1,208.66,77.17Zm3.14-1.42H220a4.71,4.71,0,0,0-4.26-3A4,4,0,0,0,211.8,75.75Z"/><path class="cls-9" d="M240.49,71.54a1.63,1.63,0,0,1-1.62,1.59h-.72v8.05a1.59,1.59,0,0,1,1.59,1.61,1.56,1.56,0,0,1-1.59,1.58,3.21,3.21,0,0,1-3.2-3.19V73.13h-.83a1.58,1.58,0,0,1-1.59-1.59A1.56,1.56,0,0,1,234.12,70H235V65.78a1.59,1.59,0,0,1,1.62-1.59,1.57,1.57,0,0,1,1.58,1.59V70h.72A1.6,1.6,0,0,1,240.49,71.54Z"/><path class="cls-9" d="M272,72.27l-4.76,11.18a2.29,2.29,0,0,1-.11.23,0,0,0,0,1,0,0,.59.59,0,0,1-.15.17s-.05,0-.05,0a.8.8,0,0,1-.18.15s0,0,0,.06a.8.8,0,0,1-.26.14s0,0,0,0a.78.78,0,0,0-.23.06h-.06a1.32,1.32,0,0,1-.29,0,1.14,1.14,0,0,1-.26,0h-.06a.39.39,0,0,0-.2-.06l0,0h0a.88.88,0,0,1-.26-.17v0c-.08,0-.11-.09-.17-.15s-.06,0-.06,0a.75.75,0,0,1-.14-.17,0,0,0,0,1,0,0,1.29,1.29,0,0,1-.12-.23l-2.1-5-2.05,5a1.58,1.58,0,0,1-.14.23v0l-.17.17a0,0,0,0,1,0,0l-.18.18a1,1,0,0,1-.26.17h-.05a0,0,0,0,0,0,0,.26.26,0,0,0-.17.06h-.06a1.57,1.57,0,0,1-.29,0,1.28,1.28,0,0,1-.29,0h-.09a.35.35,0,0,0-.17-.06s0,0-.06,0a.62.62,0,0,1-.26-.17s0,0,0,0a1.14,1.14,0,0,0-.18-.15l-.06,0s-.08-.11-.11-.17,0,0,0,0-.09-.17-.14-.23L252.8,72.27a1.49,1.49,0,0,1,.83-2,1.44,1.44,0,0,1,1.91.86l3.4,7.76,2-4.82a1.54,1.54,0,0,1,1.41-.92,1.49,1.49,0,0,1,1.41.92l2.05,4.82,3.4-7.76a1.44,1.44,0,0,1,1.93-.86A1.51,1.51,0,0,1,272,72.27Z"/><path class="cls-9" d="M286.82,82.27a7.2,7.2,0,0,1-2-5.07,7.44,7.44,0,0,1,2-5,6.74,6.74,0,0,1,5-2.19,6.38,6.38,0,0,1,4.81,2.19,7.2,7.2,0,0,1,2,5,7,7,0,0,1-2,5.07,6.35,6.35,0,0,1-4.81,2.19A6.7,6.7,0,0,1,286.82,82.27ZM288,77.2a4.65,4.65,0,0,0,1,3,3.91,3.91,0,0,0,2.77,1.07,3.78,3.78,0,0,0,2.65-1.07,4.4,4.4,0,0,0,1.12-3,4.33,4.33,0,0,0-1.12-3,4,4,0,0,0-2.65-1.1A4.16,4.16,0,0,0,289,74.2,4.57,4.57,0,0,0,288,77.2Z"/><path class="cls-9" d="M319.74,71.49A1.54,1.54,0,0,1,318.21,73a2.79,2.79,0,0,0-1.73.54A4.38,4.38,0,0,0,315.16,75,9.19,9.19,0,0,0,314,77.37v5.48a1.57,1.57,0,0,1-1.58,1.52,1.53,1.53,0,0,1-1.53-1.52V71.49a1.51,1.51,0,0,1,1.53-1.5,1.54,1.54,0,0,1,1.58,1.5v.2a4.73,4.73,0,0,1,.61-.58A6.33,6.33,0,0,1,318.21,70,1.49,1.49,0,0,1,319.74,71.49Z"/><path class="cls-9" d="M331.45,82.79v-17A1.58,1.58,0,0,1,333,64.19a1.61,1.61,0,0,1,1.62,1.59v10l5.91-5.91a1.62,1.62,0,0,1,2.24,0,1.56,1.56,0,0,1,0,2.25l-4.32,4.33,4.44,5.33a1.6,1.6,0,0,1-.23,2.25,1.51,1.51,0,0,1-1,.37,1.54,1.54,0,0,1-1.21-.57l-4.24-5.13-1.58,1.58v2.54A1.61,1.61,0,0,1,333,84.37,1.58,1.58,0,0,1,331.45,82.79Z"/><path class="cls-9" d="M371.52,74A10.58,10.58,0,0,1,382.1,63.62a10.74,10.74,0,0,1,6.66,2.25,1.65,1.65,0,0,1-2,2.62,7.17,7.17,0,0,0-4.64-1.59A7.62,7.62,0,0,0,376.91,69a7.12,7.12,0,0,0-2.11,5,7,7,0,0,0,2.11,5,7.62,7.62,0,0,0,5.19,2.08,7.23,7.23,0,0,0,4.64-1.59,1.76,1.76,0,0,1,2.31.32,1.71,1.71,0,0,1-.29,2.31,10.8,10.8,0,0,1-6.66,2.24A10.54,10.54,0,0,1,371.52,74Z"/><path class="cls-9" d="M414.44,77.2v5.65a1.53,1.53,0,0,1-1.52,1.52,1.56,1.56,0,0,1-1.5-1.24,6.54,6.54,0,0,1-3.84,1.24,6.68,6.68,0,0,1-4.9-2.1,7.37,7.37,0,0,1-2-5.07,7.29,7.29,0,0,1,2-5.08,6.66,6.66,0,0,1,4.9-2.16,6.57,6.57,0,0,1,3.84,1.27,1.57,1.57,0,0,1,1.5-1.27,1.54,1.54,0,0,1,1.52,1.56Zm-3.05,0a4.21,4.21,0,0,0-1.13-3,3.55,3.55,0,0,0-2.68-1.18,3.49,3.49,0,0,0-2.68,1.18,4.23,4.23,0,0,0-1.09,3,4.29,4.29,0,0,0,1.09,3,3.62,3.62,0,0,0,2.68,1.13,3.69,3.69,0,0,0,2.68-1.13A4.27,4.27,0,0,0,411.39,77.2Z"/><path class="cls-9" d="M439.76,76v6.89a1.52,1.52,0,0,1-1.5,1.52,1.55,1.55,0,0,1-1.53-1.52V76a3,3,0,0,0-3-2.91A2.87,2.87,0,0,0,430.85,76v6.89a.53.53,0,0,1-.06.28,1.57,1.57,0,0,1-1.53,1.24,1.51,1.51,0,0,1-1.52-1.52V71.49A1.52,1.52,0,0,1,429.26,70a1.58,1.58,0,0,1,1.42.89,5.8,5.8,0,0,1,3.05-.89A6,6,0,0,1,439.76,76Z"/><path class="cls-9" d="M464.15,72.27l-4.73,11.18a.49.49,0,0,1-.12.2,0,0,0,0,1,0,0,1.63,1.63,0,0,1-.17.2,0,0,0,0,1,0,0,1,1,0,0,1-.17.18,0,0,0,0,0,0,0,.72.72,0,0,1-.2.14h-.06v0a.56.56,0,0,0-.23.06h-.06a1.47,1.47,0,0,1-.28,0,1.38,1.38,0,0,1-.26,0h-.06a.71.71,0,0,0-.23-.06v0h-.06c-.09,0-.14-.09-.26-.14a0,0,0,0,0,0,0,.74.74,0,0,1-.17-.18s0,0-.06,0a1.86,1.86,0,0,0-.14-.2s0,0,0,0-.09-.11-.12-.2L452,72.27a1.5,1.5,0,1,1,2.77-1.13L458,79l3.34-7.84a1.44,1.44,0,0,1,1.93-.83A1.46,1.46,0,0,1,464.15,72.27Z"/><path class="cls-9" d="M488.94,77.2v5.65a1.53,1.53,0,0,1-1.53,1.52,1.57,1.57,0,0,1-1.5-1.24,6.51,6.51,0,0,1-3.83,1.24,6.68,6.68,0,0,1-4.9-2.1,7.37,7.37,0,0,1-2-5.07,7.29,7.29,0,0,1,2-5.08,6.66,6.66,0,0,1,4.9-2.16,6.54,6.54,0,0,1,3.83,1.27,1.57,1.57,0,0,1,1.5-1.27,1.54,1.54,0,0,1,1.53,1.56Zm-3.06,0a4.25,4.25,0,0,0-1.12-3,3.55,3.55,0,0,0-2.68-1.18,3.46,3.46,0,0,0-2.68,1.18,4.23,4.23,0,0,0-1.1,3,4.3,4.3,0,0,0,1.1,3,3.59,3.59,0,0,0,2.68,1.13,3.69,3.69,0,0,0,2.68-1.13A4.31,4.31,0,0,0,485.88,77.2Z"/><path class="cls-9" d="M501.83,80.25A1.5,1.5,0,0,1,504,80a5.26,5.26,0,0,0,3.17,1.27,3.82,3.82,0,0,0,2-.55,1.18,1.18,0,0,0,.52-.86.42.42,0,0,0-.09-.29c0-.09-.14-.2-.37-.35a6.69,6.69,0,0,0-2.31-.8h0a11.86,11.86,0,0,1-2.51-.75,4.84,4.84,0,0,1-2-1.68,3.43,3.43,0,0,1-.49-1.81,4,4,0,0,1,1.7-3.17A6.14,6.14,0,0,1,507.1,70a7.48,7.48,0,0,1,4.33,1.58,1.61,1.61,0,0,1,.46,2.14,1.53,1.53,0,0,1-2.14.4A5,5,0,0,0,507.1,73a3,3,0,0,0-1.73.51.89.89,0,0,0-.46.67.31.31,0,0,0,.06.23.76.76,0,0,0,.32.29,5.75,5.75,0,0,0,2.1.69l0,0h0a10.45,10.45,0,0,1,2.68.83,4.55,4.55,0,0,1,2,1.7,3.8,3.8,0,0,1,.54,1.91,4.14,4.14,0,0,1-1.81,3.34,6.58,6.58,0,0,1-3.75,1.15,8.32,8.32,0,0,1-5.13-2A1.54,1.54,0,0,1,501.83,80.25Z"/><rect id="Frame" class="cls-10" width="545.52" height="131.61"/></svg>