<?xml version="1.0" encoding="utf-8"?>
<!-- Generator: Adobe Illustrator 23.0.4, SVG Export Plug-In . SVG Version: 6.00 Build 0)  -->
<svg version="1.1" id="Layer_1" xmlns="http://www.w3.org/2000/svg" xmlns:xlink="http://www.w3.org/1999/xlink" x="0px" y="0px"
	 viewBox="0 0 172.4 142.5" style="enable-background:new 0 0 172.4 142.5;" xml:space="preserve">
<style type="text/css">
	.st0{fill:#CE1E55;}
	.st1{fill:#E2215B;}
	.st2{fill:#079B7F;}
	.st3{fill:#00C9A2;}
	.st4{fill:#F2B700;}
	.st5{fill:#DAA727;}
	.st6{fill:#0FA3CF;}
	.st7{fill:#13B3E2;}
	.st8{clip-path:url(#SVGID_2_);}
	.st9{clip-path:url(#SVGID_4_);}
	.st10{fill:#5E65EA;}
	.st11{enable-background:new    ;}
	.st12{fill:#F2F5F5;}
</style>
<title>NC-Mark</title>
<g>
	<path class="st0" d="M19.4,38c0-15,12.2-27.2,27.2-27.2c7.2,0,14.1,2.9,19.2,8L27.3,57.3C22.2,52.2,19.3,45.3,19.4,38"/>
	<path class="st1" d="M46.5,38.1C57.1,48.8,57,66,46.3,76.6C35.7,87,18.6,87,8,76.6L46.5,38.1z"/>
	<path class="st2" d="M27.2,123C12.2,123,0,110.8,0,95.8c0-7.2,2.9-14.2,8-19.3L46.5,115C41.4,120.1,34.4,123,27.2,123"/>
	<path class="st3" d="M27.5,96C38.1,85.3,55.3,85.2,66,95.8s10.8,27.8,0.2,38.5c-0.1,0.1-0.2,0.2-0.2,0.2L27.5,96z"/>
	<path class="st4" d="M77.3,96c0-15,12.2-27.2,27.2-27.2c7.2,0,14.1,2.9,19.3,8l-38.5,38.5C80.2,110.1,77.3,103.2,77.3,96"/>
	<path class="st5" d="M104.5,96c10.6,10.6,10.6,27.8,0,38.5s-27.8,10.6-38.5,0L104.5,96z"/>
	<path class="st6" d="M104.5,30.3c15,0,27.2,12.2,27.2,27.2c0,7.2-2.9,14.1-8,19.3L85.2,38.3C90.3,33.2,97.3,30.3,104.5,30.3"/>
	<path class="st7" d="M104.3,57.3C93.7,68,76.5,68.1,65.8,57.5S55,29.7,65.6,19c0.1-0.1,0.2-0.2,0.2-0.2L104.3,57.3z"/>
</g>
<g id="Beta">
	<g id="BetaTab">
		<g>
			<g>
				<defs>
					<rect id="SVGID_1_" x="109" width="63.4" height="26"/>
				</defs>
				<clipPath id="SVGID_2_">
					<use xlink:href="#SVGID_1_"  style="overflow:visible;"/>
				</clipPath>
				<g class="st8">
					<g>
						<g>
							<defs>
								<rect id="SVGID_3_" x="109" width="63.4" height="26"/>
							</defs>
							<clipPath id="SVGID_4_">
								<use xlink:href="#SVGID_3_"  style="overflow:visible;"/>
							</clipPath>
							<g class="st9">
								<path class="st10" d="M160.5,26H121c-6.6,0-11.9-5.4-11.9-11.9V12c0-6.6,5.3-12,11.9-12h39.5c6.6,0,11.9,5.3,11.9,11.9
									c0,0,0,0,0,0.1v2.1C172.5,20.7,167.2,26.1,160.5,26c0,0.1,0,0.1,0,0.1"/>
							</g>
						</g>
					</g>
					<g class="st11">
						<path class="st12" d="M133.1,13.5c0.3,0.3,0.4,0.8,0.4,1.3c0,1-0.3,1.6-0.8,2s-1.2,0.6-1.9,0.6h-3c-0.2,0-0.4-0.1-0.5-0.2
							s-0.2-0.3-0.2-0.5v-7c0-0.2,0.1-0.4,0.2-0.5c0.1-0.1,0.3-0.2,0.5-0.2h3c1.5,0,2.3,0.7,2.3,2.1c0,0.4-0.1,0.7-0.3,1
							s-0.4,0.5-0.7,0.7C132.5,12.9,132.8,13.1,133.1,13.5z M131.2,10.6c-0.2-0.2-0.4-0.2-0.7-0.2h-2v1.9h2c0.2,0,0.5-0.1,0.6-0.2
							c0.2-0.2,0.3-0.4,0.3-0.6C131.5,11,131.4,10.8,131.2,10.6z M131.6,15.7c0.2-0.2,0.3-0.5,0.3-0.9c0-0.5-0.1-0.8-0.4-0.9
							c-0.2-0.1-0.6-0.2-0.9-0.2h-2.1V16h2.2C131.1,16,131.4,15.9,131.6,15.7z"/>
						<path class="st12" d="M140.1,16.2c0.1,0.1,0.2,0.3,0.2,0.5s-0.1,0.4-0.2,0.5c-0.1,0.1-0.3,0.2-0.5,0.2h-4
							c-0.2,0-0.4-0.1-0.5-0.2s-0.2-0.3-0.2-0.5v-7c0-0.2,0.1-0.4,0.2-0.5c0.1-0.1,0.3-0.2,0.5-0.2h4c0.2,0,0.4,0.1,0.5,0.2
							c0.1,0.1,0.2,0.3,0.2,0.5s-0.1,0.4-0.2,0.5c-0.1,0.1-0.3,0.2-0.5,0.2h-3.3v2h2.7c0.2,0,0.4,0.1,0.5,0.2
							c0.1,0.1,0.2,0.3,0.2,0.5s-0.1,0.4-0.2,0.5c-0.1,0.1-0.3,0.2-0.5,0.2h-2.7V16h3.3C139.8,16,140,16,140.1,16.2z"/>
					</g>
					<g class="st11">
						<path class="st12" d="M147.8,9.1c0.1,0.1,0.2,0.3,0.2,0.5s-0.1,0.4-0.2,0.5s-0.3,0.2-0.5,0.2h-1.9v6.3c0,0.2-0.1,0.4-0.2,0.5
							c-0.2,0.1-0.3,0.2-0.6,0.2s-0.4-0.1-0.6-0.2c-0.1-0.1-0.2-0.3-0.2-0.5v-6.3h-1.9c-0.2,0-0.4-0.1-0.5-0.2
							c-0.1-0.1-0.2-0.3-0.2-0.5s0.1-0.4,0.2-0.5s0.3-0.2,0.5-0.2h5.3C147.5,8.9,147.6,9,147.8,9.1z"/>
					</g>
					<g class="st11">
						<path class="st12" d="M155.3,16.7c0,0.2-0.1,0.4-0.2,0.5c-0.1,0.1-0.3,0.2-0.5,0.2c-0.1,0-0.3,0-0.4-0.1s-0.2-0.2-0.3-0.4
							l-0.6-1.5h-3.6l-0.6,1.5c-0.1,0.2-0.1,0.3-0.3,0.4c-0.1,0.1-0.2,0.1-0.4,0.1s-0.4-0.1-0.5-0.2s-0.2-0.3-0.2-0.5
							c0-0.1,0-0.1,0-0.2l3-7.2c0.1-0.2,0.2-0.3,0.3-0.4c0.1-0.1,0.3-0.1,0.4-0.1c0.1,0,0.3,0,0.4,0.1s0.2,0.2,0.3,0.4l3,7
							C155.3,16.5,155.3,16.6,155.3,16.7z M150.4,14.1h2.4l-1.2-2.8L150.4,14.1z"/>
					</g>
				</g>
			</g>
		</g>
	</g>
</g>
</svg>
