<svg enable-background="new 0 0 514 132" viewBox="0 0 514 132" xmlns="http://www.w3.org/2000/svg"><g transform="translate(0 -.395)"><g clip-rule="evenodd" fill-rule="evenodd"><path d="m20.1 27.6c0-15 12.2-27.2 27.2-27.2 7.5 0 14.3 3 19.2 8l-38.5 38.4c-4.9-4.9-7.9-11.7-7.9-19.2" fill="#ce1e55"/><path d="m47.2 27.6c4.9 4.9 8 11.7 8 19.2 0 15-12.2 27.2-27.2 27.2-7.5 0-14.3-3-19.2-8z" fill="#e2215b"/><path d="m27.9 112.5c-15 0-27.2-12.2-27.2-27.2 0-7.5 3-14.3 8-19.2l38.5 38.5c-4.9 4.9-11.7 7.9-19.3 7.9" fill="#079b7f"/><path d="m28.2 85.6c4.9-4.9 11.7-8 19.2-8 15 0 27.2 12.2 27.2 27.2 0 7.5-3 14.3-8 19.2z" fill="#00c8a1"/><path d="m78 85.6c0-15 12.2-27.2 27.2-27.2 7.5 0 14.3 3 19.2 8l-38.4 38.4c-5-4.9-8-11.7-8-19.2" fill="#f2b600"/><path d="m39.2.6c4.9 4.9 8 11.7 8 19.2 0 15-12.2 27.2-27.3 27.2-7.5 0-14.3-3-19.2-8z" fill="#daa727" transform="translate(66 85)"/><path d="m105.2 19.9c15 0 27.2 12.2 27.2 27.2 0 7.5-3 14.3-8 19.2l-38.5-38.4c5-5 11.8-8 19.3-8" fill="#0fa3d0"/><path d="m105 46.8c-4.9 4.9-11.7 8-19.2 8-15 0-27.2-12.2-27.2-27.2 0-7.5 3-14.3 8-19.2z" fill="#13b3e2"/><path d="m151 83.1c0 .9-.7 1.6-1.6 1.6s-1.6-.7-1.6-1.6v-16.8c0-.5.2-1 .6-1.3.7-.5 1.7-.3 2.2.3l9.3 12.9v-11.9c0-.8.7-1.6 1.6-1.6s1.6.7 1.6 1.6v16.8c0 .9-.7 1.6-1.6 1.6-.5 0-.9-.2-1.2-.6-.1-.1-.1-.1-.1-.2l-9.2-12.8zm28.8-7.1h8.2c-.3-1.2-1.8-2.9-4.3-3.1-2.5.2-3.7 2-3.9 3.1m-3.1 1.4c0-3.9 3.1-7.2 7-7.2 3.7 0 6.7 2.8 6.9 6.7v.1.3c-.1.7-.7 1.2-1.5 1.2h-9.2c.1.7.5 1.4 1 1.9.6.7 1.8 1.2 2.8 1.3s2.3-.2 3-.7c.6-.6 1.8-.5 2.2-.1s.7 1.3 0 1.9c-1.4 1.3-3.1 1.9-5.2 1.9-4-.1-7-3.3-7-7.3m31.8-5.6c0 .9-.8 1.6-1.6 1.6h-.7v8c.9 0 1.6.7 1.6 1.6s-.7 1.6-1.6 1.6c-1.8 0-3.2-1.4-3.2-3.2v-8h-.8c-.9 0-1.6-.7-1.6-1.6s.7-1.6 1.6-1.6h.8v-4.2c0-.9.7-1.6 1.6-1.6s1.6.7 1.6 1.6v4.2h.7c.8 0 1.6.7 1.6 1.6m31.5.7-4.8 11.2c0 .1-.1.1-.1.2 0 .1-.1.1-.1.2h-.1c-.1.1-.1.1-.2.1v.1c-.1.1-.1.1-.3.1-.1 0-.1 0-.2.1h-.1c-.1 0-.2 0-.3 0s-.2 0-.3 0h-.1c-.1 0-.1-.1-.2-.1-.1 0-.2-.1-.3-.2-.1 0-.1-.1-.2-.1h-.1c-.1-.1-.1-.1-.1-.2-.1-.1-.1-.2-.1-.2l-2.1-5-2 5c0 .1-.1.1-.1.2-.1.1-.1.1-.2.2-.1.1-.1.1-.2.2s-.2.1-.3.2h-.1c-.1 0-.1 0-.2.1h-.1c-.1 0-.2 0-.3 0s-.2 0-.3 0h-.1c-.1 0-.1-.1-.2-.1 0 0 0 0-.1 0s-.2-.1-.3-.2-.1-.1-.2-.1h-.1c0-.1-.1-.1-.1-.2-.1-.1-.1-.2-.1-.2l-4.7-11.2c-.3-.8 0-1.6.8-2 .7-.3 1.6 0 1.9.9l3.4 7.8 2-4.8c.3-.6.8-.9 1.4-.9s1.2.3 1.4.9l2 4.8 3.4-7.8c.3-.8 1.2-1.2 1.9-.9 1.1.3 1.5 1.2 1.2 1.9m16 5c0 1.2.4 2.2 1 3.1.7.7 1.7 1.1 2.8 1.1 1 0 1.9-.4 2.7-1.1.7-.8 1.1-1.8 1.1-3.1 0-1.2-.4-2.2-1.1-3-.7-.6-1.6-1.1-2.7-1.1s-2 .5-2.8 1.1c-.7.8-1 1.8-1 3m-1.2 5c-1.2-1.3-2-3.1-2-5.1s.8-3.7 2-5c1.3-1.4 3-2.2 5-2.2 1.9 0 3.6.8 4.8 2.2 1.3 1.4 2 3.1 2 5 0 2-.7 3.8-2 5.1-1.2 1.4-2.9 2.2-4.8 2.2-2 0-3.7-.8-5-2.2m32.9-10.7c0 .8-.7 1.5-1.5 1.5-.7 0-1.2.2-1.7.5s-1 .8-1.3 1.4c-.7.9-1 2-1.2 2.4v5.5c0 .8-.7 1.5-1.6 1.5-.8 0-1.5-.7-1.5-1.5v-11.3c0-.8.7-1.5 1.5-1.5.9 0 1.6.7 1.6 1.5v.2c.2-.2.4-.4.6-.6 1-.6 2.2-1.2 3.6-1.1.9 0 1.5.6 1.5 1.5m11.7 11.3v-17c0-.9.7-1.6 1.6-1.6s1.6.7 1.6 1.6v10l5.9-5.9c.6-.6 1.6-.6 2.2 0s.6 1.6 0 2.2l-4.3 4.3 4.4 5.3c.5.7.5 1.7-.2 2.2-.3.3-.7.4-1 .4-.5 0-.9-.2-1.2-.6l-4.2-5.1-1.6 1.6v2.5c0 .9-.7 1.6-1.6 1.6-.9.1-1.6-.7-1.6-1.5m40.1-8.8c0-5.7 4.8-10.3 10.6-10.4 2.5 0 4.8.8 6.7 2.2.7.6.8 1.6.3 2.3-.6.7-1.6.8-2.3.3-1.3-1-2.9-1.6-4.6-1.6-2 0-3.8.8-5.2 2.1-1.3 1.3-2.1 3.1-2.1 5 0 2 .8 3.7 2.1 5 1.4 1.3 3.2 2.1 5.2 2.1 1.8 0 3.3-.5 4.6-1.6.7-.5 1.7-.4 2.3.3.5.7.4 1.8-.3 2.3-1.8 1.4-4.1 2.2-6.7 2.2-5.8.2-10.6-4.5-10.6-10.2m39.9 3.2c0-1.2-.4-2.2-1.1-3s-1.7-1.2-2.7-1.2-2 .4-2.7 1.2c-.7.7-1.1 1.8-1.1 3s.4 2.2 1.1 3c.7.7 1.6 1.1 2.7 1.1 1 0 2-.4 2.7-1.1.7-.8 1.1-1.8 1.1-3zm3 0v5.7c0 .8-.7 1.5-1.5 1.5-.7 0-1.3-.5-1.5-1.2-1.1.8-2.4 1.2-3.8 1.2-2 0-3.7-.8-4.9-2.1s-2-3.1-2-5.1.7-3.8 2-5.1c1.2-1.3 2.9-2.2 4.9-2.2 1.4 0 2.7.5 3.8 1.3.2-.7.8-1.3 1.5-1.3.8 0 1.5.7 1.5 1.6zm25.4-1.3v6.9c0 .8-.7 1.5-1.5 1.5s-1.5-.7-1.5-1.5v-6.9c0-1.6-1.4-2.9-3-2.9s-2.9 1.3-2.9 2.9v6.9c0 .1 0 .2-.1.3-.1.7-.8 1.2-1.5 1.2-.9 0-1.5-.7-1.5-1.5v-6.9-4.5c0-.8.7-1.5 1.5-1.5.6 0 1.2.3 1.4.9.9-.5 1.9-.9 3.1-.9 3.3 0 6 2.8 6 6m24.3-3.7-4.7 11.2c0 .1-.1.2-.1.2-.1.1-.1.1-.2.2-.1.1-.1.1-.2.2-.1.1-.1.1-.2.1h-.1c-.1 0-.2 0-.2.1h-.1c-.1 0-.2 0-.3 0s-.1 0-.3 0h-.1c-.1 0-.1-.1-.2-.1h-.1c-.1 0-.1-.1-.3-.1-.1-.1-.1-.1-.2-.2 0 0 0 0-.1 0 0-.1-.1-.1-.1-.2-.1 0-.1-.1-.1-.2l-4.5-11.2c-.3-.8 0-1.6.8-2 .7-.3 1.6.1 1.9.8l3.3 7.8 3.3-7.8c.3-.8 1.2-1.2 1.9-.8.9.4 1.3 1.3.9 2m21.8 5c0-1.2-.4-2.2-1.1-3s-1.7-1.2-2.7-1.2-2 .4-2.7 1.2c-.7.7-1.1 1.8-1.1 3s.4 2.2 1.1 3c.7.7 1.6 1.1 2.7 1.1 1 0 2-.4 2.7-1.1.7-.8 1.1-1.8 1.1-3zm3 0v5.7c0 .8-.7 1.5-1.5 1.5-.7 0-1.3-.5-1.5-1.2-1.1.8-2.4 1.2-3.8 1.2-2 0-3.7-.8-4.9-2.1s-2-3.1-2-5.1.7-3.8 2-5.1c1.2-1.3 2.9-2.2 4.9-2.2 1.4 0 2.7.5 3.8 1.3.2-.7.7-1.3 1.5-1.3s1.5.7 1.5 1.6zm12.9 3c.5-.7 1.5-.8 2.2-.2s2 1.3 3.2 1.3c.8 0 1.5-.3 2-.5.4-.3.5-.6.5-.9 0-.1 0-.2-.1-.3 0-.1-.1-.2-.4-.3-.4-.3-1.3-.6-2.3-.8-.9-.2-1.8-.4-2.5-.8-.8-.4-1.5-.9-2-1.7-.3-.5-.5-1.2-.5-1.8 0-1.3.7-2.4 1.7-3.2 1-.7 2.2-1.1 3.5-1.1 2 0 3.4 1 4.3 1.6.7.5.9 1.4.5 2.1-.5.7-1.4.9-2.1.4-.9-.6-1.7-1.1-2.7-1.1-.7 0-1.4.2-1.7.5-.4.3-.5.5-.5.7 0 .1 0 .1.1.2 0 .1.1.2.3.3.4.3 1.1.5 2.1.7 1 .2 1.8.4 2.7.8.8.3 1.6.9 2 1.7.3.6.5 1.2.5 1.9 0 1.4-.8 2.6-1.8 3.3s-2.3 1.2-3.7 1.2c-2.2 0-4-1.1-5.1-2-.6-.4-.7-1.3-.2-2" fill="#15142a"/><path d="m51.6 26.6h-39.6c-6.6 0-11.9-5.4-11.9-11.9v-2.1c0-6.6 5.3-12 11.9-12h39.5c6.6 0 11.9 5.3 11.9 11.9v2.1c.1 6.7-5.2 12-11.8 12" fill="#5d64e9" transform="translate(450 27)"/></g><g enable-background="new" fill="#f2f5f5"><path d="m475.1 41.1c.3.3.4.8.4 1.3 0 1-.3 1.6-.8 2s-1.2.6-1.9.6h-3c-.2 0-.4-.1-.5-.2s-.2-.3-.2-.5v-6.9c0-.2.1-.4.2-.5s.3-.2.5-.2h3c1.5 0 2.3.7 2.3 2.1 0 .4-.1.7-.3 1s-.4.5-.7.7c.4 0 .8.2 1 .6zm-1.8-2.9c-.2-.2-.4-.2-.7-.2h-2v1.9h2c.2 0 .5-.1.6-.2.2-.2.3-.4.3-.6 0-.5 0-.7-.2-.9zm.4 5.1c.2-.2.3-.5.3-.9 0-.5-.1-.8-.4-.9-.2-.1-.6-.2-.9-.2h-2.1v2.3h2.2c.4 0 .6-.1.9-.3z"/><path d="m482.2 43.8c.1.1.2.3.2.5s-.1.4-.2.5-.3.2-.5.2h-4c-.2 0-.4-.1-.5-.2s-.2-.3-.2-.5v-6.9c0-.2.1-.4.2-.5s.3-.2.5-.2h4c.2 0 .4.1.5.2s.2.3.2.5-.1.4-.2.5-.3.2-.5.2h-3.3v2h2.7c.2 0 .4.1.5.2s.2.3.2.5-.1.4-.2.5-.3.2-.5.2h-2.7v2.2h3.3c.2-.1.3 0 .5.1z"/></g><path d="m489.8 36.8c.1.1.2.3.2.5s-.1.4-.2.5-.3.2-.5.2h-1.9v6.3c0 .2-.1.4-.2.5-.2.1-.3.2-.6.2s-.4-.1-.6-.2c-.1-.1-.2-.3-.2-.5v-6.3h-1.8c-.2 0-.4-.1-.5-.2s-.2-.3-.2-.5.1-.4.2-.5.3-.2.5-.2h5.3c.2 0 .4 0 .5.2z" fill="#f2f5f5"/><path d="m496.7 44.3c0 .2-.1.4-.2.5s-.3.2-.5.2c-.1 0-.3 0-.4-.1s-.2-.2-.3-.4l-.6-1.5h-3.6l-.6 1.5c-.1.2-.1.3-.3.4s-.2.1-.4.1-.4-.1-.5-.2-.2-.3-.2-.5c0-.1 0-.1 0-.2l3-7.2c.1-.2.2-.3.3-.4s.3-.1.4-.1.3 0 .4.1.2.2.3.4l3 7c.2.2.2.3.2.4zm-4.9-2.6h2.4l-1.2-2.8z" fill="#f2f5f5"/></g></svg>