<svg id="Layer_1" data-name="Layer 1" xmlns="http://www.w3.org/2000/svg" width="1016mm" height="635mm" viewBox="0 0 2880 1800"><title>next-bg</title><path d="M0,0H2896.8V1799.7H0Z" style="fill:#f2f6f7"/><g style="opacity:0.03"><path d="M96.9,137.1a17.88,17.88,0,1,1,4.3-.6,15.4,15.4,0,0,1-4.3.6Zm0-29.2a11.6,11.6,0,1,0,11.6,11.6,9.67,9.67,0,0,0-.4-2.9A11.56,11.56,0,0,0,96.9,107.9ZM110,187.7a17.78,17.78,0,1,1,4.4-.6,13,13,0,0,1-4.4.6Zm0-29.2a9.25,9.25,0,0,0-2.9.4,11.38,11.38,0,1,0,2.9-.4Zm-63.7-8.4a17.46,17.46,0,1,1,4.4-.5A21.18,21.18,0,0,1,46.3,150.1ZM35.1,135.3a11.57,11.57,0,1,0,8.3-14.1A11.55,11.55,0,0,0,35.1,135.3Z" style="fill:#5e65ea"/><path d="M97.6,134.3l5.9-1.5,5.8,22.4-5.9,1.5Z" style="fill:#5e65ea"/><path d="M59.6,125.9,82,120.1l1.5,5.9-22.4,5.8Z" style="fill:#5e65ea"/><path d="M64.1,431.5A17.11,17.11,0,0,1,47,414.3a17.56,17.56,0,0,1,4.4-11.5A17.2,17.2,0,0,1,76.8,426a17,17,0,0,1-11.9,5.6Zm0-28.3h-.5a10.79,10.79,0,0,0-7.7,3.6,11.11,11.11,0,1,0,15.7-.7A11,11,0,0,0,64.1,403.2ZM30,469.1a17.25,17.25,0,1,1,12.8-5.7A17.68,17.68,0,0,1,30,469.1Zm-8.2-24.7a11.12,11.12,0,1,0,15.8-.8A11.09,11.09,0,0,0,21.8,444.4Zm4.8-47a17.2,17.2,0,0,1-12.7-28.8A17,17,0,0,1,25.8,363a17.27,17.27,0,0,1,13.6,28.8,17.58,17.58,0,0,1-12.8,5.6Zm-8.3-24.8a11.64,11.64,0,1,0,.2-.2c-.1.2-.1.2-.2.2Z" style="fill:#5e65ea"/><path d="M37.3,439.3l15.1-16.6,4.5,4.1L41.8,443.4Z" style="fill:#5e65ea"/><path d="M35,392l4.1-4.5,16.6,15.1-4.1,4.5Z" style="fill:#5e65ea"/><path d="M60.7,359.8a17.25,17.25,0,1,1,12.7-5.7A16.78,16.78,0,0,1,60.7,359.8Zm-7.5-8.9a11.12,11.12,0,1,0-.8-15.7A11.09,11.09,0,0,0,53.2,350.9Zm76.5,71.6a17.25,17.25,0,1,1,12.7-5.7A16.63,16.63,0,0,1,129.7,422.5Zm-7.5-8.9a11.12,11.12,0,1,0-.8-15.8A11.3,11.3,0,0,0,122.2,413.6ZM26.6,397.4a17.15,17.15,0,1,1,12.7-5.6A17,17,0,0,1,26.6,397.4Zm0-28.3a11.1,11.1,0,1,0,7.5,2.9A11.14,11.14,0,0,0,26.6,369.1Z" style="fill:#5e65ea"/><path d="M69.1,354.4l4.1-4.5,48,43.7-4.1,4.5Z" style="fill:#5e65ea"/><path d="M33.8,367.6,48.9,351l4.5,4.1L38.3,371.7Z" style="fill:#5e65ea"/><path d="M52,692.2h-.9a17.62,17.62,0,1,1,18.4-16.7A17.36,17.36,0,0,1,52,692.2ZM52,663a11.6,11.6,0,1,0,.6,0Zm2.6-23h-.9a18.1,18.1,0,1,1,.9,0Zm0-29.2a11.56,11.56,0,0,0-.5,23.1,11.8,11.8,0,0,0,12.1-11,11.6,11.6,0,0,0-11-12.1Zm49.7,84h-.9a18.1,18.1,0,1,1,.9,0Zm0-29.2a11.6,11.6,0,0,0,0,23.2,11.61,11.61,0,0,0,.5-23.2Z" style="fill:#5e65ea"/><path d="M49.7,659.8l1.1-23.1,6.1.3-1.1,23.1Z" style="fill:#5e65ea"/><path d="M66.5,678.4l.3-6.1,23.1,1.1-.3,6.1Z" style="fill:#5e65ea"/><path d="M96.4,938.8a17.2,17.2,0,0,1,0-34.4h.3a17.2,17.2,0,0,1-.3,34.4Zm0-28.3a10.9,10.9,0,1,0,.2,0Zm35.2,64.9a17,17,0,0,1-12.4-5.3,17.19,17.19,0,1,1,24.3.4,16.63,16.63,0,0,1-11.9,4.9Zm0-28.3a11.17,11.17,0,0,0-8.1,18.9,11.1,11.1,0,0,0,16-15.4,10.82,10.82,0,0,0-7.8-3.4ZM59.8,974a17,17,0,0,1-12.4-5.3,17.19,17.19,0,1,1,24.3.4A16.88,16.88,0,0,1,59.8,974Zm-8-9.5A11.1,11.1,0,1,0,60,945.7a11.55,11.55,0,0,0-7.9,3.1,11.07,11.07,0,0,0-.3,15.7Z" style="fill:#5e65ea"/><path d="M104,934l4.4-4.2L123.9,946l-4.4,4.2Z" style="fill:#5e65ea"/><path d="M67.9,944.9l16.2-15.5,4.2,4.4L72.1,949.3Z" style="fill:#5e65ea"/><path d="M24.7,937.4h-.3a17.2,17.2,0,1,1,17.5-16.9,16.9,16.9,0,0,1-5.3,12A16.8,16.8,0,0,1,24.7,937.4Zm0-28.3a11.1,11.1,0,1,0-.2,22.2,11.55,11.55,0,0,0,7.9-3.1,11.1,11.1,0,0,0-7.5-19.1Zm67.2-36.3h-.3a17.2,17.2,0,1,1,17.5-16.9,17.42,17.42,0,0,1-17.2,16.9Zm0-28.3a11.1,11.1,0,1,0,8,3.4,11.14,11.14,0,0,0-8-3.4ZM59.8,974a17.23,17.23,0,1,1,11.9-4.8A17,17,0,0,1,59.8,974Zm0-28.3a10.9,10.9,0,1,0,.2,0Z" style="fill:#5e65ea"/><path d="M32.7,908.3l46.8-45,4.2,4.4-46.8,45Z" style="fill:#5e65ea"/><path d="M32.3,932.5l4.4-4.2,15.5,16.2-4.4,4.2Z" style="fill:#5e65ea"/><path d="M96.9,1151.7a17.88,17.88,0,1,1,4.3-.6,15.4,15.4,0,0,1-4.3.6Zm0-29.2a11.6,11.6,0,1,0,11.6,11.6,9.67,9.67,0,0,0-.4-2.9A11.56,11.56,0,0,0,96.9,1122.5Zm13.1,79.9a17.78,17.78,0,1,1,4.4-.6A16.11,16.11,0,0,1,110,1202.4Zm0-29.3a9.25,9.25,0,0,0-2.9.4,11.38,11.38,0,1,0,2.9-.4Zm-63.7-8.3a17.46,17.46,0,1,1,4.4-.5A21.18,21.18,0,0,1,46.3,1164.8ZM35.1,1150a11.57,11.57,0,1,0,8.3-14.1A11.55,11.55,0,0,0,35.1,1150Z" style="fill:#5e65ea"/><path d="M97.7,1148.9l5.9-1.5,5.8,22.4-5.9,1.5Z" style="fill:#5e65ea"/><path d="M59.6,1140.6l22.4-5.8,1.5,5.9-22.4,5.8Z" style="fill:#5e65ea"/><path d="M64.1,1446.2a17.2,17.2,0,1,1,12.7-5.6,17,17,0,0,1-11.9,5.6Zm0-28.4h-.5a10.79,10.79,0,0,0-7.7,3.6,11.11,11.11,0,1,0,15.7-.7A11.52,11.52,0,0,0,64.1,1417.8ZM30,1483.7a17.25,17.25,0,1,1,12.8-5.7,17.2,17.2,0,0,1-12.8,5.7ZM21.8,1459a11.12,11.12,0,1,0,15.8-.8A11.29,11.29,0,0,0,21.8,1459Zm4.8-47a17.2,17.2,0,0,1-12.7-28.8,17,17,0,0,1,11.9-5.6,17.27,17.27,0,0,1,13.6,28.8,17.58,17.58,0,0,1-12.8,5.6Zm-8.3-24.7a11.64,11.64,0,1,0,.2-.2c-.1.2-.1.2-.2.2Z" style="fill:#5e65ea"/><path d="M37.3,1453.9l15.1-16.6,4.5,4.1L41.8,1458Z" style="fill:#5e65ea"/><path d="M35,1406.6l4.1-4.5,16.6,15.1-4.1,4.5Z" style="fill:#5e65ea"/><path d="M60.7,1374.5a17.25,17.25,0,1,1,12.7-5.7A17.22,17.22,0,0,1,60.7,1374.5Zm-7.5-9a11.12,11.12,0,1,0-.8-15.7A11.09,11.09,0,0,0,53.2,1365.5Zm76.5,71.7a17.25,17.25,0,1,1,12.7-5.7A17,17,0,0,1,129.7,1437.2Zm-7.5-9a11.12,11.12,0,1,0-.8-15.8A11.3,11.3,0,0,0,122.2,1428.2ZM26.6,1412a17.15,17.15,0,1,1,12.7-5.6A16.69,16.69,0,0,1,26.6,1412Zm0-28.3a11.1,11.1,0,1,0,7.5,2.9A11.14,11.14,0,0,0,26.6,1383.7Z" style="fill:#5e65ea"/><path d="M69.2,1369l4.1-4.5,48,43.7-4.1,4.5Z" style="fill:#5e65ea"/><path d="M33.9,1382.2,49,1365.6l4.5,4.1-15.1,16.6Z" style="fill:#5e65ea"/><path d="M52,1706.9h-.9a17.62,17.62,0,1,1,18.4-16.7A17.43,17.43,0,0,1,52,1706.9Zm0-29.2a11.6,11.6,0,1,0,.6,0Zm2.6-23.1h-.9a18.1,18.1,0,1,1,.9,0Zm0-29.2a11.56,11.56,0,0,0-.5,23.1,11.8,11.8,0,0,0,12.1-11,11.6,11.6,0,0,0-11-12.1Zm49.7,84h-.9a17.67,17.67,0,1,1,18.5-16.8A17.6,17.6,0,0,1,104.3,1709.4Zm0-29.2a11.6,11.6,0,1,0,0,23.2,11.61,11.61,0,0,0,.5-23.2Z" style="fill:#5e65ea"/><path d="M49.7,1674.4l1.1-23.1,6.1.3-1.1,23.1Z" style="fill:#5e65ea"/><path d="M66.5,1693l.3-6.1,23.1,1.1-.3,6.1Z" style="fill:#5e65ea"/><path d="M443.6,525.9l21.2-21.2,4.3,4.3-21.2,21.2Z" style="fill:#5e65ea"/><path d="M454.3,536.7l21.2-21.2,4.3,4.3L458.6,541Z" style="fill:#5e65ea"/><path d="M190.5,268.8l4.3-4.3L216,285.7l-4.3,4.3Z" style="fill:#5e65ea"/><path d="M201.2,258.1l4.3-4.3L226.7,275l-4.3,4.3Z" style="fill:#5e65ea"/><path d="M707.3,258.1l4.3-4.3L732.8,275l-4.3,4.3Z" style="fill:#5e65ea"/><path d="M696.6,268.8l4.3-4.3,21.2,21.2-4.3,4.3Z" style="fill:#5e65ea"/><path d="M198.8,8.5a13.86,13.86,0,1,0,19.6,0A13.88,13.88,0,0,0,198.8,8.5Zm17.6,9.7a7.75,7.75,0,1,1-7.7-7.8,7.81,7.81,0,0,1,5.5,2.3A8.15,8.15,0,0,1,216.4,18.2Z" style="fill:#5e65ea"/><path d="M443.6,21.4,464.8.2l4.3,4.3L447.9,25.7Z" style="fill:#5e65ea"/><path d="M454.3,32.1l21.2-21.2,4.3,4.3L458.6,36.4Z" style="fill:#5e65ea"/><path d="M728.4,18.2c0-.5-.1-1-.1-1.5a3.18,3.18,0,0,0-.3-.9,10.93,10.93,0,0,0-.5-1.7,4.05,4.05,0,0,0-.5-.9,10.93,10.93,0,0,0-.8-1.5c-.2-.3-.5-.6-.8-1a10.59,10.59,0,0,0-1-1.2,9.38,9.38,0,0,0-1.2-.9,3.92,3.92,0,0,0-1-.8,9.14,9.14,0,0,0-1.4-.7,3.13,3.13,0,0,0-1-.5,8.33,8.33,0,0,0-1.5-.4,3.81,3.81,0,0,1-1-.3,6.6,6.6,0,0,0-1.4-.1c-.4,0-.8-.1-1.2-.1a4.87,4.87,0,0,0-1.2.1c-.5,0-1,.1-1.4.1a2.93,2.93,0,0,0-1,.3c-.5.1-1,.3-1.5.4a4.67,4.67,0,0,0-1,.5c-.5.2-1,.5-1.4.7a3.92,3.92,0,0,0-1,.8,10.63,10.63,0,0,0-1.1.9,10.59,10.59,0,0,0-1,1.2,3.92,3.92,0,0,0-.8,1,10.93,10.93,0,0,0-.8,1.5,4.05,4.05,0,0,1-.5.9,10.93,10.93,0,0,0-.5,1.7,3.18,3.18,0,0,1-.3.9,7.57,7.57,0,0,0-.1,1.5c0,.4-.1.7-.1,1.1a4.1,4.1,0,0,0,.1,1.1c0,.5.1,1,.1,1.5a1.42,1.42,0,0,0,.2.6,6.64,6.64,0,0,0,.6,2A13.73,13.73,0,0,0,714.8,33a14,14,0,0,0,12.8-8.5c.2-.7.4-1.3.6-2a1.42,1.42,0,0,1,.2-.6,7.57,7.57,0,0,0,.1-1.5c0-.4.1-.7.1-1.1a4.25,4.25,0,0,0-.2-1.1Zm-6,2.6c-.1.4-.2.8-.3,1.1v.3a5.94,5.94,0,0,1-.4.8.85.85,0,0,1-.3.5c-.1.1-.3.4-.5.6s-.3.4-.5.6a7.85,7.85,0,0,1-11,0c-.2-.2-.3-.4-.5-.6s-.3-.4-.5-.6-.2-.3-.3-.5a5.9,5.9,0,0,1-.4-.8v-.3a6.15,6.15,0,0,1-.3-1.1,8,8,0,0,1,.4-4.3,10.91,10.91,0,0,1,.6-1.1l.1-.2a10.59,10.59,0,0,1,1-1.2c.2-.2.4-.3.5-.5a1.79,1.79,0,0,1,.7-.5l.3-.2a7.61,7.61,0,0,1,8.2.2c.2.1.3.3.5.4s.5.4.8.6a10.59,10.59,0,0,1,1,1.2l.1.2c.2.4.4.7.6,1.1a7.87,7.87,0,0,1,.4,4.3c-.1,0-.2,0-.2-.1Z" style="fill:#5e65ea"/><path d="M947.6,21.3,968.8.1l4.3,4.3L951.9,25.6Z" style="fill:#5e65ea"/><path d="M958.2,32l21.2-21.2,4.3,4.3L962.5,36.3Z" style="fill:#5e65ea"/><path d="M947.6,525.9l21.2-21.2,4.3,4.3-21.2,21.2Z" style="fill:#5e65ea"/><path d="M958.4,536.7l21.2-21.2,4.3,4.3L962.7,541Z" style="fill:#5e65ea"/><path d="M463.8,284.8a13.8,13.8,0,1,1,9.8-4,14.56,14.56,0,0,1-9.8,4Zm0-21.6a7.76,7.76,0,1,0-.7,15.5h.8a7.79,7.79,0,0,0,7.4-8.1,8.13,8.13,0,0,0-7.5-7.4Zm502.8,21.6a13.8,13.8,0,1,1,9.8-4,14.19,14.19,0,0,1-9.8,4Zm0-21.6a7.76,7.76,0,1,0-.7,15.5h.8a7.79,7.79,0,0,0,7.4-8.1,8,8,0,0,0-7.5-7.4ZM714.7,536.7a13.8,13.8,0,1,1,9.8-4A14.65,14.65,0,0,1,714.7,536.7Zm0-21.6a7.76,7.76,0,1,0-.7,15.5h.8a7.79,7.79,0,0,0,7.4-8.1,8,8,0,0,0-7.5-7.4ZM208.6,536.3a13.8,13.8,0,1,1,9.8-4A14.65,14.65,0,0,1,208.6,536.3Zm0-21.6a7.76,7.76,0,1,0-.7,15.5h.8a7.79,7.79,0,0,0,7.4-8.1,7.89,7.89,0,0,0-7.5-7.4ZM335.3,158h-.1a17.25,17.25,0,0,1,.1-34.5h.1a17.25,17.25,0,1,1-.1,34.5Zm0-28.3a11.1,11.1,0,1,0,11.1,11.1A11.14,11.14,0,0,0,335.3,129.7Zm50.8,28.6H386A17.28,17.28,0,0,1,368.8,141a17.24,17.24,0,0,1,17.4-17.2,17.26,17.26,0,0,1-.1,34.5Zm0-6a7.85,7.85,0,1,1,.1-.1ZM335,208.8h-.1a17.21,17.21,0,0,1,.1-34.4h.1a17.21,17.21,0,0,1-.1,34.4Zm0-6.1a11.1,11.1,0,1,0-11.1-11.1A11,11,0,0,0,335,202.7Z" style="fill:#5e65ea"/><path d="M349.4,143.9v-6.1l22.4.1V144Z" style="fill:#5e65ea"/><path d="M332,177.4l.1-22.4h6.1l-.1,22.4Z" style="fill:#5e65ea"/><path d="M284.2,208.4h-.1a17.25,17.25,0,1,1,.1,0Zm0-28.3a11.1,11.1,0,1,0,11.1,11.1A11.14,11.14,0,0,0,284.2,180.1Zm.6-64.9h-.1a17.21,17.21,0,0,1,.1-34.4h.1a17.2,17.2,0,0,1-.1,34.4Zm0-28.3A11.1,11.1,0,1,0,295.9,98,11,11,0,0,0,284.8,86.9ZM335,208.8h-.1a17.21,17.21,0,0,1,.1-34.4h.1a17.2,17.2,0,0,1-.1,34.4Zm0-28.4a11.1,11.1,0,1,0,11.1,11.1A11.14,11.14,0,0,0,335,180.4Z" style="fill:#5e65ea"/><path d="M281.2,177l.4-64.9h6.1l-.4,64.9Z" style="fill:#5e65ea"/><path d="M298.3,194.3v-6.1l22.4.1v6.1Z" style="fill:#5e65ea"/><path d="M613.3,183.1a18.11,18.11,0,1,1,3.4-.4A13.69,13.69,0,0,1,613.3,183.1Zm0-29.2a16.35,16.35,0,0,0-2.2.2,11.55,11.55,0,1,0,13.5,9.2A11.75,11.75,0,0,0,613.3,153.9Zm-51.4,39.2a17.57,17.57,0,1,1,3.4-.3A19.53,19.53,0,0,1,561.9,193.1Zm0-29.2a16.35,16.35,0,0,0-2.2.2,11.56,11.56,0,1,0,2.2-.2Zm41.5-32.1a17.53,17.53,0,1,1,3.4-.3A20.41,20.41,0,0,1,603.4,131.8Zm0-29.2a16.35,16.35,0,0,0-2.2.2,11.56,11.56,0,1,0,2.2-.2Z" style="fill:#5e65ea"/><path d="M573.5,169l22.6-4.6,1.2,6L574.7,175Z" style="fill:#5e65ea"/><path d="M603.2,129.1l6-1.2,4.4,22.7-6,1.2Z" style="fill:#5e65ea"/><path d="M850.5,164.6a17.71,17.71,0,1,1,2.1-.2,7.14,7.14,0,0,1-2.1.2Zm-11-15.8a11.09,11.09,0,1,0,9.6-12.4A11.05,11.05,0,0,0,839.5,148.8ZM856.8,215a17.71,17.71,0,1,1,2.1-.2,14.92,14.92,0,0,1-2.1.2Zm-11-15.9a11.09,11.09,0,1,0,9.6-12.4A11.05,11.05,0,0,0,845.8,199.1Zm-45.6-28.2a17.7,17.7,0,1,1,2.2-.2A8.58,8.58,0,0,1,800.2,170.9Zm0-28.3h-1.4a11.12,11.12,0,1,0,1.4,0Z" style="fill:#5e65ea"/><path d="M849.3,161.9l6-.8,2.8,22.3-6,.8Z" style="fill:#5e65ea"/><path d="M813.9,149.1l22.3-2.8.8,6-22.3,2.8Z" style="fill:#5e65ea"/><path d="M793.8,120.6a17,17,0,1,1,2.2-.1C795.3,120.5,794.6,120.6,793.8,120.6Zm0-28.4h-1.4a11.2,11.2,0,0,0-9.7,12.4,11.18,11.18,0,0,0,12.4,9.7,11.08,11.08,0,0,0,9.4-12.6A11,11,0,0,0,793.8,92.2ZM886.3,109a16.87,16.87,0,1,1,2.2-.1C887.8,108.9,887.1,109,886.3,109Zm0-28.3h-1.4a11.13,11.13,0,0,0,2.7,22.1A11.08,11.08,0,0,0,897,90.2,10.89,10.89,0,0,0,886.3,80.7Zm-86.1,90.2a17.7,17.7,0,1,1,2.2-.2A8.58,8.58,0,0,1,800.2,170.9Zm0-28.3h-1.4a11.13,11.13,0,0,0,2.7,22.1,11.08,11.08,0,0,0,9.4-12.6,11,11,0,0,0-10.7-9.5Z" style="fill:#5e65ea"/><path d="M807.6,98.7,872,90.6l.8,6-64.4,8.1Z" style="fill:#5e65ea"/><path d="M792.6,117.9l6-.8,2.8,22.3-6,.8Z" style="fill:#5e65ea"/><path d="M1111.4,137.1a17.51,17.51,0,1,1,4.2-.5,19.31,19.31,0,0,1-4.2.5Zm0-29.2a11.6,11.6,0,1,0,11.6,11.6,9.67,9.67,0,0,0-.4-2.9A11.62,11.62,0,0,0,1111.4,107.9Zm13.1,79.8a17.78,17.78,0,1,1,4.4-.6,13.72,13.72,0,0,1-4.4.6Zm0-29.2a9.25,9.25,0,0,0-2.9.4,11.44,11.44,0,1,0,14,8.1A11.55,11.55,0,0,0,1124.5,158.5Zm-63.8-8.4a17.46,17.46,0,1,1,4.4-.5A21.18,21.18,0,0,1,1060.7,150.1Zm-11.2-14.8a11.57,11.57,0,1,0,8.4-14.2A11.94,11.94,0,0,0,1049.5,135.3Z" style="fill:#5e65ea"/><path d="M1112.1,134.2l5.9-1.5,5.8,22.4-5.9,1.5Z" style="fill:#5e65ea"/><path d="M1074.1,126l22.4-5.8,1.5,5.9-22.4,5.8Z" style="fill:#5e65ea"/><path d="M361.3,441a17.6,17.6,0,1,1,17.6-17.6A17.63,17.63,0,0,1,361.3,441Zm0-29.2a11.55,11.55,0,1,0-.1,23.1h.1a11.55,11.55,0,1,0,0-23.1Zm0-23.1a17.6,17.6,0,1,1,17.6-17.6A17.63,17.63,0,0,1,361.3,388.7Zm0-29.2A11.55,11.55,0,1,0,372.8,371,11.44,11.44,0,0,0,361.3,359.5ZM308.9,441a17.6,17.6,0,1,1,17.6-17.6A17.63,17.63,0,0,1,308.9,441Zm0-29.2a11.55,11.55,0,1,0,11.5,11.5A11.52,11.52,0,0,0,308.9,411.8Z" style="fill:#5e65ea"/><path d="M357,408.2V385.1h6.1v23.1Z" style="fill:#5e65ea"/><path d="M323.5,426.4v-6.1h23.1v6.1Z" style="fill:#5e65ea"/><path d="M586.6,420.9a16.84,16.84,0,1,1,.8,0Zm-.5-28.1a11.11,11.11,0,1,0,11.6,10.6A11.15,11.15,0,0,0,586.1,392.8Zm-50.2,30.6a16.84,16.84,0,1,1,.8,0Zm-.5-28.3a11.59,11.59,0,1,0,.1,0Zm48.8-24.8a16.84,16.84,0,1,1,.8,0Zm-.5-28.3a11.15,11.15,0,0,0-10.6,11.6,10.79,10.79,0,0,0,3.6,7.7,11.08,11.08,0,0,0,15.7-.6,11.21,11.21,0,0,0,2.9-8.2A11,11,0,0,0,583.7,342Z" style="fill:#5e65ea"/><path d="M550,402.4l22.4-1.1.3,6.1-22.4,1.1Z" style="fill:#5e65ea"/><path d="M581.8,367.4l6.1-.3,1.1,22.4-6.1.3Z" style="fill:#5e65ea"/><path d="M634.9,367.9a16.79,16.79,0,1,1,.9,0Zm-11.1-16.7a11.59,11.59,0,1,0,0-.1ZM639.3,461a16.79,16.79,0,1,1,.9,0Zm-11.1-16.7a11.11,11.11,0,1,0,10.6-11.6A11.15,11.15,0,0,0,628.2,444.3Zm-44-74a16.84,16.84,0,1,1,.8,0Zm0-28.3h-.5a11.49,11.49,0,1,0,.5,0Z" style="fill:#5e65ea"/><path d="M632.5,365l6.1-.3,3.1,64.8-6.1.3Z" style="fill:#5e65ea"/><path d="M598.2,349.3l22.4-1.1.3,6.1-22.4,1.1Z" style="fill:#5e65ea"/><path d="M815.5,399.4a18,18,0,1,1,6-1.2,17.33,17.33,0,0,1-6,1.2Zm0-29.3a11.55,11.55,0,1,0,11.6,11.5,10.88,10.88,0,0,0-.7-4,11.75,11.75,0,0,0-10.9-7.5Zm18.1,78.4a17.69,17.69,0,1,1,6-1.1A17.25,17.25,0,0,1,833.6,448.5Zm0-29.3a11.6,11.6,0,1,0,11.6,11.6,10.88,10.88,0,0,0-.7-4,11.94,11.94,0,0,0-10.9-7.6Zm31.1-37.9a17.45,17.45,0,1,1,6.1-1A18.15,18.15,0,0,1,864.7,381.3Zm0-29.2a11.55,11.55,0,1,0,11.5,11.6,10.88,10.88,0,0,0-.7-4A11.56,11.56,0,0,0,864.7,352.1Z" style="fill:#5e65ea"/><path d="M817.7,396.4l5.7-2.1,7.9,21.7-5.7,2.1Z" style="fill:#5e65ea"/><path d="M828.2,373.9l21.7-7.9,2.1,5.7-21.7,7.9Z" style="fill:#5e65ea"/><path d="M1078.6,431.5a17.11,17.11,0,1,1,12.7-5.5,17,17,0,0,1-11.9,5.6Zm0-28.3h-.6a10.79,10.79,0,0,0-7.7,3.6,11.11,11.11,0,1,0,15.7-.7A10.78,10.78,0,0,0,1078.6,403.2Zm-34.1,65.9a17.25,17.25,0,1,1,12.8-5.7,17.68,17.68,0,0,1-12.8,5.7Zm-8.3-24.7a11.12,11.12,0,1,0,15.8-.8A11.21,11.21,0,0,0,1036.2,444.4Zm4.8-47a17.2,17.2,0,0,1-12.7-28.8,17,17,0,0,1,11.9-5.6,17.21,17.21,0,1,1,.8,34.4Zm-8.2-24.8a11.64,11.64,0,1,0,.2-.2c-.1.2-.1.2-.2.2Z" style="fill:#5e65ea"/><path d="M1051.7,439.2l15.1-16.6,4.5,4.1-15.1,16.6Z" style="fill:#5e65ea"/><path d="M1049.5,392l4.1-4.5,16.6,15.1-4.1,4.5Z" style="fill:#5e65ea"/><path d="M1075.2,359.8a17.25,17.25,0,1,1,12.7-5.7,16.78,16.78,0,0,1-12.7,5.7Zm-7.5-8.9a11.12,11.12,0,1,0-.8-15.7A11.09,11.09,0,0,0,1067.7,350.9Zm76.5,71.6a17.25,17.25,0,1,1,12.7-5.7,16.78,16.78,0,0,1-12.7,5.7Zm-7.5-8.9a11.12,11.12,0,1,0-.8-15.8A11.21,11.21,0,0,0,1136.7,413.6ZM1041,397.4a17.15,17.15,0,1,1,12.7-5.6,16.88,16.88,0,0,1-12.7,5.6Zm0-28.3a11.1,11.1,0,1,0,7.5,2.9A10.85,10.85,0,0,0,1041,369.1Z" style="fill:#5e65ea"/><path d="M1083.6,354.3l4.1-4.5,48,43.7-4.1,4.5Z" style="fill:#5e65ea"/><path d="M1048.2,367.6l15.1-16.6,4.5,4.1-15.1,16.6Z" style="fill:#5e65ea"/><path d="M346.6,659.2a17.29,17.29,0,1,1,7.7-1.9,16.86,16.86,0,0,1-7.7,1.9Zm0-28.4a10.84,10.84,0,0,0-5,1.2,11.07,11.07,0,1,0,14.9,4.8A11.26,11.26,0,0,0,346.6,630.8Zm45.3,5.5a17.29,17.29,0,1,1,7.8-1.9,17.6,17.6,0,0,1-7.8,1.9Zm0-28.4a10.84,10.84,0,0,0-5,1.2,11.16,11.16,0,1,0,15,4.9,11.32,11.32,0,0,0-10-6.1ZM323.7,614a17.28,17.28,0,1,1,7.8-1.9,17.6,17.6,0,0,1-7.8,1.9Zm0-28.4a10.84,10.84,0,0,0-5,1.2,11.16,11.16,0,1,0,15,4.9,11.32,11.32,0,0,0-10-6.1Z" style="fill:#5e65ea"/><path d="M357.9,632.8l20-10.1,2.7,5.4-20,10.1Z" style="fill:#5e65ea"/><path d="M327.4,610.7l5.4-2.7,10.1,20-5.4,2.7Z" style="fill:#5e65ea"/><path d="M278.4,636.8a17.3,17.3,0,1,1,7.6-1.9,15.59,15.59,0,0,1-7.6,1.9Zm0-28.3a11.15,11.15,0,1,0,11.2,11.1,11.13,11.13,0,0,0-11.2-11.1ZM320.5,720a17.28,17.28,0,1,1,7.8-1.9,17.6,17.6,0,0,1-7.8,1.9Zm0-28.3a11.15,11.15,0,1,0,11.2,11.1,10.55,10.55,0,0,0-1.2-5A11.06,11.06,0,0,0,320.5,691.7Zm3.2-77.7a17.12,17.12,0,1,1,7.8-1.8,19,19,0,0,1-7.8,1.8Zm0-28.4a11.15,11.15,0,1,0,11.2,11.1,11.13,11.13,0,0,0-11.2-11.1Z" style="fill:#5e65ea"/><path d="M282.1,633.5l5.4-2.7,29.3,57.9-5.4,2.7Z" style="fill:#5e65ea"/><path d="M289.7,610.5l20-10.1,2.7,5.4-20,10.1Z" style="fill:#5e65ea"/><path d="M587.6,685.9a17.58,17.58,0,1,1,12.4-5.1,17.63,17.63,0,0,1-12.4,5.1Zm0-29.2a11.53,11.53,0,0,0-8.2,19.7,11.84,11.84,0,0,0,16.4,0,11.65,11.65,0,0,0,0-16.4,11.83,11.83,0,0,0-8.2-3.3Zm37-7.8a17.58,17.58,0,1,1,12.4-5.1,17.63,17.63,0,0,1-12.4,5.1Zm0-29.2a11.61,11.61,0,1,0,8.2,3.4,11.61,11.61,0,0,0-8.2-3.4Zm-74,29.2a17.58,17.58,0,1,1,12.4-5.1,17.63,17.63,0,0,1-12.4,5.1Zm0-29.2a11.44,11.44,0,1,0,8.2,3.3,11.83,11.83,0,0,0-8.2-3.3Z" style="fill:#5e65ea"/><path d="M595.8,655.8l16.3-16.3,4.3,4.3-16.3,16.3Z" style="fill:#5e65ea"/><path d="M558.8,643.7l4.3-4.3,16.3,16.3-4.3,4.3Z" style="fill:#5e65ea"/><path d="M851.6,674.7a16,16,0,0,1-7.7-1.9,17,17,0,1,1,7.7,1.9Zm-5-7.3a11.15,11.15,0,1,0-5.5-6.4A10.27,10.27,0,0,0,846.6,667.4Zm50.2,30.2A17.2,17.2,0,1,1,914,680.4a16,16,0,0,1-1.9,7.7A16.66,16.66,0,0,1,896.8,697.6Zm0-28.3a11.08,11.08,0,0,0-11.2,11,11.26,11.26,0,0,0,6.2,10.1,11.09,11.09,0,1,0,10-19.8,12,12,0,0,0-5-1.3ZM828.6,720a16,16,0,0,1-7.7-1.9,17,17,0,1,1,7.7,1.9Zm0-28.3a11.16,11.16,0,0,0-5.1,21.1,11.09,11.09,0,0,0,10-19.8,9,9,0,0,0-4.9-1.3Z" style="fill:#5e65ea"/><path d="M862.9,666.7l2.7-5.4,20,10.1-2.7,5.4Z" style="fill:#5e65ea"/><path d="M832.4,688.8l10.1-20,5.4,2.7-10.1,20Z" style="fill:#5e65ea"/><path d="M783.4,697.1a17.2,17.2,0,1,1,17.2-17.2,16,16,0,0,1-1.9,7.7A17.12,17.12,0,0,1,783.4,697.1Zm0-28.3a11.18,11.18,0,1,0,4.9,1.2,10.44,10.44,0,0,0-4.9-1.2Zm42-54.8a17.31,17.31,0,1,1,5.4-.9,16.11,16.11,0,0,1-5.4.9Zm0-28.4a11.13,11.13,0,1,0,5,1.2A10.55,10.55,0,0,0,825.4,585.6ZM828.6,720a17.31,17.31,0,1,1,5.4-.9,16.11,16.11,0,0,1-5.4.9Zm0-28.3a11.18,11.18,0,1,0,4.9,1.2,10.16,10.16,0,0,0-4.9-1.2Z" style="fill:#5e65ea"/><path d="M787.1,665.9,816.4,608l5.4,2.7-29.3,57.9Z" style="fill:#5e65ea"/><path d="M794.7,689l2.7-5.4,20,10.1-2.7,5.4Z" style="fill:#5e65ea"/><path d="M1066.5,692.2h-.9a17.62,17.62,0,1,1,18.4-16.7,17.43,17.43,0,0,1-17.5,16.7Zm0-29.2a11.6,11.6,0,1,0,.6,0Zm2.6-23h-.9a18.1,18.1,0,1,1,.9,0Zm0-29.2a11.56,11.56,0,0,0-.5,23.1,11.8,11.8,0,0,0,12.1-11,11.6,11.6,0,0,0-11-12.1Zm49.7,84h-.9a18.1,18.1,0,1,1,.9,0Zm0-29.2a11.6,11.6,0,1,0,0,23.2,11.61,11.61,0,0,0,.5-23.2Z" style="fill:#5e65ea"/><path d="M1064.1,659.8l1.1-23.1,6.1.3-1.1,23.1Z" style="fill:#5e65ea"/><path d="M1081,678.4l.3-6.1,23.1,1.1-.3,6.1Z" style="fill:#5e65ea"/><path d="M443.6,1540.5l21.2-21.2,4.3,4.3-21.2,21.2Z" style="fill:#5e65ea"/><path d="M454.2,1551.4l21.2-21.2,4.3,4.3-21.2,21.2Z" style="fill:#5e65ea"/><path d="M190.5,1283.5l4.3-4.3,21.2,21.2-4.3,4.3Z" style="fill:#5e65ea"/><path d="M201.2,1272.8l4.3-4.3,21.2,21.2-4.3,4.3Z" style="fill:#5e65ea"/><path d="M707.3,1272.7l4.3-4.3,21.2,21.2-4.3,4.3Z" style="fill:#5e65ea"/><path d="M696.7,1283.4l4.3-4.3,21.2,21.2-4.3,4.3Z" style="fill:#5e65ea"/><path d="M190.5,776.8l4.3-4.3L216,793.7l-4.3,4.3Z" style="fill:#5e65ea"/><path d="M201.2,766.1l4.3-4.3L226.7,783l-4.3,4.3Z" style="fill:#5e65ea"/><path d="M198.8,1023.1a13.86,13.86,0,1,0,19.6,0A13.88,13.88,0,0,0,198.8,1023.1Zm17.6,9.8a7.75,7.75,0,1,1-7.7-7.8,7.68,7.68,0,0,1,7.7,7.8Z" style="fill:#5e65ea"/><path d="M443.6,1036.1l21.2-21.2,4.3,4.3-21.2,21.2Z" style="fill:#5e65ea"/><path d="M454.3,1046.8l21.2-21.2,4.3,4.3-21.2,21.2Z" style="fill:#5e65ea"/><path d="M707.3,766l4.3-4.3,21.2,21.2-4.3,4.3Z" style="fill:#5e65ea"/><path d="M696.7,776.7l4.3-4.3,21.2,21.2-4.3,4.3Z" style="fill:#5e65ea"/><path d="M728.4,1032.8c0-.5-.1-1-.1-1.5a3.18,3.18,0,0,0-.3-.9,10.93,10.93,0,0,0-.5-1.7,4.05,4.05,0,0,0-.5-.9,10.93,10.93,0,0,0-.8-1.5c-.2-.3-.5-.6-.8-1a10.59,10.59,0,0,0-1-1.2,9.38,9.38,0,0,0-1.2-.9,3.92,3.92,0,0,0-1-.8,9.14,9.14,0,0,0-1.4-.7,3.13,3.13,0,0,0-1-.5,8.33,8.33,0,0,0-1.5-.4,3.81,3.81,0,0,1-1-.3,6.6,6.6,0,0,0-1.4-.1c-.4,0-.8-.1-1.2-.1a4.87,4.87,0,0,0-1.2.1c-.5,0-1,.1-1.4.1a2.93,2.93,0,0,0-1,.3c-.5.1-1,.3-1.5.4a4.67,4.67,0,0,0-1,.5c-.5.2-1,.5-1.4.7a3.92,3.92,0,0,0-1,.8,7.85,7.85,0,0,0-2.1,2.1,3.92,3.92,0,0,0-.8,1,10.93,10.93,0,0,0-.8,1.5,4.05,4.05,0,0,1-.5.9,10.93,10.93,0,0,0-.5,1.7,3.18,3.18,0,0,1-.3.9,7.57,7.57,0,0,0-.1,1.5c0,.4-.1.7-.1,1.1a4.1,4.1,0,0,0,.1,1.1c0,.5.1,1,.1,1.5a1.42,1.42,0,0,0,.2.6,6.64,6.64,0,0,0,.6,2,13.73,13.73,0,0,0,12.8,8.5,14,14,0,0,0,12.8-8.5c.2-.7.4-1.3.6-2a1.42,1.42,0,0,1,.2-.6,7.57,7.57,0,0,0,.1-1.5c0-.4.1-.7.1-1.1s-.1-.7-.2-1.1Zm-6,2.6c-.1.4-.2.8-.3,1.1v.3a5.94,5.94,0,0,1-.4.8.85.85,0,0,1-.3.5c-.1.1-.3.4-.5.6s-.3.4-.5.6a7.85,7.85,0,0,1-11,0c-.2-.2-.3-.4-.5-.6s-.3-.4-.5-.6a1.33,1.33,0,0,1-.3-.5,5.9,5.9,0,0,1-.4-.8v-.3a6.15,6.15,0,0,1-.3-1.1,8,8,0,0,1,.4-4.3,10.91,10.91,0,0,1,.6-1.1l.1-.2a10.59,10.59,0,0,1,1-1.2c.2-.2.4-.3.5-.5a1.79,1.79,0,0,1,.7-.5l.3-.2a7.61,7.61,0,0,1,8.2.2c.2.1.3.3.5.4s.5.4.8.6a10.59,10.59,0,0,1,1,1.2l.1.2c.2.4.4.7.6,1.1a7.87,7.87,0,0,1,.4,4.3Z" style="fill:#5e65ea"/><path d="M947.6,1035.8l21.2-21.2,4.3,4.3-21.2,21.2Z" style="fill:#5e65ea"/><path d="M958.3,1046.5l21.2-21.2,4.3,4.3-21.2,21.2Z" style="fill:#5e65ea"/><path d="M947.6,1540.5l21.2-21.2,4.3,4.3-21.2,21.2Z" style="fill:#5e65ea"/><path d="M958.3,1551.4l21.2-21.2,4.3,4.3-21.2,21.2Z" style="fill:#5e65ea"/><path d="M309.8,943.5a22,22,0,0,1-4.4-.5,17.64,17.64,0,1,1,21.5-12.8,17.83,17.83,0,0,1-17.1,13.3Zm0-29.2a11.41,11.41,0,1,0,2.9.3,15,15,0,0,0-2.9-.3Zm50.7,42a22,22,0,0,1-4.4-.5,17.62,17.62,0,1,1,8.1-34.3,4.33,4.33,0,0,1,.5.1A17.69,17.69,0,0,1,377.6,943,17.35,17.35,0,0,1,360.5,956.3Zm0-29.2a11.31,11.31,0,1,0,2.9.3A14.28,14.28,0,0,0,360.5,927.1Zm-37.8-34.3a22,22,0,0,1-4.4-.5,17.65,17.65,0,1,1,21.6-12.8,17.77,17.77,0,0,1-17.2,13.3Zm0-29.3A11.52,11.52,0,0,0,311.1,875a11.63,11.63,0,1,0,14.5-11.2Z" style="fill:#5e65ea"/><path d="M323.2,932.4l1.5-5.9,22.4,5.7-1.5,5.9Z" style="fill:#5e65ea"/><path d="M310.4,910.9l5.7-22.4L322,890l-5.7,22.4Z" style="fill:#5e65ea"/><path d="M463.8,793.7a13.8,13.8,0,1,1,9.8-4A15.06,15.06,0,0,1,463.8,793.7Zm0-21.6a7.76,7.76,0,1,0-.7,15.5h.8a7.79,7.79,0,0,0,7.4-8.1,8,8,0,0,0-7.5-7.4Zm0,527.3a13.8,13.8,0,1,1,9.8-4,14.56,14.56,0,0,1-9.8,4Zm0-21.6a7.76,7.76,0,1,0-.7,15.5h.8a7.79,7.79,0,0,0,7.4-8.1,8.13,8.13,0,0,0-7.5-7.4ZM966.6,794.6a13.8,13.8,0,1,1,9.8-4A14.65,14.65,0,0,1,966.6,794.6Zm0-21.6a7.76,7.76,0,1,0-.7,15.5h.8a7.79,7.79,0,0,0,7.4-8.1,8,8,0,0,0-7.5-7.4Zm0,526.4a13.8,13.8,0,1,1,9.8-4,14.19,14.19,0,0,1-9.8,4Zm0-21.6a7.76,7.76,0,1,0-.7,15.5h.8a7.79,7.79,0,0,0,7.4-8.1,8,8,0,0,0-7.5-7.4ZM714.7,1551.3a13.8,13.8,0,1,1,9.8-4,14.19,14.19,0,0,1-9.8,4Zm0-21.6a7.76,7.76,0,1,0-.7,15.5h.8a7.79,7.79,0,0,0,7.4-8.1,8,8,0,0,0-7.5-7.4Zm-506.1,21.2a13.8,13.8,0,1,1,9.8-4,14.65,14.65,0,0,1-9.8,4Zm0-21.6a7.76,7.76,0,1,0-.7,15.5h.8a7.79,7.79,0,0,0,7.4-8.1,8,8,0,0,0-7.5-7.4Zm378-598.6a16.84,16.84,0,1,1,.8,0Zm-.5-28.4a11.11,11.11,0,1,0,11.6,10.6A11.15,11.15,0,0,0,586.1,902.3Zm-50.2,30.8a16.84,16.84,0,1,1,.8,0Zm-.5-28.3A11.11,11.11,0,1,0,547,915.4,11.15,11.15,0,0,0,535.4,904.8ZM584.2,880a16.84,16.84,0,1,1,.8,0Zm-.5-28.3a11.15,11.15,0,0,0-10.6,11.6,10.79,10.79,0,0,0,3.6,7.7,11.32,11.32,0,0,0,8,2.9,11.15,11.15,0,0,0,10.6-11.6,11.11,11.11,0,0,0-11.6-10.6Z" style="fill:#5e65ea"/><path d="M550,912.1l22.4-1.1.3,6.1-22.4,1.1Z" style="fill:#5e65ea"/><path d="M581.8,877l6.1-.3,1.1,22.4-6.1.3Z" style="fill:#5e65ea"/><path d="M634.9,877.6a16.79,16.79,0,1,1,.9,0Zm-11.1-16.7a11.59,11.59,0,1,0,0-.1Zm15.5,109.8a16.79,16.79,0,1,1,.9,0ZM628.2,954a11.11,11.11,0,1,0,10.6-11.6A11.15,11.15,0,0,0,628.2,954Zm-44-74a17.26,17.26,0,1,1,.9,0Zm0-28.4h-.5a11.15,11.15,0,0,0-10.6,11.6,11,11,0,0,0,3.6,7.7,11.32,11.32,0,0,0,8,2.9,11.1,11.1,0,1,0-.5-22.2Z" style="fill:#5e65ea"/><path d="M632.5,874.7l6.1-.3,3.1,64.8-6.1.3Z" style="fill:#5e65ea"/><path d="M598.3,859l22.4-1.1.3,6.1-22.4,1.1Z" style="fill:#5e65ea"/><path d="M817.2,950.5a17.52,17.52,0,1,1,2.1-.1,14.77,14.77,0,0,1-2.1.1Zm0-29.2h-1.4a11.52,11.52,0,1,0,1.4,0Zm51.9,23.1a17.52,17.52,0,1,1,2.1-.1,14.77,14.77,0,0,1-2.1.1Zm-1.3-29.1a11.57,11.57,0,0,0-10,12.9,11.86,11.86,0,0,0,4.2,7.6,11.39,11.39,0,0,0,8.5,2.4,11.53,11.53,0,0,0-2.7-22.9Zm-56.7-16.7a17.52,17.52,0,1,1,2.1-.1c-.7,0-1.4.1-2.1.1Zm-1.4-29.2a11.53,11.53,0,1,0,12.8,10.1v-.1A11.49,11.49,0,0,0,809.7,869.4Z" style="fill:#5e65ea"/><path d="M831.4,928.1l22.9-2.7.7,6-22.9,2.7Z" style="fill:#5e65ea"/><path d="M809.8,895.7l6-.7,2.7,22.9-6,.7Z" style="fill:#5e65ea"/><path d="M1110.9,938.8a17.2,17.2,0,0,1,0-34.4h.3a17.2,17.2,0,0,1-.3,34.4Zm0-28.3a10.9,10.9,0,1,0,.2,0Zm35.2,64.9a17,17,0,0,1-12.4-5.3,17.19,17.19,0,1,1,24.3.4,16.8,16.8,0,0,1-11.9,4.9Zm0-28.3A11.17,11.17,0,0,0,1138,966a11.1,11.1,0,0,0,16-15.4,10.82,10.82,0,0,0-7.8-3.4ZM1074.3,974a17,17,0,0,1-12.4-5.3,17,17,0,1,1,12.4,5.3Zm-8-9.5a11.1,11.1,0,1,0,8.2-18.8,11.55,11.55,0,0,0-7.9,3.1,11.07,11.07,0,0,0-.3,15.7Z" style="fill:#5e65ea"/><path d="M1118.5,934l4.4-4.2,15.5,16.2-4.4,4.2Z" style="fill:#5e65ea"/><path d="M1082.4,944.9l16.2-15.5,4.2,4.4-16.2,15.5Z" style="fill:#5e65ea"/><path d="M1039.2,937.4h-.3a17.2,17.2,0,1,1,17.5-16.9,17.42,17.42,0,0,1-17.2,16.9Zm0-28.3a11.1,11.1,0,1,0-.2,22.2,11.55,11.55,0,0,0,7.9-3.1,11.1,11.1,0,0,0-7.5-19.1Zm67.1-36.3h-.3a17.2,17.2,0,1,1,17.5-16.9,16.9,16.9,0,0,1-5.3,12,16.46,16.46,0,0,1-11.9,4.9Zm0-28.3a11.1,11.1,0,1,0,8,3.4,10.72,10.72,0,0,0-8-3.4Zm-32,129.5a17.23,17.23,0,1,1,11.9-4.8,17,17,0,0,1-11.9,4.8Zm0-28.3a10.9,10.9,0,1,0,.2,0Z" style="fill:#5e65ea"/><path d="M1047.3,908.3l46.8-45,4.2,4.4-46.8,45Z" style="fill:#5e65ea"/><path d="M1046.8,932.5l4.4-4.2,15.5,16.2-4.4,4.2Z" style="fill:#5e65ea"/><path d="M335.3,1172.6h-.1a17.25,17.25,0,0,1,.1-34.5h.1a17.25,17.25,0,0,1-.1,34.5Zm0-28.3a11.1,11.1,0,1,0,11.1,11.1A11.14,11.14,0,0,0,335.3,1144.3Zm50.8,28.7H386a17.28,17.28,0,0,1-17.2-17.3,16.93,16.93,0,0,1,5.1-12.2,17.08,17.08,0,1,1,12.2,29.5Zm0-6.1a7.85,7.85,0,1,1,.1-.1h-.1ZM335,1223.4h-.1a17.21,17.21,0,0,1,.1-34.4h.1a17.21,17.21,0,0,1-.1,34.4Zm0-6.1a11.1,11.1,0,1,0-11.1-11.1A11.14,11.14,0,0,0,335,1217.3Z" style="fill:#5e65ea"/><path d="M349.4,1158.5v-6.1l22.4.1v6.1Z" style="fill:#5e65ea"/><path d="M332,1191.9l.1-22.4h6.1l-.1,22.4Z" style="fill:#5e65ea"/><path d="M284.2,1223.1h-.1a17.25,17.25,0,1,1,.1,0Zm0-28.4a11.1,11.1,0,1,0,11.1,11.1A11.14,11.14,0,0,0,284.2,1194.7Zm.6-64.9h-.1a17.21,17.21,0,0,1,.1-34.4h.1a17.2,17.2,0,0,1-.1,34.4Zm0-28.3a11.1,11.1,0,1,0,11.1,11.1A11.14,11.14,0,0,0,284.8,1101.5ZM335,1223.4h-.1a17.21,17.21,0,0,1,.1-34.4h.1a17.2,17.2,0,0,1-.1,34.4Zm0-28.4a11.1,11.1,0,1,0,11.1,11.1A11.14,11.14,0,0,0,335,1195Z" style="fill:#5e65ea"/><path d="M281.2,1191.6l.4-64.9h6.1l-.4,64.9Z" style="fill:#5e65ea"/><path d="M298.3,1208.9v-6.1l22.4.1v6.1Z" style="fill:#5e65ea"/><path d="M613.3,1197.8a18.11,18.11,0,1,1,3.4-.4,13.69,13.69,0,0,1-3.4.4Zm0-29.2a16.35,16.35,0,0,0-2.2.2,11.56,11.56,0,1,0,2.2-.2Zm-51.4,39.1a17.57,17.57,0,1,1,3.4-.3A19.53,19.53,0,0,1,561.9,1207.7Zm0-29.2a16.35,16.35,0,0,0-2.2.2,11.56,11.56,0,1,0,2.2-.2Zm41.5-32.1a17.53,17.53,0,1,1,3.4-.3,20.41,20.41,0,0,1-3.4.3Zm0-29.2a16.35,16.35,0,0,0-2.2.2,11.56,11.56,0,1,0,2.2-.2Z" style="fill:#5e65ea"/><path d="M575.6,1184.4l22.7-4.4,1.2,6-22.7,4.4Z" style="fill:#5e65ea"/><path d="M603.1,1143.7l6-1.2,4.4,22.7-6,1.2Z" style="fill:#5e65ea"/><path d="M850.5,1179.3a17.71,17.71,0,1,1,2.1-.2,13.61,13.61,0,0,1-2.1.2Zm-11-15.9a11.09,11.09,0,1,0,9.6-12.4A11.05,11.05,0,0,0,839.5,1163.4Zm17.3,66.2a17.71,17.71,0,1,1,2.1-.2,7.49,7.49,0,0,1-2.1.2Zm-11-15.8a11.09,11.09,0,1,0,9.6-12.4A11.05,11.05,0,0,0,845.8,1213.8Zm-45.6-28.2a17.7,17.7,0,1,1,2.2-.2c-.8.1-1.5.1-2.2.2Zm0-28.4h-1.4a11.12,11.12,0,1,0,1.4,0Z" style="fill:#5e65ea"/><path d="M849.2,1176.5l6-.8L858,1198l-6,.8Z" style="fill:#5e65ea"/><path d="M813.8,1163.7l22.3-2.8.8,6-22.3,2.8Z" style="fill:#5e65ea"/><path d="M793.8,1135.2a17,17,0,1,1,2.2-.1c-.7,0-1.4.1-2.2.1Zm0-28.3h-1.4a11.2,11.2,0,0,0-9.7,12.4,11.18,11.18,0,0,0,12.4,9.7,11.08,11.08,0,0,0,9.4-12.6,10.88,10.88,0,0,0-10.7-9.5Zm92.5,16.7a16.87,16.87,0,1,1,2.2-.1A15.48,15.48,0,0,1,886.3,1123.6Zm0-28.3h-1.4a11.13,11.13,0,0,0,2.7,22.1,11.08,11.08,0,0,0,9.4-12.6A10.89,10.89,0,0,0,886.3,1095.3Zm-86.1,90.3a17.7,17.7,0,1,1,2.2-.2c-.8.1-1.5.1-2.2.2Zm0-28.4h-1.4a11.13,11.13,0,0,0,2.7,22.1,11.08,11.08,0,0,0,9.4-12.6A11,11,0,0,0,800.2,1157.2Z" style="fill:#5e65ea"/><path d="M807.5,1113.3l64.4-8.1.8,6-64.4,8.1Z" style="fill:#5e65ea"/><path d="M792.5,1132.5l6-.8,2.8,22.3-6,.8Z" style="fill:#5e65ea"/><path d="M1111.4,1151.7a17.51,17.51,0,1,1,4.2-.5,19.31,19.31,0,0,1-4.2.5Zm0-29.2a11.6,11.6,0,1,0,11.6,11.6,9.67,9.67,0,0,0-.4-2.9A11.74,11.74,0,0,0,1111.4,1122.5Zm13.1,79.9a17.78,17.78,0,1,1,4.4-.6A17.23,17.23,0,0,1,1124.5,1202.4Zm0-29.3a9.25,9.25,0,0,0-2.9.4,11.44,11.44,0,1,0,14,8.1A11.55,11.55,0,0,0,1124.5,1173.1Zm-63.8-8.3a17.46,17.46,0,1,1,4.4-.5A21.18,21.18,0,0,1,1060.7,1164.8Zm-11.2-14.8a11.57,11.57,0,1,0,8.3-14.1A11.71,11.71,0,0,0,1049.5,1150Z" style="fill:#5e65ea"/><path d="M1112.2,1148.8l5.9-1.5,5.8,22.4-5.9,1.5Z" style="fill:#5e65ea"/><path d="M1074.1,1140.6l22.4-5.8,1.5,5.9-22.4,5.8Z" style="fill:#5e65ea"/><path d="M361.3,1455.7a17.65,17.65,0,1,1,17.6-17.6A17.65,17.65,0,0,1,361.3,1455.7Zm0-29.2a11.55,11.55,0,1,0,11.5,11.5A11.59,11.59,0,0,0,361.3,1426.5Zm0-23.1a17.65,17.65,0,1,1,17.6-17.6A17.65,17.65,0,0,1,361.3,1403.4Zm0-29.2a11.55,11.55,0,1,0,11.5,11.5A11.38,11.38,0,0,0,361.3,1374.2Zm-52.4,81.4a17.65,17.65,0,1,1,17.6-17.6A17.65,17.65,0,0,1,308.9,1455.6Zm0-29.2a11.55,11.55,0,1,0,11.5,11.5A11.52,11.52,0,0,0,308.9,1426.4Z" style="fill:#5e65ea"/><path d="M358.3,1423.5v-23.1h6.1v23.1Z" style="fill:#5e65ea"/><path d="M323.5,1441v-6.1h23.1v6.1Z" style="fill:#5e65ea"/><path d="M586.6,1435.6a16.84,16.84,0,1,1,.8,0Zm-.5-28.3a11.11,11.11,0,1,0,11.6,10.6A11.15,11.15,0,0,0,586.1,1407.3ZM535.9,1438a16.84,16.84,0,1,1,.8,0Zm-.5-28.3a11.59,11.59,0,1,0,.1,0Zm48.8-24.7a16.84,16.84,0,1,1,.8,0Zm-.5-28.4a11.15,11.15,0,0,0-10.6,11.6,10.79,10.79,0,0,0,3.6,7.7,11.18,11.18,0,0,0,15.7-.7,11.32,11.32,0,0,0,2.9-8,11.15,11.15,0,0,0-11.6-10.6Z" style="fill:#5e65ea"/><path d="M550,1417.1l22.4-1.1.3,6.1-22.4,1.1Z" style="fill:#5e65ea"/><path d="M581.9,1382l6.1-.3,1.1,22.4-6.1.3Z" style="fill:#5e65ea"/><path d="M634.9,1382.5a16.79,16.79,0,1,1,.9,0Zm-11.1-16.7a11.59,11.59,0,1,0,0-.1Zm15.5,109.9a16.79,16.79,0,1,1,.9,0ZM628.2,1459a11.11,11.11,0,1,0,10.6-11.6A11.15,11.15,0,0,0,628.2,1459Zm-44-74a16.84,16.84,0,1,1,.8,0Zm0-28.4h-.5a11.11,11.11,0,1,0,11.7,10.5A11.33,11.33,0,0,0,584.2,1356.6Z" style="fill:#5e65ea"/><path d="M632.5,1379.7l6.1-.3,3.1,64.8-6.1.3Z" style="fill:#5e65ea"/><path d="M598.3,1363.9l22.4-1.1.3,6.1-22.4,1.1Z" style="fill:#5e65ea"/><path d="M815.5,1414a18,18,0,1,1,6-1.2,17.33,17.33,0,0,1-6,1.2Zm0-29.2a11.55,11.55,0,1,0,11.6,11.5,10.88,10.88,0,0,0-.7-4,11.46,11.46,0,0,0-10.9-7.5Zm18.1,78.3a17.69,17.69,0,1,1,6-1.1A17.25,17.25,0,0,1,833.6,1463.1Zm0-29.2a11.6,11.6,0,1,0,11.6,11.6,10.88,10.88,0,0,0-.7-4,11.65,11.65,0,0,0-10.9-7.6Zm31.1-37.9a17.69,17.69,0,1,1,6-1.1A23.59,23.59,0,0,1,864.7,1396Zm0-29.2a11.55,11.55,0,1,0,11.5,11.6,10.88,10.88,0,0,0-.7-4A11.43,11.43,0,0,0,864.7,1366.8Z" style="fill:#5e65ea"/><path d="M817.7,1411l5.7-2.1,7.9,21.7-5.7,2.1Z" style="fill:#5e65ea"/><path d="M828.2,1388.5l21.7-7.9,2.1,5.7-21.7,7.9Z" style="fill:#5e65ea"/><path d="M1078.6,1446.2a17.14,17.14,0,0,1-17.1-17.3,16.79,16.79,0,0,1,4.5-11.5,17.2,17.2,0,0,1,25.4,23.2,17,17,0,0,1-11.9,5.6Zm0-28.4h-.6a10.79,10.79,0,0,0-7.7,3.6,11.14,11.14,0,1,0,8.3-3.6Zm-34.1,65.9a17.25,17.25,0,1,1,12.8-5.7,17.2,17.2,0,0,1-12.8,5.7Zm-8.3-24.7a11.12,11.12,0,1,0,15.8-.8A11.3,11.3,0,0,0,1036.2,1459Zm4.8-47a17.2,17.2,0,0,1-12.7-28.8,17,17,0,0,1,11.9-5.6,17.21,17.21,0,1,1,.8,34.4Zm-8.2-24.7a11.64,11.64,0,1,0,.2-.2c-.1.2-.1.2-.2.2Z" style="fill:#5e65ea"/><path d="M1051.7,1453.8l15.1-16.6,4.5,4.1-15.1,16.6Z" style="fill:#5e65ea"/><path d="M1049.5,1406.6l4.1-4.5,16.6,15.1-4.1,4.5Z" style="fill:#5e65ea"/><path d="M1075.2,1374.5a17.25,17.25,0,1,1,12.7-5.7,17.22,17.22,0,0,1-12.7,5.7Zm-7.5-9a11.12,11.12,0,1,0-.8-15.7A11.09,11.09,0,0,0,1067.7,1365.5Zm76.5,71.7a17.25,17.25,0,1,1,12.7-5.7,17.22,17.22,0,0,1-12.7,5.7Zm-7.5-9a11.12,11.12,0,1,0-.8-15.8A11.21,11.21,0,0,0,1136.7,1428.2ZM1041,1412a17.15,17.15,0,1,1,12.7-5.6,16.54,16.54,0,0,1-12.7,5.6Zm0-28.3a11.1,11.1,0,1,0,7.5,2.9A10.85,10.85,0,0,0,1041,1383.7Z" style="fill:#5e65ea"/><path d="M1083.6,1369l4.1-4.5,48,43.7-4.1,4.5Z" style="fill:#5e65ea"/><path d="M1048.3,1382.1l15.1-16.6,4.5,4.1-15.1,16.6Z" style="fill:#5e65ea"/><path d="M346.6,1673.9a17.29,17.29,0,1,1,7.7-1.9,18.23,18.23,0,0,1-7.7,1.9Zm0-28.4a10.84,10.84,0,0,0-5,1.2,11.12,11.12,0,1,0,5-1.2Zm45.3,5.4a17.29,17.29,0,1,1,7.8-1.9A17.6,17.6,0,0,1,391.9,1650.9Zm0-28.4a10.84,10.84,0,0,0-5,1.2,11.16,11.16,0,1,0,15,4.9A11.32,11.32,0,0,0,391.9,1622.5Zm-68.2,6a17.28,17.28,0,1,1,7.8-1.9,16.35,16.35,0,0,1-7.8,1.9Zm0-28.3a10.84,10.84,0,0,0-5,1.2,11.18,11.18,0,1,0,5-1.2Z" style="fill:#5e65ea"/><path d="M357.9,1647.5l20-10.1,2.7,5.4-20,10.1Z" style="fill:#5e65ea"/><path d="M327.4,1625.3l5.4-2.7,10.1,20-5.4,2.7Z" style="fill:#5e65ea"/><path d="M278.4,1651.4a17.3,17.3,0,1,1,7.6-1.9A15.59,15.59,0,0,1,278.4,1651.4Zm0-28.3a11.15,11.15,0,1,0,11.2,11.1,11.13,11.13,0,0,0-11.2-11.1Zm42.1,111.5a17.28,17.28,0,1,1,7.8-1.9,16.35,16.35,0,0,1-7.8,1.9Zm0-28.3a11.15,11.15,0,1,0,11.2,11.1,10.55,10.55,0,0,0-1.2-5A11.24,11.24,0,0,0,320.5,1706.3Zm3.2-77.8a17.2,17.2,0,1,1,0-34.4,17.16,17.16,0,0,1,7.7,32.5,18.61,18.61,0,0,1-7.7,1.9Zm0-28.3a11.15,11.15,0,1,0,11.2,11.1,10.84,10.84,0,0,0-1.2-5A11.06,11.06,0,0,0,323.7,1600.2Z" style="fill:#5e65ea"/><path d="M282.2,1648.1l5.4-2.7,29.3,57.9-5.4,2.7Z" style="fill:#5e65ea"/><path d="M289.7,1625.1l20-10.1,2.7,5.4-20,10.1Z" style="fill:#5e65ea"/><path d="M587.6,1700.5a17.58,17.58,0,1,1,12.4-5.1,17.63,17.63,0,0,1-12.4,5.1Zm0-29.2a11.53,11.53,0,0,0-8.2,19.7,11.84,11.84,0,0,0,16.4,0,11.65,11.65,0,0,0,0-16.4,11.83,11.83,0,0,0-8.2-3.3Zm37-7.8a17.58,17.58,0,1,1,12.4-5.1,17.22,17.22,0,0,1-12.4,5.1Zm0-29.2a11.61,11.61,0,1,0,8.2,3.4,11.61,11.61,0,0,0-8.2-3.4Zm-74,29.2a17.58,17.58,0,1,1,12.4-5.1,17.22,17.22,0,0,1-12.4,5.1Zm0-29.2a11.44,11.44,0,1,0,8.2,3.3,11.83,11.83,0,0,0-8.2-3.3Z" style="fill:#5e65ea"/><path d="M595.8,1670.4l16.3-16.3,4.3,4.3-16.3,16.3Z" style="fill:#5e65ea"/><path d="M558.8,1658.3l4.3-4.3,16.3,16.3-4.3,4.3Z" style="fill:#5e65ea"/><path d="M851.6,1689.3a16,16,0,0,1-7.7-1.9,17,17,0,1,1,7.7,1.9Zm-5-7.2a11.15,11.15,0,1,0-5.5-6.4A10.8,10.8,0,0,0,846.6,1682.1Zm50.2,30.1A17.2,17.2,0,1,1,914,1695a16,16,0,0,1-1.9,7.7A16.66,16.66,0,0,1,896.8,1712.2Zm0-28.3a11.16,11.16,0,0,0-5.1,21.1,11.09,11.09,0,0,0,10-19.8,9,9,0,0,0-4.9-1.3Zm-68.2,50.7a16,16,0,0,1-7.7-1.9,17,17,0,1,1,7.7,1.9Zm0-28.3a11.16,11.16,0,0,0-5.1,21.1,11.09,11.09,0,0,0,10-19.8,9,9,0,0,0-4.9-1.3Z" style="fill:#5e65ea"/><path d="M862.9,1681.3l2.7-5.4,20,10.1-2.7,5.4Z" style="fill:#5e65ea"/><path d="M832.3,1703.4l10.1-20,5.4,2.7-10.1,20Z" style="fill:#5e65ea"/><path d="M783.4,1711.7a17.2,17.2,0,1,1,17.2-17.2,16,16,0,0,1-1.9,7.7A16.94,16.94,0,0,1,783.4,1711.7Zm0-28.3a11.18,11.18,0,1,0,4.9,1.2,10.44,10.44,0,0,0-4.9-1.2Zm42-54.9a17.31,17.31,0,1,1,5.4-.9A13.94,13.94,0,0,1,825.4,1628.5Zm0-28.3a11.13,11.13,0,1,0,5,1.2A10.55,10.55,0,0,0,825.4,1600.2Zm3.2,134.4a17.31,17.31,0,1,1,5.4-.9A16.11,16.11,0,0,1,828.6,1734.6Zm0-28.3a11.18,11.18,0,1,0,4.9,1.2,10.16,10.16,0,0,0-4.9-1.2Z" style="fill:#5e65ea"/><path d="M787.1,1680.5l29.3-57.9,5.4,2.7-29.3,57.9Z" style="fill:#5e65ea"/><path d="M794.7,1703.7l2.7-5.4,20,10.1-2.7,5.4Z" style="fill:#5e65ea"/><path d="M1066.5,1706.9h-.9a17.62,17.62,0,1,1,18.4-16.7,17.5,17.5,0,0,1-17.5,16.7Zm0-29.2a11.6,11.6,0,1,0,.6,0Zm2.6-23.1h-.9a18.1,18.1,0,1,1,.9,0Zm0-29.2a11.56,11.56,0,0,0-.5,23.1,11.8,11.8,0,0,0,12.1-11,11.6,11.6,0,0,0-11-12.1Zm49.7,84h-.9a18.1,18.1,0,1,1,.9,0Zm0-29.2a11.6,11.6,0,1,0,0,23.2,11.61,11.61,0,0,0,.5-23.2Z" style="fill:#5e65ea"/><path d="M1064.1,1674.4l1.1-23.1,6.1.3-1.1,23.1Z" style="fill:#5e65ea"/><path d="M1081,1693l.3-6.1,23.1,1.1-.3,6.1Z" style="fill:#5e65ea"/><path d="M190.5,1791.5l4.3-4.3,21.2,21.2-4.3,4.3Z" style="fill:#5e65ea"/><path d="M201.1,1780.8l4.3-4.3,21.2,21.2-4.3,4.3Z" style="fill:#5e65ea"/><path d="M707.3,1780.6l4.3-4.3,21.2,21.2-4.3,4.3Z" style="fill:#5e65ea"/><path d="M696.7,1791.3l4.3-4.3,21.2,21.2-4.3,4.3Z" style="fill:#5e65ea"/><path d="M463.8,1808.3a13.8,13.8,0,1,1,9.8-4,15.06,15.06,0,0,1-9.8,4Zm0-21.6a7.76,7.76,0,1,0-.7,15.5h.8a7.79,7.79,0,0,0,7.4-8.1,8.13,8.13,0,0,0-7.5-7.4Zm502.8,22.5a13.8,13.8,0,1,1,9.8-4,14.19,14.19,0,0,1-9.8,4Zm0-21.6a7.76,7.76,0,1,0-.7,15.5h.8a7.79,7.79,0,0,0,7.4-8.1,8,8,0,0,0-7.5-7.4Z" style="fill:#5e65ea"/><path d="M1205,1791.5l4.3-4.3,21.2,21.2-4.3,4.3Z" style="fill:#5e65ea"/><path d="M1215.7,1780.8l4.3-4.3,21.2,21.2-4.3,4.3Z" style="fill:#5e65ea"/><path d="M1721.8,1780.6l4.3-4.3,21.2,21.2-4.3,4.3Z" style="fill:#5e65ea"/><path d="M1711.1,1791.3l4.3-4.3,21.2,21.2-4.3,4.3Z" style="fill:#5e65ea"/><path d="M1478.2,1808.3a13.8,13.8,0,1,1,9.8-4,14.65,14.65,0,0,1-9.8,4Zm0-21.6a7.76,7.76,0,1,0-.7,15.5h.8a7.79,7.79,0,0,0,7.4-8.1,8,8,0,0,0-7.5-7.4Zm502.8,22.5a13.8,13.8,0,1,1,9.8-4,14.19,14.19,0,0,1-9.8,4Zm0-21.6a7.76,7.76,0,1,0-.7,15.5h.8a7.76,7.76,0,0,0,.7-15.5Z" style="fill:#5e65ea"/><path d="M2219.5,1791.6l4.3-4.3,21.2,21.2-4.3,4.3Z" style="fill:#5e65ea"/><path d="M2230.2,1780.9l4.3-4.3,21.2,21.2-4.3,4.3Z" style="fill:#5e65ea"/><path d="M2736.2,1780.6l4.3-4.3,21.2,21.2-4.3,4.3Z" style="fill:#5e65ea"/><path d="M2725.6,1791.3l4.3-4.3,21.2,21.2-4.3,4.3Z" style="fill:#5e65ea"/><path d="M2492.7,1808.3a13.8,13.8,0,1,1,9.8-4,14.85,14.85,0,0,1-9.8,4Zm0-21.6a7.76,7.76,0,1,0-.7,15.5h.8a7.76,7.76,0,0,0,.7-15.5Zm502.9,22.5a13.8,13.8,0,1,1,9.8-4,14.38,14.38,0,0,1-9.8,4Zm0-21.6a7.76,7.76,0,1,0-.7,15.5h.8a7.79,7.79,0,0,0,7.4-8.1,8.05,8.05,0,0,0-7.5-7.4Z" style="fill:#5e65ea"/><path d="M1458,525.9l21.2-21.2,4.3,4.3-21.2,21.2Z" style="fill:#5e65ea"/><path d="M1468.8,536.8l21.2-21.2,4.3,4.3-21.2,21.2Z" style="fill:#5e65ea"/><path d="M1205.1,268.9l4.3-4.3,21.2,21.2-4.3,4.3Z" style="fill:#5e65ea"/><path d="M1215.7,258.2l4.3-4.3,21.2,21.2-4.3,4.3Z" style="fill:#5e65ea"/><path d="M1721.8,258.1l4.3-4.3,21.2,21.2-4.3,4.3Z" style="fill:#5e65ea"/><path d="M1711.1,268.8l4.3-4.3,21.2,21.2-4.3,4.3Z" style="fill:#5e65ea"/><path d="M1213.3,8.5a13.86,13.86,0,1,0,19.6,0A13.88,13.88,0,0,0,1213.3,8.5Zm17.6,9.8a7.75,7.75,0,1,1-7.7-7.8,7.68,7.68,0,0,1,7.7,7.8Z" style="fill:#5e65ea"/><path d="M1458.2,21.5,1479.4.3l4.3,4.3-21.2,21.2Z" style="fill:#5e65ea"/><path d="M1468.8,32.1,1490,10.9l4.3,4.3-21.2,21.2Z" style="fill:#5e65ea"/><path d="M1742.9,18.2c0-.5-.1-1-.1-1.5a3.18,3.18,0,0,0-.3-.9,10.93,10.93,0,0,0-.5-1.7,4.05,4.05,0,0,0-.5-.9,10.93,10.93,0,0,0-.8-1.5c-.2-.3-.5-.6-.8-1a10.59,10.59,0,0,0-1-1.2,9.38,9.38,0,0,0-1.2-.9,3.92,3.92,0,0,0-1-.8,9.14,9.14,0,0,0-1.4-.7,3.13,3.13,0,0,0-1-.5,8.33,8.33,0,0,0-1.5-.4,3.81,3.81,0,0,1-1-.3,6.6,6.6,0,0,0-1.4-.1c-.4,0-.8-.1-1.2-.1a4.87,4.87,0,0,0-1.2.1c-.5,0-1,.1-1.4.1a2.93,2.93,0,0,0-1,.3c-.5.1-1,.3-1.5.4a4.67,4.67,0,0,0-1,.5c-.5.2-1,.5-1.4.7a3.92,3.92,0,0,0-1,.8,10.63,10.63,0,0,0-1.1.9,10.59,10.59,0,0,0-1,1.2,3.92,3.92,0,0,0-.8,1,10.93,10.93,0,0,0-.8,1.5,4.05,4.05,0,0,1-.5.9,10.93,10.93,0,0,0-.5,1.7,3.18,3.18,0,0,1-.3.9,7.57,7.57,0,0,0-.1,1.5c0,.4-.1.7-.1,1.1a4.1,4.1,0,0,0,.1,1.1c0,.5.1,1,.1,1.5a1.42,1.42,0,0,0,.2.6,6.64,6.64,0,0,0,.6,2,13.73,13.73,0,0,0,12.8,8.5,14,14,0,0,0,12.8-8.5c.2-.7.4-1.3.6-2a1.42,1.42,0,0,1,.2-.6,7.57,7.57,0,0,0,.1-1.5c0-.4.1-.7.1-1.1s-.2-.7-.2-1.1Zm-6,2.6c-.1.4-.2.8-.3,1.1v.3a5.94,5.94,0,0,1-.4.8.85.85,0,0,1-.3.5,2.65,2.65,0,0,1-.5.6c-.2.2-.3.4-.5.6a7.85,7.85,0,0,1-11,0c-.2-.2-.3-.4-.5-.6s-.3-.4-.5-.6-.2-.3-.3-.5a5.9,5.9,0,0,1-.4-.8v-.3l-.6-1.2a8,8,0,0,1,.4-4.3,10.91,10.91,0,0,1,.6-1.1l.1-.2a10.59,10.59,0,0,1,1-1.2c.2-.2.4-.3.5-.5a1.79,1.79,0,0,1,.7-.5l.3-.2a7.61,7.61,0,0,1,8.2.2c.2.1.3.3.5.4s.5.4.8.6a10.59,10.59,0,0,1,1,1.2l.1.2c.2.4.4.7.6,1.1a7.87,7.87,0,0,1,.4,4.3Z" style="fill:#5e65ea"/><path d="M1962,21.2,1983.2,0l4.3,4.3-21.2,21.2Z" style="fill:#5e65ea"/><path d="M1972.6,31.9l21.2-21.2,4.3,4.3-21.2,21.2Z" style="fill:#5e65ea"/><path d="M1962.1,525.9l21.2-21.2,4.3,4.3-21.2,21.2Z" style="fill:#5e65ea"/><path d="M1972.9,536.8l21.2-21.2,4.3,4.3-21.2,21.2Z" style="fill:#5e65ea"/><path d="M1478.2,284.8a13.8,13.8,0,1,1,9.8-4,14.19,14.19,0,0,1-9.8,4Zm0-21.6a7.76,7.76,0,1,0-.7,15.5h.8a7.79,7.79,0,0,0,7.4-8.1,8,8,0,0,0-7.5-7.4ZM1981,284.8a13.8,13.8,0,1,1,9.8-4,14.19,14.19,0,0,1-9.8,4Zm0-21.6a7.76,7.76,0,1,0-.7,15.5h.8a7.76,7.76,0,0,0,.7-15.5ZM1729.2,536.7a13.8,13.8,0,1,1,9.8-4A14.85,14.85,0,0,1,1729.2,536.7Zm0-21.6a7.76,7.76,0,1,0-.7,15.5h.8a7.79,7.79,0,0,0,7.4-8.1,8.05,8.05,0,0,0-7.5-7.4Zm-506.1,21.2a13.8,13.8,0,1,1,9.8-4A14.65,14.65,0,0,1,1223.1,536.3Zm0-21.6a7.76,7.76,0,1,0-.7,15.5h.8a7.79,7.79,0,0,0,7.4-8.1,8,8,0,0,0-7.5-7.4ZM1349.8,158h-.1a17.25,17.25,0,0,1,.1-34.5h.1a17.25,17.25,0,0,1-.1,34.5Zm0-28.3a11.1,11.1,0,1,0,11.1,11.1A11.14,11.14,0,0,0,1349.8,129.7Zm50.7,28.6h-.1a17.28,17.28,0,0,1-17.2-17.3,16.93,16.93,0,0,1,5.1-12.2,17.08,17.08,0,1,1,12.2,29.5Zm0-6a7.85,7.85,0,1,1,.1-.1h-.1Zm-51,56.5h-.1a17.21,17.21,0,1,1,16.7-16.6,17.27,17.27,0,0,1-16.7,16.6Zm0-6.1a11.1,11.1,0,1,0-11.1-11.1A11.14,11.14,0,0,0,1349.5,202.7Z" style="fill:#5e65ea"/><path d="M1363.8,143.9v-6.1l22.4.1V144Z" style="fill:#5e65ea"/><path d="M1346.4,177.4l.1-22.4h6.1l-.1,22.4Z" style="fill:#5e65ea"/><path d="M1298.7,208.4h-.1a17.25,17.25,0,1,1,.1,0Zm0-28.3a11.1,11.1,0,1,0,11.1,11.1A11.14,11.14,0,0,0,1298.7,180.1Zm.6-64.9a17.2,17.2,0,0,1,0-34.4h.1a17.2,17.2,0,0,1-.1,34.4Zm0-28.3a11.2,11.2,0,1,0,11.1,11.3A11.18,11.18,0,0,0,1299.3,86.9Zm50.2,121.9h-.1a17.15,17.15,0,1,1,.1,0Zm0-28.4a11.1,11.1,0,1,0,11.1,11.1,11,11,0,0,0-11.1-11.1Z" style="fill:#5e65ea"/><path d="M1295.7,177l.4-64.9h6.1l-.4,64.9Z" style="fill:#5e65ea"/><path d="M1312.7,194.3v-6.1l22.4.1v6.1Z" style="fill:#5e65ea"/><path d="M1627.7,183.1a18.11,18.11,0,1,1,3.4-.4,12.67,12.67,0,0,1-3.4.4Zm0-29.2a16.35,16.35,0,0,0-2.2.2,11.56,11.56,0,1,0,2.2-.2Zm-51.3,39.2a17.57,17.57,0,1,1,3.4-.3A19.53,19.53,0,0,1,1576.4,193.1Zm0-29.2a16.35,16.35,0,0,0-2.2.2,11.56,11.56,0,1,0,2.2-.2Zm41.5-32.1a17.53,17.53,0,1,1,3.4-.3,20.41,20.41,0,0,1-3.4.3Zm0-29.2a16.35,16.35,0,0,0-2.2.2,11.56,11.56,0,1,0,2.2-.2Z" style="fill:#5e65ea"/><path d="M1590.2,169.9l22.7-4.4,1.2,6-22.7,4.4Z" style="fill:#5e65ea"/><path d="M1617.7,129.2l6-1.2,4.4,22.7-6,1.2Z" style="fill:#5e65ea"/><path d="M1865,164.6a17.71,17.71,0,1,1,2.1-.2,7.49,7.49,0,0,1-2.1.2Zm-11.1-15.8a11.09,11.09,0,1,0,9.6-12.4A11.05,11.05,0,0,0,1853.9,148.8Zm17.4,66.2a17.71,17.71,0,1,1,2.1-.2,14.92,14.92,0,0,1-2.1.2Zm-11-15.9a11.09,11.09,0,1,0,9.6-12.4A11.05,11.05,0,0,0,1860.3,199.1Zm-45.7-28.2a17.7,17.7,0,1,1,2.2-.2A7.84,7.84,0,0,1,1814.6,170.9Zm0-28.3h-1.4A11.12,11.12,0,1,0,1825,153,11,11,0,0,0,1814.6,142.6Z" style="fill:#5e65ea"/><path d="M1863.7,162l6-.8,2.8,22.3-6,.8Z" style="fill:#5e65ea"/><path d="M1828.3,149.2l22.3-2.8.8,6-22.3,2.8Z" style="fill:#5e65ea"/><path d="M1808.3,120.6a17,17,0,1,1,2.2-.1c-.8,0-1.5.1-2.2.1Zm0-28.4h-1.4a11.2,11.2,0,0,0-9.7,12.4,11.18,11.18,0,0,0,12.4,9.7,11.11,11.11,0,0,0-1.3-22.1Zm92.5,16.8a16.87,16.87,0,1,1,2.2-.1C1902.3,108.9,1901.5,109,1900.8,109Zm0-28.3h-1.4a11.13,11.13,0,0,0,2.7,22.1,11.08,11.08,0,0,0,9.4-12.6,11,11,0,0,0-10.7-9.5Zm-86.2,90.2a17.7,17.7,0,1,1,2.2-.2A8.2,8.2,0,0,1,1814.6,170.9Zm0-28.3h-1.4a11.13,11.13,0,0,0,2.7,22.1,11.08,11.08,0,0,0,9.4-12.6,10.89,10.89,0,0,0-10.7-9.5Z" style="fill:#5e65ea"/><path d="M1822,98.8l64.4-8.1.8,6-64.4,8.1Z" style="fill:#5e65ea"/><path d="M1807.1,118l6-.8,2.8,22.3-6,.8Z" style="fill:#5e65ea"/><path d="M2125.8,137.1a17.51,17.51,0,1,1,4.2-.5A18.59,18.59,0,0,1,2125.8,137.1Zm0-29.2a11.6,11.6,0,1,0,11.6,11.6,9.67,9.67,0,0,0-.4-2.9,11.45,11.45,0,0,0-11.2-8.7Zm13.1,79.8a17.78,17.78,0,1,1,4.4-.6,13,13,0,0,1-4.4.6Zm0-29.2a9.25,9.25,0,0,0-2.9.4,11.38,11.38,0,1,0,2.9-.4Zm-63.7-8.4a17.46,17.46,0,1,1,4.4-.5A21.18,21.18,0,0,1,2075.2,150.1ZM2064,135.3a11.57,11.57,0,1,0,8.3-14.1A11.55,11.55,0,0,0,2064,135.3Z" style="fill:#5e65ea"/><path d="M2126.5,134.1l5.9-1.5,5.8,22.4-5.9,1.5Z" style="fill:#5e65ea"/><path d="M2088.6,126l22.4-5.8,1.5,5.9-22.4,5.8Z" style="fill:#5e65ea"/><path d="M1375.7,441a17.6,17.6,0,1,1,17.6-17.6A17.63,17.63,0,0,1,1375.7,441Zm0-29.2a11.55,11.55,0,1,0-.1,23.1h.1a11.55,11.55,0,1,0,0-23.1Zm.1-23.1a17.6,17.6,0,1,1,17.6-17.6A17.63,17.63,0,0,1,1375.8,388.7Zm0-29.2a11.55,11.55,0,1,0,11.5,11.5A11.44,11.44,0,0,0,1375.8,359.5ZM1323.4,441a17.6,17.6,0,1,1,17.6-17.6A17.63,17.63,0,0,1,1323.4,441Zm0-29.2a11.55,11.55,0,1,0-.1,23.1h.1a11.55,11.55,0,1,0,0-23.1Z" style="fill:#5e65ea"/><path d="M1370.2,408.2V385.1h6.1v23.1Z" style="fill:#5e65ea"/><path d="M1338,426.4v-6.1h23.1v6.1Z" style="fill:#5e65ea"/><path d="M1601.1,420.9a16.84,16.84,0,1,1,.8,0Zm-.5-28.3a11.11,11.11,0,1,0,11.6,10.6A11.15,11.15,0,0,0,1600.6,392.6Zm-50.2,30.8a16.84,16.84,0,1,1,.8,0Zm-.5-28.3a11.59,11.59,0,1,0,.1,0Zm48.8-24.8a16.84,16.84,0,1,1,.8,0Zm-.6-28.3a11.15,11.15,0,0,0-10.6,11.6,10.79,10.79,0,0,0,3.6,7.7,11.18,11.18,0,0,0,15.7-.7,11.32,11.32,0,0,0,2.9-8A11,11,0,0,0,1598.1,342Z" style="fill:#5e65ea"/><path d="M1564.4,402.4l22.4-1.1.3,6.1-22.4,1.1Z" style="fill:#5e65ea"/><path d="M1596.3,367.4l6.1-.3,1.1,22.4-6.1.3Z" style="fill:#5e65ea"/><path d="M1649.3,367.9a16.79,16.79,0,1,1,.9,0Zm-11.1-16.7a11.59,11.59,0,1,0,0-.1ZM1653.8,461a16.79,16.79,0,1,1,.9,0Zm-11.1-16.7a11.11,11.11,0,1,0,10.6-11.6A11.15,11.15,0,0,0,1642.7,444.3Zm-44-74a16.84,16.84,0,1,1,.8,0Zm0-28.3h-.5a11.49,11.49,0,1,0,.5,0Z" style="fill:#5e65ea"/><path d="M1647,365l6.1-.3,3.1,64.8-6.1.3Z" style="fill:#5e65ea"/><path d="M1612.7,349.2l22.4-1.1.3,6.1-22.4,1.1Z" style="fill:#5e65ea"/><path d="M1830,399.4a18,18,0,1,1,6-1.2A17.33,17.33,0,0,1,1830,399.4Zm0-29.3a11.55,11.55,0,1,0,11.6,11.5,10.88,10.88,0,0,0-.7-4A11.75,11.75,0,0,0,1830,370.1Zm18,78.4a17.69,17.69,0,1,1,6-1.1A16.83,16.83,0,0,1,1848,448.5Zm0-29.3a11.6,11.6,0,1,0,11.6,11.6,10.88,10.88,0,0,0-.7-4A11.84,11.84,0,0,0,1848,419.2Zm31.2-37.9a17.45,17.45,0,1,1,6.1-1A18.56,18.56,0,0,1,1879.2,381.3Zm0-29.2a11.55,11.55,0,1,0,11.5,11.6,10.88,10.88,0,0,0-.7-4A11.66,11.66,0,0,0,1879.2,352.1Z" style="fill:#5e65ea"/><path d="M1832.2,396.4l5.7-2.1,7.9,21.7-5.7,2.1Z" style="fill:#5e65ea"/><path d="M1842.7,373.9l21.7-7.9,2.1,5.7-21.7,7.9Z" style="fill:#5e65ea"/><path d="M2093,431.5a17.2,17.2,0,1,1,12.7-5.6,17,17,0,0,1-11.9,5.6Zm0-28.3h-.5a10.79,10.79,0,0,0-7.7,3.6,11.11,11.11,0,1,0,15.7-.7A10.85,10.85,0,0,0,2093,403.2Zm-34.1,65.9a17.25,17.25,0,1,1,12.8-5.7,17.2,17.2,0,0,1-12.8,5.7Zm-8.2-24.7a11.12,11.12,0,1,0,15.8-.8A11.21,11.21,0,0,0,2050.7,444.4Zm4.7-47a17.2,17.2,0,0,1-12.7-28.8,17,17,0,0,1,11.9-5.6,17.27,17.27,0,0,1,13.6,28.8,17.63,17.63,0,0,1-12.8,5.6Zm-8.1-24.8a11.64,11.64,0,1,0,.2-.2c-.1.2-.2.2-.2.2Z" style="fill:#5e65ea"/><path d="M2066.1,439.2l15.1-16.6,4.5,4.1-15.1,16.6Z" style="fill:#5e65ea"/><path d="M2063.9,392l4.1-4.5,16.6,15.1-4.1,4.5Z" style="fill:#5e65ea"/><path d="M2089.6,359.8a17.25,17.25,0,1,1,12.7-5.7A16.63,16.63,0,0,1,2089.6,359.8Zm-7.5-8.9a11.12,11.12,0,1,0-.8-15.7A11.28,11.28,0,0,0,2082.1,350.9Zm76.5,71.6a17.25,17.25,0,1,1,12.7-5.7A16.63,16.63,0,0,1,2158.6,422.5Zm-7.5-8.9a11.12,11.12,0,1,0-.8-15.8A11.4,11.4,0,0,0,2151.1,413.6Zm-95.7-16.2a17.2,17.2,0,1,1,12.6-5.6A16.86,16.86,0,0,1,2055.4,397.4Zm0-28.3a11.1,11.1,0,1,0,7.5,2.9A10.85,10.85,0,0,0,2055.4,369.1Z" style="fill:#5e65ea"/><path d="M2098,354.3l4.1-4.5,48,43.7L2146,398Z" style="fill:#5e65ea"/><path d="M2062.7,367.5l15.1-16.6,4.5,4.1-15.1,16.6Z" style="fill:#5e65ea"/><path d="M1361.1,659.2a17.29,17.29,0,1,1,7.7-1.9,17.2,17.2,0,0,1-7.7,1.9Zm0-28.4a10.84,10.84,0,0,0-5,1.2,11.07,11.07,0,1,0,14.9,4.8A11.38,11.38,0,0,0,1361.1,630.8Zm45.3,5.5a17.26,17.26,0,0,1-17.3-17.1,17.22,17.22,0,1,1,25,15.3,19.26,19.26,0,0,1-7.7,1.8Zm0-28.4a10.84,10.84,0,0,0-5,1.2,11.16,11.16,0,1,0,15,4.9,11.43,11.43,0,0,0-10-6.1Zm-68.2,6.1a17.28,17.28,0,1,1,7.8-1.9,17.93,17.93,0,0,1-7.8,1.9Zm0-28.4a10.84,10.84,0,0,0-5,1.2,11.16,11.16,0,1,0,15,4.9,11.43,11.43,0,0,0-10-6.1Z" style="fill:#5e65ea"/><path d="M1372.3,632.8l20-10.1,2.7,5.4-20,10.1Z" style="fill:#5e65ea"/><path d="M1341.8,610.7l5.4-2.7,10.1,20-5.4,2.7Z" style="fill:#5e65ea"/><path d="M1292.9,636.8a17.29,17.29,0,1,1,7.8-1.9A16.64,16.64,0,0,1,1292.9,636.8Zm0-28.3a11.15,11.15,0,1,0,11.2,11.1,10.84,10.84,0,0,0-1.2-5A11.06,11.06,0,0,0,1292.9,608.5ZM1335,720a17.28,17.28,0,1,1,7.8-1.9,17.93,17.93,0,0,1-7.8,1.9Zm0-28.3a11.15,11.15,0,1,0,11.2,11.1,10.55,10.55,0,0,0-1.2-5A11,11,0,0,0,1335,691.7Zm3.2-77.7a17.26,17.26,0,1,1,7.9-1.9,18.36,18.36,0,0,1-7.9,1.9Zm0-28.4a11.15,11.15,0,1,0,11.2,11.1,10.84,10.84,0,0,0-1.2-5A11.06,11.06,0,0,0,1338.2,585.6Z" style="fill:#5e65ea"/><path d="M1296.5,633.5l5.4-2.7,29.3,57.9-5.4,2.7Z" style="fill:#5e65ea"/><path d="M1304.1,610.5l20-10.1,2.7,5.4-20,10.1Z" style="fill:#5e65ea"/><path d="M1602.1,685.9a17.58,17.58,0,1,1,12.4-5.1A17.63,17.63,0,0,1,1602.1,685.9Zm0-29.2a11.53,11.53,0,0,0-8.2,19.7,11.84,11.84,0,0,0,16.4,0,11.65,11.65,0,0,0,0-16.4,12,12,0,0,0-8.2-3.3Zm37-7.8a17.58,17.58,0,1,1,12.4-5.1A17.63,17.63,0,0,1,1639.1,648.9Zm0-29.2a11.61,11.61,0,1,0,8.2,3.4,11.33,11.33,0,0,0-8.2-3.4Zm-74,29.2a17.58,17.58,0,1,1,12.4-5.1A17.63,17.63,0,0,1,1565.1,648.9Zm0-29.2a11.44,11.44,0,1,0,8.2,3.3A11.83,11.83,0,0,0,1565.1,619.7Z" style="fill:#5e65ea"/><path d="M1610.3,655.8l16.3-16.3,4.3,4.3-16.3,16.3Z" style="fill:#5e65ea"/><path d="M1573.3,643.7l4.3-4.3,16.3,16.3-4.3,4.3Z" style="fill:#5e65ea"/><path d="M1866,674.7a16,16,0,0,1-7.7-1.9,17,17,0,1,1,7.7,1.9Zm-5-7.3a11.15,11.15,0,1,0-5.5-6.4A11,11,0,0,0,1861,667.4Zm50.3,30.2a17.2,17.2,0,1,1,17.2-17.2,16,16,0,0,1-1.9,7.7,16.66,16.66,0,0,1-15.3,9.5Zm0-28.3a11.16,11.16,0,0,0-5.1,21.1,11.09,11.09,0,1,0,10-19.8,9.47,9.47,0,0,0-4.9-1.3ZM1843.1,720a16,16,0,0,1-7.7-1.9,17.08,17.08,0,1,1,23-7.4,17.35,17.35,0,0,1-15.3,9.3Zm0-28.3a11.16,11.16,0,0,0-5.1,21.1,11.09,11.09,0,0,0,10-19.8,9.47,9.47,0,0,0-4.9-1.3Z" style="fill:#5e65ea"/><path d="M1877.4,666.7l2.7-5.4,20,10.1-2.7,5.4Z" style="fill:#5e65ea"/><path d="M1846.9,688.8l10.1-20,5.4,2.7-10.1,20Z" style="fill:#5e65ea"/><path d="M1797.8,697.1a17.2,17.2,0,1,1,17.2-17.2,16,16,0,0,1-1.9,7.7,17,17,0,0,1-15.3,9.5Zm0-28.3a11.22,11.22,0,0,0-11.2,11.1,11.1,11.1,0,0,0,11.1,11.2,11.14,11.14,0,0,0,5-21.1,10.44,10.44,0,0,0-4.9-1.2Zm42.1-54.8a17.31,17.31,0,1,1,5.4-.9,16.54,16.54,0,0,1-5.4.9Zm0-28.4a11.13,11.13,0,1,0,5,1.2A10.55,10.55,0,0,0,1839.9,585.6Zm3.2,134.4a17.31,17.31,0,1,1,5.4-.9,17,17,0,0,1-5.4.9Zm0-28.3a11.18,11.18,0,1,0,4.9,1.2,10.44,10.44,0,0,0-4.9-1.2Z" style="fill:#5e65ea"/><path d="M1801.6,665.9l29.3-57.9,5.4,2.7L1807,668.6Z" style="fill:#5e65ea"/><path d="M1809.2,689l2.7-5.4,20,10.1-2.7,5.4Z" style="fill:#5e65ea"/><path d="M2081,692.2h-.9a17.62,17.62,0,1,1,18.4-16.7A17.43,17.43,0,0,1,2081,692.2Zm0-29.2a11.6,11.6,0,1,0,.6,0Zm2.6-23h-.9a18.1,18.1,0,1,1,.9,0Zm0-29.2a11.56,11.56,0,0,0-.5,23.1,11.8,11.8,0,0,0,12.1-11,11.6,11.6,0,0,0-11-12.1Zm49.6,84h-.9a18.1,18.1,0,1,1,.9,0Zm0-29.2a11.6,11.6,0,1,0,0,23.2,11.61,11.61,0,0,0,.5-23.2Z" style="fill:#5e65ea"/><path d="M2078.5,659.8l1.1-23.1,6.1.3-1.1,23.1Z" style="fill:#5e65ea"/><path d="M2095.5,678.4l.3-6.1,23.1,1.1-.3,6.1Z" style="fill:#5e65ea"/><path d="M1458.1,1540.5l21.2-21.2,4.3,4.3-21.2,21.2Z" style="fill:#5e65ea"/><path d="M1468.8,1551.4l21.2-21.2,4.3,4.3-21.2,21.2Z" style="fill:#5e65ea"/><path d="M1205,1283.6l4.3-4.3,21.2,21.2-4.3,4.3Z" style="fill:#5e65ea"/><path d="M1215.7,1272.9l4.3-4.3,21.2,21.2-4.3,4.3Z" style="fill:#5e65ea"/><path d="M1721.8,1272.7l4.3-4.3,21.2,21.2-4.3,4.3Z" style="fill:#5e65ea"/><path d="M1711.1,1283.4l4.3-4.3,21.2,21.2-4.3,4.3Z" style="fill:#5e65ea"/><path d="M1205,776.8l4.3-4.3,21.2,21.2-4.3,4.3Z" style="fill:#5e65ea"/><path d="M1215.7,766.2l4.3-4.3,21.2,21.2-4.3,4.3Z" style="fill:#5e65ea"/><path d="M1213.3,1023.1a13.86,13.86,0,1,0,19.6,0A13.88,13.88,0,0,0,1213.3,1023.1Zm17.5,9.8a7.75,7.75,0,1,1-7.7-7.8,7.81,7.81,0,0,1,5.5,2.3A7.39,7.39,0,0,1,1230.8,1032.9Z" style="fill:#5e65ea"/><path d="M1458.1,1036.2l21.2-21.2,4.3,4.3-21.2,21.2Z" style="fill:#5e65ea"/><path d="M1468.8,1046.8l21.2-21.2,4.3,4.3-21.2,21.2Z" style="fill:#5e65ea"/><path d="M1721.8,766l4.3-4.3,21.2,21.2-4.3,4.3Z" style="fill:#5e65ea"/><path d="M1711.1,776.7l4.3-4.3,21.2,21.2-4.3,4.3Z" style="fill:#5e65ea"/><path d="M1742.9,1032.8c0-.5-.1-1-.1-1.5a3.18,3.18,0,0,0-.3-.9,10.93,10.93,0,0,0-.5-1.7,4.05,4.05,0,0,0-.5-.9,10.93,10.93,0,0,0-.8-1.5c-.2-.3-.5-.6-.8-1a10.59,10.59,0,0,0-1-1.2,9.38,9.38,0,0,0-1.2-.9,3.92,3.92,0,0,0-1-.8,9.14,9.14,0,0,0-1.4-.7,3.13,3.13,0,0,0-1-.5,8.33,8.33,0,0,0-1.5-.4,3.81,3.81,0,0,1-1-.3,6.6,6.6,0,0,0-1.4-.1c-.4,0-.8-.1-1.2-.1a4.87,4.87,0,0,0-1.2.1c-.5,0-1,.1-1.4.1a2.93,2.93,0,0,0-1,.3c-.5.1-1,.3-1.5.4a4.67,4.67,0,0,0-1,.5c-.5.2-1,.5-1.4.7a3.92,3.92,0,0,0-1,.8,7.85,7.85,0,0,0-2.1,2.1,3.92,3.92,0,0,0-.8,1,10.93,10.93,0,0,0-.8,1.5,4.05,4.05,0,0,1-.5.9,10.93,10.93,0,0,0-.5,1.7,3.18,3.18,0,0,1-.3.9,7.57,7.57,0,0,0-.1,1.5c0,.4-.1.7-.1,1.1a4.1,4.1,0,0,0,.1,1.1c0,.5.1,1,.1,1.5a1.42,1.42,0,0,0,.2.6,6.64,6.64,0,0,0,.6,2,13.73,13.73,0,0,0,12.8,8.5,14,14,0,0,0,12.8-8.5c.2-.7.4-1.3.6-2a1.42,1.42,0,0,1,.2-.6,7.57,7.57,0,0,0,.1-1.5c0-.4.1-.7.1-1.1s-.2-.7-.2-1.1Zm-6,2.6c-.1.4-.2.8-.3,1.1v.3a5.94,5.94,0,0,1-.4.8.85.85,0,0,1-.3.5,2.65,2.65,0,0,1-.5.6c-.2.2-.3.4-.5.6a7.85,7.85,0,0,1-11,0c-.2-.2-.3-.4-.5-.6s-.3-.4-.5-.6-.2-.3-.3-.5a5.9,5.9,0,0,1-.4-.8v-.3a6.15,6.15,0,0,1-.3-1.1,8,8,0,0,1,.4-4.3,10.91,10.91,0,0,1,.6-1.1l.1-.2a10.59,10.59,0,0,1,1-1.2c.2-.2.4-.3.5-.5a1.79,1.79,0,0,1,.7-.5l.3-.2a7.61,7.61,0,0,1,8.2.2c.2.1.3.3.5.4s.5.4.8.6a10.59,10.59,0,0,1,1,1.2l.1.2c.2.4.4.7.6,1.1a7.87,7.87,0,0,1,.4,4.3Z" style="fill:#5e65ea"/><path d="M1962,1035.8l21.2-21.2,4.3,4.3-21.2,21.2Z" style="fill:#5e65ea"/><path d="M1972.7,1046.5l21.2-21.2,4.3,4.3-21.2,21.2Z" style="fill:#5e65ea"/><path d="M1962.1,1540.5l21.2-21.2,4.3,4.3-21.2,21.2Z" style="fill:#5e65ea"/><path d="M1972.8,1551.5l21.2-21.2,4.3,4.3-21.2,21.2Z" style="fill:#5e65ea"/><path d="M1324.3,943.5a22,22,0,0,1-4.4-.5,17.65,17.65,0,1,1,21.6-12.8,17.77,17.77,0,0,1-17.2,13.3Zm0-29.2a11.41,11.41,0,1,0,2.8.3,14.07,14.07,0,0,0-2.8-.3Zm50.7,42a22,22,0,0,1-4.4-.5,17.62,17.62,0,1,1,8.1-34.3,4.33,4.33,0,0,1,.5.1,17.69,17.69,0,0,1,12.9,21.4A17.35,17.35,0,0,1,1375,956.3Zm0-29.2a11.31,11.31,0,1,0,2.9.3A15,15,0,0,0,1375,927.1Zm-37.8-34.3a22,22,0,0,1-4.4-.5,17.65,17.65,0,1,1,21.6-12.8,17.77,17.77,0,0,1-17.2,13.3Zm0-29.3a11.41,11.41,0,1,0,2.9.3l-2.9-.3Z" style="fill:#5e65ea"/><path d="M1337.7,932.4l1.5-5.9,22.4,5.7-1.5,5.9Z" style="fill:#5e65ea"/><path d="M1324.8,910.9l5.7-22.4,5.9,1.5-5.7,22.4Z" style="fill:#5e65ea"/><path d="M1478.2,793.7a13.8,13.8,0,1,1,9.8-4A14.65,14.65,0,0,1,1478.2,793.7Zm0-21.6a7.76,7.76,0,1,0-.7,15.5h.8a7.79,7.79,0,0,0,7.4-8.1,7.89,7.89,0,0,0-7.5-7.4Zm0,527.3a13.8,13.8,0,1,1,9.8-4,14.19,14.19,0,0,1-9.8,4Zm0-21.6a7.76,7.76,0,1,0-.7,15.5h.8a7.79,7.79,0,0,0,7.4-8.1,8,8,0,0,0-7.5-7.4ZM1981,794.6a13.8,13.8,0,1,1,9.8-23.6,14,14,0,0,1,.1,19.6A14.43,14.43,0,0,1,1981,794.6Zm0-21.6a7.76,7.76,0,1,0-.7,15.5h.8a7.76,7.76,0,0,0,.7-15.5Zm0,526.4a13.8,13.8,0,1,1,9.8-4,14.19,14.19,0,0,1-9.8,4Zm0-21.6a7.76,7.76,0,1,0-.7,15.5h.8a7.76,7.76,0,0,0,.7-15.5Zm-251.8,273.5a13.8,13.8,0,1,1,9.8-4,14.38,14.38,0,0,1-9.8,4Zm0-21.6a7.76,7.76,0,1,0-.7,15.5h.8a7.79,7.79,0,0,0,7.4-8.1,8.05,8.05,0,0,0-7.5-7.4Zm-506.1,21.2a13.8,13.8,0,1,1,9.8-4,14.65,14.65,0,0,1-9.8,4Zm0-21.6a7.76,7.76,0,1,0-.7,15.5h.8a7.79,7.79,0,0,0,7.4-8.1,8.05,8.05,0,0,0-7.5-7.4Zm378-598.6a16.84,16.84,0,1,1,.8,0Zm-.5-28.4a11.11,11.11,0,1,0,11.6,10.6A11.15,11.15,0,0,0,1600.6,902.3Zm-50.2,30.8a16.84,16.84,0,1,1,.8,0Zm-.5-28.3a11.11,11.11,0,1,0,11.6,10.6A11.15,11.15,0,0,0,1549.9,904.8Zm48.7-24.8a16.84,16.84,0,1,1,.8,0Zm-.5-28.3a11.15,11.15,0,0,0-10.6,11.6,10.79,10.79,0,0,0,3.6,7.7,11.32,11.32,0,0,0,8,2.9,11.15,11.15,0,0,0,10.6-11.6,10.79,10.79,0,0,0-3.6-7.7A10.61,10.61,0,0,0,1598.1,851.7Z" style="fill:#5e65ea"/><path d="M1564.5,912l22.4-1.1.3,6.1-22.4,1.1Z" style="fill:#5e65ea"/><path d="M1596.3,877l6.1-.3,1.1,22.4-6.1.3Z" style="fill:#5e65ea"/><path d="M1649.3,877.6a16.79,16.79,0,1,1,.9,0Zm-11.1-16.7a11.59,11.59,0,1,0,0-.1Zm15.6,109.8a16.79,16.79,0,1,1,.9,0ZM1642.7,954a11.11,11.11,0,1,0,10.6-11.6A11.15,11.15,0,0,0,1642.7,954Zm-44.1-74a17.26,17.26,0,1,1,.9,0Zm0-28.4h-.5a11.15,11.15,0,0,0-10.6,11.6,11,11,0,0,0,3.6,7.7,11.32,11.32,0,0,0,8,2.9,11.1,11.1,0,1,0-.5-22.2Z" style="fill:#5e65ea"/><path d="M1647,874.7l6.1-.3,3.1,64.8-6.1.3Z" style="fill:#5e65ea"/><path d="M1612.7,858.9l22.4-1.1.3,6.1L1613,865Z" style="fill:#5e65ea"/><path d="M1831.7,950.5a17.52,17.52,0,1,1,2.1-.1,14.77,14.77,0,0,1-2.1.1Zm0-29.2h-1.4a11.52,11.52,0,1,0,12.2,10.8,11.61,11.61,0,0,0-10.8-10.8Zm51.9,23.1a17.52,17.52,0,1,1,2.1-.1,14.77,14.77,0,0,1-2.1.1Zm-1.3-29.1a11.57,11.57,0,0,0-10,12.9,11.86,11.86,0,0,0,4.2,7.6,11.39,11.39,0,0,0,8.5,2.4,11.53,11.53,0,0,0-2.7-22.9Zm-56.8-16.7a17.52,17.52,0,1,1,2.1-.1c-.7,0-1.4.1-2.1.1Zm-1.3-29.2a11.53,11.53,0,1,0,12.8,10.1v-.1A11.55,11.55,0,0,0,1824.2,869.4Z" style="fill:#5e65ea"/><path d="M1845.9,928l22.9-2.7.7,6-22.9,2.7Z" style="fill:#5e65ea"/><path d="M1824.3,895.7l6-.7,2.7,22.9-6,.7Z" style="fill:#5e65ea"/><path d="M2125.4,938.8a17.2,17.2,0,0,1,0-34.4h.3a17.2,17.2,0,0,1-.3,34.4Zm0-28.3a10.9,10.9,0,1,0,.2,0Zm35.1,64.9a17,17,0,0,1-12.4-5.3,17.19,17.19,0,1,1,24.3.4,16.46,16.46,0,0,1-11.9,4.9Zm0-28.3a11.17,11.17,0,0,0-8.1,18.9,11.1,11.1,0,1,0,16-15.4,10.82,10.82,0,0,0-7.8-3.4ZM2088.8,974a17,17,0,0,1-12.4-5.3,17,17,0,1,1,12.4,5.3Zm-8.1-9.5a11.1,11.1,0,1,0,8.2-18.8,11.55,11.55,0,0,0-7.9,3.1,11.17,11.17,0,0,0-.3,15.7Z" style="fill:#5e65ea"/><path d="M2133,934l4.4-4.2,15.5,16.2-4.4,4.2Z" style="fill:#5e65ea"/><path d="M2097,945l16.2-15.5,4.2,4.4-16.2,15.5Z" style="fill:#5e65ea"/><path d="M2053.6,937.4h-.3a17.2,17.2,0,1,1,17.5-16.9,16.9,16.9,0,0,1-5.3,12,16.63,16.63,0,0,1-11.9,4.9Zm0-28.3a11.1,11.1,0,0,0-.2,22.2,11.55,11.55,0,0,0,7.9-3.1,11.1,11.1,0,0,0-7.5-19.1Zm67.2-36.3h-.3a17.2,17.2,0,1,1,17.5-16.9,16.9,16.9,0,0,1-5.3,12A16.63,16.63,0,0,1,2120.8,872.8Zm0-28.3a11.1,11.1,0,1,0,8,3.4,11.14,11.14,0,0,0-8-3.4Zm-32,129.5a17.23,17.23,0,1,1,11.9-4.8A17.2,17.2,0,0,1,2088.8,974Zm0-28.3a10.9,10.9,0,1,0,.2,0Z" style="fill:#5e65ea"/><path d="M2061.8,908.4l46.8-45,4.2,4.4-46.8,45Z" style="fill:#5e65ea"/><path d="M2061.2,932.5l4.4-4.2,15.5,16.2-4.4,4.2Z" style="fill:#5e65ea"/><path d="M1349.8,1172.6h-.1a17.25,17.25,0,1,1,.1-34.5h.1a17.25,17.25,0,0,1-.1,34.5Zm0-28.3a11.1,11.1,0,1,0,11.1,11.1A11.14,11.14,0,0,0,1349.8,1144.3Zm50.7,28.7h-.1a17.28,17.28,0,0,1-17.2-17.3,16.93,16.93,0,0,1,5.1-12.2,17.08,17.08,0,1,1,12.2,29.5Zm0-6.1a7.85,7.85,0,1,1,.1-.1h-.1Zm-51,56.5h-.1a16.45,16.45,0,1,1,.1,0Zm0-6.1a11.1,11.1,0,1,0-11.1-11.1A11.14,11.14,0,0,0,1349.5,1217.3Z" style="fill:#5e65ea"/><path d="M1363.8,1158.5v-6.1l22.4.1v6.1Z" style="fill:#5e65ea"/><path d="M1346.4,1192l.1-22.4h6.1l-.1,22.4Z" style="fill:#5e65ea"/><path d="M1298.7,1223.1h-.1a17.25,17.25,0,1,1,.1,0Zm0-28.4a11.1,11.1,0,1,0,11.1,11.1A11.14,11.14,0,0,0,1298.7,1194.7Zm.6-64.9a17.21,17.21,0,0,1,.1-34.4h.1a17.2,17.2,0,0,1-.2,34.4Zm0-28.3a11.1,11.1,0,1,0,11.1,11.1A11.14,11.14,0,0,0,1299.3,1101.5Zm50.2,121.9h-.1a17.15,17.15,0,1,1,.1,0Zm0-28.4a11.1,11.1,0,1,0,11.1,11.1,11,11,0,0,0-11.1-11.1Z" style="fill:#5e65ea"/><path d="M1295.7,1191.6l.4-64.9h6.1l-.4,64.9Z" style="fill:#5e65ea"/><path d="M1312.7,1208.9v-6.1l22.4.1v6.1Z" style="fill:#5e65ea"/><path d="M1627.7,1197.8a18.11,18.11,0,1,1,3.4-.4,12.67,12.67,0,0,1-3.4.4Zm0-29.2a16.35,16.35,0,0,0-2.2.2,11.55,11.55,0,1,0,13.5,9.2,11.39,11.39,0,0,0-11.3-9.4Zm-51.3,39.1a17.57,17.57,0,1,1,3.4-.3A19.53,19.53,0,0,1,1576.4,1207.7Zm0-29.2a16.35,16.35,0,0,0-2.2.2,11.56,11.56,0,1,0,2.2-.2Zm41.5-32.1a17.53,17.53,0,1,1,3.4-.3,20.41,20.41,0,0,1-3.4.3Zm0-29.2a16.35,16.35,0,0,0-2.2.2,11.56,11.56,0,1,0,2.2-.2Z" style="fill:#5e65ea"/><path d="M1590.1,1184.5l22.7-4.4,1.2,6-22.7,4.4Z" style="fill:#5e65ea"/><path d="M1617.6,1143.8l6-1.2,4.4,22.7-6,1.2Z" style="fill:#5e65ea"/><path d="M1865,1179.3a17.71,17.71,0,1,1,2.1-.2A14.92,14.92,0,0,1,1865,1179.3Zm-11.1-15.9a11.09,11.09,0,1,0,9.6-12.4A11.2,11.2,0,0,0,1853.9,1163.4Zm17.4,66.2a17.71,17.71,0,1,1,2.1-.2A7.49,7.49,0,0,1,1871.3,1229.6Zm-11-15.8a11.09,11.09,0,1,0,9.6-12.4A11.05,11.05,0,0,0,1860.3,1213.8Zm-45.7-28.2a17.7,17.7,0,1,1,2.2-.2c-.7.1-1.4.1-2.2.2Zm0-28.4h-1.4a11.12,11.12,0,1,0,11.8,10.4A11,11,0,0,0,1814.6,1157.2Z" style="fill:#5e65ea"/><path d="M1863.7,1176.6l6-.8,2.8,22.3-6,.8Z" style="fill:#5e65ea"/><path d="M1828.2,1163.8l22.3-2.8.8,6-22.3,2.8Z" style="fill:#5e65ea"/><path d="M1808.3,1135.2a17,17,0,1,1,2.2-.1c-.8,0-1.5.1-2.2.1Zm0-28.3h-1.4a11.2,11.2,0,0,0-9.7,12.4,11.18,11.18,0,0,0,12.4,9.7,11.08,11.08,0,0,0,9.4-12.6,11,11,0,0,0-10.7-9.5Zm92.5,16.7a16.87,16.87,0,1,1,2.2-.1A16.2,16.2,0,0,1,1900.8,1123.6Zm0-28.3h-1.4a11.13,11.13,0,0,0,2.7,22.1,11.08,11.08,0,0,0,9.4-12.6,11,11,0,0,0-10.7-9.5Zm-86.2,90.3a17.7,17.7,0,1,1,2.2-.2c-.7.1-1.5.1-2.2.2Zm0-28.4h-1.4a11.13,11.13,0,0,0,2.7,22.1,11.08,11.08,0,0,0,9.4-12.6,10.89,10.89,0,0,0-10.7-9.5Z" style="fill:#5e65ea"/><path d="M1821.9,1113.4l64.4-8.1.8,6-64.4,8.1Z" style="fill:#5e65ea"/><path d="M1807,1132.6l6-.8,2.8,22.3-6,.8Z" style="fill:#5e65ea"/><path d="M2125.8,1151.7a17.51,17.51,0,1,1,4.2-.5,18.59,18.59,0,0,1-4.2.5Zm0-29.2a11.6,11.6,0,1,0,11.6,11.6,9.67,9.67,0,0,0-.4-2.9,11.56,11.56,0,0,0-11.2-8.7Zm13.1,79.9a17.78,17.78,0,1,1,4.4-.6,16.11,16.11,0,0,1-4.4.6Zm0-29.3a9.25,9.25,0,0,0-2.9.4,11.38,11.38,0,1,0,2.9-.4Zm-63.7-8.3a17.46,17.46,0,1,1,4.4-.5A21.18,21.18,0,0,1,2075.2,1164.8ZM2064,1150a11.57,11.57,0,1,0,8.3-14.1A11.55,11.55,0,0,0,2064,1150Z" style="fill:#5e65ea"/><path d="M2126.6,1148.8l5.9-1.5,5.8,22.4-5.9,1.5Z" style="fill:#5e65ea"/><path d="M2088.6,1140.7l22.4-5.8,1.5,5.9-22.4,5.8Z" style="fill:#5e65ea"/><path d="M1375.7,1455.7a17.65,17.65,0,1,1,17.6-17.6,17.74,17.74,0,0,1-17.6,17.6Zm0-29.2a11.55,11.55,0,1,0,11.5,11.5A11.44,11.44,0,0,0,1375.7,1426.5Zm.1-23.1a17.65,17.65,0,1,1,17.6-17.6A17.65,17.65,0,0,1,1375.8,1403.4Zm0-29.2a11.55,11.55,0,1,0,11.5,11.5A11.38,11.38,0,0,0,1375.8,1374.2Zm-52.4,81.4A17.65,17.65,0,1,1,1341,1438,17.65,17.65,0,0,1,1323.4,1455.6Zm0-29.1a11.55,11.55,0,1,0,11.5,11.5A11.52,11.52,0,0,0,1323.4,1426.5Z" style="fill:#5e65ea"/><path d="M1372.8,1423.5v-23.1h6.1v23.1Z" style="fill:#5e65ea"/><path d="M1338,1441v-6.1h23.1v6.1Z" style="fill:#5e65ea"/><path d="M1601.1,1435.6a16.84,16.84,0,1,1,.8,0Zm-.5-28.3a11.11,11.11,0,1,0,11.6,10.6A11.15,11.15,0,0,0,1600.6,1407.3Zm-50.2,30.7a16.84,16.84,0,1,1,.8,0Zm-.5-28.3a11.59,11.59,0,1,0,.1,0Zm48.8-24.7a16.84,16.84,0,1,1,.8,0Zm-.6-28.4a11.15,11.15,0,0,0-10.6,11.6,10.79,10.79,0,0,0,3.6,7.7,11.18,11.18,0,0,0,15.7-.7,11.32,11.32,0,0,0,2.9-8A11,11,0,0,0,1598.1,1356.6Z" style="fill:#5e65ea"/><path d="M1564.5,1417l22.4-1.1.3,6.1-22.4,1.1Z" style="fill:#5e65ea"/><path d="M1596.3,1382l6.1-.3,1.1,22.4-6.1.3Z" style="fill:#5e65ea"/><path d="M1649.3,1382.5a16.79,16.79,0,1,1,.9,0Zm-11.1-16.7a11.59,11.59,0,1,0,0-.1Zm15.6,109.9a16.79,16.79,0,1,1,.9,0Zm-11.1-16.7a11.11,11.11,0,1,0,10.6-11.6A11.15,11.15,0,0,0,1642.7,1459Zm-44-74a16.84,16.84,0,1,1,.8,0Zm0-28.4h-.5a11.11,11.11,0,1,0,11.7,10.5A11.33,11.33,0,0,0,1598.7,1356.6Z" style="fill:#5e65ea"/><path d="M1647,1379.7l6.1-.3,3.1,64.8-6.1.3Z" style="fill:#5e65ea"/><path d="M1612.8,1363.8l22.4-1.1.3,6.1-22.4,1.1Z" style="fill:#5e65ea"/><path d="M1830,1414a18,18,0,1,1,6-1.2A17.33,17.33,0,0,1,1830,1414Zm0-29.2a11.55,11.55,0,1,0,11.6,11.5,10.88,10.88,0,0,0-.7-4A11.46,11.46,0,0,0,1830,1384.8Zm18,78.3a17.69,17.69,0,1,1,6-1.1A16.83,16.83,0,0,1,1848,1463.1Zm0-29.2a11.6,11.6,0,1,0,11.6,11.6,10.88,10.88,0,0,0-.7-4A11.55,11.55,0,0,0,1848,1433.9Zm31.2-37.9a17.45,17.45,0,1,1,6.1-1A21.62,21.62,0,0,1,1879.2,1396Zm0-29.2a11.55,11.55,0,1,0,11.5,11.6,10.88,10.88,0,0,0-.7-4A11.52,11.52,0,0,0,1879.2,1366.8Z" style="fill:#5e65ea"/><path d="M1828.9,1422.1l5.7-2.1,7.9,21.7-5.7,2.1Z" style="fill:#5e65ea"/><path d="M1842.7,1388.5l21.7-7.9,2.1,5.7-21.7,7.9Z" style="fill:#5e65ea"/><path d="M2093,1446.2a17.2,17.2,0,1,1,12.7-5.6,17,17,0,0,1-11.9,5.6Zm0-28.4h-.5a10.79,10.79,0,0,0-7.7,3.6,11.11,11.11,0,1,0,15.7-.7A11.32,11.32,0,0,0,2093,1417.8Zm-34.1,65.9a17.25,17.25,0,1,1,12.8-5.7,17,17,0,0,1-12.8,5.7Zm-8.2-24.7a11.12,11.12,0,1,0,15.8-.8A11.3,11.3,0,0,0,2050.7,1459Zm4.7-47a17.2,17.2,0,0,1-12.7-28.8,17,17,0,0,1,11.9-5.6,17.21,17.21,0,1,1,.8,34.4Zm-8.2-24.7a11.64,11.64,0,1,0,.2-.2c-.1.2-.1.2-.2.2Z" style="fill:#5e65ea"/><path d="M2066.1,1453.8l15.1-16.6,4.5,4.1-15.1,16.6Z" style="fill:#5e65ea"/><path d="M2063.9,1406.6l4.1-4.5,16.6,15.1-4.1,4.5Z" style="fill:#5e65ea"/><path d="M2089.6,1374.5a17.25,17.25,0,1,1,12.7-5.7A17,17,0,0,1,2089.6,1374.5Zm-7.5-9a11.12,11.12,0,1,0-.8-15.7A11.28,11.28,0,0,0,2082.1,1365.5Zm76.5,71.7a17.25,17.25,0,1,1,12.7-5.7A17,17,0,0,1,2158.6,1437.2Zm-7.5-9a11.12,11.12,0,1,0-.8-15.8A11.39,11.39,0,0,0,2151.1,1428.2Zm-95.7-16.2a17.15,17.15,0,1,1,12.7-5.6A16.54,16.54,0,0,1,2055.4,1412Zm0-28.3a11.1,11.1,0,1,0,7.5,2.9A10.85,10.85,0,0,0,2055.4,1383.7Z" style="fill:#5e65ea"/><path d="M2098,1368.9l4.1-4.5,48,43.7-4.1,4.5Z" style="fill:#5e65ea"/><path d="M2062.7,1382.1l15.1-16.6,4.5,4.1-15.1,16.6Z" style="fill:#5e65ea"/><path d="M1361.1,1673.9a17.29,17.29,0,1,1,7.7-1.9,18.61,18.61,0,0,1-7.7,1.9Zm0-28.4a10.84,10.84,0,0,0-5,1.2,11.12,11.12,0,1,0,5-1.2Zm45.3,5.4a17.26,17.26,0,0,1-17.3-17.1,17.22,17.22,0,1,1,25,15.3A19.26,19.26,0,0,1,1406.4,1650.9Zm0-28.4a10.84,10.84,0,0,0-5,1.2,11.16,11.16,0,1,0,15,4.9A11.43,11.43,0,0,0,1406.4,1622.5Zm-68.2,6a17.28,17.28,0,1,1,7.8-1.9,16.64,16.64,0,0,1-7.8,1.9Zm0-28.3a10.84,10.84,0,0,0-5,1.2,11.18,11.18,0,1,0,5-1.2Z" style="fill:#5e65ea"/><path d="M1372.3,1647.4l20-10.1,2.7,5.4-20,10.1Z" style="fill:#5e65ea"/><path d="M1341.8,1625.3l5.4-2.7,10.1,20-5.4,2.7Z" style="fill:#5e65ea"/><path d="M1292.9,1651.4a17.29,17.29,0,1,1,7.8-1.9,16.64,16.64,0,0,1-7.8,1.9Zm0-28.3a11.15,11.15,0,1,0,11.2,11.1,10.84,10.84,0,0,0-1.2-5A11.24,11.24,0,0,0,1292.9,1623.1Zm42.1,111.5a17.28,17.28,0,1,1,7.8-1.9,16.64,16.64,0,0,1-7.8,1.9Zm0-28.3a11.15,11.15,0,1,0,11.2,11.1,10.55,10.55,0,0,0-1.2-5A11.36,11.36,0,0,0,1335,1706.3Zm3.2-77.8a17.48,17.48,0,1,1,7.8-2,18.06,18.06,0,0,1-7.8,2Zm0-28.3a11.15,11.15,0,1,0,11.2,11.1,10.84,10.84,0,0,0-1.2-5A11.17,11.17,0,0,0,1338.2,1600.2Z" style="fill:#5e65ea"/><path d="M1296.6,1648.1l5.4-2.7,29.3,57.9-5.4,2.7Z" style="fill:#5e65ea"/><path d="M1304.2,1625.1l20-10.1,2.7,5.4-20,10.1Z" style="fill:#5e65ea"/><path d="M1602.1,1700.5a17.58,17.58,0,1,1,12.4-5.1A17.63,17.63,0,0,1,1602.1,1700.5Zm0-29.2a11.53,11.53,0,0,0-8.2,19.7,11.84,11.84,0,0,0,16.4,0,11.65,11.65,0,0,0,0-16.4,12,12,0,0,0-8.2-3.3Zm37-7.8a17.58,17.58,0,1,1,12.4-5.1A17.22,17.22,0,0,1,1639.1,1663.5Zm0-29.2a11.55,11.55,0,1,0,11.5,11.6,11.44,11.44,0,0,0-11.5-11.6Zm-74,29.2a17.58,17.58,0,1,1,12.4-5.1A17.22,17.22,0,0,1,1565.1,1663.5Zm0-29.2a11.44,11.44,0,1,0,8.2,3.3A11.83,11.83,0,0,0,1565.1,1634.3Z" style="fill:#5e65ea"/><path d="M1610.3,1670.4l16.3-16.3,4.3,4.3-16.3,16.3Z" style="fill:#5e65ea"/><path d="M1573.3,1658.3l4.3-4.3,16.3,16.3-4.3,4.3Z" style="fill:#5e65ea"/><path d="M1866,1689.3a16,16,0,0,1-7.7-1.9,17,17,0,1,1,7.7,1.9Zm-5-7.2a11.15,11.15,0,1,0-5.5-6.4A11.51,11.51,0,0,0,1861,1682.1Zm50.3,30.1a17.2,17.2,0,1,1,17.2-17.2,16,16,0,0,1-1.9,7.7,16.66,16.66,0,0,1-15.3,9.5Zm0-28.3a11.16,11.16,0,0,0-5.1,21.1,11.09,11.09,0,1,0,10-19.8,9.47,9.47,0,0,0-4.9-1.3Zm-68.2,50.7a16,16,0,0,1-7.7-1.9,17.08,17.08,0,1,1,23-7.4A17.35,17.35,0,0,1,1843.1,1734.6Zm0-28.3a11.16,11.16,0,0,0-5.1,21.1,11.09,11.09,0,1,0,10-19.8,9.47,9.47,0,0,0-4.9-1.3Z" style="fill:#5e65ea"/><path d="M1877.4,1681.3l2.7-5.4,20,10.1-2.7,5.4Z" style="fill:#5e65ea"/><path d="M1846.8,1703.4l10.1-20,5.4,2.7-10.1,20Z" style="fill:#5e65ea"/><path d="M1797.8,1711.7a17.2,17.2,0,1,1,17.2-17.2,16,16,0,0,1-1.9,7.7,16.83,16.83,0,0,1-15.3,9.5Zm0-28.3a11.18,11.18,0,1,0,4.9,1.2A10.44,10.44,0,0,0,1797.8,1683.4Zm42.1-54.9a17.31,17.31,0,1,1,5.4-.9,14.26,14.26,0,0,1-5.4.9Zm0-28.3a11.13,11.13,0,1,0,5,1.2A10.55,10.55,0,0,0,1839.9,1600.2Zm3.2,134.4a17.31,17.31,0,1,1,5.4-.9,17,17,0,0,1-5.4.9Zm0-28.3a11.18,11.18,0,1,0,4.9,1.2A10.44,10.44,0,0,0,1843.1,1706.3Z" style="fill:#5e65ea"/><path d="M1801.6,1680.5l29.3-57.9,5.4,2.7-29.3,57.9Z" style="fill:#5e65ea"/><path d="M1809.1,1703.7l2.7-5.4,20,10.1-2.7,5.4Z" style="fill:#5e65ea"/><path d="M2081,1706.9h-.9a17.62,17.62,0,1,1,18.4-16.7A17.5,17.5,0,0,1,2081,1706.9Zm0-29.2a11.6,11.6,0,1,0,.6,0Zm2.6-23.1h-.9a18.1,18.1,0,1,1,.9,0Zm0-29.2a11.56,11.56,0,0,0-.5,23.1,11.8,11.8,0,0,0,12.1-11,11.6,11.6,0,0,0-11-12.1Zm49.6,84h-.9a17.67,17.67,0,1,1,18.5-16.8A17.6,17.6,0,0,1,2133.2,1709.4Zm0-29.2a11.6,11.6,0,1,0,0,23.2,11.61,11.61,0,0,0,.5-23.2Z" style="fill:#5e65ea"/><path d="M2078.5,1674.4l1.1-23.1,6.1.3-1.1,23.1Z" style="fill:#5e65ea"/><path d="M2095.5,1693l.3-6.1,23.1,1.1-.3,6.1Z" style="fill:#5e65ea"/><path d="M2472.5,525.9l21.2-21.2,4.3,4.3-21.2,21.2Z" style="fill:#5e65ea"/><path d="M2483.4,536.8l21.2-21.2,4.3,4.3-21.2,21.2Z" style="fill:#5e65ea"/><path d="M2219.6,268.9l4.3-4.3,21.2,21.2-4.3,4.3Z" style="fill:#5e65ea"/><path d="M2230.2,258.2l4.3-4.3,21.2,21.2-4.3,4.3Z" style="fill:#5e65ea"/><path d="M2736.2,258.1l4.3-4.3,21.2,21.2-4.3,4.3Z" style="fill:#5e65ea"/><path d="M2725.6,268.7l4.3-4.3,21.2,21.2-4.3,4.3Z" style="fill:#5e65ea"/><path d="M2227.8,8.5a13.86,13.86,0,1,0,19.6,0A13.88,13.88,0,0,0,2227.8,8.5Zm17.5,9.7a7.75,7.75,0,1,1-7.7-7.8,7.81,7.81,0,0,1,5.5,2.3A8.15,8.15,0,0,1,2245.3,18.2Z" style="fill:#5e65ea"/><path d="M2472.7,21.5,2493.9.3l4.3,4.3L2477,25.8Z" style="fill:#5e65ea"/><path d="M2483.4,32.2,2504.6,11l4.3,4.3-21.2,21.2Z" style="fill:#5e65ea"/><path d="M2757.3,18.2V16.7a3.18,3.18,0,0,0-.3-.9,10.93,10.93,0,0,0-.5-1.7,4.05,4.05,0,0,0-.5-.9,10.93,10.93,0,0,0-.8-1.5c-.2-.3-.5-.6-.8-1a10.59,10.59,0,0,0-1-1.2,9.38,9.38,0,0,0-1.2-.9,3.92,3.92,0,0,0-1-.8,9.14,9.14,0,0,0-1.4-.7,3.13,3.13,0,0,0-1-.5,8.33,8.33,0,0,0-1.5-.4,3.81,3.81,0,0,1-1-.3,6.6,6.6,0,0,0-1.4-.1c-.4,0-.8-.1-1.2-.1a4.87,4.87,0,0,0-1.2.1c-.5,0-1,.1-1.4.1a2.93,2.93,0,0,0-1,.3c-.5.1-1,.3-1.5.4a4.67,4.67,0,0,0-1,.5c-.5.2-1,.5-1.4.7a3.92,3.92,0,0,0-1,.8,10.63,10.63,0,0,0-1.1.9,10.59,10.59,0,0,0-1,1.2,3.92,3.92,0,0,0-.8,1,10.93,10.93,0,0,0-.8,1.5,4.05,4.05,0,0,1-.5.9,10.93,10.93,0,0,0-.5,1.7,3.18,3.18,0,0,1-.3.9,7.57,7.57,0,0,0-.1,1.5c0,.4-.1.7-.1,1.1a4.1,4.1,0,0,0,.1,1.1c0,.5.1,1,.1,1.5a1.42,1.42,0,0,0,.2.6,6.64,6.64,0,0,0,.6,2,13.73,13.73,0,0,0,12.8,8.5,14,14,0,0,0,12.8-8.5c.2-.7.4-1.3.6-2a1.42,1.42,0,0,1,.2-.6,7.57,7.57,0,0,0,.1-1.5c0-.4.1-.7.1-1.1a4.51,4.51,0,0,0-.3-1.1Zm-6,2.6c-.1.4-.2.8-.3,1.1v.3a5.94,5.94,0,0,1-.4.8.85.85,0,0,1-.3.5,2.65,2.65,0,0,1-.5.6c-.2.2-.3.4-.5.6a7.85,7.85,0,0,1-11,0c-.2-.2-.3-.4-.5-.6s-.3-.4-.5-.6-.2-.3-.3-.5a5.9,5.9,0,0,1-.4-.8v-.3a6.15,6.15,0,0,1-.3-1.1,8,8,0,0,1,.4-4.3,10.91,10.91,0,0,1,.6-1.1l.1-.2a10.59,10.59,0,0,1,1-1.2c.2-.2.4-.3.5-.5a1.79,1.79,0,0,1,.7-.5l.3-.2a7.61,7.61,0,0,1,8.2.2c.2.1.3.3.5.4s.5.4.8.6a10.59,10.59,0,0,1,1,1.2l.1.2c.2.4.4.7.6,1.1a7.49,7.49,0,0,1,.3,4.2v.1Z" style="fill:#5e65ea"/><path d="M2492.7,284.8a13.8,13.8,0,1,1,9.8-4,14.38,14.38,0,0,1-9.8,4Zm0-21.6a7.76,7.76,0,1,0-.7,15.5h.8a7.76,7.76,0,0,0,.7-15.5Zm502.9,21.6a13.8,13.8,0,1,1,9.8-4,14.38,14.38,0,0,1-9.8,4Zm0-21.6a7.76,7.76,0,1,0-.7,15.5h.8a7.79,7.79,0,0,0,7.4-8.1,8.05,8.05,0,0,0-7.5-7.4ZM2743.7,536.7a13.8,13.8,0,1,1,9.8-4A15.06,15.06,0,0,1,2743.7,536.7Zm0-21.6a7.76,7.76,0,1,0-.7,15.5h.8a7.76,7.76,0,0,0,.7-15.5Zm-506.2,21.2a13.8,13.8,0,1,1,9.8-4A14.65,14.65,0,0,1,2237.5,536.3Zm0-21.6a7.76,7.76,0,1,0-.7,15.5h.8a7.79,7.79,0,0,0,7.4-8.1,7.89,7.89,0,0,0-7.5-7.4ZM2364.2,158h-.1a17.25,17.25,0,1,1,.1-34.5h.1a17.25,17.25,0,0,1-.1,34.5Zm0-28.3a11.1,11.1,0,1,0,11.1,11.1A11,11,0,0,0,2364.2,129.7Zm50.8,28.6h-.1a17.28,17.28,0,0,1-17.2-17.3,16.93,16.93,0,0,1,5.1-12.2,17.08,17.08,0,1,1,12.2,29.5Zm0-6a7.85,7.85,0,1,1,.1-.1h-.1Zm-51.1,56.5h-.1a17.21,17.21,0,0,1,.1-34.4h.1a17.21,17.21,0,0,1-.1,34.4Zm0-6.1a11.1,11.1,0,1,0-11.1-11.1A11.14,11.14,0,0,0,2363.9,202.7Z" style="fill:#5e65ea"/><path d="M2378.2,143.9v-6.1l22.4.1V144Z" style="fill:#5e65ea"/><path d="M2360.9,177.4l.1-22.4h6.1l-.1,22.4Z" style="fill:#5e65ea"/><path d="M2313.2,208.4h-.1a17.25,17.25,0,1,1,.1,0Zm0-28.3a11.1,11.1,0,1,0,11.1,11.1A11.14,11.14,0,0,0,2313.2,180.1Zm.6-64.9h-.1a17.21,17.21,0,0,1,.1-34.4h.1a17.2,17.2,0,0,1-.1,34.4Zm0-28.3A11.1,11.1,0,1,0,2324.9,98,11.14,11.14,0,0,0,2313.8,86.9Zm50.1,121.9h-.1a17.21,17.21,0,0,1,.1-34.4h.1a17.2,17.2,0,0,1-.1,34.4Zm0-28.4a11.1,11.1,0,1,0,11.1,11.1,11.14,11.14,0,0,0-11.1-11.1Z" style="fill:#5e65ea"/><path d="M2310.1,177l.4-64.9h6.1l-.4,64.9Z" style="fill:#5e65ea"/><path d="M2327.2,194.3v-6.1l22.4.1v6.1Z" style="fill:#5e65ea"/><path d="M2642.2,183.1a18.11,18.11,0,1,1,3.4-.4A12.67,12.67,0,0,1,2642.2,183.1Zm0-29.2a16.35,16.35,0,0,0-2.2.2,11.55,11.55,0,1,0,13.5,9.2A11.66,11.66,0,0,0,2642.2,153.9Zm-51.4,39.2a17.57,17.57,0,1,1,3.4-.3A18.7,18.7,0,0,1,2590.8,193.1Zm0-29.2a16.35,16.35,0,0,0-2.2.2,11.55,11.55,0,1,0,13.5,9.2A11.39,11.39,0,0,0,2590.8,163.9Zm41.5-32.1a17.53,17.53,0,1,1,3.4-.3A18.7,18.7,0,0,1,2632.3,131.8Zm0-29.2a16.35,16.35,0,0,0-2.2.2,11.55,11.55,0,1,0,13.5,9.2A11.39,11.39,0,0,0,2632.3,102.6Z" style="fill:#5e65ea"/><path d="M2604.7,169.9l22.7-4.4,1.2,6-22.7,4.4Z" style="fill:#5e65ea"/><path d="M2632.1,129.2l6-1.2,4.4,22.7-6,1.2Z" style="fill:#5e65ea"/><path d="M2879.5,164.6a17.71,17.71,0,1,1,2.1-.2,7.49,7.49,0,0,1-2.1.2Zm-11.1-15.8a11.09,11.09,0,1,0,9.6-12.4A11.05,11.05,0,0,0,2868.4,148.8Zm17.4,66.2a17.71,17.71,0,1,1,2.1-.2,14.92,14.92,0,0,1-2.1.2Zm-11.1-15.9a11.09,11.09,0,1,0,9.6-12.4A11.2,11.2,0,0,0,2874.7,199.1Zm-45.6-28.2a17.7,17.7,0,1,1,2.2-.2A8.58,8.58,0,0,1,2829.1,170.9Zm0-28.3h-1.4a11.12,11.12,0,1,0,11.8,10.4,11,11,0,0,0-10.4-10.4Z" style="fill:#5e65ea"/><path d="M2878.2,162l6-.8,2.8,22.3-6,.8Z" style="fill:#5e65ea"/><path d="M2842.8,149.2l22.3-2.8.8,6-22.3,2.8Z" style="fill:#5e65ea"/><path d="M2822.8,120.6a17,17,0,1,1,2.2-.1C2824.2,120.5,2823.5,120.6,2822.8,120.6Zm0-28.4h-1.4a11.2,11.2,0,0,0-9.7,12.4,11.18,11.18,0,0,0,12.4,9.7,11.11,11.11,0,0,0-1.3-22.1Zm92.5,16.8a16.87,16.87,0,1,1,2.2-.1C2916.7,108.9,2916,109,2915.3,109Zm0-28.3h-1.4a11.13,11.13,0,0,0,2.7,22.1,11.08,11.08,0,0,0,9.4-12.6A11,11,0,0,0,2915.3,80.7Zm-86.2,90.2a17.7,17.7,0,1,1,2.2-.2A8.58,8.58,0,0,1,2829.1,170.9Zm0-28.3h-1.4a11.13,11.13,0,0,0,2.7,22.1,11.08,11.08,0,0,0,9.4-12.6,11,11,0,0,0-10.7-9.5Z" style="fill:#5e65ea"/><path d="M2836.5,98.9l64.4-8.1.8,6-64.4,8.1Z" style="fill:#5e65ea"/><path d="M2821.6,118.1l6-.8,2.8,22.3-6,.8Z" style="fill:#5e65ea"/><path d="M2390.2,441a17.6,17.6,0,1,1,17.6-17.6A17.63,17.63,0,0,1,2390.2,441Zm0-29.2a11.55,11.55,0,1,0,11.5,11.5A11.44,11.44,0,0,0,2390.2,411.8Zm.1-23.1a17.6,17.6,0,1,1,17.6-17.6A17.63,17.63,0,0,1,2390.3,388.7Zm0-29.2a11.55,11.55,0,1,0,11.5,11.5A11.59,11.59,0,0,0,2390.3,359.5ZM2337.9,441a17.6,17.6,0,1,1,17.6-17.6A17.63,17.63,0,0,1,2337.9,441Zm0-29.2a11.55,11.55,0,1,0,11.5,11.5A11.52,11.52,0,0,0,2337.9,411.8Z" style="fill:#5e65ea"/><path d="M2383.3,408.2V385.1h6.1v23.1Z" style="fill:#5e65ea"/><path d="M2352.5,426.4v-6.1h23.1v6.1Z" style="fill:#5e65ea"/><path d="M2615.5,420.9a16.84,16.84,0,1,1,.8,0Zm-.5-28.3a11.11,11.11,0,1,0,11.6,10.6A11,11,0,0,0,2615,392.6Zm-50.1,30.8a16.84,16.84,0,1,1,.8,0Zm-.6-28.3a11.59,11.59,0,1,0,.1,0Zm48.8-24.8a16.84,16.84,0,1,1,.8,0Zm-.5-28.3a11.15,11.15,0,0,0-10.6,11.6,10.79,10.79,0,0,0,3.6,7.7,11.18,11.18,0,0,0,15.7-.7,11.32,11.32,0,0,0,2.9-8,11,11,0,0,0-11.6-10.6Z" style="fill:#5e65ea"/><path d="M2578.9,402.3l22.4-1.1.3,6.1-22.4,1.1Z" style="fill:#5e65ea"/><path d="M2610.8,367.4l6.1-.3,1.1,22.4-6.1.3Z" style="fill:#5e65ea"/><path d="M2663.8,367.9a16.79,16.79,0,1,1,.9,0Zm-11.1-16.7a11.59,11.59,0,1,0,0-.1ZM2668.3,461a16.79,16.79,0,1,1,.9,0Zm-11.1-16.7a11.11,11.11,0,1,0,10.6-11.6A11.15,11.15,0,0,0,2657.2,444.3Zm-44.1-74a16.84,16.84,0,1,1,.8,0Zm0-28.3h-.6a11.44,11.44,0,1,0,.6,0Z" style="fill:#5e65ea"/><path d="M2661.5,365.1l6.1-.3,3.1,64.8-6.1.3Z" style="fill:#5e65ea"/><path d="M2627.2,349.2l22.4-1.1.3,6.1-22.4,1.1Z" style="fill:#5e65ea"/><path d="M2844.5,399.4a18,18,0,1,1,6-1.2,17.65,17.65,0,0,1-6,1.2Zm0-29.3a11.55,11.55,0,1,0,11.6,11.5,10.88,10.88,0,0,0-.7-4,11.7,11.7,0,0,0-10.9-7.5Zm18,78.4a17.69,17.69,0,1,1,6-1.1A17.25,17.25,0,0,1,2862.5,448.5Zm0-29.3a11.6,11.6,0,1,0,11.6,11.6,10.88,10.88,0,0,0-.7-4,11.84,11.84,0,0,0-10.9-7.6Zm31.1-37.9a17.45,17.45,0,1,1,6.1-1A17.63,17.63,0,0,1,2893.6,381.3Zm0-29.2a11.55,11.55,0,1,0,11.5,11.6,10.88,10.88,0,0,0-.7-4A11.47,11.47,0,0,0,2893.6,352.1Z" style="fill:#5e65ea"/><path d="M2846.6,396.3l5.7-2.1,7.9,21.7-5.7,2.1Z" style="fill:#5e65ea"/><path d="M2857.2,373.9l21.7-7.9,2.1,5.7-21.7,7.9Z" style="fill:#5e65ea"/><path d="M2375.6,659.2a17.29,17.29,0,1,1,7.7-1.9,17.51,17.51,0,0,1-7.7,1.9Zm0-28.4a10.84,10.84,0,0,0-5,1.2,11.07,11.07,0,1,0,14.9,4.8A11.5,11.5,0,0,0,2375.6,630.8Zm45.3,5.5a17.26,17.26,0,0,1-17.3-17.1,17.23,17.23,0,0,1,32.6-7.8,17.27,17.27,0,0,1-7.6,23.1,19.26,19.26,0,0,1-7.7,1.8Zm0-28.4a10.84,10.84,0,0,0-5,1.2,11.16,11.16,0,1,0,15,4.9,11.43,11.43,0,0,0-10-6.1Zm-68.3,6.1a17.28,17.28,0,1,1,7.8-1.9,17.6,17.6,0,0,1-7.8,1.9Zm0-28.4a10.84,10.84,0,0,0-5,1.2,11.18,11.18,0,1,0,5-1.2Z" style="fill:#5e65ea"/><path d="M2386.8,632.8l20-10.1,2.7,5.4-20,10.1Z" style="fill:#5e65ea"/><path d="M2356.3,610.7l5.4-2.7,10.1,20-5.4,2.7Z" style="fill:#5e65ea"/><path d="M2307.4,636.8a17.29,17.29,0,1,1,7.8-1.9,16.64,16.64,0,0,1-7.8,1.9Zm0-28.3a11.15,11.15,0,1,0,11.2,11.1,10.84,10.84,0,0,0-1.2-5A11.17,11.17,0,0,0,2307.4,608.5Zm42,111.5a17.28,17.28,0,1,1,7.8-1.9,17.6,17.6,0,0,1-7.8,1.9Zm0-28.3a11.15,11.15,0,1,0,11.2,11.1,10.55,10.55,0,0,0-1.2-5A11,11,0,0,0,2349.4,691.7Zm3.2-77.7a17.12,17.12,0,1,1,7.8-1.8,19,19,0,0,1-7.8,1.8Zm0-28.4a11.15,11.15,0,1,0,11.2,11.1,11.13,11.13,0,0,0-11.2-11.1Z" style="fill:#5e65ea"/><path d="M2311,633.4l5.4-2.7,29.3,57.9-5.4,2.7Z" style="fill:#5e65ea"/><path d="M2318.6,610.5l20-10.1,2.7,5.4-20,10.1Z" style="fill:#5e65ea"/><path d="M2616.5,685.9a17.58,17.58,0,1,1,12.4-5.1,17.63,17.63,0,0,1-12.4,5.1Zm0-29.2a11.53,11.53,0,0,0-8.2,19.7,11.84,11.84,0,0,0,16.4,0,11.5,11.5,0,0,0-8.2-19.7Zm37-7.8a17.58,17.58,0,1,1,12.4-5.1,17.63,17.63,0,0,1-12.4,5.1Zm0-29.2a11.61,11.61,0,1,0,8.2,3.4,11.33,11.33,0,0,0-8.2-3.4Zm-73.9,29.2a17.58,17.58,0,1,1,12.4-5.1,18,18,0,0,1-12.4,5.1Zm0-29.2a11.44,11.44,0,1,0,8.2,3.3,12,12,0,0,0-8.2-3.3Z" style="fill:#5e65ea"/><path d="M2624.7,655.8l16.3-16.3,4.3,4.3L2629,660.1Z" style="fill:#5e65ea"/><path d="M2587.7,643.7l4.3-4.3,16.3,16.3L2604,660Z" style="fill:#5e65ea"/><path d="M2880.5,674.7a16,16,0,0,1-7.7-1.9,17,17,0,1,1,7.7,1.9Zm-5-7.3a11.15,11.15,0,1,0-5.5-6.4A11,11,0,0,0,2875.5,667.4Zm50.3,30.2a17.2,17.2,0,1,1,17.2-17.2,16,16,0,0,1-1.9,7.7A16.76,16.76,0,0,1,2925.8,697.6Zm0-28.3a11.16,11.16,0,0,0-5.1,21.1,11.09,11.09,0,0,0,10-19.8,9.47,9.47,0,0,0-4.9-1.3ZM2857.6,720a16,16,0,0,1-7.7-1.9,17.08,17.08,0,1,1,23-7.4,17.35,17.35,0,0,1-15.3,9.3Zm0-28.3a11.16,11.16,0,0,0-5.1,21.1,11.09,11.09,0,0,0,10-19.8,9.47,9.47,0,0,0-4.9-1.3Z" style="fill:#5e65ea"/><path d="M2861.3,688.8l10.1-20,5.4,2.7-10.1,20Z" style="fill:#5e65ea"/><path d="M2812.3,697.1a17.2,17.2,0,1,1,17.2-17.2,16,16,0,0,1-1.9,7.7A17.12,17.12,0,0,1,2812.3,697.1Zm0-28.3a11.18,11.18,0,1,0,4.9,1.2,10.44,10.44,0,0,0-4.9-1.2Zm42.1-54.8a17.31,17.31,0,1,1,5.4-.9,17,17,0,0,1-5.4.9Zm0-28.4a11.13,11.13,0,1,0,5,1.2A10.55,10.55,0,0,0,2854.4,585.6Zm3.2,134.4a17.31,17.31,0,1,1,5.4-.9,17,17,0,0,1-5.4.9Zm0-28.3a11.18,11.18,0,1,0,4.9,1.2,10.44,10.44,0,0,0-4.9-1.2Z" style="fill:#5e65ea"/><path d="M2816,665.9l29.3-57.9,5.4,2.7-29.3,57.9Z" style="fill:#5e65ea"/><path d="M2823.6,689l2.7-5.4,20,10.1-2.7,5.4Z" style="fill:#5e65ea"/><path d="M2472.5,1540.5l21.2-21.2,4.3,4.3-21.2,21.2Z" style="fill:#5e65ea"/><path d="M2483.3,1551.5l21.2-21.2,4.3,4.3-21.2,21.2Z" style="fill:#5e65ea"/><path d="M2219.6,1283.6l4.3-4.3,21.2,21.2-4.3,4.3Z" style="fill:#5e65ea"/><path d="M2230.2,1272.9l4.3-4.3,21.2,21.2-4.3,4.3Z" style="fill:#5e65ea"/><path d="M2736.2,1272.7l4.3-4.3,21.2,21.2-4.3,4.3Z" style="fill:#5e65ea"/><path d="M2725.6,1283.4l4.3-4.3,21.2,21.2-4.3,4.3Z" style="fill:#5e65ea"/><path d="M2219.6,776.9l4.3-4.3,21.2,21.2-4.3,4.3Z" style="fill:#5e65ea"/><path d="M2230.2,766.2l4.3-4.3,21.2,21.2-4.3,4.3Z" style="fill:#5e65ea"/><path d="M2227.8,1023.1a13.86,13.86,0,1,0,19.6,0A13.88,13.88,0,0,0,2227.8,1023.1Zm17.5,9.8a7.75,7.75,0,1,1-7.7-7.8,7.68,7.68,0,0,1,7.7,7.8Z" style="fill:#5e65ea"/><path d="M2472.6,1036.2l21.2-21.2,4.3,4.3-21.2,21.2Z" style="fill:#5e65ea"/><path d="M2483.3,1046.9l21.2-21.2,4.3,4.3-21.2,21.2Z" style="fill:#5e65ea"/><path d="M2736.2,766l4.3-4.3,21.2,21.2-4.3,4.3Z" style="fill:#5e65ea"/><path d="M2725.6,776.7l4.3-4.3,21.2,21.2-4.3,4.3Z" style="fill:#5e65ea"/><path d="M2757.3,1032.8c0-.5-.1-1-.1-1.5a3.18,3.18,0,0,0-.3-.9,10.93,10.93,0,0,0-.5-1.7,4.05,4.05,0,0,0-.5-.9,10.93,10.93,0,0,0-.8-1.5c-.2-.3-.5-.6-.8-1a10.59,10.59,0,0,0-1-1.2,9.38,9.38,0,0,0-1.2-.9,3.92,3.92,0,0,0-1-.8,9.14,9.14,0,0,0-1.4-.7,3.13,3.13,0,0,0-1-.5,8.33,8.33,0,0,0-1.5-.4,3.81,3.81,0,0,1-1-.3,6.6,6.6,0,0,0-1.4-.1c-.4,0-.8-.1-1.2-.1a4.87,4.87,0,0,0-1.2.1c-.5,0-1,.1-1.4.1a2.93,2.93,0,0,0-1,.3c-.5.1-1,.3-1.5.4a4.67,4.67,0,0,0-1,.5c-.5.2-1,.5-1.4.7a3.92,3.92,0,0,0-1,.8,7.85,7.85,0,0,0-2.1,2.1,3.92,3.92,0,0,0-.8,1,10.93,10.93,0,0,0-.8,1.5,4.05,4.05,0,0,1-.5.9,10.93,10.93,0,0,0-.5,1.7,3.18,3.18,0,0,1-.3.9,7.57,7.57,0,0,0-.1,1.5c0,.4-.1.7-.1,1.1a4.1,4.1,0,0,0,.1,1.1c0,.5.1,1,.1,1.5a1.42,1.42,0,0,0,.2.6,6.64,6.64,0,0,0,.6,2,13.73,13.73,0,0,0,12.8,8.5,14,14,0,0,0,12.8-8.5c.2-.7.4-1.3.6-2a1.42,1.42,0,0,1,.2-.6,7.57,7.57,0,0,0,.1-1.5c0-.4.1-.7.1-1.1a4.25,4.25,0,0,0-.2-1.1Zm-6,2.6c-.1.4-.2.8-.3,1.1v.3a5.94,5.94,0,0,1-.4.8.85.85,0,0,1-.3.5,2.65,2.65,0,0,1-.5.6c-.2.2-.3.4-.5.6a7.85,7.85,0,0,1-11,0c-.2-.2-.3-.4-.5-.6s-.3-.4-.5-.6-.2-.3-.3-.5a5.9,5.9,0,0,1-.4-.8v-.3a6.15,6.15,0,0,1-.3-1.1,8,8,0,0,1,.4-4.3,10.91,10.91,0,0,1,.6-1.1l.1-.2a10.59,10.59,0,0,1,1-1.2c.2-.2.4-.3.5-.5a1.79,1.79,0,0,1,.7-.5l.3-.2a7.61,7.61,0,0,1,8.2.2c.2.1.3.3.5.4s.5.4.8.6a10.59,10.59,0,0,1,1,1.2l.1.2c.2.4.4.7.6,1.1a7.87,7.87,0,0,1,.4,4.3Z" style="fill:#5e65ea"/><path d="M2338.8,943.5a22,22,0,0,1-4.4-.5,17.65,17.65,0,1,1,21.6-12.8,17.77,17.77,0,0,1-17.2,13.3Zm0-29.2a11.41,11.41,0,1,0,2.9.3,15,15,0,0,0-2.9-.3Zm50.7,42a22,22,0,0,1-4.4-.5,17.62,17.62,0,1,1,8.1-34.3,4.33,4.33,0,0,1,.5.1,17.69,17.69,0,0,1,12.9,21.4,17.35,17.35,0,0,1-17.1,13.3Zm0-29.2a11.31,11.31,0,1,0,2.9.3,15,15,0,0,0-2.9-.3Zm-37.9-34.3a22,22,0,0,1-4.4-.5,17.65,17.65,0,1,1,21.6-12.8,17.77,17.77,0,0,1-17.2,13.3Zm0-29.3a11.41,11.41,0,1,0,2.9.3l-2.9-.3Z" style="fill:#5e65ea"/><path d="M2352.2,932.4l1.5-5.9,22.4,5.7-1.5,5.9Z" style="fill:#5e65ea"/><path d="M2339.3,910.9l5.7-22.4,5.9,1.5-5.7,22.4Z" style="fill:#5e65ea"/><path d="M2492.7,793.7a13.8,13.8,0,1,1,9.8-4A14.85,14.85,0,0,1,2492.7,793.7Zm0-21.6a7.76,7.76,0,1,0-.7,15.5h.8a7.76,7.76,0,0,0,.7-15.5A1.1,1.1,0,0,0,2492.7,772.1Zm0,527.3a13.8,13.8,0,1,1,9.8-4,14.38,14.38,0,0,1-9.8,4Zm0-21.6a7.76,7.76,0,1,0-.7,15.5h.8a7.76,7.76,0,0,0,.7-15.5Zm502.9-483.2a13.8,13.8,0,1,1,9.8-4A14.85,14.85,0,0,1,2995.6,794.6Zm0-21.6a7.76,7.76,0,1,0-.7,15.5h.8a7.79,7.79,0,0,0,7.4-8.1,8.05,8.05,0,0,0-7.5-7.4Zm0,526.4a13.8,13.8,0,1,1,9.8-4,14.38,14.38,0,0,1-9.8,4Zm0-21.6a7.76,7.76,0,1,0-.7,15.5h.8a7.79,7.79,0,0,0,7.4-8.1,8.05,8.05,0,0,0-7.5-7.4Zm-251.9,273.5a13.8,13.8,0,1,1,9.8-4,14.56,14.56,0,0,1-9.8,4Zm0-21.6a7.76,7.76,0,1,0-.7,15.5h.8a7.76,7.76,0,0,0,.7-15.5Zm-506.2,21.2a13.8,13.8,0,1,1,9.8-4,14.65,14.65,0,0,1-9.8,4Zm0-21.6a7.76,7.76,0,1,0-.7,15.5h.8a7.79,7.79,0,0,0,7.4-8.1,8,8,0,0,0-7.5-7.4Zm378-598.6a16.84,16.84,0,1,1,.8,0Zm-.5-28.4a11.11,11.11,0,1,0,11.6,10.6A11.15,11.15,0,0,0,2615,902.3Zm-50.1,30.8a16.84,16.84,0,1,1,.8,0Zm-.6-28.3a11.11,11.11,0,1,0,11.6,10.6A11,11,0,0,0,2564.3,904.8Zm48.8-24.8a16.84,16.84,0,1,1,.8,0Zm-.5-28.3a11.15,11.15,0,0,0-10.6,11.6,10.79,10.79,0,0,0,3.6,7.7,11.32,11.32,0,0,0,8,2.9,11.15,11.15,0,0,0,10.6-11.6,10.79,10.79,0,0,0-3.6-7.7A10.61,10.61,0,0,0,2612.6,851.7Z" style="fill:#5e65ea"/><path d="M2578.9,911.9l22.4-1.1.3,6.1-22.4,1.1Z" style="fill:#5e65ea"/><path d="M2610.8,877l6.1-.3,1.1,22.4-6.1.3Z" style="fill:#5e65ea"/><path d="M2663.8,877.6a16.79,16.79,0,1,1,.9,0Zm-11.1-16.7a11.59,11.59,0,1,0,0-.1Zm15.6,109.8a16.79,16.79,0,1,1,.9,0ZM2657.1,954a11.11,11.11,0,1,0,10.6-11.6A11.15,11.15,0,0,0,2657.1,954Zm-44-74a17.26,17.26,0,1,1,.9,0Zm0-28.4h-.6a11.15,11.15,0,0,0-10.6,11.6,11,11,0,0,0,3.6,7.7,11.32,11.32,0,0,0,8,2.9,11.1,11.1,0,1,0-.4-22.2Z" style="fill:#5e65ea"/><path d="M2661.5,874.7l6.1-.3,3.1,64.8-6.1.3Z" style="fill:#5e65ea"/><path d="M2627.2,858.8l22.4-1.1.3,6.1-22.4,1.1Z" style="fill:#5e65ea"/><path d="M2846.1,950.5a17.52,17.52,0,1,1,2.1-.1,14.77,14.77,0,0,1-2.1.1Zm0-29.2h-1.4a11.52,11.52,0,1,0,1.4,0Zm52,23.1a17.52,17.52,0,1,1,2.1-.1,14.77,14.77,0,0,1-2.1.1Zm-1.3-29.1a11.53,11.53,0,1,0,12.7,10A11.5,11.5,0,0,0,2896.8,915.3ZM2840,898.6a17.52,17.52,0,1,1,2.1-.1c-.7,0-1.4.1-2.1.1Zm-1.3-29.1a11.53,11.53,0,1,0,12.8,10.1v-.1A11.48,11.48,0,0,0,2838.7,869.5Z" style="fill:#5e65ea"/><path d="M2860.3,927.9l22.9-2.7.7,6-22.9,2.7Z" style="fill:#5e65ea"/><path d="M2838.7,895.6l6-.7,2.7,22.9-6,.7Z" style="fill:#5e65ea"/><path d="M2364.2,1172.6h-.1a17.25,17.25,0,1,1,.1-34.5h.1a17.25,17.25,0,1,1-.1,34.5Zm0-28.3a11.1,11.1,0,1,0,11.1,11.1A11,11,0,0,0,2364.2,1144.3ZM2415,1173h-.1a17.28,17.28,0,0,1-17.2-17.3,16.93,16.93,0,0,1,5.1-12.2A17.08,17.08,0,1,1,2415,1173Zm0-6.1a7.85,7.85,0,1,1,.1-.1h-.1Zm-51.1,56.5h-.1a17.21,17.21,0,0,1,.1-34.4h.1a17.21,17.21,0,0,1-.1,34.4Zm0-6.1a11.1,11.1,0,1,0-11.1-11.1A11.14,11.14,0,0,0,2363.9,1217.3Z" style="fill:#5e65ea"/><path d="M2378.2,1158.5v-6.1l22.4.1v6.1Z" style="fill:#5e65ea"/><path d="M2360.9,1191.9l.1-22.4h6.1l-.1,22.4Z" style="fill:#5e65ea"/><path d="M2313.2,1223.1h-.1a17.25,17.25,0,1,1,.1,0Zm0-28.4a11.1,11.1,0,1,0,11.1,11.1A11.14,11.14,0,0,0,2313.2,1194.7Zm.6-64.9h-.1a17.21,17.21,0,0,1,.1-34.4h.1a17.2,17.2,0,0,1-.1,34.4Zm0-28.3a11.1,11.1,0,1,0,11.1,11.1A11.14,11.14,0,0,0,2313.8,1101.5Zm50.1,121.9h-.1a17.21,17.21,0,0,1,.1-34.4h.1a17.2,17.2,0,0,1-.1,34.4Zm0-28.4a11.1,11.1,0,1,0,11.1,11.1,11.14,11.14,0,0,0-11.1-11.1Z" style="fill:#5e65ea"/><path d="M2310.1,1191.6l.4-64.9h6.1l-.4,64.9Z" style="fill:#5e65ea"/><path d="M2327.1,1208.9v-6.1l22.4.1v6.1Z" style="fill:#5e65ea"/><path d="M2642.2,1197.8a18.11,18.11,0,1,1,3.4-.4,12.67,12.67,0,0,1-3.4.4Zm0-29.2a16.35,16.35,0,0,0-2.2.2,11.56,11.56,0,1,0,2.2-.2Zm-51.4,39.1a17.57,17.57,0,1,1,3.4-.3A18.7,18.7,0,0,1,2590.8,1207.7Zm0-29.2a16.35,16.35,0,0,0-2.2.2,11.55,11.55,0,1,0,13.5,9.2,11.39,11.39,0,0,0-11.3-9.4Zm41.5-32.1a17.53,17.53,0,1,1,3.4-.3,18.7,18.7,0,0,1-3.4.3Zm0-29.2a16.35,16.35,0,0,0-2.2.2,11.55,11.55,0,1,0,13.5,9.2,11.39,11.39,0,0,0-11.3-9.4Z" style="fill:#5e65ea"/><path d="M2604.6,1184.6l22.7-4.4,1.2,6-22.7,4.4Z" style="fill:#5e65ea"/><path d="M2626.3,1139.6l6-1.2,4.6,22.6-6,1.2Z" style="fill:#5e65ea"/><path d="M2879.5,1179.3a17.71,17.71,0,1,1,2.1-.2,14.92,14.92,0,0,1-2.1.2Zm-11.1-15.9a11.14,11.14,0,1,0,9.6-12.5,11.15,11.15,0,0,0-9.6,12.5Zm17.4,66.2a17.71,17.71,0,1,1,2.1-.2,7.49,7.49,0,0,1-2.1.2Zm-11.1-15.8a11.09,11.09,0,1,0,9.6-12.4A11.05,11.05,0,0,0,2874.7,1213.8Zm-45.6-28.2a17.7,17.7,0,1,1,2.2-.2c-.8.1-1.5.1-2.2.2Zm0-28.4h-1.4a11.12,11.12,0,1,0,1.4,0Z" style="fill:#5e65ea"/><path d="M2878.2,1176.6l6-.8,2.8,22.3-6,.8Z" style="fill:#5e65ea"/><path d="M2842.7,1163.8l22.3-2.8.8,6-22.3,2.8Z" style="fill:#5e65ea"/><path d="M2822.8,1135.2a17,17,0,1,1,2.2-.1c-.8,0-1.5.1-2.2.1Zm0-28.3h-1.4a11.2,11.2,0,0,0-9.7,12.4,11.18,11.18,0,0,0,12.4,9.7,11.08,11.08,0,0,0,9.4-12.6,11,11,0,0,0-10.7-9.5Zm92.5,16.7a16.87,16.87,0,1,1,2.2-.1A17,17,0,0,1,2915.3,1123.6Zm0-28.3h-1.4a11.13,11.13,0,0,0,2.7,22.1,11.08,11.08,0,0,0,9.4-12.6A11,11,0,0,0,2915.3,1095.3Zm-86.2,90.3a17.7,17.7,0,1,1,2.2-.2c-.8.1-1.5.1-2.2.2Zm0-28.4h-1.4a11.13,11.13,0,0,0,2.7,22.1,11.08,11.08,0,0,0,9.4-12.6A11,11,0,0,0,2829.1,1157.2Z" style="fill:#5e65ea"/><path d="M2836.4,1113.5l64.4-8.1.8,6-64.4,8.1Z" style="fill:#5e65ea"/><path d="M2821.5,1132.7l6-.8,2.8,22.3-6,.8Z" style="fill:#5e65ea"/><path d="M2390.2,1455.7a17.65,17.65,0,1,1,17.6-17.6A17.65,17.65,0,0,1,2390.2,1455.7Zm0-29.2a11.55,11.55,0,1,0,11.5,11.5A11.44,11.44,0,0,0,2390.2,1426.5Zm.1-23.1a17.65,17.65,0,1,1,17.6-17.6A17.65,17.65,0,0,1,2390.3,1403.4Zm0-29.2a11.55,11.55,0,1,0,11.5,11.5A11.59,11.59,0,0,0,2390.3,1374.2Zm-52.4,81.4a17.65,17.65,0,1,1,17.6-17.6A17.65,17.65,0,0,1,2337.9,1455.6Zm0-29.2a11.55,11.55,0,1,0,11.5,11.5A11.52,11.52,0,0,0,2337.9,1426.4Z" style="fill:#5e65ea"/><path d="M2387.4,1423.5v-23.1h6.1v23.1Z" style="fill:#5e65ea"/><path d="M2352.5,1441v-6.1h23.1v6.1Z" style="fill:#5e65ea"/><path d="M2615.5,1435.6a16.84,16.84,0,1,1,.8,0Zm-.5-28.3a11.11,11.11,0,1,0,11.6,10.6A11.15,11.15,0,0,0,2615,1407.3Zm-50.1,30.7a16.84,16.84,0,1,1,.8,0Zm-.6-28.3a11.59,11.59,0,1,0,.1,0Zm48.8-24.7a16.84,16.84,0,1,1,.8,0Zm-.5-28.4a11.15,11.15,0,0,0-10.6,11.6,10.79,10.79,0,0,0,3.6,7.7,11.18,11.18,0,0,0,15.7-.7,11.32,11.32,0,0,0,2.9-8,11,11,0,0,0-11.6-10.6Z" style="fill:#5e65ea"/><path d="M2579,1416.9l22.4-1.1.3,6.1-22.4,1.1Z" style="fill:#5e65ea"/><path d="M2610.8,1382l6.1-.3,1.1,22.4-6.1.3Z" style="fill:#5e65ea"/><path d="M2663.8,1382.5a16.84,16.84,0,1,1,1,0Zm-11.1-16.7a11.59,11.59,0,1,0,0-.1Zm15.6,109.9a16.79,16.79,0,1,1,.9,0Zm-11.1-16.7a11.11,11.11,0,1,0,10.6-11.6A11.15,11.15,0,0,0,2657.2,1459Zm-44.1-74a16.84,16.84,0,1,1,.8,0Zm0-28.4h-.6a11.44,11.44,0,1,0,.6,0Z" style="fill:#5e65ea"/><path d="M2661.5,1379.7l6.1-.3,3.1,64.8-6.1.3Z" style="fill:#5e65ea"/><path d="M2627.2,1363.8l22.4-1.1.3,6.1-22.4,1.1Z" style="fill:#5e65ea"/><path d="M2844.5,1414a18,18,0,1,1,6-1.2,17.65,17.65,0,0,1-6,1.2Zm0-29.2a11.55,11.55,0,1,0,11.6,11.5,10.88,10.88,0,0,0-.7-4,11.56,11.56,0,0,0-10.9-7.5Zm18,78.3a17.69,17.69,0,1,1,6-1.1A17.25,17.25,0,0,1,2862.5,1463.1Zm0-29.2a11.6,11.6,0,1,0,11.6,11.6,10.88,10.88,0,0,0-.7-4,11.55,11.55,0,0,0-10.9-7.6Zm31.1-37.9a17.69,17.69,0,1,1,6-1.1A23.59,23.59,0,0,1,2893.6,1396Zm0-29.2a11.55,11.55,0,1,0,11.5,11.6,10.88,10.88,0,0,0-.7-4A11.33,11.33,0,0,0,2893.6,1366.8Z" style="fill:#5e65ea"/><path d="M2844.4,1426.1l5.7-2.1,7.9,21.7-5.7,2.1Z" style="fill:#5e65ea"/><path d="M2857.2,1388.5l21.7-7.9,2.1,5.7-21.7,7.9Z" style="fill:#5e65ea"/><path d="M2375.6,1673.9a17.29,17.29,0,1,1,7.7-1.9A17.51,17.51,0,0,1,2375.6,1673.9Zm0-28.4a10.84,10.84,0,0,0-5,1.2,11.07,11.07,0,1,0,14.9,4.8A11.3,11.3,0,0,0,2375.6,1645.5Zm45.3,5.4a17.26,17.26,0,0,1-17.3-17.1,17.22,17.22,0,1,1,25,15.3A19.26,19.26,0,0,1,2420.9,1650.9Zm0-28.4a10.84,10.84,0,0,0-5,1.2,11.16,11.16,0,1,0,15,4.9A11.43,11.43,0,0,0,2420.9,1622.5Zm-68.3,6a17.28,17.28,0,1,1,7.8-1.9A16.35,16.35,0,0,1,2352.6,1628.5Zm0-28.3a10.84,10.84,0,0,0-5,1.2,11.16,11.16,0,1,0,15,4.9A11,11,0,0,0,2352.6,1600.2Z" style="fill:#5e65ea"/><path d="M2386.8,1647.4l20-10.1,2.7,5.4-20,10.1Z" style="fill:#5e65ea"/><path d="M2356.3,1625.3l5.4-2.7,10.1,20-5.4,2.7Z" style="fill:#5e65ea"/><path d="M2307.4,1651.4a17.29,17.29,0,1,1,7.8-1.9,16.64,16.64,0,0,1-7.8,1.9Zm0-28.3a11.15,11.15,0,1,0,11.2,11.1,10.84,10.84,0,0,0-1.2-5A11.17,11.17,0,0,0,2307.4,1623.1Zm42,111.5a17.28,17.28,0,1,1,7.8-1.9A16.35,16.35,0,0,1,2349.4,1734.6Zm0-28.3a11.15,11.15,0,1,0,11.2,11.1,10.55,10.55,0,0,0-1.2-5A11.13,11.13,0,0,0,2349.4,1706.3Zm3.2-77.8a17.2,17.2,0,1,1,0-34.4,17.16,17.16,0,0,1,7.7,32.5,18.23,18.23,0,0,1-7.7,1.9Zm0-28.3a11.15,11.15,0,1,0,11.2,11.1,11.13,11.13,0,0,0-11.2-11.1Z" style="fill:#5e65ea"/><path d="M2311.1,1648l5.4-2.7,29.3,57.9-5.4,2.7Z" style="fill:#5e65ea"/><path d="M2318.6,1625.1l20-10.1,2.7,5.4-20,10.1Z" style="fill:#5e65ea"/><path d="M2616.5,1700.5a17.58,17.58,0,1,1,12.4-5.1,17.63,17.63,0,0,1-12.4,5.1Zm0-29.2a11.53,11.53,0,0,0-8.2,19.7,11.84,11.84,0,0,0,16.4,0,11.5,11.5,0,0,0-8.2-19.7Zm37-7.8a17.58,17.58,0,1,1,12.4-5.1,17.22,17.22,0,0,1-12.4,5.1Zm0-29.2a11.61,11.61,0,1,0,8.2,3.4,11.33,11.33,0,0,0-8.2-3.4Zm-73.9,29.2a17.58,17.58,0,1,1,12.4-5.1,17.63,17.63,0,0,1-12.4,5.1Zm0-29.2a11.44,11.44,0,1,0,8.2,3.3,12,12,0,0,0-8.2-3.3Z" style="fill:#5e65ea"/><path d="M2624.7,1670.4l16.3-16.3,4.3,4.3-16.3,16.3Z" style="fill:#5e65ea"/><path d="M2587.8,1658.4l4.3-4.3,16.3,16.3-4.3,4.3Z" style="fill:#5e65ea"/><path d="M2880.5,1689.3a16,16,0,0,1-7.7-1.9,17,17,0,1,1,7.7,1.9Zm-5-7.2a11.15,11.15,0,1,0-5.5-6.4A11.51,11.51,0,0,0,2875.5,1682.1Zm50.3,30.1A17.2,17.2,0,1,1,2943,1695a16,16,0,0,1-1.9,7.7A16.76,16.76,0,0,1,2925.8,1712.2Zm0-28.3a11.16,11.16,0,0,0-5.1,21.1,11.09,11.09,0,0,0,10-19.8,9.47,9.47,0,0,0-4.9-1.3Zm-68.2,50.7a16,16,0,0,1-7.7-1.9,17.08,17.08,0,1,1,23-7.4A17.35,17.35,0,0,1,2857.6,1734.6Zm0-28.3a11.16,11.16,0,0,0-5.1,21.1,11.09,11.09,0,1,0,10-19.8,9.47,9.47,0,0,0-4.9-1.3Z" style="fill:#5e65ea"/><path d="M2861.3,1703.5l10.1-20,5.4,2.7-10.1,20Z" style="fill:#5e65ea"/><path d="M2812.3,1711.7a17.2,17.2,0,1,1,17.2-17.2,16,16,0,0,1-1.9,7.7A16.94,16.94,0,0,1,2812.3,1711.7Zm0-28.3a11.18,11.18,0,1,0,4.9,1.2,10.44,10.44,0,0,0-4.9-1.2Zm42.1-54.9a17.31,17.31,0,1,1,5.4-.9A14.59,14.59,0,0,1,2854.4,1628.5Zm0-28.3a11.13,11.13,0,1,0,5,1.2A10.55,10.55,0,0,0,2854.4,1600.2Zm3.2,134.4a17.31,17.31,0,1,1,5.4-.9A17,17,0,0,1,2857.6,1734.6Zm0-28.3a11.18,11.18,0,1,0,4.9,1.2,10.44,10.44,0,0,0-4.9-1.2Z" style="fill:#5e65ea"/><path d="M2816,1680.6l29.3-57.9,5.4,2.7-29.3,57.9Z" style="fill:#5e65ea"/><path d="M2823.6,1703.7l2.7-5.4,20,10.1-2.7,5.4Z" style="fill:#5e65ea"/></g></svg>