<svg height="635mm" viewBox="0 0 2880 1800" width="1016mm" xmlns="http://www.w3.org/2000/svg"><path d="m0 0h2896.8v1799.7h-2896.8z" fill="#f2f6f7"/><g fill="#5e65ea" opacity=".03"><path d="m96.9 137.1a17.88 17.88 0 1 1 4.3-.6 15.4 15.4 0 0 1 -4.3.6zm0-29.2a11.6 11.6 0 1 0 11.6 11.6 9.67 9.67 0 0 0 -.4-2.9 11.56 11.56 0 0 0 -11.2-8.7zm13.1 79.8a17.78 17.78 0 1 1 4.4-.6 13 13 0 0 1 -4.4.6zm0-29.2a9.25 9.25 0 0 0 -2.9.4 11.38 11.38 0 1 0 2.9-.4zm-63.7-8.4a17.46 17.46 0 1 1 4.4-.5 21.18 21.18 0 0 1 -4.4.5zm-11.2-14.8a11.57 11.57 0 1 0 8.3-14.1 11.55 11.55 0 0 0 -8.3 14.1z"/><path d="m97.6 134.3 5.9-1.5 5.8 22.4-5.9 1.5z"/><path d="m59.6 125.9 22.4-5.8 1.5 5.9-22.4 5.8z"/><path d="m64.1 431.5a17.11 17.11 0 0 1 -17.1-17.2 17.56 17.56 0 0 1 4.4-11.5 17.2 17.2 0 0 1 25.4 23.2 17 17 0 0 1 -11.9 5.6zm0-28.3h-.5a10.79 10.79 0 0 0 -7.7 3.6 11.11 11.11 0 1 0 15.7-.7 11 11 0 0 0 -7.5-2.9zm-34.1 65.9a17.25 17.25 0 1 1 12.8-5.7 17.68 17.68 0 0 1 -12.8 5.7zm-8.2-24.7a11.12 11.12 0 1 0 15.8-.8 11.09 11.09 0 0 0 -15.8.8zm4.8-47a17.2 17.2 0 0 1 -12.7-28.8 17 17 0 0 1 11.9-5.6 17.27 17.27 0 0 1 13.6 28.8 17.58 17.58 0 0 1 -12.8 5.6zm-8.3-24.8a11.64 11.64 0 1 0 .2-.2c-.1.2-.1.2-.2.2z"/><path d="m37.3 439.3 15.1-16.6 4.5 4.1-15.1 16.6z"/><path d="m35 392 4.1-4.5 16.6 15.1-4.1 4.5z"/><path d="m60.7 359.8a17.25 17.25 0 1 1 12.7-5.7 16.78 16.78 0 0 1 -12.7 5.7zm-7.5-8.9a11.12 11.12 0 1 0 -.8-15.7 11.09 11.09 0 0 0 .8 15.7zm76.5 71.6a17.25 17.25 0 1 1 12.7-5.7 16.63 16.63 0 0 1 -12.7 5.7zm-7.5-8.9a11.12 11.12 0 1 0 -.8-15.8 11.3 11.3 0 0 0 .8 15.8zm-95.6-16.2a17.15 17.15 0 1 1 12.7-5.6 17 17 0 0 1 -12.7 5.6zm0-28.3a11.1 11.1 0 1 0 7.5 2.9 11.14 11.14 0 0 0 -7.5-2.9z"/><path d="m69.1 354.4 4.1-4.5 48 43.7-4.1 4.5z"/><path d="m33.8 367.6 15.1-16.6 4.5 4.1-15.1 16.6z"/><path d="m52 692.2h-.9a17.62 17.62 0 1 1 18.4-16.7 17.36 17.36 0 0 1 -17.5 16.7zm0-29.2a11.6 11.6 0 1 0 .6 0zm2.6-23h-.9a18.1 18.1 0 1 1 .9 0zm0-29.2a11.56 11.56 0 0 0 -.5 23.1 11.8 11.8 0 0 0 12.1-11 11.6 11.6 0 0 0 -11-12.1zm49.7 84h-.9a18.1 18.1 0 1 1 .9 0zm0-29.2a11.6 11.6 0 0 0 0 23.2 11.61 11.61 0 0 0 .5-23.2z"/><path d="m49.7 659.8 1.1-23.1 6.1.3-1.1 23.1z"/><path d="m66.5 678.4.3-6.1 23.1 1.1-.3 6.1z"/><path d="m96.4 938.8a17.2 17.2 0 0 1 0-34.4h.3a17.2 17.2 0 0 1 -.3 34.4zm0-28.3a10.9 10.9 0 1 0 .2 0zm35.2 64.9a17 17 0 0 1 -12.4-5.3 17.19 17.19 0 1 1 24.3.4 16.63 16.63 0 0 1 -11.9 4.9zm0-28.3a11.17 11.17 0 0 0 -8.1 18.9 11.1 11.1 0 0 0 16-15.4 10.82 10.82 0 0 0 -7.8-3.4zm-71.8 26.9a17 17 0 0 1 -12.4-5.3 17.19 17.19 0 1 1 24.3.4 16.88 16.88 0 0 1 -11.9 4.9zm-8-9.5a11.1 11.1 0 1 0 8.2-18.8 11.55 11.55 0 0 0 -7.9 3.1 11.07 11.07 0 0 0 -.3 15.7z"/><path d="m104 934 4.4-4.2 15.5 16.2-4.4 4.2z"/><path d="m67.9 944.9 16.2-15.5 4.2 4.4-16.2 15.5z"/><path d="m24.7 937.4h-.3a17.2 17.2 0 1 1 17.5-16.9 16.9 16.9 0 0 1 -5.3 12 16.8 16.8 0 0 1 -11.9 4.9zm0-28.3a11.1 11.1 0 1 0 -.2 22.2 11.55 11.55 0 0 0 7.9-3.1 11.1 11.1 0 0 0 -7.5-19.1zm67.2-36.3h-.3a17.2 17.2 0 1 1 17.5-16.9 17.42 17.42 0 0 1 -17.2 16.9zm0-28.3a11.1 11.1 0 1 0 8 3.4 11.14 11.14 0 0 0 -8-3.4zm-32.1 129.5a17.23 17.23 0 1 1 11.9-4.8 17 17 0 0 1 -11.9 4.8zm0-28.3a10.9 10.9 0 1 0 .2 0z"/><path d="m32.7 908.3 46.8-45 4.2 4.4-46.8 45z"/><path d="m32.3 932.5 4.4-4.2 15.5 16.2-4.4 4.2z"/><path d="m96.9 1151.7a17.88 17.88 0 1 1 4.3-.6 15.4 15.4 0 0 1 -4.3.6zm0-29.2a11.6 11.6 0 1 0 11.6 11.6 9.67 9.67 0 0 0 -.4-2.9 11.56 11.56 0 0 0 -11.2-8.7zm13.1 79.9a17.78 17.78 0 1 1 4.4-.6 16.11 16.11 0 0 1 -4.4.6zm0-29.3a9.25 9.25 0 0 0 -2.9.4 11.38 11.38 0 1 0 2.9-.4zm-63.7-8.3a17.46 17.46 0 1 1 4.4-.5 21.18 21.18 0 0 1 -4.4.5zm-11.2-14.8a11.57 11.57 0 1 0 8.3-14.1 11.55 11.55 0 0 0 -8.3 14.1z"/><path d="m97.7 1148.9 5.9-1.5 5.8 22.4-5.9 1.5z"/><path d="m59.6 1140.6 22.4-5.8 1.5 5.9-22.4 5.8z"/><path d="m64.1 1446.2a17.2 17.2 0 1 1 12.7-5.6 17 17 0 0 1 -11.9 5.6zm0-28.4h-.5a10.79 10.79 0 0 0 -7.7 3.6 11.11 11.11 0 1 0 15.7-.7 11.52 11.52 0 0 0 -7.5-2.9zm-34.1 65.9a17.25 17.25 0 1 1 12.8-5.7 17.2 17.2 0 0 1 -12.8 5.7zm-8.2-24.7a11.12 11.12 0 1 0 15.8-.8 11.29 11.29 0 0 0 -15.8.8zm4.8-47a17.2 17.2 0 0 1 -12.7-28.8 17 17 0 0 1 11.9-5.6 17.27 17.27 0 0 1 13.6 28.8 17.58 17.58 0 0 1 -12.8 5.6zm-8.3-24.7a11.64 11.64 0 1 0 .2-.2c-.1.2-.1.2-.2.2z"/><path d="m37.3 1453.9 15.1-16.6 4.5 4.1-15.1 16.6z"/><path d="m35 1406.6 4.1-4.5 16.6 15.1-4.1 4.5z"/><path d="m60.7 1374.5a17.25 17.25 0 1 1 12.7-5.7 17.22 17.22 0 0 1 -12.7 5.7zm-7.5-9a11.12 11.12 0 1 0 -.8-15.7 11.09 11.09 0 0 0 .8 15.7zm76.5 71.7a17.25 17.25 0 1 1 12.7-5.7 17 17 0 0 1 -12.7 5.7zm-7.5-9a11.12 11.12 0 1 0 -.8-15.8 11.3 11.3 0 0 0 .8 15.8zm-95.6-16.2a17.15 17.15 0 1 1 12.7-5.6 16.69 16.69 0 0 1 -12.7 5.6zm0-28.3a11.1 11.1 0 1 0 7.5 2.9 11.14 11.14 0 0 0 -7.5-2.9z"/><path d="m69.2 1369 4.1-4.5 48 43.7-4.1 4.5z"/><path d="m33.9 1382.2 15.1-16.6 4.5 4.1-15.1 16.6z"/><path d="m52 1706.9h-.9a17.62 17.62 0 1 1 18.4-16.7 17.43 17.43 0 0 1 -17.5 16.7zm0-29.2a11.6 11.6 0 1 0 .6 0zm2.6-23.1h-.9a18.1 18.1 0 1 1 .9 0zm0-29.2a11.56 11.56 0 0 0 -.5 23.1 11.8 11.8 0 0 0 12.1-11 11.6 11.6 0 0 0 -11-12.1zm49.7 84h-.9a17.67 17.67 0 1 1 18.5-16.8 17.6 17.6 0 0 1 -17.6 16.8zm0-29.2a11.6 11.6 0 1 0 0 23.2 11.61 11.61 0 0 0 .5-23.2z"/><path d="m49.7 1674.4 1.1-23.1 6.1.3-1.1 23.1z"/><path d="m66.5 1693 .3-6.1 23.1 1.1-.3 6.1z"/><path d="m443.6 525.9 21.2-21.2 4.3 4.3-21.2 21.2z"/><path d="m454.3 536.7 21.2-21.2 4.3 4.3-21.2 21.2z"/><path d="m190.5 268.8 4.3-4.3 21.2 21.2-4.3 4.3z"/><path d="m201.2 258.1 4.3-4.3 21.2 21.2-4.3 4.3z"/><path d="m707.3 258.1 4.3-4.3 21.2 21.2-4.3 4.3z"/><path d="m696.6 268.8 4.3-4.3 21.2 21.2-4.3 4.3z"/><path d="m198.8 8.5a13.86 13.86 0 1 0 19.6 0 13.88 13.88 0 0 0 -19.6 0zm17.6 9.7a7.75 7.75 0 1 1 -7.7-7.8 7.81 7.81 0 0 1 5.5 2.3 8.15 8.15 0 0 1 2.2 5.5z"/><path d="m443.6 21.4 21.2-21.2 4.3 4.3-21.2 21.2z"/><path d="m454.3 32.1 21.2-21.2 4.3 4.3-21.2 21.2z"/><path d="m728.4 18.2c0-.5-.1-1-.1-1.5a3.18 3.18 0 0 0 -.3-.9 10.93 10.93 0 0 0 -.5-1.7 4.05 4.05 0 0 0 -.5-.9 10.93 10.93 0 0 0 -.8-1.5c-.2-.3-.5-.6-.8-1a10.59 10.59 0 0 0 -1-1.2 9.38 9.38 0 0 0 -1.2-.9 3.92 3.92 0 0 0 -1-.8 9.14 9.14 0 0 0 -1.4-.7 3.13 3.13 0 0 0 -1-.5 8.33 8.33 0 0 0 -1.5-.4 3.81 3.81 0 0 1 -1-.3 6.6 6.6 0 0 0 -1.4-.1c-.4 0-.8-.1-1.2-.1a4.87 4.87 0 0 0 -1.2.1c-.5 0-1 .1-1.4.1a2.93 2.93 0 0 0 -1 .3c-.5.1-1 .3-1.5.4a4.67 4.67 0 0 0 -1 .5c-.5.2-1 .5-1.4.7a3.92 3.92 0 0 0 -1 .8 10.63 10.63 0 0 0 -1.1.9 10.59 10.59 0 0 0 -1 1.2 3.92 3.92 0 0 0 -.8 1 10.93 10.93 0 0 0 -.8 1.5 4.05 4.05 0 0 1 -.5.9 10.93 10.93 0 0 0 -.5 1.7 3.18 3.18 0 0 1 -.3.9 7.57 7.57 0 0 0 -.1 1.5c0 .4-.1.7-.1 1.1a4.1 4.1 0 0 0 .1 1.1c0 .5.1 1 .1 1.5a1.42 1.42 0 0 0 .2.6 6.64 6.64 0 0 0 .6 2 13.73 13.73 0 0 0 12.8 8.5 14 14 0 0 0 12.8-8.5c.2-.7.4-1.3.6-2a1.42 1.42 0 0 1 .2-.6 7.57 7.57 0 0 0 .1-1.5c0-.4.1-.7.1-1.1a4.25 4.25 0 0 0 -.2-1.1zm-6 2.6c-.1.4-.2.8-.3 1.1v.3a5.94 5.94 0 0 1 -.4.8.85.85 0 0 1 -.3.5c-.1.1-.3.4-.5.6s-.3.4-.5.6a7.85 7.85 0 0 1 -11 0c-.2-.2-.3-.4-.5-.6s-.3-.4-.5-.6-.2-.3-.3-.5a5.9 5.9 0 0 1 -.4-.8v-.3a6.15 6.15 0 0 1 -.3-1.1 8 8 0 0 1 .4-4.3 10.91 10.91 0 0 1 .6-1.1l.1-.2a10.59 10.59 0 0 1 1-1.2c.2-.2.4-.3.5-.5a1.79 1.79 0 0 1 .7-.5l.3-.2a7.61 7.61 0 0 1 8.2.2c.2.1.3.3.5.4s.5.4.8.6a10.59 10.59 0 0 1 1 1.2l.1.2c.2.4.4.7.6 1.1a7.87 7.87 0 0 1 .4 4.3c-.1 0-.2 0-.2-.1z"/><path d="m947.6 21.3 21.2-21.2 4.3 4.3-21.2 21.2z"/><path d="m958.2 32 21.2-21.2 4.3 4.3-21.2 21.2z"/><path d="m947.6 525.9 21.2-21.2 4.3 4.3-21.2 21.2z"/><path d="m958.4 536.7 21.2-21.2 4.3 4.3-21.2 21.2z"/><path d="m463.8 284.8a13.8 13.8 0 1 1 9.8-4 14.56 14.56 0 0 1 -9.8 4zm0-21.6a7.76 7.76 0 1 0 -.7 15.5h.8a7.79 7.79 0 0 0 7.4-8.1 8.13 8.13 0 0 0 -7.5-7.4zm502.8 21.6a13.8 13.8 0 1 1 9.8-4 14.19 14.19 0 0 1 -9.8 4zm0-21.6a7.76 7.76 0 1 0 -.7 15.5h.8a7.79 7.79 0 0 0 7.4-8.1 8 8 0 0 0 -7.5-7.4zm-251.9 273.5a13.8 13.8 0 1 1 9.8-4 14.65 14.65 0 0 1 -9.8 4zm0-21.6a7.76 7.76 0 1 0 -.7 15.5h.8a7.79 7.79 0 0 0 7.4-8.1 8 8 0 0 0 -7.5-7.4zm-506.1 21.2a13.8 13.8 0 1 1 9.8-4 14.65 14.65 0 0 1 -9.8 4zm0-21.6a7.76 7.76 0 1 0 -.7 15.5h.8a7.79 7.79 0 0 0 7.4-8.1 7.89 7.89 0 0 0 -7.5-7.4zm126.7-356.7h-.1a17.25 17.25 0 0 1 .1-34.5h.1a17.25 17.25 0 1 1 -.1 34.5zm0-28.3a11.1 11.1 0 1 0 11.1 11.1 11.14 11.14 0 0 0 -11.1-11.1zm50.8 28.6h-.1a17.28 17.28 0 0 1 -17.2-17.3 17.24 17.24 0 0 1 17.4-17.2 17.26 17.26 0 0 1 -.1 34.5zm0-6a7.85 7.85 0 1 1 .1-.1zm-51.1 56.5h-.1a17.21 17.21 0 0 1 .1-34.4h.1a17.21 17.21 0 0 1 -.1 34.4zm0-6.1a11.1 11.1 0 1 0 -11.1-11.1 11 11 0 0 0 11.1 11.1z"/><path d="m349.4 143.9v-6.1l22.4.1v6.1z"/><path d="m332 177.4.1-22.4h6.1l-.1 22.4z"/><path d="m284.2 208.4h-.1a17.25 17.25 0 1 1 .1 0zm0-28.3a11.1 11.1 0 1 0 11.1 11.1 11.14 11.14 0 0 0 -11.1-11.1zm.6-64.9h-.1a17.21 17.21 0 0 1 .1-34.4h.1a17.2 17.2 0 0 1 -.1 34.4zm0-28.3a11.1 11.1 0 1 0 11.1 11.1 11 11 0 0 0 -11.1-11.1zm50.2 121.9h-.1a17.21 17.21 0 0 1 .1-34.4h.1a17.2 17.2 0 0 1 -.1 34.4zm0-28.4a11.1 11.1 0 1 0 11.1 11.1 11.14 11.14 0 0 0 -11.1-11.1z"/><path d="m281.2 177 .4-64.9h6.1l-.4 64.9z"/><path d="m298.3 194.3v-6.1l22.4.1v6.1z"/><path d="m613.3 183.1a18.11 18.11 0 1 1 3.4-.4 13.69 13.69 0 0 1 -3.4.4zm0-29.2a16.35 16.35 0 0 0 -2.2.2 11.55 11.55 0 1 0 13.5 9.2 11.75 11.75 0 0 0 -11.3-9.4zm-51.4 39.2a17.57 17.57 0 1 1 3.4-.3 19.53 19.53 0 0 1 -3.4.3zm0-29.2a16.35 16.35 0 0 0 -2.2.2 11.56 11.56 0 1 0 2.2-.2zm41.5-32.1a17.53 17.53 0 1 1 3.4-.3 20.41 20.41 0 0 1 -3.4.3zm0-29.2a16.35 16.35 0 0 0 -2.2.2 11.56 11.56 0 1 0 2.2-.2z"/><path d="m573.5 169 22.6-4.6 1.2 6-22.6 4.6z"/><path d="m603.2 129.1 6-1.2 4.4 22.7-6 1.2z"/><path d="m850.5 164.6a17.71 17.71 0 1 1 2.1-.2 7.14 7.14 0 0 1 -2.1.2zm-11-15.8a11.09 11.09 0 1 0 9.6-12.4 11.05 11.05 0 0 0 -9.6 12.4zm17.3 66.2a17.71 17.71 0 1 1 2.1-.2 14.92 14.92 0 0 1 -2.1.2zm-11-15.9a11.09 11.09 0 1 0 9.6-12.4 11.05 11.05 0 0 0 -9.6 12.4zm-45.6-28.2a17.7 17.7 0 1 1 2.2-.2 8.58 8.58 0 0 1 -2.2.2zm0-28.3h-1.4a11.12 11.12 0 1 0 1.4 0z"/><path d="m849.3 161.9 6-.8 2.8 22.3-6 .8z"/><path d="m813.9 149.1 22.3-2.8.8 6-22.3 2.8z"/><path d="m793.8 120.6a17 17 0 1 1 2.2-.1c-.7 0-1.4.1-2.2.1zm0-28.4h-1.4a11.2 11.2 0 0 0 -9.7 12.4 11.18 11.18 0 0 0 12.4 9.7 11.08 11.08 0 0 0 9.4-12.6 11 11 0 0 0 -10.7-9.5zm92.5 16.8a16.87 16.87 0 1 1 2.2-.1c-.7 0-1.4.1-2.2.1zm0-28.3h-1.4a11.13 11.13 0 0 0 2.7 22.1 11.08 11.08 0 0 0 9.4-12.6 10.89 10.89 0 0 0 -10.7-9.5zm-86.1 90.2a17.7 17.7 0 1 1 2.2-.2 8.58 8.58 0 0 1 -2.2.2zm0-28.3h-1.4a11.13 11.13 0 0 0 2.7 22.1 11.08 11.08 0 0 0 9.4-12.6 11 11 0 0 0 -10.7-9.5z"/><path d="m807.6 98.7 64.4-8.1.8 6-64.4 8.1z"/><path d="m792.6 117.9 6-.8 2.8 22.3-6 .8z"/><path d="m1111.4 137.1a17.51 17.51 0 1 1 4.2-.5 19.31 19.31 0 0 1 -4.2.5zm0-29.2a11.6 11.6 0 1 0 11.6 11.6 9.67 9.67 0 0 0 -.4-2.9 11.62 11.62 0 0 0 -11.2-8.7zm13.1 79.8a17.78 17.78 0 1 1 4.4-.6 13.72 13.72 0 0 1 -4.4.6zm0-29.2a9.25 9.25 0 0 0 -2.9.4 11.44 11.44 0 1 0 14 8.1 11.55 11.55 0 0 0 -11.1-8.5zm-63.8-8.4a17.46 17.46 0 1 1 4.4-.5 21.18 21.18 0 0 1 -4.4.5zm-11.2-14.8a11.57 11.57 0 1 0 8.4-14.2 11.94 11.94 0 0 0 -8.4 14.2z"/><path d="m1112.1 134.2 5.9-1.5 5.8 22.4-5.9 1.5z"/><path d="m1074.1 126 22.4-5.8 1.5 5.9-22.4 5.8z"/><path d="m361.3 441a17.6 17.6 0 1 1 17.6-17.6 17.63 17.63 0 0 1 -17.6 17.6zm0-29.2a11.55 11.55 0 1 0 -.1 23.1h.1a11.55 11.55 0 1 0 0-23.1zm0-23.1a17.6 17.6 0 1 1 17.6-17.6 17.63 17.63 0 0 1 -17.6 17.6zm0-29.2a11.55 11.55 0 1 0 11.5 11.5 11.44 11.44 0 0 0 -11.5-11.5zm-52.4 81.5a17.6 17.6 0 1 1 17.6-17.6 17.63 17.63 0 0 1 -17.6 17.6zm0-29.2a11.55 11.55 0 1 0 11.5 11.5 11.52 11.52 0 0 0 -11.5-11.5z"/><path d="m357 408.2v-23.1h6.1v23.1z"/><path d="m323.5 426.4v-6.1h23.1v6.1z"/><path d="m586.6 420.9a16.84 16.84 0 1 1 .8 0zm-.5-28.1a11.11 11.11 0 1 0 11.6 10.6 11.15 11.15 0 0 0 -11.6-10.6zm-50.2 30.6a16.84 16.84 0 1 1 .8 0zm-.5-28.3a11.59 11.59 0 1 0 .1 0zm48.8-24.8a16.84 16.84 0 1 1 .8 0zm-.5-28.3a11.15 11.15 0 0 0 -10.6 11.6 10.79 10.79 0 0 0 3.6 7.7 11.08 11.08 0 0 0 15.7-.6 11.21 11.21 0 0 0 2.9-8.2 11 11 0 0 0 -11.6-10.5z"/><path d="m550 402.4 22.4-1.1.3 6.1-22.4 1.1z"/><path d="m581.8 367.4 6.1-.3 1.1 22.4-6.1.3z"/><path d="m634.9 367.9a16.79 16.79 0 1 1 .9 0zm-11.1-16.7a11.59 11.59 0 1 0 0-.1zm15.5 109.8a16.79 16.79 0 1 1 .9 0zm-11.1-16.7a11.11 11.11 0 1 0 10.6-11.6 11.15 11.15 0 0 0 -10.6 11.6zm-44-74a16.84 16.84 0 1 1 .8 0zm0-28.3h-.5a11.49 11.49 0 1 0 .5 0z"/><path d="m632.5 365 6.1-.3 3.1 64.8-6.1.3z"/><path d="m598.2 349.3 22.4-1.1.3 6.1-22.4 1.1z"/><path d="m815.5 399.4a18 18 0 1 1 6-1.2 17.33 17.33 0 0 1 -6 1.2zm0-29.3a11.55 11.55 0 1 0 11.6 11.5 10.88 10.88 0 0 0 -.7-4 11.75 11.75 0 0 0 -10.9-7.5zm18.1 78.4a17.69 17.69 0 1 1 6-1.1 17.25 17.25 0 0 1 -6 1.1zm0-29.3a11.6 11.6 0 1 0 11.6 11.6 10.88 10.88 0 0 0 -.7-4 11.94 11.94 0 0 0 -10.9-7.6zm31.1-37.9a17.45 17.45 0 1 1 6.1-1 18.15 18.15 0 0 1 -6.1 1zm0-29.2a11.55 11.55 0 1 0 11.5 11.6 10.88 10.88 0 0 0 -.7-4 11.56 11.56 0 0 0 -10.8-7.6z"/><path d="m817.7 396.4 5.7-2.1 7.9 21.7-5.7 2.1z"/><path d="m828.2 373.9 21.7-7.9 2.1 5.7-21.7 7.9z"/><path d="m1078.6 431.5a17.11 17.11 0 1 1 12.7-5.5 17 17 0 0 1 -11.9 5.6zm0-28.3h-.6a10.79 10.79 0 0 0 -7.7 3.6 11.11 11.11 0 1 0 15.7-.7 10.78 10.78 0 0 0 -7.4-2.9zm-34.1 65.9a17.25 17.25 0 1 1 12.8-5.7 17.68 17.68 0 0 1 -12.8 5.7zm-8.3-24.7a11.12 11.12 0 1 0 15.8-.8 11.21 11.21 0 0 0 -15.8.8zm4.8-47a17.2 17.2 0 0 1 -12.7-28.8 17 17 0 0 1 11.9-5.6 17.21 17.21 0 1 1 .8 34.4zm-8.2-24.8a11.64 11.64 0 1 0 .2-.2c-.1.2-.1.2-.2.2z"/><path d="m1051.7 439.2 15.1-16.6 4.5 4.1-15.1 16.6z"/><path d="m1049.5 392 4.1-4.5 16.6 15.1-4.1 4.5z"/><path d="m1075.2 359.8a17.25 17.25 0 1 1 12.7-5.7 16.78 16.78 0 0 1 -12.7 5.7zm-7.5-8.9a11.12 11.12 0 1 0 -.8-15.7 11.09 11.09 0 0 0 .8 15.7zm76.5 71.6a17.25 17.25 0 1 1 12.7-5.7 16.78 16.78 0 0 1 -12.7 5.7zm-7.5-8.9a11.12 11.12 0 1 0 -.8-15.8 11.21 11.21 0 0 0 .8 15.8zm-95.7-16.2a17.15 17.15 0 1 1 12.7-5.6 16.88 16.88 0 0 1 -12.7 5.6zm0-28.3a11.1 11.1 0 1 0 7.5 2.9 10.85 10.85 0 0 0 -7.5-2.9z"/><path d="m1083.6 354.3 4.1-4.5 48 43.7-4.1 4.5z"/><path d="m1048.2 367.6 15.1-16.6 4.5 4.1-15.1 16.6z"/><path d="m346.6 659.2a17.29 17.29 0 1 1 7.7-1.9 16.86 16.86 0 0 1 -7.7 1.9zm0-28.4a10.84 10.84 0 0 0 -5 1.2 11.07 11.07 0 1 0 14.9 4.8 11.26 11.26 0 0 0 -9.9-6zm45.3 5.5a17.29 17.29 0 1 1 7.8-1.9 17.6 17.6 0 0 1 -7.8 1.9zm0-28.4a10.84 10.84 0 0 0 -5 1.2 11.16 11.16 0 1 0 15 4.9 11.32 11.32 0 0 0 -10-6.1zm-68.2 6.1a17.28 17.28 0 1 1 7.8-1.9 17.6 17.6 0 0 1 -7.8 1.9zm0-28.4a10.84 10.84 0 0 0 -5 1.2 11.16 11.16 0 1 0 15 4.9 11.32 11.32 0 0 0 -10-6.1z"/><path d="m357.9 632.8 20-10.1 2.7 5.4-20 10.1z"/><path d="m327.4 610.7 5.4-2.7 10.1 20-5.4 2.7z"/><path d="m278.4 636.8a17.3 17.3 0 1 1 7.6-1.9 15.59 15.59 0 0 1 -7.6 1.9zm0-28.3a11.15 11.15 0 1 0 11.2 11.1 11.13 11.13 0 0 0 -11.2-11.1zm42.1 111.5a17.28 17.28 0 1 1 7.8-1.9 17.6 17.6 0 0 1 -7.8 1.9zm0-28.3a11.15 11.15 0 1 0 11.2 11.1 10.55 10.55 0 0 0 -1.2-5 11.06 11.06 0 0 0 -10-6.1zm3.2-77.7a17.12 17.12 0 1 1 7.8-1.8 19 19 0 0 1 -7.8 1.8zm0-28.4a11.15 11.15 0 1 0 11.2 11.1 11.13 11.13 0 0 0 -11.2-11.1z"/><path d="m282.1 633.5 5.4-2.7 29.3 57.9-5.4 2.7z"/><path d="m289.7 610.5 20-10.1 2.7 5.4-20 10.1z"/><path d="m587.6 685.9a17.58 17.58 0 1 1 12.4-5.1 17.63 17.63 0 0 1 -12.4 5.1zm0-29.2a11.53 11.53 0 0 0 -8.2 19.7 11.84 11.84 0 0 0 16.4 0 11.65 11.65 0 0 0 0-16.4 11.83 11.83 0 0 0 -8.2-3.3zm37-7.8a17.58 17.58 0 1 1 12.4-5.1 17.63 17.63 0 0 1 -12.4 5.1zm0-29.2a11.61 11.61 0 1 0 8.2 3.4 11.61 11.61 0 0 0 -8.2-3.4zm-74 29.2a17.58 17.58 0 1 1 12.4-5.1 17.63 17.63 0 0 1 -12.4 5.1zm0-29.2a11.44 11.44 0 1 0 8.2 3.3 11.83 11.83 0 0 0 -8.2-3.3z"/><path d="m595.8 655.8 16.3-16.3 4.3 4.3-16.3 16.3z"/><path d="m558.8 643.7 4.3-4.3 16.3 16.3-4.3 4.3z"/><path d="m851.6 674.7a16 16 0 0 1 -7.7-1.9 17 17 0 1 1 7.7 1.9zm-5-7.3a11.15 11.15 0 1 0 -5.5-6.4 10.27 10.27 0 0 0 5.5 6.4zm50.2 30.2a17.2 17.2 0 1 1 17.2-17.2 16 16 0 0 1 -1.9 7.7 16.66 16.66 0 0 1 -15.3 9.5zm0-28.3a11.08 11.08 0 0 0 -11.2 11 11.26 11.26 0 0 0 6.2 10.1 11.09 11.09 0 1 0 10-19.8 12 12 0 0 0 -5-1.3zm-68.2 50.7a16 16 0 0 1 -7.7-1.9 17 17 0 1 1 7.7 1.9zm0-28.3a11.16 11.16 0 0 0 -5.1 21.1 11.09 11.09 0 0 0 10-19.8 9 9 0 0 0 -4.9-1.3z"/><path d="m862.9 666.7 2.7-5.4 20 10.1-2.7 5.4z"/><path d="m832.4 688.8 10.1-20 5.4 2.7-10.1 20z"/><path d="m783.4 697.1a17.2 17.2 0 1 1 17.2-17.2 16 16 0 0 1 -1.9 7.7 17.12 17.12 0 0 1 -15.3 9.5zm0-28.3a11.18 11.18 0 1 0 4.9 1.2 10.44 10.44 0 0 0 -4.9-1.2zm42-54.8a17.31 17.31 0 1 1 5.4-.9 16.11 16.11 0 0 1 -5.4.9zm0-28.4a11.13 11.13 0 1 0 5 1.2 10.55 10.55 0 0 0 -5-1.2zm3.2 134.4a17.31 17.31 0 1 1 5.4-.9 16.11 16.11 0 0 1 -5.4.9zm0-28.3a11.18 11.18 0 1 0 4.9 1.2 10.16 10.16 0 0 0 -4.9-1.2z"/><path d="m787.1 665.9 29.3-57.9 5.4 2.7-29.3 57.9z"/><path d="m794.7 689 2.7-5.4 20 10.1-2.7 5.4z"/><path d="m1066.5 692.2h-.9a17.62 17.62 0 1 1 18.4-16.7 17.43 17.43 0 0 1 -17.5 16.7zm0-29.2a11.6 11.6 0 1 0 .6 0zm2.6-23h-.9a18.1 18.1 0 1 1 .9 0zm0-29.2a11.56 11.56 0 0 0 -.5 23.1 11.8 11.8 0 0 0 12.1-11 11.6 11.6 0 0 0 -11-12.1zm49.7 84h-.9a18.1 18.1 0 1 1 .9 0zm0-29.2a11.6 11.6 0 1 0 0 23.2 11.61 11.61 0 0 0 .5-23.2z"/><path d="m1064.1 659.8 1.1-23.1 6.1.3-1.1 23.1z"/><path d="m1081 678.4.3-6.1 23.1 1.1-.3 6.1z"/><path d="m443.6 1540.5 21.2-21.2 4.3 4.3-21.2 21.2z"/><path d="m454.2 1551.4 21.2-21.2 4.3 4.3-21.2 21.2z"/><path d="m190.5 1283.5 4.3-4.3 21.2 21.2-4.3 4.3z"/><path d="m201.2 1272.8 4.3-4.3 21.2 21.2-4.3 4.3z"/><path d="m707.3 1272.7 4.3-4.3 21.2 21.2-4.3 4.3z"/><path d="m696.7 1283.4 4.3-4.3 21.2 21.2-4.3 4.3z"/><path d="m190.5 776.8 4.3-4.3 21.2 21.2-4.3 4.3z"/><path d="m201.2 766.1 4.3-4.3 21.2 21.2-4.3 4.3z"/><path d="m198.8 1023.1a13.86 13.86 0 1 0 19.6 0 13.88 13.88 0 0 0 -19.6 0zm17.6 9.8a7.75 7.75 0 1 1 -7.7-7.8 7.68 7.68 0 0 1 7.7 7.8z"/><path d="m443.6 1036.1 21.2-21.2 4.3 4.3-21.2 21.2z"/><path d="m454.3 1046.8 21.2-21.2 4.3 4.3-21.2 21.2z"/><path d="m707.3 766 4.3-4.3 21.2 21.2-4.3 4.3z"/><path d="m696.7 776.7 4.3-4.3 21.2 21.2-4.3 4.3z"/><path d="m728.4 1032.8c0-.5-.1-1-.1-1.5a3.18 3.18 0 0 0 -.3-.9 10.93 10.93 0 0 0 -.5-1.7 4.05 4.05 0 0 0 -.5-.9 10.93 10.93 0 0 0 -.8-1.5c-.2-.3-.5-.6-.8-1a10.59 10.59 0 0 0 -1-1.2 9.38 9.38 0 0 0 -1.2-.9 3.92 3.92 0 0 0 -1-.8 9.14 9.14 0 0 0 -1.4-.7 3.13 3.13 0 0 0 -1-.5 8.33 8.33 0 0 0 -1.5-.4 3.81 3.81 0 0 1 -1-.3 6.6 6.6 0 0 0 -1.4-.1c-.4 0-.8-.1-1.2-.1a4.87 4.87 0 0 0 -1.2.1c-.5 0-1 .1-1.4.1a2.93 2.93 0 0 0 -1 .3c-.5.1-1 .3-1.5.4a4.67 4.67 0 0 0 -1 .5c-.5.2-1 .5-1.4.7a3.92 3.92 0 0 0 -1 .8 7.85 7.85 0 0 0 -2.1 2.1 3.92 3.92 0 0 0 -.8 1 10.93 10.93 0 0 0 -.8 1.5 4.05 4.05 0 0 1 -.5.9 10.93 10.93 0 0 0 -.5 1.7 3.18 3.18 0 0 1 -.3.9 7.57 7.57 0 0 0 -.1 1.5c0 .4-.1.7-.1 1.1a4.1 4.1 0 0 0 .1 1.1c0 .5.1 1 .1 1.5a1.42 1.42 0 0 0 .2.6 6.64 6.64 0 0 0 .6 2 13.73 13.73 0 0 0 12.8 8.5 14 14 0 0 0 12.8-8.5c.2-.7.4-1.3.6-2a1.42 1.42 0 0 1 .2-.6 7.57 7.57 0 0 0 .1-1.5c0-.4.1-.7.1-1.1s-.1-.7-.2-1.1zm-6 2.6c-.1.4-.2.8-.3 1.1v.3a5.94 5.94 0 0 1 -.4.8.85.85 0 0 1 -.3.5c-.1.1-.3.4-.5.6s-.3.4-.5.6a7.85 7.85 0 0 1 -11 0c-.2-.2-.3-.4-.5-.6s-.3-.4-.5-.6a1.33 1.33 0 0 1 -.3-.5 5.9 5.9 0 0 1 -.4-.8v-.3a6.15 6.15 0 0 1 -.3-1.1 8 8 0 0 1 .4-4.3 10.91 10.91 0 0 1 .6-1.1l.1-.2a10.59 10.59 0 0 1 1-1.2c.2-.2.4-.3.5-.5a1.79 1.79 0 0 1 .7-.5l.3-.2a7.61 7.61 0 0 1 8.2.2c.2.1.3.3.5.4s.5.4.8.6a10.59 10.59 0 0 1 1 1.2l.1.2c.2.4.4.7.6 1.1a7.87 7.87 0 0 1 .4 4.3z"/><path d="m947.6 1035.8 21.2-21.2 4.3 4.3-21.2 21.2z"/><path d="m958.3 1046.5 21.2-21.2 4.3 4.3-21.2 21.2z"/><path d="m947.6 1540.5 21.2-21.2 4.3 4.3-21.2 21.2z"/><path d="m958.3 1551.4 21.2-21.2 4.3 4.3-21.2 21.2z"/><path d="m309.8 943.5a22 22 0 0 1 -4.4-.5 17.64 17.64 0 1 1 21.5-12.8 17.83 17.83 0 0 1 -17.1 13.3zm0-29.2a11.41 11.41 0 1 0 2.9.3 15 15 0 0 0 -2.9-.3zm50.7 42a22 22 0 0 1 -4.4-.5 17.62 17.62 0 1 1 8.1-34.3 4.33 4.33 0 0 1 .5.1 17.69 17.69 0 0 1 12.9 21.4 17.35 17.35 0 0 1 -17.1 13.3zm0-29.2a11.31 11.31 0 1 0 2.9.3 14.28 14.28 0 0 0 -2.9-.3zm-37.8-34.3a22 22 0 0 1 -4.4-.5 17.65 17.65 0 1 1 21.6-12.8 17.77 17.77 0 0 1 -17.2 13.3zm0-29.3a11.52 11.52 0 0 0 -11.6 11.5 11.63 11.63 0 1 0 14.5-11.2z"/><path d="m323.2 932.4 1.5-5.9 22.4 5.7-1.5 5.9z"/><path d="m310.4 910.9 5.7-22.4 5.9 1.5-5.7 22.4z"/><path d="m463.8 793.7a13.8 13.8 0 1 1 9.8-4 15.06 15.06 0 0 1 -9.8 4zm0-21.6a7.76 7.76 0 1 0 -.7 15.5h.8a7.79 7.79 0 0 0 7.4-8.1 8 8 0 0 0 -7.5-7.4zm0 527.3a13.8 13.8 0 1 1 9.8-4 14.56 14.56 0 0 1 -9.8 4zm0-21.6a7.76 7.76 0 1 0 -.7 15.5h.8a7.79 7.79 0 0 0 7.4-8.1 8.13 8.13 0 0 0 -7.5-7.4zm502.8-483.2a13.8 13.8 0 1 1 9.8-4 14.65 14.65 0 0 1 -9.8 4zm0-21.6a7.76 7.76 0 1 0 -.7 15.5h.8a7.79 7.79 0 0 0 7.4-8.1 8 8 0 0 0 -7.5-7.4zm0 526.4a13.8 13.8 0 1 1 9.8-4 14.19 14.19 0 0 1 -9.8 4zm0-21.6a7.76 7.76 0 1 0 -.7 15.5h.8a7.79 7.79 0 0 0 7.4-8.1 8 8 0 0 0 -7.5-7.4zm-251.9 273.5a13.8 13.8 0 1 1 9.8-4 14.19 14.19 0 0 1 -9.8 4zm0-21.6a7.76 7.76 0 1 0 -.7 15.5h.8a7.79 7.79 0 0 0 7.4-8.1 8 8 0 0 0 -7.5-7.4zm-506.1 21.2a13.8 13.8 0 1 1 9.8-4 14.65 14.65 0 0 1 -9.8 4zm0-21.6a7.76 7.76 0 1 0 -.7 15.5h.8a7.79 7.79 0 0 0 7.4-8.1 8 8 0 0 0 -7.5-7.4zm378-598.6a16.84 16.84 0 1 1 .8 0zm-.5-28.4a11.11 11.11 0 1 0 11.6 10.6 11.15 11.15 0 0 0 -11.6-10.6zm-50.2 30.8a16.84 16.84 0 1 1 .8 0zm-.5-28.3a11.11 11.11 0 1 0 11.6 10.6 11.15 11.15 0 0 0 -11.6-10.6zm48.8-24.8a16.84 16.84 0 1 1 .8 0zm-.5-28.3a11.15 11.15 0 0 0 -10.6 11.6 10.79 10.79 0 0 0 3.6 7.7 11.32 11.32 0 0 0 8 2.9 11.15 11.15 0 0 0 10.6-11.6 11.11 11.11 0 0 0 -11.6-10.6z"/><path d="m550 912.1 22.4-1.1.3 6.1-22.4 1.1z"/><path d="m581.8 877 6.1-.3 1.1 22.4-6.1.3z"/><path d="m634.9 877.6a16.79 16.79 0 1 1 .9 0zm-11.1-16.7a11.59 11.59 0 1 0 0-.1zm15.5 109.8a16.79 16.79 0 1 1 .9 0zm-11.1-16.7a11.11 11.11 0 1 0 10.6-11.6 11.15 11.15 0 0 0 -10.6 11.6zm-44-74a17.26 17.26 0 1 1 .9 0zm0-28.4h-.5a11.15 11.15 0 0 0 -10.6 11.6 11 11 0 0 0 3.6 7.7 11.32 11.32 0 0 0 8 2.9 11.1 11.1 0 1 0 -.5-22.2z"/><path d="m632.5 874.7 6.1-.3 3.1 64.8-6.1.3z"/><path d="m598.3 859 22.4-1.1.3 6.1-22.4 1.1z"/><path d="m817.2 950.5a17.52 17.52 0 1 1 2.1-.1 14.77 14.77 0 0 1 -2.1.1zm0-29.2h-1.4a11.52 11.52 0 1 0 1.4 0zm51.9 23.1a17.52 17.52 0 1 1 2.1-.1 14.77 14.77 0 0 1 -2.1.1zm-1.3-29.1a11.57 11.57 0 0 0 -10 12.9 11.86 11.86 0 0 0 4.2 7.6 11.39 11.39 0 0 0 8.5 2.4 11.53 11.53 0 0 0 -2.7-22.9zm-56.7-16.7a17.52 17.52 0 1 1 2.1-.1c-.7 0-1.4.1-2.1.1zm-1.4-29.2a11.53 11.53 0 1 0 12.8 10.1v-.1a11.49 11.49 0 0 0 -12.8-10z"/><path d="m831.4 928.1 22.9-2.7.7 6-22.9 2.7z"/><path d="m809.8 895.7 6-.7 2.7 22.9-6 .7z"/><path d="m1110.9 938.8a17.2 17.2 0 0 1 0-34.4h.3a17.2 17.2 0 0 1 -.3 34.4zm0-28.3a10.9 10.9 0 1 0 .2 0zm35.2 64.9a17 17 0 0 1 -12.4-5.3 17.19 17.19 0 1 1 24.3.4 16.8 16.8 0 0 1 -11.9 4.9zm0-28.3a11.17 11.17 0 0 0 -8.1 18.9 11.1 11.1 0 0 0 16-15.4 10.82 10.82 0 0 0 -7.8-3.4zm-71.8 26.9a17 17 0 0 1 -12.4-5.3 17 17 0 1 1 12.4 5.3zm-8-9.5a11.1 11.1 0 1 0 8.2-18.8 11.55 11.55 0 0 0 -7.9 3.1 11.07 11.07 0 0 0 -.3 15.7z"/><path d="m1118.5 934 4.4-4.2 15.5 16.2-4.4 4.2z"/><path d="m1082.4 944.9 16.2-15.5 4.2 4.4-16.2 15.5z"/><path d="m1039.2 937.4h-.3a17.2 17.2 0 1 1 17.5-16.9 17.42 17.42 0 0 1 -17.2 16.9zm0-28.3a11.1 11.1 0 1 0 -.2 22.2 11.55 11.55 0 0 0 7.9-3.1 11.1 11.1 0 0 0 -7.5-19.1zm67.1-36.3h-.3a17.2 17.2 0 1 1 17.5-16.9 16.9 16.9 0 0 1 -5.3 12 16.46 16.46 0 0 1 -11.9 4.9zm0-28.3a11.1 11.1 0 1 0 8 3.4 10.72 10.72 0 0 0 -8-3.4zm-32 129.5a17.23 17.23 0 1 1 11.9-4.8 17 17 0 0 1 -11.9 4.8zm0-28.3a10.9 10.9 0 1 0 .2 0z"/><path d="m1047.3 908.3 46.8-45 4.2 4.4-46.8 45z"/><path d="m1046.8 932.5 4.4-4.2 15.5 16.2-4.4 4.2z"/><path d="m335.3 1172.6h-.1a17.25 17.25 0 0 1 .1-34.5h.1a17.25 17.25 0 0 1 -.1 34.5zm0-28.3a11.1 11.1 0 1 0 11.1 11.1 11.14 11.14 0 0 0 -11.1-11.1zm50.8 28.7h-.1a17.28 17.28 0 0 1 -17.2-17.3 16.93 16.93 0 0 1 5.1-12.2 17.08 17.08 0 1 1 12.2 29.5zm0-6.1a7.85 7.85 0 1 1 .1-.1h-.1zm-51.1 56.5h-.1a17.21 17.21 0 0 1 .1-34.4h.1a17.21 17.21 0 0 1 -.1 34.4zm0-6.1a11.1 11.1 0 1 0 -11.1-11.1 11.14 11.14 0 0 0 11.1 11.1z"/><path d="m349.4 1158.5v-6.1l22.4.1v6.1z"/><path d="m332 1191.9.1-22.4h6.1l-.1 22.4z"/><path d="m284.2 1223.1h-.1a17.25 17.25 0 1 1 .1 0zm0-28.4a11.1 11.1 0 1 0 11.1 11.1 11.14 11.14 0 0 0 -11.1-11.1zm.6-64.9h-.1a17.21 17.21 0 0 1 .1-34.4h.1a17.2 17.2 0 0 1 -.1 34.4zm0-28.3a11.1 11.1 0 1 0 11.1 11.1 11.14 11.14 0 0 0 -11.1-11.1zm50.2 121.9h-.1a17.21 17.21 0 0 1 .1-34.4h.1a17.2 17.2 0 0 1 -.1 34.4zm0-28.4a11.1 11.1 0 1 0 11.1 11.1 11.14 11.14 0 0 0 -11.1-11.1z"/><path d="m281.2 1191.6.4-64.9h6.1l-.4 64.9z"/><path d="m298.3 1208.9v-6.1l22.4.1v6.1z"/><path d="m613.3 1197.8a18.11 18.11 0 1 1 3.4-.4 13.69 13.69 0 0 1 -3.4.4zm0-29.2a16.35 16.35 0 0 0 -2.2.2 11.56 11.56 0 1 0 2.2-.2zm-51.4 39.1a17.57 17.57 0 1 1 3.4-.3 19.53 19.53 0 0 1 -3.4.3zm0-29.2a16.35 16.35 0 0 0 -2.2.2 11.56 11.56 0 1 0 2.2-.2zm41.5-32.1a17.53 17.53 0 1 1 3.4-.3 20.41 20.41 0 0 1 -3.4.3zm0-29.2a16.35 16.35 0 0 0 -2.2.2 11.56 11.56 0 1 0 2.2-.2z"/><path d="m575.6 1184.4 22.7-4.4 1.2 6-22.7 4.4z"/><path d="m603.1 1143.7 6-1.2 4.4 22.7-6 1.2z"/><path d="m850.5 1179.3a17.71 17.71 0 1 1 2.1-.2 13.61 13.61 0 0 1 -2.1.2zm-11-15.9a11.09 11.09 0 1 0 9.6-12.4 11.05 11.05 0 0 0 -9.6 12.4zm17.3 66.2a17.71 17.71 0 1 1 2.1-.2 7.49 7.49 0 0 1 -2.1.2zm-11-15.8a11.09 11.09 0 1 0 9.6-12.4 11.05 11.05 0 0 0 -9.6 12.4zm-45.6-28.2a17.7 17.7 0 1 1 2.2-.2c-.8.1-1.5.1-2.2.2zm0-28.4h-1.4a11.12 11.12 0 1 0 1.4 0z"/><path d="m849.2 1176.5 6-.8 2.8 22.3-6 .8z"/><path d="m813.8 1163.7 22.3-2.8.8 6-22.3 2.8z"/><path d="m793.8 1135.2a17 17 0 1 1 2.2-.1c-.7 0-1.4.1-2.2.1zm0-28.3h-1.4a11.2 11.2 0 0 0 -9.7 12.4 11.18 11.18 0 0 0 12.4 9.7 11.08 11.08 0 0 0 9.4-12.6 10.88 10.88 0 0 0 -10.7-9.5zm92.5 16.7a16.87 16.87 0 1 1 2.2-.1 15.48 15.48 0 0 1 -2.2.1zm0-28.3h-1.4a11.13 11.13 0 0 0 2.7 22.1 11.08 11.08 0 0 0 9.4-12.6 10.89 10.89 0 0 0 -10.7-9.5zm-86.1 90.3a17.7 17.7 0 1 1 2.2-.2c-.8.1-1.5.1-2.2.2zm0-28.4h-1.4a11.13 11.13 0 0 0 2.7 22.1 11.08 11.08 0 0 0 9.4-12.6 11 11 0 0 0 -10.7-9.5z"/><path d="m807.5 1113.3 64.4-8.1.8 6-64.4 8.1z"/><path d="m792.5 1132.5 6-.8 2.8 22.3-6 .8z"/><path d="m1111.4 1151.7a17.51 17.51 0 1 1 4.2-.5 19.31 19.31 0 0 1 -4.2.5zm0-29.2a11.6 11.6 0 1 0 11.6 11.6 9.67 9.67 0 0 0 -.4-2.9 11.74 11.74 0 0 0 -11.2-8.7zm13.1 79.9a17.78 17.78 0 1 1 4.4-.6 17.23 17.23 0 0 1 -4.4.6zm0-29.3a9.25 9.25 0 0 0 -2.9.4 11.44 11.44 0 1 0 14 8.1 11.55 11.55 0 0 0 -11.1-8.5zm-63.8-8.3a17.46 17.46 0 1 1 4.4-.5 21.18 21.18 0 0 1 -4.4.5zm-11.2-14.8a11.57 11.57 0 1 0 8.3-14.1 11.71 11.71 0 0 0 -8.3 14.1z"/><path d="m1112.2 1148.8 5.9-1.5 5.8 22.4-5.9 1.5z"/><path d="m1074.1 1140.6 22.4-5.8 1.5 5.9-22.4 5.8z"/><path d="m361.3 1455.7a17.65 17.65 0 1 1 17.6-17.6 17.65 17.65 0 0 1 -17.6 17.6zm0-29.2a11.55 11.55 0 1 0 11.5 11.5 11.59 11.59 0 0 0 -11.5-11.5zm0-23.1a17.65 17.65 0 1 1 17.6-17.6 17.65 17.65 0 0 1 -17.6 17.6zm0-29.2a11.55 11.55 0 1 0 11.5 11.5 11.38 11.38 0 0 0 -11.5-11.5zm-52.4 81.4a17.65 17.65 0 1 1 17.6-17.6 17.65 17.65 0 0 1 -17.6 17.6zm0-29.2a11.55 11.55 0 1 0 11.5 11.5 11.52 11.52 0 0 0 -11.5-11.5z"/><path d="m358.3 1423.5v-23.1h6.1v23.1z"/><path d="m323.5 1441v-6.1h23.1v6.1z"/><path d="m586.6 1435.6a16.84 16.84 0 1 1 .8 0zm-.5-28.3a11.11 11.11 0 1 0 11.6 10.6 11.15 11.15 0 0 0 -11.6-10.6zm-50.2 30.7a16.84 16.84 0 1 1 .8 0zm-.5-28.3a11.59 11.59 0 1 0 .1 0zm48.8-24.7a16.84 16.84 0 1 1 .8 0zm-.5-28.4a11.15 11.15 0 0 0 -10.6 11.6 10.79 10.79 0 0 0 3.6 7.7 11.18 11.18 0 0 0 15.7-.7 11.32 11.32 0 0 0 2.9-8 11.15 11.15 0 0 0 -11.6-10.6z"/><path d="m550 1417.1 22.4-1.1.3 6.1-22.4 1.1z"/><path d="m581.9 1382 6.1-.3 1.1 22.4-6.1.3z"/><path d="m634.9 1382.5a16.79 16.79 0 1 1 .9 0zm-11.1-16.7a11.59 11.59 0 1 0 0-.1zm15.5 109.9a16.79 16.79 0 1 1 .9 0zm-11.1-16.7a11.11 11.11 0 1 0 10.6-11.6 11.15 11.15 0 0 0 -10.6 11.6zm-44-74a16.84 16.84 0 1 1 .8 0zm0-28.4h-.5a11.11 11.11 0 1 0 11.7 10.5 11.33 11.33 0 0 0 -11.2-10.5z"/><path d="m632.5 1379.7 6.1-.3 3.1 64.8-6.1.3z"/><path d="m598.3 1363.9 22.4-1.1.3 6.1-22.4 1.1z"/><path d="m815.5 1414a18 18 0 1 1 6-1.2 17.33 17.33 0 0 1 -6 1.2zm0-29.2a11.55 11.55 0 1 0 11.6 11.5 10.88 10.88 0 0 0 -.7-4 11.46 11.46 0 0 0 -10.9-7.5zm18.1 78.3a17.69 17.69 0 1 1 6-1.1 17.25 17.25 0 0 1 -6 1.1zm0-29.2a11.6 11.6 0 1 0 11.6 11.6 10.88 10.88 0 0 0 -.7-4 11.65 11.65 0 0 0 -10.9-7.6zm31.1-37.9a17.69 17.69 0 1 1 6-1.1 23.59 23.59 0 0 1 -6 1.1zm0-29.2a11.55 11.55 0 1 0 11.5 11.6 10.88 10.88 0 0 0 -.7-4 11.43 11.43 0 0 0 -10.8-7.6z"/><path d="m817.7 1411 5.7-2.1 7.9 21.7-5.7 2.1z"/><path d="m828.2 1388.5 21.7-7.9 2.1 5.7-21.7 7.9z"/><path d="m1078.6 1446.2a17.14 17.14 0 0 1 -17.1-17.3 16.79 16.79 0 0 1 4.5-11.5 17.2 17.2 0 0 1 25.4 23.2 17 17 0 0 1 -11.9 5.6zm0-28.4h-.6a10.79 10.79 0 0 0 -7.7 3.6 11.14 11.14 0 1 0 8.3-3.6zm-34.1 65.9a17.25 17.25 0 1 1 12.8-5.7 17.2 17.2 0 0 1 -12.8 5.7zm-8.3-24.7a11.12 11.12 0 1 0 15.8-.8 11.3 11.3 0 0 0 -15.8.8zm4.8-47a17.2 17.2 0 0 1 -12.7-28.8 17 17 0 0 1 11.9-5.6 17.21 17.21 0 1 1 .8 34.4zm-8.2-24.7a11.64 11.64 0 1 0 .2-.2c-.1.2-.1.2-.2.2z"/><path d="m1051.7 1453.8 15.1-16.6 4.5 4.1-15.1 16.6z"/><path d="m1049.5 1406.6 4.1-4.5 16.6 15.1-4.1 4.5z"/><path d="m1075.2 1374.5a17.25 17.25 0 1 1 12.7-5.7 17.22 17.22 0 0 1 -12.7 5.7zm-7.5-9a11.12 11.12 0 1 0 -.8-15.7 11.09 11.09 0 0 0 .8 15.7zm76.5 71.7a17.25 17.25 0 1 1 12.7-5.7 17.22 17.22 0 0 1 -12.7 5.7zm-7.5-9a11.12 11.12 0 1 0 -.8-15.8 11.21 11.21 0 0 0 .8 15.8zm-95.7-16.2a17.15 17.15 0 1 1 12.7-5.6 16.54 16.54 0 0 1 -12.7 5.6zm0-28.3a11.1 11.1 0 1 0 7.5 2.9 10.85 10.85 0 0 0 -7.5-2.9z"/><path d="m1083.6 1369 4.1-4.5 48 43.7-4.1 4.5z"/><path d="m1048.3 1382.1 15.1-16.6 4.5 4.1-15.1 16.6z"/><path d="m346.6 1673.9a17.29 17.29 0 1 1 7.7-1.9 18.23 18.23 0 0 1 -7.7 1.9zm0-28.4a10.84 10.84 0 0 0 -5 1.2 11.12 11.12 0 1 0 5-1.2zm45.3 5.4a17.29 17.29 0 1 1 7.8-1.9 17.6 17.6 0 0 1 -7.8 1.9zm0-28.4a10.84 10.84 0 0 0 -5 1.2 11.16 11.16 0 1 0 15 4.9 11.32 11.32 0 0 0 -10-6.1zm-68.2 6a17.28 17.28 0 1 1 7.8-1.9 16.35 16.35 0 0 1 -7.8 1.9zm0-28.3a10.84 10.84 0 0 0 -5 1.2 11.18 11.18 0 1 0 5-1.2z"/><path d="m357.9 1647.5 20-10.1 2.7 5.4-20 10.1z"/><path d="m327.4 1625.3 5.4-2.7 10.1 20-5.4 2.7z"/><path d="m278.4 1651.4a17.3 17.3 0 1 1 7.6-1.9 15.59 15.59 0 0 1 -7.6 1.9zm0-28.3a11.15 11.15 0 1 0 11.2 11.1 11.13 11.13 0 0 0 -11.2-11.1zm42.1 111.5a17.28 17.28 0 1 1 7.8-1.9 16.35 16.35 0 0 1 -7.8 1.9zm0-28.3a11.15 11.15 0 1 0 11.2 11.1 10.55 10.55 0 0 0 -1.2-5 11.24 11.24 0 0 0 -10-6.1zm3.2-77.8a17.2 17.2 0 1 1 0-34.4 17.16 17.16 0 0 1 7.7 32.5 18.61 18.61 0 0 1 -7.7 1.9zm0-28.3a11.15 11.15 0 1 0 11.2 11.1 10.84 10.84 0 0 0 -1.2-5 11.06 11.06 0 0 0 -10-6.1z"/><path d="m282.2 1648.1 5.4-2.7 29.3 57.9-5.4 2.7z"/><path d="m289.7 1625.1 20-10.1 2.7 5.4-20 10.1z"/><path d="m587.6 1700.5a17.58 17.58 0 1 1 12.4-5.1 17.63 17.63 0 0 1 -12.4 5.1zm0-29.2a11.53 11.53 0 0 0 -8.2 19.7 11.84 11.84 0 0 0 16.4 0 11.65 11.65 0 0 0 0-16.4 11.83 11.83 0 0 0 -8.2-3.3zm37-7.8a17.58 17.58 0 1 1 12.4-5.1 17.22 17.22 0 0 1 -12.4 5.1zm0-29.2a11.61 11.61 0 1 0 8.2 3.4 11.61 11.61 0 0 0 -8.2-3.4zm-74 29.2a17.58 17.58 0 1 1 12.4-5.1 17.22 17.22 0 0 1 -12.4 5.1zm0-29.2a11.44 11.44 0 1 0 8.2 3.3 11.83 11.83 0 0 0 -8.2-3.3z"/><path d="m595.8 1670.4 16.3-16.3 4.3 4.3-16.3 16.3z"/><path d="m558.8 1658.3 4.3-4.3 16.3 16.3-4.3 4.3z"/><path d="m851.6 1689.3a16 16 0 0 1 -7.7-1.9 17 17 0 1 1 7.7 1.9zm-5-7.2a11.15 11.15 0 1 0 -5.5-6.4 10.8 10.8 0 0 0 5.5 6.4zm50.2 30.1a17.2 17.2 0 1 1 17.2-17.2 16 16 0 0 1 -1.9 7.7 16.66 16.66 0 0 1 -15.3 9.5zm0-28.3a11.16 11.16 0 0 0 -5.1 21.1 11.09 11.09 0 0 0 10-19.8 9 9 0 0 0 -4.9-1.3zm-68.2 50.7a16 16 0 0 1 -7.7-1.9 17 17 0 1 1 7.7 1.9zm0-28.3a11.16 11.16 0 0 0 -5.1 21.1 11.09 11.09 0 0 0 10-19.8 9 9 0 0 0 -4.9-1.3z"/><path d="m862.9 1681.3 2.7-5.4 20 10.1-2.7 5.4z"/><path d="m832.3 1703.4 10.1-20 5.4 2.7-10.1 20z"/><path d="m783.4 1711.7a17.2 17.2 0 1 1 17.2-17.2 16 16 0 0 1 -1.9 7.7 16.94 16.94 0 0 1 -15.3 9.5zm0-28.3a11.18 11.18 0 1 0 4.9 1.2 10.44 10.44 0 0 0 -4.9-1.2zm42-54.9a17.31 17.31 0 1 1 5.4-.9 13.94 13.94 0 0 1 -5.4.9zm0-28.3a11.13 11.13 0 1 0 5 1.2 10.55 10.55 0 0 0 -5-1.2zm3.2 134.4a17.31 17.31 0 1 1 5.4-.9 16.11 16.11 0 0 1 -5.4.9zm0-28.3a11.18 11.18 0 1 0 4.9 1.2 10.16 10.16 0 0 0 -4.9-1.2z"/><path d="m787.1 1680.5 29.3-57.9 5.4 2.7-29.3 57.9z"/><path d="m794.7 1703.7 2.7-5.4 20 10.1-2.7 5.4z"/><path d="m1066.5 1706.9h-.9a17.62 17.62 0 1 1 18.4-16.7 17.5 17.5 0 0 1 -17.5 16.7zm0-29.2a11.6 11.6 0 1 0 .6 0zm2.6-23.1h-.9a18.1 18.1 0 1 1 .9 0zm0-29.2a11.56 11.56 0 0 0 -.5 23.1 11.8 11.8 0 0 0 12.1-11 11.6 11.6 0 0 0 -11-12.1zm49.7 84h-.9a18.1 18.1 0 1 1 .9 0zm0-29.2a11.6 11.6 0 1 0 0 23.2 11.61 11.61 0 0 0 .5-23.2z"/><path d="m1064.1 1674.4 1.1-23.1 6.1.3-1.1 23.1z"/><path d="m1081 1693 .3-6.1 23.1 1.1-.3 6.1z"/><path d="m190.5 1791.5 4.3-4.3 21.2 21.2-4.3 4.3z"/><path d="m201.1 1780.8 4.3-4.3 21.2 21.2-4.3 4.3z"/><path d="m707.3 1780.6 4.3-4.3 21.2 21.2-4.3 4.3z"/><path d="m696.7 1791.3 4.3-4.3 21.2 21.2-4.3 4.3z"/><path d="m463.8 1808.3a13.8 13.8 0 1 1 9.8-4 15.06 15.06 0 0 1 -9.8 4zm0-21.6a7.76 7.76 0 1 0 -.7 15.5h.8a7.79 7.79 0 0 0 7.4-8.1 8.13 8.13 0 0 0 -7.5-7.4zm502.8 22.5a13.8 13.8 0 1 1 9.8-4 14.19 14.19 0 0 1 -9.8 4zm0-21.6a7.76 7.76 0 1 0 -.7 15.5h.8a7.79 7.79 0 0 0 7.4-8.1 8 8 0 0 0 -7.5-7.4z"/><path d="m1205 1791.5 4.3-4.3 21.2 21.2-4.3 4.3z"/><path d="m1215.7 1780.8 4.3-4.3 21.2 21.2-4.3 4.3z"/><path d="m1721.8 1780.6 4.3-4.3 21.2 21.2-4.3 4.3z"/><path d="m1711.1 1791.3 4.3-4.3 21.2 21.2-4.3 4.3z"/><path d="m1478.2 1808.3a13.8 13.8 0 1 1 9.8-4 14.65 14.65 0 0 1 -9.8 4zm0-21.6a7.76 7.76 0 1 0 -.7 15.5h.8a7.79 7.79 0 0 0 7.4-8.1 8 8 0 0 0 -7.5-7.4zm502.8 22.5a13.8 13.8 0 1 1 9.8-4 14.19 14.19 0 0 1 -9.8 4zm0-21.6a7.76 7.76 0 1 0 -.7 15.5h.8a7.76 7.76 0 0 0 .7-15.5z"/><path d="m2219.5 1791.6 4.3-4.3 21.2 21.2-4.3 4.3z"/><path d="m2230.2 1780.9 4.3-4.3 21.2 21.2-4.3 4.3z"/><path d="m2736.2 1780.6 4.3-4.3 21.2 21.2-4.3 4.3z"/><path d="m2725.6 1791.3 4.3-4.3 21.2 21.2-4.3 4.3z"/><path d="m2492.7 1808.3a13.8 13.8 0 1 1 9.8-4 14.85 14.85 0 0 1 -9.8 4zm0-21.6a7.76 7.76 0 1 0 -.7 15.5h.8a7.76 7.76 0 0 0 .7-15.5zm502.9 22.5a13.8 13.8 0 1 1 9.8-4 14.38 14.38 0 0 1 -9.8 4zm0-21.6a7.76 7.76 0 1 0 -.7 15.5h.8a7.79 7.79 0 0 0 7.4-8.1 8.05 8.05 0 0 0 -7.5-7.4z"/><path d="m1458 525.9 21.2-21.2 4.3 4.3-21.2 21.2z"/><path d="m1468.8 536.8 21.2-21.2 4.3 4.3-21.2 21.2z"/><path d="m1205.1 268.9 4.3-4.3 21.2 21.2-4.3 4.3z"/><path d="m1215.7 258.2 4.3-4.3 21.2 21.2-4.3 4.3z"/><path d="m1721.8 258.1 4.3-4.3 21.2 21.2-4.3 4.3z"/><path d="m1711.1 268.8 4.3-4.3 21.2 21.2-4.3 4.3z"/><path d="m1213.3 8.5a13.86 13.86 0 1 0 19.6 0 13.88 13.88 0 0 0 -19.6 0zm17.6 9.8a7.75 7.75 0 1 1 -7.7-7.8 7.68 7.68 0 0 1 7.7 7.8z"/><path d="m1458.2 21.5 21.2-21.2 4.3 4.3-21.2 21.2z"/><path d="m1468.8 32.1 21.2-21.2 4.3 4.3-21.2 21.2z"/><path d="m1742.9 18.2c0-.5-.1-1-.1-1.5a3.18 3.18 0 0 0 -.3-.9 10.93 10.93 0 0 0 -.5-1.7 4.05 4.05 0 0 0 -.5-.9 10.93 10.93 0 0 0 -.8-1.5c-.2-.3-.5-.6-.8-1a10.59 10.59 0 0 0 -1-1.2 9.38 9.38 0 0 0 -1.2-.9 3.92 3.92 0 0 0 -1-.8 9.14 9.14 0 0 0 -1.4-.7 3.13 3.13 0 0 0 -1-.5 8.33 8.33 0 0 0 -1.5-.4 3.81 3.81 0 0 1 -1-.3 6.6 6.6 0 0 0 -1.4-.1c-.4 0-.8-.1-1.2-.1a4.87 4.87 0 0 0 -1.2.1c-.5 0-1 .1-1.4.1a2.93 2.93 0 0 0 -1 .3c-.5.1-1 .3-1.5.4a4.67 4.67 0 0 0 -1 .5c-.5.2-1 .5-1.4.7a3.92 3.92 0 0 0 -1 .8 10.63 10.63 0 0 0 -1.1.9 10.59 10.59 0 0 0 -1 1.2 3.92 3.92 0 0 0 -.8 1 10.93 10.93 0 0 0 -.8 1.5 4.05 4.05 0 0 1 -.5.9 10.93 10.93 0 0 0 -.5 1.7 3.18 3.18 0 0 1 -.3.9 7.57 7.57 0 0 0 -.1 1.5c0 .4-.1.7-.1 1.1a4.1 4.1 0 0 0 .1 1.1c0 .5.1 1 .1 1.5a1.42 1.42 0 0 0 .2.6 6.64 6.64 0 0 0 .6 2 13.73 13.73 0 0 0 12.8 8.5 14 14 0 0 0 12.8-8.5c.2-.7.4-1.3.6-2a1.42 1.42 0 0 1 .2-.6 7.57 7.57 0 0 0 .1-1.5c0-.4.1-.7.1-1.1s-.2-.7-.2-1.1zm-6 2.6c-.1.4-.2.8-.3 1.1v.3a5.94 5.94 0 0 1 -.4.8.85.85 0 0 1 -.3.5 2.65 2.65 0 0 1 -.5.6c-.2.2-.3.4-.5.6a7.85 7.85 0 0 1 -11 0c-.2-.2-.3-.4-.5-.6s-.3-.4-.5-.6-.2-.3-.3-.5a5.9 5.9 0 0 1 -.4-.8v-.3l-.6-1.2a8 8 0 0 1 .4-4.3 10.91 10.91 0 0 1 .6-1.1l.1-.2a10.59 10.59 0 0 1 1-1.2c.2-.2.4-.3.5-.5a1.79 1.79 0 0 1 .7-.5l.3-.2a7.61 7.61 0 0 1 8.2.2c.2.1.3.3.5.4s.5.4.8.6a10.59 10.59 0 0 1 1 1.2l.1.2c.2.4.4.7.6 1.1a7.87 7.87 0 0 1 .4 4.3z"/><path d="m1962 21.2 21.2-21.2 4.3 4.3-21.2 21.2z"/><path d="m1972.6 31.9 21.2-21.2 4.3 4.3-21.2 21.2z"/><path d="m1962.1 525.9 21.2-21.2 4.3 4.3-21.2 21.2z"/><path d="m1972.9 536.8 21.2-21.2 4.3 4.3-21.2 21.2z"/><path d="m1478.2 284.8a13.8 13.8 0 1 1 9.8-4 14.19 14.19 0 0 1 -9.8 4zm0-21.6a7.76 7.76 0 1 0 -.7 15.5h.8a7.79 7.79 0 0 0 7.4-8.1 8 8 0 0 0 -7.5-7.4zm502.8 21.6a13.8 13.8 0 1 1 9.8-4 14.19 14.19 0 0 1 -9.8 4zm0-21.6a7.76 7.76 0 1 0 -.7 15.5h.8a7.76 7.76 0 0 0 .7-15.5zm-251.8 273.5a13.8 13.8 0 1 1 9.8-4 14.85 14.85 0 0 1 -9.8 4zm0-21.6a7.76 7.76 0 1 0 -.7 15.5h.8a7.79 7.79 0 0 0 7.4-8.1 8.05 8.05 0 0 0 -7.5-7.4zm-506.1 21.2a13.8 13.8 0 1 1 9.8-4 14.65 14.65 0 0 1 -9.8 4zm0-21.6a7.76 7.76 0 1 0 -.7 15.5h.8a7.79 7.79 0 0 0 7.4-8.1 8 8 0 0 0 -7.5-7.4zm126.7-356.7h-.1a17.25 17.25 0 0 1 .1-34.5h.1a17.25 17.25 0 0 1 -.1 34.5zm0-28.3a11.1 11.1 0 1 0 11.1 11.1 11.14 11.14 0 0 0 -11.1-11.1zm50.7 28.6h-.1a17.28 17.28 0 0 1 -17.2-17.3 16.93 16.93 0 0 1 5.1-12.2 17.08 17.08 0 1 1 12.2 29.5zm0-6a7.85 7.85 0 1 1 .1-.1h-.1zm-51 56.5h-.1a17.21 17.21 0 1 1 16.7-16.6 17.27 17.27 0 0 1 -16.7 16.6zm0-6.1a11.1 11.1 0 1 0 -11.1-11.1 11.14 11.14 0 0 0 11.1 11.1z"/><path d="m1363.8 143.9v-6.1l22.4.1v6.1z"/><path d="m1346.4 177.4.1-22.4h6.1l-.1 22.4z"/><path d="m1298.7 208.4h-.1a17.25 17.25 0 1 1 .1 0zm0-28.3a11.1 11.1 0 1 0 11.1 11.1 11.14 11.14 0 0 0 -11.1-11.1zm.6-64.9a17.2 17.2 0 0 1 0-34.4h.1a17.2 17.2 0 0 1 -.1 34.4zm0-28.3a11.2 11.2 0 1 0 11.1 11.3 11.18 11.18 0 0 0 -11.1-11.3zm50.2 121.9h-.1a17.15 17.15 0 1 1 .1 0zm0-28.4a11.1 11.1 0 1 0 11.1 11.1 11 11 0 0 0 -11.1-11.1z"/><path d="m1295.7 177 .4-64.9h6.1l-.4 64.9z"/><path d="m1312.7 194.3v-6.1l22.4.1v6.1z"/><path d="m1627.7 183.1a18.11 18.11 0 1 1 3.4-.4 12.67 12.67 0 0 1 -3.4.4zm0-29.2a16.35 16.35 0 0 0 -2.2.2 11.56 11.56 0 1 0 2.2-.2zm-51.3 39.2a17.57 17.57 0 1 1 3.4-.3 19.53 19.53 0 0 1 -3.4.3zm0-29.2a16.35 16.35 0 0 0 -2.2.2 11.56 11.56 0 1 0 2.2-.2zm41.5-32.1a17.53 17.53 0 1 1 3.4-.3 20.41 20.41 0 0 1 -3.4.3zm0-29.2a16.35 16.35 0 0 0 -2.2.2 11.56 11.56 0 1 0 2.2-.2z"/><path d="m1590.2 169.9 22.7-4.4 1.2 6-22.7 4.4z"/><path d="m1617.7 129.2 6-1.2 4.4 22.7-6 1.2z"/><path d="m1865 164.6a17.71 17.71 0 1 1 2.1-.2 7.49 7.49 0 0 1 -2.1.2zm-11.1-15.8a11.09 11.09 0 1 0 9.6-12.4 11.05 11.05 0 0 0 -9.6 12.4zm17.4 66.2a17.71 17.71 0 1 1 2.1-.2 14.92 14.92 0 0 1 -2.1.2zm-11-15.9a11.09 11.09 0 1 0 9.6-12.4 11.05 11.05 0 0 0 -9.6 12.4zm-45.7-28.2a17.7 17.7 0 1 1 2.2-.2 7.84 7.84 0 0 1 -2.2.2zm0-28.3h-1.4a11.12 11.12 0 1 0 11.8 10.4 11 11 0 0 0 -10.4-10.4z"/><path d="m1863.7 162 6-.8 2.8 22.3-6 .8z"/><path d="m1828.3 149.2 22.3-2.8.8 6-22.3 2.8z"/><path d="m1808.3 120.6a17 17 0 1 1 2.2-.1c-.8 0-1.5.1-2.2.1zm0-28.4h-1.4a11.2 11.2 0 0 0 -9.7 12.4 11.18 11.18 0 0 0 12.4 9.7 11.11 11.11 0 0 0 -1.3-22.1zm92.5 16.8a16.87 16.87 0 1 1 2.2-.1c-.7 0-1.5.1-2.2.1zm0-28.3h-1.4a11.13 11.13 0 0 0 2.7 22.1 11.08 11.08 0 0 0 9.4-12.6 11 11 0 0 0 -10.7-9.5zm-86.2 90.2a17.7 17.7 0 1 1 2.2-.2 8.2 8.2 0 0 1 -2.2.2zm0-28.3h-1.4a11.13 11.13 0 0 0 2.7 22.1 11.08 11.08 0 0 0 9.4-12.6 10.89 10.89 0 0 0 -10.7-9.5z"/><path d="m1822 98.8 64.4-8.1.8 6-64.4 8.1z"/><path d="m1807.1 118 6-.8 2.8 22.3-6 .8z"/><path d="m2125.8 137.1a17.51 17.51 0 1 1 4.2-.5 18.59 18.59 0 0 1 -4.2.5zm0-29.2a11.6 11.6 0 1 0 11.6 11.6 9.67 9.67 0 0 0 -.4-2.9 11.45 11.45 0 0 0 -11.2-8.7zm13.1 79.8a17.78 17.78 0 1 1 4.4-.6 13 13 0 0 1 -4.4.6zm0-29.2a9.25 9.25 0 0 0 -2.9.4 11.38 11.38 0 1 0 2.9-.4zm-63.7-8.4a17.46 17.46 0 1 1 4.4-.5 21.18 21.18 0 0 1 -4.4.5zm-11.2-14.8a11.57 11.57 0 1 0 8.3-14.1 11.55 11.55 0 0 0 -8.3 14.1z"/><path d="m2126.5 134.1 5.9-1.5 5.8 22.4-5.9 1.5z"/><path d="m2088.6 126 22.4-5.8 1.5 5.9-22.4 5.8z"/><path d="m1375.7 441a17.6 17.6 0 1 1 17.6-17.6 17.63 17.63 0 0 1 -17.6 17.6zm0-29.2a11.55 11.55 0 1 0 -.1 23.1h.1a11.55 11.55 0 1 0 0-23.1zm.1-23.1a17.6 17.6 0 1 1 17.6-17.6 17.63 17.63 0 0 1 -17.6 17.6zm0-29.2a11.55 11.55 0 1 0 11.5 11.5 11.44 11.44 0 0 0 -11.5-11.5zm-52.4 81.5a17.6 17.6 0 1 1 17.6-17.6 17.63 17.63 0 0 1 -17.6 17.6zm0-29.2a11.55 11.55 0 1 0 -.1 23.1h.1a11.55 11.55 0 1 0 0-23.1z"/><path d="m1370.2 408.2v-23.1h6.1v23.1z"/><path d="m1338 426.4v-6.1h23.1v6.1z"/><path d="m1601.1 420.9a16.84 16.84 0 1 1 .8 0zm-.5-28.3a11.11 11.11 0 1 0 11.6 10.6 11.15 11.15 0 0 0 -11.6-10.6zm-50.2 30.8a16.84 16.84 0 1 1 .8 0zm-.5-28.3a11.59 11.59 0 1 0 .1 0zm48.8-24.8a16.84 16.84 0 1 1 .8 0zm-.6-28.3a11.15 11.15 0 0 0 -10.6 11.6 10.79 10.79 0 0 0 3.6 7.7 11.18 11.18 0 0 0 15.7-.7 11.32 11.32 0 0 0 2.9-8 11 11 0 0 0 -11.6-10.6z"/><path d="m1564.4 402.4 22.4-1.1.3 6.1-22.4 1.1z"/><path d="m1596.3 367.4 6.1-.3 1.1 22.4-6.1.3z"/><path d="m1649.3 367.9a16.79 16.79 0 1 1 .9 0zm-11.1-16.7a11.59 11.59 0 1 0 0-.1zm15.6 109.8a16.79 16.79 0 1 1 .9 0zm-11.1-16.7a11.11 11.11 0 1 0 10.6-11.6 11.15 11.15 0 0 0 -10.6 11.6zm-44-74a16.84 16.84 0 1 1 .8 0zm0-28.3h-.5a11.49 11.49 0 1 0 .5 0z"/><path d="m1647 365 6.1-.3 3.1 64.8-6.1.3z"/><path d="m1612.7 349.2 22.4-1.1.3 6.1-22.4 1.1z"/><path d="m1830 399.4a18 18 0 1 1 6-1.2 17.33 17.33 0 0 1 -6 1.2zm0-29.3a11.55 11.55 0 1 0 11.6 11.5 10.88 10.88 0 0 0 -.7-4 11.75 11.75 0 0 0 -10.9-7.5zm18 78.4a17.69 17.69 0 1 1 6-1.1 16.83 16.83 0 0 1 -6 1.1zm0-29.3a11.6 11.6 0 1 0 11.6 11.6 10.88 10.88 0 0 0 -.7-4 11.84 11.84 0 0 0 -10.9-7.6zm31.2-37.9a17.45 17.45 0 1 1 6.1-1 18.56 18.56 0 0 1 -6.1 1zm0-29.2a11.55 11.55 0 1 0 11.5 11.6 10.88 10.88 0 0 0 -.7-4 11.66 11.66 0 0 0 -10.8-7.6z"/><path d="m1832.2 396.4 5.7-2.1 7.9 21.7-5.7 2.1z"/><path d="m1842.7 373.9 21.7-7.9 2.1 5.7-21.7 7.9z"/><path d="m2093 431.5a17.2 17.2 0 1 1 12.7-5.6 17 17 0 0 1 -11.9 5.6zm0-28.3h-.5a10.79 10.79 0 0 0 -7.7 3.6 11.11 11.11 0 1 0 15.7-.7 10.85 10.85 0 0 0 -7.5-2.9zm-34.1 65.9a17.25 17.25 0 1 1 12.8-5.7 17.2 17.2 0 0 1 -12.8 5.7zm-8.2-24.7a11.12 11.12 0 1 0 15.8-.8 11.21 11.21 0 0 0 -15.8.8zm4.7-47a17.2 17.2 0 0 1 -12.7-28.8 17 17 0 0 1 11.9-5.6 17.27 17.27 0 0 1 13.6 28.8 17.63 17.63 0 0 1 -12.8 5.6zm-8.1-24.8a11.64 11.64 0 1 0 .2-.2c-.1.2-.2.2-.2.2z"/><path d="m2066.1 439.2 15.1-16.6 4.5 4.1-15.1 16.6z"/><path d="m2063.9 392 4.1-4.5 16.6 15.1-4.1 4.5z"/><path d="m2089.6 359.8a17.25 17.25 0 1 1 12.7-5.7 16.63 16.63 0 0 1 -12.7 5.7zm-7.5-8.9a11.12 11.12 0 1 0 -.8-15.7 11.28 11.28 0 0 0 .8 15.7zm76.5 71.6a17.25 17.25 0 1 1 12.7-5.7 16.63 16.63 0 0 1 -12.7 5.7zm-7.5-8.9a11.12 11.12 0 1 0 -.8-15.8 11.4 11.4 0 0 0 .8 15.8zm-95.7-16.2a17.2 17.2 0 1 1 12.6-5.6 16.86 16.86 0 0 1 -12.6 5.6zm0-28.3a11.1 11.1 0 1 0 7.5 2.9 10.85 10.85 0 0 0 -7.5-2.9z"/><path d="m2098 354.3 4.1-4.5 48 43.7-4.1 4.5z"/><path d="m2062.7 367.5 15.1-16.6 4.5 4.1-15.1 16.6z"/><path d="m1361.1 659.2a17.29 17.29 0 1 1 7.7-1.9 17.2 17.2 0 0 1 -7.7 1.9zm0-28.4a10.84 10.84 0 0 0 -5 1.2 11.07 11.07 0 1 0 14.9 4.8 11.38 11.38 0 0 0 -9.9-6zm45.3 5.5a17.26 17.26 0 0 1 -17.3-17.1 17.22 17.22 0 1 1 25 15.3 19.26 19.26 0 0 1 -7.7 1.8zm0-28.4a10.84 10.84 0 0 0 -5 1.2 11.16 11.16 0 1 0 15 4.9 11.43 11.43 0 0 0 -10-6.1zm-68.2 6.1a17.28 17.28 0 1 1 7.8-1.9 17.93 17.93 0 0 1 -7.8 1.9zm0-28.4a10.84 10.84 0 0 0 -5 1.2 11.16 11.16 0 1 0 15 4.9 11.43 11.43 0 0 0 -10-6.1z"/><path d="m1372.3 632.8 20-10.1 2.7 5.4-20 10.1z"/><path d="m1341.8 610.7 5.4-2.7 10.1 20-5.4 2.7z"/><path d="m1292.9 636.8a17.29 17.29 0 1 1 7.8-1.9 16.64 16.64 0 0 1 -7.8 1.9zm0-28.3a11.15 11.15 0 1 0 11.2 11.1 10.84 10.84 0 0 0 -1.2-5 11.06 11.06 0 0 0 -10-6.1zm42.1 111.5a17.28 17.28 0 1 1 7.8-1.9 17.93 17.93 0 0 1 -7.8 1.9zm0-28.3a11.15 11.15 0 1 0 11.2 11.1 10.55 10.55 0 0 0 -1.2-5 11 11 0 0 0 -10-6.1zm3.2-77.7a17.26 17.26 0 1 1 7.9-1.9 18.36 18.36 0 0 1 -7.9 1.9zm0-28.4a11.15 11.15 0 1 0 11.2 11.1 10.84 10.84 0 0 0 -1.2-5 11.06 11.06 0 0 0 -10-6.1z"/><path d="m1296.5 633.5 5.4-2.7 29.3 57.9-5.4 2.7z"/><path d="m1304.1 610.5 20-10.1 2.7 5.4-20 10.1z"/><path d="m1602.1 685.9a17.58 17.58 0 1 1 12.4-5.1 17.63 17.63 0 0 1 -12.4 5.1zm0-29.2a11.53 11.53 0 0 0 -8.2 19.7 11.84 11.84 0 0 0 16.4 0 11.65 11.65 0 0 0 0-16.4 12 12 0 0 0 -8.2-3.3zm37-7.8a17.58 17.58 0 1 1 12.4-5.1 17.63 17.63 0 0 1 -12.4 5.1zm0-29.2a11.61 11.61 0 1 0 8.2 3.4 11.33 11.33 0 0 0 -8.2-3.4zm-74 29.2a17.58 17.58 0 1 1 12.4-5.1 17.63 17.63 0 0 1 -12.4 5.1zm0-29.2a11.44 11.44 0 1 0 8.2 3.3 11.83 11.83 0 0 0 -8.2-3.3z"/><path d="m1610.3 655.8 16.3-16.3 4.3 4.3-16.3 16.3z"/><path d="m1573.3 643.7 4.3-4.3 16.3 16.3-4.3 4.3z"/><path d="m1866 674.7a16 16 0 0 1 -7.7-1.9 17 17 0 1 1 7.7 1.9zm-5-7.3a11.15 11.15 0 1 0 -5.5-6.4 11 11 0 0 0 5.5 6.4zm50.3 30.2a17.2 17.2 0 1 1 17.2-17.2 16 16 0 0 1 -1.9 7.7 16.66 16.66 0 0 1 -15.3 9.5zm0-28.3a11.16 11.16 0 0 0 -5.1 21.1 11.09 11.09 0 1 0 10-19.8 9.47 9.47 0 0 0 -4.9-1.3zm-68.2 50.7a16 16 0 0 1 -7.7-1.9 17.08 17.08 0 1 1 23-7.4 17.35 17.35 0 0 1 -15.3 9.3zm0-28.3a11.16 11.16 0 0 0 -5.1 21.1 11.09 11.09 0 0 0 10-19.8 9.47 9.47 0 0 0 -4.9-1.3z"/><path d="m1877.4 666.7 2.7-5.4 20 10.1-2.7 5.4z"/><path d="m1846.9 688.8 10.1-20 5.4 2.7-10.1 20z"/><path d="m1797.8 697.1a17.2 17.2 0 1 1 17.2-17.2 16 16 0 0 1 -1.9 7.7 17 17 0 0 1 -15.3 9.5zm0-28.3a11.22 11.22 0 0 0 -11.2 11.1 11.1 11.1 0 0 0 11.1 11.2 11.14 11.14 0 0 0 5-21.1 10.44 10.44 0 0 0 -4.9-1.2zm42.1-54.8a17.31 17.31 0 1 1 5.4-.9 16.54 16.54 0 0 1 -5.4.9zm0-28.4a11.13 11.13 0 1 0 5 1.2 10.55 10.55 0 0 0 -5-1.2zm3.2 134.4a17.31 17.31 0 1 1 5.4-.9 17 17 0 0 1 -5.4.9zm0-28.3a11.18 11.18 0 1 0 4.9 1.2 10.44 10.44 0 0 0 -4.9-1.2z"/><path d="m1801.6 665.9 29.3-57.9 5.4 2.7-29.3 57.9z"/><path d="m1809.2 689 2.7-5.4 20 10.1-2.7 5.4z"/><path d="m2081 692.2h-.9a17.62 17.62 0 1 1 18.4-16.7 17.43 17.43 0 0 1 -17.5 16.7zm0-29.2a11.6 11.6 0 1 0 .6 0zm2.6-23h-.9a18.1 18.1 0 1 1 .9 0zm0-29.2a11.56 11.56 0 0 0 -.5 23.1 11.8 11.8 0 0 0 12.1-11 11.6 11.6 0 0 0 -11-12.1zm49.6 84h-.9a18.1 18.1 0 1 1 .9 0zm0-29.2a11.6 11.6 0 1 0 0 23.2 11.61 11.61 0 0 0 .5-23.2z"/><path d="m2078.5 659.8 1.1-23.1 6.1.3-1.1 23.1z"/><path d="m2095.5 678.4.3-6.1 23.1 1.1-.3 6.1z"/><path d="m1458.1 1540.5 21.2-21.2 4.3 4.3-21.2 21.2z"/><path d="m1468.8 1551.4 21.2-21.2 4.3 4.3-21.2 21.2z"/><path d="m1205 1283.6 4.3-4.3 21.2 21.2-4.3 4.3z"/><path d="m1215.7 1272.9 4.3-4.3 21.2 21.2-4.3 4.3z"/><path d="m1721.8 1272.7 4.3-4.3 21.2 21.2-4.3 4.3z"/><path d="m1711.1 1283.4 4.3-4.3 21.2 21.2-4.3 4.3z"/><path d="m1205 776.8 4.3-4.3 21.2 21.2-4.3 4.3z"/><path d="m1215.7 766.2 4.3-4.3 21.2 21.2-4.3 4.3z"/><path d="m1213.3 1023.1a13.86 13.86 0 1 0 19.6 0 13.88 13.88 0 0 0 -19.6 0zm17.5 9.8a7.75 7.75 0 1 1 -7.7-7.8 7.81 7.81 0 0 1 5.5 2.3 7.39 7.39 0 0 1 2.2 5.5z"/><path d="m1458.1 1036.2 21.2-21.2 4.3 4.3-21.2 21.2z"/><path d="m1468.8 1046.8 21.2-21.2 4.3 4.3-21.2 21.2z"/><path d="m1721.8 766 4.3-4.3 21.2 21.2-4.3 4.3z"/><path d="m1711.1 776.7 4.3-4.3 21.2 21.2-4.3 4.3z"/><path d="m1742.9 1032.8c0-.5-.1-1-.1-1.5a3.18 3.18 0 0 0 -.3-.9 10.93 10.93 0 0 0 -.5-1.7 4.05 4.05 0 0 0 -.5-.9 10.93 10.93 0 0 0 -.8-1.5c-.2-.3-.5-.6-.8-1a10.59 10.59 0 0 0 -1-1.2 9.38 9.38 0 0 0 -1.2-.9 3.92 3.92 0 0 0 -1-.8 9.14 9.14 0 0 0 -1.4-.7 3.13 3.13 0 0 0 -1-.5 8.33 8.33 0 0 0 -1.5-.4 3.81 3.81 0 0 1 -1-.3 6.6 6.6 0 0 0 -1.4-.1c-.4 0-.8-.1-1.2-.1a4.87 4.87 0 0 0 -1.2.1c-.5 0-1 .1-1.4.1a2.93 2.93 0 0 0 -1 .3c-.5.1-1 .3-1.5.4a4.67 4.67 0 0 0 -1 .5c-.5.2-1 .5-1.4.7a3.92 3.92 0 0 0 -1 .8 7.85 7.85 0 0 0 -2.1 2.1 3.92 3.92 0 0 0 -.8 1 10.93 10.93 0 0 0 -.8 1.5 4.05 4.05 0 0 1 -.5.9 10.93 10.93 0 0 0 -.5 1.7 3.18 3.18 0 0 1 -.3.9 7.57 7.57 0 0 0 -.1 1.5c0 .4-.1.7-.1 1.1a4.1 4.1 0 0 0 .1 1.1c0 .5.1 1 .1 1.5a1.42 1.42 0 0 0 .2.6 6.64 6.64 0 0 0 .6 2 13.73 13.73 0 0 0 12.8 8.5 14 14 0 0 0 12.8-8.5c.2-.7.4-1.3.6-2a1.42 1.42 0 0 1 .2-.6 7.57 7.57 0 0 0 .1-1.5c0-.4.1-.7.1-1.1s-.2-.7-.2-1.1zm-6 2.6c-.1.4-.2.8-.3 1.1v.3a5.94 5.94 0 0 1 -.4.8.85.85 0 0 1 -.3.5 2.65 2.65 0 0 1 -.5.6c-.2.2-.3.4-.5.6a7.85 7.85 0 0 1 -11 0c-.2-.2-.3-.4-.5-.6s-.3-.4-.5-.6-.2-.3-.3-.5a5.9 5.9 0 0 1 -.4-.8v-.3a6.15 6.15 0 0 1 -.3-1.1 8 8 0 0 1 .4-4.3 10.91 10.91 0 0 1 .6-1.1l.1-.2a10.59 10.59 0 0 1 1-1.2c.2-.2.4-.3.5-.5a1.79 1.79 0 0 1 .7-.5l.3-.2a7.61 7.61 0 0 1 8.2.2c.2.1.3.3.5.4s.5.4.8.6a10.59 10.59 0 0 1 1 1.2l.1.2c.2.4.4.7.6 1.1a7.87 7.87 0 0 1 .4 4.3z"/><path d="m1962 1035.8 21.2-21.2 4.3 4.3-21.2 21.2z"/><path d="m1972.7 1046.5 21.2-21.2 4.3 4.3-21.2 21.2z"/><path d="m1962.1 1540.5 21.2-21.2 4.3 4.3-21.2 21.2z"/><path d="m1972.8 1551.5 21.2-21.2 4.3 4.3-21.2 21.2z"/><path d="m1324.3 943.5a22 22 0 0 1 -4.4-.5 17.65 17.65 0 1 1 21.6-12.8 17.77 17.77 0 0 1 -17.2 13.3zm0-29.2a11.41 11.41 0 1 0 2.8.3 14.07 14.07 0 0 0 -2.8-.3zm50.7 42a22 22 0 0 1 -4.4-.5 17.62 17.62 0 1 1 8.1-34.3 4.33 4.33 0 0 1 .5.1 17.69 17.69 0 0 1 12.9 21.4 17.35 17.35 0 0 1 -17.1 13.3zm0-29.2a11.31 11.31 0 1 0 2.9.3 15 15 0 0 0 -2.9-.3zm-37.8-34.3a22 22 0 0 1 -4.4-.5 17.65 17.65 0 1 1 21.6-12.8 17.77 17.77 0 0 1 -17.2 13.3zm0-29.3a11.41 11.41 0 1 0 2.9.3z"/><path d="m1337.7 932.4 1.5-5.9 22.4 5.7-1.5 5.9z"/><path d="m1324.8 910.9 5.7-22.4 5.9 1.5-5.7 22.4z"/><path d="m1478.2 793.7a13.8 13.8 0 1 1 9.8-4 14.65 14.65 0 0 1 -9.8 4zm0-21.6a7.76 7.76 0 1 0 -.7 15.5h.8a7.79 7.79 0 0 0 7.4-8.1 7.89 7.89 0 0 0 -7.5-7.4zm0 527.3a13.8 13.8 0 1 1 9.8-4 14.19 14.19 0 0 1 -9.8 4zm0-21.6a7.76 7.76 0 1 0 -.7 15.5h.8a7.79 7.79 0 0 0 7.4-8.1 8 8 0 0 0 -7.5-7.4zm502.8-483.2a13.8 13.8 0 1 1 9.8-23.6 14 14 0 0 1 .1 19.6 14.43 14.43 0 0 1 -9.9 4zm0-21.6a7.76 7.76 0 1 0 -.7 15.5h.8a7.76 7.76 0 0 0 .7-15.5zm0 526.4a13.8 13.8 0 1 1 9.8-4 14.19 14.19 0 0 1 -9.8 4zm0-21.6a7.76 7.76 0 1 0 -.7 15.5h.8a7.76 7.76 0 0 0 .7-15.5zm-251.8 273.5a13.8 13.8 0 1 1 9.8-4 14.38 14.38 0 0 1 -9.8 4zm0-21.6a7.76 7.76 0 1 0 -.7 15.5h.8a7.79 7.79 0 0 0 7.4-8.1 8.05 8.05 0 0 0 -7.5-7.4zm-506.1 21.2a13.8 13.8 0 1 1 9.8-4 14.65 14.65 0 0 1 -9.8 4zm0-21.6a7.76 7.76 0 1 0 -.7 15.5h.8a7.79 7.79 0 0 0 7.4-8.1 8.05 8.05 0 0 0 -7.5-7.4zm378-598.6a16.84 16.84 0 1 1 .8 0zm-.5-28.4a11.11 11.11 0 1 0 11.6 10.6 11.15 11.15 0 0 0 -11.6-10.6zm-50.2 30.8a16.84 16.84 0 1 1 .8 0zm-.5-28.3a11.11 11.11 0 1 0 11.6 10.6 11.15 11.15 0 0 0 -11.6-10.6zm48.7-24.8a16.84 16.84 0 1 1 .8 0zm-.5-28.3a11.15 11.15 0 0 0 -10.6 11.6 10.79 10.79 0 0 0 3.6 7.7 11.32 11.32 0 0 0 8 2.9 11.15 11.15 0 0 0 10.6-11.6 10.79 10.79 0 0 0 -3.6-7.7 10.61 10.61 0 0 0 -8-2.9z"/><path d="m1564.5 912 22.4-1.1.3 6.1-22.4 1.1z"/><path d="m1596.3 877 6.1-.3 1.1 22.4-6.1.3z"/><path d="m1649.3 877.6a16.79 16.79 0 1 1 .9 0zm-11.1-16.7a11.59 11.59 0 1 0 0-.1zm15.6 109.8a16.79 16.79 0 1 1 .9 0zm-11.1-16.7a11.11 11.11 0 1 0 10.6-11.6 11.15 11.15 0 0 0 -10.6 11.6zm-44.1-74a17.26 17.26 0 1 1 .9 0zm0-28.4h-.5a11.15 11.15 0 0 0 -10.6 11.6 11 11 0 0 0 3.6 7.7 11.32 11.32 0 0 0 8 2.9 11.1 11.1 0 1 0 -.5-22.2z"/><path d="m1647 874.7 6.1-.3 3.1 64.8-6.1.3z"/><path d="m1612.7 858.9 22.4-1.1.3 6.1-22.4 1.1z"/><path d="m1831.7 950.5a17.52 17.52 0 1 1 2.1-.1 14.77 14.77 0 0 1 -2.1.1zm0-29.2h-1.4a11.52 11.52 0 1 0 12.2 10.8 11.61 11.61 0 0 0 -10.8-10.8zm51.9 23.1a17.52 17.52 0 1 1 2.1-.1 14.77 14.77 0 0 1 -2.1.1zm-1.3-29.1a11.57 11.57 0 0 0 -10 12.9 11.86 11.86 0 0 0 4.2 7.6 11.39 11.39 0 0 0 8.5 2.4 11.53 11.53 0 0 0 -2.7-22.9zm-56.8-16.7a17.52 17.52 0 1 1 2.1-.1c-.7 0-1.4.1-2.1.1zm-1.3-29.2a11.53 11.53 0 1 0 12.8 10.1v-.1a11.55 11.55 0 0 0 -12.8-10z"/><path d="m1845.9 928 22.9-2.7.7 6-22.9 2.7z"/><path d="m1824.3 895.7 6-.7 2.7 22.9-6 .7z"/><path d="m2125.4 938.8a17.2 17.2 0 0 1 0-34.4h.3a17.2 17.2 0 0 1 -.3 34.4zm0-28.3a10.9 10.9 0 1 0 .2 0zm35.1 64.9a17 17 0 0 1 -12.4-5.3 17.19 17.19 0 1 1 24.3.4 16.46 16.46 0 0 1 -11.9 4.9zm0-28.3a11.17 11.17 0 0 0 -8.1 18.9 11.1 11.1 0 1 0 16-15.4 10.82 10.82 0 0 0 -7.8-3.4zm-71.7 26.9a17 17 0 0 1 -12.4-5.3 17 17 0 1 1 12.4 5.3zm-8.1-9.5a11.1 11.1 0 1 0 8.2-18.8 11.55 11.55 0 0 0 -7.9 3.1 11.17 11.17 0 0 0 -.3 15.7z"/><path d="m2133 934 4.4-4.2 15.5 16.2-4.4 4.2z"/><path d="m2097 945 16.2-15.5 4.2 4.4-16.2 15.5z"/><path d="m2053.6 937.4h-.3a17.2 17.2 0 1 1 17.5-16.9 16.9 16.9 0 0 1 -5.3 12 16.63 16.63 0 0 1 -11.9 4.9zm0-28.3a11.1 11.1 0 0 0 -.2 22.2 11.55 11.55 0 0 0 7.9-3.1 11.1 11.1 0 0 0 -7.5-19.1zm67.2-36.3h-.3a17.2 17.2 0 1 1 17.5-16.9 16.9 16.9 0 0 1 -5.3 12 16.63 16.63 0 0 1 -11.9 4.9zm0-28.3a11.1 11.1 0 1 0 8 3.4 11.14 11.14 0 0 0 -8-3.4zm-32 129.5a17.23 17.23 0 1 1 11.9-4.8 17.2 17.2 0 0 1 -11.9 4.8zm0-28.3a10.9 10.9 0 1 0 .2 0z"/><path d="m2061.8 908.4 46.8-45 4.2 4.4-46.8 45z"/><path d="m2061.2 932.5 4.4-4.2 15.5 16.2-4.4 4.2z"/><path d="m1349.8 1172.6h-.1a17.25 17.25 0 1 1 .1-34.5h.1a17.25 17.25 0 0 1 -.1 34.5zm0-28.3a11.1 11.1 0 1 0 11.1 11.1 11.14 11.14 0 0 0 -11.1-11.1zm50.7 28.7h-.1a17.28 17.28 0 0 1 -17.2-17.3 16.93 16.93 0 0 1 5.1-12.2 17.08 17.08 0 1 1 12.2 29.5zm0-6.1a7.85 7.85 0 1 1 .1-.1h-.1zm-51 56.5h-.1a16.45 16.45 0 1 1 .1 0zm0-6.1a11.1 11.1 0 1 0 -11.1-11.1 11.14 11.14 0 0 0 11.1 11.1z"/><path d="m1363.8 1158.5v-6.1l22.4.1v6.1z"/><path d="m1346.4 1192 .1-22.4h6.1l-.1 22.4z"/><path d="m1298.7 1223.1h-.1a17.25 17.25 0 1 1 .1 0zm0-28.4a11.1 11.1 0 1 0 11.1 11.1 11.14 11.14 0 0 0 -11.1-11.1zm.6-64.9a17.21 17.21 0 0 1 .1-34.4h.1a17.2 17.2 0 0 1 -.2 34.4zm0-28.3a11.1 11.1 0 1 0 11.1 11.1 11.14 11.14 0 0 0 -11.1-11.1zm50.2 121.9h-.1a17.15 17.15 0 1 1 .1 0zm0-28.4a11.1 11.1 0 1 0 11.1 11.1 11 11 0 0 0 -11.1-11.1z"/><path d="m1295.7 1191.6.4-64.9h6.1l-.4 64.9z"/><path d="m1312.7 1208.9v-6.1l22.4.1v6.1z"/><path d="m1627.7 1197.8a18.11 18.11 0 1 1 3.4-.4 12.67 12.67 0 0 1 -3.4.4zm0-29.2a16.35 16.35 0 0 0 -2.2.2 11.55 11.55 0 1 0 13.5 9.2 11.39 11.39 0 0 0 -11.3-9.4zm-51.3 39.1a17.57 17.57 0 1 1 3.4-.3 19.53 19.53 0 0 1 -3.4.3zm0-29.2a16.35 16.35 0 0 0 -2.2.2 11.56 11.56 0 1 0 2.2-.2zm41.5-32.1a17.53 17.53 0 1 1 3.4-.3 20.41 20.41 0 0 1 -3.4.3zm0-29.2a16.35 16.35 0 0 0 -2.2.2 11.56 11.56 0 1 0 2.2-.2z"/><path d="m1590.1 1184.5 22.7-4.4 1.2 6-22.7 4.4z"/><path d="m1617.6 1143.8 6-1.2 4.4 22.7-6 1.2z"/><path d="m1865 1179.3a17.71 17.71 0 1 1 2.1-.2 14.92 14.92 0 0 1 -2.1.2zm-11.1-15.9a11.09 11.09 0 1 0 9.6-12.4 11.2 11.2 0 0 0 -9.6 12.4zm17.4 66.2a17.71 17.71 0 1 1 2.1-.2 7.49 7.49 0 0 1 -2.1.2zm-11-15.8a11.09 11.09 0 1 0 9.6-12.4 11.05 11.05 0 0 0 -9.6 12.4zm-45.7-28.2a17.7 17.7 0 1 1 2.2-.2c-.7.1-1.4.1-2.2.2zm0-28.4h-1.4a11.12 11.12 0 1 0 11.8 10.4 11 11 0 0 0 -10.4-10.4z"/><path d="m1863.7 1176.6 6-.8 2.8 22.3-6 .8z"/><path d="m1828.2 1163.8 22.3-2.8.8 6-22.3 2.8z"/><path d="m1808.3 1135.2a17 17 0 1 1 2.2-.1c-.8 0-1.5.1-2.2.1zm0-28.3h-1.4a11.2 11.2 0 0 0 -9.7 12.4 11.18 11.18 0 0 0 12.4 9.7 11.08 11.08 0 0 0 9.4-12.6 11 11 0 0 0 -10.7-9.5zm92.5 16.7a16.87 16.87 0 1 1 2.2-.1 16.2 16.2 0 0 1 -2.2.1zm0-28.3h-1.4a11.13 11.13 0 0 0 2.7 22.1 11.08 11.08 0 0 0 9.4-12.6 11 11 0 0 0 -10.7-9.5zm-86.2 90.3a17.7 17.7 0 1 1 2.2-.2c-.7.1-1.5.1-2.2.2zm0-28.4h-1.4a11.13 11.13 0 0 0 2.7 22.1 11.08 11.08 0 0 0 9.4-12.6 10.89 10.89 0 0 0 -10.7-9.5z"/><path d="m1821.9 1113.4 64.4-8.1.8 6-64.4 8.1z"/><path d="m1807 1132.6 6-.8 2.8 22.3-6 .8z"/><path d="m2125.8 1151.7a17.51 17.51 0 1 1 4.2-.5 18.59 18.59 0 0 1 -4.2.5zm0-29.2a11.6 11.6 0 1 0 11.6 11.6 9.67 9.67 0 0 0 -.4-2.9 11.56 11.56 0 0 0 -11.2-8.7zm13.1 79.9a17.78 17.78 0 1 1 4.4-.6 16.11 16.11 0 0 1 -4.4.6zm0-29.3a9.25 9.25 0 0 0 -2.9.4 11.38 11.38 0 1 0 2.9-.4zm-63.7-8.3a17.46 17.46 0 1 1 4.4-.5 21.18 21.18 0 0 1 -4.4.5zm-11.2-14.8a11.57 11.57 0 1 0 8.3-14.1 11.55 11.55 0 0 0 -8.3 14.1z"/><path d="m2126.6 1148.8 5.9-1.5 5.8 22.4-5.9 1.5z"/><path d="m2088.6 1140.7 22.4-5.8 1.5 5.9-22.4 5.8z"/><path d="m1375.7 1455.7a17.65 17.65 0 1 1 17.6-17.6 17.74 17.74 0 0 1 -17.6 17.6zm0-29.2a11.55 11.55 0 1 0 11.5 11.5 11.44 11.44 0 0 0 -11.5-11.5zm.1-23.1a17.65 17.65 0 1 1 17.6-17.6 17.65 17.65 0 0 1 -17.6 17.6zm0-29.2a11.55 11.55 0 1 0 11.5 11.5 11.38 11.38 0 0 0 -11.5-11.5zm-52.4 81.4a17.65 17.65 0 1 1 17.6-17.6 17.65 17.65 0 0 1 -17.6 17.6zm0-29.1a11.55 11.55 0 1 0 11.5 11.5 11.52 11.52 0 0 0 -11.5-11.5z"/><path d="m1372.8 1423.5v-23.1h6.1v23.1z"/><path d="m1338 1441v-6.1h23.1v6.1z"/><path d="m1601.1 1435.6a16.84 16.84 0 1 1 .8 0zm-.5-28.3a11.11 11.11 0 1 0 11.6 10.6 11.15 11.15 0 0 0 -11.6-10.6zm-50.2 30.7a16.84 16.84 0 1 1 .8 0zm-.5-28.3a11.59 11.59 0 1 0 .1 0zm48.8-24.7a16.84 16.84 0 1 1 .8 0zm-.6-28.4a11.15 11.15 0 0 0 -10.6 11.6 10.79 10.79 0 0 0 3.6 7.7 11.18 11.18 0 0 0 15.7-.7 11.32 11.32 0 0 0 2.9-8 11 11 0 0 0 -11.6-10.6z"/><path d="m1564.5 1417 22.4-1.1.3 6.1-22.4 1.1z"/><path d="m1596.3 1382 6.1-.3 1.1 22.4-6.1.3z"/><path d="m1649.3 1382.5a16.79 16.79 0 1 1 .9 0zm-11.1-16.7a11.59 11.59 0 1 0 0-.1zm15.6 109.9a16.79 16.79 0 1 1 .9 0zm-11.1-16.7a11.11 11.11 0 1 0 10.6-11.6 11.15 11.15 0 0 0 -10.6 11.6zm-44-74a16.84 16.84 0 1 1 .8 0zm0-28.4h-.5a11.11 11.11 0 1 0 11.7 10.5 11.33 11.33 0 0 0 -11.2-10.5z"/><path d="m1647 1379.7 6.1-.3 3.1 64.8-6.1.3z"/><path d="m1612.8 1363.8 22.4-1.1.3 6.1-22.4 1.1z"/><path d="m1830 1414a18 18 0 1 1 6-1.2 17.33 17.33 0 0 1 -6 1.2zm0-29.2a11.55 11.55 0 1 0 11.6 11.5 10.88 10.88 0 0 0 -.7-4 11.46 11.46 0 0 0 -10.9-7.5zm18 78.3a17.69 17.69 0 1 1 6-1.1 16.83 16.83 0 0 1 -6 1.1zm0-29.2a11.6 11.6 0 1 0 11.6 11.6 10.88 10.88 0 0 0 -.7-4 11.55 11.55 0 0 0 -10.9-7.6zm31.2-37.9a17.45 17.45 0 1 1 6.1-1 21.62 21.62 0 0 1 -6.1 1zm0-29.2a11.55 11.55 0 1 0 11.5 11.6 10.88 10.88 0 0 0 -.7-4 11.52 11.52 0 0 0 -10.8-7.6z"/><path d="m1828.9 1422.1 5.7-2.1 7.9 21.7-5.7 2.1z"/><path d="m1842.7 1388.5 21.7-7.9 2.1 5.7-21.7 7.9z"/><path d="m2093 1446.2a17.2 17.2 0 1 1 12.7-5.6 17 17 0 0 1 -11.9 5.6zm0-28.4h-.5a10.79 10.79 0 0 0 -7.7 3.6 11.11 11.11 0 1 0 15.7-.7 11.32 11.32 0 0 0 -7.5-2.9zm-34.1 65.9a17.25 17.25 0 1 1 12.8-5.7 17 17 0 0 1 -12.8 5.7zm-8.2-24.7a11.12 11.12 0 1 0 15.8-.8 11.3 11.3 0 0 0 -15.8.8zm4.7-47a17.2 17.2 0 0 1 -12.7-28.8 17 17 0 0 1 11.9-5.6 17.21 17.21 0 1 1 .8 34.4zm-8.2-24.7a11.64 11.64 0 1 0 .2-.2c-.1.2-.1.2-.2.2z"/><path d="m2066.1 1453.8 15.1-16.6 4.5 4.1-15.1 16.6z"/><path d="m2063.9 1406.6 4.1-4.5 16.6 15.1-4.1 4.5z"/><path d="m2089.6 1374.5a17.25 17.25 0 1 1 12.7-5.7 17 17 0 0 1 -12.7 5.7zm-7.5-9a11.12 11.12 0 1 0 -.8-15.7 11.28 11.28 0 0 0 .8 15.7zm76.5 71.7a17.25 17.25 0 1 1 12.7-5.7 17 17 0 0 1 -12.7 5.7zm-7.5-9a11.12 11.12 0 1 0 -.8-15.8 11.39 11.39 0 0 0 .8 15.8zm-95.7-16.2a17.15 17.15 0 1 1 12.7-5.6 16.54 16.54 0 0 1 -12.7 5.6zm0-28.3a11.1 11.1 0 1 0 7.5 2.9 10.85 10.85 0 0 0 -7.5-2.9z"/><path d="m2098 1368.9 4.1-4.5 48 43.7-4.1 4.5z"/><path d="m2062.7 1382.1 15.1-16.6 4.5 4.1-15.1 16.6z"/><path d="m1361.1 1673.9a17.29 17.29 0 1 1 7.7-1.9 18.61 18.61 0 0 1 -7.7 1.9zm0-28.4a10.84 10.84 0 0 0 -5 1.2 11.12 11.12 0 1 0 5-1.2zm45.3 5.4a17.26 17.26 0 0 1 -17.3-17.1 17.22 17.22 0 1 1 25 15.3 19.26 19.26 0 0 1 -7.7 1.8zm0-28.4a10.84 10.84 0 0 0 -5 1.2 11.16 11.16 0 1 0 15 4.9 11.43 11.43 0 0 0 -10-6.1zm-68.2 6a17.28 17.28 0 1 1 7.8-1.9 16.64 16.64 0 0 1 -7.8 1.9zm0-28.3a10.84 10.84 0 0 0 -5 1.2 11.18 11.18 0 1 0 5-1.2z"/><path d="m1372.3 1647.4 20-10.1 2.7 5.4-20 10.1z"/><path d="m1341.8 1625.3 5.4-2.7 10.1 20-5.4 2.7z"/><path d="m1292.9 1651.4a17.29 17.29 0 1 1 7.8-1.9 16.64 16.64 0 0 1 -7.8 1.9zm0-28.3a11.15 11.15 0 1 0 11.2 11.1 10.84 10.84 0 0 0 -1.2-5 11.24 11.24 0 0 0 -10-6.1zm42.1 111.5a17.28 17.28 0 1 1 7.8-1.9 16.64 16.64 0 0 1 -7.8 1.9zm0-28.3a11.15 11.15 0 1 0 11.2 11.1 10.55 10.55 0 0 0 -1.2-5 11.36 11.36 0 0 0 -10-6.1zm3.2-77.8a17.48 17.48 0 1 1 7.8-2 18.06 18.06 0 0 1 -7.8 2zm0-28.3a11.15 11.15 0 1 0 11.2 11.1 10.84 10.84 0 0 0 -1.2-5 11.17 11.17 0 0 0 -10-6.1z"/><path d="m1296.6 1648.1 5.4-2.7 29.3 57.9-5.4 2.7z"/><path d="m1304.2 1625.1 20-10.1 2.7 5.4-20 10.1z"/><path d="m1602.1 1700.5a17.58 17.58 0 1 1 12.4-5.1 17.63 17.63 0 0 1 -12.4 5.1zm0-29.2a11.53 11.53 0 0 0 -8.2 19.7 11.84 11.84 0 0 0 16.4 0 11.65 11.65 0 0 0 0-16.4 12 12 0 0 0 -8.2-3.3zm37-7.8a17.58 17.58 0 1 1 12.4-5.1 17.22 17.22 0 0 1 -12.4 5.1zm0-29.2a11.55 11.55 0 1 0 11.5 11.6 11.44 11.44 0 0 0 -11.5-11.6zm-74 29.2a17.58 17.58 0 1 1 12.4-5.1 17.22 17.22 0 0 1 -12.4 5.1zm0-29.2a11.44 11.44 0 1 0 8.2 3.3 11.83 11.83 0 0 0 -8.2-3.3z"/><path d="m1610.3 1670.4 16.3-16.3 4.3 4.3-16.3 16.3z"/><path d="m1573.3 1658.3 4.3-4.3 16.3 16.3-4.3 4.3z"/><path d="m1866 1689.3a16 16 0 0 1 -7.7-1.9 17 17 0 1 1 7.7 1.9zm-5-7.2a11.15 11.15 0 1 0 -5.5-6.4 11.51 11.51 0 0 0 5.5 6.4zm50.3 30.1a17.2 17.2 0 1 1 17.2-17.2 16 16 0 0 1 -1.9 7.7 16.66 16.66 0 0 1 -15.3 9.5zm0-28.3a11.16 11.16 0 0 0 -5.1 21.1 11.09 11.09 0 1 0 10-19.8 9.47 9.47 0 0 0 -4.9-1.3zm-68.2 50.7a16 16 0 0 1 -7.7-1.9 17.08 17.08 0 1 1 23-7.4 17.35 17.35 0 0 1 -15.3 9.3zm0-28.3a11.16 11.16 0 0 0 -5.1 21.1 11.09 11.09 0 1 0 10-19.8 9.47 9.47 0 0 0 -4.9-1.3z"/><path d="m1877.4 1681.3 2.7-5.4 20 10.1-2.7 5.4z"/><path d="m1846.8 1703.4 10.1-20 5.4 2.7-10.1 20z"/><path d="m1797.8 1711.7a17.2 17.2 0 1 1 17.2-17.2 16 16 0 0 1 -1.9 7.7 16.83 16.83 0 0 1 -15.3 9.5zm0-28.3a11.18 11.18 0 1 0 4.9 1.2 10.44 10.44 0 0 0 -4.9-1.2zm42.1-54.9a17.31 17.31 0 1 1 5.4-.9 14.26 14.26 0 0 1 -5.4.9zm0-28.3a11.13 11.13 0 1 0 5 1.2 10.55 10.55 0 0 0 -5-1.2zm3.2 134.4a17.31 17.31 0 1 1 5.4-.9 17 17 0 0 1 -5.4.9zm0-28.3a11.18 11.18 0 1 0 4.9 1.2 10.44 10.44 0 0 0 -4.9-1.2z"/><path d="m1801.6 1680.5 29.3-57.9 5.4 2.7-29.3 57.9z"/><path d="m1809.1 1703.7 2.7-5.4 20 10.1-2.7 5.4z"/><path d="m2081 1706.9h-.9a17.62 17.62 0 1 1 18.4-16.7 17.5 17.5 0 0 1 -17.5 16.7zm0-29.2a11.6 11.6 0 1 0 .6 0zm2.6-23.1h-.9a18.1 18.1 0 1 1 .9 0zm0-29.2a11.56 11.56 0 0 0 -.5 23.1 11.8 11.8 0 0 0 12.1-11 11.6 11.6 0 0 0 -11-12.1zm49.6 84h-.9a17.67 17.67 0 1 1 18.5-16.8 17.6 17.6 0 0 1 -17.6 16.8zm0-29.2a11.6 11.6 0 1 0 0 23.2 11.61 11.61 0 0 0 .5-23.2z"/><path d="m2078.5 1674.4 1.1-23.1 6.1.3-1.1 23.1z"/><path d="m2095.5 1693 .3-6.1 23.1 1.1-.3 6.1z"/><path d="m2472.5 525.9 21.2-21.2 4.3 4.3-21.2 21.2z"/><path d="m2483.4 536.8 21.2-21.2 4.3 4.3-21.2 21.2z"/><path d="m2219.6 268.9 4.3-4.3 21.2 21.2-4.3 4.3z"/><path d="m2230.2 258.2 4.3-4.3 21.2 21.2-4.3 4.3z"/><path d="m2736.2 258.1 4.3-4.3 21.2 21.2-4.3 4.3z"/><path d="m2725.6 268.7 4.3-4.3 21.2 21.2-4.3 4.3z"/><path d="m2227.8 8.5a13.86 13.86 0 1 0 19.6 0 13.88 13.88 0 0 0 -19.6 0zm17.5 9.7a7.75 7.75 0 1 1 -7.7-7.8 7.81 7.81 0 0 1 5.5 2.3 8.15 8.15 0 0 1 2.2 5.5z"/><path d="m2472.7 21.5 21.2-21.2 4.3 4.3-21.2 21.2z"/><path d="m2483.4 32.2 21.2-21.2 4.3 4.3-21.2 21.2z"/><path d="m2757.3 18.2v-1.5a3.18 3.18 0 0 0 -.3-.9 10.93 10.93 0 0 0 -.5-1.7 4.05 4.05 0 0 0 -.5-.9 10.93 10.93 0 0 0 -.8-1.5c-.2-.3-.5-.6-.8-1a10.59 10.59 0 0 0 -1-1.2 9.38 9.38 0 0 0 -1.2-.9 3.92 3.92 0 0 0 -1-.8 9.14 9.14 0 0 0 -1.4-.7 3.13 3.13 0 0 0 -1-.5 8.33 8.33 0 0 0 -1.5-.4 3.81 3.81 0 0 1 -1-.3 6.6 6.6 0 0 0 -1.4-.1c-.4 0-.8-.1-1.2-.1a4.87 4.87 0 0 0 -1.2.1c-.5 0-1 .1-1.4.1a2.93 2.93 0 0 0 -1 .3c-.5.1-1 .3-1.5.4a4.67 4.67 0 0 0 -1 .5c-.5.2-1 .5-1.4.7a3.92 3.92 0 0 0 -1 .8 10.63 10.63 0 0 0 -1.1.9 10.59 10.59 0 0 0 -1 1.2 3.92 3.92 0 0 0 -.8 1 10.93 10.93 0 0 0 -.8 1.5 4.05 4.05 0 0 1 -.5.9 10.93 10.93 0 0 0 -.5 1.7 3.18 3.18 0 0 1 -.3.9 7.57 7.57 0 0 0 -.1 1.5c0 .4-.1.7-.1 1.1a4.1 4.1 0 0 0 .1 1.1c0 .5.1 1 .1 1.5a1.42 1.42 0 0 0 .2.6 6.64 6.64 0 0 0 .6 2 13.73 13.73 0 0 0 12.8 8.5 14 14 0 0 0 12.8-8.5c.2-.7.4-1.3.6-2a1.42 1.42 0 0 1 .2-.6 7.57 7.57 0 0 0 .1-1.5c0-.4.1-.7.1-1.1a4.51 4.51 0 0 0 -.3-1.1zm-6 2.6c-.1.4-.2.8-.3 1.1v.3a5.94 5.94 0 0 1 -.4.8.85.85 0 0 1 -.3.5 2.65 2.65 0 0 1 -.5.6c-.2.2-.3.4-.5.6a7.85 7.85 0 0 1 -11 0c-.2-.2-.3-.4-.5-.6s-.3-.4-.5-.6-.2-.3-.3-.5a5.9 5.9 0 0 1 -.4-.8v-.3a6.15 6.15 0 0 1 -.3-1.1 8 8 0 0 1 .4-4.3 10.91 10.91 0 0 1 .6-1.1l.1-.2a10.59 10.59 0 0 1 1-1.2c.2-.2.4-.3.5-.5a1.79 1.79 0 0 1 .7-.5l.3-.2a7.61 7.61 0 0 1 8.2.2c.2.1.3.3.5.4s.5.4.8.6a10.59 10.59 0 0 1 1 1.2l.1.2c.2.4.4.7.6 1.1a7.49 7.49 0 0 1 .3 4.2v.1z"/><path d="m2492.7 284.8a13.8 13.8 0 1 1 9.8-4 14.38 14.38 0 0 1 -9.8 4zm0-21.6a7.76 7.76 0 1 0 -.7 15.5h.8a7.76 7.76 0 0 0 .7-15.5zm502.9 21.6a13.8 13.8 0 1 1 9.8-4 14.38 14.38 0 0 1 -9.8 4zm0-21.6a7.76 7.76 0 1 0 -.7 15.5h.8a7.79 7.79 0 0 0 7.4-8.1 8.05 8.05 0 0 0 -7.5-7.4zm-251.9 273.5a13.8 13.8 0 1 1 9.8-4 15.06 15.06 0 0 1 -9.8 4zm0-21.6a7.76 7.76 0 1 0 -.7 15.5h.8a7.76 7.76 0 0 0 .7-15.5zm-506.2 21.2a13.8 13.8 0 1 1 9.8-4 14.65 14.65 0 0 1 -9.8 4zm0-21.6a7.76 7.76 0 1 0 -.7 15.5h.8a7.79 7.79 0 0 0 7.4-8.1 7.89 7.89 0 0 0 -7.5-7.4zm126.7-356.7h-.1a17.25 17.25 0 1 1 .1-34.5h.1a17.25 17.25 0 0 1 -.1 34.5zm0-28.3a11.1 11.1 0 1 0 11.1 11.1 11 11 0 0 0 -11.1-11.1zm50.8 28.6h-.1a17.28 17.28 0 0 1 -17.2-17.3 16.93 16.93 0 0 1 5.1-12.2 17.08 17.08 0 1 1 12.2 29.5zm0-6a7.85 7.85 0 1 1 .1-.1h-.1zm-51.1 56.5h-.1a17.21 17.21 0 0 1 .1-34.4h.1a17.21 17.21 0 0 1 -.1 34.4zm0-6.1a11.1 11.1 0 1 0 -11.1-11.1 11.14 11.14 0 0 0 11.1 11.1z"/><path d="m2378.2 143.9v-6.1l22.4.1v6.1z"/><path d="m2360.9 177.4.1-22.4h6.1l-.1 22.4z"/><path d="m2313.2 208.4h-.1a17.25 17.25 0 1 1 .1 0zm0-28.3a11.1 11.1 0 1 0 11.1 11.1 11.14 11.14 0 0 0 -11.1-11.1zm.6-64.9h-.1a17.21 17.21 0 0 1 .1-34.4h.1a17.2 17.2 0 0 1 -.1 34.4zm0-28.3a11.1 11.1 0 1 0 11.1 11.1 11.14 11.14 0 0 0 -11.1-11.1zm50.1 121.9h-.1a17.21 17.21 0 0 1 .1-34.4h.1a17.2 17.2 0 0 1 -.1 34.4zm0-28.4a11.1 11.1 0 1 0 11.1 11.1 11.14 11.14 0 0 0 -11.1-11.1z"/><path d="m2310.1 177 .4-64.9h6.1l-.4 64.9z"/><path d="m2327.2 194.3v-6.1l22.4.1v6.1z"/><path d="m2642.2 183.1a18.11 18.11 0 1 1 3.4-.4 12.67 12.67 0 0 1 -3.4.4zm0-29.2a16.35 16.35 0 0 0 -2.2.2 11.55 11.55 0 1 0 13.5 9.2 11.66 11.66 0 0 0 -11.3-9.4zm-51.4 39.2a17.57 17.57 0 1 1 3.4-.3 18.7 18.7 0 0 1 -3.4.3zm0-29.2a16.35 16.35 0 0 0 -2.2.2 11.55 11.55 0 1 0 13.5 9.2 11.39 11.39 0 0 0 -11.3-9.4zm41.5-32.1a17.53 17.53 0 1 1 3.4-.3 18.7 18.7 0 0 1 -3.4.3zm0-29.2a16.35 16.35 0 0 0 -2.2.2 11.55 11.55 0 1 0 13.5 9.2 11.39 11.39 0 0 0 -11.3-9.4z"/><path d="m2604.7 169.9 22.7-4.4 1.2 6-22.7 4.4z"/><path d="m2632.1 129.2 6-1.2 4.4 22.7-6 1.2z"/><path d="m2879.5 164.6a17.71 17.71 0 1 1 2.1-.2 7.49 7.49 0 0 1 -2.1.2zm-11.1-15.8a11.09 11.09 0 1 0 9.6-12.4 11.05 11.05 0 0 0 -9.6 12.4zm17.4 66.2a17.71 17.71 0 1 1 2.1-.2 14.92 14.92 0 0 1 -2.1.2zm-11.1-15.9a11.09 11.09 0 1 0 9.6-12.4 11.2 11.2 0 0 0 -9.6 12.4zm-45.6-28.2a17.7 17.7 0 1 1 2.2-.2 8.58 8.58 0 0 1 -2.2.2zm0-28.3h-1.4a11.12 11.12 0 1 0 11.8 10.4 11 11 0 0 0 -10.4-10.4z"/><path d="m2878.2 162 6-.8 2.8 22.3-6 .8z"/><path d="m2842.8 149.2 22.3-2.8.8 6-22.3 2.8z"/><path d="m2822.8 120.6a17 17 0 1 1 2.2-.1c-.8 0-1.5.1-2.2.1zm0-28.4h-1.4a11.2 11.2 0 0 0 -9.7 12.4 11.18 11.18 0 0 0 12.4 9.7 11.11 11.11 0 0 0 -1.3-22.1zm92.5 16.8a16.87 16.87 0 1 1 2.2-.1c-.8 0-1.5.1-2.2.1zm0-28.3h-1.4a11.13 11.13 0 0 0 2.7 22.1 11.08 11.08 0 0 0 9.4-12.6 11 11 0 0 0 -10.7-9.5zm-86.2 90.2a17.7 17.7 0 1 1 2.2-.2 8.58 8.58 0 0 1 -2.2.2zm0-28.3h-1.4a11.13 11.13 0 0 0 2.7 22.1 11.08 11.08 0 0 0 9.4-12.6 11 11 0 0 0 -10.7-9.5z"/><path d="m2836.5 98.9 64.4-8.1.8 6-64.4 8.1z"/><path d="m2821.6 118.1 6-.8 2.8 22.3-6 .8z"/><path d="m2390.2 441a17.6 17.6 0 1 1 17.6-17.6 17.63 17.63 0 0 1 -17.6 17.6zm0-29.2a11.55 11.55 0 1 0 11.5 11.5 11.44 11.44 0 0 0 -11.5-11.5zm.1-23.1a17.6 17.6 0 1 1 17.6-17.6 17.63 17.63 0 0 1 -17.6 17.6zm0-29.2a11.55 11.55 0 1 0 11.5 11.5 11.59 11.59 0 0 0 -11.5-11.5zm-52.4 81.5a17.6 17.6 0 1 1 17.6-17.6 17.63 17.63 0 0 1 -17.6 17.6zm0-29.2a11.55 11.55 0 1 0 11.5 11.5 11.52 11.52 0 0 0 -11.5-11.5z"/><path d="m2383.3 408.2v-23.1h6.1v23.1z"/><path d="m2352.5 426.4v-6.1h23.1v6.1z"/><path d="m2615.5 420.9a16.84 16.84 0 1 1 .8 0zm-.5-28.3a11.11 11.11 0 1 0 11.6 10.6 11 11 0 0 0 -11.6-10.6zm-50.1 30.8a16.84 16.84 0 1 1 .8 0zm-.6-28.3a11.59 11.59 0 1 0 .1 0zm48.8-24.8a16.84 16.84 0 1 1 .8 0zm-.5-28.3a11.15 11.15 0 0 0 -10.6 11.6 10.79 10.79 0 0 0 3.6 7.7 11.18 11.18 0 0 0 15.7-.7 11.32 11.32 0 0 0 2.9-8 11 11 0 0 0 -11.6-10.6z"/><path d="m2578.9 402.3 22.4-1.1.3 6.1-22.4 1.1z"/><path d="m2610.8 367.4 6.1-.3 1.1 22.4-6.1.3z"/><path d="m2663.8 367.9a16.79 16.79 0 1 1 .9 0zm-11.1-16.7a11.59 11.59 0 1 0 0-.1zm15.6 109.8a16.79 16.79 0 1 1 .9 0zm-11.1-16.7a11.11 11.11 0 1 0 10.6-11.6 11.15 11.15 0 0 0 -10.6 11.6zm-44.1-74a16.84 16.84 0 1 1 .8 0zm0-28.3h-.6a11.44 11.44 0 1 0 .6 0z"/><path d="m2661.5 365.1 6.1-.3 3.1 64.8-6.1.3z"/><path d="m2627.2 349.2 22.4-1.1.3 6.1-22.4 1.1z"/><path d="m2844.5 399.4a18 18 0 1 1 6-1.2 17.65 17.65 0 0 1 -6 1.2zm0-29.3a11.55 11.55 0 1 0 11.6 11.5 10.88 10.88 0 0 0 -.7-4 11.7 11.7 0 0 0 -10.9-7.5zm18 78.4a17.69 17.69 0 1 1 6-1.1 17.25 17.25 0 0 1 -6 1.1zm0-29.3a11.6 11.6 0 1 0 11.6 11.6 10.88 10.88 0 0 0 -.7-4 11.84 11.84 0 0 0 -10.9-7.6zm31.1-37.9a17.45 17.45 0 1 1 6.1-1 17.63 17.63 0 0 1 -6.1 1zm0-29.2a11.55 11.55 0 1 0 11.5 11.6 10.88 10.88 0 0 0 -.7-4 11.47 11.47 0 0 0 -10.8-7.6z"/><path d="m2846.6 396.3 5.7-2.1 7.9 21.7-5.7 2.1z"/><path d="m2857.2 373.9 21.7-7.9 2.1 5.7-21.7 7.9z"/><path d="m2375.6 659.2a17.29 17.29 0 1 1 7.7-1.9 17.51 17.51 0 0 1 -7.7 1.9zm0-28.4a10.84 10.84 0 0 0 -5 1.2 11.07 11.07 0 1 0 14.9 4.8 11.5 11.5 0 0 0 -9.9-6zm45.3 5.5a17.26 17.26 0 0 1 -17.3-17.1 17.23 17.23 0 0 1 32.6-7.8 17.27 17.27 0 0 1 -7.6 23.1 19.26 19.26 0 0 1 -7.7 1.8zm0-28.4a10.84 10.84 0 0 0 -5 1.2 11.16 11.16 0 1 0 15 4.9 11.43 11.43 0 0 0 -10-6.1zm-68.3 6.1a17.28 17.28 0 1 1 7.8-1.9 17.6 17.6 0 0 1 -7.8 1.9zm0-28.4a10.84 10.84 0 0 0 -5 1.2 11.18 11.18 0 1 0 5-1.2z"/><path d="m2386.8 632.8 20-10.1 2.7 5.4-20 10.1z"/><path d="m2356.3 610.7 5.4-2.7 10.1 20-5.4 2.7z"/><path d="m2307.4 636.8a17.29 17.29 0 1 1 7.8-1.9 16.64 16.64 0 0 1 -7.8 1.9zm0-28.3a11.15 11.15 0 1 0 11.2 11.1 10.84 10.84 0 0 0 -1.2-5 11.17 11.17 0 0 0 -10-6.1zm42 111.5a17.28 17.28 0 1 1 7.8-1.9 17.6 17.6 0 0 1 -7.8 1.9zm0-28.3a11.15 11.15 0 1 0 11.2 11.1 10.55 10.55 0 0 0 -1.2-5 11 11 0 0 0 -10-6.1zm3.2-77.7a17.12 17.12 0 1 1 7.8-1.8 19 19 0 0 1 -7.8 1.8zm0-28.4a11.15 11.15 0 1 0 11.2 11.1 11.13 11.13 0 0 0 -11.2-11.1z"/><path d="m2311 633.4 5.4-2.7 29.3 57.9-5.4 2.7z"/><path d="m2318.6 610.5 20-10.1 2.7 5.4-20 10.1z"/><path d="m2616.5 685.9a17.58 17.58 0 1 1 12.4-5.1 17.63 17.63 0 0 1 -12.4 5.1zm0-29.2a11.53 11.53 0 0 0 -8.2 19.7 11.84 11.84 0 0 0 16.4 0 11.5 11.5 0 0 0 -8.2-19.7zm37-7.8a17.58 17.58 0 1 1 12.4-5.1 17.63 17.63 0 0 1 -12.4 5.1zm0-29.2a11.61 11.61 0 1 0 8.2 3.4 11.33 11.33 0 0 0 -8.2-3.4zm-73.9 29.2a17.58 17.58 0 1 1 12.4-5.1 18 18 0 0 1 -12.4 5.1zm0-29.2a11.44 11.44 0 1 0 8.2 3.3 12 12 0 0 0 -8.2-3.3z"/><path d="m2624.7 655.8 16.3-16.3 4.3 4.3-16.3 16.3z"/><path d="m2587.7 643.7 4.3-4.3 16.3 16.3-4.3 4.3z"/><path d="m2880.5 674.7a16 16 0 0 1 -7.7-1.9 17 17 0 1 1 7.7 1.9zm-5-7.3a11.15 11.15 0 1 0 -5.5-6.4 11 11 0 0 0 5.5 6.4zm50.3 30.2a17.2 17.2 0 1 1 17.2-17.2 16 16 0 0 1 -1.9 7.7 16.76 16.76 0 0 1 -15.3 9.5zm0-28.3a11.16 11.16 0 0 0 -5.1 21.1 11.09 11.09 0 0 0 10-19.8 9.47 9.47 0 0 0 -4.9-1.3zm-68.2 50.7a16 16 0 0 1 -7.7-1.9 17.08 17.08 0 1 1 23-7.4 17.35 17.35 0 0 1 -15.3 9.3zm0-28.3a11.16 11.16 0 0 0 -5.1 21.1 11.09 11.09 0 0 0 10-19.8 9.47 9.47 0 0 0 -4.9-1.3z"/><path d="m2861.3 688.8 10.1-20 5.4 2.7-10.1 20z"/><path d="m2812.3 697.1a17.2 17.2 0 1 1 17.2-17.2 16 16 0 0 1 -1.9 7.7 17.12 17.12 0 0 1 -15.3 9.5zm0-28.3a11.18 11.18 0 1 0 4.9 1.2 10.44 10.44 0 0 0 -4.9-1.2zm42.1-54.8a17.31 17.31 0 1 1 5.4-.9 17 17 0 0 1 -5.4.9zm0-28.4a11.13 11.13 0 1 0 5 1.2 10.55 10.55 0 0 0 -5-1.2zm3.2 134.4a17.31 17.31 0 1 1 5.4-.9 17 17 0 0 1 -5.4.9zm0-28.3a11.18 11.18 0 1 0 4.9 1.2 10.44 10.44 0 0 0 -4.9-1.2z"/><path d="m2816 665.9 29.3-57.9 5.4 2.7-29.3 57.9z"/><path d="m2823.6 689 2.7-5.4 20 10.1-2.7 5.4z"/><path d="m2472.5 1540.5 21.2-21.2 4.3 4.3-21.2 21.2z"/><path d="m2483.3 1551.5 21.2-21.2 4.3 4.3-21.2 21.2z"/><path d="m2219.6 1283.6 4.3-4.3 21.2 21.2-4.3 4.3z"/><path d="m2230.2 1272.9 4.3-4.3 21.2 21.2-4.3 4.3z"/><path d="m2736.2 1272.7 4.3-4.3 21.2 21.2-4.3 4.3z"/><path d="m2725.6 1283.4 4.3-4.3 21.2 21.2-4.3 4.3z"/><path d="m2219.6 776.9 4.3-4.3 21.2 21.2-4.3 4.3z"/><path d="m2230.2 766.2 4.3-4.3 21.2 21.2-4.3 4.3z"/><path d="m2227.8 1023.1a13.86 13.86 0 1 0 19.6 0 13.88 13.88 0 0 0 -19.6 0zm17.5 9.8a7.75 7.75 0 1 1 -7.7-7.8 7.68 7.68 0 0 1 7.7 7.8z"/><path d="m2472.6 1036.2 21.2-21.2 4.3 4.3-21.2 21.2z"/><path d="m2483.3 1046.9 21.2-21.2 4.3 4.3-21.2 21.2z"/><path d="m2736.2 766 4.3-4.3 21.2 21.2-4.3 4.3z"/><path d="m2725.6 776.7 4.3-4.3 21.2 21.2-4.3 4.3z"/><path d="m2757.3 1032.8c0-.5-.1-1-.1-1.5a3.18 3.18 0 0 0 -.3-.9 10.93 10.93 0 0 0 -.5-1.7 4.05 4.05 0 0 0 -.5-.9 10.93 10.93 0 0 0 -.8-1.5c-.2-.3-.5-.6-.8-1a10.59 10.59 0 0 0 -1-1.2 9.38 9.38 0 0 0 -1.2-.9 3.92 3.92 0 0 0 -1-.8 9.14 9.14 0 0 0 -1.4-.7 3.13 3.13 0 0 0 -1-.5 8.33 8.33 0 0 0 -1.5-.4 3.81 3.81 0 0 1 -1-.3 6.6 6.6 0 0 0 -1.4-.1c-.4 0-.8-.1-1.2-.1a4.87 4.87 0 0 0 -1.2.1c-.5 0-1 .1-1.4.1a2.93 2.93 0 0 0 -1 .3c-.5.1-1 .3-1.5.4a4.67 4.67 0 0 0 -1 .5c-.5.2-1 .5-1.4.7a3.92 3.92 0 0 0 -1 .8 7.85 7.85 0 0 0 -2.1 2.1 3.92 3.92 0 0 0 -.8 1 10.93 10.93 0 0 0 -.8 1.5 4.05 4.05 0 0 1 -.5.9 10.93 10.93 0 0 0 -.5 1.7 3.18 3.18 0 0 1 -.3.9 7.57 7.57 0 0 0 -.1 1.5c0 .4-.1.7-.1 1.1a4.1 4.1 0 0 0 .1 1.1c0 .5.1 1 .1 1.5a1.42 1.42 0 0 0 .2.6 6.64 6.64 0 0 0 .6 2 13.73 13.73 0 0 0 12.8 8.5 14 14 0 0 0 12.8-8.5c.2-.7.4-1.3.6-2a1.42 1.42 0 0 1 .2-.6 7.57 7.57 0 0 0 .1-1.5c0-.4.1-.7.1-1.1a4.25 4.25 0 0 0 -.2-1.1zm-6 2.6c-.1.4-.2.8-.3 1.1v.3a5.94 5.94 0 0 1 -.4.8.85.85 0 0 1 -.3.5 2.65 2.65 0 0 1 -.5.6c-.2.2-.3.4-.5.6a7.85 7.85 0 0 1 -11 0c-.2-.2-.3-.4-.5-.6s-.3-.4-.5-.6-.2-.3-.3-.5a5.9 5.9 0 0 1 -.4-.8v-.3a6.15 6.15 0 0 1 -.3-1.1 8 8 0 0 1 .4-4.3 10.91 10.91 0 0 1 .6-1.1l.1-.2a10.59 10.59 0 0 1 1-1.2c.2-.2.4-.3.5-.5a1.79 1.79 0 0 1 .7-.5l.3-.2a7.61 7.61 0 0 1 8.2.2c.2.1.3.3.5.4s.5.4.8.6a10.59 10.59 0 0 1 1 1.2l.1.2c.2.4.4.7.6 1.1a7.87 7.87 0 0 1 .4 4.3z"/><path d="m2338.8 943.5a22 22 0 0 1 -4.4-.5 17.65 17.65 0 1 1 21.6-12.8 17.77 17.77 0 0 1 -17.2 13.3zm0-29.2a11.41 11.41 0 1 0 2.9.3 15 15 0 0 0 -2.9-.3zm50.7 42a22 22 0 0 1 -4.4-.5 17.62 17.62 0 1 1 8.1-34.3 4.33 4.33 0 0 1 .5.1 17.69 17.69 0 0 1 12.9 21.4 17.35 17.35 0 0 1 -17.1 13.3zm0-29.2a11.31 11.31 0 1 0 2.9.3 15 15 0 0 0 -2.9-.3zm-37.9-34.3a22 22 0 0 1 -4.4-.5 17.65 17.65 0 1 1 21.6-12.8 17.77 17.77 0 0 1 -17.2 13.3zm0-29.3a11.41 11.41 0 1 0 2.9.3z"/><path d="m2352.2 932.4 1.5-5.9 22.4 5.7-1.5 5.9z"/><path d="m2339.3 910.9 5.7-22.4 5.9 1.5-5.7 22.4z"/><path d="m2492.7 793.7a13.8 13.8 0 1 1 9.8-4 14.85 14.85 0 0 1 -9.8 4zm0-21.6a7.76 7.76 0 1 0 -.7 15.5h.8a7.76 7.76 0 0 0 .7-15.5 1.1 1.1 0 0 0 -.8 0zm0 527.3a13.8 13.8 0 1 1 9.8-4 14.38 14.38 0 0 1 -9.8 4zm0-21.6a7.76 7.76 0 1 0 -.7 15.5h.8a7.76 7.76 0 0 0 .7-15.5zm502.9-483.2a13.8 13.8 0 1 1 9.8-4 14.85 14.85 0 0 1 -9.8 4zm0-21.6a7.76 7.76 0 1 0 -.7 15.5h.8a7.79 7.79 0 0 0 7.4-8.1 8.05 8.05 0 0 0 -7.5-7.4zm0 526.4a13.8 13.8 0 1 1 9.8-4 14.38 14.38 0 0 1 -9.8 4zm0-21.6a7.76 7.76 0 1 0 -.7 15.5h.8a7.79 7.79 0 0 0 7.4-8.1 8.05 8.05 0 0 0 -7.5-7.4zm-251.9 273.5a13.8 13.8 0 1 1 9.8-4 14.56 14.56 0 0 1 -9.8 4zm0-21.6a7.76 7.76 0 1 0 -.7 15.5h.8a7.76 7.76 0 0 0 .7-15.5zm-506.2 21.2a13.8 13.8 0 1 1 9.8-4 14.65 14.65 0 0 1 -9.8 4zm0-21.6a7.76 7.76 0 1 0 -.7 15.5h.8a7.79 7.79 0 0 0 7.4-8.1 8 8 0 0 0 -7.5-7.4zm378-598.6a16.84 16.84 0 1 1 .8 0zm-.5-28.4a11.11 11.11 0 1 0 11.6 10.6 11.15 11.15 0 0 0 -11.6-10.6zm-50.1 30.8a16.84 16.84 0 1 1 .8 0zm-.6-28.3a11.11 11.11 0 1 0 11.6 10.6 11 11 0 0 0 -11.6-10.6zm48.8-24.8a16.84 16.84 0 1 1 .8 0zm-.5-28.3a11.15 11.15 0 0 0 -10.6 11.6 10.79 10.79 0 0 0 3.6 7.7 11.32 11.32 0 0 0 8 2.9 11.15 11.15 0 0 0 10.6-11.6 10.79 10.79 0 0 0 -3.6-7.7 10.61 10.61 0 0 0 -8-2.9z"/><path d="m2578.9 911.9 22.4-1.1.3 6.1-22.4 1.1z"/><path d="m2610.8 877 6.1-.3 1.1 22.4-6.1.3z"/><path d="m2663.8 877.6a16.79 16.79 0 1 1 .9 0zm-11.1-16.7a11.59 11.59 0 1 0 0-.1zm15.6 109.8a16.79 16.79 0 1 1 .9 0zm-11.2-16.7a11.11 11.11 0 1 0 10.6-11.6 11.15 11.15 0 0 0 -10.6 11.6zm-44-74a17.26 17.26 0 1 1 .9 0zm0-28.4h-.6a11.15 11.15 0 0 0 -10.6 11.6 11 11 0 0 0 3.6 7.7 11.32 11.32 0 0 0 8 2.9 11.1 11.1 0 1 0 -.4-22.2z"/><path d="m2661.5 874.7 6.1-.3 3.1 64.8-6.1.3z"/><path d="m2627.2 858.8 22.4-1.1.3 6.1-22.4 1.1z"/><path d="m2846.1 950.5a17.52 17.52 0 1 1 2.1-.1 14.77 14.77 0 0 1 -2.1.1zm0-29.2h-1.4a11.52 11.52 0 1 0 1.4 0zm52 23.1a17.52 17.52 0 1 1 2.1-.1 14.77 14.77 0 0 1 -2.1.1zm-1.3-29.1a11.53 11.53 0 1 0 12.7 10 11.5 11.5 0 0 0 -12.7-10zm-56.8-16.7a17.52 17.52 0 1 1 2.1-.1c-.7 0-1.4.1-2.1.1zm-1.3-29.1a11.53 11.53 0 1 0 12.8 10.1v-.1a11.48 11.48 0 0 0 -12.8-10z"/><path d="m2860.3 927.9 22.9-2.7.7 6-22.9 2.7z"/><path d="m2838.7 895.6 6-.7 2.7 22.9-6 .7z"/><path d="m2364.2 1172.6h-.1a17.25 17.25 0 1 1 .1-34.5h.1a17.25 17.25 0 1 1 -.1 34.5zm0-28.3a11.1 11.1 0 1 0 11.1 11.1 11 11 0 0 0 -11.1-11.1zm50.8 28.7h-.1a17.28 17.28 0 0 1 -17.2-17.3 16.93 16.93 0 0 1 5.1-12.2 17.08 17.08 0 1 1 12.2 29.5zm0-6.1a7.85 7.85 0 1 1 .1-.1h-.1zm-51.1 56.5h-.1a17.21 17.21 0 0 1 .1-34.4h.1a17.21 17.21 0 0 1 -.1 34.4zm0-6.1a11.1 11.1 0 1 0 -11.1-11.1 11.14 11.14 0 0 0 11.1 11.1z"/><path d="m2378.2 1158.5v-6.1l22.4.1v6.1z"/><path d="m2360.9 1191.9.1-22.4h6.1l-.1 22.4z"/><path d="m2313.2 1223.1h-.1a17.25 17.25 0 1 1 .1 0zm0-28.4a11.1 11.1 0 1 0 11.1 11.1 11.14 11.14 0 0 0 -11.1-11.1zm.6-64.9h-.1a17.21 17.21 0 0 1 .1-34.4h.1a17.2 17.2 0 0 1 -.1 34.4zm0-28.3a11.1 11.1 0 1 0 11.1 11.1 11.14 11.14 0 0 0 -11.1-11.1zm50.1 121.9h-.1a17.21 17.21 0 0 1 .1-34.4h.1a17.2 17.2 0 0 1 -.1 34.4zm0-28.4a11.1 11.1 0 1 0 11.1 11.1 11.14 11.14 0 0 0 -11.1-11.1z"/><path d="m2310.1 1191.6.4-64.9h6.1l-.4 64.9z"/><path d="m2327.1 1208.9v-6.1l22.4.1v6.1z"/><path d="m2642.2 1197.8a18.11 18.11 0 1 1 3.4-.4 12.67 12.67 0 0 1 -3.4.4zm0-29.2a16.35 16.35 0 0 0 -2.2.2 11.56 11.56 0 1 0 2.2-.2zm-51.4 39.1a17.57 17.57 0 1 1 3.4-.3 18.7 18.7 0 0 1 -3.4.3zm0-29.2a16.35 16.35 0 0 0 -2.2.2 11.55 11.55 0 1 0 13.5 9.2 11.39 11.39 0 0 0 -11.3-9.4zm41.5-32.1a17.53 17.53 0 1 1 3.4-.3 18.7 18.7 0 0 1 -3.4.3zm0-29.2a16.35 16.35 0 0 0 -2.2.2 11.55 11.55 0 1 0 13.5 9.2 11.39 11.39 0 0 0 -11.3-9.4z"/><path d="m2604.6 1184.6 22.7-4.4 1.2 6-22.7 4.4z"/><path d="m2626.3 1139.6 6-1.2 4.6 22.6-6 1.2z"/><path d="m2879.5 1179.3a17.71 17.71 0 1 1 2.1-.2 14.92 14.92 0 0 1 -2.1.2zm-11.1-15.9a11.14 11.14 0 1 0 9.6-12.5 11.15 11.15 0 0 0 -9.6 12.5zm17.4 66.2a17.71 17.71 0 1 1 2.1-.2 7.49 7.49 0 0 1 -2.1.2zm-11.1-15.8a11.09 11.09 0 1 0 9.6-12.4 11.05 11.05 0 0 0 -9.6 12.4zm-45.6-28.2a17.7 17.7 0 1 1 2.2-.2c-.8.1-1.5.1-2.2.2zm0-28.4h-1.4a11.12 11.12 0 1 0 1.4 0z"/><path d="m2878.2 1176.6 6-.8 2.8 22.3-6 .8z"/><path d="m2842.7 1163.8 22.3-2.8.8 6-22.3 2.8z"/><path d="m2822.8 1135.2a17 17 0 1 1 2.2-.1c-.8 0-1.5.1-2.2.1zm0-28.3h-1.4a11.2 11.2 0 0 0 -9.7 12.4 11.18 11.18 0 0 0 12.4 9.7 11.08 11.08 0 0 0 9.4-12.6 11 11 0 0 0 -10.7-9.5zm92.5 16.7a16.87 16.87 0 1 1 2.2-.1 17 17 0 0 1 -2.2.1zm0-28.3h-1.4a11.13 11.13 0 0 0 2.7 22.1 11.08 11.08 0 0 0 9.4-12.6 11 11 0 0 0 -10.7-9.5zm-86.2 90.3a17.7 17.7 0 1 1 2.2-.2c-.8.1-1.5.1-2.2.2zm0-28.4h-1.4a11.13 11.13 0 0 0 2.7 22.1 11.08 11.08 0 0 0 9.4-12.6 11 11 0 0 0 -10.7-9.5z"/><path d="m2836.4 1113.5 64.4-8.1.8 6-64.4 8.1z"/><path d="m2821.5 1132.7 6-.8 2.8 22.3-6 .8z"/><path d="m2390.2 1455.7a17.65 17.65 0 1 1 17.6-17.6 17.65 17.65 0 0 1 -17.6 17.6zm0-29.2a11.55 11.55 0 1 0 11.5 11.5 11.44 11.44 0 0 0 -11.5-11.5zm.1-23.1a17.65 17.65 0 1 1 17.6-17.6 17.65 17.65 0 0 1 -17.6 17.6zm0-29.2a11.55 11.55 0 1 0 11.5 11.5 11.59 11.59 0 0 0 -11.5-11.5zm-52.4 81.4a17.65 17.65 0 1 1 17.6-17.6 17.65 17.65 0 0 1 -17.6 17.6zm0-29.2a11.55 11.55 0 1 0 11.5 11.5 11.52 11.52 0 0 0 -11.5-11.5z"/><path d="m2387.4 1423.5v-23.1h6.1v23.1z"/><path d="m2352.5 1441v-6.1h23.1v6.1z"/><path d="m2615.5 1435.6a16.84 16.84 0 1 1 .8 0zm-.5-28.3a11.11 11.11 0 1 0 11.6 10.6 11.15 11.15 0 0 0 -11.6-10.6zm-50.1 30.7a16.84 16.84 0 1 1 .8 0zm-.6-28.3a11.59 11.59 0 1 0 .1 0zm48.8-24.7a16.84 16.84 0 1 1 .8 0zm-.5-28.4a11.15 11.15 0 0 0 -10.6 11.6 10.79 10.79 0 0 0 3.6 7.7 11.18 11.18 0 0 0 15.7-.7 11.32 11.32 0 0 0 2.9-8 11 11 0 0 0 -11.6-10.6z"/><path d="m2579 1416.9 22.4-1.1.3 6.1-22.4 1.1z"/><path d="m2610.8 1382 6.1-.3 1.1 22.4-6.1.3z"/><path d="m2663.8 1382.5a16.84 16.84 0 1 1 1 0zm-11.1-16.7a11.59 11.59 0 1 0 0-.1zm15.6 109.9a16.79 16.79 0 1 1 .9 0zm-11.1-16.7a11.11 11.11 0 1 0 10.6-11.6 11.15 11.15 0 0 0 -10.6 11.6zm-44.1-74a16.84 16.84 0 1 1 .8 0zm0-28.4h-.6a11.44 11.44 0 1 0 .6 0z"/><path d="m2661.5 1379.7 6.1-.3 3.1 64.8-6.1.3z"/><path d="m2627.2 1363.8 22.4-1.1.3 6.1-22.4 1.1z"/><path d="m2844.5 1414a18 18 0 1 1 6-1.2 17.65 17.65 0 0 1 -6 1.2zm0-29.2a11.55 11.55 0 1 0 11.6 11.5 10.88 10.88 0 0 0 -.7-4 11.56 11.56 0 0 0 -10.9-7.5zm18 78.3a17.69 17.69 0 1 1 6-1.1 17.25 17.25 0 0 1 -6 1.1zm0-29.2a11.6 11.6 0 1 0 11.6 11.6 10.88 10.88 0 0 0 -.7-4 11.55 11.55 0 0 0 -10.9-7.6zm31.1-37.9a17.69 17.69 0 1 1 6-1.1 23.59 23.59 0 0 1 -6 1.1zm0-29.2a11.55 11.55 0 1 0 11.5 11.6 10.88 10.88 0 0 0 -.7-4 11.33 11.33 0 0 0 -10.8-7.6z"/><path d="m2844.4 1426.1 5.7-2.1 7.9 21.7-5.7 2.1z"/><path d="m2857.2 1388.5 21.7-7.9 2.1 5.7-21.7 7.9z"/><path d="m2375.6 1673.9a17.29 17.29 0 1 1 7.7-1.9 17.51 17.51 0 0 1 -7.7 1.9zm0-28.4a10.84 10.84 0 0 0 -5 1.2 11.07 11.07 0 1 0 14.9 4.8 11.3 11.3 0 0 0 -9.9-6zm45.3 5.4a17.26 17.26 0 0 1 -17.3-17.1 17.22 17.22 0 1 1 25 15.3 19.26 19.26 0 0 1 -7.7 1.8zm0-28.4a10.84 10.84 0 0 0 -5 1.2 11.16 11.16 0 1 0 15 4.9 11.43 11.43 0 0 0 -10-6.1zm-68.3 6a17.28 17.28 0 1 1 7.8-1.9 16.35 16.35 0 0 1 -7.8 1.9zm0-28.3a10.84 10.84 0 0 0 -5 1.2 11.16 11.16 0 1 0 15 4.9 11 11 0 0 0 -10-6.1z"/><path d="m2386.8 1647.4 20-10.1 2.7 5.4-20 10.1z"/><path d="m2356.3 1625.3 5.4-2.7 10.1 20-5.4 2.7z"/><path d="m2307.4 1651.4a17.29 17.29 0 1 1 7.8-1.9 16.64 16.64 0 0 1 -7.8 1.9zm0-28.3a11.15 11.15 0 1 0 11.2 11.1 10.84 10.84 0 0 0 -1.2-5 11.17 11.17 0 0 0 -10-6.1zm42 111.5a17.28 17.28 0 1 1 7.8-1.9 16.35 16.35 0 0 1 -7.8 1.9zm0-28.3a11.15 11.15 0 1 0 11.2 11.1 10.55 10.55 0 0 0 -1.2-5 11.13 11.13 0 0 0 -10-6.1zm3.2-77.8a17.2 17.2 0 1 1 0-34.4 17.16 17.16 0 0 1 7.7 32.5 18.23 18.23 0 0 1 -7.7 1.9zm0-28.3a11.15 11.15 0 1 0 11.2 11.1 11.13 11.13 0 0 0 -11.2-11.1z"/><path d="m2311.1 1648 5.4-2.7 29.3 57.9-5.4 2.7z"/><path d="m2318.6 1625.1 20-10.1 2.7 5.4-20 10.1z"/><path d="m2616.5 1700.5a17.58 17.58 0 1 1 12.4-5.1 17.63 17.63 0 0 1 -12.4 5.1zm0-29.2a11.53 11.53 0 0 0 -8.2 19.7 11.84 11.84 0 0 0 16.4 0 11.5 11.5 0 0 0 -8.2-19.7zm37-7.8a17.58 17.58 0 1 1 12.4-5.1 17.22 17.22 0 0 1 -12.4 5.1zm0-29.2a11.61 11.61 0 1 0 8.2 3.4 11.33 11.33 0 0 0 -8.2-3.4zm-73.9 29.2a17.58 17.58 0 1 1 12.4-5.1 17.63 17.63 0 0 1 -12.4 5.1zm0-29.2a11.44 11.44 0 1 0 8.2 3.3 12 12 0 0 0 -8.2-3.3z"/><path d="m2624.7 1670.4 16.3-16.3 4.3 4.3-16.3 16.3z"/><path d="m2587.8 1658.4 4.3-4.3 16.3 16.3-4.3 4.3z"/><path d="m2880.5 1689.3a16 16 0 0 1 -7.7-1.9 17 17 0 1 1 7.7 1.9zm-5-7.2a11.15 11.15 0 1 0 -5.5-6.4 11.51 11.51 0 0 0 5.5 6.4zm50.3 30.1a17.2 17.2 0 1 1 17.2-17.2 16 16 0 0 1 -1.9 7.7 16.76 16.76 0 0 1 -15.3 9.5zm0-28.3a11.16 11.16 0 0 0 -5.1 21.1 11.09 11.09 0 0 0 10-19.8 9.47 9.47 0 0 0 -4.9-1.3zm-68.2 50.7a16 16 0 0 1 -7.7-1.9 17.08 17.08 0 1 1 23-7.4 17.35 17.35 0 0 1 -15.3 9.3zm0-28.3a11.16 11.16 0 0 0 -5.1 21.1 11.09 11.09 0 1 0 10-19.8 9.47 9.47 0 0 0 -4.9-1.3z"/><path d="m2861.3 1703.5 10.1-20 5.4 2.7-10.1 20z"/><path d="m2812.3 1711.7a17.2 17.2 0 1 1 17.2-17.2 16 16 0 0 1 -1.9 7.7 16.94 16.94 0 0 1 -15.3 9.5zm0-28.3a11.18 11.18 0 1 0 4.9 1.2 10.44 10.44 0 0 0 -4.9-1.2zm42.1-54.9a17.31 17.31 0 1 1 5.4-.9 14.59 14.59 0 0 1 -5.4.9zm0-28.3a11.13 11.13 0 1 0 5 1.2 10.55 10.55 0 0 0 -5-1.2zm3.2 134.4a17.31 17.31 0 1 1 5.4-.9 17 17 0 0 1 -5.4.9zm0-28.3a11.18 11.18 0 1 0 4.9 1.2 10.44 10.44 0 0 0 -4.9-1.2z"/><path d="m2816 1680.6 29.3-57.9 5.4 2.7-29.3 57.9z"/><path d="m2823.6 1703.7 2.7-5.4 20 10.1-2.7 5.4z"/></g></svg>