<svg enable-background="new 0 0 176 194" viewBox="0 0 176 194" xmlns="http://www.w3.org/2000/svg"><path d="m40.7 108h94.5v31.1h-94.5z" fill="#f22f66"/><path d="m135.3 139.1h-63.4l31.1-31.1h32.3z" fill="#e2205c"/><path d="m88 38.5c-2.4 0-4.4-2-4.4-4.4v-29.7c0-2.4 2-4.4 4.4-4.4s4.4 2 4.4 4.4v29.7c0 2.4-2 4.4-4.4 4.4z" fill="#f9f9f9"/><path d="m170.8 80.8c0 3.9-3.2 7.1-7.2 7.1-3.9 0-7.1-3.2-7.2-7.1v-17.8c0-3.9 3.2-7.1 7.2-7.1 3.9 0 7.1 3.2 7.2 7.1z" fill="#f22f66"/><path d="m163.8 87.1c0 3.9-3.2 7.1-7.2 7.1-3.9 0-7.1-3.2-7.2-7.1v-30.4c0-3.9 3.2-7.1 7.2-7.1 3.9 0 7.1 3.2 7.2 7.1z" fill="#e2e2e2"/><path d="m5.2 80.8c0 3.9 3.2 7.1 7.2 7.1 3.9 0 7.1-3.2 7.2-7.1v-17.8c0-3.9-3.2-7.1-7.2-7.1-3.9 0-7.1 3.2-7.2 7.1z" fill="#f22f66"/><path d="m12.2 87.1c0 3.9 3.2 7.1 7.2 7.1 3.9 0 7.1-3.2 7.2-7.1v-30.4c0-3.9-3.2-7.1-7.2-7.1-3.9 0-7.1 3.2-7.2 7.1z" fill="#e2e2e2"/><path d="m20.4 134.4h135.3v59.6h-135.3z" fill="#f9f9f9"/><circle cx="20.4" cy="154.7" fill="#f9f9f9" r="20.4"/><circle cx="155.6" cy="154.7" fill="#ededed" r="20.4"/><path d="m0 154.7h139.5v39.3h-139.5z" fill="#f9f9f9"/><path d="m136.7 154.7h39.3v39.3h-39.3z" fill="#ededed"/><path d="m155.6 194h-96.7l59.1-59.6h37.6z" fill="#ededed"/><circle cx="88" cy="164.6" fill="#e2205c" r="10"/><path d="m88 154.6c-5.5 0-10 4.5-10 10 0 2.7 1.1 5.2 2.9 7.1l14.1-14.1c-1.8-1.9-4.3-3-7-3z" fill="#f22f66"/><circle cx="118" cy="164.6" fill="#e2205c" r="10"/><path d="m118 154.6c-5.5 0-10 4.5-10 10 0 2.7 1.1 5.2 2.9 7.1l14.1-14.1c-1.8-1.9-4.3-3-7-3z" fill="#f22f66"/><circle cx="58" cy="164.6" fill="#e2205c" r="10"/><path d="m58 154.6c-5.5 0-10 4.5-10 10 0 2.7 1.1 5.2 2.9 7.1l14.1-14.1c-1.8-1.9-4.3-3-7-3z" fill="#f22f66"/><circle cx="135" cy="43" fill="#ededed" r="17.9"/><circle cx="41" cy="43" fill="#f9f9f9" r="17.9"/><circle cx="135" cy="108.8" fill="#ededed" r="17.9"/><circle cx="41" cy="108.8" fill="#f9f9f9" r="17.9"/><path d="m23.1 43h129.7v65.8h-129.7z" fill="#f9f9f9"/><path d="m124.5 43h28.3v65.8h-28.3z" fill="#ededed"/><path d="m41 25.1h93.9v46.2h-93.9z" fill="#f9f9f9"/><path d="m135 126.7h-94l94-101.6z" fill="#ededed"/><path d="m48.9 162.7 78.2-78.3" fill="none"/><g fill="#00c9a2"><path d="m64 82.5c-.6 0-1.2-.2-1.6-.7l-9.2-9.2c-.9-.9-.9-2.3 0-3.2.9-.9 2.3-.9 3.2 0l9.2 9.2c.9.9.9 2.3 0 3.2-.4.5-1 .7-1.6.7z"/><path d="m54.8 82.5c-1.2 0-2.3-1-2.3-2.3 0-.6.2-1.2.7-1.6l9.2-9.2c.9-.9 2.3-.9 3.2 0s.9 2.3 0 3.2l-9.2 9.2c-.5.5-1 .7-1.6.7z"/><path d="m121.2 82.5c-.6 0-1.2-.2-1.6-.7l-9.2-9.2c-.9-.9-.9-2.3 0-3.2.9-.9 2.3-.9 3.2 0l9.2 9.2c.9.9.9 2.3 0 3.2-.4.5-1 .7-1.6.7z"/><path d="m112 82.5c-1.2 0-2.3-1-2.3-2.3 0-.6.2-1.2.7-1.6l9.2-9.2c.9-.9 2.3-.9 3.2 0s.9 2.3 0 3.2l-9.2 9.2c-.4.5-1 .7-1.6.7z"/></g></svg>