<?xml version="1.0" encoding="utf-8"?>
<!-- Generator: Adobe Illustrator 21.1.0, SVG Export Plug-In . SVG Version: 6.00 Build 0)  -->
<svg version="1.1" id="Layer_1" xmlns="http://www.w3.org/2000/svg" xmlns:xlink="http://www.w3.org/1999/xlink" x="0px" y="0px"
	 viewBox="0 0 176 194" style="enable-background:new 0 0 176 194;" xml:space="preserve">
<style type="text/css">
	.st0{fill:#F22F66;}
	.st1{fill:#E2205C;}
	.st2{fill:#F9F9F9;}
	.st3{fill:#E2E2E2;}
	.st4{fill:#EDEDED;}
	.st5{fill:none;}
	.st6{fill:#00C9A2;}
</style>
<title>Error - Gray</title>
<rect x="40.7" y="108" class="st0" width="94.5" height="31.1"/>
<polygon class="st1" points="135.3,139.1 71.9,139.1 103,108 135.3,108 "/>
<path class="st2" d="M88,38.5c-2.4,0-4.4-2-4.4-4.4l0,0V4.4C83.6,2,85.6,0,88,0s4.4,2,4.4,4.4v29.7C92.4,36.5,90.4,38.5,88,38.5z"/>
<path class="st0" d="M170.8,80.8c0,3.9-3.2,7.1-7.2,7.1l0,0l0,0c-3.9,0-7.1-3.2-7.2-7.1l0,0V63c0-3.9,3.2-7.1,7.2-7.1l0,0l0,0
	c3.9,0,7.1,3.2,7.2,7.1l0,0V80.8z"/>
<path class="st3" d="M163.8,87.1c0,3.9-3.2,7.1-7.2,7.1l0,0l0,0c-3.9,0-7.1-3.2-7.2-7.1l0,0V56.7c0-3.9,3.2-7.1,7.2-7.1l0,0l0,0
	c3.9,0,7.1,3.2,7.2,7.1l0,0V87.1z"/>
<path class="st0" d="M5.2,80.8c0,3.9,3.2,7.1,7.2,7.1l0,0l0,0c3.9,0,7.1-3.2,7.2-7.1l0,0V63c0-3.9-3.2-7.1-7.2-7.1l0,0l0,0
	c-3.9,0-7.1,3.2-7.2,7.1l0,0C5.2,63,5.2,80.8,5.2,80.8z"/>
<path class="st3" d="M12.2,87.1c0,3.9,3.2,7.1,7.2,7.1l0,0l0,0c3.9,0,7.1-3.2,7.2-7.1l0,0V56.7c0-3.9-3.2-7.1-7.2-7.1l0,0l0,0
	c-3.9,0-7.1,3.2-7.2,7.1l0,0C12.2,56.7,12.2,87.1,12.2,87.1z"/>
<rect x="20.4" y="134.4" class="st2" width="135.3" height="59.6"/>
<circle class="st2" cx="20.4" cy="154.7" r="20.4"/>
<circle class="st4" cx="155.6" cy="154.7" r="20.4"/>
<rect y="154.7" class="st2" width="139.5" height="39.3"/>
<rect x="136.7" y="154.7" class="st4" width="39.3" height="39.3"/>
<polygon class="st4" points="155.6,194 58.9,194 118,134.4 155.6,134.4 "/>
<circle class="st1" cx="88" cy="164.6" r="10"/>
<path class="st0" d="M88,154.6c-5.5,0-10,4.5-10,10c0,2.7,1.1,5.2,2.9,7.1L95,157.6C93.2,155.7,90.7,154.6,88,154.6z"/>
<circle class="st1" cx="118" cy="164.6" r="10"/>
<path class="st0" d="M118,154.6c-5.5,0-10,4.5-10,10c0,2.7,1.1,5.2,2.9,7.1l14.1-14.1C123.2,155.7,120.7,154.6,118,154.6z"/>
<circle class="st1" cx="58" cy="164.6" r="10"/>
<path class="st0" d="M58,154.6c-5.5,0-10,4.5-10,10c0,2.7,1.1,5.2,2.9,7.1L65,157.6C63.2,155.7,60.7,154.6,58,154.6z"/>
<circle class="st4" cx="135" cy="43" r="17.9"/>
<circle class="st2" cx="41" cy="43" r="17.9"/>
<circle class="st4" cx="135" cy="108.8" r="17.9"/>
<circle class="st2" cx="41" cy="108.8" r="17.9"/>
<rect x="23.1" y="43" class="st2" width="129.7" height="65.8"/>
<rect x="124.5" y="43" class="st4" width="28.3" height="65.8"/>
<rect x="41" y="25.1" class="st2" width="93.9" height="46.2"/>
<polygon class="st4" points="135,126.7 41,126.7 135,25.1 "/>
<line class="st5" x1="48.9" y1="162.7" x2="127.1" y2="84.4"/>
<path class="st6" d="M64,82.5c-0.6,0-1.2-0.2-1.6-0.7l-9.2-9.2c-0.9-0.9-0.9-2.3,0-3.2l0,0c0.9-0.9,2.3-0.9,3.2,0l9.2,9.2
	c0.9,0.9,0.9,2.3,0,3.2C65.2,82.3,64.6,82.5,64,82.5z"/>
<path class="st6" d="M54.8,82.5c-1.2,0-2.3-1-2.3-2.3c0-0.6,0.2-1.2,0.7-1.6l9.2-9.2c0.9-0.9,2.3-0.9,3.2,0c0.9,0.9,0.9,2.3,0,3.2
	l0,0l-9.2,9.2C55.9,82.3,55.4,82.5,54.8,82.5z"/>
<path class="st6" d="M121.2,82.5c-0.6,0-1.2-0.2-1.6-0.7l-9.2-9.2c-0.9-0.9-0.9-2.3,0-3.2l0,0c0.9-0.9,2.3-0.9,3.2,0l9.2,9.2
	c0.9,0.9,0.9,2.3,0,3.2C122.4,82.3,121.8,82.5,121.2,82.5z"/>
<path class="st6" d="M112,82.5c-1.2,0-2.3-1-2.3-2.3c0-0.6,0.2-1.2,0.7-1.6l9.2-9.2c0.9-0.9,2.3-0.9,3.2,0c0.9,0.9,0.9,2.3,0,3.2
	l0,0l-9.2,9.2C113.2,82.3,112.6,82.5,112,82.5z"/>
</svg>
