<svg id="Layer_1" data-name="Layer 1" xmlns="http://www.w3.org/2000/svg" xmlns:xlink="http://www.w3.org/1999/xlink" width="2719" height="2521" viewBox="0 0 2719 2521"><defs><clipPath id="clip-path"><rect x="-292.33" width="1489.46" height="1381" style="fill:none"/></clipPath></defs><title>sidebar-bg</title><g id="Header_Image" data-name="Header Image" style="opacity:0.54"><g style="clip-path:url(#clip-path)"><g style="opacity:0.19"><path d="M-236.58-142.66c73.9,98.71,355.39,409.37,408.63,438.22,21.22,11.5,41.55,21.48,63.5,29.93,64.42,24.77,96.19-52.09,155.77,5.84,76.55,74.43,118.19-25.57,174.05-18,102.79,14,149.11,113.82,200.59,94.4,33.7-12.71-89.55-280.76-149.18-310-178.63-87.59-20.56-130.35-265-179.62C99.78-132.66-344.26-286.48-236.58-142.66Z" style="fill:#d1395d"/><path d="M598.07,375.33a22.93,22.93,0,0,0-11.53-11.43c-7.08-3.32-15-3.51-22.7-3.14-7.92.38-15.84.85-23.75,1.28-2.55.14-5.1.28-7.65.45-3-.54-6.07-1.09-9.11-1.62-4.86-.84-9.66-1.51-14.59-.74a18.07,18.07,0,0,0-12.14,7.28c-4.08,2.68-8.16,5.36-12.18,8.13-4.93,3.4-9.49,7.45-11.68,13-2.11,5.33-1.63,11.63,2.13,16.18,3.54,4.28,9.35,5.86,14.85,5.41s10.42-2.61,15.68-4.31c3.48-1.12,9.47-3.12,12.34.16s1.64,8.95,1.79,12.74a25.77,25.77,0,0,0,5.2,15.3,26.21,26.21,0,0,0,42.59-2.1c3.23-5.22,2.85-11.39,5.59-16.68,2.35-4.54,7.06-7.67,11.12-10.68,4.67-3.46,9.31-7.2,12.31-12.18C599.5,387.14,600.44,381.05,598.07,375.33Z" style="fill:#d1395d"/><path d="M823.89,214.88c4.22-22.16,8.19-41.78,25.74-74.42C876.57,90.38,922.92,33,943.17,8.15c47.41-58.3,78.34-88,71.76-97.17-5.87-8.16-33.51,11.38-51.52,8.52-26.11-4.15-6.14-51.33,33.29-96.64,33.71-38.72,55.81-46.41,92-86.5,36.77-40.67,32.89-53.63,58.72-103.76,14-27.12,60.59-117.57,112-151.61,45-29.83,87.65-12.34,105.57,9.58,8.74,10.68,37.29,53.81-67.89,246.43-90,164.76-142.41,191-178.45,291.17C1088.94,110.85,1108.6,137.6,1043,202,991.84,252.25,910.53,304,864,317.07,801.09,334.67,811.72,278.82,823.89,214.88Z" style="fill:#eab93f"/><path d="M981.53-60.45a9.15,9.15,0,0,0-1.27-7.6,4.44,4.44,0,0,0-5.83-1,4.94,4.94,0,0,0-.49.3l-.39.08-32.19,8.6c-9.77,2.61-19.7,5.86-29.37,6.67a33.3,33.3,0,0,1-13.46-1.33c-4.17-1.38-8.09-3.48-12.32-4.69-8.56-2.43-18.15,0-25.9,10a50,50,0,0,0-9.94,33.71c1,11.42,6,20.28,13.44,24.64,7.6,4.48,16.56,4.86,25.68,2.16C898.87,8.31,908.13,2.42,917-3.86c11-7.74,21.88-15.81,32.8-23.76,9.85-7.16,19.49-14.81,27.43-26.11A11.53,11.53,0,0,0,981.53-60.45Z" style="fill:#eab93f"/><path d="M879.54,62.54c-.07-6.1-.07-12.22-.23-18.32-.15-5.43-.1-11.86-3.72-16C871.71,23.82,865.27,25,860.15,25c-5.5,0-11.11-.4-16.55.93a27,27,0,0,0-12.81,8c-3.63,3.83-6.21,9.1-5.87,14.73a17.75,17.75,0,0,0,6.59,13,19.09,19.09,0,0,0,6.11,3c.55.18,1.15.32,1.75.46a5,5,0,0,1,1.55,3.44A11.3,11.3,0,0,1,840,72.8,27,27,0,0,1,835.34,78c-1.91.94-4.06,1.37-6.06,2.19a13.71,13.71,0,0,0-6.78,5.88A10.17,10.17,0,0,0,819,90.6c-2.67,6.44,1.45,13.11,6.4,16.09s10.89,3,16.15,1c5.46-2,10.09-6,14.33-10.21,1.71-1.71,3.33-3.5,4.88-5.38,1.11-.63,2.21-1.27,3.31-1.91,4.43-2.6,9.59-5.06,12.66-9.68C880.25,75.26,879.6,68.69,879.54,62.54Z" style="fill:#eab93f"/><path d="M701.15,485.63c138.68-18.73,143.12,37,73.89,73.22-24.82,13-58.82,23.06-70.06,34-16.49,16.09,46,4.95,51.53,19.42,6.87,17.87-77.07,64.35-163.44,95.47-51.3,18.48-68.07,18.79-103.83,34.37-55.32,24.09-78,50.69-62.31,62.09,15.52,11.27,56.51-1.05,83.86,6.44,40.17,11,9.93,53.54-72.92,92.33-67.83,31.75-131,42.31-185.09,73.21-23.24,13.29-23.26,18-44.62,39.57-42.35,42.73-89.64,58.79-84.79,70.74,5.5,13.58,57.33-.24,67.57,11.37,15.92,18.05-86,77.83-166.37,99.4-90.88,24.39-141-3.61-175.44-22.82-20.34-11.35-52.59-30.36-40.4-72.61,6.13-21.25,22-43.21,176.38-173.16C159.39,782,202.61,756.56,201,722.1c-1.09-23.69-22.24-27.4,9.78-52.69C277.83,616.46,539.7,507.44,701.15,485.63Z" style="fill:#57c6a4"/><path d="M804,597.16c-1.45-1.43-4.32-2.39-5.53-3.85-.82-1,.14-2.39.43-3.44a8.29,8.29,0,0,0-.18-6c-1.87-3.82-7.41-6.12-13.38-7-12.75-1.87-25.13,3.42-24.33,11.92.7,7.33,9.39,11.33,19.08,13.91a16.53,16.53,0,0,0,12.27,6.56c6.38.56,12.65-1.81,14-5.87C807,601.26,805.79,599,804,597.16Z" style="fill:#57c6a4"/><path d="M648.45,769.21c-6.59-2.22-14.14-3.34-21.22-4.75-7.65-1.53-15.29-3.08-22.94-4.59-14.85-2.93-29.9-5.59-45.38-6.83-15.65-1.24-33.07-1.12-46.14,5.17-11,5.28-16.2,15.71-8.89,23.47a8.7,8.7,0,0,0,5.7,2.52,9.71,9.71,0,0,0,1.89.16,148,148,0,0,1,24.74,1.76c1.12.22,2.24.41,3.37.57q6.58,1.2,13,3,1,.57,1.92,1.17c8.81,5.62,13.88,12.16,19.59,19A39.15,39.15,0,0,0,602,824.63c14.43,1.35,28.25-3.71,37.53-10.25s19-14.69,22.11-23.27C664.57,783,660.92,773.41,648.45,769.21Z" style="fill:#57c6a4;opacity:0"/><path d="M676.44,732.39c-3.87-5.77-13.22-10.25-23.21-10.86a66.37,66.37,0,0,0-21.68,2.53l-1.91-.12c-12.68-.74-29-2.47-37.26,5.45A6.67,6.67,0,0,0,590,734.3a1.93,1.93,0,0,0-.21.84l.2,1.6a.84.84,0,0,1,.05.17c0,.05.13.3.28.59a5.68,5.68,0,0,0,1,1.64,10.48,10.48,0,0,0,3.75,2.75,13.44,13.44,0,0,0,2.87,1,12.28,12.28,0,0,0,5.09,1.25l20.09.6q5.31,1.51,10.67,3c10.68,2.87,22.66,4.55,33.4.84C676.45,745.33,680.55,738.5,676.44,732.39Z" style="fill:#57c6a4;opacity:0"/></g></g></g></svg>