<svg id="Layer_1" data-name="Layer 1" xmlns="http://www.w3.org/2000/svg" viewBox="0 0 512 512"><defs><style>.cls-1{fill:#00c9a2;}.cls-2{fill:#009e81;}.cls-3{fill:#d4127f;}.cls-4{fill:#fff;}</style></defs><title>Arc-Flat</title><path class="cls-1" d="M91.6,420.4C.8,329.59.8,182.4,91.6,91.6s238-90.8,328.8,0"/><path class="cls-2" d="M420.39,91.59c90.81,90.8,90.81,238,0,328.8s-238,90.8-328.8,0"/><path class="cls-3" d="M193.84,396.28a3.29,3.29,0,1,1-3.28,3.28,3.28,3.28,0,0,1,3.28-3.28m0-10.58a13.88,13.88,0,1,0,13.91,13.87,13.88,13.88,0,0,0-13.91-13.87Z"/><path class="cls-4" d="M174.6,234.54c0,2.76-.85,5-1.89,5s-1.88-2.25-1.88-5,.85-5,1.88-5S174.6,231.74,174.6,234.54Z"/><path class="cls-4" d="M177.3,234.72c0,2.78-.82,5-1.88,5s-1.88-2.25-1.88-5,.86-5,1.88-5S177.33,232,177.3,234.72Z"/><path class="cls-4" d="M180.45,234.54c0,2.77-.86,5-1.87,5s-1.88-2.24-1.88-5,.84-5,1.88-5S180.45,231.76,180.45,234.54Z"/><path class="cls-4" d="M183.18,234.72c0,2.78-.82,5-1.9,5s-1.87-2.24-1.87-5,.83-5,1.87-5S183.18,232,183.18,234.72Z"/><path class="cls-4" d="M186.09,235c0,2.75-.85,5-1.86,5s-1.87-2.26-1.87-5,.82-5,1.87-5S186.09,232.19,186.09,235Z"/><path class="cls-4" d="M189.22,234.54c0,2.77-.82,5-1.88,5s-1.88-2.24-1.88-5,.86-5,1.88-5S189.23,231.74,189.22,234.54Z"/><path class="cls-4" d="M192,234.72c0,2.79-.86,5-1.9,5s-1.87-2.24-1.87-5,.81-5,1.87-5S192,231.94,192,234.72Z"/><path class="cls-4" d="M195.1,234.54c0,2.77-.85,5-1.92,5s-1.88-2.25-1.88-5,.88-5,1.91-5S195.07,231.74,195.1,234.54Z"/><path class="cls-4" d="M197.81,234.75c0,2.75-.87,5-1.91,5s-1.83-2.24-1.83-5,.84-5,1.83-5S197.81,232,197.81,234.75Z"/><path class="cls-4" d="M200.74,234.95c0,2.78-.85,5-1.89,5s-1.87-2.26-1.89-5,.85-5,1.89-5S200.74,232.19,200.74,234.95Z"/><path class="cls-4" d="M203.24,234.31c0,2.78-.82,5-1.86,5s-1.91-2.23-1.91-5,.88-5,1.88-5S203.24,231.54,203.24,234.31Z"/><path class="cls-4" d="M206,234.55c0,2.75-.88,5-1.91,5s-1.92-2.24-1.92-5,.84-5,2-5S206,231.74,206,234.55Z"/><path class="cls-4" d="M209.08,234.32c0,2.78-.82,5-1.87,5s-1.9-2.23-1.9-5,.89-5,1.9-5S209.08,231.54,209.08,234.32Z"/><path class="cls-4" d="M211.83,234.54c0,2.76-.84,5-1.91,5s-1.86-2.24-1.86-5,.83-5,1.86-5S211.83,231.74,211.83,234.54Z"/><path class="cls-4" d="M214.75,234.72c0,2.79-.86,5-1.88,5s-1.88-2.25-1.88-5,.84-5,1.88-5S214.78,232,214.75,234.72Z"/><path class="cls-4" d="M295.24,234.54c0,2.77-.82,5-1.87,5s-1.9-2.24-1.9-5,.84-5,1.9-5S295.24,231.76,295.24,234.54Z"/><path class="cls-4" d="M298,234.72c0,2.78-.84,5-1.89,5s-1.89-2.25-1.89-5,.88-5,1.89-5S298,232,298,234.72Z"/><path class="cls-4" d="M301.09,234.54c0,2.78-.83,5-1.86,5s-1.87-2.24-1.87-5,.83-5,1.88-5S301.09,231.74,301.09,234.54Z"/><path class="cls-4" d="M303.83,234.75c0,2.75-.85,5-1.88,5s-1.89-2.24-1.87-5,.81-5,1.86-5S303.83,232,303.83,234.75Z"/><path class="cls-4" d="M306.76,235c0,2.75-.84,5-1.87,5s-1.91-2.25-1.91-5,.87-5,1.92-5S306.76,232.19,306.76,235Z"/><path class="cls-4" d="M309.89,234.54c0,2.77-.83,5-1.88,5s-1.88-2.24-1.86-5,.82-5,1.86-5S309.89,231.76,309.89,234.54Z"/><path class="cls-4" d="M312.61,234.75c0,2.75-.82,5-1.88,5s-1.9-2.23-1.88-5,.88-5,1.88-5S312.61,232,312.61,234.75Z"/><path class="cls-4" d="M315.78,234.54c0,2.77-.88,5-1.91,5s-1.86-2.24-1.86-5,.79-5,1.86-5S315.78,231.76,315.78,234.54Z"/><path class="cls-4" d="M318.48,234.75c0,2.75-.85,5-1.9,5s-1.87-2.24-1.87-5,.85-5,1.87-5S318.48,232,318.48,234.75Z"/><path class="cls-4" d="M321.41,235c0,2.75-.83,5-1.91,5s-1.87-2.26-1.87-5,.85-5,1.87-5S321.41,232.19,321.41,235Z"/><path class="cls-4" d="M323.9,234.32c0,2.78-.83,5-1.87,5s-1.91-2.21-1.91-5,.86-5,1.91-5S323.9,231.54,323.9,234.32Z"/><path class="cls-4" d="M326.63,234.54c0,2.76-.83,5-1.91,5s-1.86-2.24-1.86-5,.88-5,1.86-5S326.63,231.74,326.63,234.54Z"/><path class="cls-4" d="M329.77,234.32c0,2.78-.87,5-1.87,5s-1.89-2.23-1.92-5,.83-5,1.92-5S329.77,231.54,329.77,234.32Z"/><path class="cls-4" d="M332.49,234.54c0,2.77-.88,5-1.9,5s-1.88-2.24-1.87-5,.82-5,1.87-5S332.49,231.76,332.49,234.54Z"/><path class="cls-4" d="M335.43,234.72c0,2.78-.82,5-1.87,5s-1.91-2.23-1.91-5,.85-5,1.88-5S335.43,232,335.43,234.72Z"/><path class="cls-4" d="M235.23,233.89c0,2.8-.81,5-1.88,5s-1.88-2.26-1.87-5,.85-5,1.87-5S235.23,231.14,235.23,233.89Z"/><path class="cls-4" d="M237.94,234.12c0,2.76-.82,5-1.87,5s-1.87-2.25-1.87-5,.82-5,1.87-5S237.94,231.35,237.94,234.12Z"/><path class="cls-4" d="M241.09,233.89c0,2.78-.85,5-1.91,5s-1.86-2.25-1.86-5,.87-5,1.86-5S241.09,231.14,241.09,233.89Z"/><path class="cls-4" d="M243.79,234.11c0,2.76-.79,5-1.83,5s-1.9-2.25-1.9-5,.85-5,1.9-5S243.79,231.32,243.79,234.11Z"/><path class="cls-4" d="M246.73,234.32c0,2.78-.86,5-1.89,5s-1.84-2.23-1.84-5,.84-5,1.84-5S246.73,231.54,246.73,234.32Z"/><path class="cls-4" d="M249.85,233.89c0,2.78-.85,5-1.85,5s-1.88-2.25-1.88-5,.83-5,1.88-5S249.85,231.14,249.85,233.89Z"/><path class="cls-4" d="M252.61,234.11c0,2.77-.84,5-1.89,5s-1.87-2.25-1.87-5,.83-5,1.87-5S252.58,231.35,252.61,234.11Z"/><path class="cls-4" d="M255.75,233.89c0,2.78-.84,5-1.88,5s-1.9-2.25-1.9-5,.86-5,1.89-5S255.75,231.14,255.75,233.89Z"/><path class="cls-4" d="M258.47,234.11c0,2.76-.88,5-1.88,5s-1.92-2.25-1.92-5,.87-5,1.91-5S258.45,231.35,258.47,234.11Z"/><path class="cls-4" d="M261.37,234.32c0,2.78-.83,5-1.87,5s-1.91-2.23-1.91-5,.85-5,1.91-5S261.35,231.54,261.37,234.32Z"/><path class="cls-4" d="M263.88,233.68c0,2.78-.84,5-1.86,5s-1.88-2.26-1.88-5,.82-5,1.88-5S263.88,230.92,263.88,233.68Z"/><path class="cls-4" d="M266.59,233.89c0,2.78-.82,5-1.87,5s-1.88-2.25-1.88-5,.84-5,1.88-5S266.59,231.14,266.59,233.89Z"/><path class="cls-4" d="M269.77,233.68c0,2.78-.88,5-1.88,5s-1.92-2.23-1.92-5,.87-5,1.92-5S269.76,230.92,269.77,233.68Z"/><path class="cls-4" d="M272.47,233.89c0,2.78-.85,5-1.88,5s-1.9-2.25-1.9-5,.87-5,1.9-5S272.47,231.14,272.47,233.89Z"/><path class="cls-4" d="M275.38,234.11c0,2.76-.84,5-1.85,5s-1.91-2.25-1.91-5,.85-5,1.91-5S275.36,231.35,275.38,234.11Z"/><polyline class="cls-4" points="179.51 413.93 177.42 428.2 178.32 435.38 181.56 428.57 183.8 414.49"/><path class="cls-4" d="M347.8,408.51,286,150a35.85,35.85,0,0,0-22.45-53.78l1.53-47.49a7.46,7.46,0,0,0-7.43-7.44h-6.76a7.48,7.48,0,0,0-7.47,7.54l1.56,48a35.87,35.87,0,0,0-22.88,48.92L159.57,407.61l7.7,25,2.31.21-1.25,8.54L170.8,461l8.43-17.75,1.58-9.42,6.91.61,44.52-186.59-3.17-2.3,8-32.91,4.24,1.08L251,167.1a35.16,35.16,0,0,0,4.22.43c.34,0,.66-.09,1-.1l9.85,47.14,4.23-1.07,8,32.91-3.18,2.3,44.53,186.6,6.84-.61,1.36,8.5,8.7,18.68L339,442.25l-1.26-8.55,2.31-.2Zm-87.9-274.76-5,18.5a19.28,19.28,0,0,1-2.35-.24l-5.14-19.15-13-2.79a20.83,20.83,0,0,1,41.61.22Z"/><path class="cls-3" d="M174.18,237.67a5,5,0,0,1-5,5h-5.65a5.05,5.05,0,0,1-5-5v-6.91a5,5,0,0,1,5-5h5.66a5,5,0,0,1,5,5Z"/><path class="cls-3" d="M348.57,237.45a5,5,0,0,1-5,5H337.9a5,5,0,0,1-5-5v-6.9a5,5,0,0,1,5-5h5.65a5,5,0,0,1,5,5Z"/><path class="cls-3" d="M258,254.85a5,5,0,0,1-5,5h0a5,5,0,0,1-5-5v-40.8a5,5,0,0,1,5-5h0a5,5,0,0,1,5,5Z"/><path class="cls-3" d="M254.77,162.42a3.29,3.29,0,1,1-3.28,3.29,3.29,3.29,0,0,1,3.28-3.29m0-10.57a13.88,13.88,0,1,0,13.91,13.87,13.88,13.88,0,0,0-13.91-13.87Z"/><path class="cls-3" d="M312.6,397.18a3.29,3.29,0,1,1-3.28,3.3,3.3,3.3,0,0,1,3.28-3.3m0-10.57a13.87,13.87,0,1,0,13.91,13.87,13.88,13.88,0,0,0-13.91-13.87Z"/></svg>