<?xml version="1.0" encoding="utf-8"?>
<!-- Generator: Adobe Illustrator 21.0.0, SVG Export Plug-In . SVG Version: 6.00 Build 0)  -->
<svg version="1.1" id="Layer_1" xmlns="http://www.w3.org/2000/svg" xmlns:xlink="http://www.w3.org/1999/xlink" x="0px" y="0px"
	 viewBox="0 0 180 180" style="enable-background:new 0 0 180 180;" xml:space="preserve">
<style type="text/css">
	.st0{fill:#F22F66;}
	.st1{fill:#E2205C;}
	.st2{fill:#F9F9F9;}
	.st3{fill:#EDEDED;}
	.st4{fill:#F2B700;}
</style>
<title>Info</title>
<circle class="st0" cx="90" cy="155.8" r="24"/>
<path class="st1" d="M106.8,138.6l-33.9,33.9c9.1,9.6,24.3,10,33.9,0.9c9.6-9.1,10-24.3,0.9-33.9
	C107.4,139.2,107.1,138.9,106.8,138.6z"/>
<circle class="st2" cx="90" cy="81.8" r="49.5"/>
<path class="st2" d="M90,103.4v48.2H65.9c-2.9-16.8-13-33.9-19-45.5c-0.5-0.9-0.9-1.8-1.4-2.6l0,0L90,103.4z"/>
<path class="st2" d="M134.5,103.4c-0.5,0.9-1,1.9-1.5,2.9c0,0,0,0.1-0.1,0.1c-6,11.7-15.9,28.6-18.8,45.2H90v-48.2H134.5z"/>
<path class="st2" d="M90,103.4v48.2H65.9c-2.9-16.8-13-33.9-19-45.5c-0.5-0.9-0.9-1.8-1.4-2.6l0,0L90,103.4z"/>
<path class="st3" d="M131.6,55.2l-48.2,48.2h51.1c-0.5,0.9-1,1.8-1.5,2.8C142.1,90.2,141.5,70.6,131.6,55.2L131.6,55.2z"/>
<path class="st3" d="M90,131.2L90,131.2v20.3h24.1c2.9-16.6,12.8-33.5,18.8-45.2c0,0,0-0.1,0.1-0.1l0.1-0.2
	C124.3,121.7,107.8,131.3,90,131.2z"/>
<path class="st3" d="M90,103.4v27.8l0,0c17.8,0,34.2-9.6,43-25.1c0.5-1,1-1.9,1.5-2.8L90,103.4z"/>
<path class="st3" d="M63.4,123.5l-5.1,5.1c3.5,7.3,6,15.1,7.6,23H90v-20.3C80.6,131.3,71.3,128.6,63.4,123.5z"/>
<path class="st3" d="M90,131.2v-27.8h-6.6l-20.1,20.1C71.3,128.6,80.6,131.3,90,131.2z"/>
<rect x="64" y="147.6" class="st0" width="52" height="8"/>
<circle class="st1" cx="116" cy="151.6" r="4"/>
<circle class="st0" cx="64" cy="151.6" r="4"/>
<polygon class="st1" points="116,155.6 89.8,155.6 97.8,147.6 116,147.6 "/>
<path class="st0" d="M107.6,79.2c-6.1,0-11,4.9-11,11v6H83.5v-6c0-6.1-4.9-11-11-11s-11,4.9-11,11s4.9,11,11,11l0,0h6v46.2h5v-46.2
	h13.1v46.2h5v-46.2h6c6.1,0,11-4.9,11-11S113.6,79.2,107.6,79.2L107.6,79.2z M78.4,96.2h-6c-3.3,0-6-2.7-6-6s2.7-6,6-6s6,2.7,6,6
	V96.2z M107.6,96.2h-6v-6c0-3.3,2.7-6,6-6s6,2.7,6,6S110.9,96.2,107.6,96.2z"/>
<path class="st2" d="M46.9,106c-0.4-0.8-0.8-1.6-1.2-2.3C46.1,104.5,46.5,105.3,46.9,106z"/>
<path class="st2" d="M45.5,103.4L45.5,103.4l0.2,0.3L45.5,103.4L45.5,103.4z"/>
<circle class="st4" cx="90" cy="4" r="4"/>
<circle class="st4" cx="90" cy="16" r="4"/>
<rect x="86" y="4" class="st4" width="8" height="12"/>
<ellipse transform="matrix(0.866 -0.5 0.5 0.866 -1.4631 25.581)" class="st4" cx="47" cy="15.5" rx="4" ry="4"/>
<ellipse transform="matrix(0.866 -0.5 0.5 0.866 -5.8545 29.9683)" class="st4" cx="53" cy="25.9" rx="4" ry="4"/>
<rect x="46" y="14.7" transform="matrix(0.866 -0.5 0.5 0.866 -3.6631 27.7771)" class="st4" width="8" height="12"/>
<ellipse transform="matrix(0.5 -0.866 0.866 0.5 -32.941 36.9431)" class="st4" cx="15.5" cy="47" rx="4" ry="4"/>
<ellipse transform="matrix(0.5 -0.866 0.866 0.5 -32.9433 48.9431)" class="st4" cx="25.9" cy="53" rx="4" ry="4"/>
<rect x="16.7" y="44" transform="matrix(0.5 -0.866 0.866 0.5 -32.9371 42.9431)" class="st4" width="8" height="12"/>
<circle class="st4" cx="4" cy="90" r="4"/>
<circle class="st4" cx="16" cy="90" r="4"/>
<rect x="4" y="86" class="st4" width="12" height="8"/>
<ellipse transform="matrix(0.866 -0.5 0.5 0.866 -64.4213 25.5792)" class="st4" cx="15.5" cy="133" rx="4" ry="4"/>
<ellipse transform="matrix(0.866 -0.5 0.5 0.866 -60.029 29.9692)" class="st4" cx="25.9" cy="127" rx="4" ry="4"/>
<rect x="14.7" y="126" transform="matrix(0.866 -0.5 0.5 0.866 -62.2229 27.7728)" class="st4" width="12" height="8"/>
<ellipse transform="matrix(0.5 -0.866 0.866 0.5 -32.9374 208.9431)" class="st4" cx="164.5" cy="133" rx="4" ry="4"/>
<ellipse transform="matrix(0.5 -0.866 0.866 0.5 -32.9351 196.9431)" class="st4" cx="154.1" cy="127" rx="4" ry="4"/>
<rect x="155.3" y="124" transform="matrix(0.5 -0.866 0.866 0.5 -32.9404 202.9466)" class="st4" width="8" height="12"/>
<circle class="st4" cx="176" cy="90" r="4"/>
<circle class="st4" cx="164" cy="90" r="4"/>
<rect x="164" y="86" class="st4" width="12" height="8"/>
<ellipse transform="matrix(0.866 -0.5 0.5 0.866 -1.4649 88.5392)" class="st4" cx="164.5" cy="47" rx="4" ry="4"/>
<ellipse transform="matrix(0.866 -0.5 0.5 0.866 -5.8536 84.1428)" class="st4" cx="154.1" cy="53" rx="4" ry="4"/>
<rect x="153.3" y="46" transform="matrix(0.866 -0.5 0.5 0.866 -3.661 86.3382)" class="st4" width="12" height="8"/>
<ellipse transform="matrix(0.4983 -0.867 0.867 0.4983 53.0935 123.0019)" class="st4" cx="132.8" cy="15.6" rx="4" ry="4"/>
<ellipse transform="matrix(0.5 -0.866 0.866 0.5 40.9233 122.8709)" class="st4" cx="126.9" cy="26" rx="4" ry="4"/>
<rect x="123.8" y="16.8" transform="matrix(0.4983 -0.867 0.867 0.4983 47.1122 123.0273)" class="st4" width="12" height="8"/>
</svg>
