<?xml version="1.0" encoding="utf-8"?>
<!-- Generator: Adobe Illustrator 21.0.0, SVG Export Plug-In . SVG Version: 6.00 Build 0)  -->
<svg version="1.1" id="Layer_1" xmlns="http://www.w3.org/2000/svg" xmlns:xlink="http://www.w3.org/1999/xlink" x="0px" y="0px"
	 viewBox="0 0 30 340.5" style="enable-background:new 0 0 30 340.5;" xml:space="preserve">
<style type="text/css">
	.st0{opacity:4.000000e-02;}
	.st1{fill:none;}
	.st2{fill-rule:evenodd;clip-rule:evenodd;}
	.st3{fill:#DAE3E5;}
</style>
<g class="st0">
	<g>
		<g>
			<g>
				<g>
					<g>
						<rect x="11.5" y="43.2" class="st1" width="7.5" height="6.7"/>
					</g>
					<rect x="14.7" y="48.1" class="st2" width="0.8" height="1.2"/>
					<rect x="14.7" y="45.9" class="st2" width="0.8" height="1.2"/>
					<rect x="14.7" y="43.7" class="st2" width="0.8" height="1.2"/>
				</g>
			</g>
			<g>
				<g>
					<g>
						<rect x="11.5" y="49.9" class="st1" width="7.5" height="6.7"/>
					</g>
					<rect x="14.7" y="54.8" class="st2" width="0.8" height="1.2"/>
					<rect x="14.7" y="52.6" class="st2" width="0.8" height="1.2"/>
					<rect x="14.7" y="50.4" class="st2" width="0.8" height="1.2"/>
				</g>
			</g>
			<g>
				<g>
					<g>
						<rect x="11.5" y="56.5" class="st1" width="7.5" height="6.7"/>
					</g>
					<rect x="14.7" y="61.5" class="st2" width="0.8" height="1.2"/>
					<rect x="14.7" y="59.2" class="st2" width="0.8" height="1.2"/>
					<rect x="14.7" y="57" class="st2" width="0.8" height="1.2"/>
				</g>
			</g>
			<g>
				<g>
					<g>
						<rect x="11.5" y="63.2" class="st1" width="7.5" height="6.7"/>
					</g>
					<rect x="14.7" y="68.1" class="st2" width="0.8" height="1.2"/>
					<rect x="14.7" y="65.9" class="st2" width="0.8" height="1.2"/>
					<rect x="14.7" y="63.7" class="st2" width="0.8" height="1.2"/>
				</g>
			</g>
			<g>
				<g>
					<g>
						<rect x="11.5" y="69.8" class="st1" width="7.5" height="6.7"/>
					</g>
					<rect x="14.7" y="74.8" class="st2" width="0.8" height="1.2"/>
					<rect x="14.7" y="72.6" class="st2" width="0.8" height="1.2"/>
					<rect x="14.7" y="70.4" class="st2" width="0.8" height="1.2"/>
				</g>
			</g>
			<g>
				<g>
					<g>
						<rect x="11.5" y="76.5" class="st1" width="7.5" height="6.7"/>
					</g>
					<rect x="14.7" y="81.4" class="st2" width="0.8" height="1.2"/>
					<rect x="14.7" y="79.2" class="st2" width="0.8" height="1.2"/>
					<rect x="14.7" y="77" class="st2" width="0.8" height="1.2"/>
				</g>
			</g>
			<g>
				<g>
					<g>
						<rect x="11.5" y="83.2" class="st1" width="7.5" height="6.7"/>
					</g>
					<rect x="14.7" y="88.1" class="st2" width="0.8" height="1.2"/>
					<rect x="14.7" y="85.9" class="st2" width="0.8" height="1.2"/>
					<rect x="14.7" y="83.7" class="st2" width="0.8" height="1.2"/>
				</g>
			</g>
			<g>
				<g>
					<g>
						<rect x="11.5" y="89.8" class="st1" width="7.5" height="6.7"/>
					</g>
					<rect x="14.7" y="94.8" class="st2" width="0.8" height="1.2"/>
					<rect x="14.7" y="92.5" class="st2" width="0.8" height="1.2"/>
					<rect x="14.7" y="90.3" class="st2" width="0.8" height="1.2"/>
				</g>
			</g>
			<g>
				<g>
					<g>
						<rect x="11.5" y="96.5" class="st1" width="7.5" height="6.7"/>
					</g>
					<rect x="14.7" y="101.4" class="st2" width="0.8" height="1.2"/>
					<rect x="14.7" y="99.2" class="st2" width="0.8" height="1.2"/>
					<rect x="14.7" y="97" class="st2" width="0.8" height="1.2"/>
				</g>
			</g>
			<g>
				<g>
					<g>
						<rect x="11.5" y="103.1" class="st1" width="7.5" height="6.7"/>
					</g>
					<rect x="14.7" y="108.1" class="st2" width="0.8" height="1.2"/>
					<rect x="14.7" y="105.9" class="st2" width="0.8" height="1.2"/>
					<rect x="14.7" y="103.6" class="st2" width="0.8" height="1.2"/>
				</g>
			</g>
			<g>
				<g>
					<g>
						<rect x="11.5" y="109.8" class="st1" width="7.5" height="6.7"/>
					</g>
					<rect x="14.7" y="114.7" class="st2" width="0.8" height="1.2"/>
					<rect x="14.7" y="112.5" class="st2" width="0.8" height="1.2"/>
					<rect x="14.7" y="110.3" class="st2" width="0.8" height="1.2"/>
				</g>
			</g>
			<g>
				<g>
					<g>
						<rect x="11.5" y="116.5" class="st1" width="7.5" height="6.7"/>
					</g>
					<rect x="14.7" y="121.4" class="st2" width="0.8" height="1.2"/>
					<rect x="14.7" y="119.2" class="st2" width="0.8" height="1.2"/>
					<rect x="14.7" y="117" class="st2" width="0.8" height="1.2"/>
				</g>
			</g>
			<g>
				<g>
					<g>
						<rect x="11.5" y="123.1" class="st1" width="7.5" height="6.7"/>
					</g>
					<rect x="14.7" y="128.1" class="st2" width="0.8" height="1.2"/>
					<rect x="14.7" y="125.8" class="st2" width="0.8" height="1.2"/>
					<rect x="14.7" y="123.6" class="st2" width="0.8" height="1.2"/>
				</g>
			</g>
			<g>
				<g>
					<g>
						<rect x="11.5" y="129.8" class="st1" width="7.5" height="6.7"/>
					</g>
					<rect x="14.7" y="134.7" class="st2" width="0.8" height="1.2"/>
					<rect x="14.7" y="132.5" class="st2" width="0.8" height="1.2"/>
					<rect x="14.7" y="130.3" class="st2" width="0.8" height="1.2"/>
				</g>
			</g>
			<g>
				<g>
					<g>
						<rect x="11.5" y="136.4" class="st1" width="7.5" height="6.7"/>
					</g>
					<rect x="14.7" y="141.4" class="st2" width="0.8" height="1.2"/>
					<rect x="14.7" y="139.2" class="st2" width="0.8" height="1.2"/>
					<rect x="14.7" y="136.9" class="st2" width="0.8" height="1.2"/>
				</g>
			</g>
			<g>
				<g>
					<g>
						<rect x="11.5" y="143.1" class="st1" width="7.5" height="6.7"/>
					</g>
					<rect x="14.7" y="148" class="st2" width="0.8" height="1.2"/>
					<rect x="14.7" y="145.8" class="st2" width="0.8" height="1.2"/>
					<rect x="14.7" y="143.6" class="st2" width="0.8" height="1.2"/>
				</g>
			</g>
			<g>
				<g>
					<g>
						<rect x="11.5" y="149.8" class="st1" width="7.5" height="6.7"/>
					</g>
					<rect x="14.7" y="154.7" class="st2" width="0.8" height="1.2"/>
					<rect x="14.7" y="152.5" class="st2" width="0.8" height="1.2"/>
					<rect x="14.7" y="150.3" class="st2" width="0.8" height="1.2"/>
				</g>
			</g>
			<g>
				<g>
					<g>
						<rect x="11.5" y="156.4" class="st1" width="7.5" height="6.7"/>
					</g>
					<rect x="14.7" y="161.3" class="st2" width="0.8" height="1.2"/>
					<rect x="14.7" y="159.1" class="st2" width="0.8" height="1.2"/>
					<rect x="14.7" y="156.9" class="st2" width="0.8" height="1.2"/>
				</g>
			</g>
			<g>
				<g>
					<g>
						<rect x="11.5" y="163.1" class="st1" width="7.5" height="6.7"/>
					</g>
					<rect x="14.7" y="168" class="st2" width="0.8" height="1.2"/>
					<rect x="14.7" y="165.8" class="st2" width="0.8" height="1.2"/>
					<rect x="14.7" y="163.6" class="st2" width="0.8" height="1.2"/>
				</g>
			</g>
			<g>
				<g>
					<g>
						<rect x="11.5" y="169.7" class="st1" width="7.5" height="6.7"/>
					</g>
					<rect x="14.7" y="174.7" class="st2" width="0.8" height="1.2"/>
					<rect x="14.7" y="172.4" class="st2" width="0.8" height="1.2"/>
					<rect x="14.7" y="170.2" class="st2" width="0.8" height="1.2"/>
				</g>
			</g>
			<g>
				<g>
					<g>
						<rect x="11.5" y="176.4" class="st1" width="7.5" height="6.7"/>
					</g>
					<rect x="14.7" y="181.3" class="st2" width="0.8" height="1.2"/>
					<rect x="14.7" y="179.1" class="st2" width="0.8" height="1.2"/>
					<rect x="14.7" y="176.9" class="st2" width="0.8" height="1.2"/>
				</g>
			</g>
			<g>
				<g>
					<g>
						<rect x="11.5" y="183" class="st1" width="7.5" height="6.7"/>
					</g>
					<rect x="14.7" y="188" class="st2" width="0.8" height="1.2"/>
					<rect x="14.7" y="185.8" class="st2" width="0.8" height="1.2"/>
					<rect x="14.7" y="183.6" class="st2" width="0.8" height="1.2"/>
				</g>
			</g>
			<g>
				<g>
					<g>
						<rect x="11.5" y="189.7" class="st1" width="7.5" height="6.7"/>
					</g>
					<rect x="14.7" y="194.6" class="st2" width="0.8" height="1.2"/>
					<rect x="14.7" y="192.4" class="st2" width="0.8" height="1.2"/>
					<rect x="14.7" y="190.2" class="st2" width="0.8" height="1.2"/>
				</g>
			</g>
			<g>
				<g>
					<g>
						<rect x="11.5" y="196.4" class="st1" width="7.5" height="6.7"/>
					</g>
					<rect x="14.7" y="201.3" class="st2" width="0.8" height="1.2"/>
					<rect x="14.7" y="199.1" class="st2" width="0.8" height="1.2"/>
					<rect x="14.7" y="196.9" class="st2" width="0.8" height="1.2"/>
				</g>
			</g>
			<g>
				<g>
					<g>
						<rect x="11.5" y="203" class="st1" width="7.5" height="6.7"/>
					</g>
					<rect x="14.7" y="208" class="st2" width="0.8" height="1.2"/>
					<rect x="14.7" y="205.7" class="st2" width="0.8" height="1.2"/>
					<rect x="14.7" y="203.5" class="st2" width="0.8" height="1.2"/>
				</g>
			</g>
			<g>
				<g>
					<g>
						<rect x="11.5" y="209.7" class="st1" width="7.5" height="6.7"/>
					</g>
					<rect x="14.7" y="214.6" class="st2" width="0.8" height="1.2"/>
					<rect x="14.7" y="212.4" class="st2" width="0.8" height="1.2"/>
					<rect x="14.7" y="210.2" class="st2" width="0.8" height="1.2"/>
				</g>
			</g>
			<g>
				<g>
					<g>
						<rect x="11.5" y="216.3" class="st1" width="7.5" height="6.7"/>
					</g>
					<rect x="14.7" y="221.3" class="st2" width="0.8" height="1.2"/>
					<rect x="14.7" y="219.1" class="st2" width="0.8" height="1.2"/>
					<rect x="14.7" y="216.8" class="st2" width="0.8" height="1.2"/>
				</g>
			</g>
			<g>
				<g>
					<g>
						<rect x="11.5" y="223" class="st1" width="7.5" height="6.7"/>
					</g>
					<rect x="14.7" y="227.9" class="st2" width="0.8" height="1.2"/>
					<rect x="14.7" y="225.7" class="st2" width="0.8" height="1.2"/>
					<rect x="14.7" y="223.5" class="st2" width="0.8" height="1.2"/>
				</g>
			</g>
			<g>
				<g>
					<g>
						<rect x="11.5" y="229.7" class="st1" width="7.5" height="6.7"/>
					</g>
					<rect x="14.7" y="234.6" class="st2" width="0.8" height="1.2"/>
					<rect x="14.7" y="232.4" class="st2" width="0.8" height="1.2"/>
					<rect x="14.7" y="230.2" class="st2" width="0.8" height="1.2"/>
				</g>
			</g>
			<g>
				<g>
					<g>
						<rect x="11.5" y="236.3" class="st1" width="7.5" height="6.7"/>
					</g>
					<rect x="14.7" y="241.3" class="st2" width="0.8" height="1.2"/>
					<rect x="14.7" y="239" class="st2" width="0.8" height="1.2"/>
					<rect x="14.7" y="236.8" class="st2" width="0.8" height="1.2"/>
				</g>
			</g>
			<g>
				<g>
					<g>
						<rect x="11.5" y="243" class="st1" width="7.5" height="6.7"/>
					</g>
					<rect x="14.7" y="247.9" class="st2" width="0.8" height="1.2"/>
					<rect x="14.7" y="245.7" class="st2" width="0.8" height="1.2"/>
					<rect x="14.7" y="243.5" class="st2" width="0.8" height="1.2"/>
				</g>
			</g>
		</g>
	</g>
</g>
<circle class="st3" cx="15" cy="43.2" r="2.8"/>
<circle class="st3" cx="15.2" cy="148.4" r="2.8"/>
<circle class="st3" cx="15" cy="249.6" r="2.8"/>
</svg>
