<svg id="Layer_1" data-name="Layer 1" xmlns="http://www.w3.org/2000/svg" viewBox="0 0 512 512"><defs><style>.cls-1{fill:#e2215b;}.cls-2{fill:#ce1e55;}.cls-3{opacity:0.25;}.cls-4{fill:#fff;}.cls-5{fill:#dbdddd;}</style></defs><title>Artboard 10-flat</title><path class="cls-1" d="M91.59,420.4C.8,329.59.8,182.4,91.59,91.6s238-90.8,328.81,0"/><path class="cls-2" d="M420.41,91.59c90.8,90.81,90.8,238,0,328.81s-238,90.8-328.81,0"/><g class="cls-3"><path class="cls-4" d="M255.19,98.15C164.53,98.15,91,171.07,91,261A161.57,161.57,0,0,0,139.1,376.14L371.29,145.83a164.41,164.41,0,0,0-116.1-47.68"/><path class="cls-4" d="M139.1,376.16a164.35,164.35,0,0,0,116.09,47.71c90.66,0,164.15-72.93,164.15-162.86a161.76,161.76,0,0,0-48.08-115.17Z"/></g><g class="cls-3"><path class="cls-4" d="M255.18,182.87c-45.65,0-82.65,35.81-82.65,80a78.41,78.41,0,0,0,24.2,56.54l116.89-113.1a83.8,83.8,0,0,0-58.44-23.41"/><path class="cls-4" d="M196.74,319.39a83.8,83.8,0,0,0,58.44,23.43c45.64,0,82.63-35.81,82.63-80a78.48,78.48,0,0,0-24.2-56.55Z"/></g><rect class="cls-5" x="130.77" y="152.73" width="137.08" height="5" transform="translate(-51.36 186.61) rotate(-45.05)"/><rect class="cls-5" x="126.9" y="148.85" width="144.84" height="12.76" transform="translate(-51.35 186.69) rotate(-45.07)"/><polygon class="cls-5" points="277.54 320.94 272.77 325.69 142.18 195.08 146.93 190.31 277.54 320.94"/><polygon class="cls-5" points="272.76 333.08 134.79 195.08 146.93 182.91 284.94 320.94 272.76 333.08"/><circle class="cls-4" cx="242.94" cy="113.1" r="25.46"/><circle class="cls-4" cx="153.67" cy="200.37" r="37.05"/><circle class="cls-4" cx="297.13" cy="343.71" r="55.64"/></svg>