<svg id="Layer_1" data-name="Layer 1" xmlns="http://www.w3.org/2000/svg" viewBox="0 0 131.78 131.6"><defs><style>.cls-1{fill:#ce1e55;}.cls-2{fill:#e2215b;}.cls-3{fill:#079b7f;}.cls-4{fill:#00c9a2;}.cls-5{fill:#f2b700;}.cls-6{fill:#daa727;}.cls-7{fill:#0fa3cf;}.cls-8{fill:#13b3e2;}</style></defs><title>NC-Mark</title><path class="cls-1" d="M19.4,27.21A27.2,27.2,0,0,1,65.84,8L27.36,46.45a27.15,27.15,0,0,1-8-19.24"/><path class="cls-2" d="M46.54,27.24A27.21,27.21,0,0,1,8.07,65.72Z"/><path class="cls-3" d="M27.27,112.13A27.2,27.2,0,0,1,8,65.69l38.48,38.48a27.14,27.14,0,0,1-19.24,8"/><path class="cls-4" d="M27.54,85.16A27.21,27.21,0,1,1,66,123.64Z"/><path class="cls-5" d="M77.33,85.18a27.2,27.2,0,0,1,46.44-19.24L85.3,104.42a27.13,27.13,0,0,1-8-19.24"/><path class="cls-6" d="M104.51,85.16A27.21,27.21,0,1,1,66,123.63Z"/><path class="cls-7" d="M104.51,19.51A27.21,27.21,0,0,1,123.75,66L85.27,27.48a27.13,27.13,0,0,1,19.24-8"/><path class="cls-8" d="M104.31,46.45A27.21,27.21,0,1,1,65.83,8Z"/></svg>