<svg xmlns="http://www.w3.org/2000/svg" viewBox="0 0 816.37 133"><defs><style>.cls-1{fill:#ce1e55;}.cls-2{fill:#e2215b;}.cls-3{fill:#079b7f;}.cls-4{fill:#00c9a2;}.cls-5{fill:#f2b700;}.cls-6{fill:#daa727;}.cls-7{fill:#0fa3cf;}.cls-8{fill:#13b3e2;}.cls-9{fill:#fff;}</style></defs><title>Asset 1</title><g id="Layer_2" data-name="Layer 2"><g id="Layer_1-2" data-name="Layer 1"><path class="cls-1" d="M19.33,27.21A27.2,27.2,0,0,1,65.78,8L27.3,46.45a27.15,27.15,0,0,1-8-19.24"/><path class="cls-2" d="M46.48,27.24A27.21,27.21,0,0,1,8,65.72Z"/><path class="cls-3" d="M27.21,112.13A27.2,27.2,0,0,1,8,65.69l38.48,38.48a27.14,27.14,0,0,1-19.24,8"/><path class="cls-4" d="M27.47,85.16a27.21,27.21,0,1,1,38.48,38.48Z"/><path class="cls-5" d="M77.27,85.18a27.2,27.2,0,0,1,46.44-19.24L85.24,104.42a27.13,27.13,0,0,1-8-19.24"/><path class="cls-6" d="M104.44,85.16A27.21,27.21,0,1,1,66,123.63Z"/><path class="cls-7" d="M104.45,19.51A27.21,27.21,0,0,1,123.69,66L85.21,27.48a27.13,27.13,0,0,1,19.24-8"/><path class="cls-8" d="M104.25,46.45A27.21,27.21,0,1,1,65.77,8Z"/><path class="cls-9" d="M174.33,84.24a3.43,3.43,0,1,1-6.86,0V47.62a3.4,3.4,0,0,1,1.38-2.9,3.47,3.47,0,0,1,4.78.76L194,73.61V47.68a3.42,3.42,0,0,1,3.4-3.4,3.48,3.48,0,0,1,3.46,3.4V84.24a3.49,3.49,0,0,1-3.46,3.46,3.41,3.41,0,0,1-2.58-1.26,1.64,1.64,0,0,1-.31-.38L174.33,58.13Z"/><path class="cls-9" d="M224.37,72a15.58,15.58,0,0,1,15.35-15.73c8.18,0,14.66,6.1,15.17,14.6v.31a1.73,1.73,0,0,1-.06.57,3,3,0,0,1-3.27,2.52h-20a8.25,8.25,0,0,0,2.14,4.15,9.74,9.74,0,0,0,6,2.83,10.29,10.29,0,0,0,6.54-1.57c1.32-1.38,3.9-1.2,4.72-.19a2.87,2.87,0,0,1,0,4.09,15.9,15.9,0,0,1-11.26,4.15A15.62,15.62,0,0,1,224.37,72Zm6.86-3.08H249c-.63-2.52-3.84-6.23-9.31-6.67A8.79,8.79,0,0,0,231.22,68.89Z"/><path class="cls-9" d="M287.86,59.7a3.55,3.55,0,0,1-3.52,3.46h-1.57V80.72a3.47,3.47,0,0,1,3.46,3.52,3.41,3.41,0,0,1-3.46,3.46,7,7,0,0,1-7-7V63.16H274a3.45,3.45,0,0,1-3.46-3.46A3.41,3.41,0,0,1,274,56.24h1.83V47.12a3.46,3.46,0,0,1,3.52-3.46,3.41,3.41,0,0,1,3.46,3.46v9.12h1.57A3.5,3.5,0,0,1,287.86,59.7Z"/><path class="cls-9" d="M350.67,61.28,340.28,85.69a3.77,3.77,0,0,1-.25.5.06.06,0,0,1-.06.06,1.68,1.68,0,0,1-.32.38.19.19,0,0,1-.12.06,1.65,1.65,0,0,1-.38.31c0,.06-.06.06-.06.13a1.64,1.64,0,0,1-.57.31.06.06,0,0,0-.06.06,1.94,1.94,0,0,0-.5.13h-.13a1.94,1.94,0,0,1-.63.06,1.74,1.74,0,0,1-.57-.06h-.12a.91.91,0,0,0-.44-.13l-.06-.06h-.06a1.47,1.47,0,0,1-.57-.38V87c-.19-.06-.25-.19-.38-.31s-.13,0-.13-.06a1.65,1.65,0,0,1-.31-.38.06.06,0,0,1-.06-.06,3.66,3.66,0,0,1-.25-.5l-4.59-10.89-4.47,10.89c-.06.13-.19.31-.31.5v.06l-.38.38a.06.06,0,0,1-.06.06l-.38.38a2.18,2.18,0,0,1-.57.38h-.13a.06.06,0,0,0-.06.06.67.67,0,0,0-.38.13h-.13a2.36,2.36,0,0,1-.63.06,1.94,1.94,0,0,1-.63-.06h-.19a.9.9,0,0,0-.38-.13c-.06-.06-.06-.06-.12-.06a1.13,1.13,0,0,1-.57-.38c-.06,0-.06,0-.06-.06a2.41,2.41,0,0,0-.38-.31l-.13-.06c-.06-.13-.19-.25-.25-.38s-.06,0-.06-.06a3.51,3.51,0,0,0-.32-.5L308.76,61.28a3.26,3.26,0,0,1,1.82-4.34,3.13,3.13,0,0,1,4.15,1.89l7.43,16.93,4.4-10.51a3.36,3.36,0,0,1,3.08-2,3.23,3.23,0,0,1,3.08,2l4.47,10.51,7.43-16.93a3.15,3.15,0,0,1,4.22-1.89A3.31,3.31,0,0,1,350.67,61.28Z"/><path class="cls-9" d="M377,83.11A15.7,15.7,0,0,1,372.7,72,16.24,16.24,0,0,1,377,61a14.7,14.7,0,0,1,10.82-4.78A13.91,13.91,0,0,1,398.37,61a15.72,15.72,0,0,1,4.41,11,15.23,15.23,0,0,1-4.41,11.08,13.91,13.91,0,0,1-10.51,4.78A14.7,14.7,0,0,1,377,83.11ZM379.56,72a10.18,10.18,0,0,0,2.27,6.67,8.52,8.52,0,0,0,6,2.33,8.24,8.24,0,0,0,5.79-2.33A9.67,9.67,0,0,0,396.11,72a9.46,9.46,0,0,0-2.45-6.54,8.89,8.89,0,0,0-5.79-2.39,9.15,9.15,0,0,0-6,2.39A10,10,0,0,0,379.56,72Z"/><path class="cls-9" d="M442.93,59.58a3.36,3.36,0,0,1-3.33,3.33,6,6,0,0,0-3.78,1.2,9.48,9.48,0,0,0-2.89,3,19.29,19.29,0,0,0-2.58,5.29v12a3.43,3.43,0,0,1-3.46,3.33,3.36,3.36,0,0,1-3.33-3.33V59.58a3.3,3.3,0,0,1,3.33-3.27,3.37,3.37,0,0,1,3.46,3.27V60a8.28,8.28,0,0,1,1.32-1.26,13.8,13.8,0,0,1,7.93-2.45A3.26,3.26,0,0,1,442.93,59.58Z"/><path class="cls-9" d="M462.5,84.24V47.12A3.45,3.45,0,0,1,466,43.66a3.5,3.5,0,0,1,3.52,3.46V68.89L482.39,56a3.53,3.53,0,0,1,4.91,0,3.42,3.42,0,0,1,0,4.91l-9.44,9.44L487.55,82a3.49,3.49,0,0,1-.5,4.91,3.39,3.39,0,0,1-4.84-.44l-9.25-11.2-3.46,3.46v5.54A3.51,3.51,0,0,1,466,87.71,3.45,3.45,0,0,1,462.5,84.24Z"/><path class="cls-9" d="M538,65.05c.06-12.46,10.51-22.59,23.09-22.65a23.54,23.54,0,0,1,14.54,4.91A3.61,3.61,0,0,1,571.25,53a15.68,15.68,0,0,0-10.13-3.46,16.65,16.65,0,0,0-11.33,4.53,15.52,15.52,0,0,0-4.59,10.95A15.3,15.3,0,0,0,549.79,76a16.65,16.65,0,0,0,11.33,4.53,15.81,15.81,0,0,0,10.13-3.46,3.82,3.82,0,0,1,5,.69,3.71,3.71,0,0,1-.63,5,23.54,23.54,0,0,1-14.54,4.91A23,23,0,0,1,538,65.05Z"/><path class="cls-9" d="M625.75,72V84.37a3.36,3.36,0,0,1-3.33,3.33A3.42,3.42,0,0,1,619.14,85a14.29,14.29,0,0,1-8.37,2.71,14.62,14.62,0,0,1-10.7-4.59A16.1,16.1,0,0,1,595.79,72,15.88,15.88,0,0,1,600.07,61a14.49,14.49,0,0,1,10.7-4.72A14.34,14.34,0,0,1,619.14,59a3.42,3.42,0,0,1,3.27-2.77,3.37,3.37,0,0,1,3.33,3.4Zm-6.67,0a9.25,9.25,0,0,0-2.45-6.48A7.78,7.78,0,0,0,610.77,63a7.59,7.59,0,0,0-5.85,2.58A9.21,9.21,0,0,0,602.53,72a9.44,9.44,0,0,0,2.39,6.48A7.93,7.93,0,0,0,610.77,81a8.13,8.13,0,0,0,5.85-2.45A9.48,9.48,0,0,0,619.08,72Z"/><path class="cls-9" d="M675,69.33v15a3.3,3.3,0,0,1-3.27,3.33,3.4,3.4,0,0,1-3.33-3.33v-15A6.46,6.46,0,0,0,661.87,63a6.28,6.28,0,0,0-6.29,6.36v15a1.24,1.24,0,0,1-.13.63,3.44,3.44,0,0,1-3.33,2.71,3.32,3.32,0,0,1-3.33-3.33V59.58a3.32,3.32,0,0,1,3.33-3.34,3.4,3.4,0,0,1,3.08,2,12.56,12.56,0,0,1,6.67-2A13.17,13.17,0,0,1,675,69.33Z"/><path class="cls-9" d="M722.28,61.28,712,85.69a1.37,1.37,0,0,1-.25.44.06.06,0,0,1-.06.06c-.13.13-.25.31-.38.44a.06.06,0,0,1-.06.06,2.12,2.12,0,0,1-.38.38.06.06,0,0,0-.06.06,1.11,1.11,0,0,1-.44.31h-.13v.06a1.18,1.18,0,0,0-.5.13h-.13a2.36,2.36,0,0,1-.63.06,2.17,2.17,0,0,1-.57-.06h-.13a1.48,1.48,0,0,0-.5-.13v-.06h-.12a5.41,5.41,0,0,1-.57-.31.06.06,0,0,0-.06-.06,2.08,2.08,0,0,1-.38-.38c-.06,0-.06,0-.13-.06a1.93,1.93,0,0,0-.32-.44c-.06,0-.06,0-.06-.06s-.19-.25-.25-.44L695.67,61.28A3.19,3.19,0,0,1,697.49,57a3.23,3.23,0,0,1,4.22,1.82l7.24,17.12,7.3-17.12a3.26,3.26,0,1,1,6,2.45Z"/><path class="cls-9" d="M770.43,72V84.37a3.36,3.36,0,0,1-3.33,3.33A3.42,3.42,0,0,1,763.82,85a14.29,14.29,0,0,1-8.37,2.71,14.62,14.62,0,0,1-10.7-4.59A16.1,16.1,0,0,1,740.47,72,15.88,15.88,0,0,1,744.75,61a14.49,14.49,0,0,1,10.7-4.72A14.35,14.35,0,0,1,763.82,59a3.42,3.42,0,0,1,3.27-2.77,3.37,3.37,0,0,1,3.33,3.4Zm-6.67,0a9.25,9.25,0,0,0-2.45-6.48A7.78,7.78,0,0,0,755.45,63a7.59,7.59,0,0,0-5.85,2.58A9.21,9.21,0,0,0,747.21,72a9.44,9.44,0,0,0,2.39,6.48A7.93,7.93,0,0,0,755.45,81a8.13,8.13,0,0,0,5.85-2.45A9.48,9.48,0,0,0,763.76,72Z"/><path class="cls-9" d="M792.58,78.71a3.27,3.27,0,0,1,4.72-.5A11.55,11.55,0,0,0,804.22,81a8.4,8.4,0,0,0,4.28-1.2,2.58,2.58,0,0,0,1.13-1.89.94.94,0,0,0-.19-.63c-.06-.19-.31-.44-.82-.76a14.6,14.6,0,0,0-5-1.76h-.06a24.18,24.18,0,0,1-5.47-1.64,10.51,10.51,0,0,1-4.34-3.65,7.63,7.63,0,0,1-1.07-4,8.84,8.84,0,0,1,3.71-6.92,13.54,13.54,0,0,1,7.74-2.33,16.18,16.18,0,0,1,9.44,3.46,3.48,3.48,0,0,1,1,4.66,3.33,3.33,0,0,1-4.66.88c-2-1.32-3.78-2.33-5.79-2.33A6.41,6.41,0,0,0,800.32,64a1.92,1.92,0,0,0-1,1.45.68.68,0,0,0,.13.5,1.69,1.69,0,0,0,.69.63,12.82,12.82,0,0,0,4.59,1.51l.06.06h.06A22.64,22.64,0,0,1,810.7,70a9.77,9.77,0,0,1,4.47,3.71,8.15,8.15,0,0,1,1.2,4.15,9.08,9.08,0,0,1-4,7.3,14.32,14.32,0,0,1-8.18,2.52A18.28,18.28,0,0,1,793,83.36,3.36,3.36,0,0,1,792.58,78.71Z"/></g></g></svg>
