<svg id="Layer_1" data-name="Layer 1" xmlns="http://www.w3.org/2000/svg" viewBox="0 0 205.85 204.26"><defs><style>.cls-1{fill:#ce1e55;}.cls-2{fill:#e2215b;}.cls-3{fill:#079b7f;}.cls-4{fill:#00c9a2;}.cls-5{fill:#f2b700;}.cls-6{fill:#daa727;}.cls-7{fill:#0fa3cf;}.cls-8{fill:#13b3e2;}.cls-9{fill:#16152b;}</style></defs><title>NC-Type and Mark Stacked Neg</title><path class="cls-1" d="M56.43,27.21A27.2,27.2,0,0,1,102.87,8L64.39,46.45a27.15,27.15,0,0,1-8-19.24"/><path class="cls-2" d="M83.58,27.24A27.21,27.21,0,0,1,45.1,65.72Z"/><path class="cls-3" d="M64.3,112.13A27.2,27.2,0,0,1,45.07,65.69l38.48,38.48a27.14,27.14,0,0,1-19.24,8"/><path class="cls-4" d="M64.57,85.16A27.21,27.21,0,1,1,103,123.64Z"/><path class="cls-5" d="M114.37,85.18a27.2,27.2,0,0,1,46.44-19.24l-38.47,38.48a27.13,27.13,0,0,1-8-19.24"/><path class="cls-6" d="M141.54,85.16a27.21,27.21,0,1,1-38.48,38.47Z"/><path class="cls-7" d="M141.55,19.51A27.21,27.21,0,0,1,160.78,66L122.3,27.48a27.13,27.13,0,0,1,19.24-8"/><path class="cls-8" d="M141.34,46.45A27.21,27.21,0,1,1,102.87,8Z"/><path class="cls-9" d="M6.26,170.08a1.66,1.66,0,0,1-1.58,1.69,1.65,1.65,0,0,1-1.61-1.69V152.16a1.7,1.7,0,0,1,.64-1.42,1.56,1.56,0,0,1,2.22.37l9.45,13.76V152.19A1.64,1.64,0,0,1,17,150.52a1.66,1.66,0,0,1,1.61,1.66v17.89A1.67,1.67,0,0,1,17,171.77a1.56,1.56,0,0,1-1.2-.62.8.8,0,0,1-.15-.19L6.26,157.3Z"/><path class="cls-9" d="M31.35,170.08V151.91A1.63,1.63,0,0,1,33,150.22h9.56a1.67,1.67,0,0,1,1.61,1.69,1.69,1.69,0,0,1-1.61,1.72H34.6v5.64h6.82a1.71,1.71,0,0,1,0,3.42H34.6v5.67h7.93a1.71,1.71,0,0,1,0,3.42H33.05c-.06,0-.06,0-.06,0l0,0A1.65,1.65,0,0,1,31.35,170.08Z"/><path class="cls-9" d="M68.88,153.63H64.23v16.44a1.63,1.63,0,0,1-1.61,1.69A1.65,1.65,0,0,1,61,170.08V153.63H56.39a1.68,1.68,0,0,1-1.61-1.72,1.63,1.63,0,0,1,1.61-1.69H68.88a1.65,1.65,0,0,1,1.61,1.69A1.69,1.69,0,0,1,68.88,153.63Z"/><path class="cls-9" d="M109.95,152.77l-7.17,18a.82.82,0,0,1-.15.28l0,0a.81.81,0,0,1-.15.18c0,.06,0,.06,0,.09a.89.89,0,0,0-.21.15h0c-.09.06-.15.15-.26.19h0a0,0,0,0,0,0,0,.87.87,0,0,0-.23.06h-.06a.86.86,0,0,1-.29,0,.77.77,0,0,1-.26,0h-.09a.71.71,0,0,0-.2-.06s0,0-.06,0a.6.6,0,0,1-.26-.19h0c-.09-.06-.15-.12-.2-.15a.24.24,0,0,1-.06-.09c0-.06-.09-.12-.12-.18s-.06,0-.06,0a.78.78,0,0,1-.12-.28L96,161.18l-3.83,9.55A2.51,2.51,0,0,1,92,171s0,0,0,0l-.18.18c0,.06,0,.06,0,.09a.79.79,0,0,0-.18.15h-.06c-.09.06-.17.15-.23.19h0a0,0,0,0,0,0,0,.44.44,0,0,0-.23.06H91a.77.77,0,0,1-.26,0,1,1,0,0,1-.29,0h-.09a.71.71,0,0,0-.2-.06s0,0-.06,0a.83.83,0,0,1-.26-.19h0c-.09-.06-.12-.12-.2-.15a.24.24,0,0,1-.06-.09c-.06-.06-.09-.12-.15-.18v0a2.27,2.27,0,0,1-.15-.28l-7.2-18a1.7,1.7,0,0,1,.88-2.19,1.54,1.54,0,0,1,2.08.89l5.73,14.26,3.77-9.45a1.61,1.61,0,0,1,1.52-1,1.67,1.67,0,0,1,1.52,1l3.77,9.45,5.7-14.26a1.59,1.59,0,0,1,2.13-.89A1.7,1.7,0,0,1,109.95,152.77Z"/><path class="cls-9" d="M138,152.9a11.75,11.75,0,0,1,0,15.58,9.38,9.38,0,0,1-7,3.29,9.65,9.65,0,0,1-7.17-3.29,11.93,11.93,0,0,1,0-15.58A9.54,9.54,0,0,1,131,149.6,9.27,9.27,0,0,1,138,152.9Zm-.38,7.79a8.21,8.21,0,0,0-2-5.39,6.1,6.1,0,0,0-9.36,0,8.06,8.06,0,0,0-2,5.39,7.92,7.92,0,0,0,2,5.36,6,6,0,0,0,9.36,0A8.07,8.07,0,0,0,137.62,160.69Z"/><path class="cls-9" d="M167.92,169.22a1.72,1.72,0,0,1-1,2.16,2.46,2.46,0,0,1-.64.09h0a2,2,0,0,1-1.14-.34,3,3,0,0,1-.94-1.08,8.67,8.67,0,0,1-.61-3.7,2.7,2.7,0,0,0-.35-1.32,2.78,2.78,0,0,0-.88-.89,5.41,5.41,0,0,0-1.64-.74h-3.45v6.68a1.67,1.67,0,0,1-1.64,1.69,1.65,1.65,0,0,1-1.61-1.69V151.91a1.63,1.63,0,0,1,1.61-1.69h5.24a6.43,6.43,0,0,1,6.26,6.62,6.66,6.66,0,0,1-2.28,5,4.68,4.68,0,0,1,1,1.14,6,6,0,0,1,1,3.33,8.16,8.16,0,0,0,.12,1.82A1.61,1.61,0,0,1,167.92,169.22Zm-4.09-12.38a3.1,3.1,0,0,0-3-3.2h-3.6V160h3.6A3.08,3.08,0,0,0,163.82,156.84Z"/><path class="cls-9" d="M180.32,170.08v-18a1.61,1.61,0,1,1,3.22,0v8.84l9.48-10a1.53,1.53,0,0,1,2.28,0,1.8,1.8,0,0,1,0,2.4L188.86,160l6.49,9a1.71,1.71,0,0,1-.23,2.37,1.44,1.44,0,0,1-1,.4,1.55,1.55,0,0,1-1.2-.62l-6.32-8.71-3,3.26v4.37a1.61,1.61,0,1,1-3.22,0Z"/><path class="cls-9" d="M84.34,193a6.54,6.54,0,0,1,6.52-6.47,6.74,6.74,0,0,1,4.08,1.42,1.42,1.42,0,0,1,.28,1.91,1.36,1.36,0,0,1-1.93.26,4.08,4.08,0,0,0-2.44-.83,3.7,3.7,0,1,0,0,7.4,4.14,4.14,0,0,0,2.44-.83,1.39,1.39,0,0,1,1.93.28,1.43,1.43,0,0,1-.28,1.91,7,7,0,0,1-4.08,1.37A6.52,6.52,0,0,1,84.34,193Z"/><path class="cls-9" d="M116.22,193V198a1.37,1.37,0,0,1-1.36,1.37,1.4,1.4,0,0,1-1.33-1.11,5.81,5.81,0,0,1-3.41,1.11,6,6,0,0,1-4.36-1.88A6.62,6.62,0,0,1,104,193a6.52,6.52,0,0,1,1.75-4.54,5.9,5.9,0,0,1,4.36-1.93,5.83,5.83,0,0,1,3.41,1.13,1.39,1.39,0,0,1,1.33-1.13,1.38,1.38,0,0,1,1.36,1.39Zm-2.72,0a3.8,3.8,0,0,0-1-2.66,3.16,3.16,0,0,0-2.39-1.06,3.09,3.09,0,0,0-2.39,1.06,3.79,3.79,0,0,0-1,2.66,3.88,3.88,0,0,0,1,2.66,3.22,3.22,0,0,0,2.39,1,3.31,3.31,0,0,0,2.39-1A3.89,3.89,0,0,0,113.5,193Z"/><path class="cls-9" d="M137.17,191.88V198a1.35,1.35,0,0,1-1.33,1.37,1.39,1.39,0,0,1-1.36-1.37v-6.16a2.64,2.64,0,0,0-2.67-2.6,2.57,2.57,0,0,0-2.57,2.6V198a.51.51,0,0,1-.05.26,1.41,1.41,0,0,1-1.36,1.11,1.36,1.36,0,0,1-1.36-1.37V187.88a1.36,1.36,0,0,1,1.36-1.37,1.39,1.39,0,0,1,1.26.8,5.11,5.11,0,0,1,2.72-.8A5.39,5.39,0,0,1,137.17,191.88Z"/><path class="cls-9" d="M157.29,188.58l-4.21,10a.56.56,0,0,1-.1.18,0,0,0,0,1,0,0l-.15.18a0,0,0,0,1,0,0,.89.89,0,0,1-.15.15,0,0,0,0,0,0,0,.47.47,0,0,1-.18.13h-.05v0a.48.48,0,0,0-.21.05h-.05a1,1,0,0,1-.26,0,.88.88,0,0,1-.23,0h-.05a.6.6,0,0,0-.21-.05v0h-.05a2.36,2.36,0,0,1-.23-.13,0,0,0,0,0,0,0,.89.89,0,0,1-.15-.15s0,0-.05,0a.81.81,0,0,0-.13-.18s0,0,0,0-.08-.1-.1-.18l-4.16-10a1.33,1.33,0,1,1,2.46-1l3,7,3-7a1.29,1.29,0,0,1,1.72-.75A1.31,1.31,0,0,1,157.29,188.58Z"/><path class="cls-9" d="M177.78,193V198a1.37,1.37,0,0,1-1.36,1.37,1.4,1.4,0,0,1-1.33-1.11,5.81,5.81,0,0,1-3.41,1.11,6,6,0,0,1-4.36-1.88,6.62,6.62,0,0,1-1.75-4.54,6.52,6.52,0,0,1,1.75-4.54,5.9,5.9,0,0,1,4.36-1.93,5.83,5.83,0,0,1,3.41,1.13,1.39,1.39,0,0,1,1.33-1.13,1.38,1.38,0,0,1,1.36,1.39Zm-2.72,0a3.8,3.8,0,0,0-1-2.66,3.16,3.16,0,0,0-2.39-1.06,3.09,3.09,0,0,0-2.39,1.06,3.79,3.79,0,0,0-1,2.66,3.88,3.88,0,0,0,1,2.66,3.22,3.22,0,0,0,2.39,1,3.31,3.31,0,0,0,2.39-1A3.89,3.89,0,0,0,175.05,193Z"/><path class="cls-9" d="M187.66,195.72a1.33,1.33,0,0,1,1.92-.21,4.7,4.7,0,0,0,2.82,1.13,3.42,3.42,0,0,0,1.75-.49,1.06,1.06,0,0,0,.46-.77.39.39,0,0,0-.08-.26c0-.08-.13-.18-.33-.31a5.93,5.93,0,0,0-2.05-.72h0a9.84,9.84,0,0,1-2.23-.67,4.3,4.3,0,0,1-1.77-1.5,3.14,3.14,0,0,1-.44-1.62,3.63,3.63,0,0,1,1.51-2.84,5.5,5.5,0,0,1,3.16-1,6.58,6.58,0,0,1,3.85,1.42,1.43,1.43,0,0,1,.41,1.91,1.35,1.35,0,0,1-1.9.36,4.39,4.39,0,0,0-2.36-1,2.61,2.61,0,0,0-1.54.46.78.78,0,0,0-.41.59.28.28,0,0,0,.05.21.69.69,0,0,0,.28.26,5.22,5.22,0,0,0,1.87.62l0,0h0a9.19,9.19,0,0,1,2.39.75,4,4,0,0,1,1.82,1.52,3.35,3.35,0,0,1,.49,1.7,3.73,3.73,0,0,1-1.62,3,5.82,5.82,0,0,1-3.34,1,7.44,7.44,0,0,1-4.57-1.78A1.38,1.38,0,0,1,187.66,195.72Z"/></svg>