<svg id="Layer_1" data-name="Layer 1" xmlns="http://www.w3.org/2000/svg" viewBox="0 0 332.87 173.25"><defs><style>.cls-1{fill:#ce1e55;}.cls-2{fill:#e2215b;}.cls-3{fill:#079b7f;}.cls-4{fill:#00c9a2;}.cls-5{fill:#f2b700;}.cls-6{fill:#daa727;}.cls-7{fill:#0fa3cf;}.cls-8{fill:#13b3e2;}.cls-9{fill:#fff;}</style></defs><title>NC-Type and Mark Pos</title><path class="cls-1" d="M119.94,27.21A27.2,27.2,0,0,1,166.38,8L127.9,46.45a27.15,27.15,0,0,1-8-19.24"/><path class="cls-2" d="M147.08,27.24a27.21,27.21,0,0,1-38.47,38.47Z"/><path class="cls-3" d="M127.81,112.13a27.2,27.2,0,0,1-19.23-46.44l38.48,38.48a27.14,27.14,0,0,1-19.24,8"/><path class="cls-4" d="M128.08,85.16a27.21,27.21,0,1,1,38.48,38.48Z"/><path class="cls-5" d="M177.88,85.18a27.2,27.2,0,0,1,46.44-19.24l-38.47,38.48a27.13,27.13,0,0,1-8-19.24"/><path class="cls-6" d="M205,85.16a27.21,27.21,0,1,1-38.48,38.47Z"/><path class="cls-7" d="M205.05,19.51A27.21,27.21,0,0,1,224.29,66L185.81,27.48a27.13,27.13,0,0,1,19.24-8"/><path class="cls-8" d="M204.85,46.45A27.21,27.21,0,1,1,166.38,8Z"/><path class="cls-9" d="M3.15,171.08a1.59,1.59,0,0,1-1.56,1.58A1.58,1.58,0,0,1,0,171.08V154.3A1.56,1.56,0,0,1,.64,153a1.59,1.59,0,0,1,2.19.35l9.31,12.89V154.33a1.57,1.57,0,0,1,1.56-1.56,1.59,1.59,0,0,1,1.59,1.56v16.75a1.6,1.6,0,0,1-1.59,1.58,1.56,1.56,0,0,1-1.18-.58.8.8,0,0,1-.14-.17l-9.23-12.8Z"/><path class="cls-9" d="M28.8,165.46a7.14,7.14,0,0,1,7-7.21,6.89,6.89,0,0,1,6.95,6.69v.14a.8.8,0,0,1,0,.26,1.39,1.39,0,0,1-1.5,1.15H32.09a3.77,3.77,0,0,0,1,1.9,4.45,4.45,0,0,0,2.77,1.3,4.7,4.7,0,0,0,3-.72,1.63,1.63,0,0,1,2.16-.09,1.32,1.32,0,0,1,0,1.88,7.29,7.29,0,0,1-5.16,1.9A7.16,7.16,0,0,1,28.8,165.46ZM31.95,164H40.1A4.71,4.71,0,0,0,35.84,161,4,4,0,0,0,31.95,164Z"/><path class="cls-9" d="M60.63,159.83A1.63,1.63,0,0,1,59,161.42H58.3v8a1.59,1.59,0,0,1,1.59,1.61,1.56,1.56,0,0,1-1.59,1.58,3.21,3.21,0,0,1-3.2-3.2v-8h-.84a1.58,1.58,0,0,1-1.59-1.59,1.56,1.56,0,0,1,1.59-1.58h.84v-4.18a1.59,1.59,0,0,1,1.61-1.58,1.56,1.56,0,0,1,1.59,1.58v4.18H59A1.61,1.61,0,0,1,60.63,159.83Z"/><path class="cls-9" d="M92.14,160.56l-4.76,11.19a1.66,1.66,0,0,1-.11.23,0,0,0,0,1,0,0,.79.79,0,0,1-.14.17.09.09,0,0,1-.06,0,.76.76,0,0,1-.17.15s0,0,0,.06a.78.78,0,0,1-.26.14,0,0,0,0,0,0,0,.91.91,0,0,0-.23.06h-.06a.88.88,0,0,1-.29,0,.78.78,0,0,1-.26,0h-.06a.42.42,0,0,0-.2-.06l0,0h0a.7.7,0,0,1-.26-.17v0c-.09,0-.12-.09-.17-.15s-.06,0-.06,0a.78.78,0,0,1-.14-.17,0,0,0,0,1,0,0,1.81,1.81,0,0,1-.12-.23l-2.1-5-2,5c0,.06-.09.14-.14.23v0l-.17.17a0,0,0,0,1,0,0l-.17.17a1,1,0,0,1-.26.17h-.06a0,0,0,0,0,0,0,.31.31,0,0,0-.17.06h-.06a1.07,1.07,0,0,1-.29,0,.88.88,0,0,1-.29,0h-.09a.42.42,0,0,0-.17-.06s0,0-.06,0a.53.53,0,0,1-.26-.17s0,0,0,0a1.11,1.11,0,0,0-.17-.15l-.06,0c0-.06-.09-.12-.12-.17s0,0,0,0a1.59,1.59,0,0,0-.14-.23l-4.73-11.19a1.49,1.49,0,0,1,.84-2,1.43,1.43,0,0,1,1.9.86l3.4,7.75,2-4.81a1.54,1.54,0,0,1,1.41-.92,1.48,1.48,0,0,1,1.41.92l2,4.81,3.4-7.75a1.44,1.44,0,0,1,1.93-.86A1.51,1.51,0,0,1,92.14,160.56Z"/><path class="cls-9" d="M107,170.56a7.2,7.2,0,0,1-2-5.07,7.44,7.44,0,0,1,2-5,6.73,6.73,0,0,1,5-2.19,6.37,6.37,0,0,1,4.81,2.19,7.2,7.2,0,0,1,2,5,7,7,0,0,1-2,5.07,6.37,6.37,0,0,1-4.81,2.19A6.73,6.73,0,0,1,107,170.56Zm1.15-5.07a4.66,4.66,0,0,0,1,3.06,3.9,3.9,0,0,0,2.77,1.07,3.78,3.78,0,0,0,2.65-1.07,4.43,4.43,0,0,0,1.12-3.06,4.34,4.34,0,0,0-1.12-3,4.07,4.07,0,0,0-2.65-1.1,4.19,4.19,0,0,0-2.77,1.1A4.56,4.56,0,0,0,108.11,165.49Z"/><path class="cls-9" d="M139.88,159.78a1.54,1.54,0,0,1-1.53,1.53,2.75,2.75,0,0,0-1.73.55,4.35,4.35,0,0,0-1.33,1.38,8.87,8.87,0,0,0-1.18,2.42v5.48a1.57,1.57,0,0,1-1.59,1.53,1.54,1.54,0,0,1-1.53-1.53V159.78a1.51,1.51,0,0,1,1.53-1.5,1.55,1.55,0,0,1,1.59,1.5v.2a3.87,3.87,0,0,1,.61-.58,6.33,6.33,0,0,1,3.63-1.12A1.5,1.5,0,0,1,139.88,159.78Z"/><path class="cls-9" d="M151.59,171.08v-17a1.58,1.58,0,0,1,1.59-1.58,1.61,1.61,0,0,1,1.61,1.58v10l5.91-5.91a1.62,1.62,0,0,1,2.25,0,1.57,1.57,0,0,1,0,2.25l-4.32,4.32,4.44,5.33a1.6,1.6,0,0,1-.23,2.25,1.55,1.55,0,0,1-2.22-.2L156.37,167l-1.59,1.59v2.54a1.61,1.61,0,0,1-1.61,1.58A1.58,1.58,0,0,1,151.59,171.08Z"/><path class="cls-9" d="M191.66,162.28a10.58,10.58,0,0,1,10.58-10.38,10.79,10.79,0,0,1,6.66,2.25,1.71,1.71,0,0,1,.29,2.31,1.69,1.69,0,0,1-2.31.32,7.18,7.18,0,0,0-4.64-1.59,7.64,7.64,0,0,0-5.19,2.08,7.11,7.11,0,0,0-2.1,5,7,7,0,0,0,2.1,5,7.63,7.63,0,0,0,5.19,2.08,7.25,7.25,0,0,0,4.64-1.59,1.75,1.75,0,0,1,2.31.32,1.7,1.7,0,0,1-.29,2.31,10.78,10.78,0,0,1-6.66,2.25A10.55,10.55,0,0,1,191.66,162.28Z"/><path class="cls-9" d="M234.59,165.49v5.65a1.54,1.54,0,0,1-1.53,1.53,1.57,1.57,0,0,1-1.5-1.24,6.55,6.55,0,0,1-3.83,1.24,6.7,6.7,0,0,1-4.9-2.1,7.38,7.38,0,0,1-2-5.07,7.27,7.27,0,0,1,2-5.07,6.64,6.64,0,0,1,4.9-2.16,6.57,6.57,0,0,1,3.83,1.27,1.57,1.57,0,0,1,1.5-1.27,1.54,1.54,0,0,1,1.53,1.56Zm-3.05,0a4.24,4.24,0,0,0-1.12-3,3.56,3.56,0,0,0-2.68-1.18,3.48,3.48,0,0,0-2.68,1.18,4.22,4.22,0,0,0-1.1,3,4.32,4.32,0,0,0,1.1,3,3.63,3.63,0,0,0,2.68,1.13,3.72,3.72,0,0,0,2.68-1.12A4.34,4.34,0,0,0,231.53,165.49Z"/><path class="cls-9" d="M259.9,164.25v6.89a1.51,1.51,0,0,1-1.5,1.53,1.56,1.56,0,0,1-1.53-1.53v-6.89a3,3,0,0,0-3-2.91,2.88,2.88,0,0,0-2.88,2.91v6.89a.58.58,0,0,1-.06.29,1.58,1.58,0,0,1-1.53,1.24,1.52,1.52,0,0,1-1.53-1.53V159.78a1.52,1.52,0,0,1,1.53-1.53,1.56,1.56,0,0,1,1.41.89,5.74,5.74,0,0,1,3.05-.89A6,6,0,0,1,259.9,164.25Z"/><path class="cls-9" d="M284.29,160.56l-4.73,11.19a.61.61,0,0,1-.11.2,0,0,0,0,1,0,0c-.06.06-.12.14-.17.2a0,0,0,0,1,0,0,1,1,0,0,1-.17.17,0,0,0,0,0,0,0,.54.54,0,0,1-.2.14h-.06v0a.56.56,0,0,0-.23.06h-.06a1.05,1.05,0,0,1-.29,0,1,1,0,0,1-.26,0h-.06a.68.68,0,0,0-.23-.06v0h-.06c-.09,0-.14-.09-.26-.14a0,0,0,0,0,0,0,1,1,0,0,1-.17-.17s0,0-.06,0a.8.8,0,0,0-.14-.2s0,0,0,0-.09-.12-.12-.2l-4.67-11.19a1.46,1.46,0,0,1,.84-2,1.48,1.48,0,0,1,1.93.84l3.32,7.84,3.34-7.84a1.49,1.49,0,1,1,2.77,1.13Z"/><path class="cls-9" d="M309.08,165.49v5.65a1.54,1.54,0,0,1-1.53,1.53,1.57,1.57,0,0,1-1.5-1.24,6.55,6.55,0,0,1-3.84,1.24,6.7,6.7,0,0,1-4.9-2.1,7.38,7.38,0,0,1-2-5.07,7.27,7.27,0,0,1,2-5.07,6.55,6.55,0,0,1,8.74-.89,1.57,1.57,0,0,1,1.5-1.27,1.55,1.55,0,0,1,1.53,1.56Zm-3.06,0a4.24,4.24,0,0,0-1.12-3,3.57,3.57,0,0,0-2.68-1.18,3.47,3.47,0,0,0-2.68,1.18,4.22,4.22,0,0,0-1.1,3,4.32,4.32,0,0,0,1.1,3,3.63,3.63,0,0,0,2.68,1.13,3.73,3.73,0,0,0,2.68-1.12A4.34,4.34,0,0,0,306,165.49Z"/><path class="cls-9" d="M322,168.54a1.5,1.5,0,0,1,2.16-.23,5.28,5.28,0,0,0,3.17,1.27,3.85,3.85,0,0,0,2-.55,1.18,1.18,0,0,0,.52-.87.43.43,0,0,0-.09-.29c0-.09-.14-.2-.37-.35a6.67,6.67,0,0,0-2.31-.81h0a11,11,0,0,1-2.51-.75,4.81,4.81,0,0,1-2-1.67,3.5,3.5,0,0,1-.49-1.82,4,4,0,0,1,1.7-3.17,6.2,6.2,0,0,1,3.54-1.07,7.42,7.42,0,0,1,4.33,1.58A1.59,1.59,0,0,1,332,162a1.52,1.52,0,0,1-2.13.4,4.94,4.94,0,0,0-2.65-1.07,2.93,2.93,0,0,0-1.73.52.88.88,0,0,0-.46.66.31.31,0,0,0,.06.23.76.76,0,0,0,.32.29,5.87,5.87,0,0,0,2.1.69l0,0h0a10.4,10.4,0,0,1,2.68.84,4.48,4.48,0,0,1,2,1.7,3.74,3.74,0,0,1,.55,1.9,4.16,4.16,0,0,1-1.82,3.34,6.56,6.56,0,0,1-3.75,1.15,8.38,8.38,0,0,1-5.13-2A1.54,1.54,0,0,1,322,168.54Z"/></svg>