<?xml version="1.0" encoding="utf-8"?>
<!-- Generator: Adobe Illustrator 21.0.0, SVG Export Plug-In . SVG Version: 6.00 Build 0)  -->
<svg version="1.1" id="Layer_1" xmlns="http://www.w3.org/2000/svg" xmlns:xlink="http://www.w3.org/1999/xlink" x="0px" y="0px"
	 viewBox="0 0 449.5 414.2" style="enable-background:new 0 0 449.5 414.2;" xml:space="preserve">
<style type="text/css">
	.st0{fill:#E2235C;}
	.st1{fill:#CE1E56;}
	.st2{opacity:0.25;}
	.st3{fill:#FFFFFF;}
	.st4{fill:#DBDDDD;}
	.st5{fill:none;}
	.st6{fill:#DAA627;}
	.st7{fill:#F1B71C;}
	.st8{fill:#ED468B;}
	.st9{fill:#D4137F;}
	.st10{fill:#3ABB9D;}
	.st11{fill:#009E81;}
</style>
<title>Artboard 1</title>
<g>
	<path class="st0" d="M147.9,180.4c-40.8-41.8-40-108.7,1.8-149.5c41.1-40.1,106.7-40.1,147.7,0"/>
	<path class="st1" d="M297.5,30.8c41,41.6,40.4,108.6-1.2,149.6c-41.2,40.5-107.2,40.5-148.3,0"/>
	<g class="st2">
		<path class="st3" d="M222.3,33.8c-41.2,0-74.7,33.2-74.7,74c0,19.7,7.9,38.5,21.9,52.4L275.1,55.5
			C261.1,41.6,242.1,33.8,222.3,33.8"/>
		<path class="st3" d="M169.5,160.3c14,13.9,33,21.8,52.8,21.7c41.2,0,74.7-33.2,74.7-74c0-19.7-7.9-38.5-21.9-52.4L169.5,160.3z"/>
	</g>
	<g class="st2">
		<path class="st3" d="M222.3,72.4c-20.8,0-37.6,16.3-37.6,36.4c0,9.7,4,19,11,25.7L248.9,83C241.7,76.1,232.2,72.3,222.3,72.4"/>
		<path class="st3" d="M195.7,134.4c7.1,6.9,16.7,10.7,26.6,10.7c20.8,0,37.6-16.3,37.6-36.4c0-9.7-4-19-11-25.7L195.7,134.4z"/>
	</g>
	
		<rect x="165.7" y="58.6" transform="matrix(0.7065 -0.7077 0.7077 0.7065 15.4825 156.8969)" class="st4" width="62.3" height="2.3"/>
	<rect x="164" y="56.9" transform="matrix(0.7062 -0.708 0.708 0.7062 15.5268 156.9553)" class="st4" width="65.9" height="5.8"/>
	<polygon class="st4" points="232.5,135.2 230.3,137.3 170.9,77.9 173.1,75.7 	"/>
	<polygon class="st4" points="230.3,140.7 167.6,77.9 173.1,72.4 235.8,135.2 	"/>
	<circle class="st3" cx="216.7" cy="40.6" r="11.6"/>
	<circle class="st3" cx="176.1" cy="80.3" r="16.8"/>
	<circle class="st3" cx="241.4" cy="145.5" r="25.3"/>
</g>
<g>
	<rect x="341.7" y="306.3" class="st5" width="5.8" height="3.2"/>
	<rect x="315.4" y="301.9" class="st3" width="58.3" height="11.9"/>
	<path class="st6" d="M418.8,233.5L270.3,382c6.5,6.5,13.9,12.2,21.9,16.8v-19.2h98v22.8c52.2-25.2,74.1-87.9,48.9-140.1
		C434,251.5,427.1,241.9,418.8,233.5L418.8,233.5z"/>
	<path class="st3" d="M292.3,379.5v19.2c30.1,17.2,66.7,18.6,98,3.5v-22.7H292.3z"/>
	<path class="st7" d="M270.3,382c-41-41-41-107.4,0-148.4s107.4-41,148.4,0"/>
	<rect x="310.9" y="228.9" class="st4" width="62.4" height="139.3"/>
	<rect x="338.9" y="345.3" class="st5" width="7" height="3.9"/>
	<rect x="338.9" y="337.2" class="st5" width="7" height="4.1"/>
	<rect x="305.6" y="220.7" class="st3" width="32.2" height="111.2"/>
	<rect x="306.8" y="341.9" class="st3" width="70.4" height="14.4"/>
	<rect x="307.2" y="368.2" class="st3" width="70.4" height="14.4"/>
	<rect x="346.4" y="220.4" class="st3" width="31.3" height="111.6"/>
	<path class="st8" d="M355.9,256.1c-3.2-3.3-3.1-8.7,0.2-11.9c3.3-3.1,8.4-3.1,11.7,0"/>
	<path class="st9" d="M367.8,244.2c3.2,3.3,3.1,8.7-0.2,11.9c-3.3,3.1-8.4,3.1-11.7,0l0,0"/>
</g>
<g>
	<path class="st10" d="M30.9,383.4c-41.2-41.2-41.2-108,0-149.3s108-41.2,149.3,0"/>
	<path class="st11" d="M180.2,234.1c40.9,41.6,40.3,108.4-1.2,149.3c-41.1,40.4-107,40.4-148,0"/>
	<path class="st9" d="M77.3,372.4c0.8,0,1.5,0.7,1.5,1.5c0,0.8-0.7,1.5-1.5,1.5c-0.8,0-1.5-0.7-1.5-1.5l0,0
		C75.8,373.1,76.5,372.4,77.3,372.4 M77.3,367.6c-3.5,0-6.3,2.8-6.3,6.3c0,3.5,2.8,6.3,6.3,6.3c3.5,0,6.3-2.8,6.3-6.3
		C83.6,370.5,80.8,367.6,77.3,367.6C77.3,367.6,77.3,367.6,77.3,367.6z"/>
	<path class="st3" d="M68.6,299c0,1.3-0.4,2.3-0.9,2.3c-0.5,0-0.9-1-0.9-2.3c0-1.3,0.4-2.3,0.9-2.3S68.6,297.7,68.6,299z"/>
	<path class="st3" d="M69.8,299.1c0,1.3-0.4,2.3-0.9,2.3c-0.5,0-0.9-1-0.9-2.3s0.4-2.3,0.9-2.3C69.4,296.9,69.8,297.9,69.8,299.1z"
		/>
	<path class="st3" d="M71.3,299c0,1.3-0.4,2.3-0.8,2.3s-0.9-1-0.9-2.3s0.4-2.2,0.8-2.2S71.3,297.8,71.3,299z"/>
	<path class="st3" d="M72.5,299.1c0,1.3-0.4,2.3-0.9,2.3c-0.5,0-0.8-1-0.8-2.3s0.4-2.3,0.8-2.3C72.1,296.9,72.5,297.9,72.5,299.1z"
		/>
	<path class="st3" d="M73.8,299.2c0,1.2-0.4,2.3-0.8,2.3s-0.8-1-0.8-2.3s0.4-2.3,0.8-2.3C73.4,296.9,73.8,298,73.8,299.2z"/>
	<path class="st3" d="M75.2,299c0,1.3-0.4,2.3-0.9,2.3s-0.9-1-0.9-2.3s0.4-2.2,0.9-2.2C74.9,296.8,75.2,297.7,75.2,299z"/>
	<path class="st3" d="M76.5,299.1c0,1.3-0.4,2.3-0.9,2.3s-0.8-1-0.8-2.3s0.4-2.3,0.8-2.3S76.5,297.8,76.5,299.1z"/>
	<path class="st3" d="M77.9,299c0,1.3-0.4,2.3-0.9,2.3c-0.5,0-0.8-1-0.8-2.3c0-1.3,0.4-2.3,0.9-2.3C77.6,296.7,77.9,297.7,77.9,299z
		"/>
	<path class="st3" d="M79.1,299.1c0,1.2-0.4,2.3-0.9,2.3s-0.9-1-0.9-2.3c0-1.2,0.4-2.3,0.8-2.3C78.7,296.9,79.1,297.9,79.1,299.1z"
		/>
	<path class="st3" d="M80.5,299.2c0,1.3-0.4,2.3-0.9,2.3c-0.5,0-0.8-1-0.9-2.3c0-1.3,0.4-2.3,0.9-2.3
		C80.1,296.9,80.5,298,80.5,299.2z"/>
	<path class="st3" d="M81.6,298.9c0,1.3-0.4,2.3-0.8,2.3c-0.5,0-0.9-1-0.9-2.3c0-1.3,0.4-2.3,0.9-2.3
		C81.2,296.6,81.6,297.6,81.6,298.9z"/>
	<path class="st3" d="M82.9,299c0,1.2-0.4,2.3-0.9,2.3c-0.5,0-0.9-1-0.9-2.3s0.4-2.3,0.9-2.3S82.9,297.7,82.9,299z"/>
	<path class="st3" d="M84.2,298.9c0,1.3-0.4,2.3-0.8,2.3c-0.5,0-0.9-1-0.9-2.3c0-1.3,0.4-2.3,0.9-2.3
		C83.9,296.6,84.2,297.6,84.2,298.9z"/>
	<path class="st3" d="M85.5,299c0,1.3-0.4,2.3-0.9,2.3c-0.5,0-0.8-1-0.8-2.3s0.4-2.3,0.8-2.3C85.1,296.7,85.5,297.7,85.5,299z"/>
	<path class="st3" d="M86.8,299.1c0,1.3-0.4,2.3-0.9,2.3c-0.5,0-0.9-1-0.9-2.3s0.4-2.3,0.9-2.3C86.4,296.9,86.8,297.9,86.8,299.1z"
		/>
	<path class="st3" d="M123.4,299c0,1.3-0.4,2.3-0.8,2.3c-0.5,0-0.9-1-0.9-2.3s0.4-2.3,0.9-2.3S123.4,297.8,123.4,299z"/>
	<path class="st3" d="M124.6,299.1c0,1.3-0.4,2.3-0.9,2.3c-0.5,0-0.9-1-0.9-2.3s0.4-2.3,0.9-2.3S124.6,297.9,124.6,299.1z"/>
	<path class="st3" d="M126,299c0,1.3-0.4,2.3-0.8,2.3c-0.5,0-0.9-1-0.9-2.3c0-1.3,0.4-2.3,0.9-2.3S126,297.7,126,299z"/>
	<path class="st3" d="M127.3,299.1c0,1.2-0.4,2.3-0.9,2.3c-0.5,0-0.9-1-0.8-2.3c0-1.3,0.4-2.3,0.8-2.3S127.3,297.9,127.3,299.1z"/>
	<path class="st3" d="M128.6,299.2c0,1.2-0.4,2.3-0.8,2.3c-0.5,0-0.9-1-0.9-2.3s0.4-2.3,0.9-2.3S128.6,298,128.6,299.2z"/>
	<path class="st3" d="M130,299c0,1.3-0.4,2.3-0.9,2.3s-0.9-1-0.8-2.3c0-1.3,0.4-2.3,0.8-2.3C129.6,296.7,130,297.8,130,299z"/>
	<path class="st3" d="M131.2,299.1c0,1.2-0.4,2.3-0.9,2.3s-0.9-1-0.9-2.3c0-1.3,0.4-2.3,0.9-2.3S131.2,297.9,131.2,299.1z"/>
	<path class="st3" d="M132.7,299c0,1.3-0.4,2.3-0.9,2.3c-0.5,0-0.8-1-0.8-2.3s0.4-2.3,0.8-2.3S132.7,297.8,132.7,299z"/>
	<path class="st3" d="M133.9,299.1c0,1.2-0.4,2.3-0.9,2.3c-0.5,0-0.8-1-0.8-2.3s0.4-2.3,0.8-2.3
		C133.5,296.9,133.9,297.9,133.9,299.1z"/>
	<path class="st3" d="M135.2,299.2c0,1.2-0.4,2.3-0.9,2.3s-0.8-1-0.8-2.3s0.4-2.3,0.8-2.3S135.2,298,135.2,299.2z"/>
	<path class="st3" d="M136.4,298.9c0,1.3-0.4,2.3-0.8,2.3s-0.9-1-0.9-2.3c0-1.3,0.4-2.3,0.9-2.3S136.4,297.6,136.4,298.9z"/>
	<path class="st3" d="M137.6,299c0,1.3-0.4,2.3-0.9,2.3c-0.5,0-0.8-1-0.8-2.3s0.4-2.3,0.8-2.3C137.2,296.7,137.6,297.7,137.6,299z"
		/>
	<path class="st3" d="M139,298.9c0,1.3-0.4,2.3-0.8,2.3s-0.9-1-0.9-2.3c0-1.3,0.4-2.3,0.9-2.3S139,297.6,139,298.9z"/>
	<path class="st3" d="M140.3,299c0,1.3-0.4,2.3-0.9,2.3c-0.5,0-0.9-1-0.8-2.3c0-1.3,0.4-2.3,0.8-2.3
		C139.9,296.7,140.3,297.8,140.3,299z"/>
	<path class="st3" d="M141.6,299.1c0,1.3-0.4,2.3-0.8,2.3c-0.5,0-0.9-1-0.9-2.3c0-1.3,0.4-2.3,0.9-2.3
		C141.2,296.9,141.6,297.9,141.6,299.1z"/>
	<path class="st3" d="M96.2,298.7c0,1.3-0.4,2.3-0.9,2.3s-0.9-1-0.8-2.3c0-1.3,0.4-2.3,0.8-2.3S96.2,297.5,96.2,298.7z"/>
	<path class="st3" d="M97.3,298.8c0,1.3-0.4,2.3-0.8,2.3c-0.5,0-0.8-1-0.8-2.3s0.4-2.3,0.8-2.3C97,296.5,97.3,297.6,97.3,298.8z"/>
	<path class="st3" d="M98.8,298.7c0,1.3-0.4,2.3-0.9,2.3s-0.8-1-0.8-2.3s0.4-2.3,0.8-2.3S98.8,297.5,98.8,298.7z"/>
	<path class="st3" d="M100,298.8c0,1.3-0.4,2.3-0.8,2.3c-0.5,0-0.9-1-0.9-2.3s0.4-2.3,0.9-2.3C99.6,296.5,100,297.6,100,298.8z"/>
	<path class="st3" d="M101.3,298.9c0,1.3-0.4,2.3-0.9,2.3c-0.5,0-0.8-1-0.8-2.3c0-1.3,0.4-2.3,0.8-2.3
		C100.9,296.6,101.3,297.6,101.3,298.9z"/>
	<path class="st3" d="M102.8,298.7c0,1.3-0.4,2.3-0.8,2.3s-0.9-1-0.9-2.3s0.4-2.3,0.9-2.3S102.8,297.5,102.8,298.7z"/>
	<path class="st3" d="M104,298.8c0,1.3-0.4,2.3-0.9,2.3c-0.5,0-0.8-1-0.8-2.3s0.4-2.3,0.8-2.3C103.6,296.5,104,297.6,104,298.8z"/>
	<path class="st3" d="M105.4,298.7c0,1.3-0.4,2.3-0.9,2.3c-0.5,0-0.9-1-0.9-2.3s0.4-2.3,0.9-2.3C105,296.4,105.4,297.5,105.4,298.7z
		"/>
	<path class="st3" d="M106.7,298.8c0,1.3-0.4,2.3-0.9,2.3c-0.5,0-0.9-1-0.9-2.3s0.4-2.3,0.9-2.3
		C106.3,296.5,106.7,297.6,106.7,298.8z"/>
	<path class="st3" d="M108,298.9c0,1.3-0.4,2.3-0.8,2.3c-0.5,0-0.9-1-0.9-2.3c0-1.3,0.4-2.3,0.9-2.3
		C107.6,296.6,108,297.6,108,298.9z"/>
	<path class="st3" d="M109.1,298.6c0,1.3-0.4,2.3-0.8,2.3s-0.9-1-0.9-2.3s0.4-2.3,0.9-2.3S109.1,297.4,109.1,298.6z"/>
	<path class="st3" d="M110.4,298.7c0,1.3-0.4,2.3-0.8,2.3c-0.5,0-0.9-1-0.9-2.3s0.4-2.3,0.9-2.3C110,296.4,110.4,297.5,110.4,298.7z
		"/>
	<path class="st3" d="M111.8,298.6c0,1.3-0.4,2.3-0.9,2.3s-0.9-1-0.9-2.3s0.4-2.3,0.9-2.3C111.4,296.3,111.8,297.4,111.8,298.6z"/>
	<path class="st3" d="M113,298.7c0,1.3-0.4,2.3-0.9,2.3c-0.5,0-0.9-1-0.9-2.3s0.4-2.3,0.9-2.3C112.6,296.4,113,297.5,113,298.7z"/>
	<path class="st3" d="M114.3,298.8c0,1.3-0.4,2.3-0.8,2.3s-0.9-1-0.9-2.3s0.4-2.3,0.9-2.3S114.3,297.6,114.3,298.8z"/>
	<polyline class="st3" points="70.8,380.4 69.9,386.9 70.3,390.2 71.8,387.1 72.8,380.7 	"/>
	<path class="st3" d="M147.2,378l-28.1-117.4c4.7-7.6,2.4-17.7-5.3-22.4c-1.5-0.9-3.2-1.6-4.9-2l0.7-21.5c0-1.9-1.5-3.4-3.4-3.4
		h-3.1c-1.9,0-3.4,1.5-3.4,3.4l0,0l0.7,21.8c-8.6,2.5-13.6,11.5-11.1,20.2c0.2,0.7,0.4,1.4,0.7,2L61.8,377.6l3.5,11.4l1,0.1
		l-0.6,3.9l1.2,8.9l3.8-8.1l0.7-4.3l3.1,0.3L94.8,305l-1.4-1l3.6-14.9l1.9,0.5l4.4-21.1c0.6,0.1,1.3,0.2,1.9,0.2c0.2,0,0.3,0,0.5,0
		l4.5,21.4l1.9-0.5l3.6,14.9l-1.4,1l20.2,84.7l3.1-0.3l0.6,3.9l4,8.5l1.1-8.9l-0.6-3.9l1-0.1L147.2,378z M107.4,253.3l-2.3,8.3
		c-0.4,0-0.7,0-1.1-0.1l-2.3-8.7l-5.9-1.3c0.2-5.2,4.6-9.3,9.8-9.1c5,0.2,8.9,4.2,9.1,9.2L107.4,253.3z"/>
	<path class="st9" d="M68.4,300.4c0,1.2-1,2.2-2.3,2.2h-2.6c-1.2,0-2.2-1-2.3-2.3v-3.1c0-1.3,1-2.3,2.3-2.3l0,0h2.6
		c1.3,0,2.3,1,2.3,2.3l0,0L68.4,300.4z"/>
	<path class="st9" d="M147.6,300.3c0,1.3-0.9,2.3-2.2,2.3c0,0,0,0-0.1,0h-2.6c-1.3,0-2.3-1-2.3-2.3l0,0v-3.1c0-1.3,1-2.3,2.3-2.3
		c0,0,0,0,0,0h2.6c1.3,0,2.3,1,2.3,2.3l0,0V300.3z"/>
	<path class="st9" d="M106.4,308.2c0,1.3-1,2.3-2.3,2.3c0,0,0,0,0,0l0,0c-1.3,0-2.3-1-2.3-2.3l0,0v-18.5c0-1.3,0.9-2.3,2.2-2.3
		c0,0,0.1,0,0.1,0l0,0c1.3,0,2.3,1,2.3,2.3c0,0,0,0,0,0.1V308.2z"/>
	<path class="st9" d="M105,266.3c0.8,0,1.5,0.7,1.5,1.5c0,0.8-0.7,1.5-1.5,1.5c-0.8,0-1.5-0.7-1.5-1.5l0,0
		C103.5,267,104.1,266.3,105,266.3C105,266.3,105,266.3,105,266.3 M105,261.5c-3.5,0-6.3,2.8-6.3,6.3s2.8,6.3,6.3,6.3
		c3.5,0,6.3-2.8,6.3-6.3C111.3,264.3,108.5,261.5,105,261.5C105,261.5,105,261.5,105,261.5L105,261.5z"/>
	<path class="st9" d="M131.2,372.8c0.8,0,1.5,0.7,1.5,1.5c0,0.8-0.7,1.5-1.5,1.5c-0.8,0-1.5-0.7-1.5-1.5
		C129.7,373.5,130.4,372.9,131.2,372.8C131.2,372.8,131.2,372.8,131.2,372.8 M131.2,368c-3.5,0-6.3,2.8-6.3,6.3
		c0,3.5,2.8,6.3,6.3,6.3c3.5,0,6.3-2.8,6.3-6.3C137.5,370.9,134.7,368,131.2,368C131.2,368,131.2,368,131.2,368z"/>
</g>
</svg>
