<svg xmlns="http://www.w3.org/2000/svg" viewBox="0 0 909.44 90.63"><defs><style>.cls-1{fill:none;stroke:#dae3e5;stroke-width:2px;}.cls-1,.cls-2{stroke-miterlimit:10;}.cls-2{fill:#dae3e5;stroke:#fff;stroke-width:3px;opacity:0.5;}.cls-3{fill:#fff;}</style></defs><title>timeline</title><g id="Layer_1" data-name="Layer 1"><line class="cls-1" x1="289.95" y1="13.36" x2="71.69" y2="13.36"/><line class="cls-1" x1="588.96" y1="13.36" x2="315.96" y2="13.36"/><line class="cls-1" x1="837.06" y1="13.36" x2="616.09" y2="13.36"/><circle class="cls-2" cx="58.69" cy="13.36" r="11.86"/><circle class="cls-2" cx="303.09" cy="13.36" r="11.86"/><circle class="cls-2" cx="602.47" cy="13.36" r="11.86"/><circle class="cls-2" cx="850.43" cy="13.36" r="11.86"/><path class="cls-3" d="M21.79,58.42a6,6,0,0,1-2.17,2.33,5.85,5.85,0,0,1-3.13.85,5.84,5.84,0,0,1-3.13-.85,6,6,0,0,1-2.17-2.33,7.32,7.32,0,0,1,0-6.59,6,6,0,0,1,2.17-2.33,5.84,5.84,0,0,1,3.13-.85,5.85,5.85,0,0,1,3.13.85,6,6,0,0,1,2.17,2.33,7.32,7.32,0,0,1,0,6.59Zm-1.61-5.73A4.21,4.21,0,0,0,18.68,51a4,4,0,0,0-2.19-.62A4,4,0,0,0,14.3,51a4.15,4.15,0,0,0-1.5,1.7,5.82,5.82,0,0,0,0,4.9,4.21,4.21,0,0,0,1.5,1.71,4.16,4.16,0,0,0,4.37,0,4.21,4.21,0,0,0,1.5-1.71,5.78,5.78,0,0,0,0-4.88Z" transform="translate(-6.46 -8.81)"/><path class="cls-3" d="M31.24,52.23q.94.45.94,1.15a.85.85,0,0,1-.2.55.62.62,0,0,1-.5.24.79.79,0,0,1-.37-.07l-.37-.23a2,2,0,0,0-.34-.25,2.38,2.38,0,0,0-.61-.18,4.06,4.06,0,0,0-.72-.07,3.16,3.16,0,0,0-1.66.43A2.94,2.94,0,0,0,26.3,55a3.64,3.64,0,0,0-.4,1.7,3.7,3.7,0,0,0,.39,1.71,2.94,2.94,0,0,0,1.09,1.19A3,3,0,0,0,29,60a3.4,3.4,0,0,0,1.51-.29l.34-.23a2.11,2.11,0,0,1,.31-.22.7.7,0,0,1,.33-.07.73.73,0,0,1,.57.23.83.83,0,0,1,.21.58,1,1,0,0,1-.48.75,3.84,3.84,0,0,1-1.28.6,6.1,6.1,0,0,1-1.72.23A4.52,4.52,0,0,1,26.37,61a4.28,4.28,0,0,1-1.61-1.76,5.5,5.5,0,0,1-.57-2.51,5.3,5.3,0,0,1,.59-2.51,4.43,4.43,0,0,1,1.66-1.76,4.62,4.62,0,0,1,2.43-.64A5.5,5.5,0,0,1,31.24,52.23Z" transform="translate(-6.46 -8.81)"/><path class="cls-3" d="M36.58,53.67V59q0,.9.81.9a1.28,1.28,0,0,0,.34-.06,1.31,1.31,0,0,1,.34-.06.5.5,0,0,1,.4.2.76.76,0,0,1-.27,1.15,1.8,1.8,0,0,1-1,.27,4.41,4.41,0,0,1-1.09-.13,1.61,1.61,0,0,1-.88-.64,2.57,2.57,0,0,1-.39-1.56V53.67h-1a.77.77,0,0,1-.79-.79.74.74,0,0,1,.23-.56.79.79,0,0,1,.57-.22h1V50.59a.85.85,0,0,1,.24-.61.83.83,0,0,1,.62-.25.8.8,0,0,1,.6.25.85.85,0,0,1,.24.61V52.1h1.49a.77.77,0,0,1,.79.79.74.74,0,0,1-.23.56.79.79,0,0,1-.57.22Z" transform="translate(-6.46 -8.81)"/><path class="cls-3" d="M49.07,59.23A4.58,4.58,0,0,1,47.35,61a4.9,4.9,0,0,1-4.81,0,4.57,4.57,0,0,1-1.72-1.75,5,5,0,0,1-.63-2.52,5.13,5.13,0,0,1,.63-2.54,4.54,4.54,0,0,1,1.72-1.76,4.9,4.9,0,0,1,4.81,0,4.55,4.55,0,0,1,1.72,1.76,5.14,5.14,0,0,1,.63,2.54A5,5,0,0,1,49.07,59.23ZM47.59,55a3,3,0,0,0-1.1-1.19,3,3,0,0,0-3.08,0A3,3,0,0,0,42.31,55a3.66,3.66,0,0,0-.4,1.74,3.56,3.56,0,0,0,.4,1.71,3,3,0,0,0,1.1,1.18,3,3,0,0,0,3.08,0,3,3,0,0,0,1.1-1.18A3.56,3.56,0,0,0,48,56.71,3.66,3.66,0,0,0,47.59,55Z" transform="translate(-6.46 -8.81)"/><path class="cls-3" d="M58.27,52.41a4.37,4.37,0,0,1,1.56,1.75,5.49,5.49,0,0,1,.57,2.52,5.6,5.6,0,0,1-.57,2.54A4.34,4.34,0,0,1,58.27,61a4,4,0,0,1-2.18.63,3.78,3.78,0,0,1-1.75-.41,4.08,4.08,0,0,1-1.31-1v.52a.85.85,0,0,1-.24.61.88.88,0,0,1-1.22,0,.84.84,0,0,1-.24-.62V49a.86.86,0,0,1,.23-.62.81.81,0,0,1,.61-.24.83.83,0,0,1,.62.25A.85.85,0,0,1,53,49v4.39a3.61,3.61,0,0,1,1.26-1.12,3.53,3.53,0,0,1,1.76-.47A4,4,0,0,1,58.27,52.41Zm-.92,7.17a3,3,0,0,0,1-1.21,3.86,3.86,0,0,0,.37-1.7A3.8,3.8,0,0,0,58.39,55a2.89,2.89,0,0,0-1-1.19,2.69,2.69,0,0,0-1.49-.43,2.72,2.72,0,0,0-1.51.43,2.91,2.91,0,0,0-1,1.18,3.79,3.79,0,0,0-.37,1.7,3.85,3.85,0,0,0,.37,1.71,3,3,0,0,0,1,1.2,2.67,2.67,0,0,0,1.51.44A2.65,2.65,0,0,0,57.35,59.58Z" transform="translate(-6.46 -8.81)"/><path class="cls-3" d="M70.38,56.9a.86.86,0,0,1-.59.23H63.45a3.13,3.13,0,0,0,1,2.11,3.06,3.06,0,0,0,2.13.79,3.34,3.34,0,0,0,1.4-.25,3.53,3.53,0,0,0,1-.65,1,1,0,0,1,.52-.16.68.68,0,0,1,.51.22.7.7,0,0,1,.21.5.89.89,0,0,1-.36.68,4.23,4.23,0,0,1-1.39.88,4.55,4.55,0,0,1-1.76.36A5.21,5.21,0,0,1,64.11,61a4.26,4.26,0,0,1-1.71-1.71,5.07,5.07,0,0,1-.6-2.48,5.47,5.47,0,0,1,.62-2.65,4.5,4.5,0,0,1,1.64-1.76,4.22,4.22,0,0,1,4.35,0A4.52,4.52,0,0,1,70,54a4.68,4.68,0,0,1,.63,2.34A.77.77,0,0,1,70.38,56.9Zm-5.89-3a2.79,2.79,0,0,0-1,1.75h5.31v-.14A2.2,2.2,0,0,0,68,54a2.71,2.71,0,0,0-1.74-.61A2.78,2.78,0,0,0,64.5,53.93Z" transform="translate(-6.46 -8.81)"/><path class="cls-3" d="M78.14,52a.72.72,0,0,1,.34.6.89.89,0,0,1-.23.66.75.75,0,0,1-.55.23,1.72,1.72,0,0,1-.49-.11,2,2,0,0,0-.59-.13,1.83,1.83,0,0,0-1.09.39,2.84,2.84,0,0,0-.86,1.06,3.35,3.35,0,0,0-.33,1.5v4.34a.85.85,0,0,1-.24.61.83.83,0,0,1-.62.25.81.81,0,0,1-.61-.24.86.86,0,0,1-.23-.62v-7.7a.85.85,0,0,1,.24-.61.8.8,0,0,1,.6-.25.83.83,0,0,1,.62.25.85.85,0,0,1,.24.61v.92a3.41,3.41,0,0,1,1.19-1.43,3.19,3.19,0,0,1,1.8-.57A1.36,1.36,0,0,1,78.14,52Z" transform="translate(-6.46 -8.81)"/><path class="cls-3" d="M92.77,60.08a.78.78,0,0,1,.23.58.73.73,0,0,1-.23.56.82.82,0,0,1-.58.22H85.81a.82.82,0,0,1-.59-.23.8.8,0,0,1-.23-.6.92.92,0,0,1,.25-.61l4-4.36a5,5,0,0,0,1.67-3.15,2.19,2.19,0,0,0-2.27-2.25,2.4,2.4,0,0,0-1.28.38,2.79,2.79,0,0,0-1,1.08.84.84,0,0,1-.68.38.86.86,0,0,1-.58-.23.7.7,0,0,1-.27-.54.78.78,0,0,1,.13-.41,4.07,4.07,0,0,1,.39-.5,4.3,4.3,0,0,1,1.51-1.26,4,4,0,0,1,1.85-.47,4.26,4.26,0,0,1,2.09.49,3.42,3.42,0,0,1,1.36,1.33,3.89,3.89,0,0,1,.48,1.94q0,2.07-2.23,4.46l-2.72,3H92.2A.78.78,0,0,1,92.77,60.08Z" transform="translate(-6.46 -8.81)"/><path class="cls-3" d="M96.59,60.78A5,5,0,0,1,95,58.49a10.94,10.94,0,0,1,0-6.73,5,5,0,0,1,1.58-2.29,4.25,4.25,0,0,1,5,0,5,5,0,0,1,1.57,2.29,10.93,10.93,0,0,1,0,6.73,5,5,0,0,1-1.57,2.29,4.25,4.25,0,0,1-5,0Zm4.56-2.14a7,7,0,0,0,.73-3.51,7,7,0,0,0-.73-3.51,2.3,2.3,0,0,0-4.09,0,7,7,0,0,0-.73,3.51,7,7,0,0,0,.73,3.51,2.3,2.3,0,0,0,4.09,0Z" transform="translate(-6.46 -8.81)"/><path class="cls-3" d="M109.16,49.09a.85.85,0,0,1,.23.6V60.56a.81.81,0,0,1-.27.61.94.94,0,0,1-.67.25.88.88,0,0,1-.65-.25.83.83,0,0,1-.25-.61V51.2l-1.58,1a.82.82,0,0,1-.45.13.79.79,0,0,1-.61-.28.89.89,0,0,1-.25-.6.76.76,0,0,1,.13-.41,1,1,0,0,1,.32-.32L107.95,49a1.41,1.41,0,0,1,.63-.13A.82.82,0,0,1,109.16,49.09Z" transform="translate(-6.46 -8.81)"/><path class="cls-3" d="M118,53.91a4.21,4.21,0,0,1,1.41,1.52,4.16,4.16,0,0,1,.53,2.05A4.12,4.12,0,0,1,118,61a4,4,0,0,1-2.07.56,3.79,3.79,0,0,1-2.24-.67,4.34,4.34,0,0,1-1.45-1.75,5.43,5.43,0,0,1-.5-2.32,10,10,0,0,1,.54-3.05,9,9,0,0,1,1.77-3.1,6.78,6.78,0,0,1,3.16-2,1,1,0,0,1,.32-.05,1,1,0,0,1,.62.2.77.77,0,0,1,.24.63.81.81,0,0,1-.2.54,1,1,0,0,1-.54.32,6.22,6.22,0,0,0-2.34,1.55,6.49,6.49,0,0,0-1.55,2.47,3.46,3.46,0,0,1,2.43-1A3.41,3.41,0,0,1,118,53.91Zm-.45,5.39a2.53,2.53,0,0,0,.68-1.82,2.65,2.65,0,0,0-.66-1.81,2.16,2.16,0,0,0-1.7-.75,2.31,2.31,0,0,0-1.77.75,2.61,2.61,0,0,0-.69,1.85,2.51,2.51,0,0,0,.67,1.77,2.43,2.43,0,0,0,3.46,0Z" transform="translate(-6.46 -8.81)"/><path class="cls-3" d="M13,68a3.2,3.2,0,0,1,1.23,1.28,3.83,3.83,0,0,1,.44,1.84A4,4,0,0,1,14.28,73a3.33,3.33,0,0,1-3,1.82H7.54v4.79a.54.54,0,1,1-1.08,0V68.07A.52.52,0,0,1,7,67.53h4.27A3.49,3.49,0,0,1,13,68ZM13,73a2.8,2.8,0,0,0,.65-1.89A2.57,2.57,0,0,0,13,69.3a2.2,2.2,0,0,0-1.69-.7H7.54v5.17h3.73A2.12,2.12,0,0,0,13,73Z" transform="translate(-6.46 -8.81)"/><path class="cls-3" d="M21.86,70.86a.46.46,0,0,1,.29.43.57.57,0,0,1-.14.4.46.46,0,0,1-.34.15,1.35,1.35,0,0,1-.35-.09,1.53,1.53,0,0,0-.5-.09,2.14,2.14,0,0,0-1.32.51,4,4,0,0,0-1.08,1.32A3.51,3.51,0,0,0,18,75.15v4.45a.54.54,0,1,1-1.08,0V71.53a.54.54,0,1,1,1.08,0v1.58a4.13,4.13,0,0,1,1.25-1.7,3.13,3.13,0,0,1,2-.69A1.43,1.43,0,0,1,21.86,70.86Z" transform="translate(-6.46 -8.81)"/><path class="cls-3" d="M31.35,78a4.39,4.39,0,0,1-1.64,1.72,4.65,4.65,0,0,1-4.64,0A4.38,4.38,0,0,1,23.43,78a5.34,5.34,0,0,1,0-4.9,4.46,4.46,0,0,1,1.64-1.73,4.59,4.59,0,0,1,4.64,0,4.46,4.46,0,0,1,1.64,1.73,5.34,5.34,0,0,1,0,4.9Zm-.94-4.39a3.43,3.43,0,0,0-1.25-1.36,3.31,3.31,0,0,0-1.77-.49,3.26,3.26,0,0,0-1.76.49,3.5,3.5,0,0,0-1.25,1.36,4.31,4.31,0,0,0,0,3.87,3.5,3.5,0,0,0,1.25,1.36,3.25,3.25,0,0,0,1.76.5,3.35,3.35,0,0,0,3-1.84,4.43,4.43,0,0,0,0-3.89Z" transform="translate(-6.46 -8.81)"/><path class="cls-3" d="M32.52,83.55a.49.49,0,0,1-.14-.36v-.07a.47.47,0,0,1,.13-.33.58.58,0,0,1,.34-.17A2,2,0,0,0,34,82a1.71,1.71,0,0,0,.44-1.23V71.51a.54.54,0,1,1,1.08,0V81a2.68,2.68,0,0,1-1.38,2.4,2.49,2.49,0,0,1-1.21.33A.49.49,0,0,1,32.52,83.55Zm1.85-14.17a.62.62,0,0,1-.2-.5V68.7a.6.6,0,0,1,.21-.49.86.86,0,0,1,.57-.17q.72,0,.72.67v.18a.63.63,0,0,1-.19.5.79.79,0,0,1-.55.17A.83.83,0,0,1,34.37,69.38Z" transform="translate(-6.46 -8.81)"/><path class="cls-3" d="M46.11,75.37a.53.53,0,0,1-.38.15h-6.8a4.16,4.16,0,0,0,.44,1.94,3.33,3.33,0,0,0,1.26,1.35,3.66,3.66,0,0,0,1.94.5,3.27,3.27,0,0,0,1.55-.36,3.19,3.19,0,0,0,1.1-.92.61.61,0,0,1,.38-.16.49.49,0,0,1,.47.47.53.53,0,0,1-.18.38,4.53,4.53,0,0,1-1.45,1.15,4,4,0,0,1-1.85.45,4.93,4.93,0,0,1-2.45-.59,4.21,4.21,0,0,1-1.66-1.67,5,5,0,0,1-.59-2.48A5.45,5.45,0,0,1,38.47,73,4.22,4.22,0,0,1,40,71.3a4,4,0,0,1,2.07-.58,4.24,4.24,0,0,1,2,.5,4,4,0,0,1,1.54,1.48,4.45,4.45,0,0,1,.61,2.3A.49.49,0,0,1,46.11,75.37Zm-5.95-2.89A3.34,3.34,0,0,0,39,74.55h6.14v-.14A2.84,2.84,0,0,0,44.62,73a2.94,2.94,0,0,0-1.12-.92,3.27,3.27,0,0,0-1.4-.31A3,3,0,0,0,40.16,72.48Z" transform="translate(-6.46 -8.81)"/><path class="cls-3" d="M54.06,70.91a3.42,3.42,0,0,1,1.17.51.89.89,0,0,1,.44.7.55.55,0,0,1-.13.36.42.42,0,0,1-.33.16.56.56,0,0,1-.3-.07,1.46,1.46,0,0,1-.26-.22,1.8,1.8,0,0,0-.45-.34,3,3,0,0,0-.71-.21,5.26,5.26,0,0,0-.94-.08,3.38,3.38,0,0,0-1.81.5,3.57,3.57,0,0,0-1.29,1.37A3.94,3.94,0,0,0,49,75.51a4.14,4.14,0,0,0,.45,1.94A3.37,3.37,0,0,0,52.5,79.3a4,4,0,0,0,1-.11,3.88,3.88,0,0,0,.76-.31,3.82,3.82,0,0,0,.43-.32,1.73,1.73,0,0,1,.25-.19.46.46,0,0,1,.23-.06.45.45,0,0,1,.34.13.49.49,0,0,1,.13.35.94.94,0,0,1-.43.66,3.78,3.78,0,0,1-1.19.6,5.28,5.28,0,0,1-1.67.25,4.43,4.43,0,0,1-2.34-.62A4.24,4.24,0,0,1,48.46,78a5.29,5.29,0,0,1-.57-2.47,5.06,5.06,0,0,1,.58-2.4,4.42,4.42,0,0,1,4-2.39A6.27,6.27,0,0,1,54.06,70.91Z" transform="translate(-6.46 -8.81)"/><path class="cls-3" d="M59.56,72v6a1.29,1.29,0,0,0,.25.93.92.92,0,0,0,.67.24,1,1,0,0,0,.27,0,1,1,0,0,1,.25,0,.36.36,0,0,1,.28.13.47.47,0,0,1,.12.31.49.49,0,0,1-.29.42,1.31,1.31,0,0,1-.68.17,3.74,3.74,0,0,1-.86-.09,1.37,1.37,0,0,1-.73-.54,2.35,2.35,0,0,1-.35-1.44V72H57.16a.52.52,0,0,1-.37-.14.5.5,0,0,1,0-.72.52.52,0,0,1,.37-.14h1.31V69a.54.54,0,1,1,1.08,0v2h1.8a.47.47,0,0,1,.35.16.51.51,0,0,1,.15.36.46.46,0,0,1-.14.35.51.51,0,0,1-.36.14Z" transform="translate(-6.46 -8.81)"/><path class="cls-3" d="M69.81,80a.54.54,0,0,1-.93-.39V67.35a.54.54,0,1,1,1.08,0V79.59A.53.53,0,0,1,69.81,80Z" transform="translate(-6.46 -8.81)"/><path class="cls-3" d="M80.77,71.1a.56.56,0,0,1,.15.4v8.1a.54.54,0,1,1-1.08,0V78.39a3.77,3.77,0,0,1-1.35,1.37,3.65,3.65,0,0,1-2,.56,3.87,3.87,0,0,1-2.17-.63A4.33,4.33,0,0,1,72.85,78a5.43,5.43,0,0,1-.55-2.47A5.31,5.31,0,0,1,72.86,73a4.27,4.27,0,0,1,1.52-1.7,4,4,0,0,1,4.11-.09,3.44,3.44,0,0,1,1.35,1.37V71.49a.56.56,0,0,1,.15-.4.54.54,0,0,1,.77,0Zm-2.45,7.71a3.35,3.35,0,0,0,1.17-1.37,4.42,4.42,0,0,0,.42-2,4.28,4.28,0,0,0-.42-1.91,3.37,3.37,0,0,0-1.17-1.36,3,3,0,0,0-1.68-.49,3,3,0,0,0-1.68.49,3.31,3.31,0,0,0-1.17,1.34,4.3,4.3,0,0,0-.42,1.94,4.5,4.5,0,0,0,.41,2,3.28,3.28,0,0,0,1.16,1.37,3,3,0,0,0,1.7.5A3,3,0,0,0,78.32,78.81Z" transform="translate(-6.46 -8.81)"/><path class="cls-3" d="M90.83,71.14a.53.53,0,0,1,.15.39V76.6a3.57,3.57,0,0,1-1,2.71,3.8,3.8,0,0,1-2.74.94,3.74,3.74,0,0,1-2.71-.94,3.59,3.59,0,0,1-1-2.71V71.53a.54.54,0,1,1,1.08,0V76.6a2.37,2.37,0,0,0,2.61,2.65,2.68,2.68,0,0,0,2-.68,2.63,2.63,0,0,0,.69-2V71.53a.55.55,0,0,1,.93-.39Z" transform="translate(-6.46 -8.81)"/><path class="cls-3" d="M100.6,71.7a4,4,0,0,1,.78,2.6v5.29a.51.51,0,0,1-.16.39.53.53,0,0,1-.38.15.52.52,0,0,1-.54-.54V74.35a2.94,2.94,0,0,0-.58-1.9,2.18,2.18,0,0,0-1.81-.73A3.23,3.23,0,0,0,95.32,73a2.2,2.2,0,0,0-.43,1.31v5.24a.54.54,0,1,1-1.08,0V71.53a.54.54,0,1,1,1.08,0v1a3.82,3.82,0,0,1,1.4-1.29,3.74,3.74,0,0,1,1.86-.51A3,3,0,0,1,100.6,71.7Z" transform="translate(-6.46 -8.81)"/><path class="cls-3" d="M109.77,70.91a3.42,3.42,0,0,1,1.17.51.89.89,0,0,1,.44.7.55.55,0,0,1-.13.36.42.42,0,0,1-.33.16.56.56,0,0,1-.3-.07,1.46,1.46,0,0,1-.26-.22,1.8,1.8,0,0,0-.45-.34,3,3,0,0,0-.71-.21,5.26,5.26,0,0,0-.94-.08,3.38,3.38,0,0,0-1.81.5,3.57,3.57,0,0,0-1.29,1.37,3.94,3.94,0,0,0-.47,1.91,4.14,4.14,0,0,0,.45,1.94,3.37,3.37,0,0,0,3.08,1.85,4,4,0,0,0,1-.11,3.88,3.88,0,0,0,.76-.31,3.82,3.82,0,0,0,.43-.32,1.73,1.73,0,0,1,.25-.19.46.46,0,0,1,.23-.06.45.45,0,0,1,.34.13.49.49,0,0,1,.13.35.94.94,0,0,1-.43.66,3.78,3.78,0,0,1-1.19.6,5.28,5.28,0,0,1-1.67.25,4.43,4.43,0,0,1-2.34-.62A4.24,4.24,0,0,1,104.17,78a5.29,5.29,0,0,1-.57-2.47,5.06,5.06,0,0,1,.58-2.4,4.42,4.42,0,0,1,4-2.39A6.27,6.27,0,0,1,109.77,70.91Z" transform="translate(-6.46 -8.81)"/><path class="cls-3" d="M120.07,71.88a4.14,4.14,0,0,1,.79,2.62v5.09a.54.54,0,1,1-1.08,0V74.5a3,3,0,0,0-.56-1.9,2.06,2.06,0,0,0-1.75-.73A3.1,3.1,0,0,0,115,73.19a2.26,2.26,0,0,0-.41,1.31v5.09a.54.54,0,1,1-1.08,0V67.35a.54.54,0,1,1,1.08,0v5.27a3.77,3.77,0,0,1,1.35-1.27,3.51,3.51,0,0,1,1.76-.5A2.87,2.87,0,0,1,120.07,71.88Z" transform="translate(-6.46 -8.81)"/><path class="cls-3" d="M123.36,79.94a.76.76,0,0,1-.16-.51v-.38a.73.73,0,0,1,.16-.5.6.6,0,0,1,.47-.18H124a.6.6,0,0,1,.47.18.73.73,0,0,1,.16.5v.38a.76.76,0,0,1-.16.51.58.58,0,0,1-.47.19h-.13A.58.58,0,0,1,123.36,79.94Z" transform="translate(-6.46 -8.81)"/><path class="cls-3" d="M244.61,79.63a.48.48,0,0,1-.16.38.55.55,0,0,1-.38.14.52.52,0,0,1-.31-.1.64.64,0,0,1-.21-.26L242.2,76.5h-5.85L235,79.79a.5.5,0,0,1-.49.36.51.51,0,0,1-.38-.13.53.53,0,0,1-.14-.34v-.05a.54.54,0,0,1,0-.16l4.75-11.63a.53.53,0,0,1,.54-.36.52.52,0,0,1,.31.1.65.65,0,0,1,.21.26l4.73,11.57A1,1,0,0,1,244.61,79.63Zm-7.85-4.19h5l-2.52-6.16Z" transform="translate(-6.46 -8.81)"/><path class="cls-3" d="M247.59,80a.54.54,0,0,1-.93-.39V67.35a.54.54,0,1,1,1.08,0V79.59A.53.53,0,0,1,247.59,80Z" transform="translate(-6.46 -8.81)"/><path class="cls-3" d="M257.23,71.46a4.16,4.16,0,0,1,1.52,1.67,5.57,5.57,0,0,1,0,4.82,4.24,4.24,0,0,1-1.51,1.68,3.93,3.93,0,0,1-2.15.61,3.81,3.81,0,0,1-1.92-.5,3.88,3.88,0,0,1-1.4-1.32v4.75a.54.54,0,1,1-1.08,0V71.46a.55.55,0,0,1,.15-.4.54.54,0,0,1,.77,0,.56.56,0,0,1,.15.4v1.22a3.36,3.36,0,0,1,1.35-1.33,4,4,0,0,1,1.94-.49A4,4,0,0,1,257.23,71.46Zm-.57,7.31a3.26,3.26,0,0,0,1.17-1.32,4.21,4.21,0,0,0,.42-1.91,4.12,4.12,0,0,0-.42-1.88,3.28,3.28,0,0,0-1.17-1.31,3.06,3.06,0,0,0-1.68-.48,3.18,3.18,0,0,0-1.71.47,3.13,3.13,0,0,0-1.17,1.31,4.22,4.22,0,0,0-.41,1.9,4.28,4.28,0,0,0,.41,1.91,3.17,3.17,0,0,0,1.17,1.32,3.14,3.14,0,0,0,1.71.48A3.06,3.06,0,0,0,256.67,78.77Z" transform="translate(-6.46 -8.81)"/><path class="cls-3" d="M268.14,71.88a4.14,4.14,0,0,1,.79,2.62v5.09a.54.54,0,1,1-1.08,0V74.5a3,3,0,0,0-.56-1.9,2.06,2.06,0,0,0-1.75-.73A3.1,3.1,0,0,0,263,73.19a2.26,2.26,0,0,0-.41,1.31v5.09a.54.54,0,1,1-1.08,0V67.35a.54.54,0,1,1,1.08,0v5.27A3.77,3.77,0,0,1,264,71.36a3.51,3.51,0,0,1,1.76-.5A2.87,2.87,0,0,1,268.14,71.88Z" transform="translate(-6.46 -8.81)"/><path class="cls-3" d="M279.61,71.1a.56.56,0,0,1,.15.4v8.1a.54.54,0,1,1-1.08,0V78.39a3.77,3.77,0,0,1-1.35,1.37,3.65,3.65,0,0,1-2,.56,3.87,3.87,0,0,1-2.17-.63A4.33,4.33,0,0,1,271.69,78a5.43,5.43,0,0,1-.55-2.47A5.31,5.31,0,0,1,271.7,73a4.27,4.27,0,0,1,1.52-1.7,4,4,0,0,1,4.11-.09,3.44,3.44,0,0,1,1.35,1.37V71.49a.56.56,0,0,1,.15-.4.54.54,0,0,1,.77,0Zm-2.45,7.71a3.35,3.35,0,0,0,1.17-1.37,4.42,4.42,0,0,0,.42-2,4.28,4.28,0,0,0-.42-1.91,3.37,3.37,0,0,0-1.17-1.36,3,3,0,0,0-1.68-.49,3,3,0,0,0-1.68.49,3.31,3.31,0,0,0-1.17,1.34,4.3,4.3,0,0,0-.42,1.94,4.5,4.5,0,0,0,.41,2,3.28,3.28,0,0,0,1.16,1.37,3,3,0,0,0,1.7.5A3,3,0,0,0,277.17,78.81Z" transform="translate(-6.46 -8.81)"/><path class="cls-3" d="M289.31,72v6a1.29,1.29,0,0,0,.25.93.92.92,0,0,0,.67.24,1,1,0,0,0,.27,0,1,1,0,0,1,.25,0,.36.36,0,0,1,.28.13.47.47,0,0,1,.12.31.49.49,0,0,1-.29.42,1.31,1.31,0,0,1-.68.17,3.74,3.74,0,0,1-.86-.09,1.37,1.37,0,0,1-.73-.54,2.35,2.35,0,0,1-.35-1.44V72h-1.31a.52.52,0,0,1-.37-.14.5.5,0,0,1,0-.72.52.52,0,0,1,.37-.14h1.31V69a.54.54,0,1,1,1.08,0v2h1.8a.47.47,0,0,1,.35.16.51.51,0,0,1,.15.36.46.46,0,0,1-.14.35.51.51,0,0,1-.36.14Z" transform="translate(-6.46 -8.81)"/><path class="cls-3" d="M301.13,75.37a.53.53,0,0,1-.38.15H294a4.16,4.16,0,0,0,.44,1.94,3.33,3.33,0,0,0,1.26,1.35,3.66,3.66,0,0,0,1.94.5,3.27,3.27,0,0,0,1.55-.36,3.19,3.19,0,0,0,1.1-.92.61.61,0,0,1,.38-.16.49.49,0,0,1,.47.47.53.53,0,0,1-.18.38,4.53,4.53,0,0,1-1.45,1.15,4,4,0,0,1-1.85.45,4.93,4.93,0,0,1-2.45-.59,4.21,4.21,0,0,1-1.66-1.67,5,5,0,0,1-.59-2.48,5.45,5.45,0,0,1,.58-2.58A4.22,4.22,0,0,1,295,71.3a4,4,0,0,1,2.07-.58,4.24,4.24,0,0,1,2,.5,4,4,0,0,1,1.54,1.48,4.45,4.45,0,0,1,.61,2.3A.49.49,0,0,1,301.13,75.37Zm-5.95-2.89A3.34,3.34,0,0,0,294,74.55h6.14v-.14a2.84,2.84,0,0,0-.54-1.41,2.94,2.94,0,0,0-1.12-.92,3.27,3.27,0,0,0-1.4-.31A3,3,0,0,0,295.18,72.48Z" transform="translate(-6.46 -8.81)"/><path class="cls-3" d="M302.86,78.28a.39.39,0,0,1,.23-.36.39.39,0,0,1,.29-.11.55.55,0,0,1,.4.18,3.37,3.37,0,0,0,2.83,1.4,2.75,2.75,0,0,0,1.5-.41,1.31,1.31,0,0,0,.64-1.18,1.26,1.26,0,0,0-.59-1.13A5.8,5.8,0,0,0,306.5,76a7,7,0,0,1-2.34-1,2,2,0,0,1-.85-1.77,2.23,2.23,0,0,1,.41-1.32,2.73,2.73,0,0,1,1.13-.91,3.84,3.84,0,0,1,1.61-.32A4.37,4.37,0,0,1,308,71a3.28,3.28,0,0,1,1.34.95.43.43,0,0,1,.16.36.49.49,0,0,1-.18.38.48.48,0,0,1-.32.11.45.45,0,0,1-.32-.14,2.84,2.84,0,0,0-1-.74,3.24,3.24,0,0,0-1.28-.25,2.58,2.58,0,0,0-1.45.4,1.33,1.33,0,0,0-.6,1.19,1.29,1.29,0,0,0,.66,1.1,6.88,6.88,0,0,0,1.83.68,8.61,8.61,0,0,1,1.55.52,2.6,2.6,0,0,1,1,.81,2.28,2.28,0,0,1,.39,1.39,2.2,2.2,0,0,1-.94,1.86,3.79,3.79,0,0,1-2.32.69A4.22,4.22,0,0,1,303,78.67.8.8,0,0,1,302.86,78.28Z" transform="translate(-6.46 -8.81)"/><path class="cls-3" d="M313.77,72v6a1.29,1.29,0,0,0,.25.93.92.92,0,0,0,.67.24,1,1,0,0,0,.27,0,1,1,0,0,1,.25,0,.36.36,0,0,1,.28.13.47.47,0,0,1,.12.31.49.49,0,0,1-.29.42,1.31,1.31,0,0,1-.68.17,3.74,3.74,0,0,1-.86-.09,1.37,1.37,0,0,1-.73-.54,2.35,2.35,0,0,1-.35-1.44V72h-1.31a.52.52,0,0,1-.37-.14.5.5,0,0,1,0-.72.52.52,0,0,1,.37-.14h1.31V69a.54.54,0,1,1,1.08,0v2h1.8a.47.47,0,0,1,.35.16.51.51,0,0,1,.15.36.46.46,0,0,1-.14.35.51.51,0,0,1-.36.14Z" transform="translate(-6.46 -8.81)"/><path class="cls-3" d="M318,69.39a.62.62,0,0,1-.2-.5v-.18a.61.61,0,0,1,.21-.5.86.86,0,0,1,.57-.17q.72,0,.72.67v.18a.63.63,0,0,1-.19.5.79.79,0,0,1-.55.17A.83.83,0,0,1,318,69.39ZM319,80a.54.54,0,0,1-.93-.39V71.31a.54.54,0,1,1,1.08,0v8.28A.52.52,0,0,1,319,80Z" transform="translate(-6.46 -8.81)"/><path class="cls-3" d="M328.72,71.7a4,4,0,0,1,.78,2.6v5.29a.51.51,0,0,1-.16.39.53.53,0,0,1-.38.15.52.52,0,0,1-.54-.54V74.35a2.94,2.94,0,0,0-.58-1.9,2.18,2.18,0,0,0-1.81-.73A3.23,3.23,0,0,0,323.44,73a2.2,2.2,0,0,0-.43,1.31v5.24a.54.54,0,1,1-1.08,0V71.53a.54.54,0,1,1,1.08,0v1a3.82,3.82,0,0,1,1.4-1.29,3.74,3.74,0,0,1,1.86-.51A3,3,0,0,1,328.72,71.7Z" transform="translate(-6.46 -8.81)"/><path class="cls-3" d="M340.49,71.09a.55.55,0,0,1,.15.4v7.79a4.68,4.68,0,0,1-.58,2.4,3.87,3.87,0,0,1-1.6,1.52,5,5,0,0,1-2.33.52,5.82,5.82,0,0,1-1.32-.16,5.27,5.27,0,0,1-1.19-.41q-.5-.25-.57-.52a.4.4,0,0,1-.13-.29.33.33,0,0,1,.16-.29.29.29,0,0,1,.18-.05,1.4,1.4,0,0,1,.41.13l.38.16a5.8,5.8,0,0,0,2.09.43,3.4,3.4,0,0,0,2.51-.91,3.32,3.32,0,0,0,.91-2.46V78.24a3.32,3.32,0,0,1-1.42,1.52,4.08,4.08,0,0,1-2,.55,4.16,4.16,0,0,1-2.24-.62A4.36,4.36,0,0,1,332.29,78a5.53,5.53,0,0,1,0-4.91,4.37,4.37,0,0,1,1.57-1.72,4.13,4.13,0,0,1,2.22-.62,4,4,0,0,1,2.08.57,3.8,3.8,0,0,1,1.4,1.36V71.49a.56.56,0,0,1,.15-.4.51.51,0,0,1,.39-.16A.52.52,0,0,1,340.49,71.09ZM338,78.83a3.26,3.26,0,0,0,1.22-1.35,4.31,4.31,0,0,0,.44-2,4.25,4.25,0,0,0-.44-2A3.28,3.28,0,0,0,338,72.2a3.35,3.35,0,0,0-1.77-.48,3.22,3.22,0,0,0-1.75.49,3.4,3.4,0,0,0-1.22,1.36,4.47,4.47,0,0,0,0,3.87,3.4,3.4,0,0,0,1.22,1.36,3.21,3.21,0,0,0,1.75.5A3.34,3.34,0,0,0,338,78.83Z" transform="translate(-6.46 -8.81)"/><path class="cls-3" d="M359.71,70.88a.52.52,0,0,1,.15.4s0,.09-.05.23L357,79.79a.76.76,0,0,1-.23.26.44.44,0,0,1-.31.08.48.48,0,0,1-.29-.09.6.6,0,0,1-.2-.25l-2.36-5.54-2.11,5.54a.67.67,0,0,1-.21.24.46.46,0,0,1-.28.1.51.51,0,0,1-.33-.08.49.49,0,0,1-.21-.26l-2.84-8.28a.54.54,0,0,1,.11-.62.56.56,0,0,1,.4-.15.49.49,0,0,1,.3.1.52.52,0,0,1,.19.26l2.39,7.18,2.14-5.38a.49.49,0,0,1,.5-.34.51.51,0,0,1,.5.34l2.25,5.35,2.36-7.15a.47.47,0,0,1,.5-.36A.54.54,0,0,1,359.71,70.88Z" transform="translate(-6.46 -8.81)"/><path class="cls-3" d="M361.88,69.39a.62.62,0,0,1-.2-.5v-.18a.61.61,0,0,1,.21-.5.86.86,0,0,1,.57-.17q.72,0,.72.67v.18a.63.63,0,0,1-.19.5.79.79,0,0,1-.55.17A.83.83,0,0,1,361.88,69.39ZM362.83,80a.54.54,0,0,1-.93-.39V71.31a.54.54,0,1,1,1.08,0v8.28A.52.52,0,0,1,362.83,80Z" transform="translate(-6.46 -8.81)"/><path class="cls-3" d="M367.59,72v6a1.29,1.29,0,0,0,.25.93.92.92,0,0,0,.67.24,1,1,0,0,0,.27,0,1,1,0,0,1,.25,0,.36.36,0,0,1,.28.13.47.47,0,0,1,.12.31.49.49,0,0,1-.29.42,1.31,1.31,0,0,1-.68.17,3.74,3.74,0,0,1-.86-.09,1.37,1.37,0,0,1-.73-.54,2.35,2.35,0,0,1-.35-1.44V72h-1.31a.52.52,0,0,1-.37-.14.5.5,0,0,1,0-.72.52.52,0,0,1,.37-.14h1.31V69a.54.54,0,1,1,1.08,0v2h1.8a.47.47,0,0,1,.35.16.51.51,0,0,1,.15.36.46.46,0,0,1-.14.35.51.51,0,0,1-.36.14Z" transform="translate(-6.46 -8.81)"/><path class="cls-3" d="M378.5,71.88a4.14,4.14,0,0,1,.79,2.62v5.09a.54.54,0,1,1-1.08,0V74.5a3,3,0,0,0-.56-1.9,2.06,2.06,0,0,0-1.75-.73,3.1,3.1,0,0,0-2.52,1.32A2.26,2.26,0,0,0,373,74.5v5.09a.54.54,0,1,1-1.08,0V67.35a.54.54,0,1,1,1.08,0v5.27a3.77,3.77,0,0,1,1.35-1.27,3.51,3.51,0,0,1,1.76-.5A2.87,2.87,0,0,1,378.5,71.88Z" transform="translate(-6.46 -8.81)"/><path class="cls-3" d="M249.28,87.17a4.16,4.16,0,0,1,1.52,1.67,5.57,5.57,0,0,1,0,4.82,4.24,4.24,0,0,1-1.51,1.68,3.93,3.93,0,0,1-2.15.61,3.81,3.81,0,0,1-1.92-.5,3.88,3.88,0,0,1-1.4-1.32V98.9a.54.54,0,1,1-1.08,0V87.16a.55.55,0,0,1,.15-.4.54.54,0,0,1,.77,0,.56.56,0,0,1,.15.4v1.22a3.36,3.36,0,0,1,1.35-1.33,4,4,0,0,1,1.94-.49A4,4,0,0,1,249.28,87.17Zm-.57,7.31a3.26,3.26,0,0,0,1.17-1.32,4.21,4.21,0,0,0,.42-1.91,4.12,4.12,0,0,0-.42-1.88,3.28,3.28,0,0,0-1.17-1.31,3.06,3.06,0,0,0-1.68-.48,3.18,3.18,0,0,0-1.71.47,3.13,3.13,0,0,0-1.17,1.31,4.22,4.22,0,0,0-.41,1.9,4.28,4.28,0,0,0,.41,1.91,3.17,3.17,0,0,0,1.17,1.32A3.14,3.14,0,0,0,247,95,3.06,3.06,0,0,0,248.72,94.48Z" transform="translate(-6.46 -8.81)"/><path class="cls-3" d="M258.54,86.57a.46.46,0,0,1,.29.43.57.57,0,0,1-.14.4.46.46,0,0,1-.34.15,1.35,1.35,0,0,1-.35-.09,1.53,1.53,0,0,0-.5-.09,2.14,2.14,0,0,0-1.32.51,4,4,0,0,0-1.08,1.32,3.51,3.51,0,0,0-.42,1.64V95.3a.54.54,0,1,1-1.08,0V87.23a.54.54,0,1,1,1.08,0v1.58a4.13,4.13,0,0,1,1.25-1.7,3.13,3.13,0,0,1,2-.69A1.43,1.43,0,0,1,258.54,86.57Z" transform="translate(-6.46 -8.81)"/><path class="cls-3" d="M268,93.68a4.39,4.39,0,0,1-1.64,1.72,4.65,4.65,0,0,1-4.64,0,4.38,4.38,0,0,1-1.64-1.72,5.34,5.34,0,0,1,0-4.9,4.46,4.46,0,0,1,1.64-1.73,4.59,4.59,0,0,1,4.64,0A4.46,4.46,0,0,1,268,88.78a5.34,5.34,0,0,1,0,4.9Zm-.94-4.39a3.43,3.43,0,0,0-1.25-1.36,3.31,3.31,0,0,0-1.77-.49,3.26,3.26,0,0,0-1.76.49A3.5,3.5,0,0,0,261,89.29a4.31,4.31,0,0,0,0,3.87,3.5,3.5,0,0,0,1.25,1.36,3.25,3.25,0,0,0,1.76.5,3.35,3.35,0,0,0,3-1.84,4.43,4.43,0,0,0,0-3.89Z" transform="translate(-6.46 -8.81)"/><path class="cls-3" d="M269.19,99.26a.49.49,0,0,1-.14-.36v-.07a.47.47,0,0,1,.13-.33.58.58,0,0,1,.34-.17,2,2,0,0,0,1.11-.58,1.71,1.71,0,0,0,.44-1.23V87.22a.54.54,0,1,1,1.08,0v9.45a2.68,2.68,0,0,1-1.38,2.4,2.49,2.49,0,0,1-1.21.33A.49.49,0,0,1,269.19,99.26ZM271,85.08a.62.62,0,0,1-.2-.5v-.18a.6.6,0,0,1,.21-.49.86.86,0,0,1,.57-.17q.72,0,.72.67v.18a.63.63,0,0,1-.19.5.79.79,0,0,1-.55.17A.83.83,0,0,1,271,85.08Z" transform="translate(-6.46 -8.81)"/><path class="cls-3" d="M282.78,91.08a.53.53,0,0,1-.38.15h-6.8a4.16,4.16,0,0,0,.44,1.94,3.33,3.33,0,0,0,1.26,1.35,3.66,3.66,0,0,0,1.94.5,3.27,3.27,0,0,0,1.55-.36,3.19,3.19,0,0,0,1.1-.92.61.61,0,0,1,.38-.16.49.49,0,0,1,.47.47.53.53,0,0,1-.18.38,4.53,4.53,0,0,1-1.45,1.15,4,4,0,0,1-1.85.45,4.93,4.93,0,0,1-2.45-.59,4.21,4.21,0,0,1-1.66-1.67,5,5,0,0,1-.59-2.48,5.45,5.45,0,0,1,.58-2.58A4.22,4.22,0,0,1,276.7,87a4,4,0,0,1,2.07-.58,4.24,4.24,0,0,1,2,.5,4,4,0,0,1,1.54,1.48,4.45,4.45,0,0,1,.61,2.3A.49.49,0,0,1,282.78,91.08Zm-5.95-2.89a3.34,3.34,0,0,0-1.14,2.07h6.14v-.14a2.84,2.84,0,0,0-.54-1.41,2.94,2.94,0,0,0-1.12-.92,3.27,3.27,0,0,0-1.4-.31A3,3,0,0,0,276.83,88.19Z" transform="translate(-6.46 -8.81)"/><path class="cls-3" d="M290.73,86.61a3.42,3.42,0,0,1,1.17.51.89.89,0,0,1,.44.7.55.55,0,0,1-.13.36.42.42,0,0,1-.33.16.56.56,0,0,1-.3-.07,1.46,1.46,0,0,1-.26-.22,1.8,1.8,0,0,0-.45-.34,3,3,0,0,0-.71-.21,5.26,5.26,0,0,0-.94-.08,3.38,3.38,0,0,0-1.81.5,3.57,3.57,0,0,0-1.29,1.37,3.94,3.94,0,0,0-.47,1.91,4.14,4.14,0,0,0,.45,1.94A3.37,3.37,0,0,0,289.17,95a4,4,0,0,0,1-.11,3.88,3.88,0,0,0,.76-.31,3.82,3.82,0,0,0,.43-.32,1.73,1.73,0,0,1,.25-.19.46.46,0,0,1,.23-.06.45.45,0,0,1,.34.13.49.49,0,0,1,.13.35.94.94,0,0,1-.43.66,3.78,3.78,0,0,1-1.19.6,5.28,5.28,0,0,1-1.67.25,4.43,4.43,0,0,1-2.34-.62,4.24,4.24,0,0,1-1.59-1.72,5.29,5.29,0,0,1-.57-2.47,5.06,5.06,0,0,1,.58-2.4,4.42,4.42,0,0,1,4-2.39A6.27,6.27,0,0,1,290.73,86.61Z" transform="translate(-6.46 -8.81)"/><path class="cls-3" d="M296.23,87.68v6a1.29,1.29,0,0,0,.25.93.92.92,0,0,0,.67.24,1,1,0,0,0,.27,0,1,1,0,0,1,.25,0,.36.36,0,0,1,.28.13.47.47,0,0,1,.12.31.49.49,0,0,1-.29.42,1.31,1.31,0,0,1-.68.17,3.74,3.74,0,0,1-.86-.09,1.37,1.37,0,0,1-.73-.54,2.35,2.35,0,0,1-.35-1.44V87.68h-1.31a.52.52,0,0,1-.37-.14.5.5,0,0,1,0-.72.52.52,0,0,1,.37-.14h1.31v-2a.54.54,0,1,1,1.08,0v2H298a.47.47,0,0,1,.35.16.51.51,0,0,1,.15.36.46.46,0,0,1-.14.35.51.51,0,0,1-.36.14Z" transform="translate(-6.46 -8.81)"/><path class="cls-3" d="M312,87.17a4.16,4.16,0,0,1,1.52,1.67,5.57,5.57,0,0,1,0,4.82A4.24,4.24,0,0,1,312,95.35a3.93,3.93,0,0,1-2.15.61,3.81,3.81,0,0,1-1.92-.5,3.88,3.88,0,0,1-1.4-1.32V98.9a.54.54,0,1,1-1.08,0V87.16a.55.55,0,0,1,.15-.4.54.54,0,0,1,.77,0,.56.56,0,0,1,.15.4v1.22a3.36,3.36,0,0,1,1.35-1.33,4,4,0,0,1,1.94-.49A4,4,0,0,1,312,87.17Zm-.57,7.31a3.26,3.26,0,0,0,1.17-1.32,4.21,4.21,0,0,0,.42-1.91,4.12,4.12,0,0,0-.42-1.88,3.28,3.28,0,0,0-1.17-1.31,3.06,3.06,0,0,0-1.68-.48A3.18,3.18,0,0,0,308,88a3.13,3.13,0,0,0-1.17,1.31,4.22,4.22,0,0,0-.41,1.9,4.28,4.28,0,0,0,.41,1.91A3.17,3.17,0,0,0,308,94.48a3.14,3.14,0,0,0,1.71.48A3.06,3.06,0,0,0,311.41,94.48Z" transform="translate(-6.46 -8.81)"/><path class="cls-3" d="M324.14,86.8a.56.56,0,0,1,.15.4v8.1a.54.54,0,1,1-1.08,0V94.09a3.77,3.77,0,0,1-1.35,1.37,3.65,3.65,0,0,1-2,.56,3.87,3.87,0,0,1-2.17-.63,4.33,4.33,0,0,1-1.51-1.73,5.43,5.43,0,0,1-.55-2.47,5.31,5.31,0,0,1,.56-2.46,4.27,4.27,0,0,1,1.52-1.7,4,4,0,0,1,4.11-.09,3.44,3.44,0,0,1,1.35,1.37V87.2a.56.56,0,0,1,.15-.4.54.54,0,0,1,.77,0Zm-2.45,7.71a3.35,3.35,0,0,0,1.17-1.37,4.42,4.42,0,0,0,.42-2,4.28,4.28,0,0,0-.42-1.91,3.37,3.37,0,0,0-1.17-1.36,3,3,0,0,0-1.68-.49,3,3,0,0,0-1.68.49,3.31,3.31,0,0,0-1.17,1.34,4.3,4.3,0,0,0-.42,1.94,4.5,4.5,0,0,0,.41,2,3.28,3.28,0,0,0,1.16,1.37,3,3,0,0,0,1.7.5A3,3,0,0,0,321.69,94.51Z" transform="translate(-6.46 -8.81)"/><path class="cls-3" d="M332.07,86.57a.46.46,0,0,1,.29.43.57.57,0,0,1-.14.4.46.46,0,0,1-.34.15,1.35,1.35,0,0,1-.35-.09,1.53,1.53,0,0,0-.5-.09,2.14,2.14,0,0,0-1.32.51,4,4,0,0,0-1.08,1.32,3.51,3.51,0,0,0-.42,1.64V95.3a.54.54,0,1,1-1.08,0V87.23a.54.54,0,1,1,1.08,0v1.58a4.13,4.13,0,0,1,1.25-1.7,3.13,3.13,0,0,1,2-.69A1.43,1.43,0,0,1,332.07,86.57Z" transform="translate(-6.46 -8.81)"/><path class="cls-3" d="M335.85,87.68v6a1.29,1.29,0,0,0,.25.93.92.92,0,0,0,.67.24,1,1,0,0,0,.27,0,1,1,0,0,1,.25,0,.36.36,0,0,1,.28.13.47.47,0,0,1,.12.31.49.49,0,0,1-.29.42,1.31,1.31,0,0,1-.68.17,3.74,3.74,0,0,1-.86-.09,1.37,1.37,0,0,1-.73-.54,2.35,2.35,0,0,1-.35-1.44V87.68h-1.31a.52.52,0,0,1-.37-.14.5.5,0,0,1,0-.72.52.52,0,0,1,.37-.14h1.31v-2a.54.54,0,1,1,1.08,0v2h1.8a.47.47,0,0,1,.35.16.51.51,0,0,1,.15.36.46.46,0,0,1-.14.35.51.51,0,0,1-.36.14Z" transform="translate(-6.46 -8.81)"/><path class="cls-3" d="M346.94,87.4a4,4,0,0,1,.78,2.6V95.3a.51.51,0,0,1-.16.39.53.53,0,0,1-.38.15.52.52,0,0,1-.54-.54V90.06a2.94,2.94,0,0,0-.58-1.9,2.18,2.18,0,0,0-1.81-.73,3.23,3.23,0,0,0-2.59,1.32,2.2,2.2,0,0,0-.43,1.31V95.3a.54.54,0,1,1-1.08,0V87.23a.54.54,0,1,1,1.08,0v1a3.82,3.82,0,0,1,1.4-1.29,3.74,3.74,0,0,1,1.86-.51A3,3,0,0,1,346.94,87.4Z" transform="translate(-6.46 -8.81)"/><path class="cls-3" d="M358.17,91.08a.53.53,0,0,1-.38.15H351a4.16,4.16,0,0,0,.44,1.94,3.33,3.33,0,0,0,1.26,1.35,3.66,3.66,0,0,0,1.94.5,3.27,3.27,0,0,0,1.55-.36,3.19,3.19,0,0,0,1.1-.92.61.61,0,0,1,.38-.16.49.49,0,0,1,.47.47.53.53,0,0,1-.18.38,4.53,4.53,0,0,1-1.45,1.15,4,4,0,0,1-1.85.45,4.93,4.93,0,0,1-2.45-.59,4.21,4.21,0,0,1-1.66-1.67,5,5,0,0,1-.59-2.48,5.45,5.45,0,0,1,.58-2.58A4.22,4.22,0,0,1,352.08,87a4,4,0,0,1,2.07-.58,4.24,4.24,0,0,1,2,.5,4,4,0,0,1,1.54,1.48,4.45,4.45,0,0,1,.61,2.3A.49.49,0,0,1,358.17,91.08Zm-5.95-2.89a3.34,3.34,0,0,0-1.14,2.07h6.14v-.14a2.84,2.84,0,0,0-.54-1.41,2.94,2.94,0,0,0-1.12-.92,3.27,3.27,0,0,0-1.4-.31A3,3,0,0,0,352.22,88.19Z" transform="translate(-6.46 -8.81)"/><path class="cls-3" d="M365.51,86.57a.46.46,0,0,1,.29.43.57.57,0,0,1-.14.4.46.46,0,0,1-.34.15,1.35,1.35,0,0,1-.35-.09,1.53,1.53,0,0,0-.5-.09,2.14,2.14,0,0,0-1.32.51,4,4,0,0,0-1.08,1.32,3.51,3.51,0,0,0-.42,1.64V95.3a.54.54,0,1,1-1.08,0V87.23a.54.54,0,1,1,1.08,0v1.58a4.13,4.13,0,0,1,1.25-1.7,3.13,3.13,0,0,1,2-.69A1.43,1.43,0,0,1,365.51,86.57Z" transform="translate(-6.46 -8.81)"/><path class="cls-3" d="M366.82,94a.39.39,0,0,1,.23-.36.39.39,0,0,1,.29-.11.55.55,0,0,1,.4.18,3.37,3.37,0,0,0,2.83,1.4,2.75,2.75,0,0,0,1.5-.41,1.31,1.31,0,0,0,.64-1.18,1.26,1.26,0,0,0-.59-1.13,5.8,5.8,0,0,0-1.66-.65,7,7,0,0,1-2.34-1,2,2,0,0,1-.85-1.77,2.23,2.23,0,0,1,.41-1.32,2.73,2.73,0,0,1,1.13-.91,3.84,3.84,0,0,1,1.61-.32,4.37,4.37,0,0,1,1.56.3,3.28,3.28,0,0,1,1.34.95.43.43,0,0,1,.16.36.49.49,0,0,1-.18.38.48.48,0,0,1-.32.11.45.45,0,0,1-.32-.14,2.84,2.84,0,0,0-1-.74,3.24,3.24,0,0,0-1.28-.25,2.58,2.58,0,0,0-1.45.4,1.33,1.33,0,0,0-.6,1.19,1.29,1.29,0,0,0,.66,1.1,6.88,6.88,0,0,0,1.83.68,8.61,8.61,0,0,1,1.55.52,2.6,2.6,0,0,1,1,.81,2.28,2.28,0,0,1,.39,1.39,2.2,2.2,0,0,1-.94,1.86,3.79,3.79,0,0,1-2.32.69A4.22,4.22,0,0,1,367,94.38.8.8,0,0,1,366.82,94Z" transform="translate(-6.46 -8.81)"/><path class="cls-3" d="M375.61,95.65a.76.76,0,0,1-.16-.51v-.38a.73.73,0,0,1,.16-.5.6.6,0,0,1,.47-.18h.13a.6.6,0,0,1,.47.18.73.73,0,0,1,.16.5v.38a.76.76,0,0,1-.16.51.58.58,0,0,1-.47.19h-.13A.58.58,0,0,1,375.61,95.65Z" transform="translate(-6.46 -8.81)"/><path class="cls-3" d="M251.36,48.42a.83.83,0,0,1,.23.6V60.5a.92.92,0,0,1-.26.66.87.87,0,0,1-.65.26,1.27,1.27,0,0,1-.41-.07.68.68,0,0,1-.31-.2l-7.43-9.69v9.12a.81.81,0,0,1-.83.83.78.78,0,0,1-.59-.24.83.83,0,0,1-.23-.6V49.09a.89.89,0,0,1,.26-.65.86.86,0,0,1,.63-.26,1.14,1.14,0,0,1,.44.09.74.74,0,0,1,.32.24l7.42,9.7V49a.81.81,0,0,1,.83-.83A.78.78,0,0,1,251.36,48.42Z" transform="translate(-6.46 -8.81)"/><path class="cls-3" d="M263.22,59.12A4.81,4.81,0,0,1,261.42,61a5.15,5.15,0,0,1-5.05,0,4.81,4.81,0,0,1-1.81-1.83,5.29,5.29,0,0,1-.66-2.65,5.39,5.39,0,0,1,.66-2.67,4.77,4.77,0,0,1,1.81-1.85,5.15,5.15,0,0,1,5.05,0,4.77,4.77,0,0,1,1.81,1.85,5.4,5.4,0,0,1,.66,2.67A5.29,5.29,0,0,1,263.22,59.12Zm-1.56-4.47a3.16,3.16,0,0,0-1.15-1.25,3.16,3.16,0,0,0-3.23,0,3.16,3.16,0,0,0-1.15,1.25,3.84,3.84,0,0,0-.43,1.83,3.74,3.74,0,0,0,.43,1.8,3.17,3.17,0,0,0,1.15,1.24,3.17,3.17,0,0,0,3.23,0,3.17,3.17,0,0,0,1.15-1.24,3.74,3.74,0,0,0,.43-1.8A3.84,3.84,0,0,0,261.66,54.64Z" transform="translate(-6.46 -8.81)"/><path class="cls-3" d="M274,51.65a.75.75,0,0,1,.25.56,1.3,1.3,0,0,1-.13.47l-3.59,8.17a1,1,0,0,1-.32.4.87.87,0,0,1-.45.17.86.86,0,0,1-.56-.11,1,1,0,0,1-.39-.45l-3.59-8.17a1.56,1.56,0,0,1-.09-.47.76.76,0,0,1,.25-.55.87.87,0,0,1,.64-.25.94.94,0,0,1,.51.14,1,1,0,0,1,.36.43l2.86,6.64L272.62,52a.86.86,0,0,1,.81-.57A.84.84,0,0,1,274,51.65Z" transform="translate(-6.46 -8.81)"/><path class="cls-3" d="M284.56,56.67a.91.91,0,0,1-.62.24h-6.66a3.29,3.29,0,0,0,1,2.21,3.22,3.22,0,0,0,2.24.83,3.51,3.51,0,0,0,1.48-.26,3.7,3.7,0,0,0,1-.68,1.07,1.07,0,0,1,.55-.17.72.72,0,0,1,.54.23.74.74,0,0,1,.22.53.93.93,0,0,1-.38.72,4.45,4.45,0,0,1-1.46.93,4.78,4.78,0,0,1-1.85.38A5.48,5.48,0,0,1,278,61a4.48,4.48,0,0,1-1.8-1.8,5.33,5.33,0,0,1-.63-2.61,5.76,5.76,0,0,1,.65-2.79,4.73,4.73,0,0,1,1.72-1.84,4.43,4.43,0,0,1,4.57,0,4.75,4.75,0,0,1,1.7,1.72,4.91,4.91,0,0,1,.66,2.46A.81.81,0,0,1,284.56,56.67Zm-6.19-3.12a2.93,2.93,0,0,0-1,1.84h5.58v-.15a2.31,2.31,0,0,0-.9-1.65,2.85,2.85,0,0,0-1.83-.64A2.93,2.93,0,0,0,278.38,53.55Z" transform="translate(-6.46 -8.81)"/><path class="cls-3" d="M301.6,55.47v5.05a.9.9,0,0,1-.25.65.85.85,0,0,1-.64.26.87.87,0,0,1-.65-.26.89.89,0,0,1-.26-.64v-5q0-2.48-2.08-2.48a2.71,2.71,0,0,0-1.33.33,2.4,2.4,0,0,0-.93.9,2.43,2.43,0,0,0-.33,1.25v5a.89.89,0,0,1-.26.64.87.87,0,0,1-.65.26.85.85,0,0,1-.64-.26.9.9,0,0,1-.25-.65V55.47a3,3,0,0,0-.47-1.79A1.79,1.79,0,0,0,291.3,53a2.54,2.54,0,0,0-1.84.71,2.35,2.35,0,0,0-.73,1.75v5.05a.89.89,0,0,1-.26.64.87.87,0,0,1-.65.26.85.85,0,0,1-.64-.26.9.9,0,0,1-.25-.65v-8.1a.89.89,0,0,1,.26-.64.84.84,0,0,1,.63-.26.87.87,0,0,1,.65.26.89.89,0,0,1,.26.64v.66A4.13,4.13,0,0,1,290,51.84a3.38,3.38,0,0,1,1.79-.5,2.9,2.9,0,0,1,3,2.08A4,4,0,0,1,296.25,52a3.63,3.63,0,0,1,2-.64Q301.6,51.34,301.6,55.47Z" transform="translate(-6.46 -8.81)"/><path class="cls-3" d="M311.59,51.95a4.59,4.59,0,0,1,1.64,1.83,5.77,5.77,0,0,1,.6,2.65,5.88,5.88,0,0,1-.6,2.67A4.55,4.55,0,0,1,311.59,61a4.18,4.18,0,0,1-2.29.66,4,4,0,0,1-1.83-.44,4.27,4.27,0,0,1-1.38-1.08v.55a.89.89,0,0,1-.26.64.87.87,0,0,1-.65.26.86.86,0,0,1-.63-.26.88.88,0,0,1-.26-.65V48.33a.9.9,0,0,1,.25-.65.85.85,0,0,1,.64-.26.87.87,0,0,1,.65.26.89.89,0,0,1,.26.64V53a3.79,3.79,0,0,1,1.32-1.17,3.71,3.71,0,0,1,1.85-.49A4.25,4.25,0,0,1,311.59,51.95Zm-1,7.54a3.09,3.09,0,0,0,1.09-1.27,4.06,4.06,0,0,0,.39-1.79,4,4,0,0,0-.39-1.78,3,3,0,0,0-1.09-1.25,2.82,2.82,0,0,0-1.57-.45,2.85,2.85,0,0,0-1.59.45,3.06,3.06,0,0,0-1.09,1.24,4,4,0,0,0-.39,1.79,4,4,0,0,0,.39,1.8,3.11,3.11,0,0,0,1.09,1.26,2.81,2.81,0,0,0,1.59.46A2.78,2.78,0,0,0,310.63,59.49Z" transform="translate(-6.46 -8.81)"/><path class="cls-3" d="M324.32,56.67a.91.91,0,0,1-.62.24H317a3.29,3.29,0,0,0,1,2.21,3.22,3.22,0,0,0,2.24.83,3.51,3.51,0,0,0,1.48-.26,3.7,3.7,0,0,0,1-.68,1.07,1.07,0,0,1,.55-.17.72.72,0,0,1,.54.23.74.74,0,0,1,.22.53.93.93,0,0,1-.38.72,4.45,4.45,0,0,1-1.46.93,4.78,4.78,0,0,1-1.85.38,5.48,5.48,0,0,1-2.7-.64,4.48,4.48,0,0,1-1.8-1.8,5.33,5.33,0,0,1-.63-2.61,5.76,5.76,0,0,1,.65-2.79,4.73,4.73,0,0,1,1.72-1.84,4.43,4.43,0,0,1,4.57,0,4.75,4.75,0,0,1,1.7,1.72,4.91,4.91,0,0,1,.66,2.46A.81.81,0,0,1,324.32,56.67Zm-6.19-3.12a2.93,2.93,0,0,0-1,1.84h5.58v-.15a2.31,2.31,0,0,0-.9-1.65A2.85,2.85,0,0,0,320,53,2.93,2.93,0,0,0,318.14,53.55Z" transform="translate(-6.46 -8.81)"/><path class="cls-3" d="M332.48,51.54a.76.76,0,0,1,.36.63.94.94,0,0,1-.24.69.79.79,0,0,1-.58.24,1.8,1.8,0,0,1-.51-.11,2.12,2.12,0,0,0-.62-.13,1.92,1.92,0,0,0-1.14.41,3,3,0,0,0-.91,1.12,3.51,3.51,0,0,0-.35,1.58v4.56a.89.89,0,0,1-.26.64.87.87,0,0,1-.65.26.85.85,0,0,1-.64-.26.9.9,0,0,1-.25-.65v-8.1a.89.89,0,0,1,.26-.64.84.84,0,0,1,.63-.26.87.87,0,0,1,.65.26.89.89,0,0,1,.26.64v1a3.58,3.58,0,0,1,1.25-1.5,3.35,3.35,0,0,1,1.89-.6A1.43,1.43,0,0,1,332.48,51.54Z" transform="translate(-6.46 -8.81)"/><path class="cls-3" d="M347.85,60a.82.82,0,0,1,.25.61.76.76,0,0,1-.25.59.86.86,0,0,1-.6.23h-6.72a.86.86,0,0,1-.62-.24.84.84,0,0,1-.25-.63,1,1,0,0,1,.26-.64l4.22-4.58A5.25,5.25,0,0,0,345.91,52a2.3,2.3,0,0,0-2.38-2.36,2.52,2.52,0,0,0-1.34.4,2.93,2.93,0,0,0-1,1.13.88.88,0,0,1-.72.4.91.91,0,0,1-.6-.25.73.73,0,0,1-.28-.57.82.82,0,0,1,.14-.44,4.32,4.32,0,0,1,.41-.53,4.52,4.52,0,0,1,1.59-1.32,4.25,4.25,0,0,1,1.95-.49,4.48,4.48,0,0,1,2.19.51,3.59,3.59,0,0,1,1.43,1.4,4.09,4.09,0,0,1,.5,2q0,2.18-2.35,4.69l-2.86,3.12h4.71A.82.82,0,0,1,347.85,60Z" transform="translate(-6.46 -8.81)"/><path class="cls-3" d="M351.86,60.74a5.28,5.28,0,0,1-1.66-2.4,11.49,11.49,0,0,1,0-7.07,5.28,5.28,0,0,1,1.66-2.4,4.46,4.46,0,0,1,5.3,0,5.29,5.29,0,0,1,1.66,2.4,11.49,11.49,0,0,1,0,7.07,5.28,5.28,0,0,1-1.66,2.4,4.46,4.46,0,0,1-5.3,0Zm4.8-2.25a7.34,7.34,0,0,0,.77-3.69,7.34,7.34,0,0,0-.77-3.69,2.42,2.42,0,0,0-4.29,0,7.34,7.34,0,0,0-.77,3.69,7.34,7.34,0,0,0,.77,3.69,2.42,2.42,0,0,0,4.29,0Z" transform="translate(-6.46 -8.81)"/><path class="cls-3" d="M365.08,48.46a.9.9,0,0,1,.24.63V60.52a.85.85,0,0,1-.28.64,1,1,0,0,1-.7.26.92.92,0,0,1-.68-.26.88.88,0,0,1-.26-.64V50.68l-1.66,1a.86.86,0,0,1-.47.13.83.83,0,0,1-.64-.29.93.93,0,0,1-.26-.63.8.8,0,0,1,.13-.44,1.09,1.09,0,0,1,.34-.34l3-1.8a1.47,1.47,0,0,1,.66-.13A.86.86,0,0,1,365.08,48.46Z" transform="translate(-6.46 -8.81)"/><path class="cls-3" d="M376.28,48.43a.8.8,0,0,1,.27.62,1.09,1.09,0,0,1-.09.42l-5.07,11.46a.92.92,0,0,1-.34.42.87.87,0,0,1-.49.15,1,1,0,0,1-.64-.25.77.77,0,0,1-.28-.6,1.1,1.1,0,0,1,.09-.42l4.62-10.38h-5.47A.84.84,0,0,1,368,49a.78.78,0,0,1,.24-.59.85.85,0,0,1,.61-.23h6.73A1,1,0,0,1,376.28,48.43Z" transform="translate(-6.46 -8.81)"/><path class="cls-3" d="M579.82,60.65a.82.82,0,0,1-.81.83.75.75,0,0,1-.46-.15,1.07,1.07,0,0,1-.33-.42l-1.12-2.65h-5.56l-1.1,2.66a.78.78,0,0,1-.76.56.78.78,0,0,1-.58-.2.73.73,0,0,1-.2-.54,2.2,2.2,0,0,1,0-.29l4.59-11.12a1,1,0,0,1,.35-.44.73.73,0,0,1,.51-.12.85.85,0,0,1,.49.14.77.77,0,0,1,.31.41l4.57,11A1.09,1.09,0,0,1,579.82,60.65Zm-7.6-4h4.19l-2.11-5Z" transform="translate(-6.46 -8.81)"/><path class="cls-3" d="M588.37,52.45a4.3,4.3,0,0,1,1.56,1.74,5.49,5.49,0,0,1,.57,2.52,5.43,5.43,0,0,1-.57,2.51A4.38,4.38,0,0,1,588.37,61a4,4,0,0,1-2.18.63,3.78,3.78,0,0,1-1.75-.41,4.2,4.2,0,0,1-1.31-1v4a.85.85,0,0,1-.24.61.88.88,0,0,1-1.22,0,.84.84,0,0,1-.24-.62V52.84a.89.89,0,0,1,.23-.63.8.8,0,0,1,.61-.25.83.83,0,0,1,.62.25.87.87,0,0,1,.24.63v.52a3.53,3.53,0,0,1,1.26-1.08,3.64,3.64,0,0,1,1.76-.45A4.08,4.08,0,0,1,588.37,52.45Zm-.92,7.12a2.91,2.91,0,0,0,1-1.18,4,4,0,0,0,0-3.37,2.91,2.91,0,0,0-1-1.18,2.69,2.69,0,0,0-1.49-.43,2.76,2.76,0,0,0-1.51.42,2.83,2.83,0,0,0-1,1.18,4.06,4.06,0,0,0,0,3.38,2.83,2.83,0,0,0,1,1.18A2.76,2.76,0,0,0,586,60,2.69,2.69,0,0,0,587.45,59.57Z" transform="translate(-6.46 -8.81)"/><path class="cls-3" d="M598,52a.72.72,0,0,1,.34.6.89.89,0,0,1-.23.66.75.75,0,0,1-.55.23,1.72,1.72,0,0,1-.49-.11,2,2,0,0,0-.59-.13,1.83,1.83,0,0,0-1.09.39,2.84,2.84,0,0,0-.86,1.06,3.35,3.35,0,0,0-.33,1.5v4.34a.85.85,0,0,1-.24.61.83.83,0,0,1-.62.25.81.81,0,0,1-.61-.24.86.86,0,0,1-.23-.62v-7.7a.85.85,0,0,1,.24-.61.8.8,0,0,1,.6-.25.83.83,0,0,1,.62.25.85.85,0,0,1,.24.61v.92a3.41,3.41,0,0,1,1.19-1.43,3.19,3.19,0,0,1,1.8-.57A1.36,1.36,0,0,1,598,52Z" transform="translate(-6.46 -8.81)"/><path class="cls-3" d="M599.91,50.53a.74.74,0,0,1-.23-.6v-.29a.71.71,0,0,1,.24-.61,1.25,1.25,0,0,1,.75-.18,1.13,1.13,0,0,1,.73.19.75.75,0,0,1,.23.6v.29a.73.73,0,0,1-.23.61,1.21,1.21,0,0,1-.74.18A1.16,1.16,0,0,1,599.91,50.53Zm1.37,10.65a.82.82,0,0,1-.62.25.8.8,0,0,1-.6-.25.85.85,0,0,1-.24-.61V52.77a.85.85,0,0,1,.24-.61.8.8,0,0,1,.6-.25.82.82,0,0,1,.62.25.85.85,0,0,1,.24.61v7.79A.85.85,0,0,1,601.28,61.17Z" transform="translate(-6.46 -8.81)"/><path class="cls-3" d="M605.59,61.17a.83.83,0,0,1-.61.25.8.8,0,0,1-.6-.25.85.85,0,0,1-.24-.61V49a.86.86,0,0,1,.86-.86.8.8,0,0,1,.6.25.85.85,0,0,1,.24.61V60.56A.83.83,0,0,1,605.59,61.17Z" transform="translate(-6.46 -8.81)"/><path class="cls-3" d="M621.25,60.08a.78.78,0,0,1,.23.58.73.73,0,0,1-.23.56.82.82,0,0,1-.58.22h-6.39a.82.82,0,0,1-.59-.23.8.8,0,0,1-.23-.6.92.92,0,0,1,.25-.61l4-4.36a5,5,0,0,0,1.67-3.15,2.19,2.19,0,0,0-2.27-2.25,2.4,2.4,0,0,0-1.28.38,2.79,2.79,0,0,0-1,1.08.84.84,0,0,1-.68.38.86.86,0,0,1-.58-.23.7.7,0,0,1-.27-.54.78.78,0,0,1,.13-.41,4.07,4.07,0,0,1,.39-.5,4.3,4.3,0,0,1,1.51-1.26,4,4,0,0,1,1.85-.47,4.26,4.26,0,0,1,2.09.49,3.42,3.42,0,0,1,1.36,1.33,3.89,3.89,0,0,1,.48,1.94q0,2.07-2.23,4.46l-2.72,3h4.48A.78.78,0,0,1,621.25,60.08Z" transform="translate(-6.46 -8.81)"/><path class="cls-3" d="M625.07,60.78a5,5,0,0,1-1.58-2.29,10.94,10.94,0,0,1,0-6.73,5,5,0,0,1,1.58-2.29,4.25,4.25,0,0,1,5,0,5,5,0,0,1,1.57,2.29,10.93,10.93,0,0,1,0,6.73,5,5,0,0,1-1.57,2.29,4.25,4.25,0,0,1-5,0Zm4.56-2.14a7,7,0,0,0,.73-3.51,7,7,0,0,0-.73-3.51,2.3,2.3,0,0,0-4.09,0,7,7,0,0,0-.73,3.51,7,7,0,0,0,.73,3.51,2.3,2.3,0,0,0,4.09,0Z" transform="translate(-6.46 -8.81)"/><path class="cls-3" d="M637.64,49.09a.85.85,0,0,1,.23.6V60.56a.81.81,0,0,1-.27.61.94.94,0,0,1-.67.25.88.88,0,0,1-.65-.25.83.83,0,0,1-.25-.61V51.2l-1.58,1a.82.82,0,0,1-.45.13.79.79,0,0,1-.61-.28.89.89,0,0,1-.25-.6.76.76,0,0,1,.13-.41,1,1,0,0,1,.32-.32L636.43,49a1.41,1.41,0,0,1,.63-.13A.82.82,0,0,1,637.64,49.09Z" transform="translate(-6.46 -8.81)"/><path class="cls-3" d="M646.53,49.28A4.27,4.27,0,0,1,648,51a5.5,5.5,0,0,1,.5,2.32,9.7,9.7,0,0,1-.54,3,8.89,8.89,0,0,1-1.76,3.05,6.79,6.79,0,0,1-3.15,2,1,1,0,0,1-.32.05,1,1,0,0,1-.62-.21.74.74,0,0,1-.26-.62.81.81,0,0,1,.2-.54,1,1,0,0,1,.54-.32,6.46,6.46,0,0,0,2.37-1.51,6,6,0,0,0,1.54-2.43,3.39,3.39,0,0,1-2.43,1,3.45,3.45,0,0,1-1.88-.57,4.16,4.16,0,0,1-1.42-1.53,4.2,4.2,0,0,1-.53-2.06,4,4,0,0,1,.55-2,4.15,4.15,0,0,1,1.48-1.5,4,4,0,0,1,2.07-.56A3.79,3.79,0,0,1,646.53,49.28ZM646,54.53a2.58,2.58,0,0,0,.69-1.84,2.5,2.5,0,0,0-.68-1.77,2.31,2.31,0,0,0-1.76-.73,2.24,2.24,0,0,0-1.69.72,2.51,2.51,0,0,0-.68,1.8,2.63,2.63,0,0,0,.66,1.82,2.15,2.15,0,0,0,1.68.74A2.35,2.35,0,0,0,646,54.53Z" transform="translate(-6.46 -8.81)"/><path class="cls-3" d="M522.24,68a3.2,3.2,0,0,1,1.23,1.28,3.83,3.83,0,0,1,.44,1.84,4,4,0,0,1-.44,1.87,3.33,3.33,0,0,1-3,1.82h-3.73v4.79a.54.54,0,1,1-1.08,0V68.07a.52.52,0,0,1,.54-.54h4.27A3.49,3.49,0,0,1,522.24,68Zm-.09,5a2.8,2.8,0,0,0,.65-1.89,2.57,2.57,0,0,0-.65-1.82,2.2,2.2,0,0,0-1.69-.7h-3.73v5.17h3.73A2.12,2.12,0,0,0,522.15,73Z" transform="translate(-6.46 -8.81)"/><path class="cls-3" d="M533.29,71.14a.53.53,0,0,1,.15.39V76.6a3.57,3.57,0,0,1-1,2.71,3.8,3.8,0,0,1-2.74.94,3.74,3.74,0,0,1-2.71-.94,3.59,3.59,0,0,1-1-2.71V71.53a.54.54,0,1,1,1.08,0V76.6a2.37,2.37,0,0,0,2.61,2.65,2.68,2.68,0,0,0,2-.68,2.63,2.63,0,0,0,.69-2V71.53a.55.55,0,0,1,.93-.39Z" transform="translate(-6.46 -8.81)"/><path class="cls-3" d="M542.8,71.33a4.19,4.19,0,0,1,1.52,1.7,5.39,5.39,0,0,1,.55,2.46,5.46,5.46,0,0,1-.55,2.46,4.32,4.32,0,0,1-1.51,1.74,3.84,3.84,0,0,1-2.15.63,3.68,3.68,0,0,1-1.9-.51,4.14,4.14,0,0,1-1.41-1.36v1.19a.56.56,0,0,1-.15.4.54.54,0,0,1-.77,0,.56.56,0,0,1-.15-.4V67.37a.54.54,0,1,1,1.08,0v5.31a3.79,3.79,0,0,1,1.37-1.42,3.62,3.62,0,0,1,1.93-.54A4,4,0,0,1,542.8,71.33Zm-.57,7.47a3.42,3.42,0,0,0,1.17-1.38,4.38,4.38,0,0,0,.42-1.94,4.31,4.31,0,0,0-.42-1.94,3.32,3.32,0,0,0-1.17-1.34,3,3,0,0,0-1.68-.49,3.1,3.1,0,0,0-2.88,1.82,4.75,4.75,0,0,0,0,3.9,3.35,3.35,0,0,0,1.17,1.37,3,3,0,0,0,1.7.5A2.94,2.94,0,0,0,542.23,78.8Z" transform="translate(-6.46 -8.81)"/><path class="cls-3" d="M548.14,80a.54.54,0,0,1-.93-.39V67.35a.54.54,0,1,1,1.08,0V79.59A.53.53,0,0,1,548.14,80Z" transform="translate(-6.46 -8.81)"/><path class="cls-3" d="M551.19,69.39a.62.62,0,0,1-.2-.5v-.18a.61.61,0,0,1,.21-.5.86.86,0,0,1,.57-.17q.72,0,.72.67v.18a.63.63,0,0,1-.19.5.79.79,0,0,1-.55.17A.83.83,0,0,1,551.19,69.39ZM552.13,80a.54.54,0,0,1-.93-.39V71.31a.54.54,0,1,1,1.08,0v8.28A.52.52,0,0,1,552.13,80Z" transform="translate(-6.46 -8.81)"/><path class="cls-3" d="M560.65,70.91a3.42,3.42,0,0,1,1.17.51.89.89,0,0,1,.44.7.55.55,0,0,1-.13.36.42.42,0,0,1-.33.16.56.56,0,0,1-.3-.07,1.46,1.46,0,0,1-.26-.22,1.8,1.8,0,0,0-.45-.34,3,3,0,0,0-.71-.21,5.26,5.26,0,0,0-.94-.08,3.38,3.38,0,0,0-1.81.5A3.57,3.57,0,0,0,556,73.6a3.94,3.94,0,0,0-.47,1.91,4.14,4.14,0,0,0,.45,1.94,3.37,3.37,0,0,0,3.08,1.85,4,4,0,0,0,1-.11,3.88,3.88,0,0,0,.76-.31,3.82,3.82,0,0,0,.43-.32,1.73,1.73,0,0,1,.25-.19.46.46,0,0,1,.23-.06.45.45,0,0,1,.34.13.49.49,0,0,1,.13.35.94.94,0,0,1-.43.66,3.78,3.78,0,0,1-1.19.6,5.28,5.28,0,0,1-1.67.25,4.43,4.43,0,0,1-2.34-.62A4.24,4.24,0,0,1,555,78a5.29,5.29,0,0,1-.57-2.47,5.06,5.06,0,0,1,.58-2.4,4.42,4.42,0,0,1,4-2.39A6.27,6.27,0,0,1,560.65,70.91Z" transform="translate(-6.46 -8.81)"/><path class="cls-3" d="M575.79,71.33a4.19,4.19,0,0,1,1.52,1.7,5.39,5.39,0,0,1,.55,2.46,5.46,5.46,0,0,1-.55,2.46,4.32,4.32,0,0,1-1.51,1.74,3.84,3.84,0,0,1-2.15.63,3.68,3.68,0,0,1-1.9-.51,4.14,4.14,0,0,1-1.41-1.36v1.19a.56.56,0,0,1-.15.4.54.54,0,0,1-.77,0,.56.56,0,0,1-.15-.4V67.37a.54.54,0,1,1,1.08,0v5.31a3.79,3.79,0,0,1,1.37-1.42,3.62,3.62,0,0,1,1.93-.54A4,4,0,0,1,575.79,71.33Zm-.57,7.47a3.42,3.42,0,0,0,1.17-1.38,4.38,4.38,0,0,0,.42-1.94,4.31,4.31,0,0,0-.42-1.94,3.32,3.32,0,0,0-1.17-1.34,3,3,0,0,0-1.68-.49,3.1,3.1,0,0,0-2.88,1.82,4.75,4.75,0,0,0,0,3.9,3.35,3.35,0,0,0,1.17,1.37,3,3,0,0,0,1.7.5A2.94,2.94,0,0,0,575.23,78.8Z" transform="translate(-6.46 -8.81)"/><path class="cls-3" d="M587.71,75.37a.53.53,0,0,1-.38.15h-6.8a4.16,4.16,0,0,0,.44,1.94,3.33,3.33,0,0,0,1.26,1.35,3.66,3.66,0,0,0,1.94.5,3.27,3.27,0,0,0,1.55-.36,3.19,3.19,0,0,0,1.1-.92.61.61,0,0,1,.38-.16.49.49,0,0,1,.47.47.53.53,0,0,1-.18.38A4.53,4.53,0,0,1,586,79.86a4,4,0,0,1-1.85.45,4.93,4.93,0,0,1-2.45-.59,4.21,4.21,0,0,1-1.66-1.67,5,5,0,0,1-.59-2.48,5.45,5.45,0,0,1,.58-2.58,4.22,4.22,0,0,1,1.56-1.69,4,4,0,0,1,2.07-.58,4.24,4.24,0,0,1,2,.5,4,4,0,0,1,1.54,1.48,4.45,4.45,0,0,1,.61,2.3A.49.49,0,0,1,587.71,75.37Zm-5.95-2.89a3.34,3.34,0,0,0-1.14,2.07h6.14v-.14a2.84,2.84,0,0,0-.54-1.41,2.94,2.94,0,0,0-1.12-.92,3.27,3.27,0,0,0-1.4-.31A3,3,0,0,0,581.76,72.48Z" transform="translate(-6.46 -8.81)"/><path class="cls-3" d="M591.9,72v6a1.29,1.29,0,0,0,.25.93.92.92,0,0,0,.67.24,1,1,0,0,0,.27,0,1,1,0,0,1,.25,0,.36.36,0,0,1,.28.13.47.47,0,0,1,.12.31.49.49,0,0,1-.29.42,1.31,1.31,0,0,1-.68.17,3.74,3.74,0,0,1-.86-.09,1.37,1.37,0,0,1-.73-.54,2.35,2.35,0,0,1-.35-1.44V72h-1.31a.52.52,0,0,1-.37-.14.5.5,0,0,1,0-.72.52.52,0,0,1,.37-.14h1.31V69a.54.54,0,1,1,1.08,0v2h1.8a.47.47,0,0,1,.35.16.51.51,0,0,1,.15.36.46.46,0,0,1-.14.35.51.51,0,0,1-.36.14Z" transform="translate(-6.46 -8.81)"/><path class="cls-3" d="M604.06,71.1a.56.56,0,0,1,.15.4v8.1a.54.54,0,1,1-1.08,0V78.39a3.77,3.77,0,0,1-1.35,1.37,3.65,3.65,0,0,1-2,.56,3.87,3.87,0,0,1-2.17-.63A4.33,4.33,0,0,1,596.14,78a5.43,5.43,0,0,1-.55-2.47,5.31,5.31,0,0,1,.56-2.46,4.27,4.27,0,0,1,1.52-1.7,4,4,0,0,1,4.11-.09,3.44,3.44,0,0,1,1.35,1.37V71.49a.56.56,0,0,1,.15-.4.54.54,0,0,1,.77,0Zm-2.45,7.71a3.35,3.35,0,0,0,1.17-1.37,4.42,4.42,0,0,0,.42-2,4.28,4.28,0,0,0-.42-1.91,3.37,3.37,0,0,0-1.17-1.36,3,3,0,0,0-1.68-.49,3,3,0,0,0-1.68.49,3.31,3.31,0,0,0-1.17,1.34,4.3,4.3,0,0,0-.42,1.94,4.5,4.5,0,0,0,.41,2,3.28,3.28,0,0,0,1.16,1.37,3,3,0,0,0,1.7.5A3,3,0,0,0,601.61,78.81Z" transform="translate(-6.46 -8.81)"/><path class="cls-3" d="M613.76,72v6a1.29,1.29,0,0,0,.25.93.92.92,0,0,0,.67.24,1,1,0,0,0,.27,0,1,1,0,0,1,.25,0,.36.36,0,0,1,.28.13.47.47,0,0,1,.12.31.49.49,0,0,1-.29.42,1.31,1.31,0,0,1-.68.17,3.74,3.74,0,0,1-.86-.09,1.37,1.37,0,0,1-.73-.54,2.35,2.35,0,0,1-.35-1.44V72h-1.31a.52.52,0,0,1-.37-.14.5.5,0,0,1,0-.72.52.52,0,0,1,.37-.14h1.31V69a.54.54,0,1,1,1.08,0v2h1.8a.47.47,0,0,1,.35.16.51.51,0,0,1,.15.36.46.46,0,0,1-.14.35.51.51,0,0,1-.36.14Z" transform="translate(-6.46 -8.81)"/><path class="cls-3" d="M625.58,75.37a.53.53,0,0,1-.38.15h-6.8a4.16,4.16,0,0,0,.44,1.94,3.33,3.33,0,0,0,1.26,1.35,3.66,3.66,0,0,0,1.94.5,3.27,3.27,0,0,0,1.55-.36,3.19,3.19,0,0,0,1.1-.92.61.61,0,0,1,.38-.16.49.49,0,0,1,.47.47.53.53,0,0,1-.18.38,4.53,4.53,0,0,1-1.45,1.15,4,4,0,0,1-1.85.45,4.93,4.93,0,0,1-2.45-.59,4.21,4.21,0,0,1-1.66-1.67,5,5,0,0,1-.59-2.48,5.45,5.45,0,0,1,.58-2.58,4.22,4.22,0,0,1,1.56-1.69,4,4,0,0,1,2.07-.58,4.24,4.24,0,0,1,2,.5,4,4,0,0,1,1.54,1.48,4.45,4.45,0,0,1,.61,2.3A.49.49,0,0,1,625.58,75.37Zm-5.95-2.89a3.34,3.34,0,0,0-1.14,2.07h6.14v-.14a2.84,2.84,0,0,0-.54-1.41,2.94,2.94,0,0,0-1.12-.92,3.27,3.27,0,0,0-1.4-.31A3,3,0,0,0,619.63,72.48Z" transform="translate(-6.46 -8.81)"/><path class="cls-3" d="M627.31,78.28a.39.39,0,0,1,.23-.36.39.39,0,0,1,.29-.11.55.55,0,0,1,.4.18,3.37,3.37,0,0,0,2.83,1.4,2.75,2.75,0,0,0,1.5-.41,1.31,1.31,0,0,0,.64-1.18,1.26,1.26,0,0,0-.59-1.13,5.8,5.8,0,0,0-1.66-.65,7,7,0,0,1-2.34-1,2,2,0,0,1-.85-1.77,2.23,2.23,0,0,1,.41-1.32A2.73,2.73,0,0,1,629.3,71a3.84,3.84,0,0,1,1.61-.32,4.37,4.37,0,0,1,1.56.3,3.28,3.28,0,0,1,1.34.95.43.43,0,0,1,.16.36.49.49,0,0,1-.18.38.48.48,0,0,1-.32.11.45.45,0,0,1-.32-.14,2.84,2.84,0,0,0-1-.74,3.24,3.24,0,0,0-1.28-.25,2.58,2.58,0,0,0-1.45.4,1.33,1.33,0,0,0-.6,1.19,1.29,1.29,0,0,0,.66,1.1,6.88,6.88,0,0,0,1.83.68,8.61,8.61,0,0,1,1.55.52,2.6,2.6,0,0,1,1,.81,2.28,2.28,0,0,1,.39,1.39,2.2,2.2,0,0,1-.94,1.86,3.79,3.79,0,0,1-2.32.69,4.22,4.22,0,0,1-3.49-1.64A.8.8,0,0,1,627.31,78.28Z" transform="translate(-6.46 -8.81)"/><path class="cls-3" d="M638.22,72v6a1.29,1.29,0,0,0,.25.93.92.92,0,0,0,.67.24,1,1,0,0,0,.27,0,1,1,0,0,1,.25,0,.36.36,0,0,1,.28.13.47.47,0,0,1,.12.31.49.49,0,0,1-.29.42,1.31,1.31,0,0,1-.68.17,3.74,3.74,0,0,1-.86-.09,1.37,1.37,0,0,1-.73-.54,2.35,2.35,0,0,1-.35-1.44V72h-1.31a.52.52,0,0,1-.37-.14.5.5,0,0,1,0-.72.52.52,0,0,1,.37-.14h1.31V69a.54.54,0,1,1,1.08,0v2H640a.47.47,0,0,1,.35.16.51.51,0,0,1,.15.36.46.46,0,0,1-.14.35A.51.51,0,0,1,640,72Z" transform="translate(-6.46 -8.81)"/><path class="cls-3" d="M654,71.33a4.19,4.19,0,0,1,1.52,1.7,5.39,5.39,0,0,1,.55,2.46,5.46,5.46,0,0,1-.55,2.46A4.32,4.32,0,0,1,654,79.68a3.84,3.84,0,0,1-2.15.63,3.68,3.68,0,0,1-1.9-.51,4.14,4.14,0,0,1-1.41-1.36v1.19a.56.56,0,0,1-.15.4.54.54,0,0,1-.77,0,.56.56,0,0,1-.15-.4V67.37a.54.54,0,1,1,1.08,0v5.31a3.79,3.79,0,0,1,1.37-1.42,3.62,3.62,0,0,1,1.93-.54A4,4,0,0,1,654,71.33Zm-.57,7.47a3.42,3.42,0,0,0,1.17-1.38,4.38,4.38,0,0,0,.42-1.94,4.31,4.31,0,0,0-.42-1.94,3.32,3.32,0,0,0-1.17-1.34,3,3,0,0,0-1.68-.49,3.1,3.1,0,0,0-2.88,1.82,4.75,4.75,0,0,0,0,3.9A3.35,3.35,0,0,0,650,78.81a3,3,0,0,0,1.7.5A2.94,2.94,0,0,0,653.4,78.8Z" transform="translate(-6.46 -8.81)"/><path class="cls-3" d="M665.88,75.37a.53.53,0,0,1-.38.15h-6.8a4.16,4.16,0,0,0,.44,1.94,3.33,3.33,0,0,0,1.26,1.35,3.66,3.66,0,0,0,1.94.5,3.27,3.27,0,0,0,1.55-.36A3.19,3.19,0,0,0,665,78a.61.61,0,0,1,.38-.16.5.5,0,0,1,.47.47.54.54,0,0,1-.18.38,4.54,4.54,0,0,1-1.45,1.15,4,4,0,0,1-1.85.45,4.93,4.93,0,0,1-2.45-.59,4.21,4.21,0,0,1-1.66-1.67,5,5,0,0,1-.59-2.48,5.45,5.45,0,0,1,.58-2.58,4.22,4.22,0,0,1,1.56-1.69,4,4,0,0,1,2.07-.58,4.24,4.24,0,0,1,2,.5,4,4,0,0,1,1.54,1.48A4.46,4.46,0,0,1,666,75,.49.49,0,0,1,665.88,75.37Zm-5.95-2.89a3.34,3.34,0,0,0-1.14,2.07h6.14v-.14a2.84,2.84,0,0,0-.54-1.41,2.94,2.94,0,0,0-1.12-.92,3.27,3.27,0,0,0-1.4-.31A3,3,0,0,0,659.93,72.48Z" transform="translate(-6.46 -8.81)"/><path class="cls-3" d="M676.35,71.09a.55.55,0,0,1,.15.4v7.79a4.68,4.68,0,0,1-.58,2.4,3.88,3.88,0,0,1-1.6,1.52,5,5,0,0,1-2.33.52,5.81,5.81,0,0,1-1.32-.16,5.26,5.26,0,0,1-1.19-.41q-.5-.25-.57-.52a.4.4,0,0,1-.13-.29.33.33,0,0,1,.16-.29.29.29,0,0,1,.18-.05,1.41,1.41,0,0,1,.41.13l.38.16a5.8,5.8,0,0,0,2.09.43,3.4,3.4,0,0,0,2.51-.91,3.32,3.32,0,0,0,.91-2.46V78.24A3.32,3.32,0,0,1,674,79.76a4.08,4.08,0,0,1-2,.55,4.16,4.16,0,0,1-2.24-.62A4.36,4.36,0,0,1,668.15,78a5.53,5.53,0,0,1,0-4.91,4.37,4.37,0,0,1,1.58-1.72,4.13,4.13,0,0,1,2.22-.62,4,4,0,0,1,2.08.57,3.8,3.8,0,0,1,1.4,1.36V71.49a.56.56,0,0,1,.15-.4.51.51,0,0,1,.39-.16A.53.53,0,0,1,676.35,71.09Zm-2.52,7.74a3.26,3.26,0,0,0,1.22-1.35,4.31,4.31,0,0,0,.44-2,4.25,4.25,0,0,0-.44-2,3.28,3.28,0,0,0-1.22-1.34,3.35,3.35,0,0,0-1.77-.48,3.22,3.22,0,0,0-1.75.49,3.39,3.39,0,0,0-1.22,1.36,4.46,4.46,0,0,0,0,3.87,3.38,3.38,0,0,0,1.22,1.36,3.21,3.21,0,0,0,1.75.5A3.34,3.34,0,0,0,673.83,78.83Z" transform="translate(-6.46 -8.81)"/><path class="cls-3" d="M679.29,69.39a.62.62,0,0,1-.2-.5v-.18a.61.61,0,0,1,.21-.5.87.87,0,0,1,.57-.17q.72,0,.72.67v.18a.63.63,0,0,1-.19.5.79.79,0,0,1-.55.17A.83.83,0,0,1,679.29,69.39ZM680.24,80a.54.54,0,0,1-.93-.39V71.31a.54.54,0,1,1,1.08,0v8.28A.53.53,0,0,1,680.24,80Z" transform="translate(-6.46 -8.81)"/><path class="cls-3" d="M690,71.7a4,4,0,0,1,.78,2.6v5.29a.51.51,0,0,1-.16.39.53.53,0,0,1-.38.15.52.52,0,0,1-.54-.54V74.35a2.94,2.94,0,0,0-.58-1.9,2.18,2.18,0,0,0-1.81-.73A3.23,3.23,0,0,0,684.71,73a2.2,2.2,0,0,0-.43,1.31v5.24a.54.54,0,1,1-1.08,0V71.53a.54.54,0,1,1,1.08,0v1a3.82,3.82,0,0,1,1.4-1.29,3.74,3.74,0,0,1,1.86-.51A3,3,0,0,1,690,71.7Z" transform="translate(-6.46 -8.81)"/><path class="cls-3" d="M692.94,78.28a.39.39,0,0,1,.23-.36.39.39,0,0,1,.29-.11.55.55,0,0,1,.4.18,3.37,3.37,0,0,0,2.83,1.4,2.75,2.75,0,0,0,1.5-.41,1.31,1.31,0,0,0,.64-1.18,1.25,1.25,0,0,0-.59-1.13,5.8,5.8,0,0,0-1.66-.65,7,7,0,0,1-2.34-1,2,2,0,0,1-.85-1.77A2.23,2.23,0,0,1,693.8,72a2.72,2.72,0,0,1,1.13-.91,3.84,3.84,0,0,1,1.61-.32,4.37,4.37,0,0,1,1.56.3,3.29,3.29,0,0,1,1.34.95.43.43,0,0,1,.16.36.5.5,0,0,1-.18.38.48.48,0,0,1-.32.11.45.45,0,0,1-.32-.14,2.84,2.84,0,0,0-1-.74,3.23,3.23,0,0,0-1.28-.25,2.58,2.58,0,0,0-1.45.4,1.33,1.33,0,0,0-.6,1.19,1.29,1.29,0,0,0,.66,1.1,6.89,6.89,0,0,0,1.83.68,8.61,8.61,0,0,1,1.55.52,2.6,2.6,0,0,1,1,.81,2.28,2.28,0,0,1,.39,1.39,2.2,2.2,0,0,1-.94,1.86,3.79,3.79,0,0,1-2.32.69,4.22,4.22,0,0,1-3.49-1.64A.8.8,0,0,1,692.94,78.28Z" transform="translate(-6.46 -8.81)"/><path class="cls-3" d="M701.72,79.94a.77.77,0,0,1-.16-.51v-.38a.73.73,0,0,1,.16-.5.6.6,0,0,1,.47-.18h.13a.6.6,0,0,1,.47.18.73.73,0,0,1,.16.5v.38a.77.77,0,0,1-.16.51.58.58,0,0,1-.47.19h-.13A.58.58,0,0,1,701.72,79.94Z" transform="translate(-6.46 -8.81)"/><path class="cls-3" d="M825.49,60.65a.82.82,0,0,1-.81.83.75.75,0,0,1-.46-.15,1.08,1.08,0,0,1-.33-.42l-1.12-2.65h-5.56l-1.1,2.66a.78.78,0,0,1-.76.56.78.78,0,0,1-.58-.2.73.73,0,0,1-.2-.54,2.15,2.15,0,0,1,0-.29l4.59-11.12a1,1,0,0,1,.35-.44.73.73,0,0,1,.51-.12.85.85,0,0,1,.49.14.78.78,0,0,1,.31.41l4.57,11A1.07,1.07,0,0,1,825.49,60.65Zm-7.6-4h4.19l-2.11-5Z" transform="translate(-6.46 -8.81)"/><path class="cls-3" d="M834,52.45a4.3,4.3,0,0,1,1.56,1.74,5.49,5.49,0,0,1,.57,2.52,5.43,5.43,0,0,1-.57,2.51A4.37,4.37,0,0,1,834,61a4,4,0,0,1-2.18.63,3.78,3.78,0,0,1-1.75-.41,4.2,4.2,0,0,1-1.31-1v4a.85.85,0,0,1-.24.61.83.83,0,0,1-.62.25.82.82,0,0,1-.6-.24.84.84,0,0,1-.24-.62V52.84a.89.89,0,0,1,.23-.63.8.8,0,0,1,.61-.25.83.83,0,0,1,.62.25.87.87,0,0,1,.24.63v.52a3.54,3.54,0,0,1,1.26-1.08,3.64,3.64,0,0,1,1.76-.45A4.08,4.08,0,0,1,834,52.45Zm-.92,7.12a2.9,2.9,0,0,0,1-1.18,4,4,0,0,0,0-3.37,2.91,2.91,0,0,0-1-1.18,2.68,2.68,0,0,0-1.49-.43,2.76,2.76,0,0,0-1.51.42,2.83,2.83,0,0,0-1,1.18,4.07,4.07,0,0,0,0,3.38,2.83,2.83,0,0,0,1,1.18,2.76,2.76,0,0,0,1.51.42A2.68,2.68,0,0,0,833.13,59.57Z" transform="translate(-6.46 -8.81)"/><path class="cls-3" d="M843.66,52a.72.72,0,0,1,.34.6.89.89,0,0,1-.22.66.75.75,0,0,1-.55.23,1.72,1.72,0,0,1-.49-.11,2,2,0,0,0-.59-.13,1.83,1.83,0,0,0-1.09.39,2.84,2.84,0,0,0-.86,1.06,3.34,3.34,0,0,0-.33,1.5v4.34a.85.85,0,0,1-.24.61.83.83,0,0,1-.62.25.81.81,0,0,1-.61-.24.86.86,0,0,1-.23-.62v-7.7a.85.85,0,0,1,.24-.61A.8.8,0,0,1,839,52a.83.83,0,0,1,.62.25.85.85,0,0,1,.24.61v.92A3.4,3.4,0,0,1,841,52.34a3.19,3.19,0,0,1,1.8-.57A1.36,1.36,0,0,1,843.66,52Z" transform="translate(-6.46 -8.81)"/><path class="cls-3" d="M845.59,50.53a.74.74,0,0,1-.23-.6v-.29a.71.71,0,0,1,.24-.61,1.26,1.26,0,0,1,.75-.18,1.13,1.13,0,0,1,.73.19.75.75,0,0,1,.22.6v.29a.73.73,0,0,1-.23.61,1.21,1.21,0,0,1-.74.18A1.16,1.16,0,0,1,845.59,50.53ZM847,61.17a.83.83,0,0,1-.62.25.8.8,0,0,1-.6-.25.85.85,0,0,1-.24-.61V52.77a.85.85,0,0,1,.24-.61.8.8,0,0,1,.6-.25.83.83,0,0,1,.62.25.85.85,0,0,1,.24.61v7.79A.85.85,0,0,1,847,61.17Z" transform="translate(-6.46 -8.81)"/><path class="cls-3" d="M851.27,61.17a.83.83,0,0,1-.61.25.8.8,0,0,1-.6-.25.85.85,0,0,1-.24-.61V49a.86.86,0,0,1,.86-.86.8.8,0,0,1,.6.25.85.85,0,0,1,.24.61V60.56A.83.83,0,0,1,851.27,61.17Z" transform="translate(-6.46 -8.81)"/><path class="cls-3" d="M866.93,60.08a.78.78,0,0,1,.23.58.72.72,0,0,1-.23.56.82.82,0,0,1-.58.22H860a.82.82,0,0,1-.59-.23.8.8,0,0,1-.23-.6.92.92,0,0,1,.25-.61l4-4.36a5,5,0,0,0,1.67-3.15,2.19,2.19,0,0,0-2.27-2.25,2.4,2.4,0,0,0-1.28.38,2.79,2.79,0,0,0-1,1.08.84.84,0,0,1-.68.38.87.87,0,0,1-.58-.23.7.7,0,0,1-.27-.54.78.78,0,0,1,.13-.41,4.06,4.06,0,0,1,.39-.5A4.3,4.3,0,0,1,861,49.11a4,4,0,0,1,1.85-.47,4.26,4.26,0,0,1,2.09.49,3.42,3.42,0,0,1,1.36,1.33,3.9,3.9,0,0,1,.48,1.94q0,2.07-2.23,4.46l-2.72,3h4.48A.79.79,0,0,1,866.93,60.08Z" transform="translate(-6.46 -8.81)"/><path class="cls-3" d="M870.74,60.78a5,5,0,0,1-1.57-2.29,10.93,10.93,0,0,1,0-6.73,5,5,0,0,1,1.57-2.29,4.25,4.25,0,0,1,5,0,5,5,0,0,1,1.58,2.29,10.93,10.93,0,0,1,0,6.73,5,5,0,0,1-1.58,2.29,4.25,4.25,0,0,1-5,0Zm4.56-2.14a7,7,0,0,0,.73-3.51,7,7,0,0,0-.73-3.51,2.3,2.3,0,0,0-4.09,0,7,7,0,0,0-.73,3.51,7,7,0,0,0,.73,3.51,2.3,2.3,0,0,0,4.09,0Z" transform="translate(-6.46 -8.81)"/><path class="cls-3" d="M887.72,60.08a.78.78,0,0,1,.23.58.72.72,0,0,1-.23.56.82.82,0,0,1-.58.22h-6.39a.82.82,0,0,1-.59-.23.8.8,0,0,1-.23-.6.92.92,0,0,1,.25-.61l4-4.36a5,5,0,0,0,1.67-3.15,2.19,2.19,0,0,0-2.27-2.25,2.4,2.4,0,0,0-1.28.38,2.79,2.79,0,0,0-1,1.08.84.84,0,0,1-.68.38.87.87,0,0,1-.58-.23.7.7,0,0,1-.27-.54.78.78,0,0,1,.13-.41,4.06,4.06,0,0,1,.39-.5,4.3,4.3,0,0,1,1.51-1.26,4,4,0,0,1,1.85-.47,4.26,4.26,0,0,1,2.09.49,3.42,3.42,0,0,1,1.36,1.33,3.9,3.9,0,0,1,.48,1.94q0,2.07-2.23,4.46l-2.72,3h4.48A.79.79,0,0,1,887.72,60.08Z" transform="translate(-6.46 -8.81)"/><path class="cls-3" d="M891.53,60.78A5,5,0,0,1,890,58.49a10.93,10.93,0,0,1,0-6.73,5,5,0,0,1,1.57-2.29,4.25,4.25,0,0,1,5,0,5,5,0,0,1,1.58,2.29,10.93,10.93,0,0,1,0,6.73,5,5,0,0,1-1.58,2.29,4.25,4.25,0,0,1-5,0Zm4.56-2.14a7,7,0,0,0,.73-3.51,7,7,0,0,0-.73-3.51,2.3,2.3,0,0,0-4.09,0,7,7,0,0,0-.73,3.51,7,7,0,0,0,.73,3.51,2.3,2.3,0,0,0,4.09,0Z" transform="translate(-6.46 -8.81)"/><path class="cls-3" d="M799.74,79.88a6.45,6.45,0,0,1-1.93-1.35.54.54,0,0,1-.22-.43.56.56,0,0,1,.17-.4.52.52,0,0,1,.39-.18.55.55,0,0,1,.4.18A4.54,4.54,0,0,0,802,79.25a3.6,3.6,0,0,0,2.15-.61,1.88,1.88,0,0,0,.86-1.6,2,2,0,0,0-.42-1.29,3.16,3.16,0,0,0-1.11-.84,14.81,14.81,0,0,0-1.75-.67,10.61,10.61,0,0,1-1.93-.76,3.55,3.55,0,0,1-1.27-1.11,3,3,0,0,1-.49-1.75,2.89,2.89,0,0,1,.51-1.69A3.44,3.44,0,0,1,800,67.77a5.09,5.09,0,0,1,2.13-.42,5.72,5.72,0,0,1,2.06.37,3.69,3.69,0,0,1,1.54,1.05.87.87,0,0,1,.27.52.51.51,0,0,1-.18.37.56.56,0,0,1-.4.17.42.42,0,0,1-.31-.13,3.54,3.54,0,0,0-1.3-.94,4.12,4.12,0,0,0-1.69-.36A3.63,3.63,0,0,0,800,69a2,2,0,0,0,0,3.19,8.44,8.44,0,0,0,2.27,1,13.75,13.75,0,0,1,2.09.77,3.44,3.44,0,0,1,1.32,1.13,3.27,3.27,0,0,1,.51,1.92,2.8,2.8,0,0,1-.53,1.67,3.59,3.59,0,0,1-1.48,1.18,5.12,5.12,0,0,1-2.15.43A5.74,5.74,0,0,1,799.74,79.88Z" transform="translate(-6.46 -8.81)"/><path class="cls-3" d="M810.28,72v6a1.29,1.29,0,0,0,.25.93.92.92,0,0,0,.67.24,1,1,0,0,0,.27,0,1,1,0,0,1,.25,0,.36.36,0,0,1,.28.13.47.47,0,0,1,.12.31.49.49,0,0,1-.29.42,1.31,1.31,0,0,1-.68.17,3.75,3.75,0,0,1-.86-.09,1.37,1.37,0,0,1-.73-.54,2.35,2.35,0,0,1-.35-1.44V72h-1.31a.52.52,0,0,1-.37-.14.5.5,0,0,1,0-.72.52.52,0,0,1,.37-.14h1.31V69a.54.54,0,1,1,1.08,0v2h1.8a.47.47,0,0,1,.35.16.51.51,0,0,1,.15.36.46.46,0,0,1-.14.35.51.51,0,0,1-.36.14Z" transform="translate(-6.46 -8.81)"/><path class="cls-3" d="M822.43,71.1a.56.56,0,0,1,.15.4v8.1a.54.54,0,1,1-1.08,0V78.39a3.77,3.77,0,0,1-1.35,1.37,3.65,3.65,0,0,1-2,.56,3.87,3.87,0,0,1-2.17-.63A4.32,4.32,0,0,1,814.51,78a5.43,5.43,0,0,1-.55-2.47,5.31,5.31,0,0,1,.56-2.46,4.28,4.28,0,0,1,1.52-1.7,4,4,0,0,1,4.11-.09,3.44,3.44,0,0,1,1.35,1.37V71.49a.56.56,0,0,1,.15-.4.54.54,0,0,1,.77,0ZM820,78.81a3.35,3.35,0,0,0,1.17-1.37,4.42,4.42,0,0,0,.42-2,4.28,4.28,0,0,0-.42-1.91A3.37,3.37,0,0,0,820,72.22a3,3,0,0,0-1.68-.49,3,3,0,0,0-1.68.49,3.31,3.31,0,0,0-1.17,1.34,4.3,4.3,0,0,0-.42,1.94,4.5,4.5,0,0,0,.41,2,3.28,3.28,0,0,0,1.16,1.37,3.14,3.14,0,0,0,3.38,0Z" transform="translate(-6.46 -8.81)"/><path class="cls-3" d="M831.95,71.33a4.19,4.19,0,0,1,1.52,1.7,5.38,5.38,0,0,1,.55,2.46,5.45,5.45,0,0,1-.55,2.46A4.32,4.32,0,0,1,832,79.68a3.84,3.84,0,0,1-2.15.63,3.68,3.68,0,0,1-1.9-.51,4.14,4.14,0,0,1-1.41-1.36v1.19a.55.55,0,0,1-.15.4.54.54,0,0,1-.77,0,.55.55,0,0,1-.15-.4V67.37a.54.54,0,1,1,1.08,0v5.31a3.79,3.79,0,0,1,1.37-1.42,3.62,3.62,0,0,1,1.93-.54A4,4,0,0,1,831.95,71.33Zm-.57,7.47a3.41,3.41,0,0,0,1.17-1.38,4.38,4.38,0,0,0,.42-1.94,4.3,4.3,0,0,0-.42-1.94,3.31,3.31,0,0,0-1.17-1.34,3,3,0,0,0-1.68-.49,3.1,3.1,0,0,0-2.88,1.82,4.75,4.75,0,0,0,0,3.9A3.35,3.35,0,0,0,828,78.81a3,3,0,0,0,1.7.5A2.94,2.94,0,0,0,831.38,78.8Z" transform="translate(-6.46 -8.81)"/><path class="cls-3" d="M837.28,80a.54.54,0,0,1-.93-.39V67.35a.54.54,0,1,1,1.08,0V79.59A.53.53,0,0,1,837.28,80Z" transform="translate(-6.46 -8.81)"/><path class="cls-3" d="M847.82,75.37a.53.53,0,0,1-.38.15h-6.8a4.16,4.16,0,0,0,.44,1.94,3.33,3.33,0,0,0,1.26,1.35,3.67,3.67,0,0,0,1.94.5,3.27,3.27,0,0,0,1.55-.36,3.19,3.19,0,0,0,1.1-.92.61.61,0,0,1,.38-.16.49.49,0,0,1,.47.47.53.53,0,0,1-.18.38,4.53,4.53,0,0,1-1.45,1.15,4,4,0,0,1-1.84.45,4.93,4.93,0,0,1-2.45-.59,4.2,4.2,0,0,1-1.66-1.67,5,5,0,0,1-.59-2.48,5.46,5.46,0,0,1,.58-2.58,4.22,4.22,0,0,1,1.56-1.69,4,4,0,0,1,2.07-.58,4.24,4.24,0,0,1,2,.5,4,4,0,0,1,1.54,1.48A4.45,4.45,0,0,1,848,75,.49.49,0,0,1,847.82,75.37Zm-5.95-2.89a3.34,3.34,0,0,0-1.14,2.07h6.14v-.14a2.85,2.85,0,0,0-.54-1.41,2.93,2.93,0,0,0-1.12-.92,3.27,3.27,0,0,0-1.39-.31A3,3,0,0,0,841.87,72.48Z" transform="translate(-6.46 -8.81)"/><path class="cls-3" d="M860.08,70.86a.46.46,0,0,1,.29.43.56.56,0,0,1-.14.4.45.45,0,0,1-.34.15,1.36,1.36,0,0,1-.35-.09,1.54,1.54,0,0,0-.5-.09,2.14,2.14,0,0,0-1.32.51,4,4,0,0,0-1.08,1.32,3.5,3.5,0,0,0-.42,1.64v4.45a.54.54,0,1,1-1.08,0V71.53a.54.54,0,1,1,1.08,0v1.58a4.14,4.14,0,0,1,1.25-1.7,3.13,3.13,0,0,1,2-.69A1.44,1.44,0,0,1,860.08,70.86Z" transform="translate(-6.46 -8.81)"/><path class="cls-3" d="M869.28,75.37a.53.53,0,0,1-.38.15h-6.8a4.16,4.16,0,0,0,.44,1.94,3.33,3.33,0,0,0,1.26,1.35,3.67,3.67,0,0,0,1.94.5,3.27,3.27,0,0,0,1.55-.36,3.19,3.19,0,0,0,1.1-.92.61.61,0,0,1,.38-.16.49.49,0,0,1,.47.47.53.53,0,0,1-.18.38,4.53,4.53,0,0,1-1.45,1.15,4,4,0,0,1-1.84.45,4.93,4.93,0,0,1-2.45-.59,4.2,4.2,0,0,1-1.66-1.67,5,5,0,0,1-.59-2.48,5.46,5.46,0,0,1,.58-2.58,4.22,4.22,0,0,1,1.56-1.69,4,4,0,0,1,2.07-.58,4.24,4.24,0,0,1,2,.5,4,4,0,0,1,1.54,1.48,4.45,4.45,0,0,1,.61,2.3A.49.49,0,0,1,869.28,75.37Zm-5.95-2.89a3.34,3.34,0,0,0-1.14,2.07h6.14v-.14a2.85,2.85,0,0,0-.54-1.41,2.93,2.93,0,0,0-1.12-.92,3.27,3.27,0,0,0-1.39-.31A3,3,0,0,0,863.33,72.48Z" transform="translate(-6.46 -8.81)"/><path class="cls-3" d="M872.71,80a.54.54,0,0,1-.93-.39V67.35a.54.54,0,1,1,1.08,0V79.59A.53.53,0,0,1,872.71,80Z" transform="translate(-6.46 -8.81)"/><path class="cls-3" d="M883.25,75.37a.53.53,0,0,1-.38.15h-6.8a4.16,4.16,0,0,0,.44,1.94,3.33,3.33,0,0,0,1.26,1.35,3.67,3.67,0,0,0,1.94.5,3.27,3.27,0,0,0,1.55-.36,3.19,3.19,0,0,0,1.1-.92.61.61,0,0,1,.38-.16.49.49,0,0,1,.47.47.53.53,0,0,1-.18.38,4.53,4.53,0,0,1-1.45,1.15,4,4,0,0,1-1.84.45,4.93,4.93,0,0,1-2.45-.59,4.2,4.2,0,0,1-1.66-1.67,5,5,0,0,1-.59-2.48,5.46,5.46,0,0,1,.58-2.58,4.22,4.22,0,0,1,1.56-1.69,4,4,0,0,1,2.07-.58,4.24,4.24,0,0,1,2,.5,4,4,0,0,1,1.54,1.48,4.45,4.45,0,0,1,.61,2.3A.49.49,0,0,1,883.25,75.37Zm-5.95-2.89a3.34,3.34,0,0,0-1.14,2.07h6.14v-.14a2.85,2.85,0,0,0-.54-1.41,2.93,2.93,0,0,0-1.12-.92,3.27,3.27,0,0,0-1.39-.31A3,3,0,0,0,877.3,72.48Z" transform="translate(-6.46 -8.81)"/><path class="cls-3" d="M893.57,71.1a.56.56,0,0,1,.15.4v8.1a.54.54,0,1,1-1.08,0V78.39a3.77,3.77,0,0,1-1.35,1.37,3.65,3.65,0,0,1-2,.56,3.87,3.87,0,0,1-2.17-.63A4.32,4.32,0,0,1,885.65,78a5.43,5.43,0,0,1-.55-2.47,5.31,5.31,0,0,1,.56-2.46,4.28,4.28,0,0,1,1.52-1.7,4,4,0,0,1,4.11-.09,3.44,3.44,0,0,1,1.35,1.37V71.49a.56.56,0,0,1,.15-.4.54.54,0,0,1,.77,0Zm-2.45,7.71a3.35,3.35,0,0,0,1.17-1.37,4.42,4.42,0,0,0,.42-2,4.28,4.28,0,0,0-.42-1.91,3.37,3.37,0,0,0-1.17-1.36,3,3,0,0,0-1.68-.49,3,3,0,0,0-1.68.49,3.31,3.31,0,0,0-1.17,1.34,4.3,4.3,0,0,0-.42,1.94,4.5,4.5,0,0,0,.41,2,3.28,3.28,0,0,0,1.16,1.37,3.14,3.14,0,0,0,3.38,0Z" transform="translate(-6.46 -8.81)"/><path class="cls-3" d="M895.88,78.28a.39.39,0,0,1,.23-.36.39.39,0,0,1,.29-.11.55.55,0,0,1,.4.18,3.37,3.37,0,0,0,2.83,1.4,2.75,2.75,0,0,0,1.5-.41,1.31,1.31,0,0,0,.64-1.18,1.25,1.25,0,0,0-.59-1.13,5.8,5.8,0,0,0-1.66-.65,7,7,0,0,1-2.34-1,2,2,0,0,1-.85-1.77,2.23,2.23,0,0,1,.41-1.32,2.72,2.72,0,0,1,1.13-.91,3.84,3.84,0,0,1,1.61-.32A4.37,4.37,0,0,1,901,71a3.29,3.29,0,0,1,1.34.95.43.43,0,0,1,.16.36.5.5,0,0,1-.18.38.48.48,0,0,1-.32.11.45.45,0,0,1-.32-.14,2.84,2.84,0,0,0-1-.74,3.23,3.23,0,0,0-1.28-.25,2.58,2.58,0,0,0-1.45.4,1.33,1.33,0,0,0-.6,1.19,1.29,1.29,0,0,0,.66,1.1,6.89,6.89,0,0,0,1.83.68,8.61,8.61,0,0,1,1.55.52,2.6,2.6,0,0,1,1,.81,2.28,2.28,0,0,1,.39,1.39,2.2,2.2,0,0,1-.94,1.86,3.79,3.79,0,0,1-2.32.69A4.22,4.22,0,0,1,896,78.67.8.8,0,0,1,895.88,78.28Z" transform="translate(-6.46 -8.81)"/><path class="cls-3" d="M912.6,75.37a.53.53,0,0,1-.38.15h-6.8a4.16,4.16,0,0,0,.44,1.94,3.33,3.33,0,0,0,1.26,1.35,3.67,3.67,0,0,0,1.94.5,3.27,3.27,0,0,0,1.55-.36,3.19,3.19,0,0,0,1.1-.92.61.61,0,0,1,.38-.16.49.49,0,0,1,.47.47.53.53,0,0,1-.18.38,4.53,4.53,0,0,1-1.45,1.15,4,4,0,0,1-1.84.45,4.93,4.93,0,0,1-2.45-.59A4.2,4.2,0,0,1,905,78.05a5,5,0,0,1-.59-2.48A5.46,5.46,0,0,1,905,73a4.22,4.22,0,0,1,1.56-1.69,4,4,0,0,1,2.07-.58,4.24,4.24,0,0,1,2,.5,4,4,0,0,1,1.54,1.48,4.45,4.45,0,0,1,.61,2.3A.49.49,0,0,1,912.6,75.37Zm-5.95-2.89a3.34,3.34,0,0,0-1.14,2.07h6.14v-.14a2.85,2.85,0,0,0-.54-1.41,2.93,2.93,0,0,0-1.12-.92,3.27,3.27,0,0,0-1.39-.31A3,3,0,0,0,906.65,72.48Z" transform="translate(-6.46 -8.81)"/><path class="cls-3" d="M914.67,79.94a.77.77,0,0,1-.16-.51v-.38a.73.73,0,0,1,.16-.5.6.6,0,0,1,.47-.18h.13a.6.6,0,0,1,.47.18.73.73,0,0,1,.16.5v.38a.77.77,0,0,1-.16.51.58.58,0,0,1-.47.19h-.13A.58.58,0,0,1,914.67,79.94Z" transform="translate(-6.46 -8.81)"/></g></svg>