<?xml version="1.0" encoding="utf-8"?>
<!-- Generator: Adobe Illustrator 21.1.0, SVG Export Plug-In . SVG Version: 6.00 Build 0)  -->
<svg version="1.1" xmlns="http://www.w3.org/2000/svg" xmlns:xlink="http://www.w3.org/1999/xlink" x="0px" y="0px"
	 viewBox="0 0 909.4 90.6" style="enable-background:new 0 0 909.4 90.6;" xml:space="preserve">
<style type="text/css">
	.st0{fill:none;stroke:#DAE3E5;stroke-width:2;stroke-miterlimit:10;}
	.st1{opacity:0.5;fill:#DAE3E5;stroke:#FFFFFF;stroke-width:3;stroke-miterlimit:10;enable-background:new    ;}
	.st2{fill:#FFFFFF;}
</style>
<g id="Layer_2">
</g>
<g id="Layer_1">
	<title>timeline</title>
	<line class="st0" x1="290" y1="13.4" x2="71.7" y2="13.4"/>
	<line class="st0" x1="589" y1="13.4" x2="316" y2="13.4"/>
	<line class="st0" x1="837.1" y1="13.4" x2="616.1" y2="13.4"/>
	<circle class="st1" cx="58.7" cy="13.4" r="11.9"/>
	<circle class="st1" cx="303.1" cy="13.4" r="11.9"/>
	<circle class="st1" cx="602.5" cy="13.4" r="11.9"/>
	<circle class="st1" cx="850.4" cy="13.4" r="11.9"/>
	<path class="st2" d="M15.3,49.6c-0.5,1-1.3,1.8-2.2,2.3c-0.9,0.6-2,0.9-3.1,0.8c-1.1,0-2.2-0.3-3.1-0.8c-0.9-0.6-1.7-1.4-2.2-2.3
		c-1-2.1-1-4.5,0-6.6c0.5-1,1.3-1.8,2.2-2.3c0.9-0.6,2-0.9,3.1-0.8c1.1,0,2.2,0.3,3.1,0.8c0.9,0.6,1.7,1.4,2.2,2.3
		C16.4,45.1,16.4,47.5,15.3,49.6z M13.7,43.9c-0.3-0.7-0.9-1.3-1.5-1.7c-0.7-0.4-1.4-0.6-2.2-0.6c-0.8,0-1.5,0.2-2.2,0.6
		c-0.6,0.4-1.2,1-1.5,1.7c-0.7,1.6-0.7,3.3,0,4.9c0.3,0.7,0.9,1.3,1.5,1.7c1.3,0.8,3,0.8,4.4,0c0.6-0.4,1.2-1,1.5-1.7
		C14.4,47.2,14.4,45.5,13.7,43.9L13.7,43.9z"/>
	<path class="st2" d="M24.8,43.4c0.6,0.3,0.9,0.7,0.9,1.2c0,0.2-0.1,0.4-0.2,0.5c-0.1,0.2-0.3,0.2-0.5,0.2c-0.1,0-0.3,0-0.4-0.1
		l-0.4-0.2c-0.1-0.1-0.2-0.2-0.3-0.2c-0.2-0.1-0.4-0.1-0.6-0.2c-0.2,0-0.5-0.1-0.7-0.1c-0.6,0-1.2,0.1-1.7,0.4
		c-0.5,0.3-0.9,0.7-1.1,1.2c-0.3,0.5-0.4,1.1-0.4,1.7c0,0.6,0.1,1.2,0.4,1.7c0.2,0.5,0.6,0.9,1.1,1.2c0.5,0.3,1.1,0.4,1.6,0.4
		c0.5,0,1-0.1,1.5-0.3l0.3-0.2c0.1-0.1,0.2-0.2,0.3-0.2c0.1,0,0.2-0.1,0.3-0.1c0.2,0,0.4,0.1,0.6,0.2c0.1,0.2,0.2,0.4,0.2,0.6
		c0,0.3-0.2,0.6-0.5,0.8c-0.4,0.3-0.8,0.5-1.3,0.6c-0.6,0.2-1.1,0.2-1.7,0.2c-0.8,0-1.7-0.2-2.4-0.6c-0.7-0.4-1.3-1-1.6-1.8
		c-0.4-0.8-0.6-1.6-0.6-2.5c0-0.9,0.2-1.7,0.6-2.5c0.4-0.7,1-1.3,1.7-1.8c0.7-0.4,1.6-0.7,2.4-0.6C23.2,43,24,43.1,24.8,43.4z"/>
	<path class="st2" d="M30.1,44.9v5.3c0,0.6,0.3,0.9,0.8,0.9c0.1,0,0.2,0,0.3-0.1c0.1,0,0.2-0.1,0.3-0.1c0.2,0,0.3,0.1,0.4,0.2
		c0.3,0.3,0.2,0.8-0.1,1.1c0,0-0.1,0.1-0.1,0.1c-0.3,0.2-0.6,0.3-1,0.3c-0.4,0-0.7,0-1.1-0.1c-0.4-0.1-0.7-0.3-0.9-0.6
		c-0.3-0.5-0.4-1-0.4-1.6v-5.4h-1c-0.4,0-0.8-0.3-0.8-0.7c0,0,0,0,0,0c0-0.2,0.1-0.4,0.2-0.6c0.2-0.1,0.4-0.2,0.6-0.2h1v-1.5
		c0-0.2,0.1-0.4,0.2-0.6c0.2-0.2,0.4-0.3,0.6-0.2c0.2,0,0.4,0.1,0.6,0.2c0.2,0.2,0.2,0.4,0.2,0.6v1.5h1.5c0.4,0,0.8,0.3,0.8,0.7
		c0,0,0,0,0,0c0,0.2-0.1,0.4-0.2,0.6c-0.2,0.1-0.4,0.2-0.6,0.2L30.1,44.9z"/>
	<path class="st2" d="M42.6,50.4c-0.4,0.7-1,1.3-1.7,1.8c-1.5,0.8-3.3,0.8-4.8,0c-0.7-0.4-1.3-1-1.7-1.8c-0.4-0.8-0.6-1.6-0.6-2.5
		c0-0.9,0.2-1.8,0.6-2.5c0.4-0.7,1-1.3,1.7-1.8c1.5-0.8,3.3-0.8,4.8,0c0.7,0.4,1.3,1,1.7,1.8c0.4,0.8,0.6,1.7,0.6,2.5
		C43.3,48.8,43,49.7,42.6,50.4z M41.1,46.2c-0.3-0.5-0.6-0.9-1.1-1.2c-0.9-0.6-2.1-0.6-3.1,0c-0.5,0.3-0.8,0.7-1.1,1.2
		c-0.3,0.5-0.4,1.1-0.4,1.7c0,0.6,0.1,1.2,0.4,1.7c0.3,0.5,0.6,0.9,1.1,1.2c0.9,0.6,2.1,0.6,3.1,0c0.5-0.3,0.8-0.7,1.1-1.2
		c0.3-0.5,0.4-1.1,0.4-1.7C41.5,47.3,41.4,46.7,41.1,46.2z"/>
	<path class="st2" d="M51.8,43.6c0.7,0.4,1.2,1,1.6,1.8c0.4,0.8,0.6,1.6,0.6,2.5c0,0.9-0.2,1.7-0.6,2.5c-0.3,0.7-0.9,1.3-1.6,1.8
		c-0.7,0.4-1.4,0.6-2.2,0.6c-0.6,0-1.2-0.1-1.8-0.4c-0.5-0.2-0.9-0.6-1.3-1v0.5c0,0.2-0.1,0.4-0.2,0.6c-0.3,0.3-0.9,0.3-1.2,0
		c-0.2-0.2-0.2-0.4-0.2-0.6V40.2c0-0.2,0.1-0.5,0.2-0.6c0.2-0.2,0.4-0.2,0.6-0.2c0.2,0,0.5,0.1,0.6,0.2c0.1,0.2,0.2,0.4,0.2,0.6v4.4
		c0.3-0.5,0.8-0.9,1.3-1.1c0.5-0.3,1.1-0.5,1.8-0.5C50.4,43,51.1,43.2,51.8,43.6z M50.9,50.8c0.4-0.3,0.8-0.7,1-1.2
		c0.3-0.5,0.4-1.1,0.4-1.7c0-0.6-0.1-1.1-0.3-1.7c-0.2-0.5-0.6-0.9-1-1.2c-0.4-0.3-1-0.4-1.5-0.4c-0.5,0-1.1,0.1-1.5,0.4
		c-0.4,0.3-0.8,0.7-1,1.2c-0.3,0.5-0.4,1.1-0.4,1.7c0,0.6,0.1,1.2,0.4,1.7c0.2,0.5,0.6,0.9,1,1.2c0.4,0.3,1,0.4,1.5,0.4
		C50,51.2,50.5,51.1,50.9,50.8z"/>
	<path class="st2" d="M63.9,48.1c-0.2,0.1-0.4,0.2-0.6,0.2H57c0,0.8,0.4,1.6,1,2.1c0.6,0.5,1.3,0.8,2.1,0.8c0.5,0,1-0.1,1.4-0.2
		c0.4-0.2,0.7-0.4,1-0.7c0.2-0.1,0.3-0.2,0.5-0.2c0.2,0,0.4,0.1,0.5,0.2c0.1,0.1,0.2,0.3,0.2,0.5c0,0.3-0.1,0.5-0.4,0.7
		c-0.4,0.4-0.9,0.7-1.4,0.9c-0.6,0.2-1.2,0.4-1.8,0.4c-0.9,0-1.8-0.2-2.6-0.6c-0.7-0.4-1.3-1-1.7-1.7c-0.4-0.8-0.6-1.6-0.6-2.5
		c0-0.9,0.2-1.8,0.6-2.7c0.4-0.7,0.9-1.3,1.6-1.8c1.3-0.8,3-0.8,4.3,0c0.7,0.4,1.2,0.9,1.6,1.6c0.4,0.7,0.6,1.5,0.6,2.3
		C64.2,47.7,64.1,47.9,63.9,48.1z M58,45.1c-0.5,0.4-0.9,1.1-1,1.8h5.3v-0.1c-0.1-0.6-0.3-1.1-0.8-1.5c-0.5-0.4-1.1-0.6-1.7-0.6
		C59.2,44.6,58.5,44.7,58,45.1L58,45.1z"/>
	<path class="st2" d="M71.7,43.2c0.2,0.1,0.3,0.4,0.3,0.6c0,0.2-0.1,0.5-0.2,0.7c-0.1,0.1-0.3,0.2-0.6,0.2c-0.2,0-0.3,0-0.5-0.1
		c-0.2-0.1-0.4-0.1-0.6-0.1c-0.4,0-0.8,0.1-1.1,0.4c-0.4,0.3-0.7,0.6-0.9,1.1c-0.2,0.5-0.3,1-0.3,1.5v4.3c0,0.2-0.1,0.4-0.2,0.6
		c-0.2,0.2-0.4,0.3-0.6,0.2c-0.2,0-0.4-0.1-0.6-0.2c-0.2-0.2-0.2-0.4-0.2-0.6V44c0-0.2,0.1-0.4,0.2-0.6c0.2-0.2,0.4-0.3,0.6-0.2
		c0.2,0,0.5,0.1,0.6,0.2c0.2,0.2,0.2,0.4,0.2,0.6V45c0.3-0.6,0.7-1.1,1.2-1.4c0.5-0.4,1.2-0.6,1.8-0.6C71.2,42.9,71.4,43,71.7,43.2z
		"/>
	<path class="st2" d="M86.3,51.3c0.2,0.2,0.2,0.4,0.2,0.6c0,0.2-0.1,0.4-0.2,0.6c-0.2,0.1-0.4,0.2-0.6,0.2h-6.4
		c-0.2,0-0.4-0.1-0.6-0.2c-0.2-0.2-0.2-0.4-0.2-0.6c0-0.2,0.1-0.4,0.2-0.6l4-4.4c0.9-0.8,1.5-1.9,1.7-3.2c0-1.2-0.9-2.2-2.1-2.3
		c0,0-0.1,0-0.1,0c-0.5,0-0.9,0.1-1.3,0.4c-0.4,0.3-0.8,0.6-1,1.1c-0.2,0.2-0.4,0.4-0.7,0.4c-0.2,0-0.4-0.1-0.6-0.2
		c-0.2-0.1-0.3-0.3-0.3-0.5c0-0.1,0-0.3,0.1-0.4c0.1-0.2,0.2-0.3,0.4-0.5c0.4-0.5,0.9-1,1.5-1.3c0.6-0.3,1.2-0.5,1.8-0.5
		c0.7,0,1.4,0.2,2.1,0.5c0.6,0.3,1,0.8,1.4,1.3c0.3,0.6,0.5,1.3,0.5,1.9c0,1.4-0.7,2.9-2.2,4.5l-2.7,3h4.5
		C85.9,51.1,86.2,51.1,86.3,51.3z"/>
	<path class="st2" d="M90.1,52c-0.7-0.6-1.3-1.4-1.6-2.3c-0.7-2.2-0.7-4.5,0-6.7c0.3-0.9,0.8-1.7,1.6-2.3c1.5-1.1,3.5-1.1,5,0
		c0.7,0.6,1.3,1.4,1.6,2.3c0.7,2.2,0.7,4.5,0,6.7c-0.3,0.9-0.8,1.7-1.6,2.3C93.6,53.1,91.6,53.1,90.1,52L90.1,52z M94.7,49.8
		c0.5-1.1,0.8-2.3,0.7-3.5c0.1-1.2-0.2-2.4-0.7-3.5c-0.6-1.1-2-1.6-3.1-1c-0.4,0.2-0.8,0.6-1,1c-0.5,1.1-0.8,2.3-0.7,3.5
		c-0.1,1.2,0.2,2.4,0.7,3.5c0.6,1.1,2,1.6,3.1,1C94.1,50.6,94.5,50.3,94.7,49.8z"/>
	<path class="st2" d="M102.7,40.3c0.2,0.2,0.2,0.4,0.2,0.6v10.9c0,0.2-0.1,0.5-0.3,0.6c-0.2,0.2-0.4,0.3-0.7,0.2
		c-0.2,0-0.5-0.1-0.7-0.2c-0.2-0.2-0.3-0.4-0.2-0.6v-9.4l-1.6,1c-0.1,0.1-0.3,0.1-0.4,0.1c-0.2,0-0.5-0.1-0.6-0.3
		c-0.2-0.2-0.2-0.4-0.2-0.6c0-0.1,0-0.3,0.1-0.4c0.1-0.1,0.2-0.2,0.3-0.3l2.8-1.7c0.2-0.1,0.4-0.1,0.6-0.1
		C102.3,40.1,102.5,40.1,102.7,40.3z"/>
	<path class="st2" d="M111.5,45.1c0.6,0.4,1.1,0.9,1.4,1.5c0.4,0.6,0.5,1.3,0.5,2c0,1.4-0.7,2.8-1.9,3.5c-0.6,0.4-1.3,0.6-2.1,0.6
		c-0.8,0-1.6-0.2-2.2-0.7c-0.6-0.4-1.1-1-1.4-1.8c-0.3-0.7-0.5-1.5-0.5-2.3c0-1,0.2-2.1,0.5-3c0.4-1.1,1-2.2,1.8-3.1
		c0.8-0.9,1.9-1.6,3.2-2c0.1,0,0.2-0.1,0.3,0c0.2,0,0.4,0.1,0.6,0.2c0.2,0.2,0.3,0.4,0.2,0.6c0,0.2-0.1,0.4-0.2,0.5
		c-0.1,0.2-0.3,0.3-0.5,0.3c-0.9,0.3-1.7,0.9-2.3,1.5c-0.7,0.7-1.2,1.5-1.6,2.5c0.6-0.6,1.5-1,2.4-1C110.4,44.5,111,44.7,111.5,45.1
		z M111.1,50.5c0.5-0.5,0.7-1.1,0.7-1.8c0-0.7-0.2-1.3-0.7-1.8c-0.4-0.5-1-0.8-1.7-0.8c-0.7,0-1.3,0.3-1.8,0.8
		c-0.5,0.5-0.7,1.2-0.7,1.8c0,0.7,0.2,1.3,0.7,1.8C108.6,51.4,110.1,51.4,111.1,50.5C111.1,50.5,111.1,50.5,111.1,50.5L111.1,50.5z"
		/>
	<path class="st2" d="M6.5,59.2c0.5,0.3,0.9,0.7,1.2,1.3c0.3,0.6,0.4,1.2,0.4,1.8c0,0.6-0.1,1.3-0.4,1.9c-0.6,1.1-1.7,1.8-3,1.8H1.1
		v4.8c0,0.3-0.2,0.5-0.5,0.5c-0.3,0-0.5-0.2-0.5-0.5c0,0,0,0,0,0V59.3c0-0.3,0.2-0.5,0.5-0.5c0,0,0,0,0,0h4.3
		C5.4,58.7,6,58.9,6.5,59.2z M6.5,64.2C7,63.7,7.2,63,7.2,62.3c0-0.7-0.2-1.3-0.6-1.8c-0.4-0.5-1.1-0.7-1.7-0.7H1.1V65h3.7
		C5.5,65,6.1,64.7,6.5,64.2z"/>
	<path class="st2" d="M15.4,62.1c0.2,0.1,0.3,0.2,0.3,0.4c0,0.1,0,0.3-0.1,0.4C15.5,63,15.3,63,15.2,63c-0.1,0-0.2,0-0.4-0.1
		c-0.2-0.1-0.3-0.1-0.5-0.1c-0.5,0-1,0.2-1.3,0.5c-0.5,0.4-0.8,0.8-1.1,1.3c-0.3,0.5-0.4,1.1-0.4,1.7v4.4c0,0.3-0.2,0.5-0.5,0.5
		c-0.3,0-0.5-0.2-0.5-0.5c0,0,0,0,0,0v-8.1c0-0.3,0.2-0.5,0.5-0.5c0.3,0,0.5,0.2,0.5,0.5c0,0,0,0,0,0v1.6c0.3-0.7,0.7-1.3,1.2-1.7
		c0.6-0.5,1.3-0.7,2-0.7C15,61.9,15.2,62,15.4,62.1z"/>
	<path class="st2" d="M24.9,69.2c-0.4,0.7-0.9,1.3-1.6,1.7c-1.4,0.8-3.2,0.8-4.6,0c-0.7-0.4-1.3-1-1.6-1.7c-0.8-1.5-0.8-3.4,0-4.9
		c0.4-0.7,0.9-1.3,1.6-1.7c1.4-0.8,3.2-0.8,4.6,0c0.7,0.4,1.3,1,1.6,1.7C25.7,65.8,25.7,67.7,24.9,69.2z M24,64.8
		c-0.3-0.6-0.7-1-1.2-1.4c-0.5-0.3-1.1-0.5-1.8-0.5c-0.6,0-1.2,0.2-1.8,0.5c-0.5,0.3-1,0.8-1.2,1.4c-0.6,1.2-0.6,2.7,0,3.9
		c0.3,0.6,0.7,1,1.2,1.4c0.5,0.3,1.1,0.5,1.8,0.5c1.3,0,2.4-0.7,3-1.8C24.5,67.5,24.5,66,24,64.8L24,64.8z"/>
	<path class="st2" d="M26.1,74.7c-0.1-0.1-0.1-0.2-0.1-0.4v-0.1c0-0.1,0-0.2,0.1-0.3c0.1-0.1,0.2-0.2,0.3-0.2
		c0.4-0.1,0.8-0.3,1.1-0.6c0.3-0.3,0.5-0.8,0.4-1.2v-9.3c0-0.3,0.2-0.5,0.5-0.5s0.5,0.2,0.5,0.5v9.5c0,1-0.5,1.9-1.4,2.4
		c-0.4,0.2-0.8,0.3-1.2,0.3C26.3,74.9,26.2,74.9,26.1,74.7z M27.9,60.6c-0.1-0.1-0.2-0.3-0.2-0.5v-0.2c0-0.2,0.1-0.4,0.2-0.5
		c0.2-0.1,0.4-0.2,0.6-0.2c0.5,0,0.7,0.2,0.7,0.7v0.2c0,0.2-0.1,0.4-0.2,0.5c-0.2,0.1-0.4,0.2-0.5,0.2
		C28.3,60.8,28.1,60.7,27.9,60.6z"/>
	<path class="st2" d="M39.7,66.6c-0.1,0.1-0.2,0.2-0.4,0.2h-6.8c0,0.7,0.1,1.3,0.4,1.9c0.3,0.6,0.7,1,1.3,1.3
		c0.6,0.3,1.3,0.5,1.9,0.5c0.5,0,1.1-0.1,1.5-0.4c0.4-0.2,0.8-0.5,1.1-0.9c0.1-0.1,0.2-0.2,0.4-0.2c0.3,0,0.5,0.2,0.5,0.5
		c0,0.1-0.1,0.3-0.2,0.4c-0.4,0.5-0.9,0.9-1.5,1.2c-0.6,0.3-1.2,0.5-1.8,0.4c-0.9,0-1.7-0.2-2.5-0.6c-0.7-0.4-1.3-1-1.7-1.7
		c-0.4-0.8-0.6-1.6-0.6-2.5c0-0.9,0.2-1.8,0.6-2.6c0.3-0.7,0.9-1.3,1.5-1.7c0.6-0.4,1.3-0.6,2.1-0.6c0.7,0,1.4,0.2,2,0.5
		c0.6,0.3,1.2,0.9,1.5,1.5c0.4,0.7,0.6,1.5,0.6,2.3C39.8,66.3,39.7,66.5,39.7,66.6z M33.7,63.7c-0.6,0.5-1,1.3-1.2,2.1h6.1v-0.1
		c0-0.5-0.2-1-0.5-1.4c-0.3-0.4-0.7-0.7-1.1-0.9c-0.4-0.2-0.9-0.3-1.4-0.3C34.9,63,34.2,63.2,33.7,63.7z"/>
	<path class="st2" d="M47.6,62.1c0.4,0.1,0.8,0.3,1.2,0.5c0.3,0.1,0.4,0.4,0.4,0.7c0,0.1,0,0.3-0.1,0.4c-0.1,0.1-0.2,0.2-0.3,0.2
		c-0.1,0-0.2,0-0.3-0.1c-0.1-0.1-0.2-0.1-0.3-0.2c-0.1-0.1-0.3-0.3-0.5-0.3C47.5,63.1,47.3,63,47,63c-0.3-0.1-0.6-0.1-0.9-0.1
		c-0.6,0-1.3,0.2-1.8,0.5c-0.5,0.3-1,0.8-1.3,1.4c-0.3,0.6-0.5,1.3-0.4,1.9c0,0.7,0.1,1.3,0.5,1.9c0.6,1.1,1.8,1.9,3,1.8
		c0.3,0,0.7,0,1-0.1c0.3-0.1,0.5-0.2,0.8-0.3c0.2-0.1,0.3-0.2,0.4-0.3c0.1-0.1,0.2-0.1,0.2-0.2c0.1,0,0.1-0.1,0.2-0.1
		c0.1,0,0.3,0,0.3,0.1c0.1,0.1,0.1,0.2,0.1,0.3c0,0.3-0.2,0.5-0.4,0.7c-0.4,0.3-0.8,0.5-1.2,0.6c-0.5,0.2-1.1,0.3-1.7,0.2
		c-0.8,0-1.6-0.2-2.3-0.6c-0.7-0.4-1.2-1-1.6-1.7c-0.4-0.8-0.6-1.6-0.6-2.5c0-0.8,0.2-1.7,0.6-2.4c0.8-1.5,2.3-2.4,4-2.4
		C46.5,61.9,47.1,62,47.6,62.1z"/>
	<path class="st2" d="M53.1,63.2v6c0,0.3,0,0.7,0.2,0.9c0.2,0.2,0.4,0.3,0.7,0.2c0.1,0,0.2,0,0.3,0c0.1,0,0.2,0,0.2,0
		c0.1,0,0.2,0,0.3,0.1c0.1,0.1,0.1,0.2,0.1,0.3c0,0.2-0.1,0.3-0.3,0.4c-0.2,0.1-0.4,0.2-0.7,0.2c-0.3,0-0.6,0-0.9-0.1
		c-0.3-0.1-0.6-0.3-0.7-0.5c-0.3-0.4-0.4-0.9-0.3-1.4v-6.1h-1.3c-0.1,0-0.3,0-0.4-0.1c-0.2-0.2-0.2-0.5,0-0.7c0,0,0,0,0,0
		c0.1-0.1,0.2-0.1,0.4-0.1H52v-2c0-0.3,0.2-0.5,0.5-0.5s0.5,0.2,0.5,0.5v2h1.8c0.1,0,0.3,0.1,0.3,0.2c0.1,0.1,0.1,0.2,0.2,0.4
		c0,0.1,0,0.3-0.1,0.3c-0.1,0.1-0.2,0.1-0.4,0.1L53.1,63.2z"/>
	<path class="st2" d="M63.3,71.2c-0.2,0.2-0.5,0.2-0.8,0c-0.1-0.1-0.2-0.3-0.2-0.4V58.5c0-0.3,0.2-0.5,0.5-0.5s0.5,0.2,0.5,0.5v12.2
		C63.5,70.9,63.5,71.1,63.3,71.2z"/>
	<path class="st2" d="M74.3,62.3c0.1,0.1,0.2,0.3,0.2,0.4v8.1c0,0.3-0.2,0.5-0.5,0.5s-0.5-0.2-0.5-0.5v-1.2c-0.3,0.6-0.8,1-1.3,1.4
		c-0.6,0.4-1.3,0.6-2,0.6c-0.8,0-1.5-0.2-2.2-0.6c-0.6-0.4-1.1-1-1.5-1.7c-0.4-0.8-0.6-1.6-0.6-2.5c0-0.9,0.2-1.7,0.6-2.5
		c0.3-0.7,0.9-1.3,1.5-1.7c1.2-0.8,2.8-0.8,4.1-0.1c0.6,0.3,1,0.8,1.3,1.4v-1.1c0-0.1,0-0.3,0.2-0.4C73.7,62.1,74.1,62.1,74.3,62.3
		C74.3,62.3,74.3,62.3,74.3,62.3L74.3,62.3z M71.9,70c0.5-0.3,0.9-0.8,1.2-1.4c0.3-0.6,0.4-1.3,0.4-2c0-0.7-0.1-1.3-0.4-1.9
		c-0.3-0.6-0.7-1-1.2-1.4c-0.5-0.3-1.1-0.5-1.7-0.5c-0.6,0-1.2,0.2-1.7,0.5c-0.5,0.3-0.9,0.8-1.2,1.3c-0.3,0.6-0.4,1.3-0.4,1.9
		c0,0.7,0.1,1.4,0.4,2c0.3,0.6,0.7,1,1.2,1.4c0.5,0.3,1.1,0.5,1.7,0.5C70.8,70.5,71.4,70.3,71.9,70z"/>
	<path class="st2" d="M84.4,62.3c0.1,0.1,0.2,0.2,0.2,0.4v5.1c0.1,1-0.3,2-1,2.7c-0.8,0.7-1.7,1-2.7,0.9c-1,0.1-2-0.3-2.7-0.9
		c-0.7-0.7-1.1-1.7-1-2.7v-5.1c0-0.3,0.2-0.5,0.5-0.5s0.5,0.2,0.5,0.5v5.1c-0.2,1.3,0.8,2.5,2.1,2.6c0.2,0,0.4,0,0.6,0
		c0.7,0.1,1.5-0.2,2-0.7c0.5-0.5,0.8-1.3,0.7-2v-5c0-0.3,0.3-0.5,0.6-0.5C84.1,62.2,84.3,62.2,84.4,62.3L84.4,62.3z"/>
	<path class="st2" d="M94.1,62.9c0.6,0.7,0.8,1.7,0.8,2.6v5.3c0,0.1-0.1,0.3-0.2,0.4c-0.1,0.1-0.2,0.2-0.4,0.2
		c-0.3,0-0.5-0.2-0.5-0.5c0,0,0,0,0,0v-5.2c0-0.7-0.2-1.4-0.6-1.9c-0.5-0.5-1.1-0.8-1.8-0.7c-1,0-2,0.5-2.6,1.3
		c-0.3,0.4-0.4,0.8-0.4,1.3v5.2c0,0.3-0.2,0.5-0.5,0.5s-0.5-0.2-0.5-0.5v-8c0-0.3,0.2-0.5,0.5-0.5s0.5,0.2,0.5,0.5v1
		c0.4-0.5,0.8-1,1.4-1.3c0.6-0.3,1.2-0.5,1.9-0.5C92.6,61.8,93.5,62.2,94.1,62.9z"/>
	<path class="st2" d="M103.3,62.1c0.4,0.1,0.8,0.3,1.2,0.5c0.3,0.1,0.4,0.4,0.4,0.7c0,0.1,0,0.3-0.1,0.4c-0.1,0.1-0.2,0.2-0.3,0.2
		c-0.1,0-0.2,0-0.3-0.1c-0.1-0.1-0.2-0.1-0.3-0.2c-0.1-0.1-0.3-0.3-0.4-0.3c-0.2-0.1-0.5-0.2-0.7-0.2c-0.3-0.1-0.6-0.1-0.9-0.1
		c-0.6,0-1.3,0.2-1.8,0.5c-0.5,0.3-1,0.8-1.3,1.4c-0.3,0.6-0.5,1.2-0.5,1.9c0,0.7,0.1,1.3,0.4,1.9c0.6,1.2,1.8,1.9,3.1,1.8
		c0.3,0,0.7,0,1-0.1c0.3-0.1,0.5-0.2,0.8-0.3c0.2-0.1,0.3-0.2,0.4-0.3c0.1-0.1,0.2-0.1,0.2-0.2c0.1,0,0.1-0.1,0.2-0.1
		c0.1,0,0.3,0,0.3,0.1c0.1,0.1,0.1,0.2,0.1,0.3c0,0.3-0.2,0.5-0.4,0.7c-0.4,0.3-0.8,0.5-1.2,0.6c-0.5,0.2-1.1,0.3-1.7,0.2
		c-0.8,0-1.6-0.2-2.3-0.6c-0.7-0.4-1.2-1-1.6-1.7c-0.4-0.8-0.6-1.6-0.6-2.5c0-0.8,0.2-1.7,0.6-2.4c0.8-1.5,2.3-2.4,4-2.4
		C102.3,61.9,102.8,62,103.3,62.1z"/>
	<path class="st2" d="M113.6,63.1c0.6,0.8,0.8,1.7,0.8,2.6v5.1c0,0.3-0.2,0.5-0.5,0.5s-0.5-0.2-0.5-0.5v-5.1c0-0.7-0.2-1.3-0.6-1.9
		c-0.4-0.5-1.1-0.8-1.8-0.7c-1,0-1.9,0.5-2.5,1.3c-0.3,0.4-0.4,0.8-0.4,1.3v5.1c0,0.3-0.2,0.5-0.5,0.5s-0.5-0.2-0.5-0.5V58.5
		c0-0.3,0.2-0.5,0.5-0.5s0.5,0.2,0.5,0.5v5.3c0.3-0.5,0.8-1,1.3-1.3c0.5-0.3,1.1-0.5,1.8-0.5C112.1,62,113,62.4,113.6,63.1z"/>
	<path class="st2" d="M116.9,71.1c-0.1-0.1-0.2-0.3-0.2-0.5v-0.4c0-0.2,0-0.4,0.2-0.5c0.1-0.1,0.3-0.2,0.5-0.2h0.2
		c0.2,0,0.3,0.1,0.5,0.2c0.1,0.1,0.2,0.3,0.2,0.5v0.4c0,0.2,0,0.4-0.2,0.5c-0.1,0.1-0.3,0.2-0.5,0.2h-0.1
		C117.2,71.3,117,71.3,116.9,71.1z"/>
	<path class="st2" d="M238.1,70.8c0,0.1-0.1,0.3-0.2,0.4c-0.1,0.1-0.2,0.1-0.4,0.1c-0.1,0-0.2,0-0.3-0.1c-0.1-0.1-0.2-0.2-0.2-0.3
		l-1.3-3.3h-5.9l-1.3,3.3c-0.1,0.2-0.3,0.4-0.5,0.4c-0.1,0-0.3,0-0.4-0.1c-0.1-0.1-0.1-0.2-0.1-0.3v-0.1c0-0.1,0-0.1,0-0.2l4.8-11.6
		c0.1-0.2,0.3-0.4,0.5-0.4c0.1,0,0.2,0,0.3,0.1c0.1,0.1,0.2,0.2,0.2,0.3l4.7,11.6C238.1,70.7,238.1,70.7,238.1,70.8z M230.3,66.6h5
		l-2.5-6.2L230.3,66.6z"/>
	<path class="st2" d="M241.1,71.2c-0.2,0.2-0.5,0.2-0.8,0c-0.1-0.1-0.2-0.3-0.2-0.4V58.5c0-0.3,0.2-0.5,0.5-0.5
		c0.3,0,0.5,0.2,0.5,0.5v12.2C241.3,70.9,241.2,71.1,241.1,71.2z"/>
	<path class="st2" d="M250.8,62.7c0.7,0.4,1.2,1,1.5,1.7c0.7,1.5,0.7,3.3,0,4.8c-0.3,0.7-0.9,1.3-1.5,1.7c-0.6,0.4-1.4,0.6-2.1,0.6
		c-0.7,0-1.3-0.2-1.9-0.5c-0.6-0.3-1.1-0.8-1.4-1.3v4.8c0,0.3-0.2,0.5-0.5,0.5c-0.3,0-0.5-0.2-0.5-0.5V62.7c0-0.1,0-0.3,0.1-0.4
		c0.2-0.2,0.6-0.2,0.8,0c0,0,0,0,0,0c0.1,0.1,0.2,0.3,0.1,0.4v1.2c0.3-0.6,0.8-1,1.4-1.3c0.6-0.3,1.3-0.5,1.9-0.5
		C249.4,62,250.1,62.2,250.8,62.7z M250.2,70c0.5-0.3,0.9-0.8,1.2-1.3c0.3-0.6,0.4-1.2,0.4-1.9c0-0.7-0.1-1.3-0.4-1.9
		c-0.3-0.5-0.7-1-1.2-1.3c-0.5-0.3-1.1-0.5-1.7-0.5c-0.6,0-1.2,0.2-1.7,0.5c-0.5,0.3-0.9,0.8-1.2,1.3c-0.3,0.6-0.4,1.2-0.4,1.9
		c0,0.7,0.1,1.3,0.4,1.9c0.3,0.5,0.7,1,1.2,1.3c0.5,0.3,1.1,0.5,1.7,0.5C249.1,70.5,249.7,70.3,250.2,70L250.2,70z"/>
	<path class="st2" d="M261.7,63.1c0.6,0.8,0.8,1.7,0.8,2.6v5.1c0,0.3-0.2,0.5-0.5,0.5c-0.3,0-0.5-0.2-0.5-0.5c0,0,0,0,0,0v-5.1
		c0-0.7-0.2-1.3-0.6-1.9c-0.4-0.5-1.1-0.8-1.8-0.7c-1,0-2,0.5-2.5,1.3c-0.3,0.4-0.4,0.8-0.4,1.3v5.1c0,0.3-0.2,0.5-0.5,0.5
		c-0.3,0-0.5-0.2-0.5-0.5c0,0,0,0,0,0V58.5c0-0.3,0.2-0.5,0.5-0.5c0.3,0,0.5,0.2,0.5,0.5c0,0,0,0,0,0v5.3c0.4-0.5,0.8-1,1.4-1.3
		c0.5-0.3,1.1-0.5,1.8-0.5C260.2,62,261.1,62.4,261.7,63.1z"/>
	<path class="st2" d="M273.1,62.3c0.1,0.1,0.2,0.3,0.1,0.4v8.1c0,0.3-0.2,0.5-0.5,0.5c-0.3,0-0.5-0.2-0.5-0.5c0,0,0,0,0,0v-1.2
		c-0.3,0.6-0.8,1-1.4,1.4c-0.6,0.4-1.3,0.6-2,0.6c-0.8,0-1.5-0.2-2.2-0.6c-0.6-0.4-1.1-1-1.5-1.7c-0.4-0.8-0.6-1.6-0.5-2.5
		c0-0.9,0.2-1.7,0.6-2.5c0.3-0.7,0.9-1.3,1.5-1.7c1.2-0.8,2.8-0.8,4.1-0.1c0.6,0.3,1,0.8,1.4,1.4v-1.1c0-0.1,0-0.3,0.1-0.4
		C272.6,62.1,272.9,62.1,273.1,62.3C273.1,62.3,273.1,62.3,273.1,62.3L273.1,62.3z M270.7,70c0.5-0.3,0.9-0.8,1.2-1.4
		c0.3-0.6,0.4-1.3,0.4-2c0-0.7-0.1-1.3-0.4-1.9c-0.3-0.6-0.7-1-1.2-1.4c-0.5-0.3-1.1-0.5-1.7-0.5c-0.6,0-1.2,0.2-1.7,0.5
		c-0.5,0.3-0.9,0.8-1.2,1.3c-0.3,0.6-0.4,1.3-0.4,1.9c0,0.7,0.1,1.4,0.4,2c0.3,0.6,0.7,1,1.2,1.4c0.5,0.3,1.1,0.5,1.7,0.5
		C269.6,70.5,270.2,70.3,270.7,70L270.7,70z"/>
	<path class="st2" d="M282.9,63.2v6c0,0.3,0,0.7,0.2,0.9c0.2,0.2,0.4,0.3,0.7,0.2c0.1,0,0.2,0,0.3,0c0.1,0,0.2,0,0.2,0
		c0.1,0,0.2,0,0.3,0.1c0.1,0.1,0.1,0.2,0.1,0.3c0,0.2-0.1,0.3-0.3,0.4c-0.2,0.1-0.4,0.2-0.7,0.2c-0.3,0-0.6,0-0.9-0.1
		c-0.3-0.1-0.6-0.3-0.7-0.5c-0.3-0.4-0.4-0.9-0.4-1.4v-6.1h-1.3c-0.1,0-0.3,0-0.4-0.1c-0.2-0.2-0.2-0.5,0-0.7c0,0,0,0,0,0
		c0.1-0.1,0.2-0.1,0.4-0.1h1.3v-2c0-0.3,0.2-0.5,0.5-0.5c0.3,0,0.5,0.2,0.5,0.5c0,0,0,0,0,0v2h1.8c0.1,0,0.3,0.1,0.4,0.2
		c0.1,0.1,0.1,0.2,0.1,0.4c0,0.1,0,0.3-0.1,0.3c-0.1,0.1-0.2,0.1-0.4,0.1L282.9,63.2z"/>
	<path class="st2" d="M294.7,66.6c-0.1,0.1-0.2,0.2-0.4,0.2h-6.8c0,0.7,0.1,1.3,0.4,1.9c0.3,0.6,0.7,1,1.3,1.3
		c0.6,0.3,1.3,0.5,1.9,0.5c0.5,0,1.1-0.1,1.5-0.4c0.4-0.2,0.8-0.5,1.1-0.9c0.1-0.1,0.2-0.2,0.4-0.2c0.3,0,0.5,0.2,0.5,0.5
		c0,0.1-0.1,0.3-0.2,0.4c-0.4,0.5-0.9,0.9-1.5,1.2c-0.6,0.3-1.2,0.5-1.9,0.4c-0.9,0-1.7-0.2-2.5-0.6c-0.7-0.4-1.3-1-1.7-1.7
		c-0.4-0.8-0.6-1.6-0.6-2.5c0-0.9,0.2-1.8,0.6-2.6c0.3-0.7,0.8-1.3,1.5-1.7c0.6-0.4,1.3-0.6,2.1-0.6c0.7,0,1.4,0.2,2,0.5
		c0.6,0.3,1.2,0.9,1.5,1.5c0.4,0.7,0.6,1.5,0.6,2.3C294.8,66.3,294.7,66.5,294.7,66.6z M288.7,63.7c-0.6,0.5-1.1,1.3-1.2,2.1h6.1
		v-0.1c0-0.5-0.2-1-0.5-1.4c-0.3-0.4-0.7-0.7-1.1-0.9c-0.4-0.2-0.9-0.3-1.4-0.3C289.9,63,289.3,63.2,288.7,63.7z"/>
	<path class="st2" d="M296.4,69.5c0-0.2,0.1-0.3,0.2-0.4c0.1-0.1,0.2-0.1,0.3-0.1c0.2,0,0.3,0.1,0.4,0.2c0.7,0.9,1.7,1.4,2.8,1.4
		c0.5,0,1-0.1,1.5-0.4c0.4-0.2,0.7-0.7,0.6-1.2c0-0.5-0.2-0.9-0.6-1.1c-0.5-0.3-1.1-0.5-1.7-0.7c-0.8-0.2-1.6-0.5-2.3-1
		c-0.6-0.4-0.9-1.1-0.9-1.8c0-0.5,0.1-0.9,0.4-1.3c0.3-0.4,0.7-0.7,1.1-0.9c0.5-0.2,1.1-0.3,1.6-0.3c0.5,0,1.1,0.1,1.5,0.3
		c0.5,0.2,1,0.5,1.3,0.9c0.1,0.1,0.2,0.2,0.2,0.4c0,0.1-0.1,0.3-0.2,0.4c-0.1,0.1-0.2,0.1-0.3,0.1c-0.1,0-0.2-0.1-0.3-0.1
		c-0.3-0.3-0.6-0.6-1-0.7c-0.4-0.2-0.8-0.3-1.3-0.2c-0.5,0-1,0.1-1.5,0.4c-0.4,0.3-0.6,0.7-0.6,1.2c0,0.5,0.3,0.9,0.7,1.1
		c0.6,0.3,1.2,0.5,1.8,0.7c0.5,0.1,1.1,0.3,1.5,0.5c0.4,0.2,0.7,0.5,1,0.8c0.3,0.4,0.4,0.9,0.4,1.4c0,0.7-0.3,1.4-0.9,1.9
		c-0.7,0.5-1.5,0.7-2.3,0.7c-1.4,0.1-2.7-0.6-3.5-1.6C296.5,69.7,296.4,69.6,296.4,69.5z"/>
	<path class="st2" d="M307.3,63.2v6c0,0.3,0,0.7,0.2,0.9c0.2,0.2,0.4,0.3,0.7,0.2c0.1,0,0.2,0,0.3,0c0.1,0,0.2,0,0.2,0
		c0.1,0,0.2,0,0.3,0.1c0.1,0.1,0.1,0.2,0.1,0.3c0,0.2-0.1,0.3-0.3,0.4c-0.2,0.1-0.4,0.2-0.7,0.2c-0.3,0-0.6,0-0.9-0.1
		c-0.3-0.1-0.6-0.3-0.7-0.5c-0.3-0.4-0.4-0.9-0.4-1.4v-6.1h-1.3c-0.1,0-0.3,0-0.4-0.1c-0.2-0.2-0.2-0.5,0-0.7c0,0,0,0,0,0
		c0.1-0.1,0.2-0.1,0.4-0.1h1.3v-2c0-0.3,0.2-0.5,0.5-0.5c0.3,0,0.5,0.2,0.5,0.5c0,0,0,0,0,0v2h1.8c0.1,0,0.3,0.1,0.4,0.2
		c0.1,0.1,0.1,0.2,0.1,0.4c0,0.1,0,0.3-0.1,0.3c-0.1,0.1-0.2,0.1-0.4,0.1L307.3,63.2z"/>
	<path class="st2" d="M311.5,60.6c-0.1-0.1-0.2-0.3-0.2-0.5v-0.2c0-0.2,0.1-0.4,0.2-0.5c0.2-0.1,0.4-0.2,0.6-0.2
		c0.5,0,0.7,0.2,0.7,0.7v0.2c0,0.2-0.1,0.4-0.2,0.5c-0.2,0.1-0.4,0.2-0.5,0.2C311.9,60.8,311.7,60.7,311.5,60.6z M312.5,71.2
		c-0.2,0.2-0.5,0.2-0.8,0c-0.1-0.1-0.2-0.3-0.2-0.4v-8.3c0-0.3,0.2-0.5,0.5-0.5c0.3,0,0.5,0.2,0.5,0.5c0,0,0,0,0,0v8.3
		C312.7,70.9,312.6,71.1,312.5,71.2z"/>
	<path class="st2" d="M322.3,62.9c0.6,0.7,0.8,1.7,0.8,2.6v5.3c0,0.1-0.1,0.3-0.2,0.4c-0.1,0.1-0.2,0.2-0.4,0.2
		c-0.3,0-0.5-0.2-0.5-0.5c0,0,0,0,0,0v-5.2c0-0.7-0.2-1.4-0.6-1.9c-0.5-0.5-1.1-0.8-1.8-0.7c-1,0-2,0.5-2.6,1.3
		c-0.3,0.4-0.4,0.8-0.4,1.3v5.2c0,0.3-0.2,0.5-0.5,0.5c-0.3,0-0.5-0.2-0.5-0.5c0,0,0,0,0,0v-8c0-0.3,0.2-0.5,0.5-0.5
		c0.3,0,0.5,0.2,0.5,0.5c0,0,0,0,0,0v1c0.4-0.5,0.8-1,1.4-1.3c0.6-0.3,1.2-0.5,1.9-0.5C320.7,61.8,321.6,62.2,322.3,62.9z"/>
	<path class="st2" d="M334,62.3c0.1,0.1,0.2,0.3,0.1,0.4v7.8c0,0.8-0.2,1.7-0.6,2.4c-0.4,0.7-0.9,1.2-1.6,1.5
		c-0.7,0.4-1.5,0.5-2.3,0.5c-0.4,0-0.9-0.1-1.3-0.2c-0.4-0.1-0.8-0.2-1.2-0.4c-0.3-0.2-0.5-0.3-0.6-0.5c-0.1-0.1-0.1-0.2-0.1-0.3
		c0-0.1,0.1-0.2,0.2-0.3c0.1,0,0.1-0.1,0.2-0.1c0.1,0,0.3,0.1,0.4,0.1l0.4,0.2c0.7,0.3,1.4,0.4,2.1,0.4c0.9,0.1,1.8-0.3,2.5-0.9
		c0.6-0.7,1-1.5,0.9-2.5v-1.1c-0.3,0.6-0.8,1.2-1.4,1.5c-0.6,0.4-1.3,0.5-2,0.6c-0.8,0-1.6-0.2-2.2-0.6c-0.7-0.4-1.2-1-1.6-1.7
		c-0.8-1.5-0.8-3.4,0-4.9c0.4-0.7,0.9-1.3,1.6-1.7c0.7-0.4,1.4-0.6,2.2-0.6c0.7,0,1.5,0.2,2.1,0.6c0.6,0.3,1.1,0.8,1.4,1.4v-1.2
		c0-0.1,0-0.3,0.1-0.4c0.1-0.1,0.2-0.2,0.4-0.2C333.8,62.1,333.9,62.2,334,62.3z M331.5,70c0.5-0.3,0.9-0.8,1.2-1.3
		c0.3-0.6,0.5-1.3,0.4-2c0-0.7-0.1-1.4-0.4-2c-0.3-0.5-0.7-1-1.2-1.3c-0.5-0.3-1.1-0.5-1.8-0.5c-0.6,0-1.2,0.2-1.8,0.5
		c-0.5,0.3-0.9,0.8-1.2,1.4c-0.6,1.2-0.6,2.6,0,3.9c0.3,0.6,0.7,1,1.2,1.4c0.5,0.3,1.1,0.5,1.8,0.5C330.4,70.5,331,70.3,331.5,70z"
		/>
	<path class="st2" d="M353.2,62.1c0.1,0.1,0.2,0.3,0.1,0.4c0,0,0,0.1,0,0.2l-2.8,8.3c-0.1,0.1-0.1,0.2-0.2,0.3
		c-0.1,0.1-0.2,0.1-0.3,0.1c-0.1,0-0.2,0-0.3-0.1c-0.1-0.1-0.2-0.2-0.2-0.2l-2.4-5.5L345,71c0,0.1-0.1,0.2-0.2,0.2
		c-0.1,0.1-0.2,0.1-0.3,0.1c-0.1,0-0.2,0-0.3-0.1c-0.1-0.1-0.2-0.2-0.2-0.3l-2.8-8.3c-0.1-0.2-0.1-0.5,0.1-0.6
		c0.1-0.1,0.3-0.2,0.4-0.2c0.1,0,0.2,0,0.3,0.1c0.1,0.1,0.2,0.2,0.2,0.3l2.4,7.2l2.1-5.4c0.1-0.2,0.3-0.4,0.5-0.3
		c0.2,0,0.4,0.1,0.5,0.3l2.2,5.3l2.4-7.2c0.1-0.2,0.3-0.4,0.5-0.4C353,61.9,353.1,62,353.2,62.1z"/>
	<path class="st2" d="M355.4,60.6c-0.1-0.1-0.2-0.3-0.2-0.5v-0.2c0-0.2,0.1-0.4,0.2-0.5c0.2-0.1,0.4-0.2,0.6-0.2
		c0.5,0,0.7,0.2,0.7,0.7v0.2c0,0.2-0.1,0.4-0.2,0.5c-0.2,0.1-0.4,0.2-0.5,0.2C355.8,60.8,355.6,60.7,355.4,60.6z M356.4,71.2
		c-0.2,0.2-0.5,0.2-0.8,0c-0.1-0.1-0.2-0.3-0.2-0.4v-8.3c0-0.3,0.2-0.5,0.5-0.5c0.3,0,0.5,0.2,0.5,0.5c0,0,0,0,0,0v8.3
		C356.5,70.9,356.5,71.1,356.4,71.2z"/>
	<path class="st2" d="M361.1,63.2v6c0,0.3,0,0.7,0.2,0.9c0.2,0.2,0.4,0.3,0.7,0.2c0.1,0,0.2,0,0.3,0c0.1,0,0.2,0,0.2,0
		c0.1,0,0.2,0,0.3,0.1c0.1,0.1,0.1,0.2,0.1,0.3c0,0.2-0.1,0.3-0.3,0.4c-0.2,0.1-0.4,0.2-0.7,0.2c-0.3,0-0.6,0-0.9-0.1
		c-0.3-0.1-0.6-0.3-0.7-0.5c-0.3-0.4-0.4-0.9-0.4-1.4v-6.1h-1.3c-0.1,0-0.3,0-0.4-0.1c-0.2-0.2-0.2-0.5,0-0.7c0,0,0,0,0,0
		c0.1-0.1,0.2-0.1,0.4-0.1h1.3v-2c0-0.3,0.2-0.5,0.5-0.5c0.3,0,0.5,0.2,0.5,0.5c0,0,0,0,0,0v2h1.8c0.1,0,0.3,0.1,0.4,0.2
		c0.1,0.1,0.1,0.2,0.1,0.4c0,0.1,0,0.3-0.1,0.3c-0.1,0.1-0.2,0.1-0.4,0.1L361.1,63.2z"/>
	<path class="st2" d="M372,63.1c0.6,0.8,0.8,1.7,0.8,2.6v5.1c0,0.3-0.2,0.5-0.5,0.5c-0.3,0-0.5-0.2-0.5-0.5c0,0,0,0,0,0v-5.1
		c0-0.7-0.2-1.3-0.6-1.9c-0.4-0.5-1.1-0.8-1.8-0.7c-1,0-1.9,0.5-2.5,1.3c-0.3,0.4-0.4,0.8-0.4,1.3v5.1c0,0.3-0.2,0.5-0.5,0.5
		c-0.3,0-0.5-0.2-0.5-0.5c0,0,0,0,0,0V58.5c0-0.3,0.2-0.5,0.5-0.5c0.3,0,0.5,0.2,0.5,0.5c0,0,0,0,0,0v5.3c0.3-0.5,0.8-1,1.4-1.3
		c0.5-0.3,1.1-0.5,1.8-0.5C370.6,62,371.5,62.4,372,63.1z"/>
	<path class="st2" d="M242.8,78.4c0.7,0.4,1.2,1,1.5,1.7c0.7,1.5,0.7,3.3,0,4.8c-0.3,0.7-0.9,1.3-1.5,1.7c-0.6,0.4-1.4,0.6-2.1,0.6
		c-0.7,0-1.3-0.2-1.9-0.5c-0.6-0.3-1.1-0.8-1.4-1.3v4.8c0,0.3-0.2,0.5-0.5,0.5c-0.3,0-0.5-0.2-0.5-0.5V78.4c0-0.1,0-0.3,0.1-0.4
		c0.2-0.2,0.6-0.2,0.8,0c0,0,0,0,0,0c0.1,0.1,0.2,0.3,0.1,0.4v1.2c0.3-0.6,0.8-1,1.4-1.3c0.6-0.3,1.3-0.5,1.9-0.5
		C241.4,77.7,242.2,78,242.8,78.4z M242.2,85.7c0.5-0.3,0.9-0.8,1.2-1.3c0.3-0.6,0.4-1.2,0.4-1.9c0-0.7-0.1-1.3-0.4-1.9
		c-0.3-0.5-0.7-1-1.2-1.3c-0.5-0.3-1.1-0.5-1.7-0.5c-0.6,0-1.2,0.2-1.7,0.5c-0.5,0.3-0.9,0.8-1.2,1.3c-0.3,0.6-0.4,1.2-0.4,1.9
		c0,0.7,0.1,1.3,0.4,1.9c0.3,0.5,0.7,1,1.2,1.3c0.5,0.3,1.1,0.5,1.7,0.5C241.2,86.2,241.8,86,242.2,85.7L242.2,85.7z"/>
	<path class="st2" d="M252.1,77.8c0.2,0.1,0.3,0.2,0.3,0.4c0,0.1,0,0.3-0.1,0.4c-0.1,0.1-0.2,0.2-0.3,0.2c-0.1,0-0.2,0-0.4-0.1
		c-0.2-0.1-0.3-0.1-0.5-0.1c-0.5,0-1,0.2-1.3,0.5c-0.5,0.4-0.8,0.8-1.1,1.3c-0.3,0.5-0.4,1.1-0.4,1.6v4.5c0,0.3-0.2,0.5-0.5,0.5
		c-0.3,0-0.5-0.2-0.5-0.5v-8.1c0-0.3,0.2-0.5,0.5-0.5c0.3,0,0.5,0.2,0.5,0.5V80c0.3-0.7,0.7-1.3,1.2-1.7c0.6-0.5,1.3-0.7,2-0.7
		C251.7,77.6,251.9,77.7,252.1,77.8z"/>
	<path class="st2" d="M261.5,84.9c-0.4,0.7-0.9,1.3-1.6,1.7c-1.4,0.8-3.2,0.8-4.6,0c-0.7-0.4-1.3-1-1.6-1.7c-0.8-1.5-0.8-3.4,0-4.9
		c0.4-0.7,0.9-1.3,1.6-1.7c1.4-0.8,3.2-0.8,4.6,0c0.7,0.4,1.3,1,1.6,1.7C262.3,81.5,262.3,83.3,261.5,84.9z M260.6,80.5
		c-0.3-0.6-0.7-1-1.2-1.4c-0.5-0.3-1.1-0.5-1.8-0.5c-0.6,0-1.2,0.2-1.8,0.5c-0.5,0.3-1,0.8-1.3,1.4c-0.6,1.2-0.6,2.7,0,3.9
		c0.3,0.6,0.7,1,1.2,1.4c0.5,0.3,1.1,0.5,1.8,0.5c1.3,0,2.4-0.7,3-1.8C261.1,83.1,261.1,81.7,260.6,80.5L260.6,80.5z"/>
	<path class="st2" d="M262.7,90.5c-0.1-0.1-0.1-0.2-0.1-0.4V90c0-0.1,0-0.2,0.1-0.3c0.1-0.1,0.2-0.2,0.3-0.2
		c0.4-0.1,0.8-0.3,1.1-0.6c0.3-0.3,0.5-0.8,0.4-1.2v-9.3c0-0.3,0.2-0.5,0.5-0.5c0.3,0,0.5,0.2,0.5,0.5c0,0,0,0,0,0v9.4
		c0,1-0.5,1.9-1.4,2.4c-0.4,0.2-0.8,0.3-1.2,0.3C263,90.6,262.8,90.5,262.7,90.5z M264.5,76.3c-0.1-0.1-0.2-0.3-0.2-0.5v-0.2
		c0-0.2,0.1-0.4,0.2-0.5c0.2-0.1,0.4-0.2,0.6-0.2c0.5,0,0.7,0.2,0.7,0.7v0.2c0,0.2-0.1,0.4-0.2,0.5c-0.2,0.1-0.4,0.2-0.5,0.2
		C264.9,76.5,264.7,76.4,264.5,76.3z"/>
	<path class="st2" d="M276.3,82.3c-0.1,0.1-0.2,0.2-0.4,0.2h-6.8c0,0.7,0.1,1.3,0.4,1.9c0.3,0.6,0.7,1,1.3,1.3
		c0.6,0.3,1.3,0.5,1.9,0.5c0.5,0,1.1-0.1,1.5-0.4c0.4-0.2,0.8-0.5,1.1-0.9c0.1-0.1,0.2-0.2,0.4-0.2c0.3,0,0.5,0.2,0.5,0.5
		c0,0.1-0.1,0.3-0.2,0.4c-0.4,0.5-0.9,0.9-1.5,1.2c-0.6,0.3-1.2,0.5-1.9,0.4c-0.9,0-1.7-0.2-2.5-0.6c-0.7-0.4-1.3-1-1.7-1.7
		c-0.4-0.8-0.6-1.6-0.6-2.5c0-0.9,0.2-1.8,0.6-2.6c0.4-0.7,0.9-1.3,1.6-1.7c0.6-0.4,1.3-0.6,2.1-0.6c0.7,0,1.4,0.2,2,0.5
		c0.6,0.3,1.2,0.9,1.5,1.5c0.4,0.7,0.6,1.5,0.6,2.3C276.5,82,276.4,82.2,276.3,82.3z M270.4,79.4c-0.6,0.5-1,1.3-1.1,2.1h6.1v-0.1
		c0-0.5-0.2-1-0.5-1.4c-0.3-0.4-0.7-0.7-1.1-0.9c-0.4-0.2-0.9-0.3-1.4-0.3C271.6,78.7,270.9,78.9,270.4,79.4z"/>
	<path class="st2" d="M284.3,77.8c0.4,0.1,0.8,0.3,1.2,0.5c0.3,0.1,0.4,0.4,0.4,0.7c0,0.1,0,0.3-0.1,0.4c-0.1,0.1-0.2,0.2-0.3,0.2
		c-0.1,0-0.2,0-0.3-0.1c-0.1-0.1-0.2-0.1-0.3-0.2c-0.1-0.1-0.3-0.3-0.5-0.3c-0.2-0.1-0.5-0.2-0.7-0.2c-0.3-0.1-0.6-0.1-0.9-0.1
		c-0.6,0-1.3,0.2-1.8,0.5c-0.5,0.3-1,0.8-1.3,1.4c-0.3,0.6-0.5,1.2-0.5,1.9c0,0.7,0.1,1.3,0.5,1.9c0.6,1.2,1.8,1.9,3.1,1.9
		c0.3,0,0.7,0,1-0.1c0.3-0.1,0.5-0.2,0.8-0.3c0.2-0.1,0.3-0.2,0.4-0.3c0.1-0.1,0.2-0.1,0.2-0.2c0.1,0,0.1-0.1,0.2-0.1
		c0.1,0,0.3,0,0.3,0.1c0.1,0.1,0.1,0.2,0.1,0.3c0,0.3-0.2,0.5-0.4,0.7c-0.4,0.3-0.8,0.5-1.2,0.6c-0.5,0.2-1.1,0.3-1.7,0.2
		c-0.8,0-1.6-0.2-2.3-0.6c-0.7-0.4-1.2-1-1.6-1.7c-0.4-0.8-0.6-1.6-0.6-2.5c0-0.8,0.2-1.7,0.6-2.4c0.8-1.5,2.3-2.4,4-2.4
		C283.2,77.6,283.7,77.7,284.3,77.8z"/>
	<path class="st2" d="M289.8,78.9v6c0,0.3,0,0.7,0.2,0.9c0.2,0.2,0.4,0.3,0.7,0.2c0.1,0,0.2,0,0.3,0c0.1,0,0.2,0,0.2,0
		c0.1,0,0.2,0,0.3,0.1c0.1,0.1,0.1,0.2,0.1,0.3c0,0.2-0.1,0.3-0.3,0.4c-0.2,0.1-0.4,0.2-0.7,0.2c-0.3,0-0.6,0-0.9-0.1
		c-0.3-0.1-0.6-0.3-0.7-0.5c-0.3-0.4-0.4-0.9-0.4-1.4v-6.1h-1.3c-0.1,0-0.3,0-0.4-0.1c-0.2-0.2-0.2-0.5,0-0.7c0,0,0,0,0,0
		c0.1-0.1,0.2-0.1,0.4-0.1h1.3v-2c0-0.3,0.2-0.5,0.5-0.5c0.3,0,0.5,0.2,0.5,0.5c0,0,0,0,0,0v2h1.8c0.1,0,0.3,0.1,0.4,0.2
		c0.1,0.1,0.1,0.2,0.1,0.4c0,0.1,0,0.3-0.1,0.3c-0.1,0.1-0.2,0.1-0.4,0.1L289.8,78.9z"/>
	<path class="st2" d="M305.5,78.4c0.7,0.4,1.2,1,1.5,1.7c0.7,1.5,0.7,3.3,0,4.8c-0.3,0.7-0.9,1.3-1.5,1.7c-0.6,0.4-1.4,0.6-2.1,0.6
		c-0.7,0-1.3-0.2-1.9-0.5c-0.6-0.3-1.1-0.8-1.4-1.3v4.8c0,0.3-0.2,0.5-0.5,0.5c-0.3,0-0.5-0.2-0.5-0.5c0,0,0,0,0,0V78.4
		c0-0.1,0-0.3,0.1-0.4c0.2-0.2,0.6-0.2,0.8,0c0,0,0,0,0,0c0.1,0.1,0.2,0.3,0.1,0.4v1.2c0.3-0.6,0.8-1,1.4-1.3
		c0.6-0.3,1.3-0.5,1.9-0.5C304.1,77.7,304.9,77.9,305.5,78.4z M305,85.7c0.5-0.3,0.9-0.8,1.2-1.3c0.3-0.6,0.4-1.2,0.4-1.9
		c0-0.7-0.1-1.3-0.4-1.9c-0.3-0.5-0.7-1-1.2-1.3c-0.5-0.3-1.1-0.5-1.7-0.5c-0.6,0-1.2,0.1-1.8,0.4c-0.5,0.3-0.9,0.8-1.2,1.3
		c-0.3,0.6-0.4,1.2-0.4,1.9c0,0.7,0.1,1.3,0.4,1.9c0.3,0.6,0.7,1,1.2,1.4c0.5,0.3,1.1,0.5,1.7,0.5C303.9,86.2,304.4,86,305,85.7
		L305,85.7z"/>
	<path class="st2" d="M317.7,78c0.1,0.1,0.2,0.3,0.1,0.4v8.1c0,0.3-0.2,0.5-0.5,0.5c-0.3,0-0.5-0.2-0.5-0.5c0,0,0,0,0,0v-1.2
		c-0.3,0.6-0.8,1-1.4,1.4c-0.6,0.4-1.3,0.6-2,0.6c-0.8,0-1.5-0.2-2.2-0.6c-0.6-0.4-1.2-1-1.5-1.7c-0.4-0.8-0.6-1.6-0.5-2.5
		c0-0.9,0.2-1.7,0.6-2.5c0.3-0.7,0.9-1.3,1.5-1.7c1.2-0.8,2.8-0.8,4.1-0.1c0.6,0.3,1,0.8,1.4,1.4v-1.1c0-0.1,0-0.3,0.1-0.4
		C317.1,77.8,317.4,77.8,317.7,78C317.6,78,317.6,78,317.7,78L317.7,78z M315.2,85.7c0.5-0.3,0.9-0.8,1.2-1.4c0.3-0.6,0.4-1.3,0.4-2
		c0-0.7-0.1-1.3-0.4-1.9c-0.3-0.6-0.7-1-1.2-1.4c-0.5-0.3-1.1-0.5-1.7-0.5c-0.6,0-1.2,0.2-1.7,0.5c-0.5,0.3-0.9,0.8-1.2,1.3
		c-0.3,0.6-0.4,1.3-0.4,1.9c0,0.7,0.1,1.4,0.4,2c0.3,0.6,0.7,1,1.2,1.4c0.5,0.3,1.1,0.5,1.7,0.5C314.1,86.2,314.7,86,315.2,85.7z"/>
	<path class="st2" d="M325.6,77.8c0.2,0.1,0.3,0.2,0.3,0.4c0,0.1,0,0.3-0.1,0.4c-0.1,0.1-0.2,0.2-0.3,0.2c-0.1,0-0.2,0-0.4-0.1
		c-0.2-0.1-0.3-0.1-0.5-0.1c-0.5,0-1,0.2-1.3,0.5c-0.5,0.4-0.8,0.8-1.1,1.3c-0.3,0.5-0.4,1.1-0.4,1.6v4.5c0,0.3-0.2,0.5-0.5,0.5
		c-0.3,0-0.5-0.2-0.5-0.5c0,0,0,0,0,0v-8.1c0-0.3,0.2-0.5,0.5-0.5c0.3,0,0.5,0.2,0.5,0.5c0,0,0,0,0,0V80c0.3-0.7,0.7-1.3,1.2-1.7
		c0.6-0.5,1.3-0.7,2-0.7C325.2,77.6,325.4,77.7,325.6,77.8z"/>
	<path class="st2" d="M329.4,78.9v6c0,0.3,0,0.7,0.2,0.9c0.2,0.2,0.4,0.3,0.7,0.2c0.1,0,0.2,0,0.3,0c0.1,0,0.2,0,0.2,0
		c0.1,0,0.2,0,0.3,0.1c0.1,0.1,0.1,0.2,0.1,0.3c0,0.2-0.1,0.3-0.3,0.4c-0.2,0.1-0.4,0.2-0.7,0.2c-0.3,0-0.6,0-0.9-0.1
		c-0.3-0.1-0.6-0.3-0.7-0.5c-0.3-0.4-0.4-0.9-0.4-1.4v-6.1H327c-0.1,0-0.3,0-0.4-0.1c-0.2-0.2-0.2-0.5,0-0.7c0,0,0,0,0,0
		c0.1-0.1,0.2-0.1,0.4-0.1h1.3v-2c0-0.3,0.2-0.5,0.5-0.5c0.3,0,0.5,0.2,0.5,0.5c0,0,0,0,0,0v2h1.8c0.1,0,0.3,0.1,0.4,0.2
		c0.1,0.1,0.1,0.2,0.1,0.4c0,0.1,0,0.3-0.1,0.3c-0.1,0.1-0.2,0.1-0.4,0.1L329.4,78.9z"/>
	<path class="st2" d="M340.5,78.6c0.6,0.7,0.8,1.7,0.8,2.6v5.3c0,0.1-0.1,0.3-0.2,0.4c-0.1,0.1-0.2,0.2-0.4,0.2
		c-0.3,0-0.5-0.2-0.5-0.5c0,0,0,0,0,0v-5.2c0-0.7-0.2-1.4-0.6-1.9c-0.5-0.5-1.1-0.8-1.8-0.7c-1,0-2,0.5-2.6,1.3
		c-0.3,0.4-0.4,0.8-0.4,1.3v5.2c0,0.3-0.2,0.5-0.5,0.5c-0.3,0-0.5-0.2-0.5-0.5c0,0,0,0,0,0v-8.1c0-0.3,0.2-0.5,0.5-0.5
		c0.3,0,0.5,0.2,0.5,0.5c0,0,0,0,0,0v1c0.4-0.5,0.8-1,1.4-1.3c0.6-0.3,1.2-0.5,1.9-0.5C339,77.5,339.9,77.9,340.5,78.6z"/>
	<path class="st2" d="M351.7,82.3c-0.1,0.1-0.2,0.2-0.4,0.2h-6.8c0,0.7,0.1,1.3,0.4,1.9c0.3,0.6,0.7,1,1.3,1.3
		c0.6,0.3,1.3,0.5,1.9,0.5c0.5,0,1.1-0.1,1.5-0.4c0.4-0.2,0.8-0.5,1.1-0.9c0.1-0.1,0.2-0.2,0.4-0.2c0.3,0,0.5,0.2,0.5,0.5
		c0,0.1-0.1,0.3-0.2,0.4c-0.4,0.5-0.9,0.9-1.5,1.2c-0.6,0.3-1.2,0.5-1.9,0.4c-0.9,0-1.7-0.2-2.5-0.6c-0.7-0.4-1.3-1-1.7-1.7
		c-0.4-0.8-0.6-1.6-0.6-2.5c0-0.9,0.2-1.8,0.6-2.6c0.3-0.7,0.9-1.3,1.5-1.7c0.6-0.4,1.3-0.6,2.1-0.6c0.7,0,1.4,0.2,2,0.5
		c0.6,0.3,1.2,0.9,1.5,1.5c0.4,0.7,0.6,1.5,0.6,2.3C351.9,82,351.8,82.2,351.7,82.3z M345.8,79.4c-0.6,0.5-1,1.3-1.1,2.1h6.1v-0.1
		c0-0.5-0.2-1-0.5-1.4c-0.3-0.4-0.7-0.7-1.1-0.9c-0.4-0.2-0.9-0.3-1.4-0.3C347,78.7,346.3,78.9,345.8,79.4z"/>
	<path class="st2" d="M359.1,77.8c0.2,0.1,0.3,0.2,0.3,0.4c0,0.1,0,0.3-0.1,0.4c-0.1,0.1-0.2,0.2-0.3,0.2c-0.1,0-0.2,0-0.4-0.1
		c-0.2-0.1-0.3-0.1-0.5-0.1c-0.5,0-1,0.2-1.3,0.5c-0.5,0.4-0.8,0.8-1.1,1.3c-0.3,0.5-0.4,1.1-0.4,1.6v4.5c0,0.3-0.2,0.5-0.5,0.5
		c-0.3,0-0.5-0.2-0.5-0.5c0,0,0,0,0,0v-8.1c0-0.3,0.2-0.5,0.5-0.5c0.3,0,0.5,0.2,0.5,0.5c0,0,0,0,0,0V80c0.3-0.7,0.7-1.3,1.2-1.7
		c0.6-0.5,1.3-0.7,2-0.7C358.7,77.6,358.9,77.7,359.1,77.8z"/>
	<path class="st2" d="M360.4,85.2c0-0.2,0.1-0.3,0.2-0.4c0.1-0.1,0.2-0.1,0.3-0.1c0.2,0,0.3,0.1,0.4,0.2c0.7,0.9,1.7,1.4,2.8,1.4
		c0.5,0,1-0.1,1.5-0.4c0.4-0.2,0.7-0.7,0.6-1.2c0-0.5-0.2-0.9-0.6-1.1c-0.5-0.3-1.1-0.5-1.7-0.7c-0.8-0.2-1.6-0.5-2.3-1
		c-0.6-0.4-0.9-1.1-0.9-1.8c0-0.5,0.1-0.9,0.4-1.3c0.3-0.4,0.7-0.7,1.1-0.9c0.5-0.2,1.1-0.3,1.6-0.3c0.5,0,1.1,0.1,1.6,0.3
		c0.5,0.2,1,0.5,1.3,0.9c0.1,0.1,0.2,0.2,0.2,0.4c0,0.1-0.1,0.3-0.2,0.4c-0.1,0.1-0.2,0.1-0.3,0.1c-0.1,0-0.2-0.1-0.3-0.1
		c-0.3-0.3-0.6-0.6-1-0.7c-0.4-0.2-0.8-0.3-1.3-0.2c-0.5,0-1,0.1-1.5,0.4c-0.4,0.3-0.6,0.7-0.6,1.2c0,0.5,0.3,0.9,0.7,1.1
		c0.6,0.3,1.2,0.5,1.8,0.7c0.5,0.1,1.1,0.3,1.5,0.5c0.4,0.2,0.7,0.5,1,0.8c0.3,0.4,0.4,0.9,0.4,1.4c0,0.7-0.3,1.4-0.9,1.9
		c-0.7,0.5-1.5,0.7-2.3,0.7c-1.4,0-2.7-0.6-3.5-1.7C360.4,85.5,360.4,85.3,360.4,85.2z"/>
	<path class="st2" d="M369.1,86.8c-0.1-0.1-0.2-0.3-0.2-0.5V86c0-0.2,0-0.4,0.2-0.5c0.1-0.1,0.3-0.2,0.5-0.2h0.1
		c0.2,0,0.3,0.1,0.5,0.2c0.1,0.1,0.2,0.3,0.2,0.5v0.4c0,0.2,0,0.4-0.2,0.5c-0.1,0.1-0.3,0.2-0.5,0.2h-0.1
		C369.4,87,369.3,87,369.1,86.8z"/>
	<path class="st2" d="M573.4,51.8c0,0.5-0.4,0.8-0.8,0.8c0,0,0,0,0,0c-0.2,0-0.3-0.1-0.5-0.2c-0.1-0.1-0.3-0.3-0.3-0.4l-1.1-2.7
		h-5.6l-1.1,2.7c-0.1,0.3-0.4,0.6-0.8,0.6c-0.2,0-0.4-0.1-0.6-0.2c-0.1-0.1-0.2-0.3-0.2-0.5c0-0.1,0-0.2,0-0.3l4.6-11.1
		c0.1-0.2,0.2-0.3,0.3-0.4c0.1-0.1,0.3-0.1,0.5-0.1c0.2,0,0.3,0,0.5,0.1c0.1,0.1,0.3,0.2,0.3,0.4l4.6,11
		C573.3,51.6,573.3,51.7,573.4,51.8z M565.8,47.8h4.2l-2.1-5L565.8,47.8z"/>
	<path class="st2" d="M581.9,43.6c0.7,0.4,1.2,1,1.6,1.7c0.4,0.8,0.6,1.6,0.6,2.5c0,0.9-0.2,1.7-0.6,2.5c-0.3,0.7-0.9,1.3-1.6,1.8
		c-0.7,0.4-1.4,0.6-2.2,0.6c-0.6,0-1.2-0.1-1.8-0.4c-0.5-0.2-0.9-0.6-1.3-1v4c0,0.2-0.1,0.4-0.2,0.6c-0.3,0.3-0.9,0.3-1.2,0
		c-0.2-0.2-0.2-0.4-0.2-0.6V44c0-0.2,0.1-0.5,0.2-0.6c0.2-0.2,0.4-0.3,0.6-0.2c0.2,0,0.5,0.1,0.6,0.2c0.2,0.2,0.2,0.4,0.2,0.6v0.5
		c0.3-0.5,0.8-0.8,1.3-1.1c0.5-0.3,1.1-0.5,1.8-0.5C580.5,43,581.2,43.2,581.9,43.6z M581,50.8c0.4-0.3,0.8-0.7,1-1.2
		c0.5-1.1,0.5-2.3,0-3.4c-0.2-0.5-0.6-0.9-1-1.2c-0.4-0.3-1-0.4-1.5-0.4c-0.5,0-1.1,0.1-1.5,0.4c-0.4,0.3-0.8,0.7-1,1.2
		c-0.5,1.1-0.5,2.3,0,3.4c0.2,0.5,0.6,0.9,1,1.2c0.5,0.3,1,0.4,1.5,0.4C580.1,51.2,580.6,51,581,50.8z"/>
	<path class="st2" d="M591.5,43.2c0.2,0.1,0.3,0.4,0.3,0.6c0,0.2-0.1,0.5-0.2,0.7c-0.1,0.1-0.3,0.2-0.5,0.2c-0.2,0-0.3,0-0.5-0.1
		c-0.2-0.1-0.4-0.1-0.6-0.1c-0.4,0-0.8,0.1-1.1,0.4c-0.4,0.3-0.7,0.6-0.9,1.1c-0.2,0.5-0.3,1-0.3,1.5v4.3c0,0.2-0.1,0.4-0.2,0.6
		c-0.2,0.2-0.4,0.3-0.6,0.2c-0.2,0-0.4-0.1-0.6-0.2c-0.2-0.2-0.2-0.4-0.2-0.6V44c0-0.2,0.1-0.4,0.2-0.6c0.2-0.2,0.4-0.3,0.6-0.2
		c0.2,0,0.5,0.1,0.6,0.2c0.2,0.2,0.2,0.4,0.2,0.6V45c0.3-0.6,0.7-1.1,1.2-1.4c0.5-0.4,1.2-0.6,1.8-0.6C591,42.9,591.3,43,591.5,43.2
		z"/>
	<path class="st2" d="M593.4,41.7c-0.2-0.2-0.2-0.4-0.2-0.6v-0.3c0-0.2,0.1-0.5,0.2-0.6c0.2-0.1,0.5-0.2,0.8-0.2
		c0.3,0,0.5,0,0.7,0.2c0.2,0.2,0.2,0.4,0.2,0.6v0.3c0,0.2-0.1,0.5-0.2,0.6c-0.2,0.1-0.5,0.2-0.7,0.2
		C593.9,41.9,593.7,41.9,593.4,41.7z M594.8,52.4c-0.2,0.2-0.4,0.3-0.6,0.2c-0.2,0-0.4-0.1-0.6-0.2c-0.2-0.2-0.2-0.4-0.2-0.6V44
		c0-0.2,0.1-0.4,0.2-0.6c0.2-0.2,0.4-0.3,0.6-0.2c0.2,0,0.5,0.1,0.6,0.2c0.2,0.2,0.2,0.4,0.2,0.6v7.8C595.1,52,595,52.2,594.8,52.4
		L594.8,52.4z"/>
	<path class="st2" d="M599.1,52.4c-0.2,0.2-0.4,0.3-0.6,0.2c-0.2,0-0.4-0.1-0.6-0.2c-0.2-0.2-0.2-0.4-0.2-0.6V40.2
		c0-0.5,0.4-0.9,0.9-0.9c0.2,0,0.4,0.1,0.6,0.2c0.2,0.2,0.2,0.4,0.2,0.6v11.6C599.4,52,599.3,52.2,599.1,52.4z"/>
	<path class="st2" d="M614.8,51.3c0.2,0.2,0.2,0.4,0.2,0.6c0,0.2-0.1,0.4-0.2,0.6c-0.2,0.1-0.4,0.2-0.6,0.2h-6.4
		c-0.2,0-0.4-0.1-0.6-0.2c-0.2-0.2-0.2-0.4-0.2-0.6c0-0.2,0.1-0.4,0.2-0.6l4-4.4c0.9-0.8,1.5-1.9,1.7-3.2c0-1.2-0.9-2.2-2.1-2.3
		c0,0-0.1,0-0.1,0c-0.5,0-0.9,0.1-1.3,0.4c-0.4,0.3-0.8,0.6-1,1.1c-0.2,0.2-0.4,0.4-0.7,0.4c-0.2,0-0.4-0.1-0.6-0.2
		c-0.2-0.1-0.3-0.3-0.3-0.5c0-0.1,0-0.3,0.1-0.4c0.1-0.2,0.2-0.3,0.4-0.5c0.4-0.5,0.9-1,1.5-1.3c0.6-0.3,1.2-0.5,1.8-0.5
		c0.7,0,1.4,0.2,2.1,0.5c0.6,0.3,1,0.8,1.4,1.3c0.3,0.6,0.5,1.3,0.5,1.9c0,1.4-0.7,2.9-2.2,4.5l-2.7,3h4.5
		C614.4,51.1,614.6,51.1,614.8,51.3z"/>
	<path class="st2" d="M618.6,52c-0.7-0.6-1.3-1.4-1.6-2.3c-0.7-2.2-0.7-4.5,0-6.7c0.3-0.9,0.8-1.7,1.6-2.3c1.5-1.1,3.5-1.1,5,0
		c0.7,0.6,1.3,1.4,1.6,2.3c0.7,2.2,0.7,4.5,0,6.7c-0.3,0.9-0.8,1.7-1.6,2.3C622.1,53.1,620.1,53.1,618.6,52z M623.2,49.8
		c0.5-1.1,0.8-2.3,0.7-3.5c0.1-1.2-0.2-2.4-0.7-3.5c-0.6-1.1-2-1.6-3.1-1c-0.4,0.2-0.8,0.6-1,1c-0.5,1.1-0.8,2.3-0.7,3.5
		c-0.1,1.2,0.2,2.4,0.7,3.5c0.6,1.1,2,1.6,3.1,1C622.6,50.6,623,50.3,623.2,49.8z"/>
	<path class="st2" d="M631.2,40.3c0.2,0.2,0.2,0.4,0.2,0.6v10.9c0,0.2-0.1,0.5-0.3,0.6c-0.2,0.2-0.4,0.3-0.7,0.2
		c-0.2,0-0.5-0.1-0.7-0.2c-0.2-0.2-0.3-0.4-0.2-0.6v-9.4l-1.6,1c-0.1,0.1-0.3,0.1-0.5,0.1c-0.2,0-0.5-0.1-0.6-0.3
		c-0.2-0.2-0.2-0.4-0.2-0.6c0-0.1,0-0.3,0.1-0.4c0.1-0.1,0.2-0.2,0.3-0.3l2.8-1.7c0.2-0.1,0.4-0.1,0.6-0.1
		C630.8,40.1,631,40.1,631.2,40.3z"/>
	<path class="st2" d="M640.1,40.5c0.6,0.4,1.1,1,1.5,1.7c0.3,0.7,0.5,1.5,0.5,2.3c0,1-0.2,2-0.5,3c-0.4,1.1-1,2.2-1.8,3
		c-0.8,0.9-1.9,1.6-3.2,2c-0.1,0-0.2,0.1-0.3,0c-0.2,0-0.4-0.1-0.6-0.2c-0.2-0.2-0.3-0.4-0.3-0.6c0-0.2,0.1-0.4,0.2-0.5
		c0.1-0.2,0.3-0.3,0.5-0.3c0.9-0.3,1.7-0.8,2.4-1.5c0.7-0.7,1.2-1.5,1.5-2.4c-0.6,0.6-1.5,1-2.4,1c-0.7,0-1.3-0.2-1.9-0.6
		c-0.6-0.4-1.1-0.9-1.4-1.5c-0.4-0.6-0.5-1.3-0.5-2.1c0-0.7,0.2-1.4,0.5-2c0.4-0.6,0.9-1.1,1.5-1.5c0.6-0.4,1.3-0.6,2.1-0.6
		C638.7,39.8,639.4,40,640.1,40.5z M639.5,45.7c0.5-0.5,0.7-1.2,0.7-1.8c0-0.7-0.2-1.3-0.7-1.8c-0.5-0.5-1.1-0.8-1.8-0.7
		c-0.6,0-1.3,0.2-1.7,0.7c-0.5,0.5-0.7,1.1-0.7,1.8c0,0.7,0.2,1.3,0.7,1.8c0.4,0.5,1,0.8,1.7,0.7C638.4,46.5,639.1,46.2,639.5,45.7z
		"/>
	<path class="st2" d="M515.8,59.2c0.5,0.3,0.9,0.7,1.2,1.3c0.3,0.6,0.4,1.2,0.4,1.8c0,0.6-0.1,1.3-0.4,1.9c-0.6,1.1-1.7,1.8-3,1.8
		h-3.7v4.8c0,0.3-0.2,0.5-0.5,0.5c-0.3,0-0.5-0.2-0.5-0.5V59.3c0-0.3,0.2-0.5,0.5-0.5c0,0,0,0,0,0h4.3
		C514.6,58.7,515.2,58.9,515.8,59.2z M515.7,64.2c0.4-0.5,0.7-1.2,0.7-1.9c0-0.7-0.2-1.3-0.7-1.8c-0.4-0.5-1.1-0.7-1.7-0.7h-3.7V65
		h3.7C514.7,65,515.3,64.7,515.7,64.2L515.7,64.2z"/>
	<path class="st2" d="M526.8,62.3c0.1,0.1,0.2,0.2,0.2,0.4v5.1c0.1,1-0.3,2-1,2.7c-0.8,0.7-1.7,1-2.7,0.9c-1,0.1-2-0.3-2.7-0.9
		c-0.7-0.7-1.1-1.7-1-2.7v-5.1c0-0.3,0.2-0.5,0.5-0.5c0.3,0,0.5,0.2,0.5,0.5v5.1c-0.2,1.3,0.8,2.5,2.1,2.6c0.2,0,0.4,0,0.6,0
		c0.7,0.1,1.5-0.2,2-0.7c0.5-0.5,0.8-1.3,0.7-2v-5c0-0.3,0.3-0.5,0.6-0.5C526.6,62.2,526.7,62.2,526.8,62.3L526.8,62.3z"/>
	<path class="st2" d="M536.3,62.5c0.7,0.4,1.2,1,1.5,1.7c0.4,0.8,0.6,1.6,0.5,2.5c0,0.9-0.2,1.7-0.5,2.5c-0.3,0.7-0.9,1.3-1.5,1.7
		c-0.6,0.4-1.4,0.6-2.2,0.6c-0.7,0-1.3-0.2-1.9-0.5c-0.6-0.3-1.1-0.8-1.4-1.4v1.2c0,0.1,0,0.3-0.2,0.4c-0.2,0.2-0.6,0.2-0.8,0
		c0,0,0,0,0,0c-0.1-0.1-0.2-0.3-0.2-0.4V58.6c0-0.3,0.2-0.5,0.5-0.5c0.3,0,0.5,0.2,0.5,0.5v5.3c0.3-0.6,0.8-1.1,1.4-1.4
		c0.6-0.4,1.2-0.5,1.9-0.5C535,61.9,535.7,62.1,536.3,62.5z M535.8,70c0.5-0.3,0.9-0.8,1.2-1.4c0.3-0.6,0.4-1.3,0.4-1.9
		c0-0.7-0.1-1.3-0.4-1.9c-0.3-0.5-0.7-1-1.2-1.3c-0.5-0.3-1.1-0.5-1.7-0.5c-1.2,0-2.4,0.7-2.9,1.8c-0.6,1.2-0.6,2.7,0,3.9
		c0.3,0.6,0.7,1,1.2,1.4c0.5,0.3,1.1,0.5,1.7,0.5C534.7,70.5,535.3,70.3,535.8,70z"/>
	<path class="st2" d="M541.7,71.2c-0.2,0.2-0.5,0.2-0.8,0c-0.1-0.1-0.2-0.3-0.2-0.4V58.5c0-0.3,0.2-0.5,0.5-0.5
		c0.3,0,0.5,0.2,0.5,0.5v12.2C541.8,70.9,541.8,71.1,541.7,71.2z"/>
	<path class="st2" d="M544.7,60.6c-0.1-0.1-0.2-0.3-0.2-0.5v-0.2c0-0.2,0.1-0.4,0.2-0.5c0.2-0.1,0.4-0.2,0.6-0.2
		c0.5,0,0.7,0.2,0.7,0.7v0.2c0,0.2-0.1,0.4-0.2,0.5c-0.2,0.1-0.4,0.2-0.5,0.2C545.1,60.8,544.9,60.7,544.7,60.6z M545.7,71.2
		c-0.2,0.2-0.5,0.2-0.8,0c-0.1-0.1-0.2-0.3-0.2-0.4v-8.3c0-0.3,0.2-0.5,0.5-0.5c0.3,0,0.5,0.2,0.5,0.5v8.3
		C545.8,70.9,545.8,71.1,545.7,71.2z"/>
	<path class="st2" d="M554.2,62.1c0.4,0.1,0.8,0.3,1.2,0.5c0.3,0.1,0.4,0.4,0.4,0.7c0,0.1,0,0.3-0.1,0.4c-0.1,0.1-0.2,0.2-0.3,0.2
		c-0.1,0-0.2,0-0.3-0.1c-0.1-0.1-0.2-0.1-0.3-0.2c-0.1-0.1-0.3-0.3-0.5-0.3c-0.2-0.1-0.5-0.2-0.7-0.2c-0.3-0.1-0.6-0.1-0.9-0.1
		c-0.6,0-1.3,0.2-1.8,0.5c-0.6,0.3-1,0.8-1.3,1.4c-0.3,0.6-0.5,1.2-0.5,1.9c0,0.7,0.1,1.3,0.5,1.9c0.6,1.2,1.8,1.9,3.1,1.8
		c0.3,0,0.7,0,1-0.1c0.3-0.1,0.5-0.2,0.8-0.3c0.2-0.1,0.3-0.2,0.4-0.3c0.1-0.1,0.2-0.1,0.2-0.2c0.1,0,0.1-0.1,0.2-0.1
		c0.1,0,0.3,0,0.3,0.1c0.1,0.1,0.1,0.2,0.1,0.3c0,0.3-0.2,0.5-0.4,0.7c-0.4,0.3-0.8,0.5-1.2,0.6c-0.5,0.2-1.1,0.3-1.7,0.2
		c-0.8,0-1.6-0.2-2.3-0.6c-0.7-0.4-1.2-1-1.6-1.7c-0.4-0.8-0.6-1.6-0.6-2.5c0-0.8,0.2-1.7,0.6-2.4c0.8-1.5,2.3-2.4,4-2.4
		C553.1,61.9,553.7,62,554.2,62.1z"/>
	<path class="st2" d="M569.3,62.5c0.7,0.4,1.2,1,1.5,1.7c0.4,0.8,0.6,1.6,0.5,2.5c0,0.9-0.2,1.7-0.5,2.5c-0.3,0.7-0.9,1.3-1.5,1.7
		c-0.6,0.4-1.4,0.6-2.2,0.6c-0.7,0-1.3-0.2-1.9-0.5c-0.6-0.3-1.1-0.8-1.4-1.4v1.2c0,0.1,0,0.3-0.2,0.4c-0.2,0.2-0.6,0.2-0.8,0
		c0,0,0,0,0,0c-0.1-0.1-0.2-0.3-0.2-0.4V58.6c0-0.3,0.2-0.5,0.5-0.5c0.3,0,0.5,0.2,0.5,0.5v5.3c0.3-0.6,0.8-1.1,1.4-1.4
		c0.6-0.4,1.2-0.5,1.9-0.5C567.9,61.9,568.7,62.1,569.3,62.5z M568.8,70c0.5-0.3,0.9-0.8,1.2-1.4c0.3-0.6,0.4-1.3,0.4-1.9
		c0-0.7-0.1-1.3-0.4-1.9c-0.3-0.5-0.7-1-1.2-1.3c-0.5-0.3-1.1-0.5-1.7-0.5c-1.2,0-2.4,0.7-2.9,1.8c-0.6,1.2-0.6,2.7,0,3.9
		c0.3,0.6,0.7,1,1.2,1.4c0.5,0.3,1.1,0.5,1.7,0.5C567.7,70.5,568.3,70.3,568.8,70L568.8,70z"/>
	<path class="st2" d="M581.2,66.6c-0.1,0.1-0.2,0.2-0.4,0.2h-6.8c0,0.7,0.1,1.3,0.4,1.9c0.3,0.6,0.7,1,1.3,1.3
		c0.6,0.3,1.3,0.5,1.9,0.5c0.5,0,1.1-0.1,1.5-0.4c0.4-0.2,0.8-0.5,1.1-0.9c0.1-0.1,0.2-0.2,0.4-0.2c0.3,0,0.5,0.2,0.5,0.5
		c0,0.1-0.1,0.3-0.2,0.4c-0.4,0.5-0.9,0.9-1.5,1.1c-0.6,0.3-1.2,0.5-1.8,0.4c-0.9,0-1.7-0.2-2.5-0.6c-0.7-0.4-1.3-1-1.7-1.7
		c-0.4-0.8-0.6-1.6-0.6-2.5c0-0.9,0.2-1.8,0.6-2.6c0.4-0.7,0.9-1.3,1.6-1.7c0.6-0.4,1.3-0.6,2.1-0.6c0.7,0,1.4,0.2,2,0.5
		c0.6,0.3,1.2,0.9,1.5,1.5c0.4,0.7,0.6,1.5,0.6,2.3C581.4,66.3,581.3,66.5,581.2,66.6z M575.3,63.7c-0.6,0.5-1,1.3-1.1,2.1h6.1v-0.1
		c0-0.5-0.2-1-0.5-1.4c-0.3-0.4-0.7-0.7-1.1-0.9c-0.4-0.2-0.9-0.3-1.4-0.3C576.5,63,575.8,63.2,575.3,63.7z"/>
	<path class="st2" d="M585.4,63.2v6c0,0.3,0,0.7,0.2,0.9c0.2,0.2,0.4,0.3,0.7,0.2c0.1,0,0.2,0,0.3,0c0.1,0,0.2,0,0.2,0
		c0.1,0,0.2,0,0.3,0.1c0.1,0.1,0.1,0.2,0.1,0.3c0,0.2-0.1,0.3-0.3,0.4c-0.2,0.1-0.4,0.2-0.7,0.2c-0.3,0-0.6,0-0.9-0.1
		c-0.3-0.1-0.6-0.3-0.7-0.5c-0.3-0.4-0.4-0.9-0.3-1.4v-6.1h-1.3c-0.1,0-0.3,0-0.4-0.1c-0.2-0.2-0.2-0.5,0-0.7c0,0,0,0,0,0
		c0.1-0.1,0.2-0.1,0.4-0.1h1.3v-2c0-0.3,0.2-0.5,0.5-0.5c0.3,0,0.5,0.2,0.5,0.5v2h1.8c0.1,0,0.3,0.1,0.3,0.2
		c0.1,0.1,0.1,0.2,0.2,0.4c0,0.1,0,0.3-0.1,0.3c-0.1,0.1-0.2,0.1-0.4,0.1L585.4,63.2z"/>
	<path class="st2" d="M597.6,62.3c0.1,0.1,0.2,0.3,0.2,0.4v8.1c0,0.3-0.2,0.5-0.5,0.5c-0.3,0-0.5-0.2-0.5-0.5v-1.2
		c-0.3,0.6-0.8,1-1.3,1.4c-0.6,0.4-1.3,0.6-2,0.6c-0.8,0-1.5-0.2-2.2-0.6c-0.6-0.4-1.1-1-1.5-1.7c-0.4-0.8-0.6-1.6-0.5-2.5
		c0-0.9,0.2-1.7,0.6-2.5c0.3-0.7,0.9-1.3,1.5-1.7c1.2-0.8,2.8-0.8,4.1-0.1c0.6,0.3,1,0.8,1.3,1.4v-1.2c0-0.1,0-0.3,0.2-0.4
		C597,62.1,597.4,62.1,597.6,62.3C597.6,62.3,597.6,62.3,597.6,62.3L597.6,62.3z M595.1,70c0.5-0.3,0.9-0.8,1.2-1.4
		c0.3-0.6,0.4-1.3,0.4-2c0-0.7-0.1-1.3-0.4-1.9c-0.3-0.6-0.7-1-1.2-1.4c-0.5-0.3-1.1-0.5-1.7-0.5c-0.6,0-1.2,0.2-1.7,0.5
		c-0.5,0.3-0.9,0.8-1.2,1.3c-0.3,0.6-0.4,1.3-0.4,1.9c0,0.7,0.1,1.4,0.4,2c0.3,0.6,0.7,1,1.2,1.4c0.5,0.3,1.1,0.5,1.7,0.5
		C594.1,70.5,594.7,70.3,595.1,70z"/>
	<path class="st2" d="M607.3,63.2v6c0,0.3,0,0.7,0.2,0.9c0.2,0.2,0.4,0.3,0.7,0.2c0.1,0,0.2,0,0.3,0c0.1,0,0.2,0,0.2,0
		c0.1,0,0.2,0,0.3,0.1c0.1,0.1,0.1,0.2,0.1,0.3c0,0.2-0.1,0.3-0.3,0.4c-0.2,0.1-0.4,0.2-0.7,0.2c-0.3,0-0.6,0-0.9-0.1
		c-0.3-0.1-0.6-0.3-0.7-0.5c-0.3-0.4-0.4-0.9-0.3-1.4v-6.1h-1.3c-0.1,0-0.3,0-0.4-0.1c-0.2-0.2-0.2-0.5,0-0.7c0,0,0,0,0,0
		c0.1-0.1,0.2-0.1,0.4-0.1h1.3v-2c0-0.3,0.2-0.5,0.5-0.5c0.3,0,0.5,0.2,0.5,0.5v2h1.8c0.1,0,0.3,0.1,0.3,0.2
		c0.1,0.1,0.1,0.2,0.2,0.4c0,0.1,0,0.3-0.1,0.3c-0.1,0.1-0.2,0.1-0.4,0.1L607.3,63.2z"/>
	<path class="st2" d="M619.1,66.6c-0.1,0.1-0.2,0.2-0.4,0.2h-6.8c0,0.7,0.1,1.3,0.4,1.9c0.3,0.6,0.7,1,1.3,1.3
		c0.6,0.3,1.3,0.5,1.9,0.5c0.5,0,1.1-0.1,1.5-0.4c0.4-0.2,0.8-0.5,1.1-0.9c0.1-0.1,0.2-0.2,0.4-0.2c0.3,0,0.5,0.2,0.5,0.5
		c0,0.1-0.1,0.3-0.2,0.4c-0.4,0.5-0.9,0.9-1.5,1.2c-0.6,0.3-1.2,0.5-1.8,0.4c-0.9,0-1.7-0.2-2.5-0.6c-0.7-0.4-1.3-1-1.7-1.7
		c-0.4-0.8-0.6-1.6-0.6-2.5c0-0.9,0.2-1.8,0.6-2.6c0.4-0.7,0.9-1.3,1.6-1.7c0.6-0.4,1.3-0.6,2.1-0.6c0.7,0,1.4,0.2,2,0.5
		c0.6,0.3,1.2,0.9,1.5,1.5c0.4,0.7,0.6,1.5,0.6,2.3C619.3,66.3,619.2,66.5,619.1,66.6z M613.2,63.7c-0.6,0.5-1,1.3-1.1,2.1h6.1v-0.1
		c0-0.5-0.2-1-0.5-1.4c-0.3-0.4-0.7-0.7-1.1-0.9c-0.4-0.2-0.9-0.3-1.4-0.3C614.4,63,613.7,63.2,613.2,63.7z"/>
	<path class="st2" d="M620.8,69.5c0-0.2,0.1-0.3,0.2-0.4c0.1-0.1,0.2-0.1,0.3-0.1c0.2,0,0.3,0.1,0.4,0.2c0.7,0.9,1.7,1.4,2.8,1.4
		c0.5,0,1-0.1,1.5-0.4c0.4-0.2,0.7-0.7,0.6-1.2c0-0.5-0.2-0.9-0.6-1.1c-0.5-0.3-1.1-0.5-1.7-0.7c-0.8-0.2-1.6-0.5-2.3-1
		c-0.6-0.4-0.9-1.1-0.8-1.8c0-0.5,0.1-0.9,0.4-1.3c0.3-0.4,0.7-0.7,1.1-0.9c0.5-0.2,1.1-0.3,1.6-0.3c0.5,0,1.1,0.1,1.6,0.3
		c0.5,0.2,1,0.5,1.3,0.9c0.1,0.1,0.2,0.2,0.2,0.4c0,0.1-0.1,0.3-0.2,0.4c-0.1,0.1-0.2,0.1-0.3,0.1c-0.1,0-0.2-0.1-0.3-0.1
		c-0.3-0.3-0.6-0.6-1-0.7c-0.4-0.2-0.8-0.3-1.3-0.2c-0.5,0-1,0.1-1.5,0.4c-0.4,0.3-0.6,0.7-0.6,1.2c0,0.5,0.3,0.9,0.7,1.1
		c0.6,0.3,1.2,0.5,1.8,0.7c0.5,0.1,1.1,0.3,1.5,0.5c0.4,0.2,0.7,0.5,1,0.8c0.3,0.4,0.4,0.9,0.4,1.4c0,0.7-0.3,1.4-0.9,1.9
		c-0.7,0.5-1.5,0.7-2.3,0.7c-1.4,0-2.7-0.6-3.5-1.6C620.9,69.7,620.9,69.6,620.8,69.5z"/>
	<path class="st2" d="M631.8,63.2v6c0,0.3,0,0.7,0.2,0.9c0.2,0.2,0.4,0.3,0.7,0.2c0.1,0,0.2,0,0.3,0c0.1,0,0.2,0,0.2,0
		c0.1,0,0.2,0,0.3,0.1c0.1,0.1,0.1,0.2,0.1,0.3c0,0.2-0.1,0.3-0.3,0.4c-0.2,0.1-0.4,0.2-0.7,0.2c-0.3,0-0.6,0-0.9-0.1
		c-0.3-0.1-0.6-0.3-0.7-0.5c-0.3-0.4-0.4-0.9-0.3-1.4v-6.1h-1.3c-0.1,0-0.3,0-0.4-0.1c-0.2-0.2-0.2-0.5,0-0.7c0,0,0,0,0,0
		c0.1-0.1,0.2-0.1,0.4-0.1h1.3v-2c0-0.3,0.2-0.5,0.5-0.5c0.3,0,0.5,0.2,0.5,0.5v2h1.8c0.1,0,0.3,0.1,0.3,0.2
		c0.1,0.1,0.1,0.2,0.2,0.4c0,0.1,0,0.3-0.1,0.3c-0.1,0.1-0.2,0.1-0.4,0.1H631.8z"/>
	<path class="st2" d="M647.5,62.5c0.7,0.4,1.2,1,1.5,1.7c0.4,0.8,0.6,1.6,0.5,2.5c0,0.9-0.2,1.7-0.5,2.5c-0.3,0.7-0.9,1.3-1.5,1.7
		c-0.6,0.4-1.4,0.6-2.2,0.6c-0.7,0-1.3-0.2-1.9-0.5c-0.6-0.3-1.1-0.8-1.4-1.4v1.2c0,0.1,0,0.3-0.2,0.4c-0.2,0.2-0.6,0.2-0.8,0
		c0,0,0,0,0,0c-0.1-0.1-0.2-0.3-0.2-0.4V58.6c0-0.3,0.2-0.5,0.5-0.5c0.3,0,0.5,0.2,0.5,0.5v5.3c0.3-0.6,0.8-1.1,1.4-1.4
		c0.6-0.4,1.2-0.5,1.9-0.5C646.1,61.9,646.9,62.1,647.5,62.5z M647,70c0.5-0.3,0.9-0.8,1.2-1.4c0.3-0.6,0.4-1.3,0.4-1.9
		c0-0.7-0.1-1.3-0.4-1.9c-0.3-0.5-0.7-1-1.2-1.3c-0.5-0.3-1.1-0.5-1.7-0.5c-1.2,0-2.4,0.7-2.9,1.8c-0.6,1.2-0.6,2.7,0,3.9
		c0.2,0.6,0.6,1,1.1,1.4c0.5,0.3,1.1,0.5,1.7,0.5C645.8,70.5,646.4,70.3,647,70L647,70z"/>
	<path class="st2" d="M659.4,66.6c-0.1,0.1-0.2,0.2-0.4,0.2h-6.8c0,0.7,0.1,1.3,0.4,1.9c0.3,0.6,0.7,1,1.3,1.3
		c0.6,0.3,1.3,0.5,1.9,0.5c0.5,0,1.1-0.1,1.5-0.4c0.4-0.2,0.8-0.6,1.1-1c0.1-0.1,0.2-0.2,0.4-0.2c0.3,0,0.5,0.2,0.5,0.5
		c0,0.1-0.1,0.3-0.2,0.4c-0.4,0.5-0.9,0.9-1.5,1.2c-0.6,0.3-1.2,0.5-1.8,0.4c-0.9,0-1.7-0.2-2.5-0.6c-0.7-0.4-1.3-1-1.7-1.7
		c-0.4-0.8-0.6-1.6-0.6-2.5c0-0.9,0.2-1.8,0.6-2.6c0.4-0.7,0.9-1.3,1.6-1.7c0.6-0.4,1.3-0.6,2.1-0.6c0.7,0,1.4,0.2,2,0.5
		c0.6,0.3,1.2,0.9,1.5,1.5c0.4,0.7,0.6,1.5,0.6,2.3C659.6,66.3,659.5,66.5,659.4,66.6z M653.5,63.7c-0.6,0.5-1,1.3-1.1,2.1h6.1v-0.1
		c0-0.5-0.2-1-0.5-1.4c-0.3-0.4-0.7-0.7-1.1-0.9c-0.4-0.2-0.9-0.3-1.4-0.3C654.7,63,654,63.2,653.5,63.7z"/>
	<path class="st2" d="M669.9,62.3c0.1,0.1,0.2,0.3,0.2,0.4v7.8c0,0.8-0.2,1.7-0.6,2.4c-0.4,0.7-0.9,1.2-1.6,1.5
		c-0.7,0.4-1.5,0.5-2.3,0.5c-0.4,0-0.9-0.1-1.3-0.2c-0.4-0.1-0.8-0.2-1.2-0.4c-0.3-0.2-0.5-0.3-0.6-0.5c-0.1-0.1-0.1-0.2-0.1-0.3
		c0-0.1,0.1-0.2,0.2-0.3c0.1,0,0.1-0.1,0.2-0.1c0.1,0,0.3,0.1,0.4,0.1l0.4,0.2c0.7,0.3,1.4,0.4,2.1,0.4c0.9,0.1,1.8-0.3,2.5-0.9
		c0.6-0.7,1-1.5,0.9-2.5v-1.1c-0.3,0.6-0.8,1.2-1.4,1.5c-0.6,0.4-1.3,0.5-2,0.6c-0.8,0-1.6-0.2-2.2-0.6c-0.7-0.4-1.2-1-1.6-1.7
		c-0.8-1.5-0.8-3.4,0-4.9c0.4-0.7,0.9-1.3,1.6-1.7c0.7-0.4,1.4-0.6,2.2-0.6c0.7,0,1.5,0.2,2.1,0.6c0.6,0.3,1.1,0.8,1.4,1.4v-1.2
		c0-0.1,0-0.3,0.2-0.4c0.1-0.1,0.2-0.2,0.4-0.2C669.7,62.1,669.8,62.2,669.9,62.3z M667.4,70c0.5-0.3,0.9-0.8,1.2-1.3
		c0.3-0.6,0.5-1.3,0.4-2c0-0.7-0.1-1.4-0.4-2c-0.3-0.6-0.7-1-1.2-1.3c-0.5-0.3-1.1-0.5-1.8-0.5c-0.6,0-1.2,0.2-1.8,0.5
		c-0.5,0.3-0.9,0.8-1.2,1.4c-0.6,1.2-0.6,2.6,0,3.9c0.3,0.6,0.7,1,1.2,1.4c0.5,0.3,1.1,0.5,1.8,0.5C666.2,70.5,666.8,70.3,667.4,70
		L667.4,70z"/>
	<path class="st2" d="M672.8,60.6c-0.1-0.1-0.2-0.3-0.2-0.5v-0.2c0-0.2,0.1-0.4,0.2-0.5c0.2-0.1,0.4-0.2,0.6-0.2
		c0.5,0,0.7,0.2,0.7,0.7v0.2c0,0.2-0.1,0.4-0.2,0.5c-0.2,0.1-0.4,0.2-0.5,0.2C673.2,60.8,673,60.7,672.8,60.6z M673.8,71.2
		c-0.2,0.2-0.5,0.2-0.8,0c-0.1-0.1-0.2-0.3-0.2-0.4v-8.3c0-0.3,0.2-0.5,0.5-0.5c0.3,0,0.5,0.2,0.5,0.5v8.3
		C673.9,70.9,673.9,71.1,673.8,71.2z"/>
	<path class="st2" d="M683.5,62.9c0.6,0.7,0.8,1.7,0.8,2.6v5.3c0,0.1-0.1,0.3-0.2,0.4c-0.1,0.1-0.2,0.2-0.4,0.2
		c-0.3,0-0.5-0.2-0.5-0.5c0,0,0,0,0,0v-5.2c0-0.7-0.2-1.4-0.6-1.9c-0.5-0.5-1.1-0.8-1.8-0.7c-1,0-2,0.5-2.6,1.3
		c-0.3,0.4-0.4,0.8-0.4,1.3v5.2c0,0.3-0.2,0.5-0.5,0.5c-0.3,0-0.5-0.2-0.5-0.5v-8c0-0.3,0.2-0.5,0.5-0.5c0.3,0,0.5,0.2,0.5,0.5v1
		c0.4-0.5,0.8-1,1.4-1.3c0.6-0.3,1.2-0.5,1.9-0.5C682,61.8,682.9,62.2,683.5,62.9z"/>
	<path class="st2" d="M686.5,69.5c0-0.2,0.1-0.3,0.2-0.4c0.1-0.1,0.2-0.1,0.3-0.1c0.2,0,0.3,0.1,0.4,0.2c0.7,0.9,1.7,1.4,2.8,1.4
		c0.5,0,1-0.1,1.5-0.4c0.4-0.2,0.7-0.7,0.6-1.2c0-0.5-0.2-0.9-0.6-1.1c-0.5-0.3-1.1-0.5-1.7-0.7c-0.8-0.2-1.6-0.5-2.3-1
		c-0.6-0.4-0.9-1.1-0.8-1.8c0-0.4,0.2-0.9,0.4-1.2c0.3-0.4,0.7-0.7,1.1-0.9c0.5-0.2,1.1-0.3,1.6-0.3c0.5,0,1.1,0.1,1.6,0.3
		c0.5,0.2,1,0.5,1.3,0.9c0.1,0.1,0.2,0.2,0.2,0.4c0,0.1-0.1,0.3-0.2,0.4c-0.1,0.1-0.2,0.1-0.3,0.1c-0.1,0-0.2-0.1-0.3-0.1
		c-0.3-0.3-0.6-0.6-1-0.7c-0.4-0.2-0.8-0.3-1.3-0.2c-0.5,0-1,0.1-1.5,0.4c-0.4,0.3-0.6,0.7-0.6,1.2c0,0.5,0.3,0.9,0.7,1.1
		c0.6,0.3,1.2,0.5,1.8,0.7c0.5,0.1,1.1,0.3,1.5,0.5c0.4,0.2,0.7,0.5,1,0.8c0.3,0.4,0.4,0.9,0.4,1.4c0,0.7-0.3,1.4-0.9,1.9
		c-0.7,0.5-1.5,0.7-2.3,0.7c-1.4,0-2.7-0.6-3.5-1.6C686.6,69.8,686.5,69.6,686.5,69.5z"/>
	<path class="st2" d="M695.3,71.1c-0.1-0.1-0.2-0.3-0.2-0.5v-0.4c0-0.2,0-0.4,0.2-0.5c0.1-0.1,0.3-0.2,0.5-0.2h0.1
		c0.2,0,0.3,0.1,0.5,0.2c0.1,0.1,0.2,0.3,0.2,0.5v0.4c0,0.2,0,0.4-0.2,0.5c-0.1,0.1-0.3,0.2-0.5,0.2h-0.1
		C695.6,71.3,695.4,71.3,695.3,71.1z"/>
	<path class="st2" d="M819,51.8c0,0.5-0.4,0.8-0.8,0.8c0,0,0,0,0,0c-0.2,0-0.3-0.1-0.5-0.2c-0.1-0.1-0.3-0.3-0.3-0.4l-1.1-2.7h-5.6
		l-1.1,2.7c-0.1,0.3-0.4,0.6-0.8,0.6c-0.2,0-0.4-0.1-0.6-0.2c-0.1-0.1-0.2-0.3-0.2-0.5c0-0.1,0-0.2,0-0.3l4.6-11.1
		c0.1-0.2,0.2-0.3,0.3-0.4c0.1-0.1,0.3-0.1,0.5-0.1c0.2,0,0.3,0,0.5,0.1c0.1,0.1,0.3,0.2,0.3,0.4l4.6,11C819,51.6,819,51.7,819,51.8
		z M811.4,47.8h4.2l-2.1-5L811.4,47.8z"/>
	<path class="st2" d="M827.5,43.6c0.7,0.4,1.2,1,1.6,1.7c0.4,0.8,0.6,1.6,0.6,2.5c0,0.9-0.2,1.7-0.6,2.5c-0.3,0.7-0.9,1.3-1.6,1.8
		c-0.7,0.4-1.4,0.6-2.2,0.6c-0.6,0-1.2-0.1-1.8-0.4c-0.5-0.2-0.9-0.6-1.3-1v4c0,0.2-0.1,0.4-0.2,0.6c-0.2,0.2-0.4,0.3-0.6,0.2
		c-0.2,0-0.4-0.1-0.6-0.2c-0.2-0.2-0.2-0.4-0.2-0.6V44c0-0.2,0.1-0.5,0.2-0.6c0.2-0.2,0.4-0.3,0.6-0.2c0.2,0,0.5,0.1,0.6,0.2
		c0.2,0.2,0.2,0.4,0.2,0.6v0.5c0.3-0.5,0.8-0.8,1.3-1.1c0.5-0.3,1.1-0.5,1.8-0.5C826.1,43,826.9,43.2,827.5,43.6z M826.6,50.8
		c0.4-0.3,0.8-0.7,1-1.2c0.5-1.1,0.5-2.3,0-3.4c-0.2-0.5-0.6-0.9-1-1.2c-0.4-0.3-1-0.4-1.5-0.4c-0.5,0-1.1,0.1-1.5,0.4
		c-0.4,0.3-0.8,0.7-1,1.2c-0.5,1.1-0.5,2.3,0,3.4c0.2,0.5,0.6,0.9,1,1.2c0.5,0.3,1,0.4,1.5,0.4C825.7,51.2,826.2,51.1,826.6,50.8
		L826.6,50.8z"/>
	<path class="st2" d="M837.2,43.2c0.2,0.1,0.3,0.4,0.3,0.6c0,0.2-0.1,0.5-0.2,0.7c-0.1,0.1-0.3,0.2-0.5,0.2c-0.2,0-0.3,0-0.5-0.1
		c-0.2-0.1-0.4-0.1-0.6-0.1c-0.4,0-0.8,0.1-1.1,0.4c-0.4,0.3-0.7,0.6-0.9,1.1c-0.2,0.5-0.3,1-0.3,1.5v4.3c0,0.2-0.1,0.4-0.2,0.6
		c-0.2,0.2-0.4,0.3-0.6,0.2c-0.2,0-0.4-0.1-0.6-0.2c-0.2-0.2-0.2-0.4-0.2-0.6V44c0-0.2,0.1-0.4,0.2-0.6c0.2-0.2,0.4-0.2,0.6-0.2
		c0.2,0,0.5,0.1,0.6,0.2c0.2,0.2,0.2,0.4,0.2,0.6V45c0.2-0.6,0.6-1.1,1.1-1.4c0.5-0.4,1.2-0.6,1.8-0.6
		C836.6,42.9,836.9,43,837.2,43.2z"/>
	<path class="st2" d="M839.1,41.7c-0.2-0.2-0.2-0.4-0.2-0.6v-0.3c0-0.2,0.1-0.5,0.2-0.6c0.2-0.1,0.5-0.2,0.8-0.2
		c0.3,0,0.5,0,0.7,0.2c0.2,0.2,0.2,0.4,0.2,0.6v0.3c0,0.2-0.1,0.5-0.2,0.6c-0.2,0.1-0.5,0.2-0.7,0.2
		C839.6,41.9,839.3,41.9,839.1,41.7z M840.5,52.4c-0.2,0.2-0.4,0.3-0.6,0.2c-0.2,0-0.4-0.1-0.6-0.2c-0.2-0.2-0.2-0.4-0.2-0.6V44
		c0-0.2,0.1-0.4,0.2-0.6c0.2-0.2,0.4-0.3,0.6-0.2c0.2,0,0.5,0.1,0.6,0.2c0.2,0.2,0.2,0.4,0.2,0.6v7.8
		C840.8,52,840.7,52.2,840.5,52.4z"/>
	<path class="st2" d="M844.8,52.4c-0.2,0.2-0.4,0.3-0.6,0.2c-0.2,0-0.4-0.1-0.6-0.2c-0.2-0.2-0.2-0.4-0.2-0.6V40.2
		c0-0.5,0.4-0.9,0.9-0.9c0.2,0,0.4,0.1,0.6,0.2c0.2,0.2,0.2,0.4,0.2,0.6v11.6C845.1,52,845,52.2,844.8,52.4z"/>
	<path class="st2" d="M860.5,51.3c0.2,0.2,0.2,0.4,0.2,0.6c0,0.2-0.1,0.4-0.2,0.6c-0.2,0.1-0.4,0.2-0.6,0.2h-6.3
		c-0.2,0-0.4-0.1-0.6-0.2c-0.2-0.2-0.2-0.4-0.2-0.6c0-0.2,0.1-0.4,0.2-0.6l4-4.4c0.9-0.8,1.5-1.9,1.7-3.2c0-1.2-0.9-2.2-2.1-2.3
		c0,0-0.1,0-0.1,0c-0.5,0-0.9,0.1-1.3,0.4c-0.4,0.3-0.8,0.6-1,1.1c-0.2,0.2-0.4,0.4-0.7,0.4c-0.2,0-0.4-0.1-0.6-0.2
		c-0.2-0.1-0.3-0.3-0.3-0.5c0-0.1,0-0.3,0.1-0.4c0.1-0.2,0.2-0.3,0.4-0.5c0.4-0.5,0.9-1,1.5-1.3c0.6-0.3,1.2-0.5,1.8-0.5
		c0.7,0,1.4,0.2,2.1,0.5c0.6,0.3,1,0.8,1.4,1.3c0.3,0.6,0.5,1.3,0.5,1.9c0,1.4-0.7,2.9-2.2,4.5l-2.7,3h4.5
		C860.1,51,860.3,51.1,860.5,51.3z"/>
	<path class="st2" d="M864.3,52c-0.7-0.6-1.3-1.4-1.6-2.3c-0.7-2.2-0.7-4.5,0-6.7c0.3-0.9,0.8-1.7,1.6-2.3c1.5-1.1,3.5-1.1,5,0
		c0.7,0.6,1.3,1.4,1.6,2.3c0.7,2.2,0.7,4.5,0,6.7c-0.3,0.9-0.8,1.7-1.6,2.3C867.8,53.1,865.8,53.1,864.3,52z M868.8,49.8
		c0.5-1.1,0.8-2.3,0.7-3.5c0.1-1.2-0.2-2.4-0.7-3.5c-0.6-1.1-2-1.6-3.1-1c-0.4,0.2-0.8,0.6-1,1c-0.5,1.1-0.8,2.3-0.7,3.5
		c-0.1,1.2,0.2,2.4,0.7,3.5c0.6,1.1,2,1.6,3.1,1C868.3,50.6,868.6,50.3,868.8,49.8z"/>
	<path class="st2" d="M881.3,51.3c0.2,0.2,0.2,0.4,0.2,0.6c0,0.2-0.1,0.4-0.2,0.6c-0.2,0.1-0.4,0.2-0.6,0.2h-6.4
		c-0.2,0-0.4-0.1-0.6-0.2c-0.2-0.2-0.2-0.4-0.2-0.6c0-0.2,0.1-0.4,0.2-0.6l4-4.4c0.9-0.8,1.5-1.9,1.7-3.2c0-1.2-0.9-2.2-2.1-2.3
		c0,0-0.1,0-0.1,0c-0.5,0-0.9,0.1-1.3,0.4c-0.4,0.3-0.8,0.6-1,1.1c-0.2,0.2-0.4,0.4-0.7,0.4c-0.2,0-0.4-0.1-0.6-0.2
		c-0.2-0.1-0.3-0.3-0.3-0.5c0-0.1,0-0.3,0.1-0.4c0.1-0.2,0.2-0.3,0.4-0.5c0.4-0.5,0.9-1,1.5-1.3c0.6-0.3,1.2-0.5,1.8-0.5
		c0.7,0,1.4,0.2,2.1,0.5c0.6,0.3,1,0.8,1.4,1.3c0.3,0.6,0.5,1.3,0.5,1.9c0,1.4-0.7,2.9-2.2,4.5l-2.7,3h4.5
		C880.9,51.1,881.1,51.1,881.3,51.3z"/>
	<path class="st2" d="M885.1,52c-0.7-0.6-1.2-1.4-1.5-2.3c-0.7-2.2-0.7-4.5,0-6.7c0.3-0.9,0.8-1.7,1.6-2.3c1.5-1.1,3.5-1.1,5,0
		c0.7,0.6,1.3,1.4,1.6,2.3c0.7,2.2,0.7,4.5,0,6.7c-0.3,0.9-0.8,1.7-1.6,2.3C888.6,53.1,886.6,53.1,885.1,52L885.1,52z M889.6,49.8
		c0.5-1.1,0.8-2.3,0.7-3.5c0.1-1.2-0.2-2.4-0.7-3.5c-0.6-1.1-2-1.6-3.1-1c-0.4,0.2-0.8,0.6-1,1c-0.5,1.1-0.8,2.3-0.7,3.5
		c-0.1,1.2,0.2,2.4,0.7,3.5c0.6,1.1,2,1.6,3.1,1C889.1,50.6,889.4,50.3,889.6,49.8z"/>
	<path class="st2" d="M793.3,71.1c-0.7-0.3-1.4-0.8-1.9-1.3c-0.1-0.1-0.2-0.3-0.2-0.4c0-0.2,0.1-0.3,0.2-0.4
		c0.1-0.1,0.2-0.2,0.4-0.2c0.2,0,0.3,0.1,0.4,0.2c0.9,1,2.1,1.6,3.4,1.6c0.8,0,1.5-0.2,2.2-0.6c0.5-0.4,0.9-1,0.9-1.6
		c0-0.5-0.1-0.9-0.4-1.3c-0.3-0.4-0.7-0.6-1.1-0.8c-0.6-0.3-1.2-0.5-1.8-0.7c-0.7-0.2-1.3-0.4-1.9-0.8c-0.5-0.3-0.9-0.6-1.3-1.1
		c-0.3-0.5-0.5-1.1-0.5-1.8c0-0.6,0.2-1.2,0.5-1.7c0.4-0.5,0.9-0.9,1.4-1.2c0.7-0.3,1.4-0.4,2.1-0.4c0.7,0,1.4,0.1,2.1,0.4
		c0.6,0.2,1.1,0.6,1.5,1.1c0.1,0.1,0.2,0.3,0.3,0.5c0,0.1-0.1,0.3-0.2,0.4c-0.1,0.1-0.2,0.2-0.4,0.2c-0.1,0-0.2,0-0.3-0.1
		c-0.4-0.4-0.8-0.7-1.3-0.9c-0.5-0.2-1.1-0.4-1.7-0.4c-0.8,0-1.5,0.2-2.1,0.6c-0.9,0.7-1.1,1.9-0.4,2.8c0.1,0.1,0.2,0.3,0.4,0.4
		c0.7,0.4,1.5,0.8,2.3,1c0.7,0.2,1.4,0.5,2.1,0.8c0.5,0.3,1,0.6,1.3,1.1c0.4,0.6,0.5,1.2,0.5,1.9c0,0.6-0.2,1.2-0.5,1.7
		c-0.4,0.5-0.9,0.9-1.5,1.2c-0.7,0.3-1.4,0.4-2.2,0.4C794.8,71.5,794,71.4,793.3,71.1z"/>
	<path class="st2" d="M803.8,63.2v6c0,0.3,0,0.7,0.2,0.9c0.2,0.2,0.4,0.3,0.7,0.2c0.1,0,0.2,0,0.3,0c0.1,0,0.2,0,0.2,0
		c0.1,0,0.2,0,0.3,0.1c0.1,0.1,0.1,0.2,0.1,0.3c0,0.2-0.1,0.3-0.3,0.4c-0.2,0.1-0.4,0.2-0.7,0.2c-0.3,0-0.6,0-0.9-0.1
		c-0.3-0.1-0.6-0.3-0.7-0.5c-0.3-0.4-0.4-0.9-0.3-1.4v-6.1h-1.3c-0.1,0-0.3,0-0.4-0.1c-0.2-0.2-0.2-0.5,0-0.7c0,0,0,0,0,0
		c0.1-0.1,0.2-0.1,0.4-0.1h1.3v-2c0-0.3,0.2-0.5,0.5-0.5c0.3,0,0.5,0.2,0.5,0.5v2h1.8c0.1,0,0.3,0.1,0.3,0.2
		c0.1,0.1,0.1,0.2,0.2,0.4c0,0.1,0,0.3-0.1,0.3c-0.1,0.1-0.2,0.1-0.4,0.1L803.8,63.2z"/>
	<path class="st2" d="M816,62.3c0.1,0.1,0.2,0.3,0.2,0.4v8.1c0,0.3-0.2,0.5-0.5,0.5c-0.3,0-0.5-0.2-0.5-0.5v-1.2
		c-0.3,0.6-0.8,1-1.3,1.4c-0.6,0.4-1.3,0.6-2,0.6c-0.8,0-1.5-0.2-2.2-0.6c-0.6-0.4-1.1-1-1.5-1.7c-0.4-0.8-0.6-1.6-0.5-2.5
		c0-0.9,0.2-1.7,0.6-2.5c0.3-0.7,0.9-1.3,1.5-1.7c1.2-0.8,2.8-0.8,4.1-0.1c0.6,0.3,1,0.8,1.3,1.4v-1.2c0-0.1,0-0.3,0.2-0.4
		C815.4,62.1,815.7,62.1,816,62.3C816,62.3,816,62.3,816,62.3L816,62.3z M813.5,70c0.5-0.3,0.9-0.8,1.2-1.4c0.3-0.6,0.4-1.3,0.4-2
		c0-0.7-0.1-1.3-0.4-1.9c-0.3-0.5-0.7-1-1.2-1.3c-0.5-0.3-1.1-0.5-1.7-0.5c-0.6,0-1.2,0.2-1.7,0.5c-0.5,0.3-0.9,0.8-1.2,1.3
		c-0.3,0.6-0.4,1.3-0.4,1.9c0,0.7,0.1,1.4,0.4,2c0.3,0.6,0.7,1,1.2,1.4C811.2,70.7,812.5,70.7,813.5,70L813.5,70z"/>
	<path class="st2" d="M825.5,62.5c0.7,0.4,1.2,1,1.5,1.7c0.4,0.8,0.6,1.6,0.5,2.5c0,0.9-0.2,1.7-0.5,2.5c-0.3,0.7-0.8,1.3-1.5,1.7
		c-0.6,0.4-1.4,0.6-2.2,0.6c-0.7,0-1.3-0.2-1.9-0.5c-0.6-0.3-1.1-0.8-1.4-1.4v1.2c0,0.1,0,0.3-0.2,0.4c-0.2,0.2-0.6,0.2-0.8,0
		c0,0,0,0,0,0c-0.1-0.1-0.2-0.3-0.2-0.4V58.6c0-0.3,0.2-0.5,0.5-0.5c0.3,0,0.5,0.2,0.5,0.5v5.3c0.3-0.6,0.8-1.1,1.4-1.4
		c0.6-0.4,1.2-0.5,1.9-0.5C824.1,61.9,824.9,62.1,825.5,62.5z M824.9,70c0.5-0.3,0.9-0.8,1.2-1.4c0.3-0.6,0.4-1.3,0.4-1.9
		c0-0.7-0.1-1.3-0.4-1.9c-0.3-0.5-0.7-1-1.2-1.3c-0.5-0.3-1.1-0.5-1.7-0.5c-1.2,0-2.4,0.7-2.9,1.8c-0.6,1.2-0.6,2.7,0,3.9
		c0.3,0.6,0.7,1,1.2,1.4c0.5,0.3,1.1,0.5,1.7,0.5C823.8,70.5,824.4,70.3,824.9,70z"/>
	<path class="st2" d="M830.8,71.2c-0.2,0.2-0.5,0.2-0.8,0c-0.1-0.1-0.2-0.3-0.2-0.4V58.5c0-0.3,0.2-0.5,0.5-0.5
		c0.3,0,0.5,0.2,0.5,0.5v12.2C831,70.9,830.9,71.1,830.8,71.2z"/>
	<path class="st2" d="M841.4,66.6c-0.1,0.1-0.2,0.2-0.4,0.2h-6.8c0,0.7,0.1,1.3,0.4,1.9c0.3,0.6,0.7,1,1.3,1.3
		c0.6,0.3,1.3,0.5,1.9,0.5c0.5,0,1.1-0.1,1.5-0.4c0.4-0.2,0.8-0.5,1.1-0.9c0.1-0.1,0.2-0.2,0.4-0.2c0.3,0,0.5,0.2,0.5,0.5
		c0,0.1-0.1,0.3-0.2,0.4c-0.4,0.5-0.9,0.9-1.5,1.2c-0.6,0.3-1.2,0.4-1.8,0.4c-0.9,0-1.7-0.2-2.5-0.6c-0.7-0.4-1.3-1-1.7-1.7
		c-0.4-0.8-0.6-1.6-0.6-2.5c0-0.9,0.2-1.8,0.6-2.6c0.4-0.7,0.9-1.3,1.6-1.7c0.6-0.4,1.3-0.6,2.1-0.6c0.7,0,1.4,0.2,2,0.5
		c0.6,0.3,1.2,0.9,1.5,1.5c0.4,0.7,0.6,1.5,0.6,2.3C841.5,66.3,841.5,66.5,841.4,66.6z M835.4,63.7c-0.6,0.5-1,1.3-1.1,2.1h6.1v-0.1
		c0-0.5-0.2-1-0.5-1.4c-0.3-0.4-0.7-0.7-1.1-0.9c-0.4-0.2-0.9-0.3-1.4-0.3C836.6,63,836,63.2,835.4,63.7z"/>
	<path class="st2" d="M853.6,62.1c0.2,0.1,0.3,0.2,0.3,0.4c0,0.1,0,0.3-0.1,0.4c-0.1,0.1-0.2,0.2-0.3,0.2c-0.1,0-0.2,0-0.3-0.1
		c-0.2-0.1-0.3-0.1-0.5-0.1c-0.5,0-1,0.2-1.3,0.5c-0.5,0.4-0.8,0.8-1.1,1.3c-0.3,0.5-0.4,1.1-0.4,1.6v4.4c0,0.3-0.2,0.5-0.5,0.5
		c-0.3,0-0.5-0.2-0.5-0.5v-8.1c0-0.3,0.2-0.5,0.5-0.5c0.3,0,0.5,0.2,0.5,0.5v1.6c0.3-0.7,0.7-1.3,1.2-1.7c0.6-0.5,1.3-0.7,2-0.7
		C853.2,61.9,853.4,62,853.6,62.1z"/>
	<path class="st2" d="M862.8,66.6c-0.1,0.1-0.2,0.2-0.4,0.2h-6.8c0,0.7,0.1,1.3,0.4,1.9c0.3,0.6,0.7,1,1.3,1.3
		c0.6,0.3,1.3,0.5,1.9,0.5c0.5,0,1.1-0.1,1.5-0.4c0.4-0.2,0.8-0.5,1.1-0.9c0.1-0.1,0.2-0.2,0.4-0.2c0.3,0,0.5,0.2,0.5,0.5
		c0,0.1-0.1,0.3-0.2,0.4c-0.4,0.5-0.9,0.9-1.5,1.2c-0.6,0.3-1.2,0.4-1.8,0.4c-0.9,0-1.7-0.2-2.5-0.6c-0.7-0.4-1.3-1-1.7-1.7
		c-0.4-0.8-0.6-1.6-0.6-2.5c0-0.9,0.2-1.8,0.6-2.6c0.4-0.7,0.9-1.3,1.6-1.7c0.6-0.4,1.3-0.6,2.1-0.6c0.7,0,1.4,0.2,2,0.5
		c0.6,0.3,1.2,0.9,1.5,1.5c0.4,0.7,0.6,1.5,0.6,2.3C863,66.3,862.9,66.5,862.8,66.6z M856.9,63.7c-0.6,0.5-1,1.3-1.1,2.1h6.1v-0.1
		c0-0.5-0.2-1-0.5-1.4c-0.3-0.4-0.7-0.7-1.1-0.9c-0.4-0.2-0.9-0.3-1.4-0.3C858.1,63,857.4,63.2,856.9,63.7z"/>
	<path class="st2" d="M866.2,71.2c-0.2,0.2-0.5,0.2-0.8,0c-0.1-0.1-0.2-0.3-0.2-0.4V58.5c0-0.3,0.2-0.5,0.5-0.5
		c0.3,0,0.5,0.2,0.5,0.5v12.2C866.4,70.9,866.4,71.1,866.2,71.2z"/>
	<path class="st2" d="M876.8,66.6c-0.1,0.1-0.2,0.2-0.4,0.2h-6.8c0,0.7,0.1,1.3,0.4,1.9c0.3,0.6,0.7,1,1.3,1.3
		c0.6,0.3,1.3,0.5,1.9,0.5c0.5,0,1.1-0.1,1.5-0.4c0.4-0.2,0.8-0.5,1.1-0.9c0.1-0.1,0.2-0.2,0.4-0.2c0.3,0,0.5,0.2,0.5,0.5
		c0,0.1-0.1,0.3-0.2,0.4c-0.4,0.5-0.9,0.9-1.5,1.2c-0.6,0.3-1.2,0.4-1.8,0.4c-0.9,0-1.7-0.2-2.5-0.6c-0.7-0.4-1.3-1-1.7-1.7
		c-0.4-0.8-0.6-1.6-0.6-2.5c0-0.9,0.2-1.8,0.6-2.6c0.4-0.7,0.9-1.3,1.6-1.7c0.6-0.4,1.3-0.6,2.1-0.6c0.7,0,1.4,0.2,2,0.5
		c0.6,0.3,1.2,0.9,1.5,1.5c0.4,0.7,0.6,1.5,0.6,2.3C876.9,66.3,876.9,66.5,876.8,66.6z M870.8,63.7c-0.6,0.5-1,1.3-1.1,2.1h6.1v-0.1
		c0-0.5-0.2-1-0.5-1.4c-0.3-0.4-0.7-0.7-1.1-0.9c-0.4-0.2-0.9-0.3-1.4-0.3C872.1,63,871.4,63.2,870.8,63.7z"/>
	<path class="st2" d="M887.1,62.3c0.1,0.1,0.2,0.3,0.2,0.4v8.1c0,0.3-0.2,0.5-0.5,0.5c-0.3,0-0.5-0.2-0.5-0.5v-1.2
		c-0.3,0.6-0.8,1-1.3,1.4c-0.6,0.4-1.3,0.6-2,0.6c-0.8,0-1.5-0.2-2.2-0.6c-0.6-0.4-1.1-1-1.5-1.7c-0.4-0.8-0.6-1.6-0.5-2.5
		c0-0.9,0.2-1.7,0.6-2.5c0.3-0.7,0.9-1.3,1.5-1.7c1.2-0.8,2.8-0.8,4.1-0.1c0.6,0.3,1,0.8,1.3,1.4v-1.2c0-0.1,0-0.3,0.2-0.4
		C886.5,62.1,886.9,62.1,887.1,62.3C887.1,62.3,887.1,62.3,887.1,62.3L887.1,62.3z M884.7,70c0.5-0.3,0.9-0.8,1.2-1.4
		c0.3-0.6,0.4-1.3,0.4-2c0-0.7-0.1-1.3-0.4-1.9c-0.3-0.6-0.7-1-1.2-1.4c-0.5-0.3-1.1-0.5-1.7-0.5c-0.6,0-1.2,0.2-1.7,0.5
		c-0.5,0.3-0.9,0.8-1.2,1.3c-0.3,0.6-0.4,1.3-0.4,1.9c0,0.7,0.1,1.4,0.4,2c0.3,0.6,0.7,1,1.2,1.4C882.3,70.7,883.6,70.7,884.7,70
		L884.7,70z"/>
	<path class="st2" d="M889.4,69.5c0-0.2,0.1-0.3,0.2-0.4c0.1-0.1,0.2-0.1,0.3-0.1c0.2,0,0.3,0.1,0.4,0.2c0.7,0.9,1.7,1.4,2.8,1.4
		c0.5,0,1-0.1,1.5-0.4c0.4-0.2,0.7-0.7,0.6-1.2c0-0.5-0.2-0.9-0.6-1.1c-0.5-0.3-1.1-0.5-1.7-0.7c-0.8-0.2-1.6-0.5-2.3-1
		c-0.6-0.4-0.9-1.1-0.8-1.8c0-0.5,0.1-0.9,0.4-1.3c0.3-0.4,0.7-0.7,1.1-0.9c0.5-0.2,1.1-0.3,1.6-0.3c0.5,0,1,0.1,1.5,0.3
		c0.5,0.2,1,0.5,1.3,0.9c0.1,0.1,0.2,0.2,0.2,0.4c0,0.1-0.1,0.3-0.2,0.4c-0.1,0.1-0.2,0.1-0.3,0.1c-0.1,0-0.2-0.1-0.3-0.1
		c-0.3-0.3-0.6-0.6-1-0.7c-0.4-0.2-0.8-0.3-1.3-0.2c-0.5,0-1,0.1-1.5,0.4c-0.4,0.3-0.6,0.7-0.6,1.2c0,0.5,0.3,0.9,0.7,1.1
		c0.6,0.3,1.2,0.5,1.8,0.7c0.5,0.1,1.1,0.3,1.5,0.5c0.4,0.2,0.7,0.5,1,0.8c0.3,0.4,0.4,0.9,0.4,1.4c0,0.7-0.3,1.4-0.9,1.9
		c-0.7,0.5-1.5,0.7-2.3,0.7c-1.4,0.1-2.7-0.6-3.5-1.6C889.5,69.7,889.4,69.6,889.4,69.5z"/>
	<path class="st2" d="M906.1,66.6c-0.1,0.1-0.2,0.2-0.4,0.2H899c0,0.7,0.1,1.3,0.4,1.9c0.3,0.6,0.7,1,1.3,1.3
		c0.6,0.3,1.3,0.5,1.9,0.5c0.5,0,1.1-0.1,1.5-0.4c0.4-0.2,0.8-0.5,1.1-0.9c0.1-0.1,0.2-0.2,0.4-0.2c0.3,0,0.5,0.2,0.5,0.5
		c0,0.1-0.1,0.3-0.2,0.4c-0.4,0.5-0.9,0.9-1.5,1.2c-0.6,0.3-1.2,0.4-1.8,0.4c-0.9,0-1.7-0.2-2.5-0.6c-0.7-0.4-1.3-1-1.6-1.7
		c-0.4-0.8-0.6-1.6-0.6-2.5c0-0.9,0.2-1.8,0.6-2.6c0.4-0.7,0.9-1.3,1.6-1.7c0.6-0.4,1.3-0.6,2.1-0.6c0.7,0,1.4,0.2,2,0.5
		c0.6,0.3,1.2,0.9,1.5,1.5c0.4,0.7,0.6,1.5,0.6,2.3C906.3,66.3,906.2,66.5,906.1,66.6z M900.2,63.7c-0.6,0.5-1,1.3-1.1,2.1h6.1v-0.1
		c0-0.5-0.2-1-0.5-1.4c-0.3-0.4-0.7-0.7-1.1-0.9c-0.4-0.2-0.9-0.3-1.4-0.3C901.4,63,900.7,63.2,900.2,63.7L900.2,63.7z"/>
	<path class="st2" d="M908.2,71.1c-0.1-0.1-0.2-0.3-0.2-0.5v-0.4c0-0.2,0-0.4,0.2-0.5c0.1-0.1,0.3-0.2,0.5-0.2h0.1
		c0.2,0,0.3,0.1,0.5,0.2c0.1,0.1,0.2,0.3,0.2,0.5v0.4c0,0.2,0,0.4-0.2,0.5c-0.1,0.1-0.3,0.2-0.5,0.2h-0.1
		C908.5,71.3,908.3,71.3,908.2,71.1z"/>
	<g>
		<path class="st2" d="M263.9,52.4c0,0.3-0.1,0.5-0.3,0.6c-0.2,0.2-0.4,0.2-0.6,0.2c-0.2,0-0.3-0.1-0.5-0.2
			c-0.1-0.1-0.3-0.3-0.4-0.4l-1.2-2.8h-5.9l-1.2,2.8c-0.1,0.2-0.2,0.3-0.3,0.4c-0.1,0.1-0.3,0.2-0.5,0.2c-0.3,0-0.5-0.1-0.6-0.2
			c-0.1-0.1-0.2-0.3-0.2-0.6c0-0.1,0-0.2,0-0.3l4.8-11.7c0.1-0.2,0.2-0.4,0.4-0.5c0.2-0.1,0.3-0.1,0.5-0.1c0.2,0,0.4,0.1,0.5,0.2
			c0.2,0.1,0.3,0.2,0.3,0.4l4.8,11.6C263.9,52.2,263.9,52.3,263.9,52.4z M255.9,48.1h4.4l-2.2-5.3L255.9,48.1z"/>
		<path class="st2" d="M273.5,43.5c0.2,0.2,0.3,0.4,0.3,0.6v5.1c0,1.3-0.4,2.3-1.1,3.1c-0.7,0.7-1.8,1.1-3.1,1.1
			c-1.3,0-2.3-0.4-3.1-1.1c-0.7-0.7-1.1-1.8-1.1-3.1v-5.1c0-0.3,0.1-0.5,0.3-0.6s0.4-0.3,0.6-0.3c0.3,0,0.5,0.1,0.7,0.3
			s0.3,0.4,0.3,0.6v5.1c0,1.7,0.8,2.5,2.3,2.5c0.8,0,1.4-0.2,1.8-0.6s0.6-1,0.6-1.9v-5.1c0-0.3,0.1-0.5,0.3-0.6s0.4-0.3,0.6-0.3
			C273.1,43.3,273.3,43.3,273.5,43.5z"/>
		<path class="st2" d="M285.2,43.4c0.2,0.2,0.3,0.4,0.3,0.7v8.4c0,1-0.2,1.9-0.7,2.6c-0.4,0.7-1,1.2-1.8,1.5
			c-0.7,0.3-1.6,0.5-2.5,0.5c-0.5,0-1.1-0.1-1.8-0.3c-0.7-0.2-1.1-0.4-1.3-0.6c-0.4-0.2-0.6-0.5-0.6-0.8c0-0.1,0-0.2,0.1-0.3
			c0.1-0.3,0.4-0.5,0.7-0.5c0.2,0,0.3,0,0.5,0.1c1,0.4,1.8,0.6,2.4,0.6c1,0,1.8-0.2,2.3-0.7c0.5-0.5,0.8-1.2,0.8-2v-1
			c-0.3,0.5-0.7,0.9-1.3,1.3s-1.3,0.5-2,0.5c-0.9,0-1.7-0.2-2.4-0.7c-0.7-0.4-1.3-1.1-1.7-1.9s-0.6-1.7-0.6-2.7c0-1,0.2-1.9,0.6-2.7
			c0.4-0.8,1-1.4,1.7-1.9s1.5-0.7,2.4-0.7c0.7,0,1.3,0.2,1.9,0.5c0.6,0.3,1.1,0.7,1.4,1.2v-0.6c0-0.3,0.1-0.5,0.2-0.7
			c0.2-0.2,0.4-0.3,0.6-0.3S285,43.2,285.2,43.4z M282.2,51.3c0.5-0.3,0.9-0.7,1.1-1.3c0.3-0.5,0.4-1.1,0.4-1.8
			c0-0.7-0.1-1.3-0.4-1.8s-0.6-1-1.1-1.3c-0.5-0.3-1-0.5-1.7-0.5c-0.6,0-1.2,0.2-1.6,0.5c-0.5,0.3-0.9,0.7-1.1,1.3
			c-0.3,0.5-0.4,1.1-0.4,1.8c0,0.7,0.1,1.3,0.4,1.8s0.6,1,1.1,1.3c0.5,0.3,1,0.5,1.6,0.5C281.2,51.7,281.7,51.6,282.2,51.3z"/>
		<path class="st2" d="M296.1,43.5c0.2,0.2,0.3,0.4,0.3,0.6v5.1c0,1.3-0.4,2.3-1.1,3.1c-0.7,0.7-1.8,1.1-3.1,1.1
			c-1.3,0-2.3-0.4-3.1-1.1c-0.7-0.7-1.1-1.8-1.1-3.1v-5.1c0-0.3,0.1-0.5,0.3-0.6s0.4-0.3,0.6-0.3c0.3,0,0.5,0.1,0.7,0.3
			s0.3,0.4,0.3,0.6v5.1c0,1.7,0.8,2.5,2.3,2.5c0.8,0,1.4-0.2,1.8-0.6s0.6-1,0.6-1.9v-5.1c0-0.3,0.1-0.5,0.3-0.6s0.4-0.3,0.6-0.3
			C295.7,43.3,295.9,43.3,296.1,43.5z"/>
		<path class="st2" d="M298.3,51.1c0-0.3,0.1-0.5,0.4-0.6c0.1-0.1,0.3-0.1,0.4-0.1c0.2,0,0.4,0.1,0.6,0.3c0.4,0.4,0.8,0.8,1.2,1
			c0.4,0.2,1,0.3,1.6,0.3c0.5,0,0.9-0.1,1.3-0.3c0.4-0.2,0.6-0.5,0.6-1c0-0.4-0.2-0.8-0.6-1c-0.4-0.2-0.9-0.4-1.6-0.6
			c-0.7-0.2-1.3-0.4-1.8-0.6s-0.9-0.5-1.2-0.9c-0.3-0.4-0.5-0.9-0.5-1.6c0-0.6,0.2-1.1,0.5-1.5c0.3-0.4,0.8-0.8,1.3-1
			c0.5-0.2,1.1-0.4,1.8-0.4c0.6,0,1.2,0.1,1.8,0.3c0.6,0.2,1.1,0.6,1.5,1c0.2,0.2,0.2,0.4,0.2,0.6c0,0.2-0.1,0.4-0.3,0.6
			c-0.1,0.1-0.3,0.2-0.5,0.2c-0.2,0-0.4-0.1-0.6-0.2c-0.3-0.3-0.6-0.5-1-0.7c-0.4-0.2-0.8-0.2-1.3-0.2c-0.5,0-0.9,0.1-1.2,0.3
			c-0.3,0.2-0.5,0.5-0.5,1c0,0.4,0.2,0.8,0.6,1c0.4,0.2,0.9,0.4,1.7,0.6c0.7,0.2,1.2,0.4,1.7,0.6c0.4,0.2,0.8,0.5,1.1,0.9
			c0.3,0.4,0.5,0.9,0.5,1.6c0,0.6-0.2,1.1-0.5,1.5c-0.3,0.4-0.8,0.8-1.3,1c-0.6,0.2-1.1,0.4-1.8,0.4c-0.8,0-1.5-0.1-2.2-0.4
			c-0.7-0.3-1.3-0.7-1.7-1.3C298.3,51.5,298.3,51.3,298.3,51.1z"/>
		<path class="st2" d="M310.8,45v5.7c0,0.6,0.3,0.9,0.9,0.9c0.1,0,0.2,0,0.4-0.1c0.2,0,0.3-0.1,0.4-0.1c0.2,0,0.3,0.1,0.4,0.2
			c0.1,0.1,0.2,0.3,0.2,0.5c0,0.3-0.2,0.5-0.5,0.7c-0.3,0.2-0.6,0.3-1,0.3c-0.4,0-0.8,0-1.1-0.1c-0.3-0.1-0.7-0.3-0.9-0.7
			c-0.3-0.4-0.4-0.9-0.4-1.6V45h-1.1c-0.2,0-0.4-0.1-0.6-0.2c-0.2-0.2-0.2-0.4-0.2-0.6s0.1-0.4,0.2-0.6c0.2-0.2,0.4-0.2,0.6-0.2h1.1
			v-1.6c0-0.3,0.1-0.5,0.3-0.6c0.2-0.2,0.4-0.3,0.7-0.3c0.3,0,0.5,0.1,0.6,0.3c0.2,0.2,0.3,0.4,0.3,0.6v1.6h1.6
			c0.2,0,0.4,0.1,0.6,0.2c0.2,0.2,0.2,0.4,0.2,0.6s-0.1,0.4-0.2,0.6c-0.2,0.2-0.4,0.2-0.6,0.2H310.8z"/>
		<path class="st2" d="M328.7,51.8c0.2,0.2,0.2,0.4,0.2,0.6c0,0.2-0.1,0.4-0.2,0.6c-0.2,0.2-0.4,0.2-0.6,0.2h-6.7
			c-0.3,0-0.5-0.1-0.6-0.2s-0.2-0.4-0.2-0.6c0-0.2,0.1-0.4,0.3-0.6l4.2-4.6c1.2-1.3,1.8-2.4,1.8-3.3c0-0.7-0.2-1.3-0.7-1.7
			c-0.4-0.4-1-0.7-1.7-0.7c-0.5,0-0.9,0.1-1.3,0.4s-0.8,0.6-1,1.1c-0.2,0.3-0.4,0.4-0.7,0.4c-0.2,0-0.4-0.1-0.6-0.2
			c-0.2-0.2-0.3-0.4-0.3-0.6c0-0.1,0-0.3,0.1-0.4c0.1-0.2,0.2-0.3,0.4-0.5c0.4-0.6,1-1,1.6-1.3c0.6-0.3,1.3-0.5,2-0.5
			c0.8,0,1.6,0.2,2.2,0.5c0.6,0.3,1.1,0.8,1.4,1.4s0.5,1.3,0.5,2.1c0,1.5-0.8,3-2.4,4.7l-2.9,3.1h4.7
			C328.3,51.5,328.5,51.6,328.7,51.8z"/>
		<path class="st2" d="M332.7,52.5c-0.7-0.6-1.3-1.4-1.7-2.4c-0.4-1-0.6-2.2-0.6-3.6c0-1.3,0.2-2.5,0.6-3.6c0.4-1,0.9-1.8,1.7-2.4
			c0.7-0.6,1.6-0.9,2.7-0.9s1.9,0.3,2.7,0.9c0.7,0.6,1.3,1.4,1.7,2.4c0.4,1,0.6,2.2,0.6,3.6c0,1.3-0.2,2.5-0.6,3.6
			c-0.4,1-0.9,1.8-1.7,2.4c-0.7,0.6-1.6,0.9-2.7,0.9S333.5,53.1,332.7,52.5z M337.5,50.3c0.5-0.9,0.8-2.1,0.8-3.7
			c0-1.6-0.3-2.8-0.8-3.7c-0.5-0.9-1.2-1.3-2.2-1.3s-1.6,0.4-2.2,1.3c-0.5,0.9-0.8,2.1-0.8,3.7c0,1.6,0.3,2.8,0.8,3.7
			c0.5,0.9,1.2,1.3,2.2,1.3S337,51.1,337.5,50.3z"/>
		<path class="st2" d="M346,40.2c0.2,0.2,0.2,0.4,0.2,0.6v11.5c0,0.3-0.1,0.5-0.3,0.6s-0.4,0.3-0.7,0.3c-0.3,0-0.5-0.1-0.7-0.3
			s-0.3-0.4-0.3-0.6v-9.9l-1.7,1c-0.1,0.1-0.3,0.1-0.5,0.1c-0.3,0-0.5-0.1-0.6-0.3s-0.3-0.4-0.3-0.6c0-0.2,0-0.3,0.1-0.4
			c0.1-0.1,0.2-0.3,0.3-0.3l3-1.8c0.2-0.1,0.4-0.1,0.7-0.1C345.6,39.9,345.8,40,346,40.2z"/>
		<path class="st2" d="M357.2,40.2c0.2,0.2,0.3,0.4,0.3,0.6c0,0.1,0,0.3-0.1,0.4l-5.1,11.5c-0.1,0.2-0.2,0.3-0.3,0.4
			c-0.2,0.1-0.3,0.2-0.5,0.2c-0.2,0-0.5-0.1-0.6-0.2c-0.2-0.2-0.3-0.4-0.3-0.6c0-0.1,0-0.3,0.1-0.4l4.6-10.4h-5.5
			c-0.2,0-0.4-0.1-0.6-0.2c-0.2-0.2-0.2-0.4-0.2-0.6s0.1-0.4,0.2-0.6c0.2-0.2,0.4-0.2,0.6-0.2h6.8C356.8,39.9,357.1,40,357.2,40.2z"
			/>
	</g>
</g>
</svg>
