<svg id="Layer_1" data-name="Layer 1" xmlns="http://www.w3.org/2000/svg" viewBox="0 0 925.23 105.32"><defs><style>.cls-1{fill:none;stroke:#dae3e5;stroke-width:2px;}.cls-1,.cls-2{stroke-miterlimit:10;}.cls-2{fill:#dae3e5;stroke:#fff;stroke-width:3px;opacity:0.5;}.cls-3{font-size:18px;fill:#fff;font-family:Quicksand-Medium, Quicksand;}.cls-4{letter-spacing:0.01em;}.cls-5{letter-spacing:0em;}.cls-6{letter-spacing:-0.02em;}.cls-7{font-family:Quicksand-Regular, Quicksand;}.cls-8{letter-spacing:-0.02em;}.cls-9{letter-spacing:0em;}.cls-10{letter-spacing:-0.01em;}.cls-11{letter-spacing:-0.01em;}.cls-12{letter-spacing:0em;}.cls-13{letter-spacing:0em;}.cls-14{letter-spacing:0em;}.cls-15{letter-spacing:0em;}</style></defs><title>timeline</title><line class="cls-1" x1="296.4" y1="22.17" x2="78.14" y2="22.17"/><line class="cls-1" x1="595.42" y1="22.17" x2="322.41" y2="22.17"/><line class="cls-1" x1="843.52" y1="22.17" x2="622.55" y2="22.17"/><circle class="cls-2" cx="65.14" cy="22.17" r="11.86"/><circle class="cls-2" cx="309.55" cy="22.17" r="11.86"/><circle class="cls-2" cx="608.92" cy="22.17" r="11.86"/><circle class="cls-2" cx="856.89" cy="22.17" r="11.86"/><text class="cls-3" transform="translate(9.63 61.43)"><tspan class="cls-4">O</tspan><tspan x="13.86" y="0">c</tspan><tspan class="cls-5" x="23.11" y="0">t</tspan><tspan class="cls-6" x="29.86" y="0">o</tspan><tspan x="40.41" y="0">ber 2016</tspan><tspan class="cls-7"><tspan x="-4.87" y="15.71">P</tspan><tspan class="cls-8" x="5.86" y="15.71">r</tspan><tspan class="cls-9" x="12.39" y="15.71">oject l</tspan><tspan class="cls-10" x="61.86" y="15.71">a</tspan><tspan x="72.51" y="15.71">unch.</tspan></tspan></text><text class="cls-3" transform="translate(270.69 61.43)">Ju<tspan class="cls-11" x="20.52" y="0">l</tspan><tspan x="24.8" y="0">y 2018</tspan><tspan class="cls-7"><tspan x="-37.2" y="15.71">Alpha </tspan><tspan class="cls-5" x="15.4" y="15.71">t</tspan><tspan class="cls-12" x="21.41" y="15.71">esting with </tspan><tspan x="-29.36" y="31.41">p</tspan><tspan class="cls-8" x="-18.52" y="31.41">r</tspan><tspan class="cls-9" x="-11.99" y="31.41">oject partners.</tspan></tspan></text><text class="cls-3" transform="translate(568.59 61.43)">April 2019<tspan class="cls-7"><tspan class="cls-5" x="-54.62" y="15.71">P</tspan><tspan x="-43.98" y="15.71">ublic beta </tspan><tspan class="cls-13" x="41.95" y="15.71">t</tspan><tspan x="47.96" y="15.71">est b</tspan><tspan class="cls-13" x="88.26" y="15.71">e</tspan><tspan class="cls-14" x="98.18" y="15.71">gins.</tspan></tspan></text><text class="cls-3" transform="translate(814.26 61.43)">April 2020<tspan class="cls-7"><tspan x="-17.33" y="15.71">Stab</tspan><tspan class="cls-10" x="20.56" y="15.71">l</tspan><tspan x="24.52" y="15.71">e </tspan><tspan class="cls-8" x="39.45" y="15.71">r</tspan><tspan x="45.98" y="15.71">e</tspan><tspan class="cls-10" x="55.99" y="15.71">l</tspan><tspan class="cls-15" x="59.95" y="15.71">e</tspan><tspan x="70.03" y="15.71">ase.</tspan></tspan></text></svg>